G04 #@! TF.GenerationSoftware,KiCad,Pcbnew,5.1.4*
G04 #@! TF.CreationDate,2019-10-24T19:13:33+02:00*
G04 #@! TF.ProjectId,lpg,6c70672e-6b69-4636-9164-5f7063625858,rev?*
G04 #@! TF.SameCoordinates,Original*
G04 #@! TF.FileFunction,Copper,L1,Top*
G04 #@! TF.FilePolarity,Positive*
%FSLAX46Y46*%
G04 Gerber Fmt 4.6, Leading zero omitted, Abs format (unit mm)*
G04 Created by KiCad (PCBNEW 5.1.4) date 2019-10-24 19:13:33*
%MOMM*%
%LPD*%
G04 APERTURE LIST*
%ADD10O,1.700000X1.700000*%
%ADD11R,1.700000X1.700000*%
%ADD12C,1.700000*%
%ADD13C,1.150000*%
%ADD14C,0.100000*%
%ADD15O,1.600000X1.600000*%
%ADD16R,1.600000X1.600000*%
%ADD17C,1.800000*%
%ADD18C,1.440000*%
%ADD19O,1.400000X1.400000*%
%ADD20C,1.400000*%
%ADD21O,1.800000X2.800000*%
%ADD22O,2.800000X2.800000*%
%ADD23R,2.800000X2.800000*%
%ADD24C,1.600000*%
%ADD25C,0.800000*%
%ADD26C,0.250000*%
%ADD27C,0.254000*%
G04 APERTURE END LIST*
D10*
X109460000Y-79000000D03*
D11*
X112000000Y-79000000D03*
D12*
X132040000Y-71160000D03*
X129500000Y-71160000D03*
X132040000Y-68620000D03*
X129500000Y-68620000D03*
X132040000Y-66080000D03*
X129500000Y-66080000D03*
X132040000Y-63540000D03*
X129500000Y-63540000D03*
X132040000Y-61000000D03*
D11*
X129500000Y-61000000D03*
D13*
X117700000Y-119500000D03*
X117060000Y-134500000D03*
X122140000Y-134500000D03*
D14*
G36*
X121815680Y-118926384D02*
G01*
X121843588Y-118930524D01*
X121870957Y-118937380D01*
X121897521Y-118946885D01*
X121923027Y-118958948D01*
X121947226Y-118973452D01*
X121969888Y-118990259D01*
X121990793Y-119009207D01*
X122009741Y-119030112D01*
X122026548Y-119052774D01*
X122041052Y-119076973D01*
X122053115Y-119102479D01*
X122062620Y-119129043D01*
X122069476Y-119156412D01*
X122073616Y-119184320D01*
X122075000Y-119212500D01*
X122075000Y-119787500D01*
X122073616Y-119815680D01*
X122069476Y-119843588D01*
X122062620Y-119870957D01*
X122053115Y-119897521D01*
X122041052Y-119923027D01*
X122026548Y-119947226D01*
X122009741Y-119969888D01*
X121990793Y-119990793D01*
X121969888Y-120009741D01*
X121947226Y-120026548D01*
X121923027Y-120041052D01*
X121897521Y-120053115D01*
X121870957Y-120062620D01*
X121843588Y-120069476D01*
X121815680Y-120073616D01*
X121787500Y-120075000D01*
X121212500Y-120075000D01*
X121184320Y-120073616D01*
X121156412Y-120069476D01*
X121129043Y-120062620D01*
X121102479Y-120053115D01*
X121076973Y-120041052D01*
X121052774Y-120026548D01*
X121030112Y-120009741D01*
X121009207Y-119990793D01*
X120990259Y-119969888D01*
X120973452Y-119947226D01*
X120958948Y-119923027D01*
X120946885Y-119897521D01*
X120937380Y-119870957D01*
X120930524Y-119843588D01*
X120926384Y-119815680D01*
X120925000Y-119787500D01*
X120925000Y-119212500D01*
X120926384Y-119184320D01*
X120930524Y-119156412D01*
X120937380Y-119129043D01*
X120946885Y-119102479D01*
X120958948Y-119076973D01*
X120973452Y-119052774D01*
X120990259Y-119030112D01*
X121009207Y-119009207D01*
X121030112Y-118990259D01*
X121052774Y-118973452D01*
X121076973Y-118958948D01*
X121102479Y-118946885D01*
X121129043Y-118937380D01*
X121156412Y-118930524D01*
X121184320Y-118926384D01*
X121212500Y-118925000D01*
X121787500Y-118925000D01*
X121815680Y-118926384D01*
X121815680Y-118926384D01*
G37*
D13*
X121500000Y-119500000D03*
X121300000Y-152000000D03*
X121940000Y-137000000D03*
X116860000Y-137000000D03*
D14*
G36*
X117815680Y-151426384D02*
G01*
X117843588Y-151430524D01*
X117870957Y-151437380D01*
X117897521Y-151446885D01*
X117923027Y-151458948D01*
X117947226Y-151473452D01*
X117969888Y-151490259D01*
X117990793Y-151509207D01*
X118009741Y-151530112D01*
X118026548Y-151552774D01*
X118041052Y-151576973D01*
X118053115Y-151602479D01*
X118062620Y-151629043D01*
X118069476Y-151656412D01*
X118073616Y-151684320D01*
X118075000Y-151712500D01*
X118075000Y-152287500D01*
X118073616Y-152315680D01*
X118069476Y-152343588D01*
X118062620Y-152370957D01*
X118053115Y-152397521D01*
X118041052Y-152423027D01*
X118026548Y-152447226D01*
X118009741Y-152469888D01*
X117990793Y-152490793D01*
X117969888Y-152509741D01*
X117947226Y-152526548D01*
X117923027Y-152541052D01*
X117897521Y-152553115D01*
X117870957Y-152562620D01*
X117843588Y-152569476D01*
X117815680Y-152573616D01*
X117787500Y-152575000D01*
X117212500Y-152575000D01*
X117184320Y-152573616D01*
X117156412Y-152569476D01*
X117129043Y-152562620D01*
X117102479Y-152553115D01*
X117076973Y-152541052D01*
X117052774Y-152526548D01*
X117030112Y-152509741D01*
X117009207Y-152490793D01*
X116990259Y-152469888D01*
X116973452Y-152447226D01*
X116958948Y-152423027D01*
X116946885Y-152397521D01*
X116937380Y-152370957D01*
X116930524Y-152343588D01*
X116926384Y-152315680D01*
X116925000Y-152287500D01*
X116925000Y-151712500D01*
X116926384Y-151684320D01*
X116930524Y-151656412D01*
X116937380Y-151629043D01*
X116946885Y-151602479D01*
X116958948Y-151576973D01*
X116973452Y-151552774D01*
X116990259Y-151530112D01*
X117009207Y-151509207D01*
X117030112Y-151490259D01*
X117052774Y-151473452D01*
X117076973Y-151458948D01*
X117102479Y-151446885D01*
X117129043Y-151437380D01*
X117156412Y-151430524D01*
X117184320Y-151426384D01*
X117212500Y-151425000D01*
X117787500Y-151425000D01*
X117815680Y-151426384D01*
X117815680Y-151426384D01*
G37*
D13*
X117500000Y-152000000D03*
D15*
X134120000Y-100500000D03*
X126500000Y-115740000D03*
X134120000Y-103040000D03*
X126500000Y-113200000D03*
X134120000Y-105580000D03*
X126500000Y-110660000D03*
X134120000Y-108120000D03*
X126500000Y-108120000D03*
X134120000Y-110660000D03*
X126500000Y-105580000D03*
X134120000Y-113200000D03*
X126500000Y-103040000D03*
X134120000Y-115740000D03*
D16*
X126500000Y-100500000D03*
D17*
X101500000Y-76500000D03*
X101500000Y-79000000D03*
X101500000Y-81500000D03*
D18*
X108920000Y-94000000D03*
X111460000Y-94000000D03*
X114000000Y-94000000D03*
X114080000Y-88500000D03*
X111540000Y-88500000D03*
X109000000Y-88500000D03*
D17*
X101500000Y-96500000D03*
X101500000Y-99000000D03*
X101500000Y-101500000D03*
X101500000Y-56500000D03*
X101500000Y-59000000D03*
X101500000Y-61500000D03*
D19*
X116380000Y-98000000D03*
D20*
X124000000Y-98000000D03*
D19*
X113000000Y-115380000D03*
D20*
X113000000Y-123000000D03*
D19*
X124120000Y-113000000D03*
D20*
X116500000Y-113000000D03*
D19*
X116380000Y-108000000D03*
D20*
X124000000Y-108000000D03*
D19*
X124120000Y-110500000D03*
D20*
X116500000Y-110500000D03*
D19*
X116380000Y-100500000D03*
D20*
X124000000Y-100500000D03*
D19*
X127000000Y-86380000D03*
D20*
X127000000Y-94000000D03*
D19*
X134120000Y-97500000D03*
D20*
X126500000Y-97500000D03*
D19*
X116380000Y-105500000D03*
D20*
X124000000Y-105500000D03*
D19*
X134620000Y-81500000D03*
D20*
X127000000Y-81500000D03*
D19*
X126880000Y-78500000D03*
D20*
X134500000Y-78500000D03*
D19*
X116380000Y-103000000D03*
D20*
X124000000Y-103000000D03*
D19*
X114000000Y-105380000D03*
D20*
X114000000Y-113000000D03*
D19*
X126880000Y-84000000D03*
D20*
X134500000Y-84000000D03*
D19*
X101500000Y-65380000D03*
D20*
X101500000Y-73000000D03*
D19*
X126380000Y-121000000D03*
D20*
X134000000Y-121000000D03*
D21*
X105900000Y-147500000D03*
X100400000Y-147500000D03*
X98000000Y-149500000D03*
D10*
X122000000Y-75960000D03*
D11*
X122000000Y-78500000D03*
D10*
X118000000Y-78540000D03*
D11*
X118000000Y-76000000D03*
D10*
X112040000Y-72500000D03*
D11*
X109500000Y-72500000D03*
D10*
X113000000Y-99460000D03*
D11*
X113000000Y-102000000D03*
D10*
X112040000Y-65000000D03*
D11*
X109500000Y-65000000D03*
D21*
X105900000Y-116500000D03*
X100400000Y-116500000D03*
X98000000Y-118500000D03*
X105900000Y-132000000D03*
X100400000Y-132000000D03*
X98000000Y-134000000D03*
D22*
X123000000Y-93660000D03*
D23*
X123000000Y-83500000D03*
D24*
X129500000Y-94000000D03*
X134500000Y-94000000D03*
X116500000Y-116000000D03*
X121500000Y-116000000D03*
X127500000Y-130500000D03*
X132500000Y-130500000D03*
X132500000Y-127500000D03*
X127500000Y-127500000D03*
X111000000Y-111000000D03*
X111000000Y-106000000D03*
X120000000Y-68500000D03*
D16*
X120000000Y-71000000D03*
D24*
X120000000Y-60500000D03*
D16*
X120000000Y-63000000D03*
D24*
X129500000Y-87000000D03*
X134500000Y-87000000D03*
D25*
X119500000Y-101000000D03*
X130000000Y-90500000D03*
X112500000Y-108500000D03*
X118500000Y-89500000D03*
D26*
X135625001Y-88125001D02*
X135299999Y-87799999D01*
X135625001Y-109154999D02*
X135625001Y-88125001D01*
X135299999Y-87799999D02*
X134500000Y-87000000D01*
X134120000Y-110660000D02*
X135625001Y-109154999D01*
X117079999Y-98699999D02*
X117199999Y-98699999D01*
X116380000Y-98000000D02*
X117079999Y-98699999D01*
X117199999Y-98699999D02*
X119500000Y-101000000D01*
X119500000Y-101000000D02*
X119500000Y-101000000D01*
X123000000Y-103000000D02*
X114000000Y-94000000D01*
X124000000Y-103000000D02*
X123000000Y-103000000D01*
X131700001Y-131299999D02*
X132500000Y-130500000D01*
X127599999Y-135400001D02*
X131700001Y-131299999D01*
X121707999Y-135400001D02*
X127599999Y-135400001D01*
X121239999Y-134932001D02*
X121707999Y-135400001D01*
X121239999Y-121707997D02*
X121239999Y-134932001D01*
X118132001Y-118599999D02*
X121239999Y-121707997D01*
X117099999Y-118599999D02*
X118132001Y-118599999D01*
X115374999Y-116874999D02*
X117099999Y-118599999D01*
X115374999Y-111374999D02*
X115374999Y-116874999D01*
X112500000Y-108500000D02*
X115374999Y-111374999D01*
X122714999Y-133925001D02*
X122140000Y-134500000D01*
X122714999Y-117214999D02*
X122714999Y-133925001D01*
X121500000Y-116000000D02*
X122714999Y-117214999D01*
X102399999Y-78100001D02*
X101500000Y-79000000D01*
X102675001Y-77824999D02*
X102399999Y-78100001D01*
X113324999Y-77824999D02*
X102675001Y-77824999D01*
X129500000Y-94000000D02*
X113324999Y-77824999D01*
X130631370Y-94000000D02*
X129500000Y-94000000D01*
X132137002Y-94000000D02*
X130631370Y-94000000D01*
X135145001Y-97007999D02*
X132137002Y-94000000D01*
X135145001Y-97992001D02*
X135145001Y-97007999D01*
X134612001Y-98525001D02*
X135145001Y-97992001D01*
X133974999Y-98525001D02*
X134612001Y-98525001D01*
X132994999Y-99505001D02*
X133974999Y-98525001D01*
X132994999Y-101914999D02*
X132994999Y-99505001D01*
X134120000Y-103040000D02*
X132994999Y-101914999D01*
X123100000Y-78500000D02*
X122000000Y-78500000D01*
X126542003Y-79525001D02*
X124125001Y-79525001D01*
X128025001Y-81007999D02*
X126542003Y-79525001D01*
X124125001Y-79525001D02*
X123100000Y-78500000D01*
X128025001Y-83859999D02*
X128025001Y-81007999D01*
X134500000Y-90334998D02*
X128025001Y-83859999D01*
X134500000Y-94000000D02*
X134500000Y-90334998D01*
X103175001Y-74824999D02*
X102399999Y-75600001D01*
X119110001Y-74824999D02*
X103175001Y-74824999D01*
X120824999Y-76539997D02*
X119110001Y-74824999D01*
X120824999Y-78424999D02*
X120824999Y-76539997D01*
X120900000Y-78500000D02*
X120824999Y-78424999D01*
X102399999Y-75600001D02*
X101500000Y-76500000D01*
X122000000Y-78500000D02*
X120900000Y-78500000D01*
X121800000Y-151500000D02*
X121300000Y-152000000D01*
X134000000Y-139300000D02*
X121800000Y-151500000D01*
X134000000Y-126000000D02*
X134000000Y-139300000D01*
X132000000Y-124000000D02*
X134000000Y-126000000D01*
X132000000Y-103000000D02*
X132000000Y-124000000D01*
X126500000Y-97500000D02*
X132000000Y-103000000D01*
X107620000Y-99000000D02*
X101500000Y-99000000D01*
X114000000Y-105380000D02*
X107620000Y-99000000D01*
X131620000Y-78500000D02*
X126880000Y-78500000D01*
X134620000Y-81500000D02*
X131620000Y-78500000D01*
X135319999Y-82199999D02*
X134620000Y-81500000D01*
X136500000Y-83380000D02*
X135319999Y-82199999D01*
X136500000Y-110820000D02*
X136500000Y-83380000D01*
X134120000Y-113200000D02*
X136500000Y-110820000D01*
X135199999Y-79199999D02*
X134500000Y-78500000D01*
X136950009Y-80950009D02*
X135199999Y-79199999D01*
X136950009Y-112909991D02*
X136950009Y-80950009D01*
X134120000Y-115740000D02*
X136950009Y-112909991D01*
X115098233Y-88500000D02*
X114080000Y-88500000D01*
X123017002Y-88500000D02*
X115098233Y-88500000D01*
X128025001Y-93507999D02*
X123017002Y-88500000D01*
X128025001Y-94190003D02*
X128025001Y-93507999D01*
X130634999Y-96800001D02*
X128025001Y-94190003D01*
X133420001Y-96800001D02*
X130634999Y-96800001D01*
X134120000Y-97500000D02*
X133420001Y-96800001D01*
X117079999Y-101199999D02*
X116380000Y-100500000D01*
X121500000Y-118825000D02*
X117525001Y-114850001D01*
X117525001Y-101645001D02*
X117079999Y-101199999D01*
X117525001Y-114850001D02*
X117525001Y-101645001D01*
X121500000Y-119500000D02*
X121500000Y-118825000D01*
X101500000Y-82772792D02*
X101500000Y-81500000D01*
X108272209Y-89545001D02*
X101500000Y-82772792D01*
X124000000Y-98000000D02*
X115545001Y-89545001D01*
X115545001Y-89545001D02*
X108272209Y-89545001D01*
X116938497Y-151438497D02*
X117500000Y-152000000D01*
X115959999Y-150459999D02*
X116938497Y-151438497D01*
X115959999Y-121240001D02*
X115959999Y-150459999D01*
X117700000Y-119500000D02*
X115959999Y-121240001D01*
X124725001Y-92831999D02*
X121393002Y-89500000D01*
X124725001Y-94207999D02*
X124725001Y-92831999D01*
X132450009Y-101933007D02*
X124725001Y-94207999D01*
X134120000Y-105580000D02*
X132450009Y-103910009D01*
X132450009Y-103910009D02*
X132450009Y-101933007D01*
X121393002Y-89500000D02*
X118500000Y-89500000D01*
X118500000Y-89500000D02*
X118500000Y-89500000D01*
X113000000Y-95540000D02*
X111460000Y-94000000D01*
X113000000Y-99460000D02*
X113000000Y-95540000D01*
X111460000Y-94000000D02*
X108920000Y-94000000D01*
X115525001Y-99474999D02*
X113000000Y-102000000D01*
X116872001Y-99474999D02*
X115525001Y-99474999D01*
X121872001Y-104474999D02*
X116872001Y-99474999D01*
X124025001Y-104474999D02*
X121872001Y-104474999D01*
X125025001Y-103474999D02*
X124025001Y-104474999D01*
X125025001Y-100924999D02*
X125025001Y-103474999D01*
X125450000Y-100500000D02*
X125025001Y-100924999D01*
X126500000Y-100500000D02*
X125450000Y-100500000D01*
X101550000Y-147500000D02*
X100400000Y-147500000D01*
X113000000Y-136050000D02*
X101550000Y-147500000D01*
X113000000Y-123000000D02*
X113000000Y-136050000D01*
D27*
G36*
X137340001Y-80265199D02*
G01*
X135813645Y-78738844D01*
X135835000Y-78631486D01*
X135835000Y-78368514D01*
X135783696Y-78110595D01*
X135683061Y-77867641D01*
X135536962Y-77648987D01*
X135351013Y-77463038D01*
X135132359Y-77316939D01*
X134889405Y-77216304D01*
X134631486Y-77165000D01*
X134368514Y-77165000D01*
X134110595Y-77216304D01*
X133867641Y-77316939D01*
X133648987Y-77463038D01*
X133463038Y-77648987D01*
X133316939Y-77867641D01*
X133216304Y-78110595D01*
X133165000Y-78368514D01*
X133165000Y-78631486D01*
X133216304Y-78889405D01*
X133309711Y-79114910D01*
X132183804Y-77989003D01*
X132160001Y-77959999D01*
X132044276Y-77865026D01*
X131912247Y-77794454D01*
X131768986Y-77750997D01*
X131657333Y-77740000D01*
X131657322Y-77740000D01*
X131620000Y-77736324D01*
X131582678Y-77740000D01*
X127983298Y-77740000D01*
X127828555Y-77551445D01*
X127625275Y-77384618D01*
X127393354Y-77260653D01*
X127141706Y-77184317D01*
X126945579Y-77165000D01*
X126814421Y-77165000D01*
X126618294Y-77184317D01*
X126366646Y-77260653D01*
X126134725Y-77384618D01*
X125931445Y-77551445D01*
X125764618Y-77754725D01*
X125640653Y-77986646D01*
X125564317Y-78238294D01*
X125538541Y-78500000D01*
X125564317Y-78761706D01*
X125565317Y-78765001D01*
X124439803Y-78765001D01*
X123663804Y-77989002D01*
X123640001Y-77959999D01*
X123524276Y-77865026D01*
X123488072Y-77845674D01*
X123488072Y-77650000D01*
X123475812Y-77525518D01*
X123439502Y-77405820D01*
X123380537Y-77295506D01*
X123301185Y-77198815D01*
X123204494Y-77119463D01*
X123094180Y-77060498D01*
X123025313Y-77039607D01*
X123055134Y-77015134D01*
X123240706Y-76789014D01*
X123378599Y-76531034D01*
X123463513Y-76251111D01*
X123492185Y-75960000D01*
X123463513Y-75668889D01*
X123378599Y-75388966D01*
X123240706Y-75130986D01*
X123055134Y-74904866D01*
X122829014Y-74719294D01*
X122571034Y-74581401D01*
X122291111Y-74496487D01*
X122072950Y-74475000D01*
X121927050Y-74475000D01*
X121708889Y-74496487D01*
X121428966Y-74581401D01*
X121170986Y-74719294D01*
X120944866Y-74904866D01*
X120759294Y-75130986D01*
X120665767Y-75305963D01*
X119673804Y-74314001D01*
X119650002Y-74284998D01*
X119534277Y-74190025D01*
X119402248Y-74119453D01*
X119258987Y-74075996D01*
X119147334Y-74064999D01*
X119147323Y-74064999D01*
X119110001Y-74061323D01*
X119072679Y-74064999D01*
X103212323Y-74064999D01*
X103175000Y-74061323D01*
X103137677Y-74064999D01*
X103137668Y-74064999D01*
X103026015Y-74075996D01*
X102882754Y-74119453D01*
X102750725Y-74190025D01*
X102635000Y-74284998D01*
X102611202Y-74313997D01*
X101908930Y-75016269D01*
X101651184Y-74965000D01*
X101348816Y-74965000D01*
X101052257Y-75023989D01*
X100772905Y-75139701D01*
X100521495Y-75307688D01*
X100307688Y-75521495D01*
X100139701Y-75772905D01*
X100023989Y-76052257D01*
X99965000Y-76348816D01*
X99965000Y-76651184D01*
X100023989Y-76947743D01*
X100139701Y-77227095D01*
X100307688Y-77478505D01*
X100521495Y-77692312D01*
X100607831Y-77750000D01*
X100521495Y-77807688D01*
X100307688Y-78021495D01*
X100139701Y-78272905D01*
X100023989Y-78552257D01*
X99965000Y-78848816D01*
X99965000Y-79151184D01*
X100023989Y-79447743D01*
X100139701Y-79727095D01*
X100307688Y-79978505D01*
X100521495Y-80192312D01*
X100607831Y-80250000D01*
X100521495Y-80307688D01*
X100307688Y-80521495D01*
X100139701Y-80772905D01*
X100023989Y-81052257D01*
X99965000Y-81348816D01*
X99965000Y-81651184D01*
X100023989Y-81947743D01*
X100139701Y-82227095D01*
X100307688Y-82478505D01*
X100521495Y-82692312D01*
X100742972Y-82840298D01*
X100750997Y-82921777D01*
X100785342Y-83035000D01*
X100794454Y-83065038D01*
X100865026Y-83197068D01*
X100892885Y-83231014D01*
X100959999Y-83312793D01*
X100989003Y-83336596D01*
X107708409Y-90056003D01*
X107732208Y-90085002D01*
X107847933Y-90179975D01*
X107979962Y-90250547D01*
X108123223Y-90294004D01*
X108234876Y-90305001D01*
X108234886Y-90305001D01*
X108272209Y-90308677D01*
X108309532Y-90305001D01*
X115230200Y-90305001D01*
X122686355Y-97761157D01*
X122665000Y-97868514D01*
X122665000Y-98131486D01*
X122716304Y-98389405D01*
X122816939Y-98632359D01*
X122963038Y-98851013D01*
X123148987Y-99036962D01*
X123367641Y-99183061D01*
X123529246Y-99250000D01*
X123367641Y-99316939D01*
X123148987Y-99463038D01*
X122963038Y-99648987D01*
X122816939Y-99867641D01*
X122716304Y-100110595D01*
X122665000Y-100368514D01*
X122665000Y-100631486D01*
X122716304Y-100889405D01*
X122816939Y-101132359D01*
X122963038Y-101351013D01*
X123148987Y-101536962D01*
X123367641Y-101683061D01*
X123529246Y-101750000D01*
X123367641Y-101816939D01*
X123148987Y-101963038D01*
X123093413Y-102018612D01*
X115330654Y-94255853D01*
X115355000Y-94133456D01*
X115355000Y-93866544D01*
X115302928Y-93604761D01*
X115200785Y-93358167D01*
X115052497Y-93136238D01*
X114863762Y-92947503D01*
X114641833Y-92799215D01*
X114395239Y-92697072D01*
X114133456Y-92645000D01*
X113866544Y-92645000D01*
X113604761Y-92697072D01*
X113358167Y-92799215D01*
X113136238Y-92947503D01*
X112947503Y-93136238D01*
X112799215Y-93358167D01*
X112730000Y-93525266D01*
X112660785Y-93358167D01*
X112512497Y-93136238D01*
X112323762Y-92947503D01*
X112101833Y-92799215D01*
X111855239Y-92697072D01*
X111593456Y-92645000D01*
X111326544Y-92645000D01*
X111064761Y-92697072D01*
X110818167Y-92799215D01*
X110596238Y-92947503D01*
X110407503Y-93136238D01*
X110338172Y-93240000D01*
X110041828Y-93240000D01*
X109972497Y-93136238D01*
X109783762Y-92947503D01*
X109561833Y-92799215D01*
X109315239Y-92697072D01*
X109053456Y-92645000D01*
X108786544Y-92645000D01*
X108524761Y-92697072D01*
X108278167Y-92799215D01*
X108056238Y-92947503D01*
X107867503Y-93136238D01*
X107719215Y-93358167D01*
X107617072Y-93604761D01*
X107565000Y-93866544D01*
X107565000Y-94133456D01*
X107617072Y-94395239D01*
X107719215Y-94641833D01*
X107867503Y-94863762D01*
X108056238Y-95052497D01*
X108278167Y-95200785D01*
X108524761Y-95302928D01*
X108786544Y-95355000D01*
X109053456Y-95355000D01*
X109315239Y-95302928D01*
X109561833Y-95200785D01*
X109783762Y-95052497D01*
X109972497Y-94863762D01*
X110041828Y-94760000D01*
X110338172Y-94760000D01*
X110407503Y-94863762D01*
X110596238Y-95052497D01*
X110818167Y-95200785D01*
X111064761Y-95302928D01*
X111326544Y-95355000D01*
X111593456Y-95355000D01*
X111715852Y-95330654D01*
X112240001Y-95854803D01*
X112240000Y-98182405D01*
X112170986Y-98219294D01*
X111944866Y-98404866D01*
X111759294Y-98630986D01*
X111621401Y-98888966D01*
X111536487Y-99168889D01*
X111507815Y-99460000D01*
X111536487Y-99751111D01*
X111621401Y-100031034D01*
X111759294Y-100289014D01*
X111944866Y-100515134D01*
X111974687Y-100539607D01*
X111905820Y-100560498D01*
X111795506Y-100619463D01*
X111698815Y-100698815D01*
X111619463Y-100795506D01*
X111560498Y-100905820D01*
X111524188Y-101025518D01*
X111511928Y-101150000D01*
X111511928Y-101817126D01*
X108183804Y-98489003D01*
X108160001Y-98459999D01*
X108044276Y-98365026D01*
X107912247Y-98294454D01*
X107768986Y-98250997D01*
X107657333Y-98240000D01*
X107657322Y-98240000D01*
X107620000Y-98236324D01*
X107582678Y-98240000D01*
X102838313Y-98240000D01*
X102692312Y-98021495D01*
X102478505Y-97807688D01*
X102392169Y-97750000D01*
X102478505Y-97692312D01*
X102692312Y-97478505D01*
X102860299Y-97227095D01*
X102976011Y-96947743D01*
X103035000Y-96651184D01*
X103035000Y-96348816D01*
X102976011Y-96052257D01*
X102860299Y-95772905D01*
X102692312Y-95521495D01*
X102478505Y-95307688D01*
X102227095Y-95139701D01*
X101947743Y-95023989D01*
X101651184Y-94965000D01*
X101348816Y-94965000D01*
X101052257Y-95023989D01*
X100772905Y-95139701D01*
X100521495Y-95307688D01*
X100307688Y-95521495D01*
X100139701Y-95772905D01*
X100023989Y-96052257D01*
X99965000Y-96348816D01*
X99965000Y-96651184D01*
X100023989Y-96947743D01*
X100139701Y-97227095D01*
X100307688Y-97478505D01*
X100521495Y-97692312D01*
X100607831Y-97750000D01*
X100521495Y-97807688D01*
X100307688Y-98021495D01*
X100139701Y-98272905D01*
X100023989Y-98552257D01*
X99965000Y-98848816D01*
X99965000Y-99151184D01*
X100023989Y-99447743D01*
X100139701Y-99727095D01*
X100307688Y-99978505D01*
X100521495Y-100192312D01*
X100664310Y-100287738D01*
X100615525Y-100435920D01*
X101500000Y-101320395D01*
X102384475Y-100435920D01*
X102335690Y-100287738D01*
X102478505Y-100192312D01*
X102692312Y-99978505D01*
X102838313Y-99760000D01*
X107305199Y-99760000D01*
X112682450Y-105137252D01*
X112658541Y-105380000D01*
X112684317Y-105641706D01*
X112760653Y-105893354D01*
X112884618Y-106125275D01*
X113051445Y-106328555D01*
X113254725Y-106495382D01*
X113486646Y-106619347D01*
X113738294Y-106695683D01*
X113934421Y-106715000D01*
X114065579Y-106715000D01*
X114261706Y-106695683D01*
X114513354Y-106619347D01*
X114745275Y-106495382D01*
X114948555Y-106328555D01*
X115115382Y-106125275D01*
X115163615Y-106035037D01*
X115230208Y-106178392D01*
X115384649Y-106389670D01*
X115577340Y-106566759D01*
X115800877Y-106702853D01*
X115929825Y-106750000D01*
X115800877Y-106797147D01*
X115577340Y-106933241D01*
X115384649Y-107110330D01*
X115230208Y-107321608D01*
X115119953Y-107558956D01*
X115087284Y-107666671D01*
X115210626Y-107873000D01*
X116253000Y-107873000D01*
X116253000Y-106829799D01*
X116118615Y-106750000D01*
X116253000Y-106670201D01*
X116253000Y-105627000D01*
X116233000Y-105627000D01*
X116233000Y-105373000D01*
X116253000Y-105373000D01*
X116253000Y-105353000D01*
X116507000Y-105353000D01*
X116507000Y-105373000D01*
X116527000Y-105373000D01*
X116527000Y-105627000D01*
X116507000Y-105627000D01*
X116507000Y-106670201D01*
X116641385Y-106750000D01*
X116507000Y-106829799D01*
X116507000Y-107873000D01*
X116527000Y-107873000D01*
X116527000Y-108127000D01*
X116507000Y-108127000D01*
X116507000Y-108147000D01*
X116253000Y-108147000D01*
X116253000Y-108127000D01*
X115210626Y-108127000D01*
X115087284Y-108333329D01*
X115119953Y-108441044D01*
X115230208Y-108678392D01*
X115384649Y-108889670D01*
X115577340Y-109066759D01*
X115800877Y-109202853D01*
X115982632Y-109269308D01*
X115867641Y-109316939D01*
X115648987Y-109463038D01*
X115463038Y-109648987D01*
X115316939Y-109867641D01*
X115216304Y-110110595D01*
X115211176Y-110136374D01*
X113535000Y-108460199D01*
X113535000Y-108398061D01*
X113495226Y-108198102D01*
X113417205Y-108009744D01*
X113303937Y-107840226D01*
X113159774Y-107696063D01*
X112990256Y-107582795D01*
X112801898Y-107504774D01*
X112601939Y-107465000D01*
X112398061Y-107465000D01*
X112198102Y-107504774D01*
X112009744Y-107582795D01*
X111840226Y-107696063D01*
X111696063Y-107840226D01*
X111582795Y-108009744D01*
X111504774Y-108198102D01*
X111465000Y-108398061D01*
X111465000Y-108601939D01*
X111504774Y-108801898D01*
X111582795Y-108990256D01*
X111696063Y-109159774D01*
X111840226Y-109303937D01*
X112009744Y-109417205D01*
X112198102Y-109495226D01*
X112398061Y-109535000D01*
X112460199Y-109535000D01*
X114614999Y-111689801D01*
X114614999Y-111809748D01*
X114389405Y-111716304D01*
X114131486Y-111665000D01*
X113868514Y-111665000D01*
X113610595Y-111716304D01*
X113367641Y-111816939D01*
X113148987Y-111963038D01*
X112963038Y-112148987D01*
X112816939Y-112367641D01*
X112716304Y-112610595D01*
X112665000Y-112868514D01*
X112665000Y-113131486D01*
X112716304Y-113389405D01*
X112816939Y-113632359D01*
X112963038Y-113851013D01*
X113148987Y-114036962D01*
X113177517Y-114056025D01*
X113065579Y-114045000D01*
X112934421Y-114045000D01*
X112738294Y-114064317D01*
X112486646Y-114140653D01*
X112254725Y-114264618D01*
X112051445Y-114431445D01*
X111884618Y-114634725D01*
X111760653Y-114866646D01*
X111684317Y-115118294D01*
X111658541Y-115380000D01*
X111684317Y-115641706D01*
X111760653Y-115893354D01*
X111884618Y-116125275D01*
X112051445Y-116328555D01*
X112254725Y-116495382D01*
X112486646Y-116619347D01*
X112738294Y-116695683D01*
X112934421Y-116715000D01*
X113065579Y-116715000D01*
X113261706Y-116695683D01*
X113513354Y-116619347D01*
X113745275Y-116495382D01*
X113948555Y-116328555D01*
X114115382Y-116125275D01*
X114239347Y-115893354D01*
X114315683Y-115641706D01*
X114341459Y-115380000D01*
X114315683Y-115118294D01*
X114239347Y-114866646D01*
X114115382Y-114634725D01*
X113948555Y-114431445D01*
X113819046Y-114325160D01*
X113868514Y-114335000D01*
X114131486Y-114335000D01*
X114389405Y-114283696D01*
X114615000Y-114190252D01*
X114615000Y-116837667D01*
X114611323Y-116874999D01*
X114625997Y-117023984D01*
X114669453Y-117167245D01*
X114740025Y-117299275D01*
X114811200Y-117386001D01*
X114834999Y-117415000D01*
X114863997Y-117438798D01*
X116536204Y-119111007D01*
X116546324Y-119123338D01*
X116536499Y-119147056D01*
X116490000Y-119380825D01*
X116490000Y-119619175D01*
X116492658Y-119632540D01*
X115449002Y-120676197D01*
X115419998Y-120700000D01*
X115364870Y-120767175D01*
X115325025Y-120815725D01*
X115294411Y-120873000D01*
X115254453Y-120947755D01*
X115210996Y-121091016D01*
X115199999Y-121202669D01*
X115199999Y-121202679D01*
X115196323Y-121240001D01*
X115199999Y-121277323D01*
X115200000Y-150422666D01*
X115196323Y-150459999D01*
X115210997Y-150608984D01*
X115254453Y-150752245D01*
X115325025Y-150884275D01*
X115387171Y-150959999D01*
X115419999Y-151000000D01*
X115448997Y-151023798D01*
X116286928Y-151861730D01*
X116286928Y-152287500D01*
X116304713Y-152468070D01*
X116357383Y-152641701D01*
X116442915Y-152801720D01*
X116558022Y-152941978D01*
X116698280Y-153057085D01*
X116858299Y-153142617D01*
X117031930Y-153195287D01*
X117212500Y-153213072D01*
X117787500Y-153213072D01*
X117968070Y-153195287D01*
X118141701Y-153142617D01*
X118301720Y-153057085D01*
X118441978Y-152941978D01*
X118557085Y-152801720D01*
X118642617Y-152641701D01*
X118695287Y-152468070D01*
X118713072Y-152287500D01*
X118713072Y-151712500D01*
X118695287Y-151531930D01*
X118642617Y-151358299D01*
X118557085Y-151198280D01*
X118441978Y-151058022D01*
X118301720Y-150942915D01*
X118141701Y-150857383D01*
X117968070Y-150804713D01*
X117787500Y-150786928D01*
X117361730Y-150786928D01*
X116719999Y-150145198D01*
X116719999Y-138205857D01*
X116740825Y-138210000D01*
X116979175Y-138210000D01*
X117212944Y-138163501D01*
X117433150Y-138072288D01*
X117631330Y-137939869D01*
X117799869Y-137771330D01*
X117932288Y-137573150D01*
X118023501Y-137352944D01*
X118070000Y-137119175D01*
X118070000Y-136880825D01*
X118023501Y-136647056D01*
X117932288Y-136426850D01*
X117799869Y-136228670D01*
X117631330Y-136060131D01*
X117433150Y-135927712D01*
X117212944Y-135836499D01*
X116979175Y-135790000D01*
X116740825Y-135790000D01*
X116719999Y-135794143D01*
X116719999Y-135666075D01*
X116940825Y-135710000D01*
X117179175Y-135710000D01*
X117412944Y-135663501D01*
X117633150Y-135572288D01*
X117831330Y-135439869D01*
X117999869Y-135271330D01*
X118132288Y-135073150D01*
X118223501Y-134852944D01*
X118270000Y-134619175D01*
X118270000Y-134380825D01*
X118223501Y-134147056D01*
X118132288Y-133926850D01*
X117999869Y-133728670D01*
X117831330Y-133560131D01*
X117633150Y-133427712D01*
X117412944Y-133336499D01*
X117179175Y-133290000D01*
X116940825Y-133290000D01*
X116719999Y-133333925D01*
X116719999Y-121554802D01*
X117567460Y-120707342D01*
X117580825Y-120710000D01*
X117819175Y-120710000D01*
X118052944Y-120663501D01*
X118273150Y-120572288D01*
X118471330Y-120439869D01*
X118639869Y-120271330D01*
X118675382Y-120218181D01*
X120479999Y-122022799D01*
X120480000Y-134894669D01*
X120476323Y-134932001D01*
X120480000Y-134969334D01*
X120480630Y-134975725D01*
X120490997Y-135080986D01*
X120534453Y-135224247D01*
X120605025Y-135356277D01*
X120673628Y-135439869D01*
X120699999Y-135472002D01*
X120728997Y-135495800D01*
X121144195Y-135910998D01*
X121167998Y-135940002D01*
X121241145Y-136000032D01*
X121248985Y-136006466D01*
X121168670Y-136060131D01*
X121000131Y-136228670D01*
X120867712Y-136426850D01*
X120776499Y-136647056D01*
X120730000Y-136880825D01*
X120730000Y-137119175D01*
X120776499Y-137352944D01*
X120867712Y-137573150D01*
X121000131Y-137771330D01*
X121168670Y-137939869D01*
X121366850Y-138072288D01*
X121587056Y-138163501D01*
X121820825Y-138210000D01*
X122059175Y-138210000D01*
X122292944Y-138163501D01*
X122513150Y-138072288D01*
X122711330Y-137939869D01*
X122879869Y-137771330D01*
X123012288Y-137573150D01*
X123103501Y-137352944D01*
X123150000Y-137119175D01*
X123150000Y-136880825D01*
X123103501Y-136647056D01*
X123012288Y-136426850D01*
X122879869Y-136228670D01*
X122811200Y-136160001D01*
X127562677Y-136160001D01*
X127599999Y-136163677D01*
X127637321Y-136160001D01*
X127637332Y-136160001D01*
X127748985Y-136149004D01*
X127892246Y-136105547D01*
X128024275Y-136034975D01*
X128140000Y-135940002D01*
X128163803Y-135910998D01*
X132176115Y-131898688D01*
X132358665Y-131935000D01*
X132641335Y-131935000D01*
X132918574Y-131879853D01*
X133179727Y-131771680D01*
X133240000Y-131731407D01*
X133240001Y-138985196D01*
X121432540Y-150792659D01*
X121419175Y-150790000D01*
X121180825Y-150790000D01*
X120947056Y-150836499D01*
X120726850Y-150927712D01*
X120528670Y-151060131D01*
X120360131Y-151228670D01*
X120227712Y-151426850D01*
X120136499Y-151647056D01*
X120090000Y-151880825D01*
X120090000Y-152119175D01*
X120136499Y-152352944D01*
X120227712Y-152573150D01*
X120360131Y-152771330D01*
X120528670Y-152939869D01*
X120726850Y-153072288D01*
X120947056Y-153163501D01*
X121180825Y-153210000D01*
X121419175Y-153210000D01*
X121652944Y-153163501D01*
X121873150Y-153072288D01*
X122071330Y-152939869D01*
X122239869Y-152771330D01*
X122372288Y-152573150D01*
X122463501Y-152352944D01*
X122510000Y-152119175D01*
X122510000Y-151880825D01*
X122507341Y-151867460D01*
X134511008Y-139863795D01*
X134540001Y-139840001D01*
X134563795Y-139811008D01*
X134563799Y-139811004D01*
X134634973Y-139724277D01*
X134634974Y-139724276D01*
X134705546Y-139592247D01*
X134749003Y-139448986D01*
X134760000Y-139337333D01*
X134760000Y-139337324D01*
X134763676Y-139300001D01*
X134760000Y-139262678D01*
X134760000Y-126037322D01*
X134763676Y-125999999D01*
X134760000Y-125962676D01*
X134760000Y-125962667D01*
X134749003Y-125851014D01*
X134705546Y-125707753D01*
X134634975Y-125575725D01*
X134634974Y-125575723D01*
X134563799Y-125488997D01*
X134540001Y-125459999D01*
X134511004Y-125436202D01*
X132760000Y-123685199D01*
X132760000Y-121494896D01*
X132816939Y-121632359D01*
X132963038Y-121851013D01*
X133148987Y-122036962D01*
X133367641Y-122183061D01*
X133610595Y-122283696D01*
X133868514Y-122335000D01*
X134131486Y-122335000D01*
X134389405Y-122283696D01*
X134632359Y-122183061D01*
X134851013Y-122036962D01*
X135036962Y-121851013D01*
X135183061Y-121632359D01*
X135283696Y-121389405D01*
X135335000Y-121131486D01*
X135335000Y-120868514D01*
X135283696Y-120610595D01*
X135183061Y-120367641D01*
X135036962Y-120148987D01*
X134851013Y-119963038D01*
X134632359Y-119816939D01*
X134389405Y-119716304D01*
X134131486Y-119665000D01*
X133868514Y-119665000D01*
X133610595Y-119716304D01*
X133367641Y-119816939D01*
X133148987Y-119963038D01*
X132963038Y-120148987D01*
X132816939Y-120367641D01*
X132760000Y-120505104D01*
X132760000Y-116200103D01*
X132787818Y-116291808D01*
X132921068Y-116541101D01*
X133100392Y-116759608D01*
X133318899Y-116938932D01*
X133568192Y-117072182D01*
X133838691Y-117154236D01*
X134049508Y-117175000D01*
X134190492Y-117175000D01*
X134401309Y-117154236D01*
X134671808Y-117072182D01*
X134921101Y-116938932D01*
X135139608Y-116759608D01*
X135318932Y-116541101D01*
X135452182Y-116291808D01*
X135534236Y-116021309D01*
X135561943Y-115740000D01*
X135534236Y-115458691D01*
X135520708Y-115414094D01*
X137340000Y-113594802D01*
X137340000Y-153340000D01*
X97160000Y-153340000D01*
X97160000Y-151291528D01*
X97409740Y-151425017D01*
X97699088Y-151512790D01*
X98000000Y-151542427D01*
X98300913Y-151512790D01*
X98590261Y-151425017D01*
X98856927Y-151282481D01*
X99090661Y-151090661D01*
X99282481Y-150856927D01*
X99425017Y-150590261D01*
X99512790Y-150300913D01*
X99535000Y-150075408D01*
X99535000Y-149275855D01*
X99543074Y-149282481D01*
X99809740Y-149425017D01*
X100099088Y-149512790D01*
X100400000Y-149542427D01*
X100700913Y-149512790D01*
X100990261Y-149425017D01*
X101256927Y-149282481D01*
X101490661Y-149090661D01*
X101682481Y-148856927D01*
X101825017Y-148590261D01*
X101912790Y-148300913D01*
X101926625Y-148160444D01*
X101974276Y-148134974D01*
X102090001Y-148040001D01*
X102113804Y-148010997D01*
X102497801Y-147627000D01*
X104365000Y-147627000D01*
X104365000Y-148127000D01*
X104419271Y-148424023D01*
X104530446Y-148704751D01*
X104694252Y-148958396D01*
X104904394Y-149175210D01*
X105152796Y-149346862D01*
X105429913Y-149466755D01*
X105535260Y-149491036D01*
X105773000Y-149370378D01*
X105773000Y-147627000D01*
X106027000Y-147627000D01*
X106027000Y-149370378D01*
X106264740Y-149491036D01*
X106370087Y-149466755D01*
X106647204Y-149346862D01*
X106895606Y-149175210D01*
X107105748Y-148958396D01*
X107269554Y-148704751D01*
X107380729Y-148424023D01*
X107435000Y-148127000D01*
X107435000Y-147627000D01*
X106027000Y-147627000D01*
X105773000Y-147627000D01*
X104365000Y-147627000D01*
X102497801Y-147627000D01*
X103251801Y-146873000D01*
X104365000Y-146873000D01*
X104365000Y-147373000D01*
X105773000Y-147373000D01*
X105773000Y-145629622D01*
X106027000Y-145629622D01*
X106027000Y-147373000D01*
X107435000Y-147373000D01*
X107435000Y-146873000D01*
X107380729Y-146575977D01*
X107269554Y-146295249D01*
X107105748Y-146041604D01*
X106895606Y-145824790D01*
X106647204Y-145653138D01*
X106370087Y-145533245D01*
X106264740Y-145508964D01*
X106027000Y-145629622D01*
X105773000Y-145629622D01*
X105535260Y-145508964D01*
X105429913Y-145533245D01*
X105152796Y-145653138D01*
X104904394Y-145824790D01*
X104694252Y-146041604D01*
X104530446Y-146295249D01*
X104419271Y-146575977D01*
X104365000Y-146873000D01*
X103251801Y-146873000D01*
X113511003Y-136613799D01*
X113540001Y-136590001D01*
X113634974Y-136474276D01*
X113705546Y-136342247D01*
X113749003Y-136198986D01*
X113760000Y-136087333D01*
X113760000Y-136087324D01*
X113763676Y-136050001D01*
X113760000Y-136012678D01*
X113760000Y-124097775D01*
X113851013Y-124036962D01*
X114036962Y-123851013D01*
X114183061Y-123632359D01*
X114283696Y-123389405D01*
X114335000Y-123131486D01*
X114335000Y-122868514D01*
X114283696Y-122610595D01*
X114183061Y-122367641D01*
X114036962Y-122148987D01*
X113851013Y-121963038D01*
X113632359Y-121816939D01*
X113389405Y-121716304D01*
X113131486Y-121665000D01*
X112868514Y-121665000D01*
X112610595Y-121716304D01*
X112367641Y-121816939D01*
X112148987Y-121963038D01*
X111963038Y-122148987D01*
X111816939Y-122367641D01*
X111716304Y-122610595D01*
X111665000Y-122868514D01*
X111665000Y-123131486D01*
X111716304Y-123389405D01*
X111816939Y-123632359D01*
X111963038Y-123851013D01*
X112148987Y-124036962D01*
X112240000Y-124097775D01*
X112240001Y-135735197D01*
X101734606Y-146240593D01*
X101682481Y-146143073D01*
X101490661Y-145909339D01*
X101256926Y-145717519D01*
X100990260Y-145574983D01*
X100700912Y-145487210D01*
X100400000Y-145457573D01*
X100099087Y-145487210D01*
X99809739Y-145574983D01*
X99543073Y-145717519D01*
X99309339Y-145909339D01*
X99117519Y-146143074D01*
X98974983Y-146409740D01*
X98887210Y-146699088D01*
X98865000Y-146924593D01*
X98865000Y-147724145D01*
X98856926Y-147717519D01*
X98590260Y-147574983D01*
X98300912Y-147487210D01*
X98000000Y-147457573D01*
X97699087Y-147487210D01*
X97409739Y-147574983D01*
X97160000Y-147708471D01*
X97160000Y-135791528D01*
X97409740Y-135925017D01*
X97699088Y-136012790D01*
X98000000Y-136042427D01*
X98300913Y-136012790D01*
X98590261Y-135925017D01*
X98856927Y-135782481D01*
X99090661Y-135590661D01*
X99282481Y-135356927D01*
X99425017Y-135090261D01*
X99512790Y-134800913D01*
X99535000Y-134575408D01*
X99535000Y-133775855D01*
X99543074Y-133782481D01*
X99809740Y-133925017D01*
X100099088Y-134012790D01*
X100400000Y-134042427D01*
X100700913Y-134012790D01*
X100990261Y-133925017D01*
X101256927Y-133782481D01*
X101490661Y-133590661D01*
X101682481Y-133356927D01*
X101825017Y-133090261D01*
X101912790Y-132800913D01*
X101935000Y-132575408D01*
X101935000Y-132127000D01*
X104365000Y-132127000D01*
X104365000Y-132627000D01*
X104419271Y-132924023D01*
X104530446Y-133204751D01*
X104694252Y-133458396D01*
X104904394Y-133675210D01*
X105152796Y-133846862D01*
X105429913Y-133966755D01*
X105535260Y-133991036D01*
X105773000Y-133870378D01*
X105773000Y-132127000D01*
X106027000Y-132127000D01*
X106027000Y-133870378D01*
X106264740Y-133991036D01*
X106370087Y-133966755D01*
X106647204Y-133846862D01*
X106895606Y-133675210D01*
X107105748Y-133458396D01*
X107269554Y-133204751D01*
X107380729Y-132924023D01*
X107435000Y-132627000D01*
X107435000Y-132127000D01*
X106027000Y-132127000D01*
X105773000Y-132127000D01*
X104365000Y-132127000D01*
X101935000Y-132127000D01*
X101935000Y-131424592D01*
X101929919Y-131373000D01*
X104365000Y-131373000D01*
X104365000Y-131873000D01*
X105773000Y-131873000D01*
X105773000Y-130129622D01*
X106027000Y-130129622D01*
X106027000Y-131873000D01*
X107435000Y-131873000D01*
X107435000Y-131373000D01*
X107380729Y-131075977D01*
X107269554Y-130795249D01*
X107105748Y-130541604D01*
X106895606Y-130324790D01*
X106647204Y-130153138D01*
X106370087Y-130033245D01*
X106264740Y-130008964D01*
X106027000Y-130129622D01*
X105773000Y-130129622D01*
X105535260Y-130008964D01*
X105429913Y-130033245D01*
X105152796Y-130153138D01*
X104904394Y-130324790D01*
X104694252Y-130541604D01*
X104530446Y-130795249D01*
X104419271Y-131075977D01*
X104365000Y-131373000D01*
X101929919Y-131373000D01*
X101912790Y-131199087D01*
X101825017Y-130909739D01*
X101682481Y-130643073D01*
X101490661Y-130409339D01*
X101256926Y-130217519D01*
X100990260Y-130074983D01*
X100700912Y-129987210D01*
X100400000Y-129957573D01*
X100099087Y-129987210D01*
X99809739Y-130074983D01*
X99543073Y-130217519D01*
X99309339Y-130409339D01*
X99117519Y-130643074D01*
X98974983Y-130909740D01*
X98887210Y-131199088D01*
X98865000Y-131424593D01*
X98865000Y-132224145D01*
X98856926Y-132217519D01*
X98590260Y-132074983D01*
X98300912Y-131987210D01*
X98000000Y-131957573D01*
X97699087Y-131987210D01*
X97409739Y-132074983D01*
X97160000Y-132208471D01*
X97160000Y-120291528D01*
X97409740Y-120425017D01*
X97699088Y-120512790D01*
X98000000Y-120542427D01*
X98300913Y-120512790D01*
X98590261Y-120425017D01*
X98856927Y-120282481D01*
X99090661Y-120090661D01*
X99282481Y-119856927D01*
X99425017Y-119590261D01*
X99512790Y-119300913D01*
X99535000Y-119075408D01*
X99535000Y-118275855D01*
X99543074Y-118282481D01*
X99809740Y-118425017D01*
X100099088Y-118512790D01*
X100400000Y-118542427D01*
X100700913Y-118512790D01*
X100990261Y-118425017D01*
X101256927Y-118282481D01*
X101490661Y-118090661D01*
X101682481Y-117856927D01*
X101825017Y-117590261D01*
X101912790Y-117300913D01*
X101935000Y-117075408D01*
X101935000Y-116627000D01*
X104365000Y-116627000D01*
X104365000Y-117127000D01*
X104419271Y-117424023D01*
X104530446Y-117704751D01*
X104694252Y-117958396D01*
X104904394Y-118175210D01*
X105152796Y-118346862D01*
X105429913Y-118466755D01*
X105535260Y-118491036D01*
X105773000Y-118370378D01*
X105773000Y-116627000D01*
X106027000Y-116627000D01*
X106027000Y-118370378D01*
X106264740Y-118491036D01*
X106370087Y-118466755D01*
X106647204Y-118346862D01*
X106895606Y-118175210D01*
X107105748Y-117958396D01*
X107269554Y-117704751D01*
X107380729Y-117424023D01*
X107435000Y-117127000D01*
X107435000Y-116627000D01*
X106027000Y-116627000D01*
X105773000Y-116627000D01*
X104365000Y-116627000D01*
X101935000Y-116627000D01*
X101935000Y-115924592D01*
X101929919Y-115873000D01*
X104365000Y-115873000D01*
X104365000Y-116373000D01*
X105773000Y-116373000D01*
X105773000Y-114629622D01*
X106027000Y-114629622D01*
X106027000Y-116373000D01*
X107435000Y-116373000D01*
X107435000Y-115873000D01*
X107380729Y-115575977D01*
X107269554Y-115295249D01*
X107105748Y-115041604D01*
X106895606Y-114824790D01*
X106647204Y-114653138D01*
X106370087Y-114533245D01*
X106264740Y-114508964D01*
X106027000Y-114629622D01*
X105773000Y-114629622D01*
X105535260Y-114508964D01*
X105429913Y-114533245D01*
X105152796Y-114653138D01*
X104904394Y-114824790D01*
X104694252Y-115041604D01*
X104530446Y-115295249D01*
X104419271Y-115575977D01*
X104365000Y-115873000D01*
X101929919Y-115873000D01*
X101912790Y-115699087D01*
X101825017Y-115409739D01*
X101682481Y-115143073D01*
X101490661Y-114909339D01*
X101256926Y-114717519D01*
X100990260Y-114574983D01*
X100700912Y-114487210D01*
X100400000Y-114457573D01*
X100099087Y-114487210D01*
X99809739Y-114574983D01*
X99543073Y-114717519D01*
X99309339Y-114909339D01*
X99117519Y-115143074D01*
X98974983Y-115409740D01*
X98887210Y-115699088D01*
X98865000Y-115924593D01*
X98865000Y-116724145D01*
X98856926Y-116717519D01*
X98590260Y-116574983D01*
X98300912Y-116487210D01*
X98000000Y-116457573D01*
X97699087Y-116487210D01*
X97409739Y-116574983D01*
X97160000Y-116708471D01*
X97160000Y-110858665D01*
X109565000Y-110858665D01*
X109565000Y-111141335D01*
X109620147Y-111418574D01*
X109728320Y-111679727D01*
X109885363Y-111914759D01*
X110085241Y-112114637D01*
X110320273Y-112271680D01*
X110581426Y-112379853D01*
X110858665Y-112435000D01*
X111141335Y-112435000D01*
X111418574Y-112379853D01*
X111679727Y-112271680D01*
X111914759Y-112114637D01*
X112114637Y-111914759D01*
X112271680Y-111679727D01*
X112379853Y-111418574D01*
X112435000Y-111141335D01*
X112435000Y-110858665D01*
X112379853Y-110581426D01*
X112271680Y-110320273D01*
X112114637Y-110085241D01*
X111914759Y-109885363D01*
X111679727Y-109728320D01*
X111418574Y-109620147D01*
X111141335Y-109565000D01*
X110858665Y-109565000D01*
X110581426Y-109620147D01*
X110320273Y-109728320D01*
X110085241Y-109885363D01*
X109885363Y-110085241D01*
X109728320Y-110320273D01*
X109620147Y-110581426D01*
X109565000Y-110858665D01*
X97160000Y-110858665D01*
X97160000Y-105858665D01*
X109565000Y-105858665D01*
X109565000Y-106141335D01*
X109620147Y-106418574D01*
X109728320Y-106679727D01*
X109885363Y-106914759D01*
X110085241Y-107114637D01*
X110320273Y-107271680D01*
X110581426Y-107379853D01*
X110858665Y-107435000D01*
X111141335Y-107435000D01*
X111418574Y-107379853D01*
X111679727Y-107271680D01*
X111914759Y-107114637D01*
X112114637Y-106914759D01*
X112271680Y-106679727D01*
X112379853Y-106418574D01*
X112435000Y-106141335D01*
X112435000Y-105858665D01*
X112379853Y-105581426D01*
X112271680Y-105320273D01*
X112114637Y-105085241D01*
X111914759Y-104885363D01*
X111679727Y-104728320D01*
X111418574Y-104620147D01*
X111141335Y-104565000D01*
X110858665Y-104565000D01*
X110581426Y-104620147D01*
X110320273Y-104728320D01*
X110085241Y-104885363D01*
X109885363Y-105085241D01*
X109728320Y-105320273D01*
X109620147Y-105581426D01*
X109565000Y-105858665D01*
X97160000Y-105858665D01*
X97160000Y-102564080D01*
X100615525Y-102564080D01*
X100699208Y-102818261D01*
X100971775Y-102949158D01*
X101264642Y-103024365D01*
X101566553Y-103040991D01*
X101865907Y-102998397D01*
X102151199Y-102898222D01*
X102300792Y-102818261D01*
X102384475Y-102564080D01*
X101500000Y-101679605D01*
X100615525Y-102564080D01*
X97160000Y-102564080D01*
X97160000Y-101566553D01*
X99959009Y-101566553D01*
X100001603Y-101865907D01*
X100101778Y-102151199D01*
X100181739Y-102300792D01*
X100435920Y-102384475D01*
X101320395Y-101500000D01*
X101679605Y-101500000D01*
X102564080Y-102384475D01*
X102818261Y-102300792D01*
X102949158Y-102028225D01*
X103024365Y-101735358D01*
X103040991Y-101433447D01*
X102998397Y-101134093D01*
X102898222Y-100848801D01*
X102818261Y-100699208D01*
X102564080Y-100615525D01*
X101679605Y-101500000D01*
X101320395Y-101500000D01*
X100435920Y-100615525D01*
X100181739Y-100699208D01*
X100050842Y-100971775D01*
X99975635Y-101264642D01*
X99959009Y-101566553D01*
X97160000Y-101566553D01*
X97160000Y-72868514D01*
X100165000Y-72868514D01*
X100165000Y-73131486D01*
X100216304Y-73389405D01*
X100316939Y-73632359D01*
X100463038Y-73851013D01*
X100648987Y-74036962D01*
X100867641Y-74183061D01*
X101110595Y-74283696D01*
X101368514Y-74335000D01*
X101631486Y-74335000D01*
X101889405Y-74283696D01*
X102132359Y-74183061D01*
X102351013Y-74036962D01*
X102536962Y-73851013D01*
X102683061Y-73632359D01*
X102783696Y-73389405D01*
X102791534Y-73350000D01*
X108011928Y-73350000D01*
X108024188Y-73474482D01*
X108060498Y-73594180D01*
X108119463Y-73704494D01*
X108198815Y-73801185D01*
X108295506Y-73880537D01*
X108405820Y-73939502D01*
X108525518Y-73975812D01*
X108650000Y-73988072D01*
X109214250Y-73985000D01*
X109373000Y-73826250D01*
X109373000Y-72627000D01*
X108173750Y-72627000D01*
X108015000Y-72785750D01*
X108011928Y-73350000D01*
X102791534Y-73350000D01*
X102835000Y-73131486D01*
X102835000Y-72868514D01*
X102783696Y-72610595D01*
X102683061Y-72367641D01*
X102536962Y-72148987D01*
X102351013Y-71963038D01*
X102132359Y-71816939D01*
X101889405Y-71716304D01*
X101631486Y-71665000D01*
X101368514Y-71665000D01*
X101110595Y-71716304D01*
X100867641Y-71816939D01*
X100648987Y-71963038D01*
X100463038Y-72148987D01*
X100316939Y-72367641D01*
X100216304Y-72610595D01*
X100165000Y-72868514D01*
X97160000Y-72868514D01*
X97160000Y-71650000D01*
X108011928Y-71650000D01*
X108015000Y-72214250D01*
X108173750Y-72373000D01*
X109373000Y-72373000D01*
X109373000Y-71173750D01*
X109627000Y-71173750D01*
X109627000Y-72373000D01*
X109647000Y-72373000D01*
X109647000Y-72627000D01*
X109627000Y-72627000D01*
X109627000Y-73826250D01*
X109785750Y-73985000D01*
X110350000Y-73988072D01*
X110474482Y-73975812D01*
X110594180Y-73939502D01*
X110704494Y-73880537D01*
X110801185Y-73801185D01*
X110880537Y-73704494D01*
X110939502Y-73594180D01*
X110960393Y-73525313D01*
X110984866Y-73555134D01*
X111210986Y-73740706D01*
X111468966Y-73878599D01*
X111748889Y-73963513D01*
X111967050Y-73985000D01*
X112112950Y-73985000D01*
X112331111Y-73963513D01*
X112611034Y-73878599D01*
X112869014Y-73740706D01*
X113095134Y-73555134D01*
X113280706Y-73329014D01*
X113418599Y-73071034D01*
X113503513Y-72791111D01*
X113532185Y-72500000D01*
X113503513Y-72208889D01*
X113418599Y-71928966D01*
X113280706Y-71670986D01*
X113095134Y-71444866D01*
X112869014Y-71259294D01*
X112611034Y-71121401D01*
X112331111Y-71036487D01*
X112112950Y-71015000D01*
X111967050Y-71015000D01*
X111748889Y-71036487D01*
X111468966Y-71121401D01*
X111210986Y-71259294D01*
X110984866Y-71444866D01*
X110960393Y-71474687D01*
X110939502Y-71405820D01*
X110880537Y-71295506D01*
X110801185Y-71198815D01*
X110704494Y-71119463D01*
X110594180Y-71060498D01*
X110474482Y-71024188D01*
X110350000Y-71011928D01*
X109785750Y-71015000D01*
X109627000Y-71173750D01*
X109373000Y-71173750D01*
X109214250Y-71015000D01*
X108650000Y-71011928D01*
X108525518Y-71024188D01*
X108405820Y-71060498D01*
X108295506Y-71119463D01*
X108198815Y-71198815D01*
X108119463Y-71295506D01*
X108060498Y-71405820D01*
X108024188Y-71525518D01*
X108011928Y-71650000D01*
X97160000Y-71650000D01*
X97160000Y-70200000D01*
X118561928Y-70200000D01*
X118561928Y-71800000D01*
X118574188Y-71924482D01*
X118610498Y-72044180D01*
X118669463Y-72154494D01*
X118748815Y-72251185D01*
X118845506Y-72330537D01*
X118955820Y-72389502D01*
X119075518Y-72425812D01*
X119200000Y-72438072D01*
X120800000Y-72438072D01*
X120924482Y-72425812D01*
X121044180Y-72389502D01*
X121154494Y-72330537D01*
X121251185Y-72251185D01*
X121330537Y-72154494D01*
X121389502Y-72044180D01*
X121425812Y-71924482D01*
X121438072Y-71800000D01*
X121438072Y-71013740D01*
X128015000Y-71013740D01*
X128015000Y-71306260D01*
X128072068Y-71593158D01*
X128184010Y-71863411D01*
X128346525Y-72106632D01*
X128553368Y-72313475D01*
X128796589Y-72475990D01*
X129066842Y-72587932D01*
X129353740Y-72645000D01*
X129646260Y-72645000D01*
X129933158Y-72587932D01*
X130203411Y-72475990D01*
X130446632Y-72313475D01*
X130653475Y-72106632D01*
X130770000Y-71932240D01*
X130886525Y-72106632D01*
X131093368Y-72313475D01*
X131336589Y-72475990D01*
X131606842Y-72587932D01*
X131893740Y-72645000D01*
X132186260Y-72645000D01*
X132473158Y-72587932D01*
X132743411Y-72475990D01*
X132986632Y-72313475D01*
X133193475Y-72106632D01*
X133355990Y-71863411D01*
X133467932Y-71593158D01*
X133525000Y-71306260D01*
X133525000Y-71013740D01*
X133467932Y-70726842D01*
X133355990Y-70456589D01*
X133193475Y-70213368D01*
X132986632Y-70006525D01*
X132813271Y-69890689D01*
X132888792Y-69648397D01*
X132040000Y-68799605D01*
X131191208Y-69648397D01*
X131266729Y-69890689D01*
X131093368Y-70006525D01*
X130886525Y-70213368D01*
X130770000Y-70387760D01*
X130653475Y-70213368D01*
X130446632Y-70006525D01*
X130273271Y-69890689D01*
X130348792Y-69648397D01*
X129500000Y-68799605D01*
X128651208Y-69648397D01*
X128726729Y-69890689D01*
X128553368Y-70006525D01*
X128346525Y-70213368D01*
X128184010Y-70456589D01*
X128072068Y-70726842D01*
X128015000Y-71013740D01*
X121438072Y-71013740D01*
X121438072Y-70200000D01*
X121425812Y-70075518D01*
X121389502Y-69955820D01*
X121330537Y-69845506D01*
X121251185Y-69748815D01*
X121154494Y-69669463D01*
X121044180Y-69610498D01*
X120924482Y-69574188D01*
X120800000Y-69561928D01*
X120792785Y-69561928D01*
X120813097Y-69492702D01*
X120000000Y-68679605D01*
X119186903Y-69492702D01*
X119207215Y-69561928D01*
X119200000Y-69561928D01*
X119075518Y-69574188D01*
X118955820Y-69610498D01*
X118845506Y-69669463D01*
X118748815Y-69748815D01*
X118669463Y-69845506D01*
X118610498Y-69955820D01*
X118574188Y-70075518D01*
X118561928Y-70200000D01*
X97160000Y-70200000D01*
X97160000Y-68570512D01*
X118559783Y-68570512D01*
X118601213Y-68850130D01*
X118696397Y-69116292D01*
X118763329Y-69241514D01*
X119007298Y-69313097D01*
X119820395Y-68500000D01*
X120179605Y-68500000D01*
X120992702Y-69313097D01*
X121236671Y-69241514D01*
X121357571Y-68986004D01*
X121426300Y-68711816D01*
X121427447Y-68688531D01*
X128009389Y-68688531D01*
X128051401Y-68978019D01*
X128149081Y-69253747D01*
X128222528Y-69391157D01*
X128471603Y-69468792D01*
X129320395Y-68620000D01*
X129679605Y-68620000D01*
X130528397Y-69468792D01*
X130770000Y-69393486D01*
X131011603Y-69468792D01*
X131860395Y-68620000D01*
X132219605Y-68620000D01*
X133068397Y-69468792D01*
X133317472Y-69391157D01*
X133443371Y-69127117D01*
X133515339Y-68843589D01*
X133530611Y-68551469D01*
X133488599Y-68261981D01*
X133390919Y-67986253D01*
X133317472Y-67848843D01*
X133068397Y-67771208D01*
X132219605Y-68620000D01*
X131860395Y-68620000D01*
X131011603Y-67771208D01*
X130770000Y-67846514D01*
X130528397Y-67771208D01*
X129679605Y-68620000D01*
X129320395Y-68620000D01*
X128471603Y-67771208D01*
X128222528Y-67848843D01*
X128096629Y-68112883D01*
X128024661Y-68396411D01*
X128009389Y-68688531D01*
X121427447Y-68688531D01*
X121440217Y-68429488D01*
X121398787Y-68149870D01*
X121303603Y-67883708D01*
X121236671Y-67758486D01*
X120992702Y-67686903D01*
X120179605Y-68500000D01*
X119820395Y-68500000D01*
X119007298Y-67686903D01*
X118763329Y-67758486D01*
X118642429Y-68013996D01*
X118573700Y-68288184D01*
X118559783Y-68570512D01*
X97160000Y-68570512D01*
X97160000Y-67507298D01*
X119186903Y-67507298D01*
X120000000Y-68320395D01*
X120813097Y-67507298D01*
X120741514Y-67263329D01*
X120486004Y-67142429D01*
X120350237Y-67108397D01*
X128651208Y-67108397D01*
X128726514Y-67350000D01*
X128651208Y-67591603D01*
X129500000Y-68440395D01*
X130348792Y-67591603D01*
X130273486Y-67350000D01*
X130348792Y-67108397D01*
X131191208Y-67108397D01*
X131266514Y-67350000D01*
X131191208Y-67591603D01*
X132040000Y-68440395D01*
X132888792Y-67591603D01*
X132813486Y-67350000D01*
X132888792Y-67108397D01*
X132040000Y-66259605D01*
X131191208Y-67108397D01*
X130348792Y-67108397D01*
X129500000Y-66259605D01*
X128651208Y-67108397D01*
X120350237Y-67108397D01*
X120211816Y-67073700D01*
X119929488Y-67059783D01*
X119649870Y-67101213D01*
X119383708Y-67196397D01*
X119258486Y-67263329D01*
X119186903Y-67507298D01*
X97160000Y-67507298D01*
X97160000Y-65380000D01*
X100158541Y-65380000D01*
X100184317Y-65641706D01*
X100260653Y-65893354D01*
X100384618Y-66125275D01*
X100551445Y-66328555D01*
X100754725Y-66495382D01*
X100986646Y-66619347D01*
X101238294Y-66695683D01*
X101434421Y-66715000D01*
X101565579Y-66715000D01*
X101761706Y-66695683D01*
X102013354Y-66619347D01*
X102245275Y-66495382D01*
X102448555Y-66328555D01*
X102615382Y-66125275D01*
X102739347Y-65893354D01*
X102752498Y-65850000D01*
X108011928Y-65850000D01*
X108024188Y-65974482D01*
X108060498Y-66094180D01*
X108119463Y-66204494D01*
X108198815Y-66301185D01*
X108295506Y-66380537D01*
X108405820Y-66439502D01*
X108525518Y-66475812D01*
X108650000Y-66488072D01*
X109214250Y-66485000D01*
X109373000Y-66326250D01*
X109373000Y-65127000D01*
X108173750Y-65127000D01*
X108015000Y-65285750D01*
X108011928Y-65850000D01*
X102752498Y-65850000D01*
X102815683Y-65641706D01*
X102841459Y-65380000D01*
X102815683Y-65118294D01*
X102739347Y-64866646D01*
X102615382Y-64634725D01*
X102448555Y-64431445D01*
X102245275Y-64264618D01*
X102030841Y-64150000D01*
X108011928Y-64150000D01*
X108015000Y-64714250D01*
X108173750Y-64873000D01*
X109373000Y-64873000D01*
X109373000Y-63673750D01*
X109627000Y-63673750D01*
X109627000Y-64873000D01*
X109647000Y-64873000D01*
X109647000Y-65127000D01*
X109627000Y-65127000D01*
X109627000Y-66326250D01*
X109785750Y-66485000D01*
X110350000Y-66488072D01*
X110474482Y-66475812D01*
X110594180Y-66439502D01*
X110704494Y-66380537D01*
X110801185Y-66301185D01*
X110880537Y-66204494D01*
X110939502Y-66094180D01*
X110960393Y-66025313D01*
X110984866Y-66055134D01*
X111210986Y-66240706D01*
X111468966Y-66378599D01*
X111748889Y-66463513D01*
X111967050Y-66485000D01*
X112112950Y-66485000D01*
X112331111Y-66463513D01*
X112611034Y-66378599D01*
X112869014Y-66240706D01*
X112981329Y-66148531D01*
X128009389Y-66148531D01*
X128051401Y-66438019D01*
X128149081Y-66713747D01*
X128222528Y-66851157D01*
X128471603Y-66928792D01*
X129320395Y-66080000D01*
X129679605Y-66080000D01*
X130528397Y-66928792D01*
X130770000Y-66853486D01*
X131011603Y-66928792D01*
X131860395Y-66080000D01*
X132219605Y-66080000D01*
X133068397Y-66928792D01*
X133317472Y-66851157D01*
X133443371Y-66587117D01*
X133515339Y-66303589D01*
X133530611Y-66011469D01*
X133488599Y-65721981D01*
X133390919Y-65446253D01*
X133317472Y-65308843D01*
X133068397Y-65231208D01*
X132219605Y-66080000D01*
X131860395Y-66080000D01*
X131011603Y-65231208D01*
X130770000Y-65306514D01*
X130528397Y-65231208D01*
X129679605Y-66080000D01*
X129320395Y-66080000D01*
X128471603Y-65231208D01*
X128222528Y-65308843D01*
X128096629Y-65572883D01*
X128024661Y-65856411D01*
X128009389Y-66148531D01*
X112981329Y-66148531D01*
X113095134Y-66055134D01*
X113280706Y-65829014D01*
X113418599Y-65571034D01*
X113503513Y-65291111D01*
X113532185Y-65000000D01*
X113503513Y-64708889D01*
X113460896Y-64568397D01*
X128651208Y-64568397D01*
X128726514Y-64810000D01*
X128651208Y-65051603D01*
X129500000Y-65900395D01*
X130348792Y-65051603D01*
X130273486Y-64810000D01*
X130348792Y-64568397D01*
X131191208Y-64568397D01*
X131266514Y-64810000D01*
X131191208Y-65051603D01*
X132040000Y-65900395D01*
X132888792Y-65051603D01*
X132813486Y-64810000D01*
X132888792Y-64568397D01*
X132040000Y-63719605D01*
X131191208Y-64568397D01*
X130348792Y-64568397D01*
X129500000Y-63719605D01*
X128651208Y-64568397D01*
X113460896Y-64568397D01*
X113418599Y-64428966D01*
X113280706Y-64170986D01*
X113095134Y-63944866D01*
X112918615Y-63800000D01*
X118561928Y-63800000D01*
X118574188Y-63924482D01*
X118610498Y-64044180D01*
X118669463Y-64154494D01*
X118748815Y-64251185D01*
X118845506Y-64330537D01*
X118955820Y-64389502D01*
X119075518Y-64425812D01*
X119200000Y-64438072D01*
X119714250Y-64435000D01*
X119873000Y-64276250D01*
X119873000Y-63127000D01*
X120127000Y-63127000D01*
X120127000Y-64276250D01*
X120285750Y-64435000D01*
X120800000Y-64438072D01*
X120924482Y-64425812D01*
X121044180Y-64389502D01*
X121154494Y-64330537D01*
X121251185Y-64251185D01*
X121330537Y-64154494D01*
X121389502Y-64044180D01*
X121425812Y-63924482D01*
X121438072Y-63800000D01*
X121436929Y-63608531D01*
X128009389Y-63608531D01*
X128051401Y-63898019D01*
X128149081Y-64173747D01*
X128222528Y-64311157D01*
X128471603Y-64388792D01*
X129320395Y-63540000D01*
X129679605Y-63540000D01*
X130528397Y-64388792D01*
X130770000Y-64313486D01*
X131011603Y-64388792D01*
X131860395Y-63540000D01*
X132219605Y-63540000D01*
X133068397Y-64388792D01*
X133317472Y-64311157D01*
X133443371Y-64047117D01*
X133515339Y-63763589D01*
X133530611Y-63471469D01*
X133488599Y-63181981D01*
X133390919Y-62906253D01*
X133317472Y-62768843D01*
X133068397Y-62691208D01*
X132219605Y-63540000D01*
X131860395Y-63540000D01*
X131011603Y-62691208D01*
X130770000Y-62766514D01*
X130528397Y-62691208D01*
X129679605Y-63540000D01*
X129320395Y-63540000D01*
X128471603Y-62691208D01*
X128222528Y-62768843D01*
X128096629Y-63032883D01*
X128024661Y-63316411D01*
X128009389Y-63608531D01*
X121436929Y-63608531D01*
X121435000Y-63285750D01*
X121276250Y-63127000D01*
X120127000Y-63127000D01*
X119873000Y-63127000D01*
X118723750Y-63127000D01*
X118565000Y-63285750D01*
X118561928Y-63800000D01*
X112918615Y-63800000D01*
X112869014Y-63759294D01*
X112611034Y-63621401D01*
X112331111Y-63536487D01*
X112112950Y-63515000D01*
X111967050Y-63515000D01*
X111748889Y-63536487D01*
X111468966Y-63621401D01*
X111210986Y-63759294D01*
X110984866Y-63944866D01*
X110960393Y-63974687D01*
X110939502Y-63905820D01*
X110880537Y-63795506D01*
X110801185Y-63698815D01*
X110704494Y-63619463D01*
X110594180Y-63560498D01*
X110474482Y-63524188D01*
X110350000Y-63511928D01*
X109785750Y-63515000D01*
X109627000Y-63673750D01*
X109373000Y-63673750D01*
X109214250Y-63515000D01*
X108650000Y-63511928D01*
X108525518Y-63524188D01*
X108405820Y-63560498D01*
X108295506Y-63619463D01*
X108198815Y-63698815D01*
X108119463Y-63795506D01*
X108060498Y-63905820D01*
X108024188Y-64025518D01*
X108011928Y-64150000D01*
X102030841Y-64150000D01*
X102013354Y-64140653D01*
X101761706Y-64064317D01*
X101565579Y-64045000D01*
X101434421Y-64045000D01*
X101238294Y-64064317D01*
X100986646Y-64140653D01*
X100754725Y-64264618D01*
X100551445Y-64431445D01*
X100384618Y-64634725D01*
X100260653Y-64866646D01*
X100184317Y-65118294D01*
X100158541Y-65380000D01*
X97160000Y-65380000D01*
X97160000Y-62564080D01*
X100615525Y-62564080D01*
X100699208Y-62818261D01*
X100971775Y-62949158D01*
X101264642Y-63024365D01*
X101566553Y-63040991D01*
X101865907Y-62998397D01*
X102151199Y-62898222D01*
X102300792Y-62818261D01*
X102384475Y-62564080D01*
X101500000Y-61679605D01*
X100615525Y-62564080D01*
X97160000Y-62564080D01*
X97160000Y-61566553D01*
X99959009Y-61566553D01*
X100001603Y-61865907D01*
X100101778Y-62151199D01*
X100181739Y-62300792D01*
X100435920Y-62384475D01*
X101320395Y-61500000D01*
X101679605Y-61500000D01*
X102564080Y-62384475D01*
X102818261Y-62300792D01*
X102866665Y-62200000D01*
X118561928Y-62200000D01*
X118565000Y-62714250D01*
X118723750Y-62873000D01*
X119873000Y-62873000D01*
X119873000Y-62853000D01*
X120127000Y-62853000D01*
X120127000Y-62873000D01*
X121276250Y-62873000D01*
X121435000Y-62714250D01*
X121438072Y-62200000D01*
X121425812Y-62075518D01*
X121389502Y-61955820D01*
X121330537Y-61845506D01*
X121251185Y-61748815D01*
X121154494Y-61669463D01*
X121044180Y-61610498D01*
X120948057Y-61581339D01*
X121114637Y-61414759D01*
X121271680Y-61179727D01*
X121379853Y-60918574D01*
X121435000Y-60641335D01*
X121435000Y-60358665D01*
X121393494Y-60150000D01*
X128011928Y-60150000D01*
X128011928Y-61850000D01*
X128024188Y-61974482D01*
X128060498Y-62094180D01*
X128119463Y-62204494D01*
X128198815Y-62301185D01*
X128295506Y-62380537D01*
X128405820Y-62439502D01*
X128525518Y-62475812D01*
X128650000Y-62488072D01*
X128658542Y-62488072D01*
X128651208Y-62511603D01*
X129500000Y-63360395D01*
X130348792Y-62511603D01*
X130341458Y-62488072D01*
X130350000Y-62488072D01*
X130474482Y-62475812D01*
X130594180Y-62439502D01*
X130704494Y-62380537D01*
X130801185Y-62301185D01*
X130880537Y-62204494D01*
X130939502Y-62094180D01*
X130961513Y-62021620D01*
X131093368Y-62153475D01*
X131266729Y-62269311D01*
X131191208Y-62511603D01*
X132040000Y-63360395D01*
X132888792Y-62511603D01*
X132813271Y-62269311D01*
X132986632Y-62153475D01*
X133193475Y-61946632D01*
X133355990Y-61703411D01*
X133467932Y-61433158D01*
X133525000Y-61146260D01*
X133525000Y-60853740D01*
X133467932Y-60566842D01*
X133355990Y-60296589D01*
X133193475Y-60053368D01*
X132986632Y-59846525D01*
X132743411Y-59684010D01*
X132473158Y-59572068D01*
X132186260Y-59515000D01*
X131893740Y-59515000D01*
X131606842Y-59572068D01*
X131336589Y-59684010D01*
X131093368Y-59846525D01*
X130961513Y-59978380D01*
X130939502Y-59905820D01*
X130880537Y-59795506D01*
X130801185Y-59698815D01*
X130704494Y-59619463D01*
X130594180Y-59560498D01*
X130474482Y-59524188D01*
X130350000Y-59511928D01*
X128650000Y-59511928D01*
X128525518Y-59524188D01*
X128405820Y-59560498D01*
X128295506Y-59619463D01*
X128198815Y-59698815D01*
X128119463Y-59795506D01*
X128060498Y-59905820D01*
X128024188Y-60025518D01*
X128011928Y-60150000D01*
X121393494Y-60150000D01*
X121379853Y-60081426D01*
X121271680Y-59820273D01*
X121114637Y-59585241D01*
X120914759Y-59385363D01*
X120679727Y-59228320D01*
X120418574Y-59120147D01*
X120141335Y-59065000D01*
X119858665Y-59065000D01*
X119581426Y-59120147D01*
X119320273Y-59228320D01*
X119085241Y-59385363D01*
X118885363Y-59585241D01*
X118728320Y-59820273D01*
X118620147Y-60081426D01*
X118565000Y-60358665D01*
X118565000Y-60641335D01*
X118620147Y-60918574D01*
X118728320Y-61179727D01*
X118885363Y-61414759D01*
X119051943Y-61581339D01*
X118955820Y-61610498D01*
X118845506Y-61669463D01*
X118748815Y-61748815D01*
X118669463Y-61845506D01*
X118610498Y-61955820D01*
X118574188Y-62075518D01*
X118561928Y-62200000D01*
X102866665Y-62200000D01*
X102949158Y-62028225D01*
X103024365Y-61735358D01*
X103040991Y-61433447D01*
X102998397Y-61134093D01*
X102898222Y-60848801D01*
X102818261Y-60699208D01*
X102564080Y-60615525D01*
X101679605Y-61500000D01*
X101320395Y-61500000D01*
X100435920Y-60615525D01*
X100181739Y-60699208D01*
X100050842Y-60971775D01*
X99975635Y-61264642D01*
X99959009Y-61566553D01*
X97160000Y-61566553D01*
X97160000Y-56348816D01*
X99965000Y-56348816D01*
X99965000Y-56651184D01*
X100023989Y-56947743D01*
X100139701Y-57227095D01*
X100307688Y-57478505D01*
X100521495Y-57692312D01*
X100607831Y-57750000D01*
X100521495Y-57807688D01*
X100307688Y-58021495D01*
X100139701Y-58272905D01*
X100023989Y-58552257D01*
X99965000Y-58848816D01*
X99965000Y-59151184D01*
X100023989Y-59447743D01*
X100139701Y-59727095D01*
X100307688Y-59978505D01*
X100521495Y-60192312D01*
X100664310Y-60287738D01*
X100615525Y-60435920D01*
X101500000Y-61320395D01*
X102384475Y-60435920D01*
X102335690Y-60287738D01*
X102478505Y-60192312D01*
X102692312Y-59978505D01*
X102860299Y-59727095D01*
X102976011Y-59447743D01*
X103035000Y-59151184D01*
X103035000Y-58848816D01*
X102976011Y-58552257D01*
X102860299Y-58272905D01*
X102692312Y-58021495D01*
X102478505Y-57807688D01*
X102392169Y-57750000D01*
X102478505Y-57692312D01*
X102692312Y-57478505D01*
X102860299Y-57227095D01*
X102976011Y-56947743D01*
X103035000Y-56651184D01*
X103035000Y-56348816D01*
X102976011Y-56052257D01*
X102860299Y-55772905D01*
X102692312Y-55521495D01*
X102478505Y-55307688D01*
X102227095Y-55139701D01*
X101947743Y-55023989D01*
X101651184Y-54965000D01*
X101348816Y-54965000D01*
X101052257Y-55023989D01*
X100772905Y-55139701D01*
X100521495Y-55307688D01*
X100307688Y-55521495D01*
X100139701Y-55772905D01*
X100023989Y-56052257D01*
X99965000Y-56348816D01*
X97160000Y-56348816D01*
X97160000Y-54660000D01*
X137340001Y-54660000D01*
X137340001Y-80265199D01*
X137340001Y-80265199D01*
G37*
X137340001Y-80265199D02*
X135813645Y-78738844D01*
X135835000Y-78631486D01*
X135835000Y-78368514D01*
X135783696Y-78110595D01*
X135683061Y-77867641D01*
X135536962Y-77648987D01*
X135351013Y-77463038D01*
X135132359Y-77316939D01*
X134889405Y-77216304D01*
X134631486Y-77165000D01*
X134368514Y-77165000D01*
X134110595Y-77216304D01*
X133867641Y-77316939D01*
X133648987Y-77463038D01*
X133463038Y-77648987D01*
X133316939Y-77867641D01*
X133216304Y-78110595D01*
X133165000Y-78368514D01*
X133165000Y-78631486D01*
X133216304Y-78889405D01*
X133309711Y-79114910D01*
X132183804Y-77989003D01*
X132160001Y-77959999D01*
X132044276Y-77865026D01*
X131912247Y-77794454D01*
X131768986Y-77750997D01*
X131657333Y-77740000D01*
X131657322Y-77740000D01*
X131620000Y-77736324D01*
X131582678Y-77740000D01*
X127983298Y-77740000D01*
X127828555Y-77551445D01*
X127625275Y-77384618D01*
X127393354Y-77260653D01*
X127141706Y-77184317D01*
X126945579Y-77165000D01*
X126814421Y-77165000D01*
X126618294Y-77184317D01*
X126366646Y-77260653D01*
X126134725Y-77384618D01*
X125931445Y-77551445D01*
X125764618Y-77754725D01*
X125640653Y-77986646D01*
X125564317Y-78238294D01*
X125538541Y-78500000D01*
X125564317Y-78761706D01*
X125565317Y-78765001D01*
X124439803Y-78765001D01*
X123663804Y-77989002D01*
X123640001Y-77959999D01*
X123524276Y-77865026D01*
X123488072Y-77845674D01*
X123488072Y-77650000D01*
X123475812Y-77525518D01*
X123439502Y-77405820D01*
X123380537Y-77295506D01*
X123301185Y-77198815D01*
X123204494Y-77119463D01*
X123094180Y-77060498D01*
X123025313Y-77039607D01*
X123055134Y-77015134D01*
X123240706Y-76789014D01*
X123378599Y-76531034D01*
X123463513Y-76251111D01*
X123492185Y-75960000D01*
X123463513Y-75668889D01*
X123378599Y-75388966D01*
X123240706Y-75130986D01*
X123055134Y-74904866D01*
X122829014Y-74719294D01*
X122571034Y-74581401D01*
X122291111Y-74496487D01*
X122072950Y-74475000D01*
X121927050Y-74475000D01*
X121708889Y-74496487D01*
X121428966Y-74581401D01*
X121170986Y-74719294D01*
X120944866Y-74904866D01*
X120759294Y-75130986D01*
X120665767Y-75305963D01*
X119673804Y-74314001D01*
X119650002Y-74284998D01*
X119534277Y-74190025D01*
X119402248Y-74119453D01*
X119258987Y-74075996D01*
X119147334Y-74064999D01*
X119147323Y-74064999D01*
X119110001Y-74061323D01*
X119072679Y-74064999D01*
X103212323Y-74064999D01*
X103175000Y-74061323D01*
X103137677Y-74064999D01*
X103137668Y-74064999D01*
X103026015Y-74075996D01*
X102882754Y-74119453D01*
X102750725Y-74190025D01*
X102635000Y-74284998D01*
X102611202Y-74313997D01*
X101908930Y-75016269D01*
X101651184Y-74965000D01*
X101348816Y-74965000D01*
X101052257Y-75023989D01*
X100772905Y-75139701D01*
X100521495Y-75307688D01*
X100307688Y-75521495D01*
X100139701Y-75772905D01*
X100023989Y-76052257D01*
X99965000Y-76348816D01*
X99965000Y-76651184D01*
X100023989Y-76947743D01*
X100139701Y-77227095D01*
X100307688Y-77478505D01*
X100521495Y-77692312D01*
X100607831Y-77750000D01*
X100521495Y-77807688D01*
X100307688Y-78021495D01*
X100139701Y-78272905D01*
X100023989Y-78552257D01*
X99965000Y-78848816D01*
X99965000Y-79151184D01*
X100023989Y-79447743D01*
X100139701Y-79727095D01*
X100307688Y-79978505D01*
X100521495Y-80192312D01*
X100607831Y-80250000D01*
X100521495Y-80307688D01*
X100307688Y-80521495D01*
X100139701Y-80772905D01*
X100023989Y-81052257D01*
X99965000Y-81348816D01*
X99965000Y-81651184D01*
X100023989Y-81947743D01*
X100139701Y-82227095D01*
X100307688Y-82478505D01*
X100521495Y-82692312D01*
X100742972Y-82840298D01*
X100750997Y-82921777D01*
X100785342Y-83035000D01*
X100794454Y-83065038D01*
X100865026Y-83197068D01*
X100892885Y-83231014D01*
X100959999Y-83312793D01*
X100989003Y-83336596D01*
X107708409Y-90056003D01*
X107732208Y-90085002D01*
X107847933Y-90179975D01*
X107979962Y-90250547D01*
X108123223Y-90294004D01*
X108234876Y-90305001D01*
X108234886Y-90305001D01*
X108272209Y-90308677D01*
X108309532Y-90305001D01*
X115230200Y-90305001D01*
X122686355Y-97761157D01*
X122665000Y-97868514D01*
X122665000Y-98131486D01*
X122716304Y-98389405D01*
X122816939Y-98632359D01*
X122963038Y-98851013D01*
X123148987Y-99036962D01*
X123367641Y-99183061D01*
X123529246Y-99250000D01*
X123367641Y-99316939D01*
X123148987Y-99463038D01*
X122963038Y-99648987D01*
X122816939Y-99867641D01*
X122716304Y-100110595D01*
X122665000Y-100368514D01*
X122665000Y-100631486D01*
X122716304Y-100889405D01*
X122816939Y-101132359D01*
X122963038Y-101351013D01*
X123148987Y-101536962D01*
X123367641Y-101683061D01*
X123529246Y-101750000D01*
X123367641Y-101816939D01*
X123148987Y-101963038D01*
X123093413Y-102018612D01*
X115330654Y-94255853D01*
X115355000Y-94133456D01*
X115355000Y-93866544D01*
X115302928Y-93604761D01*
X115200785Y-93358167D01*
X115052497Y-93136238D01*
X114863762Y-92947503D01*
X114641833Y-92799215D01*
X114395239Y-92697072D01*
X114133456Y-92645000D01*
X113866544Y-92645000D01*
X113604761Y-92697072D01*
X113358167Y-92799215D01*
X113136238Y-92947503D01*
X112947503Y-93136238D01*
X112799215Y-93358167D01*
X112730000Y-93525266D01*
X112660785Y-93358167D01*
X112512497Y-93136238D01*
X112323762Y-92947503D01*
X112101833Y-92799215D01*
X111855239Y-92697072D01*
X111593456Y-92645000D01*
X111326544Y-92645000D01*
X111064761Y-92697072D01*
X110818167Y-92799215D01*
X110596238Y-92947503D01*
X110407503Y-93136238D01*
X110338172Y-93240000D01*
X110041828Y-93240000D01*
X109972497Y-93136238D01*
X109783762Y-92947503D01*
X109561833Y-92799215D01*
X109315239Y-92697072D01*
X109053456Y-92645000D01*
X108786544Y-92645000D01*
X108524761Y-92697072D01*
X108278167Y-92799215D01*
X108056238Y-92947503D01*
X107867503Y-93136238D01*
X107719215Y-93358167D01*
X107617072Y-93604761D01*
X107565000Y-93866544D01*
X107565000Y-94133456D01*
X107617072Y-94395239D01*
X107719215Y-94641833D01*
X107867503Y-94863762D01*
X108056238Y-95052497D01*
X108278167Y-95200785D01*
X108524761Y-95302928D01*
X108786544Y-95355000D01*
X109053456Y-95355000D01*
X109315239Y-95302928D01*
X109561833Y-95200785D01*
X109783762Y-95052497D01*
X109972497Y-94863762D01*
X110041828Y-94760000D01*
X110338172Y-94760000D01*
X110407503Y-94863762D01*
X110596238Y-95052497D01*
X110818167Y-95200785D01*
X111064761Y-95302928D01*
X111326544Y-95355000D01*
X111593456Y-95355000D01*
X111715852Y-95330654D01*
X112240001Y-95854803D01*
X112240000Y-98182405D01*
X112170986Y-98219294D01*
X111944866Y-98404866D01*
X111759294Y-98630986D01*
X111621401Y-98888966D01*
X111536487Y-99168889D01*
X111507815Y-99460000D01*
X111536487Y-99751111D01*
X111621401Y-100031034D01*
X111759294Y-100289014D01*
X111944866Y-100515134D01*
X111974687Y-100539607D01*
X111905820Y-100560498D01*
X111795506Y-100619463D01*
X111698815Y-100698815D01*
X111619463Y-100795506D01*
X111560498Y-100905820D01*
X111524188Y-101025518D01*
X111511928Y-101150000D01*
X111511928Y-101817126D01*
X108183804Y-98489003D01*
X108160001Y-98459999D01*
X108044276Y-98365026D01*
X107912247Y-98294454D01*
X107768986Y-98250997D01*
X107657333Y-98240000D01*
X107657322Y-98240000D01*
X107620000Y-98236324D01*
X107582678Y-98240000D01*
X102838313Y-98240000D01*
X102692312Y-98021495D01*
X102478505Y-97807688D01*
X102392169Y-97750000D01*
X102478505Y-97692312D01*
X102692312Y-97478505D01*
X102860299Y-97227095D01*
X102976011Y-96947743D01*
X103035000Y-96651184D01*
X103035000Y-96348816D01*
X102976011Y-96052257D01*
X102860299Y-95772905D01*
X102692312Y-95521495D01*
X102478505Y-95307688D01*
X102227095Y-95139701D01*
X101947743Y-95023989D01*
X101651184Y-94965000D01*
X101348816Y-94965000D01*
X101052257Y-95023989D01*
X100772905Y-95139701D01*
X100521495Y-95307688D01*
X100307688Y-95521495D01*
X100139701Y-95772905D01*
X100023989Y-96052257D01*
X99965000Y-96348816D01*
X99965000Y-96651184D01*
X100023989Y-96947743D01*
X100139701Y-97227095D01*
X100307688Y-97478505D01*
X100521495Y-97692312D01*
X100607831Y-97750000D01*
X100521495Y-97807688D01*
X100307688Y-98021495D01*
X100139701Y-98272905D01*
X100023989Y-98552257D01*
X99965000Y-98848816D01*
X99965000Y-99151184D01*
X100023989Y-99447743D01*
X100139701Y-99727095D01*
X100307688Y-99978505D01*
X100521495Y-100192312D01*
X100664310Y-100287738D01*
X100615525Y-100435920D01*
X101500000Y-101320395D01*
X102384475Y-100435920D01*
X102335690Y-100287738D01*
X102478505Y-100192312D01*
X102692312Y-99978505D01*
X102838313Y-99760000D01*
X107305199Y-99760000D01*
X112682450Y-105137252D01*
X112658541Y-105380000D01*
X112684317Y-105641706D01*
X112760653Y-105893354D01*
X112884618Y-106125275D01*
X113051445Y-106328555D01*
X113254725Y-106495382D01*
X113486646Y-106619347D01*
X113738294Y-106695683D01*
X113934421Y-106715000D01*
X114065579Y-106715000D01*
X114261706Y-106695683D01*
X114513354Y-106619347D01*
X114745275Y-106495382D01*
X114948555Y-106328555D01*
X115115382Y-106125275D01*
X115163615Y-106035037D01*
X115230208Y-106178392D01*
X115384649Y-106389670D01*
X115577340Y-106566759D01*
X115800877Y-106702853D01*
X115929825Y-106750000D01*
X115800877Y-106797147D01*
X115577340Y-106933241D01*
X115384649Y-107110330D01*
X115230208Y-107321608D01*
X115119953Y-107558956D01*
X115087284Y-107666671D01*
X115210626Y-107873000D01*
X116253000Y-107873000D01*
X116253000Y-106829799D01*
X116118615Y-106750000D01*
X116253000Y-106670201D01*
X116253000Y-105627000D01*
X116233000Y-105627000D01*
X116233000Y-105373000D01*
X116253000Y-105373000D01*
X116253000Y-105353000D01*
X116507000Y-105353000D01*
X116507000Y-105373000D01*
X116527000Y-105373000D01*
X116527000Y-105627000D01*
X116507000Y-105627000D01*
X116507000Y-106670201D01*
X116641385Y-106750000D01*
X116507000Y-106829799D01*
X116507000Y-107873000D01*
X116527000Y-107873000D01*
X116527000Y-108127000D01*
X116507000Y-108127000D01*
X116507000Y-108147000D01*
X116253000Y-108147000D01*
X116253000Y-108127000D01*
X115210626Y-108127000D01*
X115087284Y-108333329D01*
X115119953Y-108441044D01*
X115230208Y-108678392D01*
X115384649Y-108889670D01*
X115577340Y-109066759D01*
X115800877Y-109202853D01*
X115982632Y-109269308D01*
X115867641Y-109316939D01*
X115648987Y-109463038D01*
X115463038Y-109648987D01*
X115316939Y-109867641D01*
X115216304Y-110110595D01*
X115211176Y-110136374D01*
X113535000Y-108460199D01*
X113535000Y-108398061D01*
X113495226Y-108198102D01*
X113417205Y-108009744D01*
X113303937Y-107840226D01*
X113159774Y-107696063D01*
X112990256Y-107582795D01*
X112801898Y-107504774D01*
X112601939Y-107465000D01*
X112398061Y-107465000D01*
X112198102Y-107504774D01*
X112009744Y-107582795D01*
X111840226Y-107696063D01*
X111696063Y-107840226D01*
X111582795Y-108009744D01*
X111504774Y-108198102D01*
X111465000Y-108398061D01*
X111465000Y-108601939D01*
X111504774Y-108801898D01*
X111582795Y-108990256D01*
X111696063Y-109159774D01*
X111840226Y-109303937D01*
X112009744Y-109417205D01*
X112198102Y-109495226D01*
X112398061Y-109535000D01*
X112460199Y-109535000D01*
X114614999Y-111689801D01*
X114614999Y-111809748D01*
X114389405Y-111716304D01*
X114131486Y-111665000D01*
X113868514Y-111665000D01*
X113610595Y-111716304D01*
X113367641Y-111816939D01*
X113148987Y-111963038D01*
X112963038Y-112148987D01*
X112816939Y-112367641D01*
X112716304Y-112610595D01*
X112665000Y-112868514D01*
X112665000Y-113131486D01*
X112716304Y-113389405D01*
X112816939Y-113632359D01*
X112963038Y-113851013D01*
X113148987Y-114036962D01*
X113177517Y-114056025D01*
X113065579Y-114045000D01*
X112934421Y-114045000D01*
X112738294Y-114064317D01*
X112486646Y-114140653D01*
X112254725Y-114264618D01*
X112051445Y-114431445D01*
X111884618Y-114634725D01*
X111760653Y-114866646D01*
X111684317Y-115118294D01*
X111658541Y-115380000D01*
X111684317Y-115641706D01*
X111760653Y-115893354D01*
X111884618Y-116125275D01*
X112051445Y-116328555D01*
X112254725Y-116495382D01*
X112486646Y-116619347D01*
X112738294Y-116695683D01*
X112934421Y-116715000D01*
X113065579Y-116715000D01*
X113261706Y-116695683D01*
X113513354Y-116619347D01*
X113745275Y-116495382D01*
X113948555Y-116328555D01*
X114115382Y-116125275D01*
X114239347Y-115893354D01*
X114315683Y-115641706D01*
X114341459Y-115380000D01*
X114315683Y-115118294D01*
X114239347Y-114866646D01*
X114115382Y-114634725D01*
X113948555Y-114431445D01*
X113819046Y-114325160D01*
X113868514Y-114335000D01*
X114131486Y-114335000D01*
X114389405Y-114283696D01*
X114615000Y-114190252D01*
X114615000Y-116837667D01*
X114611323Y-116874999D01*
X114625997Y-117023984D01*
X114669453Y-117167245D01*
X114740025Y-117299275D01*
X114811200Y-117386001D01*
X114834999Y-117415000D01*
X114863997Y-117438798D01*
X116536204Y-119111007D01*
X116546324Y-119123338D01*
X116536499Y-119147056D01*
X116490000Y-119380825D01*
X116490000Y-119619175D01*
X116492658Y-119632540D01*
X115449002Y-120676197D01*
X115419998Y-120700000D01*
X115364870Y-120767175D01*
X115325025Y-120815725D01*
X115294411Y-120873000D01*
X115254453Y-120947755D01*
X115210996Y-121091016D01*
X115199999Y-121202669D01*
X115199999Y-121202679D01*
X115196323Y-121240001D01*
X115199999Y-121277323D01*
X115200000Y-150422666D01*
X115196323Y-150459999D01*
X115210997Y-150608984D01*
X115254453Y-150752245D01*
X115325025Y-150884275D01*
X115387171Y-150959999D01*
X115419999Y-151000000D01*
X115448997Y-151023798D01*
X116286928Y-151861730D01*
X116286928Y-152287500D01*
X116304713Y-152468070D01*
X116357383Y-152641701D01*
X116442915Y-152801720D01*
X116558022Y-152941978D01*
X116698280Y-153057085D01*
X116858299Y-153142617D01*
X117031930Y-153195287D01*
X117212500Y-153213072D01*
X117787500Y-153213072D01*
X117968070Y-153195287D01*
X118141701Y-153142617D01*
X118301720Y-153057085D01*
X118441978Y-152941978D01*
X118557085Y-152801720D01*
X118642617Y-152641701D01*
X118695287Y-152468070D01*
X118713072Y-152287500D01*
X118713072Y-151712500D01*
X118695287Y-151531930D01*
X118642617Y-151358299D01*
X118557085Y-151198280D01*
X118441978Y-151058022D01*
X118301720Y-150942915D01*
X118141701Y-150857383D01*
X117968070Y-150804713D01*
X117787500Y-150786928D01*
X117361730Y-150786928D01*
X116719999Y-150145198D01*
X116719999Y-138205857D01*
X116740825Y-138210000D01*
X116979175Y-138210000D01*
X117212944Y-138163501D01*
X117433150Y-138072288D01*
X117631330Y-137939869D01*
X117799869Y-137771330D01*
X117932288Y-137573150D01*
X118023501Y-137352944D01*
X118070000Y-137119175D01*
X118070000Y-136880825D01*
X118023501Y-136647056D01*
X117932288Y-136426850D01*
X117799869Y-136228670D01*
X117631330Y-136060131D01*
X117433150Y-135927712D01*
X117212944Y-135836499D01*
X116979175Y-135790000D01*
X116740825Y-135790000D01*
X116719999Y-135794143D01*
X116719999Y-135666075D01*
X116940825Y-135710000D01*
X117179175Y-135710000D01*
X117412944Y-135663501D01*
X117633150Y-135572288D01*
X117831330Y-135439869D01*
X117999869Y-135271330D01*
X118132288Y-135073150D01*
X118223501Y-134852944D01*
X118270000Y-134619175D01*
X118270000Y-134380825D01*
X118223501Y-134147056D01*
X118132288Y-133926850D01*
X117999869Y-133728670D01*
X117831330Y-133560131D01*
X117633150Y-133427712D01*
X117412944Y-133336499D01*
X117179175Y-133290000D01*
X116940825Y-133290000D01*
X116719999Y-133333925D01*
X116719999Y-121554802D01*
X117567460Y-120707342D01*
X117580825Y-120710000D01*
X117819175Y-120710000D01*
X118052944Y-120663501D01*
X118273150Y-120572288D01*
X118471330Y-120439869D01*
X118639869Y-120271330D01*
X118675382Y-120218181D01*
X120479999Y-122022799D01*
X120480000Y-134894669D01*
X120476323Y-134932001D01*
X120480000Y-134969334D01*
X120480630Y-134975725D01*
X120490997Y-135080986D01*
X120534453Y-135224247D01*
X120605025Y-135356277D01*
X120673628Y-135439869D01*
X120699999Y-135472002D01*
X120728997Y-135495800D01*
X121144195Y-135910998D01*
X121167998Y-135940002D01*
X121241145Y-136000032D01*
X121248985Y-136006466D01*
X121168670Y-136060131D01*
X121000131Y-136228670D01*
X120867712Y-136426850D01*
X120776499Y-136647056D01*
X120730000Y-136880825D01*
X120730000Y-137119175D01*
X120776499Y-137352944D01*
X120867712Y-137573150D01*
X121000131Y-137771330D01*
X121168670Y-137939869D01*
X121366850Y-138072288D01*
X121587056Y-138163501D01*
X121820825Y-138210000D01*
X122059175Y-138210000D01*
X122292944Y-138163501D01*
X122513150Y-138072288D01*
X122711330Y-137939869D01*
X122879869Y-137771330D01*
X123012288Y-137573150D01*
X123103501Y-137352944D01*
X123150000Y-137119175D01*
X123150000Y-136880825D01*
X123103501Y-136647056D01*
X123012288Y-136426850D01*
X122879869Y-136228670D01*
X122811200Y-136160001D01*
X127562677Y-136160001D01*
X127599999Y-136163677D01*
X127637321Y-136160001D01*
X127637332Y-136160001D01*
X127748985Y-136149004D01*
X127892246Y-136105547D01*
X128024275Y-136034975D01*
X128140000Y-135940002D01*
X128163803Y-135910998D01*
X132176115Y-131898688D01*
X132358665Y-131935000D01*
X132641335Y-131935000D01*
X132918574Y-131879853D01*
X133179727Y-131771680D01*
X133240000Y-131731407D01*
X133240001Y-138985196D01*
X121432540Y-150792659D01*
X121419175Y-150790000D01*
X121180825Y-150790000D01*
X120947056Y-150836499D01*
X120726850Y-150927712D01*
X120528670Y-151060131D01*
X120360131Y-151228670D01*
X120227712Y-151426850D01*
X120136499Y-151647056D01*
X120090000Y-151880825D01*
X120090000Y-152119175D01*
X120136499Y-152352944D01*
X120227712Y-152573150D01*
X120360131Y-152771330D01*
X120528670Y-152939869D01*
X120726850Y-153072288D01*
X120947056Y-153163501D01*
X121180825Y-153210000D01*
X121419175Y-153210000D01*
X121652944Y-153163501D01*
X121873150Y-153072288D01*
X122071330Y-152939869D01*
X122239869Y-152771330D01*
X122372288Y-152573150D01*
X122463501Y-152352944D01*
X122510000Y-152119175D01*
X122510000Y-151880825D01*
X122507341Y-151867460D01*
X134511008Y-139863795D01*
X134540001Y-139840001D01*
X134563795Y-139811008D01*
X134563799Y-139811004D01*
X134634973Y-139724277D01*
X134634974Y-139724276D01*
X134705546Y-139592247D01*
X134749003Y-139448986D01*
X134760000Y-139337333D01*
X134760000Y-139337324D01*
X134763676Y-139300001D01*
X134760000Y-139262678D01*
X134760000Y-126037322D01*
X134763676Y-125999999D01*
X134760000Y-125962676D01*
X134760000Y-125962667D01*
X134749003Y-125851014D01*
X134705546Y-125707753D01*
X134634975Y-125575725D01*
X134634974Y-125575723D01*
X134563799Y-125488997D01*
X134540001Y-125459999D01*
X134511004Y-125436202D01*
X132760000Y-123685199D01*
X132760000Y-121494896D01*
X132816939Y-121632359D01*
X132963038Y-121851013D01*
X133148987Y-122036962D01*
X133367641Y-122183061D01*
X133610595Y-122283696D01*
X133868514Y-122335000D01*
X134131486Y-122335000D01*
X134389405Y-122283696D01*
X134632359Y-122183061D01*
X134851013Y-122036962D01*
X135036962Y-121851013D01*
X135183061Y-121632359D01*
X135283696Y-121389405D01*
X135335000Y-121131486D01*
X135335000Y-120868514D01*
X135283696Y-120610595D01*
X135183061Y-120367641D01*
X135036962Y-120148987D01*
X134851013Y-119963038D01*
X134632359Y-119816939D01*
X134389405Y-119716304D01*
X134131486Y-119665000D01*
X133868514Y-119665000D01*
X133610595Y-119716304D01*
X133367641Y-119816939D01*
X133148987Y-119963038D01*
X132963038Y-120148987D01*
X132816939Y-120367641D01*
X132760000Y-120505104D01*
X132760000Y-116200103D01*
X132787818Y-116291808D01*
X132921068Y-116541101D01*
X133100392Y-116759608D01*
X133318899Y-116938932D01*
X133568192Y-117072182D01*
X133838691Y-117154236D01*
X134049508Y-117175000D01*
X134190492Y-117175000D01*
X134401309Y-117154236D01*
X134671808Y-117072182D01*
X134921101Y-116938932D01*
X135139608Y-116759608D01*
X135318932Y-116541101D01*
X135452182Y-116291808D01*
X135534236Y-116021309D01*
X135561943Y-115740000D01*
X135534236Y-115458691D01*
X135520708Y-115414094D01*
X137340000Y-113594802D01*
X137340000Y-153340000D01*
X97160000Y-153340000D01*
X97160000Y-151291528D01*
X97409740Y-151425017D01*
X97699088Y-151512790D01*
X98000000Y-151542427D01*
X98300913Y-151512790D01*
X98590261Y-151425017D01*
X98856927Y-151282481D01*
X99090661Y-151090661D01*
X99282481Y-150856927D01*
X99425017Y-150590261D01*
X99512790Y-150300913D01*
X99535000Y-150075408D01*
X99535000Y-149275855D01*
X99543074Y-149282481D01*
X99809740Y-149425017D01*
X100099088Y-149512790D01*
X100400000Y-149542427D01*
X100700913Y-149512790D01*
X100990261Y-149425017D01*
X101256927Y-149282481D01*
X101490661Y-149090661D01*
X101682481Y-148856927D01*
X101825017Y-148590261D01*
X101912790Y-148300913D01*
X101926625Y-148160444D01*
X101974276Y-148134974D01*
X102090001Y-148040001D01*
X102113804Y-148010997D01*
X102497801Y-147627000D01*
X104365000Y-147627000D01*
X104365000Y-148127000D01*
X104419271Y-148424023D01*
X104530446Y-148704751D01*
X104694252Y-148958396D01*
X104904394Y-149175210D01*
X105152796Y-149346862D01*
X105429913Y-149466755D01*
X105535260Y-149491036D01*
X105773000Y-149370378D01*
X105773000Y-147627000D01*
X106027000Y-147627000D01*
X106027000Y-149370378D01*
X106264740Y-149491036D01*
X106370087Y-149466755D01*
X106647204Y-149346862D01*
X106895606Y-149175210D01*
X107105748Y-148958396D01*
X107269554Y-148704751D01*
X107380729Y-148424023D01*
X107435000Y-148127000D01*
X107435000Y-147627000D01*
X106027000Y-147627000D01*
X105773000Y-147627000D01*
X104365000Y-147627000D01*
X102497801Y-147627000D01*
X103251801Y-146873000D01*
X104365000Y-146873000D01*
X104365000Y-147373000D01*
X105773000Y-147373000D01*
X105773000Y-145629622D01*
X106027000Y-145629622D01*
X106027000Y-147373000D01*
X107435000Y-147373000D01*
X107435000Y-146873000D01*
X107380729Y-146575977D01*
X107269554Y-146295249D01*
X107105748Y-146041604D01*
X106895606Y-145824790D01*
X106647204Y-145653138D01*
X106370087Y-145533245D01*
X106264740Y-145508964D01*
X106027000Y-145629622D01*
X105773000Y-145629622D01*
X105535260Y-145508964D01*
X105429913Y-145533245D01*
X105152796Y-145653138D01*
X104904394Y-145824790D01*
X104694252Y-146041604D01*
X104530446Y-146295249D01*
X104419271Y-146575977D01*
X104365000Y-146873000D01*
X103251801Y-146873000D01*
X113511003Y-136613799D01*
X113540001Y-136590001D01*
X113634974Y-136474276D01*
X113705546Y-136342247D01*
X113749003Y-136198986D01*
X113760000Y-136087333D01*
X113760000Y-136087324D01*
X113763676Y-136050001D01*
X113760000Y-136012678D01*
X113760000Y-124097775D01*
X113851013Y-124036962D01*
X114036962Y-123851013D01*
X114183061Y-123632359D01*
X114283696Y-123389405D01*
X114335000Y-123131486D01*
X114335000Y-122868514D01*
X114283696Y-122610595D01*
X114183061Y-122367641D01*
X114036962Y-122148987D01*
X113851013Y-121963038D01*
X113632359Y-121816939D01*
X113389405Y-121716304D01*
X113131486Y-121665000D01*
X112868514Y-121665000D01*
X112610595Y-121716304D01*
X112367641Y-121816939D01*
X112148987Y-121963038D01*
X111963038Y-122148987D01*
X111816939Y-122367641D01*
X111716304Y-122610595D01*
X111665000Y-122868514D01*
X111665000Y-123131486D01*
X111716304Y-123389405D01*
X111816939Y-123632359D01*
X111963038Y-123851013D01*
X112148987Y-124036962D01*
X112240000Y-124097775D01*
X112240001Y-135735197D01*
X101734606Y-146240593D01*
X101682481Y-146143073D01*
X101490661Y-145909339D01*
X101256926Y-145717519D01*
X100990260Y-145574983D01*
X100700912Y-145487210D01*
X100400000Y-145457573D01*
X100099087Y-145487210D01*
X99809739Y-145574983D01*
X99543073Y-145717519D01*
X99309339Y-145909339D01*
X99117519Y-146143074D01*
X98974983Y-146409740D01*
X98887210Y-146699088D01*
X98865000Y-146924593D01*
X98865000Y-147724145D01*
X98856926Y-147717519D01*
X98590260Y-147574983D01*
X98300912Y-147487210D01*
X98000000Y-147457573D01*
X97699087Y-147487210D01*
X97409739Y-147574983D01*
X97160000Y-147708471D01*
X97160000Y-135791528D01*
X97409740Y-135925017D01*
X97699088Y-136012790D01*
X98000000Y-136042427D01*
X98300913Y-136012790D01*
X98590261Y-135925017D01*
X98856927Y-135782481D01*
X99090661Y-135590661D01*
X99282481Y-135356927D01*
X99425017Y-135090261D01*
X99512790Y-134800913D01*
X99535000Y-134575408D01*
X99535000Y-133775855D01*
X99543074Y-133782481D01*
X99809740Y-133925017D01*
X100099088Y-134012790D01*
X100400000Y-134042427D01*
X100700913Y-134012790D01*
X100990261Y-133925017D01*
X101256927Y-133782481D01*
X101490661Y-133590661D01*
X101682481Y-133356927D01*
X101825017Y-133090261D01*
X101912790Y-132800913D01*
X101935000Y-132575408D01*
X101935000Y-132127000D01*
X104365000Y-132127000D01*
X104365000Y-132627000D01*
X104419271Y-132924023D01*
X104530446Y-133204751D01*
X104694252Y-133458396D01*
X104904394Y-133675210D01*
X105152796Y-133846862D01*
X105429913Y-133966755D01*
X105535260Y-133991036D01*
X105773000Y-133870378D01*
X105773000Y-132127000D01*
X106027000Y-132127000D01*
X106027000Y-133870378D01*
X106264740Y-133991036D01*
X106370087Y-133966755D01*
X106647204Y-133846862D01*
X106895606Y-133675210D01*
X107105748Y-133458396D01*
X107269554Y-133204751D01*
X107380729Y-132924023D01*
X107435000Y-132627000D01*
X107435000Y-132127000D01*
X106027000Y-132127000D01*
X105773000Y-132127000D01*
X104365000Y-132127000D01*
X101935000Y-132127000D01*
X101935000Y-131424592D01*
X101929919Y-131373000D01*
X104365000Y-131373000D01*
X104365000Y-131873000D01*
X105773000Y-131873000D01*
X105773000Y-130129622D01*
X106027000Y-130129622D01*
X106027000Y-131873000D01*
X107435000Y-131873000D01*
X107435000Y-131373000D01*
X107380729Y-131075977D01*
X107269554Y-130795249D01*
X107105748Y-130541604D01*
X106895606Y-130324790D01*
X106647204Y-130153138D01*
X106370087Y-130033245D01*
X106264740Y-130008964D01*
X106027000Y-130129622D01*
X105773000Y-130129622D01*
X105535260Y-130008964D01*
X105429913Y-130033245D01*
X105152796Y-130153138D01*
X104904394Y-130324790D01*
X104694252Y-130541604D01*
X104530446Y-130795249D01*
X104419271Y-131075977D01*
X104365000Y-131373000D01*
X101929919Y-131373000D01*
X101912790Y-131199087D01*
X101825017Y-130909739D01*
X101682481Y-130643073D01*
X101490661Y-130409339D01*
X101256926Y-130217519D01*
X100990260Y-130074983D01*
X100700912Y-129987210D01*
X100400000Y-129957573D01*
X100099087Y-129987210D01*
X99809739Y-130074983D01*
X99543073Y-130217519D01*
X99309339Y-130409339D01*
X99117519Y-130643074D01*
X98974983Y-130909740D01*
X98887210Y-131199088D01*
X98865000Y-131424593D01*
X98865000Y-132224145D01*
X98856926Y-132217519D01*
X98590260Y-132074983D01*
X98300912Y-131987210D01*
X98000000Y-131957573D01*
X97699087Y-131987210D01*
X97409739Y-132074983D01*
X97160000Y-132208471D01*
X97160000Y-120291528D01*
X97409740Y-120425017D01*
X97699088Y-120512790D01*
X98000000Y-120542427D01*
X98300913Y-120512790D01*
X98590261Y-120425017D01*
X98856927Y-120282481D01*
X99090661Y-120090661D01*
X99282481Y-119856927D01*
X99425017Y-119590261D01*
X99512790Y-119300913D01*
X99535000Y-119075408D01*
X99535000Y-118275855D01*
X99543074Y-118282481D01*
X99809740Y-118425017D01*
X100099088Y-118512790D01*
X100400000Y-118542427D01*
X100700913Y-118512790D01*
X100990261Y-118425017D01*
X101256927Y-118282481D01*
X101490661Y-118090661D01*
X101682481Y-117856927D01*
X101825017Y-117590261D01*
X101912790Y-117300913D01*
X101935000Y-117075408D01*
X101935000Y-116627000D01*
X104365000Y-116627000D01*
X104365000Y-117127000D01*
X104419271Y-117424023D01*
X104530446Y-117704751D01*
X104694252Y-117958396D01*
X104904394Y-118175210D01*
X105152796Y-118346862D01*
X105429913Y-118466755D01*
X105535260Y-118491036D01*
X105773000Y-118370378D01*
X105773000Y-116627000D01*
X106027000Y-116627000D01*
X106027000Y-118370378D01*
X106264740Y-118491036D01*
X106370087Y-118466755D01*
X106647204Y-118346862D01*
X106895606Y-118175210D01*
X107105748Y-117958396D01*
X107269554Y-117704751D01*
X107380729Y-117424023D01*
X107435000Y-117127000D01*
X107435000Y-116627000D01*
X106027000Y-116627000D01*
X105773000Y-116627000D01*
X104365000Y-116627000D01*
X101935000Y-116627000D01*
X101935000Y-115924592D01*
X101929919Y-115873000D01*
X104365000Y-115873000D01*
X104365000Y-116373000D01*
X105773000Y-116373000D01*
X105773000Y-114629622D01*
X106027000Y-114629622D01*
X106027000Y-116373000D01*
X107435000Y-116373000D01*
X107435000Y-115873000D01*
X107380729Y-115575977D01*
X107269554Y-115295249D01*
X107105748Y-115041604D01*
X106895606Y-114824790D01*
X106647204Y-114653138D01*
X106370087Y-114533245D01*
X106264740Y-114508964D01*
X106027000Y-114629622D01*
X105773000Y-114629622D01*
X105535260Y-114508964D01*
X105429913Y-114533245D01*
X105152796Y-114653138D01*
X104904394Y-114824790D01*
X104694252Y-115041604D01*
X104530446Y-115295249D01*
X104419271Y-115575977D01*
X104365000Y-115873000D01*
X101929919Y-115873000D01*
X101912790Y-115699087D01*
X101825017Y-115409739D01*
X101682481Y-115143073D01*
X101490661Y-114909339D01*
X101256926Y-114717519D01*
X100990260Y-114574983D01*
X100700912Y-114487210D01*
X100400000Y-114457573D01*
X100099087Y-114487210D01*
X99809739Y-114574983D01*
X99543073Y-114717519D01*
X99309339Y-114909339D01*
X99117519Y-115143074D01*
X98974983Y-115409740D01*
X98887210Y-115699088D01*
X98865000Y-115924593D01*
X98865000Y-116724145D01*
X98856926Y-116717519D01*
X98590260Y-116574983D01*
X98300912Y-116487210D01*
X98000000Y-116457573D01*
X97699087Y-116487210D01*
X97409739Y-116574983D01*
X97160000Y-116708471D01*
X97160000Y-110858665D01*
X109565000Y-110858665D01*
X109565000Y-111141335D01*
X109620147Y-111418574D01*
X109728320Y-111679727D01*
X109885363Y-111914759D01*
X110085241Y-112114637D01*
X110320273Y-112271680D01*
X110581426Y-112379853D01*
X110858665Y-112435000D01*
X111141335Y-112435000D01*
X111418574Y-112379853D01*
X111679727Y-112271680D01*
X111914759Y-112114637D01*
X112114637Y-111914759D01*
X112271680Y-111679727D01*
X112379853Y-111418574D01*
X112435000Y-111141335D01*
X112435000Y-110858665D01*
X112379853Y-110581426D01*
X112271680Y-110320273D01*
X112114637Y-110085241D01*
X111914759Y-109885363D01*
X111679727Y-109728320D01*
X111418574Y-109620147D01*
X111141335Y-109565000D01*
X110858665Y-109565000D01*
X110581426Y-109620147D01*
X110320273Y-109728320D01*
X110085241Y-109885363D01*
X109885363Y-110085241D01*
X109728320Y-110320273D01*
X109620147Y-110581426D01*
X109565000Y-110858665D01*
X97160000Y-110858665D01*
X97160000Y-105858665D01*
X109565000Y-105858665D01*
X109565000Y-106141335D01*
X109620147Y-106418574D01*
X109728320Y-106679727D01*
X109885363Y-106914759D01*
X110085241Y-107114637D01*
X110320273Y-107271680D01*
X110581426Y-107379853D01*
X110858665Y-107435000D01*
X111141335Y-107435000D01*
X111418574Y-107379853D01*
X111679727Y-107271680D01*
X111914759Y-107114637D01*
X112114637Y-106914759D01*
X112271680Y-106679727D01*
X112379853Y-106418574D01*
X112435000Y-106141335D01*
X112435000Y-105858665D01*
X112379853Y-105581426D01*
X112271680Y-105320273D01*
X112114637Y-105085241D01*
X111914759Y-104885363D01*
X111679727Y-104728320D01*
X111418574Y-104620147D01*
X111141335Y-104565000D01*
X110858665Y-104565000D01*
X110581426Y-104620147D01*
X110320273Y-104728320D01*
X110085241Y-104885363D01*
X109885363Y-105085241D01*
X109728320Y-105320273D01*
X109620147Y-105581426D01*
X109565000Y-105858665D01*
X97160000Y-105858665D01*
X97160000Y-102564080D01*
X100615525Y-102564080D01*
X100699208Y-102818261D01*
X100971775Y-102949158D01*
X101264642Y-103024365D01*
X101566553Y-103040991D01*
X101865907Y-102998397D01*
X102151199Y-102898222D01*
X102300792Y-102818261D01*
X102384475Y-102564080D01*
X101500000Y-101679605D01*
X100615525Y-102564080D01*
X97160000Y-102564080D01*
X97160000Y-101566553D01*
X99959009Y-101566553D01*
X100001603Y-101865907D01*
X100101778Y-102151199D01*
X100181739Y-102300792D01*
X100435920Y-102384475D01*
X101320395Y-101500000D01*
X101679605Y-101500000D01*
X102564080Y-102384475D01*
X102818261Y-102300792D01*
X102949158Y-102028225D01*
X103024365Y-101735358D01*
X103040991Y-101433447D01*
X102998397Y-101134093D01*
X102898222Y-100848801D01*
X102818261Y-100699208D01*
X102564080Y-100615525D01*
X101679605Y-101500000D01*
X101320395Y-101500000D01*
X100435920Y-100615525D01*
X100181739Y-100699208D01*
X100050842Y-100971775D01*
X99975635Y-101264642D01*
X99959009Y-101566553D01*
X97160000Y-101566553D01*
X97160000Y-72868514D01*
X100165000Y-72868514D01*
X100165000Y-73131486D01*
X100216304Y-73389405D01*
X100316939Y-73632359D01*
X100463038Y-73851013D01*
X100648987Y-74036962D01*
X100867641Y-74183061D01*
X101110595Y-74283696D01*
X101368514Y-74335000D01*
X101631486Y-74335000D01*
X101889405Y-74283696D01*
X102132359Y-74183061D01*
X102351013Y-74036962D01*
X102536962Y-73851013D01*
X102683061Y-73632359D01*
X102783696Y-73389405D01*
X102791534Y-73350000D01*
X108011928Y-73350000D01*
X108024188Y-73474482D01*
X108060498Y-73594180D01*
X108119463Y-73704494D01*
X108198815Y-73801185D01*
X108295506Y-73880537D01*
X108405820Y-73939502D01*
X108525518Y-73975812D01*
X108650000Y-73988072D01*
X109214250Y-73985000D01*
X109373000Y-73826250D01*
X109373000Y-72627000D01*
X108173750Y-72627000D01*
X108015000Y-72785750D01*
X108011928Y-73350000D01*
X102791534Y-73350000D01*
X102835000Y-73131486D01*
X102835000Y-72868514D01*
X102783696Y-72610595D01*
X102683061Y-72367641D01*
X102536962Y-72148987D01*
X102351013Y-71963038D01*
X102132359Y-71816939D01*
X101889405Y-71716304D01*
X101631486Y-71665000D01*
X101368514Y-71665000D01*
X101110595Y-71716304D01*
X100867641Y-71816939D01*
X100648987Y-71963038D01*
X100463038Y-72148987D01*
X100316939Y-72367641D01*
X100216304Y-72610595D01*
X100165000Y-72868514D01*
X97160000Y-72868514D01*
X97160000Y-71650000D01*
X108011928Y-71650000D01*
X108015000Y-72214250D01*
X108173750Y-72373000D01*
X109373000Y-72373000D01*
X109373000Y-71173750D01*
X109627000Y-71173750D01*
X109627000Y-72373000D01*
X109647000Y-72373000D01*
X109647000Y-72627000D01*
X109627000Y-72627000D01*
X109627000Y-73826250D01*
X109785750Y-73985000D01*
X110350000Y-73988072D01*
X110474482Y-73975812D01*
X110594180Y-73939502D01*
X110704494Y-73880537D01*
X110801185Y-73801185D01*
X110880537Y-73704494D01*
X110939502Y-73594180D01*
X110960393Y-73525313D01*
X110984866Y-73555134D01*
X111210986Y-73740706D01*
X111468966Y-73878599D01*
X111748889Y-73963513D01*
X111967050Y-73985000D01*
X112112950Y-73985000D01*
X112331111Y-73963513D01*
X112611034Y-73878599D01*
X112869014Y-73740706D01*
X113095134Y-73555134D01*
X113280706Y-73329014D01*
X113418599Y-73071034D01*
X113503513Y-72791111D01*
X113532185Y-72500000D01*
X113503513Y-72208889D01*
X113418599Y-71928966D01*
X113280706Y-71670986D01*
X113095134Y-71444866D01*
X112869014Y-71259294D01*
X112611034Y-71121401D01*
X112331111Y-71036487D01*
X112112950Y-71015000D01*
X111967050Y-71015000D01*
X111748889Y-71036487D01*
X111468966Y-71121401D01*
X111210986Y-71259294D01*
X110984866Y-71444866D01*
X110960393Y-71474687D01*
X110939502Y-71405820D01*
X110880537Y-71295506D01*
X110801185Y-71198815D01*
X110704494Y-71119463D01*
X110594180Y-71060498D01*
X110474482Y-71024188D01*
X110350000Y-71011928D01*
X109785750Y-71015000D01*
X109627000Y-71173750D01*
X109373000Y-71173750D01*
X109214250Y-71015000D01*
X108650000Y-71011928D01*
X108525518Y-71024188D01*
X108405820Y-71060498D01*
X108295506Y-71119463D01*
X108198815Y-71198815D01*
X108119463Y-71295506D01*
X108060498Y-71405820D01*
X108024188Y-71525518D01*
X108011928Y-71650000D01*
X97160000Y-71650000D01*
X97160000Y-70200000D01*
X118561928Y-70200000D01*
X118561928Y-71800000D01*
X118574188Y-71924482D01*
X118610498Y-72044180D01*
X118669463Y-72154494D01*
X118748815Y-72251185D01*
X118845506Y-72330537D01*
X118955820Y-72389502D01*
X119075518Y-72425812D01*
X119200000Y-72438072D01*
X120800000Y-72438072D01*
X120924482Y-72425812D01*
X121044180Y-72389502D01*
X121154494Y-72330537D01*
X121251185Y-72251185D01*
X121330537Y-72154494D01*
X121389502Y-72044180D01*
X121425812Y-71924482D01*
X121438072Y-71800000D01*
X121438072Y-71013740D01*
X128015000Y-71013740D01*
X128015000Y-71306260D01*
X128072068Y-71593158D01*
X128184010Y-71863411D01*
X128346525Y-72106632D01*
X128553368Y-72313475D01*
X128796589Y-72475990D01*
X129066842Y-72587932D01*
X129353740Y-72645000D01*
X129646260Y-72645000D01*
X129933158Y-72587932D01*
X130203411Y-72475990D01*
X130446632Y-72313475D01*
X130653475Y-72106632D01*
X130770000Y-71932240D01*
X130886525Y-72106632D01*
X131093368Y-72313475D01*
X131336589Y-72475990D01*
X131606842Y-72587932D01*
X131893740Y-72645000D01*
X132186260Y-72645000D01*
X132473158Y-72587932D01*
X132743411Y-72475990D01*
X132986632Y-72313475D01*
X133193475Y-72106632D01*
X133355990Y-71863411D01*
X133467932Y-71593158D01*
X133525000Y-71306260D01*
X133525000Y-71013740D01*
X133467932Y-70726842D01*
X133355990Y-70456589D01*
X133193475Y-70213368D01*
X132986632Y-70006525D01*
X132813271Y-69890689D01*
X132888792Y-69648397D01*
X132040000Y-68799605D01*
X131191208Y-69648397D01*
X131266729Y-69890689D01*
X131093368Y-70006525D01*
X130886525Y-70213368D01*
X130770000Y-70387760D01*
X130653475Y-70213368D01*
X130446632Y-70006525D01*
X130273271Y-69890689D01*
X130348792Y-69648397D01*
X129500000Y-68799605D01*
X128651208Y-69648397D01*
X128726729Y-69890689D01*
X128553368Y-70006525D01*
X128346525Y-70213368D01*
X128184010Y-70456589D01*
X128072068Y-70726842D01*
X128015000Y-71013740D01*
X121438072Y-71013740D01*
X121438072Y-70200000D01*
X121425812Y-70075518D01*
X121389502Y-69955820D01*
X121330537Y-69845506D01*
X121251185Y-69748815D01*
X121154494Y-69669463D01*
X121044180Y-69610498D01*
X120924482Y-69574188D01*
X120800000Y-69561928D01*
X120792785Y-69561928D01*
X120813097Y-69492702D01*
X120000000Y-68679605D01*
X119186903Y-69492702D01*
X119207215Y-69561928D01*
X119200000Y-69561928D01*
X119075518Y-69574188D01*
X118955820Y-69610498D01*
X118845506Y-69669463D01*
X118748815Y-69748815D01*
X118669463Y-69845506D01*
X118610498Y-69955820D01*
X118574188Y-70075518D01*
X118561928Y-70200000D01*
X97160000Y-70200000D01*
X97160000Y-68570512D01*
X118559783Y-68570512D01*
X118601213Y-68850130D01*
X118696397Y-69116292D01*
X118763329Y-69241514D01*
X119007298Y-69313097D01*
X119820395Y-68500000D01*
X120179605Y-68500000D01*
X120992702Y-69313097D01*
X121236671Y-69241514D01*
X121357571Y-68986004D01*
X121426300Y-68711816D01*
X121427447Y-68688531D01*
X128009389Y-68688531D01*
X128051401Y-68978019D01*
X128149081Y-69253747D01*
X128222528Y-69391157D01*
X128471603Y-69468792D01*
X129320395Y-68620000D01*
X129679605Y-68620000D01*
X130528397Y-69468792D01*
X130770000Y-69393486D01*
X131011603Y-69468792D01*
X131860395Y-68620000D01*
X132219605Y-68620000D01*
X133068397Y-69468792D01*
X133317472Y-69391157D01*
X133443371Y-69127117D01*
X133515339Y-68843589D01*
X133530611Y-68551469D01*
X133488599Y-68261981D01*
X133390919Y-67986253D01*
X133317472Y-67848843D01*
X133068397Y-67771208D01*
X132219605Y-68620000D01*
X131860395Y-68620000D01*
X131011603Y-67771208D01*
X130770000Y-67846514D01*
X130528397Y-67771208D01*
X129679605Y-68620000D01*
X129320395Y-68620000D01*
X128471603Y-67771208D01*
X128222528Y-67848843D01*
X128096629Y-68112883D01*
X128024661Y-68396411D01*
X128009389Y-68688531D01*
X121427447Y-68688531D01*
X121440217Y-68429488D01*
X121398787Y-68149870D01*
X121303603Y-67883708D01*
X121236671Y-67758486D01*
X120992702Y-67686903D01*
X120179605Y-68500000D01*
X119820395Y-68500000D01*
X119007298Y-67686903D01*
X118763329Y-67758486D01*
X118642429Y-68013996D01*
X118573700Y-68288184D01*
X118559783Y-68570512D01*
X97160000Y-68570512D01*
X97160000Y-67507298D01*
X119186903Y-67507298D01*
X120000000Y-68320395D01*
X120813097Y-67507298D01*
X120741514Y-67263329D01*
X120486004Y-67142429D01*
X120350237Y-67108397D01*
X128651208Y-67108397D01*
X128726514Y-67350000D01*
X128651208Y-67591603D01*
X129500000Y-68440395D01*
X130348792Y-67591603D01*
X130273486Y-67350000D01*
X130348792Y-67108397D01*
X131191208Y-67108397D01*
X131266514Y-67350000D01*
X131191208Y-67591603D01*
X132040000Y-68440395D01*
X132888792Y-67591603D01*
X132813486Y-67350000D01*
X132888792Y-67108397D01*
X132040000Y-66259605D01*
X131191208Y-67108397D01*
X130348792Y-67108397D01*
X129500000Y-66259605D01*
X128651208Y-67108397D01*
X120350237Y-67108397D01*
X120211816Y-67073700D01*
X119929488Y-67059783D01*
X119649870Y-67101213D01*
X119383708Y-67196397D01*
X119258486Y-67263329D01*
X119186903Y-67507298D01*
X97160000Y-67507298D01*
X97160000Y-65380000D01*
X100158541Y-65380000D01*
X100184317Y-65641706D01*
X100260653Y-65893354D01*
X100384618Y-66125275D01*
X100551445Y-66328555D01*
X100754725Y-66495382D01*
X100986646Y-66619347D01*
X101238294Y-66695683D01*
X101434421Y-66715000D01*
X101565579Y-66715000D01*
X101761706Y-66695683D01*
X102013354Y-66619347D01*
X102245275Y-66495382D01*
X102448555Y-66328555D01*
X102615382Y-66125275D01*
X102739347Y-65893354D01*
X102752498Y-65850000D01*
X108011928Y-65850000D01*
X108024188Y-65974482D01*
X108060498Y-66094180D01*
X108119463Y-66204494D01*
X108198815Y-66301185D01*
X108295506Y-66380537D01*
X108405820Y-66439502D01*
X108525518Y-66475812D01*
X108650000Y-66488072D01*
X109214250Y-66485000D01*
X109373000Y-66326250D01*
X109373000Y-65127000D01*
X108173750Y-65127000D01*
X108015000Y-65285750D01*
X108011928Y-65850000D01*
X102752498Y-65850000D01*
X102815683Y-65641706D01*
X102841459Y-65380000D01*
X102815683Y-65118294D01*
X102739347Y-64866646D01*
X102615382Y-64634725D01*
X102448555Y-64431445D01*
X102245275Y-64264618D01*
X102030841Y-64150000D01*
X108011928Y-64150000D01*
X108015000Y-64714250D01*
X108173750Y-64873000D01*
X109373000Y-64873000D01*
X109373000Y-63673750D01*
X109627000Y-63673750D01*
X109627000Y-64873000D01*
X109647000Y-64873000D01*
X109647000Y-65127000D01*
X109627000Y-65127000D01*
X109627000Y-66326250D01*
X109785750Y-66485000D01*
X110350000Y-66488072D01*
X110474482Y-66475812D01*
X110594180Y-66439502D01*
X110704494Y-66380537D01*
X110801185Y-66301185D01*
X110880537Y-66204494D01*
X110939502Y-66094180D01*
X110960393Y-66025313D01*
X110984866Y-66055134D01*
X111210986Y-66240706D01*
X111468966Y-66378599D01*
X111748889Y-66463513D01*
X111967050Y-66485000D01*
X112112950Y-66485000D01*
X112331111Y-66463513D01*
X112611034Y-66378599D01*
X112869014Y-66240706D01*
X112981329Y-66148531D01*
X128009389Y-66148531D01*
X128051401Y-66438019D01*
X128149081Y-66713747D01*
X128222528Y-66851157D01*
X128471603Y-66928792D01*
X129320395Y-66080000D01*
X129679605Y-66080000D01*
X130528397Y-66928792D01*
X130770000Y-66853486D01*
X131011603Y-66928792D01*
X131860395Y-66080000D01*
X132219605Y-66080000D01*
X133068397Y-66928792D01*
X133317472Y-66851157D01*
X133443371Y-66587117D01*
X133515339Y-66303589D01*
X133530611Y-66011469D01*
X133488599Y-65721981D01*
X133390919Y-65446253D01*
X133317472Y-65308843D01*
X133068397Y-65231208D01*
X132219605Y-66080000D01*
X131860395Y-66080000D01*
X131011603Y-65231208D01*
X130770000Y-65306514D01*
X130528397Y-65231208D01*
X129679605Y-66080000D01*
X129320395Y-66080000D01*
X128471603Y-65231208D01*
X128222528Y-65308843D01*
X128096629Y-65572883D01*
X128024661Y-65856411D01*
X128009389Y-66148531D01*
X112981329Y-66148531D01*
X113095134Y-66055134D01*
X113280706Y-65829014D01*
X113418599Y-65571034D01*
X113503513Y-65291111D01*
X113532185Y-65000000D01*
X113503513Y-64708889D01*
X113460896Y-64568397D01*
X128651208Y-64568397D01*
X128726514Y-64810000D01*
X128651208Y-65051603D01*
X129500000Y-65900395D01*
X130348792Y-65051603D01*
X130273486Y-64810000D01*
X130348792Y-64568397D01*
X131191208Y-64568397D01*
X131266514Y-64810000D01*
X131191208Y-65051603D01*
X132040000Y-65900395D01*
X132888792Y-65051603D01*
X132813486Y-64810000D01*
X132888792Y-64568397D01*
X132040000Y-63719605D01*
X131191208Y-64568397D01*
X130348792Y-64568397D01*
X129500000Y-63719605D01*
X128651208Y-64568397D01*
X113460896Y-64568397D01*
X113418599Y-64428966D01*
X113280706Y-64170986D01*
X113095134Y-63944866D01*
X112918615Y-63800000D01*
X118561928Y-63800000D01*
X118574188Y-63924482D01*
X118610498Y-64044180D01*
X118669463Y-64154494D01*
X118748815Y-64251185D01*
X118845506Y-64330537D01*
X118955820Y-64389502D01*
X119075518Y-64425812D01*
X119200000Y-64438072D01*
X119714250Y-64435000D01*
X119873000Y-64276250D01*
X119873000Y-63127000D01*
X120127000Y-63127000D01*
X120127000Y-64276250D01*
X120285750Y-64435000D01*
X120800000Y-64438072D01*
X120924482Y-64425812D01*
X121044180Y-64389502D01*
X121154494Y-64330537D01*
X121251185Y-64251185D01*
X121330537Y-64154494D01*
X121389502Y-64044180D01*
X121425812Y-63924482D01*
X121438072Y-63800000D01*
X121436929Y-63608531D01*
X128009389Y-63608531D01*
X128051401Y-63898019D01*
X128149081Y-64173747D01*
X128222528Y-64311157D01*
X128471603Y-64388792D01*
X129320395Y-63540000D01*
X129679605Y-63540000D01*
X130528397Y-64388792D01*
X130770000Y-64313486D01*
X131011603Y-64388792D01*
X131860395Y-63540000D01*
X132219605Y-63540000D01*
X133068397Y-64388792D01*
X133317472Y-64311157D01*
X133443371Y-64047117D01*
X133515339Y-63763589D01*
X133530611Y-63471469D01*
X133488599Y-63181981D01*
X133390919Y-62906253D01*
X133317472Y-62768843D01*
X133068397Y-62691208D01*
X132219605Y-63540000D01*
X131860395Y-63540000D01*
X131011603Y-62691208D01*
X130770000Y-62766514D01*
X130528397Y-62691208D01*
X129679605Y-63540000D01*
X129320395Y-63540000D01*
X128471603Y-62691208D01*
X128222528Y-62768843D01*
X128096629Y-63032883D01*
X128024661Y-63316411D01*
X128009389Y-63608531D01*
X121436929Y-63608531D01*
X121435000Y-63285750D01*
X121276250Y-63127000D01*
X120127000Y-63127000D01*
X119873000Y-63127000D01*
X118723750Y-63127000D01*
X118565000Y-63285750D01*
X118561928Y-63800000D01*
X112918615Y-63800000D01*
X112869014Y-63759294D01*
X112611034Y-63621401D01*
X112331111Y-63536487D01*
X112112950Y-63515000D01*
X111967050Y-63515000D01*
X111748889Y-63536487D01*
X111468966Y-63621401D01*
X111210986Y-63759294D01*
X110984866Y-63944866D01*
X110960393Y-63974687D01*
X110939502Y-63905820D01*
X110880537Y-63795506D01*
X110801185Y-63698815D01*
X110704494Y-63619463D01*
X110594180Y-63560498D01*
X110474482Y-63524188D01*
X110350000Y-63511928D01*
X109785750Y-63515000D01*
X109627000Y-63673750D01*
X109373000Y-63673750D01*
X109214250Y-63515000D01*
X108650000Y-63511928D01*
X108525518Y-63524188D01*
X108405820Y-63560498D01*
X108295506Y-63619463D01*
X108198815Y-63698815D01*
X108119463Y-63795506D01*
X108060498Y-63905820D01*
X108024188Y-64025518D01*
X108011928Y-64150000D01*
X102030841Y-64150000D01*
X102013354Y-64140653D01*
X101761706Y-64064317D01*
X101565579Y-64045000D01*
X101434421Y-64045000D01*
X101238294Y-64064317D01*
X100986646Y-64140653D01*
X100754725Y-64264618D01*
X100551445Y-64431445D01*
X100384618Y-64634725D01*
X100260653Y-64866646D01*
X100184317Y-65118294D01*
X100158541Y-65380000D01*
X97160000Y-65380000D01*
X97160000Y-62564080D01*
X100615525Y-62564080D01*
X100699208Y-62818261D01*
X100971775Y-62949158D01*
X101264642Y-63024365D01*
X101566553Y-63040991D01*
X101865907Y-62998397D01*
X102151199Y-62898222D01*
X102300792Y-62818261D01*
X102384475Y-62564080D01*
X101500000Y-61679605D01*
X100615525Y-62564080D01*
X97160000Y-62564080D01*
X97160000Y-61566553D01*
X99959009Y-61566553D01*
X100001603Y-61865907D01*
X100101778Y-62151199D01*
X100181739Y-62300792D01*
X100435920Y-62384475D01*
X101320395Y-61500000D01*
X101679605Y-61500000D01*
X102564080Y-62384475D01*
X102818261Y-62300792D01*
X102866665Y-62200000D01*
X118561928Y-62200000D01*
X118565000Y-62714250D01*
X118723750Y-62873000D01*
X119873000Y-62873000D01*
X119873000Y-62853000D01*
X120127000Y-62853000D01*
X120127000Y-62873000D01*
X121276250Y-62873000D01*
X121435000Y-62714250D01*
X121438072Y-62200000D01*
X121425812Y-62075518D01*
X121389502Y-61955820D01*
X121330537Y-61845506D01*
X121251185Y-61748815D01*
X121154494Y-61669463D01*
X121044180Y-61610498D01*
X120948057Y-61581339D01*
X121114637Y-61414759D01*
X121271680Y-61179727D01*
X121379853Y-60918574D01*
X121435000Y-60641335D01*
X121435000Y-60358665D01*
X121393494Y-60150000D01*
X128011928Y-60150000D01*
X128011928Y-61850000D01*
X128024188Y-61974482D01*
X128060498Y-62094180D01*
X128119463Y-62204494D01*
X128198815Y-62301185D01*
X128295506Y-62380537D01*
X128405820Y-62439502D01*
X128525518Y-62475812D01*
X128650000Y-62488072D01*
X128658542Y-62488072D01*
X128651208Y-62511603D01*
X129500000Y-63360395D01*
X130348792Y-62511603D01*
X130341458Y-62488072D01*
X130350000Y-62488072D01*
X130474482Y-62475812D01*
X130594180Y-62439502D01*
X130704494Y-62380537D01*
X130801185Y-62301185D01*
X130880537Y-62204494D01*
X130939502Y-62094180D01*
X130961513Y-62021620D01*
X131093368Y-62153475D01*
X131266729Y-62269311D01*
X131191208Y-62511603D01*
X132040000Y-63360395D01*
X132888792Y-62511603D01*
X132813271Y-62269311D01*
X132986632Y-62153475D01*
X133193475Y-61946632D01*
X133355990Y-61703411D01*
X133467932Y-61433158D01*
X133525000Y-61146260D01*
X133525000Y-60853740D01*
X133467932Y-60566842D01*
X133355990Y-60296589D01*
X133193475Y-60053368D01*
X132986632Y-59846525D01*
X132743411Y-59684010D01*
X132473158Y-59572068D01*
X132186260Y-59515000D01*
X131893740Y-59515000D01*
X131606842Y-59572068D01*
X131336589Y-59684010D01*
X131093368Y-59846525D01*
X130961513Y-59978380D01*
X130939502Y-59905820D01*
X130880537Y-59795506D01*
X130801185Y-59698815D01*
X130704494Y-59619463D01*
X130594180Y-59560498D01*
X130474482Y-59524188D01*
X130350000Y-59511928D01*
X128650000Y-59511928D01*
X128525518Y-59524188D01*
X128405820Y-59560498D01*
X128295506Y-59619463D01*
X128198815Y-59698815D01*
X128119463Y-59795506D01*
X128060498Y-59905820D01*
X128024188Y-60025518D01*
X128011928Y-60150000D01*
X121393494Y-60150000D01*
X121379853Y-60081426D01*
X121271680Y-59820273D01*
X121114637Y-59585241D01*
X120914759Y-59385363D01*
X120679727Y-59228320D01*
X120418574Y-59120147D01*
X120141335Y-59065000D01*
X119858665Y-59065000D01*
X119581426Y-59120147D01*
X119320273Y-59228320D01*
X119085241Y-59385363D01*
X118885363Y-59585241D01*
X118728320Y-59820273D01*
X118620147Y-60081426D01*
X118565000Y-60358665D01*
X118565000Y-60641335D01*
X118620147Y-60918574D01*
X118728320Y-61179727D01*
X118885363Y-61414759D01*
X119051943Y-61581339D01*
X118955820Y-61610498D01*
X118845506Y-61669463D01*
X118748815Y-61748815D01*
X118669463Y-61845506D01*
X118610498Y-61955820D01*
X118574188Y-62075518D01*
X118561928Y-62200000D01*
X102866665Y-62200000D01*
X102949158Y-62028225D01*
X103024365Y-61735358D01*
X103040991Y-61433447D01*
X102998397Y-61134093D01*
X102898222Y-60848801D01*
X102818261Y-60699208D01*
X102564080Y-60615525D01*
X101679605Y-61500000D01*
X101320395Y-61500000D01*
X100435920Y-60615525D01*
X100181739Y-60699208D01*
X100050842Y-60971775D01*
X99975635Y-61264642D01*
X99959009Y-61566553D01*
X97160000Y-61566553D01*
X97160000Y-56348816D01*
X99965000Y-56348816D01*
X99965000Y-56651184D01*
X100023989Y-56947743D01*
X100139701Y-57227095D01*
X100307688Y-57478505D01*
X100521495Y-57692312D01*
X100607831Y-57750000D01*
X100521495Y-57807688D01*
X100307688Y-58021495D01*
X100139701Y-58272905D01*
X100023989Y-58552257D01*
X99965000Y-58848816D01*
X99965000Y-59151184D01*
X100023989Y-59447743D01*
X100139701Y-59727095D01*
X100307688Y-59978505D01*
X100521495Y-60192312D01*
X100664310Y-60287738D01*
X100615525Y-60435920D01*
X101500000Y-61320395D01*
X102384475Y-60435920D01*
X102335690Y-60287738D01*
X102478505Y-60192312D01*
X102692312Y-59978505D01*
X102860299Y-59727095D01*
X102976011Y-59447743D01*
X103035000Y-59151184D01*
X103035000Y-58848816D01*
X102976011Y-58552257D01*
X102860299Y-58272905D01*
X102692312Y-58021495D01*
X102478505Y-57807688D01*
X102392169Y-57750000D01*
X102478505Y-57692312D01*
X102692312Y-57478505D01*
X102860299Y-57227095D01*
X102976011Y-56947743D01*
X103035000Y-56651184D01*
X103035000Y-56348816D01*
X102976011Y-56052257D01*
X102860299Y-55772905D01*
X102692312Y-55521495D01*
X102478505Y-55307688D01*
X102227095Y-55139701D01*
X101947743Y-55023989D01*
X101651184Y-54965000D01*
X101348816Y-54965000D01*
X101052257Y-55023989D01*
X100772905Y-55139701D01*
X100521495Y-55307688D01*
X100307688Y-55521495D01*
X100139701Y-55772905D01*
X100023989Y-56052257D01*
X99965000Y-56348816D01*
X97160000Y-56348816D01*
X97160000Y-54660000D01*
X137340001Y-54660000D01*
X137340001Y-80265199D01*
G36*
X131240000Y-103314802D02*
G01*
X131240001Y-123962667D01*
X131236324Y-124000000D01*
X131250998Y-124148985D01*
X131294454Y-124292246D01*
X131365026Y-124424276D01*
X131436201Y-124511002D01*
X131460000Y-124540001D01*
X131488998Y-124563799D01*
X133140937Y-126215739D01*
X132986004Y-126142429D01*
X132711816Y-126073700D01*
X132429488Y-126059783D01*
X132149870Y-126101213D01*
X131883708Y-126196397D01*
X131758486Y-126263329D01*
X131686903Y-126507298D01*
X132500000Y-127320395D01*
X132514143Y-127306253D01*
X132693748Y-127485858D01*
X132679605Y-127500000D01*
X132693748Y-127514143D01*
X132514143Y-127693748D01*
X132500000Y-127679605D01*
X131686903Y-128492702D01*
X131758486Y-128736671D01*
X132013996Y-128857571D01*
X132288184Y-128926300D01*
X132570512Y-128940217D01*
X132850130Y-128898787D01*
X133116292Y-128803603D01*
X133240000Y-128737480D01*
X133240000Y-129268593D01*
X133179727Y-129228320D01*
X132918574Y-129120147D01*
X132641335Y-129065000D01*
X132358665Y-129065000D01*
X132081426Y-129120147D01*
X131820273Y-129228320D01*
X131585241Y-129385363D01*
X131385363Y-129585241D01*
X131228320Y-129820273D01*
X131120147Y-130081426D01*
X131065000Y-130358665D01*
X131065000Y-130641335D01*
X131101312Y-130823885D01*
X127285198Y-134640001D01*
X123345857Y-134640001D01*
X123350000Y-134619175D01*
X123350000Y-134380825D01*
X123344944Y-134355405D01*
X123349972Y-134349278D01*
X123349973Y-134349277D01*
X123420545Y-134217248D01*
X123464002Y-134073987D01*
X123474999Y-133962334D01*
X123474999Y-133962325D01*
X123478675Y-133925002D01*
X123474999Y-133887679D01*
X123474999Y-130358665D01*
X126065000Y-130358665D01*
X126065000Y-130641335D01*
X126120147Y-130918574D01*
X126228320Y-131179727D01*
X126385363Y-131414759D01*
X126585241Y-131614637D01*
X126820273Y-131771680D01*
X127081426Y-131879853D01*
X127358665Y-131935000D01*
X127641335Y-131935000D01*
X127918574Y-131879853D01*
X128179727Y-131771680D01*
X128414759Y-131614637D01*
X128614637Y-131414759D01*
X128771680Y-131179727D01*
X128879853Y-130918574D01*
X128935000Y-130641335D01*
X128935000Y-130358665D01*
X128879853Y-130081426D01*
X128771680Y-129820273D01*
X128614637Y-129585241D01*
X128414759Y-129385363D01*
X128179727Y-129228320D01*
X127918574Y-129120147D01*
X127641335Y-129065000D01*
X127358665Y-129065000D01*
X127081426Y-129120147D01*
X126820273Y-129228320D01*
X126585241Y-129385363D01*
X126385363Y-129585241D01*
X126228320Y-129820273D01*
X126120147Y-130081426D01*
X126065000Y-130358665D01*
X123474999Y-130358665D01*
X123474999Y-127358665D01*
X126065000Y-127358665D01*
X126065000Y-127641335D01*
X126120147Y-127918574D01*
X126228320Y-128179727D01*
X126385363Y-128414759D01*
X126585241Y-128614637D01*
X126820273Y-128771680D01*
X127081426Y-128879853D01*
X127358665Y-128935000D01*
X127641335Y-128935000D01*
X127918574Y-128879853D01*
X128179727Y-128771680D01*
X128414759Y-128614637D01*
X128614637Y-128414759D01*
X128771680Y-128179727D01*
X128879853Y-127918574D01*
X128935000Y-127641335D01*
X128935000Y-127570512D01*
X131059783Y-127570512D01*
X131101213Y-127850130D01*
X131196397Y-128116292D01*
X131263329Y-128241514D01*
X131507298Y-128313097D01*
X132320395Y-127500000D01*
X131507298Y-126686903D01*
X131263329Y-126758486D01*
X131142429Y-127013996D01*
X131073700Y-127288184D01*
X131059783Y-127570512D01*
X128935000Y-127570512D01*
X128935000Y-127358665D01*
X128879853Y-127081426D01*
X128771680Y-126820273D01*
X128614637Y-126585241D01*
X128414759Y-126385363D01*
X128179727Y-126228320D01*
X127918574Y-126120147D01*
X127641335Y-126065000D01*
X127358665Y-126065000D01*
X127081426Y-126120147D01*
X126820273Y-126228320D01*
X126585241Y-126385363D01*
X126385363Y-126585241D01*
X126228320Y-126820273D01*
X126120147Y-127081426D01*
X126065000Y-127358665D01*
X123474999Y-127358665D01*
X123474999Y-121333329D01*
X125087284Y-121333329D01*
X125119953Y-121441044D01*
X125230208Y-121678392D01*
X125384649Y-121889670D01*
X125577340Y-122066759D01*
X125800877Y-122202853D01*
X126046670Y-122292722D01*
X126253000Y-122170201D01*
X126253000Y-121127000D01*
X126507000Y-121127000D01*
X126507000Y-122170201D01*
X126713330Y-122292722D01*
X126959123Y-122202853D01*
X127182660Y-122066759D01*
X127375351Y-121889670D01*
X127529792Y-121678392D01*
X127640047Y-121441044D01*
X127672716Y-121333329D01*
X127549374Y-121127000D01*
X126507000Y-121127000D01*
X126253000Y-121127000D01*
X125210626Y-121127000D01*
X125087284Y-121333329D01*
X123474999Y-121333329D01*
X123474999Y-120666671D01*
X125087284Y-120666671D01*
X125210626Y-120873000D01*
X126253000Y-120873000D01*
X126253000Y-119829799D01*
X126507000Y-119829799D01*
X126507000Y-120873000D01*
X127549374Y-120873000D01*
X127672716Y-120666671D01*
X127640047Y-120558956D01*
X127529792Y-120321608D01*
X127375351Y-120110330D01*
X127182660Y-119933241D01*
X126959123Y-119797147D01*
X126713330Y-119707278D01*
X126507000Y-119829799D01*
X126253000Y-119829799D01*
X126046670Y-119707278D01*
X125800877Y-119797147D01*
X125577340Y-119933241D01*
X125384649Y-120110330D01*
X125230208Y-120321608D01*
X125119953Y-120558956D01*
X125087284Y-120666671D01*
X123474999Y-120666671D01*
X123474999Y-117252321D01*
X123478675Y-117214998D01*
X123474999Y-117177675D01*
X123474999Y-117177666D01*
X123464002Y-117066013D01*
X123420545Y-116922752D01*
X123414975Y-116912332D01*
X123349973Y-116790722D01*
X123278798Y-116703996D01*
X123255000Y-116674998D01*
X123226003Y-116651201D01*
X122898688Y-116323886D01*
X122935000Y-116141335D01*
X122935000Y-115858665D01*
X122879853Y-115581426D01*
X122771680Y-115320273D01*
X122614637Y-115085241D01*
X122414759Y-114885363D01*
X122179727Y-114728320D01*
X121918574Y-114620147D01*
X121641335Y-114565000D01*
X121358665Y-114565000D01*
X121081426Y-114620147D01*
X120820273Y-114728320D01*
X120585241Y-114885363D01*
X120385363Y-115085241D01*
X120228320Y-115320273D01*
X120120147Y-115581426D01*
X120065000Y-115858665D01*
X120065000Y-116141335D01*
X120108171Y-116358369D01*
X118285001Y-114535200D01*
X118285001Y-101962800D01*
X121308202Y-104986002D01*
X121332000Y-105015000D01*
X121447725Y-105109973D01*
X121579754Y-105180545D01*
X121723015Y-105224002D01*
X121834668Y-105234999D01*
X121834678Y-105234999D01*
X121872001Y-105238675D01*
X121909324Y-105234999D01*
X122691558Y-105234999D01*
X122665000Y-105368514D01*
X122665000Y-105631486D01*
X122716304Y-105889405D01*
X122816939Y-106132359D01*
X122963038Y-106351013D01*
X123148987Y-106536962D01*
X123367641Y-106683061D01*
X123529246Y-106750000D01*
X123367641Y-106816939D01*
X123148987Y-106963038D01*
X122963038Y-107148987D01*
X122816939Y-107367641D01*
X122716304Y-107610595D01*
X122665000Y-107868514D01*
X122665000Y-108131486D01*
X122716304Y-108389405D01*
X122816939Y-108632359D01*
X122963038Y-108851013D01*
X123148987Y-109036962D01*
X123367641Y-109183061D01*
X123584082Y-109272714D01*
X123374725Y-109384618D01*
X123171445Y-109551445D01*
X123004618Y-109754725D01*
X122880653Y-109986646D01*
X122804317Y-110238294D01*
X122778541Y-110500000D01*
X122804317Y-110761706D01*
X122880653Y-111013354D01*
X123004618Y-111245275D01*
X123171445Y-111448555D01*
X123374725Y-111615382D01*
X123606646Y-111739347D01*
X123641765Y-111750000D01*
X123606646Y-111760653D01*
X123374725Y-111884618D01*
X123171445Y-112051445D01*
X123004618Y-112254725D01*
X122880653Y-112486646D01*
X122804317Y-112738294D01*
X122778541Y-113000000D01*
X122804317Y-113261706D01*
X122880653Y-113513354D01*
X123004618Y-113745275D01*
X123171445Y-113948555D01*
X123374725Y-114115382D01*
X123606646Y-114239347D01*
X123858294Y-114315683D01*
X124054421Y-114335000D01*
X124185579Y-114335000D01*
X124381706Y-114315683D01*
X124633354Y-114239347D01*
X124865275Y-114115382D01*
X125068555Y-113948555D01*
X125192352Y-113797708D01*
X125301068Y-114001101D01*
X125480392Y-114219608D01*
X125698899Y-114398932D01*
X125831858Y-114470000D01*
X125698899Y-114541068D01*
X125480392Y-114720392D01*
X125301068Y-114938899D01*
X125167818Y-115188192D01*
X125085764Y-115458691D01*
X125058057Y-115740000D01*
X125085764Y-116021309D01*
X125167818Y-116291808D01*
X125301068Y-116541101D01*
X125480392Y-116759608D01*
X125698899Y-116938932D01*
X125948192Y-117072182D01*
X126218691Y-117154236D01*
X126429508Y-117175000D01*
X126570492Y-117175000D01*
X126781309Y-117154236D01*
X127051808Y-117072182D01*
X127301101Y-116938932D01*
X127519608Y-116759608D01*
X127698932Y-116541101D01*
X127832182Y-116291808D01*
X127914236Y-116021309D01*
X127941943Y-115740000D01*
X127914236Y-115458691D01*
X127832182Y-115188192D01*
X127698932Y-114938899D01*
X127519608Y-114720392D01*
X127301101Y-114541068D01*
X127168142Y-114470000D01*
X127301101Y-114398932D01*
X127519608Y-114219608D01*
X127698932Y-114001101D01*
X127832182Y-113751808D01*
X127914236Y-113481309D01*
X127941943Y-113200000D01*
X127914236Y-112918691D01*
X127832182Y-112648192D01*
X127698932Y-112398899D01*
X127519608Y-112180392D01*
X127301101Y-112001068D01*
X127168142Y-111930000D01*
X127301101Y-111858932D01*
X127519608Y-111679608D01*
X127698932Y-111461101D01*
X127832182Y-111211808D01*
X127914236Y-110941309D01*
X127941943Y-110660000D01*
X127914236Y-110378691D01*
X127832182Y-110108192D01*
X127698932Y-109858899D01*
X127519608Y-109640392D01*
X127301101Y-109461068D01*
X127168142Y-109390000D01*
X127301101Y-109318932D01*
X127519608Y-109139608D01*
X127698932Y-108921101D01*
X127832182Y-108671808D01*
X127914236Y-108401309D01*
X127941943Y-108120000D01*
X127914236Y-107838691D01*
X127832182Y-107568192D01*
X127698932Y-107318899D01*
X127519608Y-107100392D01*
X127301101Y-106921068D01*
X127168142Y-106850000D01*
X127301101Y-106778932D01*
X127519608Y-106599608D01*
X127698932Y-106381101D01*
X127832182Y-106131808D01*
X127914236Y-105861309D01*
X127941943Y-105580000D01*
X127914236Y-105298691D01*
X127832182Y-105028192D01*
X127698932Y-104778899D01*
X127519608Y-104560392D01*
X127301101Y-104381068D01*
X127168142Y-104310000D01*
X127301101Y-104238932D01*
X127519608Y-104059608D01*
X127698932Y-103841101D01*
X127832182Y-103591808D01*
X127914236Y-103321309D01*
X127941943Y-103040000D01*
X127914236Y-102758691D01*
X127832182Y-102488192D01*
X127698932Y-102238899D01*
X127519608Y-102020392D01*
X127406518Y-101927581D01*
X127424482Y-101925812D01*
X127544180Y-101889502D01*
X127654494Y-101830537D01*
X127751185Y-101751185D01*
X127830537Y-101654494D01*
X127889502Y-101544180D01*
X127925812Y-101424482D01*
X127938072Y-101300000D01*
X127938072Y-100012873D01*
X131240000Y-103314802D01*
X131240000Y-103314802D01*
G37*
X131240000Y-103314802D02*
X131240001Y-123962667D01*
X131236324Y-124000000D01*
X131250998Y-124148985D01*
X131294454Y-124292246D01*
X131365026Y-124424276D01*
X131436201Y-124511002D01*
X131460000Y-124540001D01*
X131488998Y-124563799D01*
X133140937Y-126215739D01*
X132986004Y-126142429D01*
X132711816Y-126073700D01*
X132429488Y-126059783D01*
X132149870Y-126101213D01*
X131883708Y-126196397D01*
X131758486Y-126263329D01*
X131686903Y-126507298D01*
X132500000Y-127320395D01*
X132514143Y-127306253D01*
X132693748Y-127485858D01*
X132679605Y-127500000D01*
X132693748Y-127514143D01*
X132514143Y-127693748D01*
X132500000Y-127679605D01*
X131686903Y-128492702D01*
X131758486Y-128736671D01*
X132013996Y-128857571D01*
X132288184Y-128926300D01*
X132570512Y-128940217D01*
X132850130Y-128898787D01*
X133116292Y-128803603D01*
X133240000Y-128737480D01*
X133240000Y-129268593D01*
X133179727Y-129228320D01*
X132918574Y-129120147D01*
X132641335Y-129065000D01*
X132358665Y-129065000D01*
X132081426Y-129120147D01*
X131820273Y-129228320D01*
X131585241Y-129385363D01*
X131385363Y-129585241D01*
X131228320Y-129820273D01*
X131120147Y-130081426D01*
X131065000Y-130358665D01*
X131065000Y-130641335D01*
X131101312Y-130823885D01*
X127285198Y-134640001D01*
X123345857Y-134640001D01*
X123350000Y-134619175D01*
X123350000Y-134380825D01*
X123344944Y-134355405D01*
X123349972Y-134349278D01*
X123349973Y-134349277D01*
X123420545Y-134217248D01*
X123464002Y-134073987D01*
X123474999Y-133962334D01*
X123474999Y-133962325D01*
X123478675Y-133925002D01*
X123474999Y-133887679D01*
X123474999Y-130358665D01*
X126065000Y-130358665D01*
X126065000Y-130641335D01*
X126120147Y-130918574D01*
X126228320Y-131179727D01*
X126385363Y-131414759D01*
X126585241Y-131614637D01*
X126820273Y-131771680D01*
X127081426Y-131879853D01*
X127358665Y-131935000D01*
X127641335Y-131935000D01*
X127918574Y-131879853D01*
X128179727Y-131771680D01*
X128414759Y-131614637D01*
X128614637Y-131414759D01*
X128771680Y-131179727D01*
X128879853Y-130918574D01*
X128935000Y-130641335D01*
X128935000Y-130358665D01*
X128879853Y-130081426D01*
X128771680Y-129820273D01*
X128614637Y-129585241D01*
X128414759Y-129385363D01*
X128179727Y-129228320D01*
X127918574Y-129120147D01*
X127641335Y-129065000D01*
X127358665Y-129065000D01*
X127081426Y-129120147D01*
X126820273Y-129228320D01*
X126585241Y-129385363D01*
X126385363Y-129585241D01*
X126228320Y-129820273D01*
X126120147Y-130081426D01*
X126065000Y-130358665D01*
X123474999Y-130358665D01*
X123474999Y-127358665D01*
X126065000Y-127358665D01*
X126065000Y-127641335D01*
X126120147Y-127918574D01*
X126228320Y-128179727D01*
X126385363Y-128414759D01*
X126585241Y-128614637D01*
X126820273Y-128771680D01*
X127081426Y-128879853D01*
X127358665Y-128935000D01*
X127641335Y-128935000D01*
X127918574Y-128879853D01*
X128179727Y-128771680D01*
X128414759Y-128614637D01*
X128614637Y-128414759D01*
X128771680Y-128179727D01*
X128879853Y-127918574D01*
X128935000Y-127641335D01*
X128935000Y-127570512D01*
X131059783Y-127570512D01*
X131101213Y-127850130D01*
X131196397Y-128116292D01*
X131263329Y-128241514D01*
X131507298Y-128313097D01*
X132320395Y-127500000D01*
X131507298Y-126686903D01*
X131263329Y-126758486D01*
X131142429Y-127013996D01*
X131073700Y-127288184D01*
X131059783Y-127570512D01*
X128935000Y-127570512D01*
X128935000Y-127358665D01*
X128879853Y-127081426D01*
X128771680Y-126820273D01*
X128614637Y-126585241D01*
X128414759Y-126385363D01*
X128179727Y-126228320D01*
X127918574Y-126120147D01*
X127641335Y-126065000D01*
X127358665Y-126065000D01*
X127081426Y-126120147D01*
X126820273Y-126228320D01*
X126585241Y-126385363D01*
X126385363Y-126585241D01*
X126228320Y-126820273D01*
X126120147Y-127081426D01*
X126065000Y-127358665D01*
X123474999Y-127358665D01*
X123474999Y-121333329D01*
X125087284Y-121333329D01*
X125119953Y-121441044D01*
X125230208Y-121678392D01*
X125384649Y-121889670D01*
X125577340Y-122066759D01*
X125800877Y-122202853D01*
X126046670Y-122292722D01*
X126253000Y-122170201D01*
X126253000Y-121127000D01*
X126507000Y-121127000D01*
X126507000Y-122170201D01*
X126713330Y-122292722D01*
X126959123Y-122202853D01*
X127182660Y-122066759D01*
X127375351Y-121889670D01*
X127529792Y-121678392D01*
X127640047Y-121441044D01*
X127672716Y-121333329D01*
X127549374Y-121127000D01*
X126507000Y-121127000D01*
X126253000Y-121127000D01*
X125210626Y-121127000D01*
X125087284Y-121333329D01*
X123474999Y-121333329D01*
X123474999Y-120666671D01*
X125087284Y-120666671D01*
X125210626Y-120873000D01*
X126253000Y-120873000D01*
X126253000Y-119829799D01*
X126507000Y-119829799D01*
X126507000Y-120873000D01*
X127549374Y-120873000D01*
X127672716Y-120666671D01*
X127640047Y-120558956D01*
X127529792Y-120321608D01*
X127375351Y-120110330D01*
X127182660Y-119933241D01*
X126959123Y-119797147D01*
X126713330Y-119707278D01*
X126507000Y-119829799D01*
X126253000Y-119829799D01*
X126046670Y-119707278D01*
X125800877Y-119797147D01*
X125577340Y-119933241D01*
X125384649Y-120110330D01*
X125230208Y-120321608D01*
X125119953Y-120558956D01*
X125087284Y-120666671D01*
X123474999Y-120666671D01*
X123474999Y-117252321D01*
X123478675Y-117214998D01*
X123474999Y-117177675D01*
X123474999Y-117177666D01*
X123464002Y-117066013D01*
X123420545Y-116922752D01*
X123414975Y-116912332D01*
X123349973Y-116790722D01*
X123278798Y-116703996D01*
X123255000Y-116674998D01*
X123226003Y-116651201D01*
X122898688Y-116323886D01*
X122935000Y-116141335D01*
X122935000Y-115858665D01*
X122879853Y-115581426D01*
X122771680Y-115320273D01*
X122614637Y-115085241D01*
X122414759Y-114885363D01*
X122179727Y-114728320D01*
X121918574Y-114620147D01*
X121641335Y-114565000D01*
X121358665Y-114565000D01*
X121081426Y-114620147D01*
X120820273Y-114728320D01*
X120585241Y-114885363D01*
X120385363Y-115085241D01*
X120228320Y-115320273D01*
X120120147Y-115581426D01*
X120065000Y-115858665D01*
X120065000Y-116141335D01*
X120108171Y-116358369D01*
X118285001Y-114535200D01*
X118285001Y-101962800D01*
X121308202Y-104986002D01*
X121332000Y-105015000D01*
X121447725Y-105109973D01*
X121579754Y-105180545D01*
X121723015Y-105224002D01*
X121834668Y-105234999D01*
X121834678Y-105234999D01*
X121872001Y-105238675D01*
X121909324Y-105234999D01*
X122691558Y-105234999D01*
X122665000Y-105368514D01*
X122665000Y-105631486D01*
X122716304Y-105889405D01*
X122816939Y-106132359D01*
X122963038Y-106351013D01*
X123148987Y-106536962D01*
X123367641Y-106683061D01*
X123529246Y-106750000D01*
X123367641Y-106816939D01*
X123148987Y-106963038D01*
X122963038Y-107148987D01*
X122816939Y-107367641D01*
X122716304Y-107610595D01*
X122665000Y-107868514D01*
X122665000Y-108131486D01*
X122716304Y-108389405D01*
X122816939Y-108632359D01*
X122963038Y-108851013D01*
X123148987Y-109036962D01*
X123367641Y-109183061D01*
X123584082Y-109272714D01*
X123374725Y-109384618D01*
X123171445Y-109551445D01*
X123004618Y-109754725D01*
X122880653Y-109986646D01*
X122804317Y-110238294D01*
X122778541Y-110500000D01*
X122804317Y-110761706D01*
X122880653Y-111013354D01*
X123004618Y-111245275D01*
X123171445Y-111448555D01*
X123374725Y-111615382D01*
X123606646Y-111739347D01*
X123641765Y-111750000D01*
X123606646Y-111760653D01*
X123374725Y-111884618D01*
X123171445Y-112051445D01*
X123004618Y-112254725D01*
X122880653Y-112486646D01*
X122804317Y-112738294D01*
X122778541Y-113000000D01*
X122804317Y-113261706D01*
X122880653Y-113513354D01*
X123004618Y-113745275D01*
X123171445Y-113948555D01*
X123374725Y-114115382D01*
X123606646Y-114239347D01*
X123858294Y-114315683D01*
X124054421Y-114335000D01*
X124185579Y-114335000D01*
X124381706Y-114315683D01*
X124633354Y-114239347D01*
X124865275Y-114115382D01*
X125068555Y-113948555D01*
X125192352Y-113797708D01*
X125301068Y-114001101D01*
X125480392Y-114219608D01*
X125698899Y-114398932D01*
X125831858Y-114470000D01*
X125698899Y-114541068D01*
X125480392Y-114720392D01*
X125301068Y-114938899D01*
X125167818Y-115188192D01*
X125085764Y-115458691D01*
X125058057Y-115740000D01*
X125085764Y-116021309D01*
X125167818Y-116291808D01*
X125301068Y-116541101D01*
X125480392Y-116759608D01*
X125698899Y-116938932D01*
X125948192Y-117072182D01*
X126218691Y-117154236D01*
X126429508Y-117175000D01*
X126570492Y-117175000D01*
X126781309Y-117154236D01*
X127051808Y-117072182D01*
X127301101Y-116938932D01*
X127519608Y-116759608D01*
X127698932Y-116541101D01*
X127832182Y-116291808D01*
X127914236Y-116021309D01*
X127941943Y-115740000D01*
X127914236Y-115458691D01*
X127832182Y-115188192D01*
X127698932Y-114938899D01*
X127519608Y-114720392D01*
X127301101Y-114541068D01*
X127168142Y-114470000D01*
X127301101Y-114398932D01*
X127519608Y-114219608D01*
X127698932Y-114001101D01*
X127832182Y-113751808D01*
X127914236Y-113481309D01*
X127941943Y-113200000D01*
X127914236Y-112918691D01*
X127832182Y-112648192D01*
X127698932Y-112398899D01*
X127519608Y-112180392D01*
X127301101Y-112001068D01*
X127168142Y-111930000D01*
X127301101Y-111858932D01*
X127519608Y-111679608D01*
X127698932Y-111461101D01*
X127832182Y-111211808D01*
X127914236Y-110941309D01*
X127941943Y-110660000D01*
X127914236Y-110378691D01*
X127832182Y-110108192D01*
X127698932Y-109858899D01*
X127519608Y-109640392D01*
X127301101Y-109461068D01*
X127168142Y-109390000D01*
X127301101Y-109318932D01*
X127519608Y-109139608D01*
X127698932Y-108921101D01*
X127832182Y-108671808D01*
X127914236Y-108401309D01*
X127941943Y-108120000D01*
X127914236Y-107838691D01*
X127832182Y-107568192D01*
X127698932Y-107318899D01*
X127519608Y-107100392D01*
X127301101Y-106921068D01*
X127168142Y-106850000D01*
X127301101Y-106778932D01*
X127519608Y-106599608D01*
X127698932Y-106381101D01*
X127832182Y-106131808D01*
X127914236Y-105861309D01*
X127941943Y-105580000D01*
X127914236Y-105298691D01*
X127832182Y-105028192D01*
X127698932Y-104778899D01*
X127519608Y-104560392D01*
X127301101Y-104381068D01*
X127168142Y-104310000D01*
X127301101Y-104238932D01*
X127519608Y-104059608D01*
X127698932Y-103841101D01*
X127832182Y-103591808D01*
X127914236Y-103321309D01*
X127941943Y-103040000D01*
X127914236Y-102758691D01*
X127832182Y-102488192D01*
X127698932Y-102238899D01*
X127519608Y-102020392D01*
X127406518Y-101927581D01*
X127424482Y-101925812D01*
X127544180Y-101889502D01*
X127654494Y-101830537D01*
X127751185Y-101751185D01*
X127830537Y-101654494D01*
X127889502Y-101544180D01*
X127925812Y-101424482D01*
X127938072Y-101300000D01*
X127938072Y-100012873D01*
X131240000Y-103314802D01*
G36*
X116693748Y-115985858D02*
G01*
X116679605Y-116000000D01*
X117492702Y-116813097D01*
X117736671Y-116741514D01*
X117857571Y-116486004D01*
X117903394Y-116303196D01*
X120392603Y-118792406D01*
X120357383Y-118858299D01*
X120304713Y-119031930D01*
X120286928Y-119212500D01*
X120286928Y-119680124D01*
X118695805Y-118089002D01*
X118672002Y-118059998D01*
X118556277Y-117965025D01*
X118424248Y-117894453D01*
X118280987Y-117850996D01*
X118169334Y-117839999D01*
X118169323Y-117839999D01*
X118132001Y-117836323D01*
X118094679Y-117839999D01*
X117414802Y-117839999D01*
X116941068Y-117366266D01*
X117116292Y-117303603D01*
X117241514Y-117236671D01*
X117313097Y-116992702D01*
X116500000Y-116179605D01*
X116485858Y-116193748D01*
X116306253Y-116014143D01*
X116320395Y-116000000D01*
X116306253Y-115985858D01*
X116485858Y-115806253D01*
X116500000Y-115820395D01*
X116514143Y-115806253D01*
X116693748Y-115985858D01*
X116693748Y-115985858D01*
G37*
X116693748Y-115985858D02*
X116679605Y-116000000D01*
X117492702Y-116813097D01*
X117736671Y-116741514D01*
X117857571Y-116486004D01*
X117903394Y-116303196D01*
X120392603Y-118792406D01*
X120357383Y-118858299D01*
X120304713Y-119031930D01*
X120286928Y-119212500D01*
X120286928Y-119680124D01*
X118695805Y-118089002D01*
X118672002Y-118059998D01*
X118556277Y-117965025D01*
X118424248Y-117894453D01*
X118280987Y-117850996D01*
X118169334Y-117839999D01*
X118169323Y-117839999D01*
X118132001Y-117836323D01*
X118094679Y-117839999D01*
X117414802Y-117839999D01*
X116941068Y-117366266D01*
X117116292Y-117303603D01*
X117241514Y-117236671D01*
X117313097Y-116992702D01*
X116500000Y-116179605D01*
X116485858Y-116193748D01*
X116306253Y-116014143D01*
X116320395Y-116000000D01*
X116306253Y-115985858D01*
X116485858Y-115806253D01*
X116500000Y-115820395D01*
X116514143Y-115806253D01*
X116693748Y-115985858D01*
G36*
X122436201Y-103511003D02*
G01*
X122459999Y-103540001D01*
X122488997Y-103563799D01*
X122575723Y-103634974D01*
X122707753Y-103705546D01*
X122738916Y-103714999D01*
X122186803Y-103714999D01*
X117435805Y-98964002D01*
X117412002Y-98934998D01*
X117366586Y-98897726D01*
X117375351Y-98889670D01*
X117529792Y-98678392D01*
X117553200Y-98628001D01*
X122436201Y-103511003D01*
X122436201Y-103511003D01*
G37*
X122436201Y-103511003D02*
X122459999Y-103540001D01*
X122488997Y-103563799D01*
X122575723Y-103634974D01*
X122707753Y-103705546D01*
X122738916Y-103714999D01*
X122186803Y-103714999D01*
X117435805Y-98964002D01*
X117412002Y-98934998D01*
X117366586Y-98897726D01*
X117375351Y-98889670D01*
X117529792Y-98678392D01*
X117553200Y-98628001D01*
X122436201Y-103511003D01*
G36*
X113866544Y-95355000D02*
G01*
X114133456Y-95355000D01*
X114255853Y-95330654D01*
X115752064Y-96826865D01*
X115577340Y-96933241D01*
X115384649Y-97110330D01*
X115230208Y-97321608D01*
X115119953Y-97558956D01*
X115087284Y-97666671D01*
X115210626Y-97873000D01*
X116253000Y-97873000D01*
X116253000Y-97853000D01*
X116507000Y-97853000D01*
X116507000Y-97873000D01*
X116527000Y-97873000D01*
X116527000Y-98127000D01*
X116507000Y-98127000D01*
X116507000Y-98147000D01*
X116253000Y-98147000D01*
X116253000Y-98127000D01*
X115210626Y-98127000D01*
X115087284Y-98333329D01*
X115119953Y-98441044D01*
X115230208Y-98678392D01*
X115285153Y-98753558D01*
X115232754Y-98769453D01*
X115100725Y-98840025D01*
X114985000Y-98934998D01*
X114961202Y-98963996D01*
X114489765Y-99435433D01*
X114463513Y-99168889D01*
X114378599Y-98888966D01*
X114240706Y-98630986D01*
X114055134Y-98404866D01*
X113829014Y-98219294D01*
X113760000Y-98182405D01*
X113760000Y-95577323D01*
X113763676Y-95540000D01*
X113760000Y-95502677D01*
X113760000Y-95502667D01*
X113749003Y-95391014D01*
X113729829Y-95327806D01*
X113866544Y-95355000D01*
X113866544Y-95355000D01*
G37*
X113866544Y-95355000D02*
X114133456Y-95355000D01*
X114255853Y-95330654D01*
X115752064Y-96826865D01*
X115577340Y-96933241D01*
X115384649Y-97110330D01*
X115230208Y-97321608D01*
X115119953Y-97558956D01*
X115087284Y-97666671D01*
X115210626Y-97873000D01*
X116253000Y-97873000D01*
X116253000Y-97853000D01*
X116507000Y-97853000D01*
X116507000Y-97873000D01*
X116527000Y-97873000D01*
X116527000Y-98127000D01*
X116507000Y-98127000D01*
X116507000Y-98147000D01*
X116253000Y-98147000D01*
X116253000Y-98127000D01*
X115210626Y-98127000D01*
X115087284Y-98333329D01*
X115119953Y-98441044D01*
X115230208Y-98678392D01*
X115285153Y-98753558D01*
X115232754Y-98769453D01*
X115100725Y-98840025D01*
X114985000Y-98934998D01*
X114961202Y-98963996D01*
X114489765Y-99435433D01*
X114463513Y-99168889D01*
X114378599Y-98888966D01*
X114240706Y-98630986D01*
X114055134Y-98404866D01*
X113829014Y-98219294D01*
X113760000Y-98182405D01*
X113760000Y-95577323D01*
X113763676Y-95540000D01*
X113760000Y-95502677D01*
X113760000Y-95502667D01*
X113749003Y-95391014D01*
X113729829Y-95327806D01*
X113866544Y-95355000D01*
G36*
X116511928Y-76850000D02*
G01*
X116524188Y-76974482D01*
X116560498Y-77094180D01*
X116619463Y-77204494D01*
X116698815Y-77301185D01*
X116795506Y-77380537D01*
X116905820Y-77439502D01*
X116974687Y-77460393D01*
X116944866Y-77484866D01*
X116759294Y-77710986D01*
X116621401Y-77968966D01*
X116536487Y-78248889D01*
X116507815Y-78540000D01*
X116536487Y-78831111D01*
X116621401Y-79111034D01*
X116759294Y-79369014D01*
X116944866Y-79595134D01*
X117170986Y-79780706D01*
X117428966Y-79918599D01*
X117708889Y-80003513D01*
X117927050Y-80025000D01*
X118072950Y-80025000D01*
X118291111Y-80003513D01*
X118571034Y-79918599D01*
X118829014Y-79780706D01*
X119055134Y-79595134D01*
X119240706Y-79369014D01*
X119378599Y-79111034D01*
X119463513Y-78831111D01*
X119492185Y-78540000D01*
X119463513Y-78248889D01*
X119378599Y-77968966D01*
X119240706Y-77710986D01*
X119055134Y-77484866D01*
X119025313Y-77460393D01*
X119094180Y-77439502D01*
X119204494Y-77380537D01*
X119301185Y-77301185D01*
X119380537Y-77204494D01*
X119439502Y-77094180D01*
X119475812Y-76974482D01*
X119488072Y-76850000D01*
X119488072Y-76277872D01*
X120065000Y-76854801D01*
X120064999Y-78387676D01*
X120061323Y-78424999D01*
X120064999Y-78462321D01*
X120064999Y-78462331D01*
X120075996Y-78573984D01*
X120102088Y-78659998D01*
X120119453Y-78717245D01*
X120190025Y-78849275D01*
X120201845Y-78863677D01*
X120284998Y-78965000D01*
X120313999Y-78988801D01*
X120336199Y-79011001D01*
X120359999Y-79040001D01*
X120475724Y-79134974D01*
X120511928Y-79154326D01*
X120511928Y-79350000D01*
X120524188Y-79474482D01*
X120560498Y-79594180D01*
X120619463Y-79704494D01*
X120698815Y-79801185D01*
X120795506Y-79880537D01*
X120905820Y-79939502D01*
X121025518Y-79975812D01*
X121150000Y-79988072D01*
X122850000Y-79988072D01*
X122974482Y-79975812D01*
X123094180Y-79939502D01*
X123204494Y-79880537D01*
X123301185Y-79801185D01*
X123312543Y-79787345D01*
X123561201Y-80036003D01*
X123585000Y-80065002D01*
X123700725Y-80159975D01*
X123832754Y-80230547D01*
X123976015Y-80274004D01*
X124087668Y-80285001D01*
X124087677Y-80285001D01*
X124125000Y-80288677D01*
X124162323Y-80285001D01*
X126227202Y-80285001D01*
X126302599Y-80360398D01*
X126148987Y-80463038D01*
X125963038Y-80648987D01*
X125816939Y-80867641D01*
X125716304Y-81110595D01*
X125665000Y-81368514D01*
X125665000Y-81631486D01*
X125716304Y-81889405D01*
X125816939Y-82132359D01*
X125963038Y-82351013D01*
X126148987Y-82536962D01*
X126367641Y-82683061D01*
X126482632Y-82730692D01*
X126300877Y-82797147D01*
X126077340Y-82933241D01*
X125884649Y-83110330D01*
X125730208Y-83321608D01*
X125619953Y-83558956D01*
X125587284Y-83666671D01*
X125710626Y-83873000D01*
X126753000Y-83873000D01*
X126753000Y-83853000D01*
X127007000Y-83853000D01*
X127007000Y-83873000D01*
X127027000Y-83873000D01*
X127027000Y-84127000D01*
X127007000Y-84127000D01*
X127007000Y-85170201D01*
X127127000Y-85241458D01*
X127127000Y-86253000D01*
X127147000Y-86253000D01*
X127147000Y-86507000D01*
X127127000Y-86507000D01*
X127127000Y-87549374D01*
X127333329Y-87672716D01*
X127441044Y-87640047D01*
X127678392Y-87529792D01*
X127889670Y-87375351D01*
X128066759Y-87182660D01*
X128071629Y-87174661D01*
X128120147Y-87418574D01*
X128228320Y-87679727D01*
X128385363Y-87914759D01*
X128585241Y-88114637D01*
X128820273Y-88271680D01*
X129081426Y-88379853D01*
X129358665Y-88435000D01*
X129641335Y-88435000D01*
X129918574Y-88379853D01*
X130179727Y-88271680D01*
X130414759Y-88114637D01*
X130614637Y-87914759D01*
X130770978Y-87680778D01*
X133740001Y-90649802D01*
X133740000Y-92781956D01*
X133585241Y-92885363D01*
X133385363Y-93085241D01*
X133228320Y-93320273D01*
X133120147Y-93581426D01*
X133065907Y-93854104D01*
X132700806Y-93489003D01*
X132677003Y-93459999D01*
X132561278Y-93365026D01*
X132429249Y-93294454D01*
X132285988Y-93250997D01*
X132174335Y-93240000D01*
X132174324Y-93240000D01*
X132137002Y-93236324D01*
X132099680Y-93240000D01*
X130718043Y-93240000D01*
X130614637Y-93085241D01*
X130414759Y-92885363D01*
X130179727Y-92728320D01*
X129918574Y-92620147D01*
X129641335Y-92565000D01*
X129358665Y-92565000D01*
X129176114Y-92601312D01*
X123288132Y-86713330D01*
X125707278Y-86713330D01*
X125797147Y-86959123D01*
X125933241Y-87182660D01*
X126110330Y-87375351D01*
X126321608Y-87529792D01*
X126558956Y-87640047D01*
X126666671Y-87672716D01*
X126873000Y-87549374D01*
X126873000Y-86507000D01*
X125829799Y-86507000D01*
X125707278Y-86713330D01*
X123288132Y-86713330D01*
X122111463Y-85536662D01*
X122714250Y-85535000D01*
X122873000Y-85376250D01*
X122873000Y-83627000D01*
X123127000Y-83627000D01*
X123127000Y-85376250D01*
X123285750Y-85535000D01*
X124400000Y-85538072D01*
X124524482Y-85525812D01*
X124644180Y-85489502D01*
X124754494Y-85430537D01*
X124851185Y-85351185D01*
X124930537Y-85254494D01*
X124989502Y-85144180D01*
X125025812Y-85024482D01*
X125038072Y-84900000D01*
X125036510Y-84333329D01*
X125587284Y-84333329D01*
X125619953Y-84441044D01*
X125730208Y-84678392D01*
X125884649Y-84889670D01*
X126077340Y-85066759D01*
X126300877Y-85202853D01*
X126345429Y-85219142D01*
X126321608Y-85230208D01*
X126110330Y-85384649D01*
X125933241Y-85577340D01*
X125797147Y-85800877D01*
X125707278Y-86046670D01*
X125829799Y-86253000D01*
X126873000Y-86253000D01*
X126873000Y-85210626D01*
X126753000Y-85138891D01*
X126753000Y-84127000D01*
X125710626Y-84127000D01*
X125587284Y-84333329D01*
X125036510Y-84333329D01*
X125035000Y-83785750D01*
X124876250Y-83627000D01*
X123127000Y-83627000D01*
X122873000Y-83627000D01*
X121123750Y-83627000D01*
X120965000Y-83785750D01*
X120963338Y-84388537D01*
X118674801Y-82100000D01*
X120961928Y-82100000D01*
X120965000Y-83214250D01*
X121123750Y-83373000D01*
X122873000Y-83373000D01*
X122873000Y-81623750D01*
X123127000Y-81623750D01*
X123127000Y-83373000D01*
X124876250Y-83373000D01*
X125035000Y-83214250D01*
X125038072Y-82100000D01*
X125025812Y-81975518D01*
X124989502Y-81855820D01*
X124930537Y-81745506D01*
X124851185Y-81648815D01*
X124754494Y-81569463D01*
X124644180Y-81510498D01*
X124524482Y-81474188D01*
X124400000Y-81461928D01*
X123285750Y-81465000D01*
X123127000Y-81623750D01*
X122873000Y-81623750D01*
X122714250Y-81465000D01*
X121600000Y-81461928D01*
X121475518Y-81474188D01*
X121355820Y-81510498D01*
X121245506Y-81569463D01*
X121148815Y-81648815D01*
X121069463Y-81745506D01*
X121010498Y-81855820D01*
X120974188Y-81975518D01*
X120961928Y-82100000D01*
X118674801Y-82100000D01*
X113888803Y-77314002D01*
X113865000Y-77284998D01*
X113749275Y-77190025D01*
X113617246Y-77119453D01*
X113473985Y-77075996D01*
X113362332Y-77064999D01*
X113362321Y-77064999D01*
X113324999Y-77061323D01*
X113287677Y-77064999D01*
X102927442Y-77064999D01*
X102976011Y-76947743D01*
X103035000Y-76651184D01*
X103035000Y-76348816D01*
X102983731Y-76091070D01*
X103489803Y-75584999D01*
X116511928Y-75584999D01*
X116511928Y-76850000D01*
X116511928Y-76850000D01*
G37*
X116511928Y-76850000D02*
X116524188Y-76974482D01*
X116560498Y-77094180D01*
X116619463Y-77204494D01*
X116698815Y-77301185D01*
X116795506Y-77380537D01*
X116905820Y-77439502D01*
X116974687Y-77460393D01*
X116944866Y-77484866D01*
X116759294Y-77710986D01*
X116621401Y-77968966D01*
X116536487Y-78248889D01*
X116507815Y-78540000D01*
X116536487Y-78831111D01*
X116621401Y-79111034D01*
X116759294Y-79369014D01*
X116944866Y-79595134D01*
X117170986Y-79780706D01*
X117428966Y-79918599D01*
X117708889Y-80003513D01*
X117927050Y-80025000D01*
X118072950Y-80025000D01*
X118291111Y-80003513D01*
X118571034Y-79918599D01*
X118829014Y-79780706D01*
X119055134Y-79595134D01*
X119240706Y-79369014D01*
X119378599Y-79111034D01*
X119463513Y-78831111D01*
X119492185Y-78540000D01*
X119463513Y-78248889D01*
X119378599Y-77968966D01*
X119240706Y-77710986D01*
X119055134Y-77484866D01*
X119025313Y-77460393D01*
X119094180Y-77439502D01*
X119204494Y-77380537D01*
X119301185Y-77301185D01*
X119380537Y-77204494D01*
X119439502Y-77094180D01*
X119475812Y-76974482D01*
X119488072Y-76850000D01*
X119488072Y-76277872D01*
X120065000Y-76854801D01*
X120064999Y-78387676D01*
X120061323Y-78424999D01*
X120064999Y-78462321D01*
X120064999Y-78462331D01*
X120075996Y-78573984D01*
X120102088Y-78659998D01*
X120119453Y-78717245D01*
X120190025Y-78849275D01*
X120201845Y-78863677D01*
X120284998Y-78965000D01*
X120313999Y-78988801D01*
X120336199Y-79011001D01*
X120359999Y-79040001D01*
X120475724Y-79134974D01*
X120511928Y-79154326D01*
X120511928Y-79350000D01*
X120524188Y-79474482D01*
X120560498Y-79594180D01*
X120619463Y-79704494D01*
X120698815Y-79801185D01*
X120795506Y-79880537D01*
X120905820Y-79939502D01*
X121025518Y-79975812D01*
X121150000Y-79988072D01*
X122850000Y-79988072D01*
X122974482Y-79975812D01*
X123094180Y-79939502D01*
X123204494Y-79880537D01*
X123301185Y-79801185D01*
X123312543Y-79787345D01*
X123561201Y-80036003D01*
X123585000Y-80065002D01*
X123700725Y-80159975D01*
X123832754Y-80230547D01*
X123976015Y-80274004D01*
X124087668Y-80285001D01*
X124087677Y-80285001D01*
X124125000Y-80288677D01*
X124162323Y-80285001D01*
X126227202Y-80285001D01*
X126302599Y-80360398D01*
X126148987Y-80463038D01*
X125963038Y-80648987D01*
X125816939Y-80867641D01*
X125716304Y-81110595D01*
X125665000Y-81368514D01*
X125665000Y-81631486D01*
X125716304Y-81889405D01*
X125816939Y-82132359D01*
X125963038Y-82351013D01*
X126148987Y-82536962D01*
X126367641Y-82683061D01*
X126482632Y-82730692D01*
X126300877Y-82797147D01*
X126077340Y-82933241D01*
X125884649Y-83110330D01*
X125730208Y-83321608D01*
X125619953Y-83558956D01*
X125587284Y-83666671D01*
X125710626Y-83873000D01*
X126753000Y-83873000D01*
X126753000Y-83853000D01*
X127007000Y-83853000D01*
X127007000Y-83873000D01*
X127027000Y-83873000D01*
X127027000Y-84127000D01*
X127007000Y-84127000D01*
X127007000Y-85170201D01*
X127127000Y-85241458D01*
X127127000Y-86253000D01*
X127147000Y-86253000D01*
X127147000Y-86507000D01*
X127127000Y-86507000D01*
X127127000Y-87549374D01*
X127333329Y-87672716D01*
X127441044Y-87640047D01*
X127678392Y-87529792D01*
X127889670Y-87375351D01*
X128066759Y-87182660D01*
X128071629Y-87174661D01*
X128120147Y-87418574D01*
X128228320Y-87679727D01*
X128385363Y-87914759D01*
X128585241Y-88114637D01*
X128820273Y-88271680D01*
X129081426Y-88379853D01*
X129358665Y-88435000D01*
X129641335Y-88435000D01*
X129918574Y-88379853D01*
X130179727Y-88271680D01*
X130414759Y-88114637D01*
X130614637Y-87914759D01*
X130770978Y-87680778D01*
X133740001Y-90649802D01*
X133740000Y-92781956D01*
X133585241Y-92885363D01*
X133385363Y-93085241D01*
X133228320Y-93320273D01*
X133120147Y-93581426D01*
X133065907Y-93854104D01*
X132700806Y-93489003D01*
X132677003Y-93459999D01*
X132561278Y-93365026D01*
X132429249Y-93294454D01*
X132285988Y-93250997D01*
X132174335Y-93240000D01*
X132174324Y-93240000D01*
X132137002Y-93236324D01*
X132099680Y-93240000D01*
X130718043Y-93240000D01*
X130614637Y-93085241D01*
X130414759Y-92885363D01*
X130179727Y-92728320D01*
X129918574Y-92620147D01*
X129641335Y-92565000D01*
X129358665Y-92565000D01*
X129176114Y-92601312D01*
X123288132Y-86713330D01*
X125707278Y-86713330D01*
X125797147Y-86959123D01*
X125933241Y-87182660D01*
X126110330Y-87375351D01*
X126321608Y-87529792D01*
X126558956Y-87640047D01*
X126666671Y-87672716D01*
X126873000Y-87549374D01*
X126873000Y-86507000D01*
X125829799Y-86507000D01*
X125707278Y-86713330D01*
X123288132Y-86713330D01*
X122111463Y-85536662D01*
X122714250Y-85535000D01*
X122873000Y-85376250D01*
X122873000Y-83627000D01*
X123127000Y-83627000D01*
X123127000Y-85376250D01*
X123285750Y-85535000D01*
X124400000Y-85538072D01*
X124524482Y-85525812D01*
X124644180Y-85489502D01*
X124754494Y-85430537D01*
X124851185Y-85351185D01*
X124930537Y-85254494D01*
X124989502Y-85144180D01*
X125025812Y-85024482D01*
X125038072Y-84900000D01*
X125036510Y-84333329D01*
X125587284Y-84333329D01*
X125619953Y-84441044D01*
X125730208Y-84678392D01*
X125884649Y-84889670D01*
X126077340Y-85066759D01*
X126300877Y-85202853D01*
X126345429Y-85219142D01*
X126321608Y-85230208D01*
X126110330Y-85384649D01*
X125933241Y-85577340D01*
X125797147Y-85800877D01*
X125707278Y-86046670D01*
X125829799Y-86253000D01*
X126873000Y-86253000D01*
X126873000Y-85210626D01*
X126753000Y-85138891D01*
X126753000Y-84127000D01*
X125710626Y-84127000D01*
X125587284Y-84333329D01*
X125036510Y-84333329D01*
X125035000Y-83785750D01*
X124876250Y-83627000D01*
X123127000Y-83627000D01*
X122873000Y-83627000D01*
X121123750Y-83627000D01*
X120965000Y-83785750D01*
X120963338Y-84388537D01*
X118674801Y-82100000D01*
X120961928Y-82100000D01*
X120965000Y-83214250D01*
X121123750Y-83373000D01*
X122873000Y-83373000D01*
X122873000Y-81623750D01*
X123127000Y-81623750D01*
X123127000Y-83373000D01*
X124876250Y-83373000D01*
X125035000Y-83214250D01*
X125038072Y-82100000D01*
X125025812Y-81975518D01*
X124989502Y-81855820D01*
X124930537Y-81745506D01*
X124851185Y-81648815D01*
X124754494Y-81569463D01*
X124644180Y-81510498D01*
X124524482Y-81474188D01*
X124400000Y-81461928D01*
X123285750Y-81465000D01*
X123127000Y-81623750D01*
X122873000Y-81623750D01*
X122714250Y-81465000D01*
X121600000Y-81461928D01*
X121475518Y-81474188D01*
X121355820Y-81510498D01*
X121245506Y-81569463D01*
X121148815Y-81648815D01*
X121069463Y-81745506D01*
X121010498Y-81855820D01*
X120974188Y-81975518D01*
X120961928Y-82100000D01*
X118674801Y-82100000D01*
X113888803Y-77314002D01*
X113865000Y-77284998D01*
X113749275Y-77190025D01*
X113617246Y-77119453D01*
X113473985Y-77075996D01*
X113362332Y-77064999D01*
X113362321Y-77064999D01*
X113324999Y-77061323D01*
X113287677Y-77064999D01*
X102927442Y-77064999D01*
X102976011Y-76947743D01*
X103035000Y-76651184D01*
X103035000Y-76348816D01*
X102983731Y-76091070D01*
X103489803Y-75584999D01*
X116511928Y-75584999D01*
X116511928Y-76850000D01*
M02*
