G04 #@! TF.GenerationSoftware,KiCad,Pcbnew,5.1.4*
G04 #@! TF.CreationDate,2019-10-24T19:13:33+02:00*
G04 #@! TF.ProjectId,lpg,6c70672e-6b69-4636-9164-5f7063625858,rev?*
G04 #@! TF.SameCoordinates,Original*
G04 #@! TF.FileFunction,Legend,Top*
G04 #@! TF.FilePolarity,Positive*
%FSLAX46Y46*%
G04 Gerber Fmt 4.6, Leading zero omitted, Abs format (unit mm)*
G04 Created by KiCad (PCBNEW 5.1.4) date 2019-10-24 19:13:33*
%MOMM*%
%LPD*%
G04 APERTURE LIST*
%ADD10C,0.120000*%
%ADD11C,0.150000*%
G04 APERTURE END LIST*
D10*
X113330000Y-77670000D02*
X113330000Y-79000000D01*
X112000000Y-77670000D02*
X113330000Y-77670000D01*
X110730000Y-77670000D02*
X110730000Y-80330000D01*
X110730000Y-80330000D02*
X108130000Y-80330000D01*
X110730000Y-77670000D02*
X108130000Y-77670000D01*
X108130000Y-77670000D02*
X108130000Y-80330000D01*
D11*
X129500000Y-59400000D02*
X128900000Y-58800000D01*
X130100000Y-58800000D02*
X129500000Y-59400000D01*
X128900000Y-58800000D02*
X130100000Y-58800000D01*
X135340000Y-58350000D02*
X135340000Y-58850000D01*
X135440000Y-58850000D02*
X135240000Y-58850000D01*
X135440000Y-58350000D02*
X135440000Y-58850000D01*
X135240000Y-58350000D02*
X135440000Y-58350000D01*
X135340000Y-73310000D02*
X135340000Y-73810000D01*
X135440000Y-73810000D02*
X135240000Y-73810000D01*
X135440000Y-73310000D02*
X135440000Y-73810000D01*
X135240000Y-73310000D02*
X135440000Y-73310000D01*
X135340000Y-65830000D02*
X135340000Y-66330000D01*
X135440000Y-66330000D02*
X135240000Y-66330000D01*
X135440000Y-65830000D02*
X135440000Y-66330000D01*
X135240000Y-65830000D02*
X135440000Y-65830000D01*
X127600000Y-68305000D02*
X126300000Y-68305000D01*
X127600000Y-75030000D02*
X127600000Y-68305000D01*
X133940000Y-75030000D02*
X127600000Y-75030000D01*
X133940000Y-57130000D02*
X133940000Y-75030000D01*
X127600000Y-57130000D02*
X133940000Y-57130000D01*
X127600000Y-63855000D02*
X127600000Y-57130000D01*
X126300000Y-63855000D02*
X127600000Y-63855000D01*
X126300000Y-76230000D02*
X126300000Y-55930000D01*
X135240000Y-76230000D02*
X126300000Y-76230000D01*
X135240000Y-55930000D02*
X135240000Y-76230000D01*
X126300000Y-55930000D02*
X135240000Y-55930000D01*
D10*
X124610000Y-132010000D02*
X124610000Y-124570000D01*
X124610000Y-124570000D02*
X122030000Y-121990000D01*
X122030000Y-121990000D02*
X114590000Y-121990000D01*
X114590000Y-121990000D02*
X114590000Y-132010000D01*
X114590000Y-132010000D02*
X124610000Y-132010000D01*
X114390000Y-139490000D02*
X114390000Y-146930000D01*
X114390000Y-146930000D02*
X116970000Y-149510000D01*
X116970000Y-149510000D02*
X124410000Y-149510000D01*
X124410000Y-149510000D02*
X124410000Y-139490000D01*
X124410000Y-139490000D02*
X114390000Y-139490000D01*
X132960000Y-99170000D02*
X131310000Y-99170000D01*
X132960000Y-117070000D02*
X132960000Y-99170000D01*
X127660000Y-117070000D02*
X132960000Y-117070000D01*
X127660000Y-99170000D02*
X127660000Y-117070000D01*
X129310000Y-99170000D02*
X127660000Y-99170000D01*
X131310000Y-99170000D02*
G75*
G02X129310000Y-99170000I-1000000J0D01*
G01*
X81380000Y-82120000D02*
X81380000Y-75880000D01*
X91380000Y-82120000D02*
X91380000Y-75880000D01*
X91380000Y-75880000D02*
X81380000Y-75880000D01*
X91380000Y-82120000D02*
X81380000Y-82120000D01*
X91380000Y-82620000D02*
X91380000Y-75380000D01*
X96380000Y-82620000D02*
X96380000Y-75380000D01*
X96380000Y-75380000D02*
X91380000Y-75380000D01*
X96380000Y-82620000D02*
X91380000Y-82620000D01*
X96380000Y-83870000D02*
X96380000Y-74130000D01*
X103670000Y-83870000D02*
X103670000Y-74130000D01*
X103670000Y-74130000D02*
X96380000Y-74130000D01*
X103670000Y-83870000D02*
X96380000Y-83870000D01*
X116345000Y-91470000D02*
X116345000Y-96540000D01*
X106575000Y-91470000D02*
X106575000Y-96540000D01*
X106575000Y-96540000D02*
X116345000Y-96540000D01*
X106575000Y-91470000D02*
X116345000Y-91470000D01*
X106655000Y-91030000D02*
X106655000Y-85960000D01*
X116425000Y-91030000D02*
X116425000Y-85960000D01*
X116425000Y-85960000D02*
X106655000Y-85960000D01*
X116425000Y-91030000D02*
X106655000Y-91030000D01*
X81380000Y-102120000D02*
X81380000Y-95880000D01*
X91380000Y-102120000D02*
X91380000Y-95880000D01*
X91380000Y-95880000D02*
X81380000Y-95880000D01*
X91380000Y-102120000D02*
X81380000Y-102120000D01*
X91380000Y-102620000D02*
X91380000Y-95380000D01*
X96380000Y-102620000D02*
X96380000Y-95380000D01*
X96380000Y-95380000D02*
X91380000Y-95380000D01*
X96380000Y-102620000D02*
X91380000Y-102620000D01*
X96380000Y-103870000D02*
X96380000Y-94130000D01*
X103670000Y-103870000D02*
X103670000Y-94130000D01*
X103670000Y-94130000D02*
X96380000Y-94130000D01*
X103670000Y-103870000D02*
X96380000Y-103870000D01*
X81380000Y-62120000D02*
X81380000Y-55880000D01*
X91380000Y-62120000D02*
X91380000Y-55880000D01*
X91380000Y-55880000D02*
X81380000Y-55880000D01*
X91380000Y-62120000D02*
X81380000Y-62120000D01*
X91380000Y-62620000D02*
X91380000Y-55380000D01*
X96380000Y-62620000D02*
X96380000Y-55380000D01*
X96380000Y-55380000D02*
X91380000Y-55380000D01*
X96380000Y-62620000D02*
X91380000Y-62620000D01*
X96380000Y-63870000D02*
X96380000Y-54130000D01*
X103670000Y-63870000D02*
X103670000Y-54130000D01*
X103670000Y-54130000D02*
X96380000Y-54130000D01*
X103670000Y-63870000D02*
X96380000Y-63870000D01*
X117320000Y-98000000D02*
X118270000Y-98000000D01*
X123060000Y-98000000D02*
X122110000Y-98000000D01*
X118270000Y-98920000D02*
X122110000Y-98920000D01*
X118270000Y-97080000D02*
X118270000Y-98920000D01*
X122110000Y-97080000D02*
X118270000Y-97080000D01*
X122110000Y-98920000D02*
X122110000Y-97080000D01*
X113000000Y-116320000D02*
X113000000Y-117270000D01*
X113000000Y-122060000D02*
X113000000Y-121110000D01*
X112080000Y-117270000D02*
X112080000Y-121110000D01*
X113920000Y-117270000D02*
X112080000Y-117270000D01*
X113920000Y-121110000D02*
X113920000Y-117270000D01*
X112080000Y-121110000D02*
X113920000Y-121110000D01*
X123180000Y-113000000D02*
X122230000Y-113000000D01*
X117440000Y-113000000D02*
X118390000Y-113000000D01*
X122230000Y-112080000D02*
X118390000Y-112080000D01*
X122230000Y-113920000D02*
X122230000Y-112080000D01*
X118390000Y-113920000D02*
X122230000Y-113920000D01*
X118390000Y-112080000D02*
X118390000Y-113920000D01*
X117320000Y-108000000D02*
X118270000Y-108000000D01*
X123060000Y-108000000D02*
X122110000Y-108000000D01*
X118270000Y-108920000D02*
X122110000Y-108920000D01*
X118270000Y-107080000D02*
X118270000Y-108920000D01*
X122110000Y-107080000D02*
X118270000Y-107080000D01*
X122110000Y-108920000D02*
X122110000Y-107080000D01*
X123180000Y-110500000D02*
X122230000Y-110500000D01*
X117440000Y-110500000D02*
X118390000Y-110500000D01*
X122230000Y-109580000D02*
X118390000Y-109580000D01*
X122230000Y-111420000D02*
X122230000Y-109580000D01*
X118390000Y-111420000D02*
X122230000Y-111420000D01*
X118390000Y-109580000D02*
X118390000Y-111420000D01*
X117320000Y-100500000D02*
X118270000Y-100500000D01*
X123060000Y-100500000D02*
X122110000Y-100500000D01*
X118270000Y-101420000D02*
X122110000Y-101420000D01*
X118270000Y-99580000D02*
X118270000Y-101420000D01*
X122110000Y-99580000D02*
X118270000Y-99580000D01*
X122110000Y-101420000D02*
X122110000Y-99580000D01*
X127000000Y-87320000D02*
X127000000Y-88270000D01*
X127000000Y-93060000D02*
X127000000Y-92110000D01*
X126080000Y-88270000D02*
X126080000Y-92110000D01*
X127920000Y-88270000D02*
X126080000Y-88270000D01*
X127920000Y-92110000D02*
X127920000Y-88270000D01*
X126080000Y-92110000D02*
X127920000Y-92110000D01*
X133180000Y-97500000D02*
X132230000Y-97500000D01*
X127440000Y-97500000D02*
X128390000Y-97500000D01*
X132230000Y-96580000D02*
X128390000Y-96580000D01*
X132230000Y-98420000D02*
X132230000Y-96580000D01*
X128390000Y-98420000D02*
X132230000Y-98420000D01*
X128390000Y-96580000D02*
X128390000Y-98420000D01*
X117320000Y-105500000D02*
X118270000Y-105500000D01*
X123060000Y-105500000D02*
X122110000Y-105500000D01*
X118270000Y-106420000D02*
X122110000Y-106420000D01*
X118270000Y-104580000D02*
X118270000Y-106420000D01*
X122110000Y-104580000D02*
X118270000Y-104580000D01*
X122110000Y-106420000D02*
X122110000Y-104580000D01*
X133680000Y-81500000D02*
X132730000Y-81500000D01*
X127940000Y-81500000D02*
X128890000Y-81500000D01*
X132730000Y-80580000D02*
X128890000Y-80580000D01*
X132730000Y-82420000D02*
X132730000Y-80580000D01*
X128890000Y-82420000D02*
X132730000Y-82420000D01*
X128890000Y-80580000D02*
X128890000Y-82420000D01*
X127820000Y-78500000D02*
X128770000Y-78500000D01*
X133560000Y-78500000D02*
X132610000Y-78500000D01*
X128770000Y-79420000D02*
X132610000Y-79420000D01*
X128770000Y-77580000D02*
X128770000Y-79420000D01*
X132610000Y-77580000D02*
X128770000Y-77580000D01*
X132610000Y-79420000D02*
X132610000Y-77580000D01*
X117320000Y-103000000D02*
X118270000Y-103000000D01*
X123060000Y-103000000D02*
X122110000Y-103000000D01*
X118270000Y-103920000D02*
X122110000Y-103920000D01*
X118270000Y-102080000D02*
X118270000Y-103920000D01*
X122110000Y-102080000D02*
X118270000Y-102080000D01*
X122110000Y-103920000D02*
X122110000Y-102080000D01*
X114000000Y-106320000D02*
X114000000Y-107270000D01*
X114000000Y-112060000D02*
X114000000Y-111110000D01*
X113080000Y-107270000D02*
X113080000Y-111110000D01*
X114920000Y-107270000D02*
X113080000Y-107270000D01*
X114920000Y-111110000D02*
X114920000Y-107270000D01*
X113080000Y-111110000D02*
X114920000Y-111110000D01*
X127820000Y-84000000D02*
X128770000Y-84000000D01*
X133560000Y-84000000D02*
X132610000Y-84000000D01*
X128770000Y-84920000D02*
X132610000Y-84920000D01*
X128770000Y-83080000D02*
X128770000Y-84920000D01*
X132610000Y-83080000D02*
X128770000Y-83080000D01*
X132610000Y-84920000D02*
X132610000Y-83080000D01*
X101500000Y-66320000D02*
X101500000Y-67270000D01*
X101500000Y-72060000D02*
X101500000Y-71110000D01*
X100580000Y-67270000D02*
X100580000Y-71110000D01*
X102420000Y-67270000D02*
X100580000Y-67270000D01*
X102420000Y-71110000D02*
X102420000Y-67270000D01*
X100580000Y-71110000D02*
X102420000Y-71110000D01*
X127320000Y-121000000D02*
X128270000Y-121000000D01*
X133060000Y-121000000D02*
X132110000Y-121000000D01*
X128270000Y-121920000D02*
X132110000Y-121920000D01*
X128270000Y-120080000D02*
X128270000Y-121920000D01*
X132110000Y-120080000D02*
X128270000Y-120080000D01*
X132110000Y-121920000D02*
X132110000Y-120080000D01*
X96680000Y-151720000D02*
X92680000Y-151720000D01*
X96680000Y-153620000D02*
X96680000Y-151720000D01*
X110920000Y-153620000D02*
X96680000Y-153620000D01*
X110920000Y-145180000D02*
X110920000Y-153620000D01*
X96680000Y-145180000D02*
X110920000Y-145180000D01*
X96680000Y-145480000D02*
X96680000Y-145180000D01*
X92680000Y-145480000D02*
X96680000Y-145480000D01*
X92680000Y-151720000D02*
X92680000Y-145480000D01*
X123330000Y-79830000D02*
X122000000Y-79830000D01*
X123330000Y-78500000D02*
X123330000Y-79830000D01*
X123330000Y-77230000D02*
X120670000Y-77230000D01*
X120670000Y-77230000D02*
X120670000Y-74630000D01*
X123330000Y-77230000D02*
X123330000Y-74630000D01*
X123330000Y-74630000D02*
X120670000Y-74630000D01*
X116670000Y-74670000D02*
X118000000Y-74670000D01*
X116670000Y-76000000D02*
X116670000Y-74670000D01*
X116670000Y-77270000D02*
X119330000Y-77270000D01*
X119330000Y-77270000D02*
X119330000Y-79870000D01*
X116670000Y-77270000D02*
X116670000Y-79870000D01*
X116670000Y-79870000D02*
X119330000Y-79870000D01*
X108170000Y-73830000D02*
X108170000Y-72500000D01*
X109500000Y-73830000D02*
X108170000Y-73830000D01*
X110770000Y-73830000D02*
X110770000Y-71170000D01*
X110770000Y-71170000D02*
X113370000Y-71170000D01*
X110770000Y-73830000D02*
X113370000Y-73830000D01*
X113370000Y-73830000D02*
X113370000Y-71170000D01*
X114330000Y-103330000D02*
X113000000Y-103330000D01*
X114330000Y-102000000D02*
X114330000Y-103330000D01*
X114330000Y-100730000D02*
X111670000Y-100730000D01*
X111670000Y-100730000D02*
X111670000Y-98130000D01*
X114330000Y-100730000D02*
X114330000Y-98130000D01*
X114330000Y-98130000D02*
X111670000Y-98130000D01*
X108170000Y-66330000D02*
X108170000Y-65000000D01*
X109500000Y-66330000D02*
X108170000Y-66330000D01*
X110770000Y-66330000D02*
X110770000Y-63670000D01*
X110770000Y-63670000D02*
X113370000Y-63670000D01*
X110770000Y-66330000D02*
X113370000Y-66330000D01*
X113370000Y-66330000D02*
X113370000Y-63670000D01*
X96680000Y-120720000D02*
X92680000Y-120720000D01*
X96680000Y-122620000D02*
X96680000Y-120720000D01*
X110920000Y-122620000D02*
X96680000Y-122620000D01*
X110920000Y-114180000D02*
X110920000Y-122620000D01*
X96680000Y-114180000D02*
X110920000Y-114180000D01*
X96680000Y-114480000D02*
X96680000Y-114180000D01*
X92680000Y-114480000D02*
X96680000Y-114480000D01*
X92680000Y-120720000D02*
X92680000Y-114480000D01*
X96680000Y-136220000D02*
X92680000Y-136220000D01*
X96680000Y-138120000D02*
X96680000Y-136220000D01*
X110920000Y-138120000D02*
X96680000Y-138120000D01*
X110920000Y-129680000D02*
X110920000Y-138120000D01*
X96680000Y-129680000D02*
X110920000Y-129680000D01*
X96680000Y-129980000D02*
X96680000Y-129680000D01*
X92680000Y-129980000D02*
X96680000Y-129980000D01*
X92680000Y-136220000D02*
X92680000Y-129980000D01*
X124970000Y-85345000D02*
X121030000Y-85345000D01*
X124970000Y-85585000D02*
X121030000Y-85585000D01*
X124970000Y-85465000D02*
X121030000Y-85465000D01*
X121030000Y-93150000D02*
X121360000Y-93150000D01*
X121030000Y-84010000D02*
X121030000Y-93150000D01*
X121360000Y-84010000D02*
X121030000Y-84010000D01*
X124970000Y-93150000D02*
X124640000Y-93150000D01*
X124970000Y-84010000D02*
X124970000Y-93150000D01*
X124640000Y-84010000D02*
X124970000Y-84010000D01*
X129380000Y-92945000D02*
X129380000Y-92630000D01*
X129380000Y-95370000D02*
X129380000Y-95055000D01*
X134620000Y-92945000D02*
X134620000Y-92630000D01*
X134620000Y-95370000D02*
X134620000Y-95055000D01*
X134620000Y-92630000D02*
X129380000Y-92630000D01*
X134620000Y-95370000D02*
X129380000Y-95370000D01*
X116380000Y-114945000D02*
X116380000Y-114630000D01*
X116380000Y-117370000D02*
X116380000Y-117055000D01*
X121620000Y-114945000D02*
X121620000Y-114630000D01*
X121620000Y-117370000D02*
X121620000Y-117055000D01*
X121620000Y-114630000D02*
X116380000Y-114630000D01*
X121620000Y-117370000D02*
X116380000Y-117370000D01*
X127380000Y-129445000D02*
X127380000Y-129130000D01*
X127380000Y-131870000D02*
X127380000Y-131555000D01*
X132620000Y-129445000D02*
X132620000Y-129130000D01*
X132620000Y-131870000D02*
X132620000Y-131555000D01*
X132620000Y-129130000D02*
X127380000Y-129130000D01*
X132620000Y-131870000D02*
X127380000Y-131870000D01*
X132620000Y-128555000D02*
X132620000Y-128870000D01*
X132620000Y-126130000D02*
X132620000Y-126445000D01*
X127380000Y-128555000D02*
X127380000Y-128870000D01*
X127380000Y-126130000D02*
X127380000Y-126445000D01*
X127380000Y-128870000D02*
X132620000Y-128870000D01*
X127380000Y-126130000D02*
X132620000Y-126130000D01*
X109945000Y-111120000D02*
X109630000Y-111120000D01*
X112370000Y-111120000D02*
X112055000Y-111120000D01*
X109945000Y-105880000D02*
X109630000Y-105880000D01*
X112370000Y-105880000D02*
X112055000Y-105880000D01*
X109630000Y-105880000D02*
X109630000Y-111120000D01*
X112370000Y-105880000D02*
X112370000Y-111120000D01*
X118275000Y-72304775D02*
X118775000Y-72304775D01*
X118525000Y-72554775D02*
X118525000Y-72054775D01*
X119716000Y-67149000D02*
X120284000Y-67149000D01*
X119482000Y-67189000D02*
X120518000Y-67189000D01*
X119323000Y-67229000D02*
X120677000Y-67229000D01*
X119195000Y-67269000D02*
X120805000Y-67269000D01*
X119085000Y-67309000D02*
X120915000Y-67309000D01*
X118989000Y-67349000D02*
X121011000Y-67349000D01*
X118902000Y-67389000D02*
X121098000Y-67389000D01*
X118822000Y-67429000D02*
X121178000Y-67429000D01*
X121040000Y-67469000D02*
X121251000Y-67469000D01*
X118749000Y-67469000D02*
X118960000Y-67469000D01*
X121040000Y-67509000D02*
X121319000Y-67509000D01*
X118681000Y-67509000D02*
X118960000Y-67509000D01*
X121040000Y-67549000D02*
X121383000Y-67549000D01*
X118617000Y-67549000D02*
X118960000Y-67549000D01*
X121040000Y-67589000D02*
X121443000Y-67589000D01*
X118557000Y-67589000D02*
X118960000Y-67589000D01*
X121040000Y-67629000D02*
X121500000Y-67629000D01*
X118500000Y-67629000D02*
X118960000Y-67629000D01*
X121040000Y-67669000D02*
X121554000Y-67669000D01*
X118446000Y-67669000D02*
X118960000Y-67669000D01*
X121040000Y-67709000D02*
X121605000Y-67709000D01*
X118395000Y-67709000D02*
X118960000Y-67709000D01*
X121040000Y-67749000D02*
X121653000Y-67749000D01*
X118347000Y-67749000D02*
X118960000Y-67749000D01*
X121040000Y-67789000D02*
X121699000Y-67789000D01*
X118301000Y-67789000D02*
X118960000Y-67789000D01*
X121040000Y-67829000D02*
X121743000Y-67829000D01*
X118257000Y-67829000D02*
X118960000Y-67829000D01*
X121040000Y-67869000D02*
X121785000Y-67869000D01*
X118215000Y-67869000D02*
X118960000Y-67869000D01*
X121040000Y-67909000D02*
X121826000Y-67909000D01*
X118174000Y-67909000D02*
X118960000Y-67909000D01*
X121040000Y-67949000D02*
X121864000Y-67949000D01*
X118136000Y-67949000D02*
X118960000Y-67949000D01*
X121040000Y-67989000D02*
X121901000Y-67989000D01*
X118099000Y-67989000D02*
X118960000Y-67989000D01*
X121040000Y-68029000D02*
X121937000Y-68029000D01*
X118063000Y-68029000D02*
X118960000Y-68029000D01*
X121040000Y-68069000D02*
X121971000Y-68069000D01*
X118029000Y-68069000D02*
X118960000Y-68069000D01*
X121040000Y-68109000D02*
X122004000Y-68109000D01*
X117996000Y-68109000D02*
X118960000Y-68109000D01*
X121040000Y-68149000D02*
X122035000Y-68149000D01*
X117965000Y-68149000D02*
X118960000Y-68149000D01*
X121040000Y-68189000D02*
X122065000Y-68189000D01*
X117935000Y-68189000D02*
X118960000Y-68189000D01*
X121040000Y-68229000D02*
X122095000Y-68229000D01*
X117905000Y-68229000D02*
X118960000Y-68229000D01*
X121040000Y-68269000D02*
X122122000Y-68269000D01*
X117878000Y-68269000D02*
X118960000Y-68269000D01*
X121040000Y-68309000D02*
X122149000Y-68309000D01*
X117851000Y-68309000D02*
X118960000Y-68309000D01*
X121040000Y-68349000D02*
X122175000Y-68349000D01*
X117825000Y-68349000D02*
X118960000Y-68349000D01*
X121040000Y-68389000D02*
X122200000Y-68389000D01*
X117800000Y-68389000D02*
X118960000Y-68389000D01*
X121040000Y-68429000D02*
X122224000Y-68429000D01*
X117776000Y-68429000D02*
X118960000Y-68429000D01*
X121040000Y-68469000D02*
X122247000Y-68469000D01*
X117753000Y-68469000D02*
X118960000Y-68469000D01*
X121040000Y-68509000D02*
X122268000Y-68509000D01*
X117732000Y-68509000D02*
X118960000Y-68509000D01*
X121040000Y-68549000D02*
X122290000Y-68549000D01*
X117710000Y-68549000D02*
X118960000Y-68549000D01*
X121040000Y-68589000D02*
X122310000Y-68589000D01*
X117690000Y-68589000D02*
X118960000Y-68589000D01*
X121040000Y-68629000D02*
X122329000Y-68629000D01*
X117671000Y-68629000D02*
X118960000Y-68629000D01*
X121040000Y-68669000D02*
X122348000Y-68669000D01*
X117652000Y-68669000D02*
X118960000Y-68669000D01*
X121040000Y-68709000D02*
X122365000Y-68709000D01*
X117635000Y-68709000D02*
X118960000Y-68709000D01*
X121040000Y-68749000D02*
X122382000Y-68749000D01*
X117618000Y-68749000D02*
X118960000Y-68749000D01*
X121040000Y-68789000D02*
X122398000Y-68789000D01*
X117602000Y-68789000D02*
X118960000Y-68789000D01*
X121040000Y-68829000D02*
X122414000Y-68829000D01*
X117586000Y-68829000D02*
X118960000Y-68829000D01*
X121040000Y-68869000D02*
X122428000Y-68869000D01*
X117572000Y-68869000D02*
X118960000Y-68869000D01*
X121040000Y-68909000D02*
X122442000Y-68909000D01*
X117558000Y-68909000D02*
X118960000Y-68909000D01*
X121040000Y-68949000D02*
X122455000Y-68949000D01*
X117545000Y-68949000D02*
X118960000Y-68949000D01*
X121040000Y-68989000D02*
X122468000Y-68989000D01*
X117532000Y-68989000D02*
X118960000Y-68989000D01*
X121040000Y-69029000D02*
X122480000Y-69029000D01*
X117520000Y-69029000D02*
X118960000Y-69029000D01*
X121040000Y-69070000D02*
X122491000Y-69070000D01*
X117509000Y-69070000D02*
X118960000Y-69070000D01*
X121040000Y-69110000D02*
X122501000Y-69110000D01*
X117499000Y-69110000D02*
X118960000Y-69110000D01*
X121040000Y-69150000D02*
X122511000Y-69150000D01*
X117489000Y-69150000D02*
X118960000Y-69150000D01*
X121040000Y-69190000D02*
X122520000Y-69190000D01*
X117480000Y-69190000D02*
X118960000Y-69190000D01*
X121040000Y-69230000D02*
X122528000Y-69230000D01*
X117472000Y-69230000D02*
X118960000Y-69230000D01*
X121040000Y-69270000D02*
X122536000Y-69270000D01*
X117464000Y-69270000D02*
X118960000Y-69270000D01*
X121040000Y-69310000D02*
X122543000Y-69310000D01*
X117457000Y-69310000D02*
X118960000Y-69310000D01*
X121040000Y-69350000D02*
X122550000Y-69350000D01*
X117450000Y-69350000D02*
X118960000Y-69350000D01*
X121040000Y-69390000D02*
X122556000Y-69390000D01*
X117444000Y-69390000D02*
X118960000Y-69390000D01*
X121040000Y-69430000D02*
X122561000Y-69430000D01*
X117439000Y-69430000D02*
X118960000Y-69430000D01*
X121040000Y-69470000D02*
X122565000Y-69470000D01*
X117435000Y-69470000D02*
X118960000Y-69470000D01*
X121040000Y-69510000D02*
X122569000Y-69510000D01*
X117431000Y-69510000D02*
X118960000Y-69510000D01*
X117427000Y-69550000D02*
X122573000Y-69550000D01*
X117424000Y-69590000D02*
X122576000Y-69590000D01*
X117422000Y-69630000D02*
X122578000Y-69630000D01*
X117421000Y-69670000D02*
X122579000Y-69670000D01*
X117420000Y-69710000D02*
X122580000Y-69710000D01*
X117420000Y-69750000D02*
X122580000Y-69750000D01*
X122620000Y-69750000D02*
G75*
G03X122620000Y-69750000I-2620000J0D01*
G01*
X118275000Y-64304775D02*
X118775000Y-64304775D01*
X118525000Y-64554775D02*
X118525000Y-64054775D01*
X119716000Y-59149000D02*
X120284000Y-59149000D01*
X119482000Y-59189000D02*
X120518000Y-59189000D01*
X119323000Y-59229000D02*
X120677000Y-59229000D01*
X119195000Y-59269000D02*
X120805000Y-59269000D01*
X119085000Y-59309000D02*
X120915000Y-59309000D01*
X118989000Y-59349000D02*
X121011000Y-59349000D01*
X118902000Y-59389000D02*
X121098000Y-59389000D01*
X118822000Y-59429000D02*
X121178000Y-59429000D01*
X121040000Y-59469000D02*
X121251000Y-59469000D01*
X118749000Y-59469000D02*
X118960000Y-59469000D01*
X121040000Y-59509000D02*
X121319000Y-59509000D01*
X118681000Y-59509000D02*
X118960000Y-59509000D01*
X121040000Y-59549000D02*
X121383000Y-59549000D01*
X118617000Y-59549000D02*
X118960000Y-59549000D01*
X121040000Y-59589000D02*
X121443000Y-59589000D01*
X118557000Y-59589000D02*
X118960000Y-59589000D01*
X121040000Y-59629000D02*
X121500000Y-59629000D01*
X118500000Y-59629000D02*
X118960000Y-59629000D01*
X121040000Y-59669000D02*
X121554000Y-59669000D01*
X118446000Y-59669000D02*
X118960000Y-59669000D01*
X121040000Y-59709000D02*
X121605000Y-59709000D01*
X118395000Y-59709000D02*
X118960000Y-59709000D01*
X121040000Y-59749000D02*
X121653000Y-59749000D01*
X118347000Y-59749000D02*
X118960000Y-59749000D01*
X121040000Y-59789000D02*
X121699000Y-59789000D01*
X118301000Y-59789000D02*
X118960000Y-59789000D01*
X121040000Y-59829000D02*
X121743000Y-59829000D01*
X118257000Y-59829000D02*
X118960000Y-59829000D01*
X121040000Y-59869000D02*
X121785000Y-59869000D01*
X118215000Y-59869000D02*
X118960000Y-59869000D01*
X121040000Y-59909000D02*
X121826000Y-59909000D01*
X118174000Y-59909000D02*
X118960000Y-59909000D01*
X121040000Y-59949000D02*
X121864000Y-59949000D01*
X118136000Y-59949000D02*
X118960000Y-59949000D01*
X121040000Y-59989000D02*
X121901000Y-59989000D01*
X118099000Y-59989000D02*
X118960000Y-59989000D01*
X121040000Y-60029000D02*
X121937000Y-60029000D01*
X118063000Y-60029000D02*
X118960000Y-60029000D01*
X121040000Y-60069000D02*
X121971000Y-60069000D01*
X118029000Y-60069000D02*
X118960000Y-60069000D01*
X121040000Y-60109000D02*
X122004000Y-60109000D01*
X117996000Y-60109000D02*
X118960000Y-60109000D01*
X121040000Y-60149000D02*
X122035000Y-60149000D01*
X117965000Y-60149000D02*
X118960000Y-60149000D01*
X121040000Y-60189000D02*
X122065000Y-60189000D01*
X117935000Y-60189000D02*
X118960000Y-60189000D01*
X121040000Y-60229000D02*
X122095000Y-60229000D01*
X117905000Y-60229000D02*
X118960000Y-60229000D01*
X121040000Y-60269000D02*
X122122000Y-60269000D01*
X117878000Y-60269000D02*
X118960000Y-60269000D01*
X121040000Y-60309000D02*
X122149000Y-60309000D01*
X117851000Y-60309000D02*
X118960000Y-60309000D01*
X121040000Y-60349000D02*
X122175000Y-60349000D01*
X117825000Y-60349000D02*
X118960000Y-60349000D01*
X121040000Y-60389000D02*
X122200000Y-60389000D01*
X117800000Y-60389000D02*
X118960000Y-60389000D01*
X121040000Y-60429000D02*
X122224000Y-60429000D01*
X117776000Y-60429000D02*
X118960000Y-60429000D01*
X121040000Y-60469000D02*
X122247000Y-60469000D01*
X117753000Y-60469000D02*
X118960000Y-60469000D01*
X121040000Y-60509000D02*
X122268000Y-60509000D01*
X117732000Y-60509000D02*
X118960000Y-60509000D01*
X121040000Y-60549000D02*
X122290000Y-60549000D01*
X117710000Y-60549000D02*
X118960000Y-60549000D01*
X121040000Y-60589000D02*
X122310000Y-60589000D01*
X117690000Y-60589000D02*
X118960000Y-60589000D01*
X121040000Y-60629000D02*
X122329000Y-60629000D01*
X117671000Y-60629000D02*
X118960000Y-60629000D01*
X121040000Y-60669000D02*
X122348000Y-60669000D01*
X117652000Y-60669000D02*
X118960000Y-60669000D01*
X121040000Y-60709000D02*
X122365000Y-60709000D01*
X117635000Y-60709000D02*
X118960000Y-60709000D01*
X121040000Y-60749000D02*
X122382000Y-60749000D01*
X117618000Y-60749000D02*
X118960000Y-60749000D01*
X121040000Y-60789000D02*
X122398000Y-60789000D01*
X117602000Y-60789000D02*
X118960000Y-60789000D01*
X121040000Y-60829000D02*
X122414000Y-60829000D01*
X117586000Y-60829000D02*
X118960000Y-60829000D01*
X121040000Y-60869000D02*
X122428000Y-60869000D01*
X117572000Y-60869000D02*
X118960000Y-60869000D01*
X121040000Y-60909000D02*
X122442000Y-60909000D01*
X117558000Y-60909000D02*
X118960000Y-60909000D01*
X121040000Y-60949000D02*
X122455000Y-60949000D01*
X117545000Y-60949000D02*
X118960000Y-60949000D01*
X121040000Y-60989000D02*
X122468000Y-60989000D01*
X117532000Y-60989000D02*
X118960000Y-60989000D01*
X121040000Y-61029000D02*
X122480000Y-61029000D01*
X117520000Y-61029000D02*
X118960000Y-61029000D01*
X121040000Y-61070000D02*
X122491000Y-61070000D01*
X117509000Y-61070000D02*
X118960000Y-61070000D01*
X121040000Y-61110000D02*
X122501000Y-61110000D01*
X117499000Y-61110000D02*
X118960000Y-61110000D01*
X121040000Y-61150000D02*
X122511000Y-61150000D01*
X117489000Y-61150000D02*
X118960000Y-61150000D01*
X121040000Y-61190000D02*
X122520000Y-61190000D01*
X117480000Y-61190000D02*
X118960000Y-61190000D01*
X121040000Y-61230000D02*
X122528000Y-61230000D01*
X117472000Y-61230000D02*
X118960000Y-61230000D01*
X121040000Y-61270000D02*
X122536000Y-61270000D01*
X117464000Y-61270000D02*
X118960000Y-61270000D01*
X121040000Y-61310000D02*
X122543000Y-61310000D01*
X117457000Y-61310000D02*
X118960000Y-61310000D01*
X121040000Y-61350000D02*
X122550000Y-61350000D01*
X117450000Y-61350000D02*
X118960000Y-61350000D01*
X121040000Y-61390000D02*
X122556000Y-61390000D01*
X117444000Y-61390000D02*
X118960000Y-61390000D01*
X121040000Y-61430000D02*
X122561000Y-61430000D01*
X117439000Y-61430000D02*
X118960000Y-61430000D01*
X121040000Y-61470000D02*
X122565000Y-61470000D01*
X117435000Y-61470000D02*
X118960000Y-61470000D01*
X121040000Y-61510000D02*
X122569000Y-61510000D01*
X117431000Y-61510000D02*
X118960000Y-61510000D01*
X117427000Y-61550000D02*
X122573000Y-61550000D01*
X117424000Y-61590000D02*
X122576000Y-61590000D01*
X117422000Y-61630000D02*
X122578000Y-61630000D01*
X117421000Y-61670000D02*
X122579000Y-61670000D01*
X117420000Y-61710000D02*
X122580000Y-61710000D01*
X117420000Y-61750000D02*
X122580000Y-61750000D01*
X122620000Y-61750000D02*
G75*
G03X122620000Y-61750000I-2620000J0D01*
G01*
X129380000Y-85945000D02*
X129380000Y-85630000D01*
X129380000Y-88370000D02*
X129380000Y-88055000D01*
X134620000Y-85945000D02*
X134620000Y-85630000D01*
X134620000Y-88370000D02*
X134620000Y-88055000D01*
X134620000Y-85630000D02*
X129380000Y-85630000D01*
X134620000Y-88370000D02*
X129380000Y-88370000D01*
D11*
X108928571Y-75452380D02*
X108928571Y-76166666D01*
X108880952Y-76309523D01*
X108785714Y-76404761D01*
X108642857Y-76452380D01*
X108547619Y-76452380D01*
X109166666Y-76547619D02*
X109928571Y-76547619D01*
X110023809Y-75452380D02*
X110357142Y-76452380D01*
X110690476Y-75452380D01*
X111595238Y-76357142D02*
X111547619Y-76404761D01*
X111404761Y-76452380D01*
X111309523Y-76452380D01*
X111166666Y-76404761D01*
X111071428Y-76309523D01*
X111023809Y-76214285D01*
X110976190Y-76023809D01*
X110976190Y-75880952D01*
X111023809Y-75690476D01*
X111071428Y-75595238D01*
X111166666Y-75500000D01*
X111309523Y-75452380D01*
X111404761Y-75452380D01*
X111547619Y-75500000D01*
X111595238Y-75547619D01*
X112357142Y-75928571D02*
X112023809Y-75928571D01*
X112023809Y-76452380D02*
X112023809Y-75452380D01*
X112500000Y-75452380D01*
X113404761Y-76452380D02*
X112833333Y-76452380D01*
X113119047Y-76452380D02*
X113119047Y-75452380D01*
X113023809Y-75595238D01*
X112928571Y-75690476D01*
X112833333Y-75738095D01*
X135952380Y-58333333D02*
X136666666Y-58333333D01*
X136809523Y-58380952D01*
X136904761Y-58476190D01*
X136952380Y-58619047D01*
X136952380Y-58714285D01*
X135952380Y-57952380D02*
X135952380Y-57333333D01*
X136333333Y-57666666D01*
X136333333Y-57523809D01*
X136380952Y-57428571D01*
X136428571Y-57380952D01*
X136523809Y-57333333D01*
X136761904Y-57333333D01*
X136857142Y-57380952D01*
X136904761Y-57428571D01*
X136952380Y-57523809D01*
X136952380Y-57809523D01*
X136904761Y-57904761D01*
X136857142Y-57952380D01*
X125052380Y-127761904D02*
X125861904Y-127761904D01*
X125957142Y-127714285D01*
X126004761Y-127666666D01*
X126052380Y-127571428D01*
X126052380Y-127380952D01*
X126004761Y-127285714D01*
X125957142Y-127238095D01*
X125861904Y-127190476D01*
X125052380Y-127190476D01*
X125052380Y-126809523D02*
X125052380Y-126190476D01*
X125433333Y-126523809D01*
X125433333Y-126380952D01*
X125480952Y-126285714D01*
X125528571Y-126238095D01*
X125623809Y-126190476D01*
X125861904Y-126190476D01*
X125957142Y-126238095D01*
X126004761Y-126285714D01*
X126052380Y-126380952D01*
X126052380Y-126666666D01*
X126004761Y-126761904D01*
X125957142Y-126809523D01*
X112852380Y-145261904D02*
X113661904Y-145261904D01*
X113757142Y-145214285D01*
X113804761Y-145166666D01*
X113852380Y-145071428D01*
X113852380Y-144880952D01*
X113804761Y-144785714D01*
X113757142Y-144738095D01*
X113661904Y-144690476D01*
X112852380Y-144690476D01*
X112947619Y-144261904D02*
X112900000Y-144214285D01*
X112852380Y-144119047D01*
X112852380Y-143880952D01*
X112900000Y-143785714D01*
X112947619Y-143738095D01*
X113042857Y-143690476D01*
X113138095Y-143690476D01*
X113280952Y-143738095D01*
X113852380Y-144309523D01*
X113852380Y-143690476D01*
X129548095Y-117452380D02*
X129548095Y-118261904D01*
X129595714Y-118357142D01*
X129643333Y-118404761D01*
X129738571Y-118452380D01*
X129929047Y-118452380D01*
X130024285Y-118404761D01*
X130071904Y-118357142D01*
X130119523Y-118261904D01*
X130119523Y-117452380D01*
X131119523Y-118452380D02*
X130548095Y-118452380D01*
X130833809Y-118452380D02*
X130833809Y-117452380D01*
X130738571Y-117595238D01*
X130643333Y-117690476D01*
X130548095Y-117738095D01*
X105452380Y-81404761D02*
X104976190Y-81738095D01*
X105452380Y-81976190D02*
X104452380Y-81976190D01*
X104452380Y-81595238D01*
X104500000Y-81500000D01*
X104547619Y-81452380D01*
X104642857Y-81404761D01*
X104785714Y-81404761D01*
X104880952Y-81452380D01*
X104928571Y-81500000D01*
X104976190Y-81595238D01*
X104976190Y-81976190D01*
X104452380Y-81119047D02*
X105452380Y-80785714D01*
X104452380Y-80452380D01*
X105547619Y-80357142D02*
X105547619Y-79595238D01*
X105452380Y-78785714D02*
X104976190Y-79119047D01*
X105452380Y-79357142D02*
X104452380Y-79357142D01*
X104452380Y-78976190D01*
X104500000Y-78880952D01*
X104547619Y-78833333D01*
X104642857Y-78785714D01*
X104785714Y-78785714D01*
X104880952Y-78833333D01*
X104928571Y-78880952D01*
X104976190Y-78976190D01*
X104976190Y-79357142D01*
X104928571Y-78357142D02*
X104928571Y-78023809D01*
X105452380Y-77880952D02*
X105452380Y-78357142D01*
X104452380Y-78357142D01*
X104452380Y-77880952D01*
X105404761Y-77500000D02*
X105452380Y-77357142D01*
X105452380Y-77119047D01*
X105404761Y-77023809D01*
X105357142Y-76976190D01*
X105261904Y-76928571D01*
X105166666Y-76928571D01*
X105071428Y-76976190D01*
X105023809Y-77023809D01*
X104976190Y-77119047D01*
X104928571Y-77309523D01*
X104880952Y-77404761D01*
X104833333Y-77452380D01*
X104738095Y-77500000D01*
X104642857Y-77500000D01*
X104547619Y-77452380D01*
X104500000Y-77404761D01*
X104452380Y-77309523D01*
X104452380Y-77071428D01*
X104500000Y-76928571D01*
X105452380Y-75976190D02*
X105452380Y-76547619D01*
X105452380Y-76261904D02*
X104452380Y-76261904D01*
X104595238Y-76357142D01*
X104690476Y-76452380D01*
X104738095Y-76547619D01*
X105952380Y-89095238D02*
X105476190Y-89428571D01*
X105952380Y-89666666D02*
X104952380Y-89666666D01*
X104952380Y-89285714D01*
X105000000Y-89190476D01*
X105047619Y-89142857D01*
X105142857Y-89095238D01*
X105285714Y-89095238D01*
X105380952Y-89142857D01*
X105428571Y-89190476D01*
X105476190Y-89285714D01*
X105476190Y-89666666D01*
X104952380Y-88809523D02*
X105952380Y-88476190D01*
X104952380Y-88142857D01*
X105285714Y-87380952D02*
X105952380Y-87380952D01*
X104904761Y-87619047D02*
X105619047Y-87857142D01*
X105619047Y-87238095D01*
X105952380Y-94595238D02*
X105476190Y-94928571D01*
X105952380Y-95166666D02*
X104952380Y-95166666D01*
X104952380Y-94785714D01*
X105000000Y-94690476D01*
X105047619Y-94642857D01*
X105142857Y-94595238D01*
X105285714Y-94595238D01*
X105380952Y-94642857D01*
X105428571Y-94690476D01*
X105476190Y-94785714D01*
X105476190Y-95166666D01*
X104952380Y-94309523D02*
X105952380Y-93976190D01*
X104952380Y-93642857D01*
X104952380Y-93404761D02*
X104952380Y-92785714D01*
X105333333Y-93119047D01*
X105333333Y-92976190D01*
X105380952Y-92880952D01*
X105428571Y-92833333D01*
X105523809Y-92785714D01*
X105761904Y-92785714D01*
X105857142Y-92833333D01*
X105904761Y-92880952D01*
X105952380Y-92976190D01*
X105952380Y-93261904D01*
X105904761Y-93357142D01*
X105857142Y-93404761D01*
X99595238Y-105452380D02*
X99261904Y-104976190D01*
X99023809Y-105452380D02*
X99023809Y-104452380D01*
X99404761Y-104452380D01*
X99500000Y-104500000D01*
X99547619Y-104547619D01*
X99595238Y-104642857D01*
X99595238Y-104785714D01*
X99547619Y-104880952D01*
X99500000Y-104928571D01*
X99404761Y-104976190D01*
X99023809Y-104976190D01*
X99880952Y-104452380D02*
X100214285Y-105452380D01*
X100547619Y-104452380D01*
X100642857Y-105547619D02*
X101404761Y-105547619D01*
X102214285Y-105357142D02*
X102166666Y-105404761D01*
X102023809Y-105452380D01*
X101928571Y-105452380D01*
X101785714Y-105404761D01*
X101690476Y-105309523D01*
X101642857Y-105214285D01*
X101595238Y-105023809D01*
X101595238Y-104880952D01*
X101642857Y-104690476D01*
X101690476Y-104595238D01*
X101785714Y-104500000D01*
X101928571Y-104452380D01*
X102023809Y-104452380D01*
X102166666Y-104500000D01*
X102214285Y-104547619D01*
X102500000Y-104452380D02*
X102833333Y-105452380D01*
X103166666Y-104452380D01*
X104023809Y-105452380D02*
X103452380Y-105452380D01*
X103738095Y-105452380D02*
X103738095Y-104452380D01*
X103642857Y-104595238D01*
X103547619Y-104690476D01*
X103452380Y-104738095D01*
X105452380Y-62666666D02*
X104976190Y-63000000D01*
X105452380Y-63238095D02*
X104452380Y-63238095D01*
X104452380Y-62857142D01*
X104500000Y-62761904D01*
X104547619Y-62714285D01*
X104642857Y-62666666D01*
X104785714Y-62666666D01*
X104880952Y-62714285D01*
X104928571Y-62761904D01*
X104976190Y-62857142D01*
X104976190Y-63238095D01*
X104452380Y-62380952D02*
X105452380Y-62047619D01*
X104452380Y-61714285D01*
X105547619Y-61619047D02*
X105547619Y-60857142D01*
X104452380Y-60428571D02*
X104452380Y-60238095D01*
X104500000Y-60142857D01*
X104595238Y-60047619D01*
X104785714Y-60000000D01*
X105119047Y-60000000D01*
X105309523Y-60047619D01*
X105404761Y-60142857D01*
X105452380Y-60238095D01*
X105452380Y-60428571D01*
X105404761Y-60523809D01*
X105309523Y-60619047D01*
X105119047Y-60666666D01*
X104785714Y-60666666D01*
X104595238Y-60619047D01*
X104500000Y-60523809D01*
X104452380Y-60428571D01*
X104928571Y-59238095D02*
X104928571Y-59571428D01*
X105452380Y-59571428D02*
X104452380Y-59571428D01*
X104452380Y-59095238D01*
X104928571Y-58380952D02*
X104928571Y-58714285D01*
X105452380Y-58714285D02*
X104452380Y-58714285D01*
X104452380Y-58238095D01*
X105404761Y-57904761D02*
X105452380Y-57761904D01*
X105452380Y-57523809D01*
X105404761Y-57428571D01*
X105357142Y-57380952D01*
X105261904Y-57333333D01*
X105166666Y-57333333D01*
X105071428Y-57380952D01*
X105023809Y-57428571D01*
X104976190Y-57523809D01*
X104928571Y-57714285D01*
X104880952Y-57809523D01*
X104833333Y-57857142D01*
X104738095Y-57904761D01*
X104642857Y-57904761D01*
X104547619Y-57857142D01*
X104500000Y-57809523D01*
X104452380Y-57714285D01*
X104452380Y-57476190D01*
X104500000Y-57333333D01*
X104928571Y-56904761D02*
X104928571Y-56571428D01*
X105452380Y-56428571D02*
X105452380Y-56904761D01*
X104452380Y-56904761D01*
X104452380Y-56428571D01*
X104452380Y-56142857D02*
X104452380Y-55571428D01*
X105452380Y-55857142D02*
X104452380Y-55857142D01*
X105452380Y-54714285D02*
X105452380Y-55285714D01*
X105452380Y-55000000D02*
X104452380Y-55000000D01*
X104595238Y-55095238D01*
X104690476Y-55190476D01*
X104738095Y-55285714D01*
X119547142Y-98452380D02*
X119213809Y-97976190D01*
X118975714Y-98452380D02*
X118975714Y-97452380D01*
X119356666Y-97452380D01*
X119451904Y-97500000D01*
X119499523Y-97547619D01*
X119547142Y-97642857D01*
X119547142Y-97785714D01*
X119499523Y-97880952D01*
X119451904Y-97928571D01*
X119356666Y-97976190D01*
X118975714Y-97976190D01*
X120499523Y-98452380D02*
X119928095Y-98452380D01*
X120213809Y-98452380D02*
X120213809Y-97452380D01*
X120118571Y-97595238D01*
X120023333Y-97690476D01*
X119928095Y-97738095D01*
X121356666Y-97452380D02*
X121166190Y-97452380D01*
X121070952Y-97500000D01*
X121023333Y-97547619D01*
X120928095Y-97690476D01*
X120880476Y-97880952D01*
X120880476Y-98261904D01*
X120928095Y-98357142D01*
X120975714Y-98404761D01*
X121070952Y-98452380D01*
X121261428Y-98452380D01*
X121356666Y-98404761D01*
X121404285Y-98357142D01*
X121451904Y-98261904D01*
X121451904Y-98023809D01*
X121404285Y-97928571D01*
X121356666Y-97880952D01*
X121261428Y-97833333D01*
X121070952Y-97833333D01*
X120975714Y-97880952D01*
X120928095Y-97928571D01*
X120880476Y-98023809D01*
X113452380Y-119832857D02*
X112976190Y-120166190D01*
X113452380Y-120404285D02*
X112452380Y-120404285D01*
X112452380Y-120023333D01*
X112500000Y-119928095D01*
X112547619Y-119880476D01*
X112642857Y-119832857D01*
X112785714Y-119832857D01*
X112880952Y-119880476D01*
X112928571Y-119928095D01*
X112976190Y-120023333D01*
X112976190Y-120404285D01*
X113452380Y-118880476D02*
X113452380Y-119451904D01*
X113452380Y-119166190D02*
X112452380Y-119166190D01*
X112595238Y-119261428D01*
X112690476Y-119356666D01*
X112738095Y-119451904D01*
X112452380Y-117975714D02*
X112452380Y-118451904D01*
X112928571Y-118499523D01*
X112880952Y-118451904D01*
X112833333Y-118356666D01*
X112833333Y-118118571D01*
X112880952Y-118023333D01*
X112928571Y-117975714D01*
X113023809Y-117928095D01*
X113261904Y-117928095D01*
X113357142Y-117975714D01*
X113404761Y-118023333D01*
X113452380Y-118118571D01*
X113452380Y-118356666D01*
X113404761Y-118451904D01*
X113357142Y-118499523D01*
X119667142Y-113452380D02*
X119333809Y-112976190D01*
X119095714Y-113452380D02*
X119095714Y-112452380D01*
X119476666Y-112452380D01*
X119571904Y-112500000D01*
X119619523Y-112547619D01*
X119667142Y-112642857D01*
X119667142Y-112785714D01*
X119619523Y-112880952D01*
X119571904Y-112928571D01*
X119476666Y-112976190D01*
X119095714Y-112976190D01*
X120619523Y-113452380D02*
X120048095Y-113452380D01*
X120333809Y-113452380D02*
X120333809Y-112452380D01*
X120238571Y-112595238D01*
X120143333Y-112690476D01*
X120048095Y-112738095D01*
X121476666Y-112785714D02*
X121476666Y-113452380D01*
X121238571Y-112404761D02*
X121000476Y-113119047D01*
X121619523Y-113119047D01*
X119357142Y-108452380D02*
X119023809Y-107976190D01*
X118785714Y-108452380D02*
X118785714Y-107452380D01*
X119166666Y-107452380D01*
X119261904Y-107500000D01*
X119309523Y-107547619D01*
X119357142Y-107642857D01*
X119357142Y-107785714D01*
X119309523Y-107880952D01*
X119261904Y-107928571D01*
X119166666Y-107976190D01*
X118785714Y-107976190D01*
X120309523Y-108452380D02*
X119738095Y-108452380D01*
X120023809Y-108452380D02*
X120023809Y-107452380D01*
X119928571Y-107595238D01*
X119833333Y-107690476D01*
X119738095Y-107738095D01*
X120642857Y-107452380D02*
X121261904Y-107452380D01*
X120928571Y-107833333D01*
X121071428Y-107833333D01*
X121166666Y-107880952D01*
X121214285Y-107928571D01*
X121261904Y-108023809D01*
X121261904Y-108261904D01*
X121214285Y-108357142D01*
X121166666Y-108404761D01*
X121071428Y-108452380D01*
X120785714Y-108452380D01*
X120690476Y-108404761D01*
X120642857Y-108357142D01*
X119667142Y-110952380D02*
X119333809Y-110476190D01*
X119095714Y-110952380D02*
X119095714Y-109952380D01*
X119476666Y-109952380D01*
X119571904Y-110000000D01*
X119619523Y-110047619D01*
X119667142Y-110142857D01*
X119667142Y-110285714D01*
X119619523Y-110380952D01*
X119571904Y-110428571D01*
X119476666Y-110476190D01*
X119095714Y-110476190D01*
X120619523Y-110952380D02*
X120048095Y-110952380D01*
X120333809Y-110952380D02*
X120333809Y-109952380D01*
X120238571Y-110095238D01*
X120143333Y-110190476D01*
X120048095Y-110238095D01*
X121000476Y-110047619D02*
X121048095Y-110000000D01*
X121143333Y-109952380D01*
X121381428Y-109952380D01*
X121476666Y-110000000D01*
X121524285Y-110047619D01*
X121571904Y-110142857D01*
X121571904Y-110238095D01*
X121524285Y-110380952D01*
X120952857Y-110952380D01*
X121571904Y-110952380D01*
X119547142Y-100952380D02*
X119213809Y-100476190D01*
X118975714Y-100952380D02*
X118975714Y-99952380D01*
X119356666Y-99952380D01*
X119451904Y-100000000D01*
X119499523Y-100047619D01*
X119547142Y-100142857D01*
X119547142Y-100285714D01*
X119499523Y-100380952D01*
X119451904Y-100428571D01*
X119356666Y-100476190D01*
X118975714Y-100476190D01*
X120499523Y-100952380D02*
X119928095Y-100952380D01*
X120213809Y-100952380D02*
X120213809Y-99952380D01*
X120118571Y-100095238D01*
X120023333Y-100190476D01*
X119928095Y-100238095D01*
X121451904Y-100952380D02*
X120880476Y-100952380D01*
X121166190Y-100952380D02*
X121166190Y-99952380D01*
X121070952Y-100095238D01*
X120975714Y-100190476D01*
X120880476Y-100238095D01*
X127452380Y-90832857D02*
X126976190Y-91166190D01*
X127452380Y-91404285D02*
X126452380Y-91404285D01*
X126452380Y-91023333D01*
X126500000Y-90928095D01*
X126547619Y-90880476D01*
X126642857Y-90832857D01*
X126785714Y-90832857D01*
X126880952Y-90880476D01*
X126928571Y-90928095D01*
X126976190Y-91023333D01*
X126976190Y-91404285D01*
X127452380Y-89880476D02*
X127452380Y-90451904D01*
X127452380Y-90166190D02*
X126452380Y-90166190D01*
X126595238Y-90261428D01*
X126690476Y-90356666D01*
X126738095Y-90451904D01*
X126452380Y-89261428D02*
X126452380Y-89166190D01*
X126500000Y-89070952D01*
X126547619Y-89023333D01*
X126642857Y-88975714D01*
X126833333Y-88928095D01*
X127071428Y-88928095D01*
X127261904Y-88975714D01*
X127357142Y-89023333D01*
X127404761Y-89070952D01*
X127452380Y-89166190D01*
X127452380Y-89261428D01*
X127404761Y-89356666D01*
X127357142Y-89404285D01*
X127261904Y-89451904D01*
X127071428Y-89499523D01*
X126833333Y-89499523D01*
X126642857Y-89451904D01*
X126547619Y-89404285D01*
X126500000Y-89356666D01*
X126452380Y-89261428D01*
X130143333Y-97952380D02*
X129810000Y-97476190D01*
X129571904Y-97952380D02*
X129571904Y-96952380D01*
X129952857Y-96952380D01*
X130048095Y-97000000D01*
X130095714Y-97047619D01*
X130143333Y-97142857D01*
X130143333Y-97285714D01*
X130095714Y-97380952D01*
X130048095Y-97428571D01*
X129952857Y-97476190D01*
X129571904Y-97476190D01*
X130619523Y-97952380D02*
X130810000Y-97952380D01*
X130905238Y-97904761D01*
X130952857Y-97857142D01*
X131048095Y-97714285D01*
X131095714Y-97523809D01*
X131095714Y-97142857D01*
X131048095Y-97047619D01*
X131000476Y-97000000D01*
X130905238Y-96952380D01*
X130714761Y-96952380D01*
X130619523Y-97000000D01*
X130571904Y-97047619D01*
X130524285Y-97142857D01*
X130524285Y-97380952D01*
X130571904Y-97476190D01*
X130619523Y-97523809D01*
X130714761Y-97571428D01*
X130905238Y-97571428D01*
X131000476Y-97523809D01*
X131048095Y-97476190D01*
X131095714Y-97380952D01*
X120023333Y-105952380D02*
X119690000Y-105476190D01*
X119451904Y-105952380D02*
X119451904Y-104952380D01*
X119832857Y-104952380D01*
X119928095Y-105000000D01*
X119975714Y-105047619D01*
X120023333Y-105142857D01*
X120023333Y-105285714D01*
X119975714Y-105380952D01*
X119928095Y-105428571D01*
X119832857Y-105476190D01*
X119451904Y-105476190D01*
X120594761Y-105380952D02*
X120499523Y-105333333D01*
X120451904Y-105285714D01*
X120404285Y-105190476D01*
X120404285Y-105142857D01*
X120451904Y-105047619D01*
X120499523Y-105000000D01*
X120594761Y-104952380D01*
X120785238Y-104952380D01*
X120880476Y-105000000D01*
X120928095Y-105047619D01*
X120975714Y-105142857D01*
X120975714Y-105190476D01*
X120928095Y-105285714D01*
X120880476Y-105333333D01*
X120785238Y-105380952D01*
X120594761Y-105380952D01*
X120499523Y-105428571D01*
X120451904Y-105476190D01*
X120404285Y-105571428D01*
X120404285Y-105761904D01*
X120451904Y-105857142D01*
X120499523Y-105904761D01*
X120594761Y-105952380D01*
X120785238Y-105952380D01*
X120880476Y-105904761D01*
X120928095Y-105857142D01*
X120975714Y-105761904D01*
X120975714Y-105571428D01*
X120928095Y-105476190D01*
X120880476Y-105428571D01*
X120785238Y-105380952D01*
X130833333Y-81952380D02*
X130500000Y-81476190D01*
X130261904Y-81952380D02*
X130261904Y-80952380D01*
X130642857Y-80952380D01*
X130738095Y-81000000D01*
X130785714Y-81047619D01*
X130833333Y-81142857D01*
X130833333Y-81285714D01*
X130785714Y-81380952D01*
X130738095Y-81428571D01*
X130642857Y-81476190D01*
X130261904Y-81476190D01*
X131166666Y-80952380D02*
X131833333Y-80952380D01*
X131404761Y-81952380D01*
X130833333Y-78952380D02*
X130500000Y-78476190D01*
X130261904Y-78952380D02*
X130261904Y-77952380D01*
X130642857Y-77952380D01*
X130738095Y-78000000D01*
X130785714Y-78047619D01*
X130833333Y-78142857D01*
X130833333Y-78285714D01*
X130785714Y-78380952D01*
X130738095Y-78428571D01*
X130642857Y-78476190D01*
X130261904Y-78476190D01*
X131690476Y-77952380D02*
X131500000Y-77952380D01*
X131404761Y-78000000D01*
X131357142Y-78047619D01*
X131261904Y-78190476D01*
X131214285Y-78380952D01*
X131214285Y-78761904D01*
X131261904Y-78857142D01*
X131309523Y-78904761D01*
X131404761Y-78952380D01*
X131595238Y-78952380D01*
X131690476Y-78904761D01*
X131738095Y-78857142D01*
X131785714Y-78761904D01*
X131785714Y-78523809D01*
X131738095Y-78428571D01*
X131690476Y-78380952D01*
X131595238Y-78333333D01*
X131404761Y-78333333D01*
X131309523Y-78380952D01*
X131261904Y-78428571D01*
X131214285Y-78523809D01*
X120023333Y-103452380D02*
X119690000Y-102976190D01*
X119451904Y-103452380D02*
X119451904Y-102452380D01*
X119832857Y-102452380D01*
X119928095Y-102500000D01*
X119975714Y-102547619D01*
X120023333Y-102642857D01*
X120023333Y-102785714D01*
X119975714Y-102880952D01*
X119928095Y-102928571D01*
X119832857Y-102976190D01*
X119451904Y-102976190D01*
X120928095Y-102452380D02*
X120451904Y-102452380D01*
X120404285Y-102928571D01*
X120451904Y-102880952D01*
X120547142Y-102833333D01*
X120785238Y-102833333D01*
X120880476Y-102880952D01*
X120928095Y-102928571D01*
X120975714Y-103023809D01*
X120975714Y-103261904D01*
X120928095Y-103357142D01*
X120880476Y-103404761D01*
X120785238Y-103452380D01*
X120547142Y-103452380D01*
X120451904Y-103404761D01*
X120404285Y-103357142D01*
X114452380Y-109356666D02*
X113976190Y-109690000D01*
X114452380Y-109928095D02*
X113452380Y-109928095D01*
X113452380Y-109547142D01*
X113500000Y-109451904D01*
X113547619Y-109404285D01*
X113642857Y-109356666D01*
X113785714Y-109356666D01*
X113880952Y-109404285D01*
X113928571Y-109451904D01*
X113976190Y-109547142D01*
X113976190Y-109928095D01*
X113785714Y-108499523D02*
X114452380Y-108499523D01*
X113404761Y-108737619D02*
X114119047Y-108975714D01*
X114119047Y-108356666D01*
X130833333Y-84452380D02*
X130500000Y-83976190D01*
X130261904Y-84452380D02*
X130261904Y-83452380D01*
X130642857Y-83452380D01*
X130738095Y-83500000D01*
X130785714Y-83547619D01*
X130833333Y-83642857D01*
X130833333Y-83785714D01*
X130785714Y-83880952D01*
X130738095Y-83928571D01*
X130642857Y-83976190D01*
X130261904Y-83976190D01*
X131166666Y-83452380D02*
X131785714Y-83452380D01*
X131452380Y-83833333D01*
X131595238Y-83833333D01*
X131690476Y-83880952D01*
X131738095Y-83928571D01*
X131785714Y-84023809D01*
X131785714Y-84261904D01*
X131738095Y-84357142D01*
X131690476Y-84404761D01*
X131595238Y-84452380D01*
X131309523Y-84452380D01*
X131214285Y-84404761D01*
X131166666Y-84357142D01*
X100032380Y-69356666D02*
X99556190Y-69690000D01*
X100032380Y-69928095D02*
X99032380Y-69928095D01*
X99032380Y-69547142D01*
X99080000Y-69451904D01*
X99127619Y-69404285D01*
X99222857Y-69356666D01*
X99365714Y-69356666D01*
X99460952Y-69404285D01*
X99508571Y-69451904D01*
X99556190Y-69547142D01*
X99556190Y-69928095D01*
X99127619Y-68975714D02*
X99080000Y-68928095D01*
X99032380Y-68832857D01*
X99032380Y-68594761D01*
X99080000Y-68499523D01*
X99127619Y-68451904D01*
X99222857Y-68404285D01*
X99318095Y-68404285D01*
X99460952Y-68451904D01*
X100032380Y-69023333D01*
X100032380Y-68404285D01*
X130023333Y-121452380D02*
X129690000Y-120976190D01*
X129451904Y-121452380D02*
X129451904Y-120452380D01*
X129832857Y-120452380D01*
X129928095Y-120500000D01*
X129975714Y-120547619D01*
X130023333Y-120642857D01*
X130023333Y-120785714D01*
X129975714Y-120880952D01*
X129928095Y-120928571D01*
X129832857Y-120976190D01*
X129451904Y-120976190D01*
X130975714Y-121452380D02*
X130404285Y-121452380D01*
X130690000Y-121452380D02*
X130690000Y-120452380D01*
X130594761Y-120595238D01*
X130499523Y-120690476D01*
X130404285Y-120738095D01*
X99380952Y-143452380D02*
X99380952Y-144166666D01*
X99333333Y-144309523D01*
X99238095Y-144404761D01*
X99095238Y-144452380D01*
X99000000Y-144452380D01*
X99619047Y-144547619D02*
X100380952Y-144547619D01*
X100571428Y-144166666D02*
X101047619Y-144166666D01*
X100476190Y-144452380D02*
X100809523Y-143452380D01*
X101142857Y-144452380D01*
X101476190Y-143452380D02*
X101476190Y-144261904D01*
X101523809Y-144357142D01*
X101571428Y-144404761D01*
X101666666Y-144452380D01*
X101857142Y-144452380D01*
X101952380Y-144404761D01*
X102000000Y-144357142D01*
X102047619Y-144261904D01*
X102047619Y-143452380D01*
X102523809Y-144452380D02*
X102523809Y-143452380D01*
X102761904Y-143452380D01*
X102904761Y-143500000D01*
X103000000Y-143595238D01*
X103047619Y-143690476D01*
X103095238Y-143880952D01*
X103095238Y-144023809D01*
X103047619Y-144214285D01*
X103000000Y-144309523D01*
X102904761Y-144404761D01*
X102761904Y-144452380D01*
X102523809Y-144452380D01*
X103523809Y-144452380D02*
X103523809Y-143452380D01*
X104190476Y-143452380D02*
X104380952Y-143452380D01*
X104476190Y-143500000D01*
X104571428Y-143595238D01*
X104619047Y-143785714D01*
X104619047Y-144119047D01*
X104571428Y-144309523D01*
X104476190Y-144404761D01*
X104380952Y-144452380D01*
X104190476Y-144452380D01*
X104095238Y-144404761D01*
X104000000Y-144309523D01*
X103952380Y-144119047D01*
X103952380Y-143785714D01*
X104000000Y-143595238D01*
X104095238Y-143500000D01*
X104190476Y-143452380D01*
X104809523Y-144547619D02*
X105571428Y-144547619D01*
X106000000Y-143452380D02*
X106190476Y-143452380D01*
X106285714Y-143500000D01*
X106380952Y-143595238D01*
X106428571Y-143785714D01*
X106428571Y-144119047D01*
X106380952Y-144309523D01*
X106285714Y-144404761D01*
X106190476Y-144452380D01*
X106000000Y-144452380D01*
X105904761Y-144404761D01*
X105809523Y-144309523D01*
X105761904Y-144119047D01*
X105761904Y-143785714D01*
X105809523Y-143595238D01*
X105904761Y-143500000D01*
X106000000Y-143452380D01*
X106857142Y-143452380D02*
X106857142Y-144261904D01*
X106904761Y-144357142D01*
X106952380Y-144404761D01*
X107047619Y-144452380D01*
X107238095Y-144452380D01*
X107333333Y-144404761D01*
X107380952Y-144357142D01*
X107428571Y-144261904D01*
X107428571Y-143452380D01*
X107761904Y-143452380D02*
X108333333Y-143452380D01*
X108047619Y-144452380D02*
X108047619Y-143452380D01*
X108428571Y-144547619D02*
X109190476Y-144547619D01*
X109952380Y-144452380D02*
X109380952Y-144452380D01*
X109666666Y-144452380D02*
X109666666Y-143452380D01*
X109571428Y-143595238D01*
X109476190Y-143690476D01*
X109380952Y-143738095D01*
X123952380Y-78642857D02*
X124666666Y-78642857D01*
X124809523Y-78690476D01*
X124904761Y-78785714D01*
X124952380Y-78928571D01*
X124952380Y-79023809D01*
X125047619Y-78404761D02*
X125047619Y-77642857D01*
X124666666Y-77452380D02*
X124666666Y-76976190D01*
X124952380Y-77547619D02*
X123952380Y-77214285D01*
X124952380Y-76880952D01*
X124952380Y-76023809D02*
X124952380Y-76595238D01*
X124952380Y-76309523D02*
X123952380Y-76309523D01*
X124095238Y-76404761D01*
X124190476Y-76500000D01*
X124238095Y-76595238D01*
X114952380Y-78714285D02*
X115666666Y-78714285D01*
X115809523Y-78761904D01*
X115904761Y-78857142D01*
X115952380Y-79000000D01*
X115952380Y-79095238D01*
X116047619Y-78476190D02*
X116047619Y-77714285D01*
X115428571Y-77142857D02*
X115476190Y-77000000D01*
X115523809Y-76952380D01*
X115619047Y-76904761D01*
X115761904Y-76904761D01*
X115857142Y-76952380D01*
X115904761Y-77000000D01*
X115952380Y-77095238D01*
X115952380Y-77476190D01*
X114952380Y-77476190D01*
X114952380Y-77142857D01*
X115000000Y-77047619D01*
X115047619Y-77000000D01*
X115142857Y-76952380D01*
X115238095Y-76952380D01*
X115333333Y-77000000D01*
X115380952Y-77047619D01*
X115428571Y-77142857D01*
X115428571Y-77476190D01*
X115952380Y-75952380D02*
X115952380Y-76523809D01*
X115952380Y-76238095D02*
X114952380Y-76238095D01*
X115095238Y-76333333D01*
X115190476Y-76428571D01*
X115238095Y-76523809D01*
X108928571Y-68952380D02*
X108928571Y-69666666D01*
X108880952Y-69809523D01*
X108785714Y-69904761D01*
X108642857Y-69952380D01*
X108547619Y-69952380D01*
X109166666Y-70047619D02*
X109928571Y-70047619D01*
X110023809Y-68952380D02*
X110357142Y-69952380D01*
X110690476Y-68952380D01*
X111595238Y-69857142D02*
X111547619Y-69904761D01*
X111404761Y-69952380D01*
X111309523Y-69952380D01*
X111166666Y-69904761D01*
X111071428Y-69809523D01*
X111023809Y-69714285D01*
X110976190Y-69523809D01*
X110976190Y-69380952D01*
X111023809Y-69190476D01*
X111071428Y-69095238D01*
X111166666Y-69000000D01*
X111309523Y-68952380D01*
X111404761Y-68952380D01*
X111547619Y-69000000D01*
X111595238Y-69047619D01*
X111976190Y-69666666D02*
X112452380Y-69666666D01*
X111880952Y-69952380D02*
X112214285Y-68952380D01*
X112547619Y-69952380D01*
X112833333Y-69047619D02*
X112880952Y-69000000D01*
X112976190Y-68952380D01*
X113214285Y-68952380D01*
X113309523Y-69000000D01*
X113357142Y-69047619D01*
X113404761Y-69142857D01*
X113404761Y-69238095D01*
X113357142Y-69380952D01*
X112785714Y-69952380D01*
X113404761Y-69952380D01*
X109952380Y-103119047D02*
X110666666Y-103119047D01*
X110809523Y-103166666D01*
X110904761Y-103261904D01*
X110952380Y-103404761D01*
X110952380Y-103500000D01*
X111047619Y-102880952D02*
X111047619Y-102119047D01*
X110952380Y-101880952D02*
X109952380Y-101880952D01*
X109952380Y-101642857D01*
X110000000Y-101500000D01*
X110095238Y-101404761D01*
X110190476Y-101357142D01*
X110380952Y-101309523D01*
X110523809Y-101309523D01*
X110714285Y-101357142D01*
X110809523Y-101404761D01*
X110904761Y-101500000D01*
X110952380Y-101642857D01*
X110952380Y-101880952D01*
X110428571Y-100880952D02*
X110428571Y-100547619D01*
X110952380Y-100404761D02*
X110952380Y-100880952D01*
X109952380Y-100880952D01*
X109952380Y-100404761D01*
X110428571Y-99976190D02*
X110428571Y-99642857D01*
X110952380Y-99500000D02*
X110952380Y-99976190D01*
X109952380Y-99976190D01*
X109952380Y-99500000D01*
X110952380Y-99071428D02*
X109952380Y-99071428D01*
X109952380Y-98690476D01*
X110000000Y-98595238D01*
X110047619Y-98547619D01*
X110142857Y-98500000D01*
X110285714Y-98500000D01*
X110380952Y-98547619D01*
X110428571Y-98595238D01*
X110476190Y-98690476D01*
X110476190Y-99071428D01*
X110952380Y-97547619D02*
X110952380Y-98119047D01*
X110952380Y-97833333D02*
X109952380Y-97833333D01*
X110095238Y-97928571D01*
X110190476Y-98023809D01*
X110238095Y-98119047D01*
X108928571Y-61452380D02*
X108928571Y-62166666D01*
X108880952Y-62309523D01*
X108785714Y-62404761D01*
X108642857Y-62452380D01*
X108547619Y-62452380D01*
X109166666Y-62547619D02*
X109928571Y-62547619D01*
X110023809Y-61452380D02*
X110357142Y-62452380D01*
X110690476Y-61452380D01*
X111595238Y-62357142D02*
X111547619Y-62404761D01*
X111404761Y-62452380D01*
X111309523Y-62452380D01*
X111166666Y-62404761D01*
X111071428Y-62309523D01*
X111023809Y-62214285D01*
X110976190Y-62023809D01*
X110976190Y-61880952D01*
X111023809Y-61690476D01*
X111071428Y-61595238D01*
X111166666Y-61500000D01*
X111309523Y-61452380D01*
X111404761Y-61452380D01*
X111547619Y-61500000D01*
X111595238Y-61547619D01*
X111976190Y-62166666D02*
X112452380Y-62166666D01*
X111880952Y-62452380D02*
X112214285Y-61452380D01*
X112547619Y-62452380D01*
X113404761Y-62452380D02*
X112833333Y-62452380D01*
X113119047Y-62452380D02*
X113119047Y-61452380D01*
X113023809Y-61595238D01*
X112928571Y-61690476D01*
X112833333Y-61738095D01*
X100333333Y-112452380D02*
X100333333Y-113166666D01*
X100285714Y-113309523D01*
X100190476Y-113404761D01*
X100047619Y-113452380D01*
X99952380Y-113452380D01*
X100571428Y-113547619D02*
X101333333Y-113547619D01*
X102142857Y-113357142D02*
X102095238Y-113404761D01*
X101952380Y-113452380D01*
X101857142Y-113452380D01*
X101714285Y-113404761D01*
X101619047Y-113309523D01*
X101571428Y-113214285D01*
X101523809Y-113023809D01*
X101523809Y-112880952D01*
X101571428Y-112690476D01*
X101619047Y-112595238D01*
X101714285Y-112500000D01*
X101857142Y-112452380D01*
X101952380Y-112452380D01*
X102095238Y-112500000D01*
X102142857Y-112547619D01*
X102428571Y-112452380D02*
X102761904Y-113452380D01*
X103095238Y-112452380D01*
X103190476Y-113547619D02*
X103952380Y-113547619D01*
X104190476Y-113452380D02*
X104190476Y-112452380D01*
X104666666Y-113452380D02*
X104666666Y-112452380D01*
X105238095Y-113452380D01*
X105238095Y-112452380D01*
X105476190Y-113547619D02*
X106238095Y-113547619D01*
X107000000Y-113452380D02*
X106428571Y-113452380D01*
X106714285Y-113452380D02*
X106714285Y-112452380D01*
X106619047Y-112595238D01*
X106523809Y-112690476D01*
X106428571Y-112738095D01*
X99928571Y-127952380D02*
X99928571Y-128666666D01*
X99880952Y-128809523D01*
X99785714Y-128904761D01*
X99642857Y-128952380D01*
X99547619Y-128952380D01*
X100357142Y-128666666D02*
X100833333Y-128666666D01*
X100261904Y-128952380D02*
X100595238Y-127952380D01*
X100928571Y-128952380D01*
X101261904Y-127952380D02*
X101261904Y-128761904D01*
X101309523Y-128857142D01*
X101357142Y-128904761D01*
X101452380Y-128952380D01*
X101642857Y-128952380D01*
X101738095Y-128904761D01*
X101785714Y-128857142D01*
X101833333Y-128761904D01*
X101833333Y-127952380D01*
X102309523Y-128952380D02*
X102309523Y-127952380D01*
X102547619Y-127952380D01*
X102690476Y-128000000D01*
X102785714Y-128095238D01*
X102833333Y-128190476D01*
X102880952Y-128380952D01*
X102880952Y-128523809D01*
X102833333Y-128714285D01*
X102785714Y-128809523D01*
X102690476Y-128904761D01*
X102547619Y-128952380D01*
X102309523Y-128952380D01*
X103309523Y-128952380D02*
X103309523Y-127952380D01*
X103976190Y-127952380D02*
X104166666Y-127952380D01*
X104261904Y-128000000D01*
X104357142Y-128095238D01*
X104404761Y-128285714D01*
X104404761Y-128619047D01*
X104357142Y-128809523D01*
X104261904Y-128904761D01*
X104166666Y-128952380D01*
X103976190Y-128952380D01*
X103880952Y-128904761D01*
X103785714Y-128809523D01*
X103738095Y-128619047D01*
X103738095Y-128285714D01*
X103785714Y-128095238D01*
X103880952Y-128000000D01*
X103976190Y-127952380D01*
X104595238Y-129047619D02*
X105357142Y-129047619D01*
X105595238Y-128952380D02*
X105595238Y-127952380D01*
X106071428Y-128952380D02*
X106071428Y-127952380D01*
X106642857Y-128952380D01*
X106642857Y-127952380D01*
X106880952Y-129047619D02*
X107642857Y-129047619D01*
X108404761Y-128952380D02*
X107833333Y-128952380D01*
X108119047Y-128952380D02*
X108119047Y-127952380D01*
X108023809Y-128095238D01*
X107928571Y-128190476D01*
X107833333Y-128238095D01*
X123452380Y-89738095D02*
X122452380Y-89738095D01*
X122452380Y-89500000D01*
X122500000Y-89357142D01*
X122595238Y-89261904D01*
X122690476Y-89214285D01*
X122880952Y-89166666D01*
X123023809Y-89166666D01*
X123214285Y-89214285D01*
X123309523Y-89261904D01*
X123404761Y-89357142D01*
X123452380Y-89500000D01*
X123452380Y-89738095D01*
X123452380Y-88214285D02*
X123452380Y-88785714D01*
X123452380Y-88500000D02*
X122452380Y-88500000D01*
X122595238Y-88595238D01*
X122690476Y-88690476D01*
X122738095Y-88785714D01*
X120952380Y-83761904D02*
X119952380Y-83761904D01*
X120952380Y-83190476D02*
X120380952Y-83619047D01*
X119952380Y-83190476D02*
X120523809Y-83761904D01*
X131833333Y-94357142D02*
X131785714Y-94404761D01*
X131642857Y-94452380D01*
X131547619Y-94452380D01*
X131404761Y-94404761D01*
X131309523Y-94309523D01*
X131261904Y-94214285D01*
X131214285Y-94023809D01*
X131214285Y-93880952D01*
X131261904Y-93690476D01*
X131309523Y-93595238D01*
X131404761Y-93500000D01*
X131547619Y-93452380D01*
X131642857Y-93452380D01*
X131785714Y-93500000D01*
X131833333Y-93547619D01*
X132404761Y-93880952D02*
X132309523Y-93833333D01*
X132261904Y-93785714D01*
X132214285Y-93690476D01*
X132214285Y-93642857D01*
X132261904Y-93547619D01*
X132309523Y-93500000D01*
X132404761Y-93452380D01*
X132595238Y-93452380D01*
X132690476Y-93500000D01*
X132738095Y-93547619D01*
X132785714Y-93642857D01*
X132785714Y-93690476D01*
X132738095Y-93785714D01*
X132690476Y-93833333D01*
X132595238Y-93880952D01*
X132404761Y-93880952D01*
X132309523Y-93928571D01*
X132261904Y-93976190D01*
X132214285Y-94071428D01*
X132214285Y-94261904D01*
X132261904Y-94357142D01*
X132309523Y-94404761D01*
X132404761Y-94452380D01*
X132595238Y-94452380D01*
X132690476Y-94404761D01*
X132738095Y-94357142D01*
X132785714Y-94261904D01*
X132785714Y-94071428D01*
X132738095Y-93976190D01*
X132690476Y-93928571D01*
X132595238Y-93880952D01*
X118833333Y-116357142D02*
X118785714Y-116404761D01*
X118642857Y-116452380D01*
X118547619Y-116452380D01*
X118404761Y-116404761D01*
X118309523Y-116309523D01*
X118261904Y-116214285D01*
X118214285Y-116023809D01*
X118214285Y-115880952D01*
X118261904Y-115690476D01*
X118309523Y-115595238D01*
X118404761Y-115500000D01*
X118547619Y-115452380D01*
X118642857Y-115452380D01*
X118785714Y-115500000D01*
X118833333Y-115547619D01*
X119166666Y-115452380D02*
X119833333Y-115452380D01*
X119404761Y-116452380D01*
X129833333Y-130857142D02*
X129785714Y-130904761D01*
X129642857Y-130952380D01*
X129547619Y-130952380D01*
X129404761Y-130904761D01*
X129309523Y-130809523D01*
X129261904Y-130714285D01*
X129214285Y-130523809D01*
X129214285Y-130380952D01*
X129261904Y-130190476D01*
X129309523Y-130095238D01*
X129404761Y-130000000D01*
X129547619Y-129952380D01*
X129642857Y-129952380D01*
X129785714Y-130000000D01*
X129833333Y-130047619D01*
X130690476Y-129952380D02*
X130500000Y-129952380D01*
X130404761Y-130000000D01*
X130357142Y-130047619D01*
X130261904Y-130190476D01*
X130214285Y-130380952D01*
X130214285Y-130761904D01*
X130261904Y-130857142D01*
X130309523Y-130904761D01*
X130404761Y-130952380D01*
X130595238Y-130952380D01*
X130690476Y-130904761D01*
X130738095Y-130857142D01*
X130785714Y-130761904D01*
X130785714Y-130523809D01*
X130738095Y-130428571D01*
X130690476Y-130380952D01*
X130595238Y-130333333D01*
X130404761Y-130333333D01*
X130309523Y-130380952D01*
X130261904Y-130428571D01*
X130214285Y-130523809D01*
X129833333Y-127857142D02*
X129785714Y-127904761D01*
X129642857Y-127952380D01*
X129547619Y-127952380D01*
X129404761Y-127904761D01*
X129309523Y-127809523D01*
X129261904Y-127714285D01*
X129214285Y-127523809D01*
X129214285Y-127380952D01*
X129261904Y-127190476D01*
X129309523Y-127095238D01*
X129404761Y-127000000D01*
X129547619Y-126952380D01*
X129642857Y-126952380D01*
X129785714Y-127000000D01*
X129833333Y-127047619D01*
X130738095Y-126952380D02*
X130261904Y-126952380D01*
X130214285Y-127428571D01*
X130261904Y-127380952D01*
X130357142Y-127333333D01*
X130595238Y-127333333D01*
X130690476Y-127380952D01*
X130738095Y-127428571D01*
X130785714Y-127523809D01*
X130785714Y-127761904D01*
X130738095Y-127857142D01*
X130690476Y-127904761D01*
X130595238Y-127952380D01*
X130357142Y-127952380D01*
X130261904Y-127904761D01*
X130214285Y-127857142D01*
X111357142Y-108666666D02*
X111404761Y-108714285D01*
X111452380Y-108857142D01*
X111452380Y-108952380D01*
X111404761Y-109095238D01*
X111309523Y-109190476D01*
X111214285Y-109238095D01*
X111023809Y-109285714D01*
X110880952Y-109285714D01*
X110690476Y-109238095D01*
X110595238Y-109190476D01*
X110500000Y-109095238D01*
X110452380Y-108952380D01*
X110452380Y-108857142D01*
X110500000Y-108714285D01*
X110547619Y-108666666D01*
X110785714Y-107809523D02*
X111452380Y-107809523D01*
X110404761Y-108047619D02*
X111119047Y-108285714D01*
X111119047Y-107666666D01*
X116607142Y-69916666D02*
X116654761Y-69964285D01*
X116702380Y-70107142D01*
X116702380Y-70202380D01*
X116654761Y-70345238D01*
X116559523Y-70440476D01*
X116464285Y-70488095D01*
X116273809Y-70535714D01*
X116130952Y-70535714D01*
X115940476Y-70488095D01*
X115845238Y-70440476D01*
X115750000Y-70345238D01*
X115702380Y-70202380D01*
X115702380Y-70107142D01*
X115750000Y-69964285D01*
X115797619Y-69916666D01*
X115702380Y-69583333D02*
X115702380Y-68964285D01*
X116083333Y-69297619D01*
X116083333Y-69154761D01*
X116130952Y-69059523D01*
X116178571Y-69011904D01*
X116273809Y-68964285D01*
X116511904Y-68964285D01*
X116607142Y-69011904D01*
X116654761Y-69059523D01*
X116702380Y-69154761D01*
X116702380Y-69440476D01*
X116654761Y-69535714D01*
X116607142Y-69583333D01*
X116607142Y-61916666D02*
X116654761Y-61964285D01*
X116702380Y-62107142D01*
X116702380Y-62202380D01*
X116654761Y-62345238D01*
X116559523Y-62440476D01*
X116464285Y-62488095D01*
X116273809Y-62535714D01*
X116130952Y-62535714D01*
X115940476Y-62488095D01*
X115845238Y-62440476D01*
X115750000Y-62345238D01*
X115702380Y-62202380D01*
X115702380Y-62107142D01*
X115750000Y-61964285D01*
X115797619Y-61916666D01*
X115797619Y-61535714D02*
X115750000Y-61488095D01*
X115702380Y-61392857D01*
X115702380Y-61154761D01*
X115750000Y-61059523D01*
X115797619Y-61011904D01*
X115892857Y-60964285D01*
X115988095Y-60964285D01*
X116130952Y-61011904D01*
X116702380Y-61583333D01*
X116702380Y-60964285D01*
X131833333Y-87357142D02*
X131785714Y-87404761D01*
X131642857Y-87452380D01*
X131547619Y-87452380D01*
X131404761Y-87404761D01*
X131309523Y-87309523D01*
X131261904Y-87214285D01*
X131214285Y-87023809D01*
X131214285Y-86880952D01*
X131261904Y-86690476D01*
X131309523Y-86595238D01*
X131404761Y-86500000D01*
X131547619Y-86452380D01*
X131642857Y-86452380D01*
X131785714Y-86500000D01*
X131833333Y-86547619D01*
X132785714Y-87452380D02*
X132214285Y-87452380D01*
X132500000Y-87452380D02*
X132500000Y-86452380D01*
X132404761Y-86595238D01*
X132309523Y-86690476D01*
X132214285Y-86738095D01*
M02*
