G04 #@! TF.GenerationSoftware,KiCad,Pcbnew,5.1.4*
G04 #@! TF.CreationDate,2019-10-24T19:13:33+02:00*
G04 #@! TF.ProjectId,lpg,6c70672e-6b69-4636-9164-5f7063625858,rev?*
G04 #@! TF.SameCoordinates,Original*
G04 #@! TF.FileFunction,Copper,L2,Bot*
G04 #@! TF.FilePolarity,Positive*
%FSLAX46Y46*%
G04 Gerber Fmt 4.6, Leading zero omitted, Abs format (unit mm)*
G04 Created by KiCad (PCBNEW 5.1.4) date 2019-10-24 19:13:33*
%MOMM*%
%LPD*%
G04 APERTURE LIST*
%ADD10O,1.700000X1.700000*%
%ADD11R,1.700000X1.700000*%
%ADD12C,1.700000*%
%ADD13C,1.150000*%
%ADD14C,0.100000*%
%ADD15O,1.600000X1.600000*%
%ADD16R,1.600000X1.600000*%
%ADD17C,1.800000*%
%ADD18C,1.440000*%
%ADD19O,1.400000X1.400000*%
%ADD20C,1.400000*%
%ADD21O,1.800000X2.800000*%
%ADD22O,2.800000X2.800000*%
%ADD23R,2.800000X2.800000*%
%ADD24C,1.600000*%
%ADD25C,0.800000*%
%ADD26C,0.250000*%
%ADD27C,0.500000*%
%ADD28C,0.254000*%
G04 APERTURE END LIST*
D10*
X109460000Y-79000000D03*
D11*
X112000000Y-79000000D03*
D12*
X132040000Y-71160000D03*
X129500000Y-71160000D03*
X132040000Y-68620000D03*
X129500000Y-68620000D03*
X132040000Y-66080000D03*
X129500000Y-66080000D03*
X132040000Y-63540000D03*
X129500000Y-63540000D03*
X132040000Y-61000000D03*
D11*
X129500000Y-61000000D03*
D13*
X117700000Y-119500000D03*
X117060000Y-134500000D03*
X122140000Y-134500000D03*
D14*
G36*
X121815680Y-118926384D02*
G01*
X121843588Y-118930524D01*
X121870957Y-118937380D01*
X121897521Y-118946885D01*
X121923027Y-118958948D01*
X121947226Y-118973452D01*
X121969888Y-118990259D01*
X121990793Y-119009207D01*
X122009741Y-119030112D01*
X122026548Y-119052774D01*
X122041052Y-119076973D01*
X122053115Y-119102479D01*
X122062620Y-119129043D01*
X122069476Y-119156412D01*
X122073616Y-119184320D01*
X122075000Y-119212500D01*
X122075000Y-119787500D01*
X122073616Y-119815680D01*
X122069476Y-119843588D01*
X122062620Y-119870957D01*
X122053115Y-119897521D01*
X122041052Y-119923027D01*
X122026548Y-119947226D01*
X122009741Y-119969888D01*
X121990793Y-119990793D01*
X121969888Y-120009741D01*
X121947226Y-120026548D01*
X121923027Y-120041052D01*
X121897521Y-120053115D01*
X121870957Y-120062620D01*
X121843588Y-120069476D01*
X121815680Y-120073616D01*
X121787500Y-120075000D01*
X121212500Y-120075000D01*
X121184320Y-120073616D01*
X121156412Y-120069476D01*
X121129043Y-120062620D01*
X121102479Y-120053115D01*
X121076973Y-120041052D01*
X121052774Y-120026548D01*
X121030112Y-120009741D01*
X121009207Y-119990793D01*
X120990259Y-119969888D01*
X120973452Y-119947226D01*
X120958948Y-119923027D01*
X120946885Y-119897521D01*
X120937380Y-119870957D01*
X120930524Y-119843588D01*
X120926384Y-119815680D01*
X120925000Y-119787500D01*
X120925000Y-119212500D01*
X120926384Y-119184320D01*
X120930524Y-119156412D01*
X120937380Y-119129043D01*
X120946885Y-119102479D01*
X120958948Y-119076973D01*
X120973452Y-119052774D01*
X120990259Y-119030112D01*
X121009207Y-119009207D01*
X121030112Y-118990259D01*
X121052774Y-118973452D01*
X121076973Y-118958948D01*
X121102479Y-118946885D01*
X121129043Y-118937380D01*
X121156412Y-118930524D01*
X121184320Y-118926384D01*
X121212500Y-118925000D01*
X121787500Y-118925000D01*
X121815680Y-118926384D01*
X121815680Y-118926384D01*
G37*
D13*
X121500000Y-119500000D03*
X121300000Y-152000000D03*
X121940000Y-137000000D03*
X116860000Y-137000000D03*
D14*
G36*
X117815680Y-151426384D02*
G01*
X117843588Y-151430524D01*
X117870957Y-151437380D01*
X117897521Y-151446885D01*
X117923027Y-151458948D01*
X117947226Y-151473452D01*
X117969888Y-151490259D01*
X117990793Y-151509207D01*
X118009741Y-151530112D01*
X118026548Y-151552774D01*
X118041052Y-151576973D01*
X118053115Y-151602479D01*
X118062620Y-151629043D01*
X118069476Y-151656412D01*
X118073616Y-151684320D01*
X118075000Y-151712500D01*
X118075000Y-152287500D01*
X118073616Y-152315680D01*
X118069476Y-152343588D01*
X118062620Y-152370957D01*
X118053115Y-152397521D01*
X118041052Y-152423027D01*
X118026548Y-152447226D01*
X118009741Y-152469888D01*
X117990793Y-152490793D01*
X117969888Y-152509741D01*
X117947226Y-152526548D01*
X117923027Y-152541052D01*
X117897521Y-152553115D01*
X117870957Y-152562620D01*
X117843588Y-152569476D01*
X117815680Y-152573616D01*
X117787500Y-152575000D01*
X117212500Y-152575000D01*
X117184320Y-152573616D01*
X117156412Y-152569476D01*
X117129043Y-152562620D01*
X117102479Y-152553115D01*
X117076973Y-152541052D01*
X117052774Y-152526548D01*
X117030112Y-152509741D01*
X117009207Y-152490793D01*
X116990259Y-152469888D01*
X116973452Y-152447226D01*
X116958948Y-152423027D01*
X116946885Y-152397521D01*
X116937380Y-152370957D01*
X116930524Y-152343588D01*
X116926384Y-152315680D01*
X116925000Y-152287500D01*
X116925000Y-151712500D01*
X116926384Y-151684320D01*
X116930524Y-151656412D01*
X116937380Y-151629043D01*
X116946885Y-151602479D01*
X116958948Y-151576973D01*
X116973452Y-151552774D01*
X116990259Y-151530112D01*
X117009207Y-151509207D01*
X117030112Y-151490259D01*
X117052774Y-151473452D01*
X117076973Y-151458948D01*
X117102479Y-151446885D01*
X117129043Y-151437380D01*
X117156412Y-151430524D01*
X117184320Y-151426384D01*
X117212500Y-151425000D01*
X117787500Y-151425000D01*
X117815680Y-151426384D01*
X117815680Y-151426384D01*
G37*
D13*
X117500000Y-152000000D03*
D15*
X134120000Y-100500000D03*
X126500000Y-115740000D03*
X134120000Y-103040000D03*
X126500000Y-113200000D03*
X134120000Y-105580000D03*
X126500000Y-110660000D03*
X134120000Y-108120000D03*
X126500000Y-108120000D03*
X134120000Y-110660000D03*
X126500000Y-105580000D03*
X134120000Y-113200000D03*
X126500000Y-103040000D03*
X134120000Y-115740000D03*
D16*
X126500000Y-100500000D03*
D17*
X101500000Y-76500000D03*
X101500000Y-79000000D03*
X101500000Y-81500000D03*
D18*
X108920000Y-94000000D03*
X111460000Y-94000000D03*
X114000000Y-94000000D03*
X114080000Y-88500000D03*
X111540000Y-88500000D03*
X109000000Y-88500000D03*
D17*
X101500000Y-96500000D03*
X101500000Y-99000000D03*
X101500000Y-101500000D03*
X101500000Y-56500000D03*
X101500000Y-59000000D03*
X101500000Y-61500000D03*
D19*
X116380000Y-98000000D03*
D20*
X124000000Y-98000000D03*
D19*
X113000000Y-115380000D03*
D20*
X113000000Y-123000000D03*
D19*
X124120000Y-113000000D03*
D20*
X116500000Y-113000000D03*
D19*
X116380000Y-108000000D03*
D20*
X124000000Y-108000000D03*
D19*
X124120000Y-110500000D03*
D20*
X116500000Y-110500000D03*
D19*
X116380000Y-100500000D03*
D20*
X124000000Y-100500000D03*
D19*
X127000000Y-86380000D03*
D20*
X127000000Y-94000000D03*
D19*
X134120000Y-97500000D03*
D20*
X126500000Y-97500000D03*
D19*
X116380000Y-105500000D03*
D20*
X124000000Y-105500000D03*
D19*
X134620000Y-81500000D03*
D20*
X127000000Y-81500000D03*
D19*
X126880000Y-78500000D03*
D20*
X134500000Y-78500000D03*
D19*
X116380000Y-103000000D03*
D20*
X124000000Y-103000000D03*
D19*
X114000000Y-105380000D03*
D20*
X114000000Y-113000000D03*
D19*
X126880000Y-84000000D03*
D20*
X134500000Y-84000000D03*
D19*
X101500000Y-65380000D03*
D20*
X101500000Y-73000000D03*
D19*
X126380000Y-121000000D03*
D20*
X134000000Y-121000000D03*
D21*
X105900000Y-147500000D03*
X100400000Y-147500000D03*
X98000000Y-149500000D03*
D10*
X122000000Y-75960000D03*
D11*
X122000000Y-78500000D03*
D10*
X118000000Y-78540000D03*
D11*
X118000000Y-76000000D03*
D10*
X112040000Y-72500000D03*
D11*
X109500000Y-72500000D03*
D10*
X113000000Y-99460000D03*
D11*
X113000000Y-102000000D03*
D10*
X112040000Y-65000000D03*
D11*
X109500000Y-65000000D03*
D21*
X105900000Y-116500000D03*
X100400000Y-116500000D03*
X98000000Y-118500000D03*
X105900000Y-132000000D03*
X100400000Y-132000000D03*
X98000000Y-134000000D03*
D22*
X123000000Y-93660000D03*
D23*
X123000000Y-83500000D03*
D24*
X129500000Y-94000000D03*
X134500000Y-94000000D03*
X116500000Y-116000000D03*
X121500000Y-116000000D03*
X127500000Y-130500000D03*
X132500000Y-130500000D03*
X132500000Y-127500000D03*
X127500000Y-127500000D03*
X111000000Y-111000000D03*
X111000000Y-106000000D03*
X120000000Y-68500000D03*
D16*
X120000000Y-71000000D03*
D24*
X120000000Y-60500000D03*
D16*
X120000000Y-63000000D03*
D24*
X129500000Y-87000000D03*
X134500000Y-87000000D03*
D25*
X119500000Y-101000000D03*
X130000000Y-90500000D03*
X112500000Y-108500000D03*
X118500000Y-89500000D03*
D26*
X107175001Y-126374999D02*
X101550000Y-132000000D01*
X128625001Y-126374999D02*
X107175001Y-126374999D01*
X101550000Y-132000000D02*
X100400000Y-132000000D01*
X134000000Y-121000000D02*
X128625001Y-126374999D01*
X132000000Y-119000000D02*
X133300001Y-120300001D01*
X132000000Y-89500000D02*
X132000000Y-119000000D01*
X133300001Y-120300001D02*
X134000000Y-121000000D01*
X129500000Y-87000000D02*
X132000000Y-89500000D01*
X134500000Y-87000000D02*
X134500000Y-84000000D01*
D27*
X132040000Y-61000000D02*
X129500000Y-61000000D01*
X129000000Y-60500000D02*
X129500000Y-61000000D01*
X120000000Y-60500000D02*
X129000000Y-60500000D01*
X135770001Y-64730001D02*
X135020000Y-63980000D01*
X135770001Y-106469999D02*
X135770001Y-64730001D01*
X134120000Y-108120000D02*
X135770001Y-106469999D01*
X132040000Y-61000000D02*
X135020000Y-63980000D01*
X132040000Y-71160000D02*
X129500000Y-71160000D01*
X120160000Y-71160000D02*
X120000000Y-71000000D01*
X129500000Y-71160000D02*
X120160000Y-71160000D01*
X118749999Y-69749999D02*
X120000000Y-71000000D01*
X118749999Y-62785997D02*
X118749999Y-69749999D01*
X112464002Y-56500000D02*
X118749999Y-62785997D01*
X101500000Y-56500000D02*
X112464002Y-56500000D01*
X127299999Y-107320001D02*
X126500000Y-108120000D01*
X128120003Y-106500000D02*
X127299999Y-107320001D01*
X128150001Y-106000000D02*
X128120003Y-106500000D01*
X129500000Y-71160000D02*
X128150001Y-72509999D01*
X128150001Y-72509999D02*
X128150001Y-106000000D01*
D26*
X113000000Y-113000000D02*
X114000000Y-113000000D01*
X111000000Y-111000000D02*
X113000000Y-113000000D01*
X124040000Y-103040000D02*
X124000000Y-103000000D01*
X126500000Y-103040000D02*
X124040000Y-103040000D01*
X109000000Y-88500000D02*
X111540000Y-88500000D01*
X114000000Y-90960000D02*
X114000000Y-94000000D01*
X111540000Y-88500000D02*
X114000000Y-90960000D01*
X109000000Y-80500000D02*
X109000000Y-88500000D01*
X101500000Y-73000000D02*
X109000000Y-80500000D01*
X111000000Y-97000000D02*
X114000000Y-94000000D01*
X111000000Y-106000000D02*
X111000000Y-97000000D01*
X116860000Y-134700000D02*
X117060000Y-134500000D01*
X116860000Y-137000000D02*
X116860000Y-134700000D01*
X121060000Y-130500000D02*
X127500000Y-130500000D01*
X117060000Y-134500000D02*
X121060000Y-130500000D01*
X127500000Y-127500000D02*
X127500000Y-130500000D01*
X115045001Y-102539999D02*
X112500000Y-105085000D01*
X115045001Y-91368591D02*
X115045001Y-102539999D01*
X112585001Y-88908591D02*
X115045001Y-91368591D01*
X109460000Y-79000000D02*
X112585001Y-82125001D01*
X112585001Y-82125001D02*
X112585001Y-88908591D01*
X112500000Y-105085000D02*
X112500000Y-108500000D01*
X112500000Y-108500000D02*
X112500000Y-108500000D01*
X124280000Y-110660000D02*
X124120000Y-110500000D01*
X126500000Y-110660000D02*
X124280000Y-110660000D01*
X124000000Y-110380000D02*
X124120000Y-110500000D01*
X124000000Y-108000000D02*
X124000000Y-110380000D01*
X123420001Y-111199999D02*
X124120000Y-110500000D01*
X122299999Y-112320001D02*
X123420001Y-111199999D01*
X122299999Y-115200001D02*
X122299999Y-112320001D01*
X121500000Y-116000000D02*
X122299999Y-115200001D01*
X134500000Y-95131370D02*
X134500000Y-94000000D01*
X135145001Y-95776371D02*
X134500000Y-95131370D01*
X135145001Y-99474999D02*
X135145001Y-95776371D01*
X134120000Y-100500000D02*
X135145001Y-99474999D01*
X126660000Y-93660000D02*
X127000000Y-94000000D01*
X123000000Y-93660000D02*
X126660000Y-93660000D01*
X127000000Y-97000000D02*
X126500000Y-97500000D01*
X127000000Y-94000000D02*
X127000000Y-97000000D01*
X102399999Y-59899999D02*
X101500000Y-59000000D01*
X102725001Y-64154999D02*
X102725001Y-60225001D01*
X102725001Y-60225001D02*
X102399999Y-59899999D01*
X101500000Y-65380000D02*
X102725001Y-64154999D01*
X116380000Y-103000000D02*
X114000000Y-105380000D01*
X134919999Y-116539999D02*
X134120000Y-115740000D01*
X135025001Y-116645001D02*
X134919999Y-116539999D01*
X127665002Y-137000000D02*
X135025001Y-129640001D01*
X135025001Y-129640001D02*
X135025001Y-116645001D01*
X121940000Y-137000000D02*
X127665002Y-137000000D01*
X126420000Y-105500000D02*
X126500000Y-105580000D01*
X124000000Y-105500000D02*
X126420000Y-105500000D01*
X124320000Y-113200000D02*
X124120000Y-113000000D01*
X126500000Y-113200000D02*
X124320000Y-113200000D01*
X121150001Y-75110001D02*
X122000000Y-75960000D01*
X120864999Y-74824999D02*
X121150001Y-75110001D01*
X115075001Y-74824999D02*
X120864999Y-74824999D01*
X112000000Y-77900000D02*
X115075001Y-74824999D01*
X112000000Y-79000000D02*
X112000000Y-77900000D01*
X118000000Y-89000000D02*
X118500000Y-89500000D01*
X118000000Y-78540000D02*
X118000000Y-89000000D01*
X114120000Y-115380000D02*
X116500000Y-113000000D01*
X113000000Y-115380000D02*
X114120000Y-115380000D01*
X117199999Y-113699999D02*
X116500000Y-113000000D01*
X120625001Y-117125001D02*
X117199999Y-113699999D01*
X125114999Y-117125001D02*
X120625001Y-117125001D01*
X126500000Y-115740000D02*
X125114999Y-117125001D01*
X117525001Y-111974999D02*
X117199999Y-112300001D01*
X117199999Y-112300001D02*
X116500000Y-113000000D01*
X117525001Y-97675001D02*
X117525001Y-111974999D01*
X116824999Y-96974999D02*
X117525001Y-97675001D01*
X116824999Y-76075001D02*
X116824999Y-96974999D01*
X116900000Y-76000000D02*
X116824999Y-76075001D01*
X118000000Y-76000000D02*
X116900000Y-76000000D01*
X125450000Y-100500000D02*
X124000000Y-100500000D01*
X126500000Y-100500000D02*
X125450000Y-100500000D01*
X112040000Y-66202081D02*
X112040000Y-65000000D01*
X117962920Y-72125001D02*
X112040000Y-66202081D01*
X119904003Y-72125001D02*
X117962920Y-72125001D01*
X123175001Y-75395999D02*
X119904003Y-72125001D01*
X123175001Y-76685052D02*
X123175001Y-75395999D01*
X127000000Y-80510051D02*
X123175001Y-76685052D01*
X127000000Y-81500000D02*
X127000000Y-80510051D01*
X102725001Y-101059999D02*
X102725001Y-87225001D01*
X116500000Y-110500000D02*
X112165002Y-110500000D01*
X112165002Y-110500000D02*
X102725001Y-101059999D01*
X102725001Y-87225001D02*
X99000000Y-83500000D01*
X111190001Y-71650001D02*
X112040000Y-72500000D01*
X110864999Y-71324999D02*
X111190001Y-71650001D01*
X99000000Y-73982998D02*
X101657999Y-71324999D01*
X101657999Y-71324999D02*
X110864999Y-71324999D01*
X99000000Y-83500000D02*
X99000000Y-73982998D01*
X100400000Y-116000000D02*
X100400000Y-116500000D01*
X99250000Y-114850000D02*
X100400000Y-116000000D01*
X99250000Y-98750000D02*
X99250000Y-114850000D01*
X101500000Y-96500000D02*
X99250000Y-98750000D01*
D28*
G36*
X137340000Y-153340000D02*
G01*
X97160000Y-153340000D01*
X97160000Y-151712500D01*
X116286928Y-151712500D01*
X116286928Y-152287500D01*
X116304713Y-152468070D01*
X116357383Y-152641701D01*
X116442915Y-152801720D01*
X116558022Y-152941978D01*
X116698280Y-153057085D01*
X116858299Y-153142617D01*
X117031930Y-153195287D01*
X117212500Y-153213072D01*
X117787500Y-153213072D01*
X117968070Y-153195287D01*
X118141701Y-153142617D01*
X118301720Y-153057085D01*
X118441978Y-152941978D01*
X118557085Y-152801720D01*
X118642617Y-152641701D01*
X118695287Y-152468070D01*
X118713072Y-152287500D01*
X118713072Y-151880825D01*
X120090000Y-151880825D01*
X120090000Y-152119175D01*
X120136499Y-152352944D01*
X120227712Y-152573150D01*
X120360131Y-152771330D01*
X120528670Y-152939869D01*
X120726850Y-153072288D01*
X120947056Y-153163501D01*
X121180825Y-153210000D01*
X121419175Y-153210000D01*
X121652944Y-153163501D01*
X121873150Y-153072288D01*
X122071330Y-152939869D01*
X122239869Y-152771330D01*
X122372288Y-152573150D01*
X122463501Y-152352944D01*
X122510000Y-152119175D01*
X122510000Y-151880825D01*
X122463501Y-151647056D01*
X122372288Y-151426850D01*
X122239869Y-151228670D01*
X122071330Y-151060131D01*
X121873150Y-150927712D01*
X121652944Y-150836499D01*
X121419175Y-150790000D01*
X121180825Y-150790000D01*
X120947056Y-150836499D01*
X120726850Y-150927712D01*
X120528670Y-151060131D01*
X120360131Y-151228670D01*
X120227712Y-151426850D01*
X120136499Y-151647056D01*
X120090000Y-151880825D01*
X118713072Y-151880825D01*
X118713072Y-151712500D01*
X118695287Y-151531930D01*
X118642617Y-151358299D01*
X118557085Y-151198280D01*
X118441978Y-151058022D01*
X118301720Y-150942915D01*
X118141701Y-150857383D01*
X117968070Y-150804713D01*
X117787500Y-150786928D01*
X117212500Y-150786928D01*
X117031930Y-150804713D01*
X116858299Y-150857383D01*
X116698280Y-150942915D01*
X116558022Y-151058022D01*
X116442915Y-151198280D01*
X116357383Y-151358299D01*
X116304713Y-151531930D01*
X116286928Y-151712500D01*
X97160000Y-151712500D01*
X97160000Y-151291528D01*
X97409740Y-151425017D01*
X97699088Y-151512790D01*
X98000000Y-151542427D01*
X98300913Y-151512790D01*
X98590261Y-151425017D01*
X98856927Y-151282481D01*
X99090661Y-151090661D01*
X99282481Y-150856927D01*
X99425017Y-150590261D01*
X99512790Y-150300913D01*
X99535000Y-150075408D01*
X99535000Y-149275855D01*
X99543074Y-149282481D01*
X99809740Y-149425017D01*
X100099088Y-149512790D01*
X100400000Y-149542427D01*
X100700913Y-149512790D01*
X100990261Y-149425017D01*
X101256927Y-149282481D01*
X101490661Y-149090661D01*
X101682481Y-148856927D01*
X101825017Y-148590261D01*
X101912790Y-148300913D01*
X101935000Y-148075408D01*
X101935000Y-147627000D01*
X104365000Y-147627000D01*
X104365000Y-148127000D01*
X104419271Y-148424023D01*
X104530446Y-148704751D01*
X104694252Y-148958396D01*
X104904394Y-149175210D01*
X105152796Y-149346862D01*
X105429913Y-149466755D01*
X105535260Y-149491036D01*
X105773000Y-149370378D01*
X105773000Y-147627000D01*
X106027000Y-147627000D01*
X106027000Y-149370378D01*
X106264740Y-149491036D01*
X106370087Y-149466755D01*
X106647204Y-149346862D01*
X106895606Y-149175210D01*
X107105748Y-148958396D01*
X107269554Y-148704751D01*
X107380729Y-148424023D01*
X107435000Y-148127000D01*
X107435000Y-147627000D01*
X106027000Y-147627000D01*
X105773000Y-147627000D01*
X104365000Y-147627000D01*
X101935000Y-147627000D01*
X101935000Y-146924592D01*
X101929919Y-146873000D01*
X104365000Y-146873000D01*
X104365000Y-147373000D01*
X105773000Y-147373000D01*
X105773000Y-145629622D01*
X106027000Y-145629622D01*
X106027000Y-147373000D01*
X107435000Y-147373000D01*
X107435000Y-146873000D01*
X107380729Y-146575977D01*
X107269554Y-146295249D01*
X107105748Y-146041604D01*
X106895606Y-145824790D01*
X106647204Y-145653138D01*
X106370087Y-145533245D01*
X106264740Y-145508964D01*
X106027000Y-145629622D01*
X105773000Y-145629622D01*
X105535260Y-145508964D01*
X105429913Y-145533245D01*
X105152796Y-145653138D01*
X104904394Y-145824790D01*
X104694252Y-146041604D01*
X104530446Y-146295249D01*
X104419271Y-146575977D01*
X104365000Y-146873000D01*
X101929919Y-146873000D01*
X101912790Y-146699087D01*
X101825017Y-146409739D01*
X101682481Y-146143073D01*
X101490661Y-145909339D01*
X101256926Y-145717519D01*
X100990260Y-145574983D01*
X100700912Y-145487210D01*
X100400000Y-145457573D01*
X100099087Y-145487210D01*
X99809739Y-145574983D01*
X99543073Y-145717519D01*
X99309339Y-145909339D01*
X99117519Y-146143074D01*
X98974983Y-146409740D01*
X98887210Y-146699088D01*
X98865000Y-146924593D01*
X98865000Y-147724145D01*
X98856926Y-147717519D01*
X98590260Y-147574983D01*
X98300912Y-147487210D01*
X98000000Y-147457573D01*
X97699087Y-147487210D01*
X97409739Y-147574983D01*
X97160000Y-147708471D01*
X97160000Y-135791528D01*
X97409740Y-135925017D01*
X97699088Y-136012790D01*
X98000000Y-136042427D01*
X98300913Y-136012790D01*
X98590261Y-135925017D01*
X98856927Y-135782481D01*
X99090661Y-135590661D01*
X99282481Y-135356927D01*
X99425017Y-135090261D01*
X99512790Y-134800913D01*
X99535000Y-134575408D01*
X99535000Y-133775855D01*
X99543074Y-133782481D01*
X99809740Y-133925017D01*
X100099088Y-134012790D01*
X100400000Y-134042427D01*
X100700913Y-134012790D01*
X100990261Y-133925017D01*
X101256927Y-133782481D01*
X101490661Y-133590661D01*
X101682481Y-133356927D01*
X101825017Y-133090261D01*
X101912790Y-132800913D01*
X101926625Y-132660444D01*
X101974276Y-132634974D01*
X102090001Y-132540001D01*
X102113804Y-132510997D01*
X102497801Y-132127000D01*
X104365000Y-132127000D01*
X104365000Y-132627000D01*
X104419271Y-132924023D01*
X104530446Y-133204751D01*
X104694252Y-133458396D01*
X104904394Y-133675210D01*
X105152796Y-133846862D01*
X105429913Y-133966755D01*
X105535260Y-133991036D01*
X105773000Y-133870378D01*
X105773000Y-132127000D01*
X106027000Y-132127000D01*
X106027000Y-133870378D01*
X106264740Y-133991036D01*
X106370087Y-133966755D01*
X106647204Y-133846862D01*
X106895606Y-133675210D01*
X107105748Y-133458396D01*
X107269554Y-133204751D01*
X107380729Y-132924023D01*
X107435000Y-132627000D01*
X107435000Y-132127000D01*
X106027000Y-132127000D01*
X105773000Y-132127000D01*
X104365000Y-132127000D01*
X102497801Y-132127000D01*
X103251801Y-131373000D01*
X104365000Y-131373000D01*
X104365000Y-131873000D01*
X105773000Y-131873000D01*
X105773000Y-130129622D01*
X106027000Y-130129622D01*
X106027000Y-131873000D01*
X107435000Y-131873000D01*
X107435000Y-131373000D01*
X107380729Y-131075977D01*
X107269554Y-130795249D01*
X107105748Y-130541604D01*
X106895606Y-130324790D01*
X106647204Y-130153138D01*
X106370087Y-130033245D01*
X106264740Y-130008964D01*
X106027000Y-130129622D01*
X105773000Y-130129622D01*
X105535260Y-130008964D01*
X105429913Y-130033245D01*
X105152796Y-130153138D01*
X104904394Y-130324790D01*
X104694252Y-130541604D01*
X104530446Y-130795249D01*
X104419271Y-131075977D01*
X104365000Y-131373000D01*
X103251801Y-131373000D01*
X107489803Y-127134999D01*
X126109491Y-127134999D01*
X126065000Y-127358665D01*
X126065000Y-127641335D01*
X126120147Y-127918574D01*
X126228320Y-128179727D01*
X126385363Y-128414759D01*
X126585241Y-128614637D01*
X126740000Y-128718044D01*
X126740001Y-129281956D01*
X126585241Y-129385363D01*
X126385363Y-129585241D01*
X126281957Y-129740000D01*
X121097322Y-129740000D01*
X121059999Y-129736324D01*
X121022676Y-129740000D01*
X121022667Y-129740000D01*
X120911014Y-129750997D01*
X120767753Y-129794454D01*
X120635724Y-129865026D01*
X120519999Y-129959999D01*
X120496201Y-129988997D01*
X117192540Y-133292658D01*
X117179175Y-133290000D01*
X116940825Y-133290000D01*
X116707056Y-133336499D01*
X116486850Y-133427712D01*
X116288670Y-133560131D01*
X116120131Y-133728670D01*
X115987712Y-133926850D01*
X115896499Y-134147056D01*
X115850000Y-134380825D01*
X115850000Y-134619175D01*
X115896499Y-134852944D01*
X115987712Y-135073150D01*
X116100001Y-135241203D01*
X116100000Y-136052560D01*
X116088670Y-136060131D01*
X115920131Y-136228670D01*
X115787712Y-136426850D01*
X115696499Y-136647056D01*
X115650000Y-136880825D01*
X115650000Y-137119175D01*
X115696499Y-137352944D01*
X115787712Y-137573150D01*
X115920131Y-137771330D01*
X116088670Y-137939869D01*
X116286850Y-138072288D01*
X116507056Y-138163501D01*
X116740825Y-138210000D01*
X116979175Y-138210000D01*
X117212944Y-138163501D01*
X117433150Y-138072288D01*
X117631330Y-137939869D01*
X117799869Y-137771330D01*
X117932288Y-137573150D01*
X118023501Y-137352944D01*
X118070000Y-137119175D01*
X118070000Y-136880825D01*
X118023501Y-136647056D01*
X117932288Y-136426850D01*
X117799869Y-136228670D01*
X117631330Y-136060131D01*
X117620000Y-136052561D01*
X117620000Y-135577735D01*
X117633150Y-135572288D01*
X117831330Y-135439869D01*
X117999869Y-135271330D01*
X118132288Y-135073150D01*
X118223501Y-134852944D01*
X118270000Y-134619175D01*
X118270000Y-134380825D01*
X120930000Y-134380825D01*
X120930000Y-134619175D01*
X120976499Y-134852944D01*
X121067712Y-135073150D01*
X121200131Y-135271330D01*
X121368670Y-135439869D01*
X121566850Y-135572288D01*
X121787056Y-135663501D01*
X122020825Y-135710000D01*
X122259175Y-135710000D01*
X122492944Y-135663501D01*
X122713150Y-135572288D01*
X122911330Y-135439869D01*
X123079869Y-135271330D01*
X123212288Y-135073150D01*
X123303501Y-134852944D01*
X123350000Y-134619175D01*
X123350000Y-134380825D01*
X123303501Y-134147056D01*
X123212288Y-133926850D01*
X123079869Y-133728670D01*
X122911330Y-133560131D01*
X122713150Y-133427712D01*
X122492944Y-133336499D01*
X122259175Y-133290000D01*
X122020825Y-133290000D01*
X121787056Y-133336499D01*
X121566850Y-133427712D01*
X121368670Y-133560131D01*
X121200131Y-133728670D01*
X121067712Y-133926850D01*
X120976499Y-134147056D01*
X120930000Y-134380825D01*
X118270000Y-134380825D01*
X118267342Y-134367460D01*
X121374802Y-131260000D01*
X126281957Y-131260000D01*
X126385363Y-131414759D01*
X126585241Y-131614637D01*
X126820273Y-131771680D01*
X127081426Y-131879853D01*
X127358665Y-131935000D01*
X127641335Y-131935000D01*
X127918574Y-131879853D01*
X128179727Y-131771680D01*
X128414759Y-131614637D01*
X128614637Y-131414759D01*
X128771680Y-131179727D01*
X128879853Y-130918574D01*
X128935000Y-130641335D01*
X128935000Y-130358665D01*
X128879853Y-130081426D01*
X128771680Y-129820273D01*
X128614637Y-129585241D01*
X128414759Y-129385363D01*
X128260000Y-129281957D01*
X128260000Y-128718043D01*
X128414759Y-128614637D01*
X128536694Y-128492702D01*
X131686903Y-128492702D01*
X131758486Y-128736671D01*
X132013996Y-128857571D01*
X132288184Y-128926300D01*
X132570512Y-128940217D01*
X132850130Y-128898787D01*
X133116292Y-128803603D01*
X133241514Y-128736671D01*
X133313097Y-128492702D01*
X132500000Y-127679605D01*
X131686903Y-128492702D01*
X128536694Y-128492702D01*
X128614637Y-128414759D01*
X128771680Y-128179727D01*
X128879853Y-127918574D01*
X128935000Y-127641335D01*
X128935000Y-127570512D01*
X131059783Y-127570512D01*
X131101213Y-127850130D01*
X131196397Y-128116292D01*
X131263329Y-128241514D01*
X131507298Y-128313097D01*
X132320395Y-127500000D01*
X132679605Y-127500000D01*
X133492702Y-128313097D01*
X133736671Y-128241514D01*
X133857571Y-127986004D01*
X133926300Y-127711816D01*
X133940217Y-127429488D01*
X133898787Y-127149870D01*
X133803603Y-126883708D01*
X133736671Y-126758486D01*
X133492702Y-126686903D01*
X132679605Y-127500000D01*
X132320395Y-127500000D01*
X131507298Y-126686903D01*
X131263329Y-126758486D01*
X131142429Y-127013996D01*
X131073700Y-127288184D01*
X131059783Y-127570512D01*
X128935000Y-127570512D01*
X128935000Y-127358665D01*
X128881816Y-127091293D01*
X128917248Y-127080545D01*
X129049277Y-127009973D01*
X129165002Y-126915000D01*
X129188805Y-126885996D01*
X129567503Y-126507298D01*
X131686903Y-126507298D01*
X132500000Y-127320395D01*
X133313097Y-126507298D01*
X133241514Y-126263329D01*
X132986004Y-126142429D01*
X132711816Y-126073700D01*
X132429488Y-126059783D01*
X132149870Y-126101213D01*
X131883708Y-126196397D01*
X131758486Y-126263329D01*
X131686903Y-126507298D01*
X129567503Y-126507298D01*
X133761158Y-122313645D01*
X133868514Y-122335000D01*
X134131486Y-122335000D01*
X134265002Y-122308442D01*
X134265001Y-129325198D01*
X133770978Y-129819222D01*
X133614637Y-129585241D01*
X133414759Y-129385363D01*
X133179727Y-129228320D01*
X132918574Y-129120147D01*
X132641335Y-129065000D01*
X132358665Y-129065000D01*
X132081426Y-129120147D01*
X131820273Y-129228320D01*
X131585241Y-129385363D01*
X131385363Y-129585241D01*
X131228320Y-129820273D01*
X131120147Y-130081426D01*
X131065000Y-130358665D01*
X131065000Y-130641335D01*
X131120147Y-130918574D01*
X131228320Y-131179727D01*
X131385363Y-131414759D01*
X131585241Y-131614637D01*
X131819222Y-131770978D01*
X127350201Y-136240000D01*
X122887439Y-136240000D01*
X122879869Y-136228670D01*
X122711330Y-136060131D01*
X122513150Y-135927712D01*
X122292944Y-135836499D01*
X122059175Y-135790000D01*
X121820825Y-135790000D01*
X121587056Y-135836499D01*
X121366850Y-135927712D01*
X121168670Y-136060131D01*
X121000131Y-136228670D01*
X120867712Y-136426850D01*
X120776499Y-136647056D01*
X120730000Y-136880825D01*
X120730000Y-137119175D01*
X120776499Y-137352944D01*
X120867712Y-137573150D01*
X121000131Y-137771330D01*
X121168670Y-137939869D01*
X121366850Y-138072288D01*
X121587056Y-138163501D01*
X121820825Y-138210000D01*
X122059175Y-138210000D01*
X122292944Y-138163501D01*
X122513150Y-138072288D01*
X122711330Y-137939869D01*
X122879869Y-137771330D01*
X122887439Y-137760000D01*
X127627680Y-137760000D01*
X127665002Y-137763676D01*
X127702324Y-137760000D01*
X127702335Y-137760000D01*
X127813988Y-137749003D01*
X127957249Y-137705546D01*
X128089278Y-137634974D01*
X128205003Y-137540001D01*
X128228806Y-137510997D01*
X135536010Y-130203795D01*
X135565002Y-130180002D01*
X135588796Y-130151009D01*
X135588800Y-130151005D01*
X135659974Y-130064278D01*
X135659975Y-130064277D01*
X135730547Y-129932248D01*
X135774004Y-129788987D01*
X135785001Y-129677334D01*
X135785001Y-129677325D01*
X135788677Y-129640002D01*
X135785001Y-129602679D01*
X135785001Y-116682323D01*
X135788677Y-116645000D01*
X135785001Y-116607678D01*
X135785001Y-116607668D01*
X135774004Y-116496015D01*
X135730547Y-116352754D01*
X135659975Y-116220725D01*
X135565002Y-116105000D01*
X135535998Y-116081197D01*
X135520708Y-116065907D01*
X135534236Y-116021309D01*
X135561943Y-115740000D01*
X135534236Y-115458691D01*
X135452182Y-115188192D01*
X135318932Y-114938899D01*
X135139608Y-114720392D01*
X134921101Y-114541068D01*
X134788142Y-114470000D01*
X134921101Y-114398932D01*
X135139608Y-114219608D01*
X135318932Y-114001101D01*
X135452182Y-113751808D01*
X135534236Y-113481309D01*
X135561943Y-113200000D01*
X135534236Y-112918691D01*
X135452182Y-112648192D01*
X135318932Y-112398899D01*
X135139608Y-112180392D01*
X134921101Y-112001068D01*
X134788142Y-111930000D01*
X134921101Y-111858932D01*
X135139608Y-111679608D01*
X135318932Y-111461101D01*
X135452182Y-111211808D01*
X135534236Y-110941309D01*
X135561943Y-110660000D01*
X135534236Y-110378691D01*
X135452182Y-110108192D01*
X135318932Y-109858899D01*
X135139608Y-109640392D01*
X134921101Y-109461068D01*
X134788142Y-109390000D01*
X134921101Y-109318932D01*
X135139608Y-109139608D01*
X135318932Y-108921101D01*
X135452182Y-108671808D01*
X135534236Y-108401309D01*
X135561943Y-108120000D01*
X135544875Y-107946704D01*
X136365051Y-107126528D01*
X136398818Y-107098816D01*
X136509412Y-106964058D01*
X136591590Y-106810312D01*
X136642196Y-106643489D01*
X136655001Y-106513476D01*
X136655001Y-106513468D01*
X136659282Y-106469999D01*
X136655001Y-106426530D01*
X136655001Y-64773470D01*
X136659282Y-64730001D01*
X136655001Y-64686532D01*
X136655001Y-64686524D01*
X136642196Y-64556511D01*
X136612919Y-64459999D01*
X136591590Y-64389687D01*
X136509412Y-64235942D01*
X136426533Y-64134954D01*
X136426531Y-64134952D01*
X136398818Y-64101184D01*
X136365050Y-64073471D01*
X135676536Y-63384958D01*
X135676532Y-63384953D01*
X133510539Y-61218961D01*
X133525000Y-61146260D01*
X133525000Y-60853740D01*
X133467932Y-60566842D01*
X133355990Y-60296589D01*
X133193475Y-60053368D01*
X132986632Y-59846525D01*
X132743411Y-59684010D01*
X132473158Y-59572068D01*
X132186260Y-59515000D01*
X131893740Y-59515000D01*
X131606842Y-59572068D01*
X131336589Y-59684010D01*
X131093368Y-59846525D01*
X130961513Y-59978380D01*
X130939502Y-59905820D01*
X130880537Y-59795506D01*
X130801185Y-59698815D01*
X130704494Y-59619463D01*
X130594180Y-59560498D01*
X130474482Y-59524188D01*
X130350000Y-59511928D01*
X128650000Y-59511928D01*
X128525518Y-59524188D01*
X128405820Y-59560498D01*
X128303856Y-59615000D01*
X121134521Y-59615000D01*
X121114637Y-59585241D01*
X120914759Y-59385363D01*
X120679727Y-59228320D01*
X120418574Y-59120147D01*
X120141335Y-59065000D01*
X119858665Y-59065000D01*
X119581426Y-59120147D01*
X119320273Y-59228320D01*
X119085241Y-59385363D01*
X118885363Y-59585241D01*
X118728320Y-59820273D01*
X118620147Y-60081426D01*
X118565000Y-60358665D01*
X118565000Y-60641335D01*
X118620147Y-60918574D01*
X118728320Y-61179727D01*
X118885363Y-61414759D01*
X119051943Y-61581339D01*
X118955820Y-61610498D01*
X118871272Y-61655691D01*
X113120536Y-55904956D01*
X113092819Y-55871183D01*
X112958061Y-55760589D01*
X112804315Y-55678411D01*
X112637492Y-55627805D01*
X112507479Y-55615000D01*
X112507471Y-55615000D01*
X112464002Y-55610719D01*
X112420533Y-55615000D01*
X102754790Y-55615000D01*
X102692312Y-55521495D01*
X102478505Y-55307688D01*
X102227095Y-55139701D01*
X101947743Y-55023989D01*
X101651184Y-54965000D01*
X101348816Y-54965000D01*
X101052257Y-55023989D01*
X100772905Y-55139701D01*
X100521495Y-55307688D01*
X100307688Y-55521495D01*
X100139701Y-55772905D01*
X100023989Y-56052257D01*
X99965000Y-56348816D01*
X99965000Y-56651184D01*
X100023989Y-56947743D01*
X100139701Y-57227095D01*
X100307688Y-57478505D01*
X100521495Y-57692312D01*
X100607831Y-57750000D01*
X100521495Y-57807688D01*
X100307688Y-58021495D01*
X100139701Y-58272905D01*
X100023989Y-58552257D01*
X99965000Y-58848816D01*
X99965000Y-59151184D01*
X100023989Y-59447743D01*
X100139701Y-59727095D01*
X100307688Y-59978505D01*
X100521495Y-60192312D01*
X100664310Y-60287738D01*
X100615525Y-60435920D01*
X101500000Y-61320395D01*
X101514143Y-61306253D01*
X101693748Y-61485858D01*
X101679605Y-61500000D01*
X101693748Y-61514143D01*
X101514143Y-61693748D01*
X101500000Y-61679605D01*
X100615525Y-62564080D01*
X100699208Y-62818261D01*
X100971775Y-62949158D01*
X101264642Y-63024365D01*
X101566553Y-63040991D01*
X101865907Y-62998397D01*
X101965001Y-62963602D01*
X101965001Y-63840197D01*
X101742749Y-64062450D01*
X101565579Y-64045000D01*
X101434421Y-64045000D01*
X101238294Y-64064317D01*
X100986646Y-64140653D01*
X100754725Y-64264618D01*
X100551445Y-64431445D01*
X100384618Y-64634725D01*
X100260653Y-64866646D01*
X100184317Y-65118294D01*
X100158541Y-65380000D01*
X100184317Y-65641706D01*
X100260653Y-65893354D01*
X100384618Y-66125275D01*
X100551445Y-66328555D01*
X100754725Y-66495382D01*
X100986646Y-66619347D01*
X101238294Y-66695683D01*
X101434421Y-66715000D01*
X101565579Y-66715000D01*
X101761706Y-66695683D01*
X102013354Y-66619347D01*
X102245275Y-66495382D01*
X102448555Y-66328555D01*
X102615382Y-66125275D01*
X102739347Y-65893354D01*
X102752498Y-65850000D01*
X108011928Y-65850000D01*
X108024188Y-65974482D01*
X108060498Y-66094180D01*
X108119463Y-66204494D01*
X108198815Y-66301185D01*
X108295506Y-66380537D01*
X108405820Y-66439502D01*
X108525518Y-66475812D01*
X108650000Y-66488072D01*
X109214250Y-66485000D01*
X109373000Y-66326250D01*
X109373000Y-65127000D01*
X108173750Y-65127000D01*
X108015000Y-65285750D01*
X108011928Y-65850000D01*
X102752498Y-65850000D01*
X102815683Y-65641706D01*
X102841459Y-65380000D01*
X102817550Y-65137251D01*
X103236005Y-64718797D01*
X103265002Y-64695000D01*
X103291333Y-64662916D01*
X103359975Y-64579276D01*
X103430547Y-64447246D01*
X103437049Y-64425812D01*
X103474004Y-64303985D01*
X103485001Y-64192332D01*
X103485001Y-64192323D01*
X103488677Y-64155000D01*
X103488185Y-64150000D01*
X108011928Y-64150000D01*
X108015000Y-64714250D01*
X108173750Y-64873000D01*
X109373000Y-64873000D01*
X109373000Y-63673750D01*
X109214250Y-63515000D01*
X108650000Y-63511928D01*
X108525518Y-63524188D01*
X108405820Y-63560498D01*
X108295506Y-63619463D01*
X108198815Y-63698815D01*
X108119463Y-63795506D01*
X108060498Y-63905820D01*
X108024188Y-64025518D01*
X108011928Y-64150000D01*
X103488185Y-64150000D01*
X103485001Y-64117677D01*
X103485001Y-60262323D01*
X103488677Y-60225000D01*
X103485001Y-60187677D01*
X103485001Y-60187668D01*
X103474004Y-60076015D01*
X103430547Y-59932754D01*
X103359975Y-59800725D01*
X103265002Y-59685000D01*
X103235998Y-59661197D01*
X102983731Y-59408930D01*
X103035000Y-59151184D01*
X103035000Y-58848816D01*
X102976011Y-58552257D01*
X102860299Y-58272905D01*
X102692312Y-58021495D01*
X102478505Y-57807688D01*
X102392169Y-57750000D01*
X102478505Y-57692312D01*
X102692312Y-57478505D01*
X102754790Y-57385000D01*
X112097424Y-57385000D01*
X117864999Y-63152576D01*
X117865000Y-69706520D01*
X117860718Y-69749999D01*
X117877804Y-69923489D01*
X117928411Y-70090312D01*
X118010589Y-70244058D01*
X118093467Y-70345045D01*
X118093470Y-70345048D01*
X118121183Y-70378816D01*
X118154950Y-70406528D01*
X118561928Y-70813506D01*
X118561928Y-71365001D01*
X118277722Y-71365001D01*
X113025226Y-66112506D01*
X113095134Y-66055134D01*
X113280706Y-65829014D01*
X113418599Y-65571034D01*
X113503513Y-65291111D01*
X113532185Y-65000000D01*
X113503513Y-64708889D01*
X113418599Y-64428966D01*
X113280706Y-64170986D01*
X113095134Y-63944866D01*
X112869014Y-63759294D01*
X112611034Y-63621401D01*
X112331111Y-63536487D01*
X112112950Y-63515000D01*
X111967050Y-63515000D01*
X111748889Y-63536487D01*
X111468966Y-63621401D01*
X111210986Y-63759294D01*
X110984866Y-63944866D01*
X110960393Y-63974687D01*
X110939502Y-63905820D01*
X110880537Y-63795506D01*
X110801185Y-63698815D01*
X110704494Y-63619463D01*
X110594180Y-63560498D01*
X110474482Y-63524188D01*
X110350000Y-63511928D01*
X109785750Y-63515000D01*
X109627000Y-63673750D01*
X109627000Y-64873000D01*
X109647000Y-64873000D01*
X109647000Y-65127000D01*
X109627000Y-65127000D01*
X109627000Y-66326250D01*
X109785750Y-66485000D01*
X110350000Y-66488072D01*
X110474482Y-66475812D01*
X110594180Y-66439502D01*
X110704494Y-66380537D01*
X110801185Y-66301185D01*
X110880537Y-66204494D01*
X110939502Y-66094180D01*
X110960393Y-66025313D01*
X110984866Y-66055134D01*
X111210986Y-66240706D01*
X111283970Y-66279716D01*
X111290997Y-66351066D01*
X111325107Y-66463513D01*
X111334454Y-66494327D01*
X111405026Y-66626357D01*
X111444871Y-66674907D01*
X111499999Y-66742082D01*
X111529003Y-66765885D01*
X117399120Y-72636003D01*
X117422919Y-72665002D01*
X117538644Y-72759975D01*
X117670673Y-72830547D01*
X117813934Y-72874004D01*
X117925587Y-72885001D01*
X117925595Y-72885001D01*
X117962920Y-72888677D01*
X118000245Y-72885001D01*
X119589202Y-72885001D01*
X120769200Y-74064999D01*
X115112323Y-74064999D01*
X115075000Y-74061323D01*
X115037677Y-74064999D01*
X115037668Y-74064999D01*
X114926015Y-74075996D01*
X114782754Y-74119453D01*
X114650724Y-74190025D01*
X114567084Y-74258667D01*
X114535000Y-74284998D01*
X114511202Y-74313996D01*
X111488998Y-77336201D01*
X111460000Y-77359999D01*
X111436202Y-77388997D01*
X111436201Y-77388998D01*
X111365026Y-77475724D01*
X111345674Y-77511928D01*
X111150000Y-77511928D01*
X111025518Y-77524188D01*
X110905820Y-77560498D01*
X110795506Y-77619463D01*
X110698815Y-77698815D01*
X110619463Y-77795506D01*
X110560498Y-77905820D01*
X110539607Y-77974687D01*
X110515134Y-77944866D01*
X110289014Y-77759294D01*
X110031034Y-77621401D01*
X109751111Y-77536487D01*
X109532950Y-77515000D01*
X109387050Y-77515000D01*
X109168889Y-77536487D01*
X108888966Y-77621401D01*
X108630986Y-77759294D01*
X108404866Y-77944866D01*
X108219294Y-78170986D01*
X108081401Y-78428966D01*
X108063332Y-78488530D01*
X102924802Y-73350000D01*
X108011928Y-73350000D01*
X108024188Y-73474482D01*
X108060498Y-73594180D01*
X108119463Y-73704494D01*
X108198815Y-73801185D01*
X108295506Y-73880537D01*
X108405820Y-73939502D01*
X108525518Y-73975812D01*
X108650000Y-73988072D01*
X109214250Y-73985000D01*
X109373000Y-73826250D01*
X109373000Y-72627000D01*
X108173750Y-72627000D01*
X108015000Y-72785750D01*
X108011928Y-73350000D01*
X102924802Y-73350000D01*
X102813645Y-73238844D01*
X102835000Y-73131486D01*
X102835000Y-72868514D01*
X102783696Y-72610595D01*
X102683061Y-72367641D01*
X102536962Y-72148987D01*
X102472974Y-72084999D01*
X108014296Y-72084999D01*
X108015000Y-72214250D01*
X108173750Y-72373000D01*
X109373000Y-72373000D01*
X109373000Y-72353000D01*
X109627000Y-72353000D01*
X109627000Y-72373000D01*
X109647000Y-72373000D01*
X109647000Y-72627000D01*
X109627000Y-72627000D01*
X109627000Y-73826250D01*
X109785750Y-73985000D01*
X110350000Y-73988072D01*
X110474482Y-73975812D01*
X110594180Y-73939502D01*
X110704494Y-73880537D01*
X110801185Y-73801185D01*
X110880537Y-73704494D01*
X110939502Y-73594180D01*
X110960393Y-73525313D01*
X110984866Y-73555134D01*
X111210986Y-73740706D01*
X111468966Y-73878599D01*
X111748889Y-73963513D01*
X111967050Y-73985000D01*
X112112950Y-73985000D01*
X112331111Y-73963513D01*
X112611034Y-73878599D01*
X112869014Y-73740706D01*
X113095134Y-73555134D01*
X113280706Y-73329014D01*
X113418599Y-73071034D01*
X113503513Y-72791111D01*
X113532185Y-72500000D01*
X113503513Y-72208889D01*
X113418599Y-71928966D01*
X113280706Y-71670986D01*
X113095134Y-71444866D01*
X112869014Y-71259294D01*
X112611034Y-71121401D01*
X112331111Y-71036487D01*
X112112950Y-71015000D01*
X111967050Y-71015000D01*
X111748889Y-71036487D01*
X111674004Y-71059203D01*
X111428803Y-70814002D01*
X111405000Y-70784998D01*
X111289275Y-70690025D01*
X111157246Y-70619453D01*
X111013985Y-70575996D01*
X110902332Y-70564999D01*
X110902321Y-70564999D01*
X110864999Y-70561323D01*
X110827677Y-70564999D01*
X101695321Y-70564999D01*
X101657998Y-70561323D01*
X101620675Y-70564999D01*
X101620666Y-70564999D01*
X101509013Y-70575996D01*
X101365752Y-70619453D01*
X101233723Y-70690025D01*
X101117998Y-70784998D01*
X101094200Y-70813996D01*
X98488998Y-73419199D01*
X98460000Y-73442997D01*
X98436202Y-73471995D01*
X98436201Y-73471996D01*
X98365026Y-73558722D01*
X98294454Y-73690752D01*
X98250998Y-73834013D01*
X98236324Y-73982998D01*
X98240001Y-74020330D01*
X98240000Y-83462678D01*
X98236324Y-83500000D01*
X98240000Y-83537322D01*
X98240000Y-83537332D01*
X98250997Y-83648985D01*
X98294454Y-83792246D01*
X98365026Y-83924276D01*
X98396533Y-83962667D01*
X98459999Y-84040001D01*
X98489003Y-84063804D01*
X101965002Y-87539804D01*
X101965001Y-95031138D01*
X101947743Y-95023989D01*
X101651184Y-94965000D01*
X101348816Y-94965000D01*
X101052257Y-95023989D01*
X100772905Y-95139701D01*
X100521495Y-95307688D01*
X100307688Y-95521495D01*
X100139701Y-95772905D01*
X100023989Y-96052257D01*
X99965000Y-96348816D01*
X99965000Y-96651184D01*
X100016269Y-96908930D01*
X98739003Y-98186196D01*
X98709999Y-98209999D01*
X98665948Y-98263676D01*
X98615026Y-98325724D01*
X98554651Y-98438677D01*
X98544454Y-98457754D01*
X98500997Y-98601015D01*
X98490000Y-98712668D01*
X98490000Y-98712678D01*
X98486324Y-98750000D01*
X98490000Y-98787322D01*
X98490001Y-114812667D01*
X98486324Y-114850000D01*
X98490001Y-114887333D01*
X98500998Y-114998986D01*
X98511757Y-115034454D01*
X98544454Y-115142246D01*
X98615026Y-115274276D01*
X98686201Y-115361002D01*
X98710000Y-115390001D01*
X98738998Y-115413799D01*
X98919114Y-115593915D01*
X98887210Y-115699088D01*
X98865000Y-115924593D01*
X98865000Y-116724145D01*
X98856926Y-116717519D01*
X98590260Y-116574983D01*
X98300912Y-116487210D01*
X98000000Y-116457573D01*
X97699087Y-116487210D01*
X97409739Y-116574983D01*
X97160000Y-116708471D01*
X97160000Y-61566553D01*
X99959009Y-61566553D01*
X100001603Y-61865907D01*
X100101778Y-62151199D01*
X100181739Y-62300792D01*
X100435920Y-62384475D01*
X101320395Y-61500000D01*
X100435920Y-60615525D01*
X100181739Y-60699208D01*
X100050842Y-60971775D01*
X99975635Y-61264642D01*
X99959009Y-61566553D01*
X97160000Y-61566553D01*
X97160000Y-54660000D01*
X137340001Y-54660000D01*
X137340000Y-153340000D01*
X137340000Y-153340000D01*
G37*
X137340000Y-153340000D02*
X97160000Y-153340000D01*
X97160000Y-151712500D01*
X116286928Y-151712500D01*
X116286928Y-152287500D01*
X116304713Y-152468070D01*
X116357383Y-152641701D01*
X116442915Y-152801720D01*
X116558022Y-152941978D01*
X116698280Y-153057085D01*
X116858299Y-153142617D01*
X117031930Y-153195287D01*
X117212500Y-153213072D01*
X117787500Y-153213072D01*
X117968070Y-153195287D01*
X118141701Y-153142617D01*
X118301720Y-153057085D01*
X118441978Y-152941978D01*
X118557085Y-152801720D01*
X118642617Y-152641701D01*
X118695287Y-152468070D01*
X118713072Y-152287500D01*
X118713072Y-151880825D01*
X120090000Y-151880825D01*
X120090000Y-152119175D01*
X120136499Y-152352944D01*
X120227712Y-152573150D01*
X120360131Y-152771330D01*
X120528670Y-152939869D01*
X120726850Y-153072288D01*
X120947056Y-153163501D01*
X121180825Y-153210000D01*
X121419175Y-153210000D01*
X121652944Y-153163501D01*
X121873150Y-153072288D01*
X122071330Y-152939869D01*
X122239869Y-152771330D01*
X122372288Y-152573150D01*
X122463501Y-152352944D01*
X122510000Y-152119175D01*
X122510000Y-151880825D01*
X122463501Y-151647056D01*
X122372288Y-151426850D01*
X122239869Y-151228670D01*
X122071330Y-151060131D01*
X121873150Y-150927712D01*
X121652944Y-150836499D01*
X121419175Y-150790000D01*
X121180825Y-150790000D01*
X120947056Y-150836499D01*
X120726850Y-150927712D01*
X120528670Y-151060131D01*
X120360131Y-151228670D01*
X120227712Y-151426850D01*
X120136499Y-151647056D01*
X120090000Y-151880825D01*
X118713072Y-151880825D01*
X118713072Y-151712500D01*
X118695287Y-151531930D01*
X118642617Y-151358299D01*
X118557085Y-151198280D01*
X118441978Y-151058022D01*
X118301720Y-150942915D01*
X118141701Y-150857383D01*
X117968070Y-150804713D01*
X117787500Y-150786928D01*
X117212500Y-150786928D01*
X117031930Y-150804713D01*
X116858299Y-150857383D01*
X116698280Y-150942915D01*
X116558022Y-151058022D01*
X116442915Y-151198280D01*
X116357383Y-151358299D01*
X116304713Y-151531930D01*
X116286928Y-151712500D01*
X97160000Y-151712500D01*
X97160000Y-151291528D01*
X97409740Y-151425017D01*
X97699088Y-151512790D01*
X98000000Y-151542427D01*
X98300913Y-151512790D01*
X98590261Y-151425017D01*
X98856927Y-151282481D01*
X99090661Y-151090661D01*
X99282481Y-150856927D01*
X99425017Y-150590261D01*
X99512790Y-150300913D01*
X99535000Y-150075408D01*
X99535000Y-149275855D01*
X99543074Y-149282481D01*
X99809740Y-149425017D01*
X100099088Y-149512790D01*
X100400000Y-149542427D01*
X100700913Y-149512790D01*
X100990261Y-149425017D01*
X101256927Y-149282481D01*
X101490661Y-149090661D01*
X101682481Y-148856927D01*
X101825017Y-148590261D01*
X101912790Y-148300913D01*
X101935000Y-148075408D01*
X101935000Y-147627000D01*
X104365000Y-147627000D01*
X104365000Y-148127000D01*
X104419271Y-148424023D01*
X104530446Y-148704751D01*
X104694252Y-148958396D01*
X104904394Y-149175210D01*
X105152796Y-149346862D01*
X105429913Y-149466755D01*
X105535260Y-149491036D01*
X105773000Y-149370378D01*
X105773000Y-147627000D01*
X106027000Y-147627000D01*
X106027000Y-149370378D01*
X106264740Y-149491036D01*
X106370087Y-149466755D01*
X106647204Y-149346862D01*
X106895606Y-149175210D01*
X107105748Y-148958396D01*
X107269554Y-148704751D01*
X107380729Y-148424023D01*
X107435000Y-148127000D01*
X107435000Y-147627000D01*
X106027000Y-147627000D01*
X105773000Y-147627000D01*
X104365000Y-147627000D01*
X101935000Y-147627000D01*
X101935000Y-146924592D01*
X101929919Y-146873000D01*
X104365000Y-146873000D01*
X104365000Y-147373000D01*
X105773000Y-147373000D01*
X105773000Y-145629622D01*
X106027000Y-145629622D01*
X106027000Y-147373000D01*
X107435000Y-147373000D01*
X107435000Y-146873000D01*
X107380729Y-146575977D01*
X107269554Y-146295249D01*
X107105748Y-146041604D01*
X106895606Y-145824790D01*
X106647204Y-145653138D01*
X106370087Y-145533245D01*
X106264740Y-145508964D01*
X106027000Y-145629622D01*
X105773000Y-145629622D01*
X105535260Y-145508964D01*
X105429913Y-145533245D01*
X105152796Y-145653138D01*
X104904394Y-145824790D01*
X104694252Y-146041604D01*
X104530446Y-146295249D01*
X104419271Y-146575977D01*
X104365000Y-146873000D01*
X101929919Y-146873000D01*
X101912790Y-146699087D01*
X101825017Y-146409739D01*
X101682481Y-146143073D01*
X101490661Y-145909339D01*
X101256926Y-145717519D01*
X100990260Y-145574983D01*
X100700912Y-145487210D01*
X100400000Y-145457573D01*
X100099087Y-145487210D01*
X99809739Y-145574983D01*
X99543073Y-145717519D01*
X99309339Y-145909339D01*
X99117519Y-146143074D01*
X98974983Y-146409740D01*
X98887210Y-146699088D01*
X98865000Y-146924593D01*
X98865000Y-147724145D01*
X98856926Y-147717519D01*
X98590260Y-147574983D01*
X98300912Y-147487210D01*
X98000000Y-147457573D01*
X97699087Y-147487210D01*
X97409739Y-147574983D01*
X97160000Y-147708471D01*
X97160000Y-135791528D01*
X97409740Y-135925017D01*
X97699088Y-136012790D01*
X98000000Y-136042427D01*
X98300913Y-136012790D01*
X98590261Y-135925017D01*
X98856927Y-135782481D01*
X99090661Y-135590661D01*
X99282481Y-135356927D01*
X99425017Y-135090261D01*
X99512790Y-134800913D01*
X99535000Y-134575408D01*
X99535000Y-133775855D01*
X99543074Y-133782481D01*
X99809740Y-133925017D01*
X100099088Y-134012790D01*
X100400000Y-134042427D01*
X100700913Y-134012790D01*
X100990261Y-133925017D01*
X101256927Y-133782481D01*
X101490661Y-133590661D01*
X101682481Y-133356927D01*
X101825017Y-133090261D01*
X101912790Y-132800913D01*
X101926625Y-132660444D01*
X101974276Y-132634974D01*
X102090001Y-132540001D01*
X102113804Y-132510997D01*
X102497801Y-132127000D01*
X104365000Y-132127000D01*
X104365000Y-132627000D01*
X104419271Y-132924023D01*
X104530446Y-133204751D01*
X104694252Y-133458396D01*
X104904394Y-133675210D01*
X105152796Y-133846862D01*
X105429913Y-133966755D01*
X105535260Y-133991036D01*
X105773000Y-133870378D01*
X105773000Y-132127000D01*
X106027000Y-132127000D01*
X106027000Y-133870378D01*
X106264740Y-133991036D01*
X106370087Y-133966755D01*
X106647204Y-133846862D01*
X106895606Y-133675210D01*
X107105748Y-133458396D01*
X107269554Y-133204751D01*
X107380729Y-132924023D01*
X107435000Y-132627000D01*
X107435000Y-132127000D01*
X106027000Y-132127000D01*
X105773000Y-132127000D01*
X104365000Y-132127000D01*
X102497801Y-132127000D01*
X103251801Y-131373000D01*
X104365000Y-131373000D01*
X104365000Y-131873000D01*
X105773000Y-131873000D01*
X105773000Y-130129622D01*
X106027000Y-130129622D01*
X106027000Y-131873000D01*
X107435000Y-131873000D01*
X107435000Y-131373000D01*
X107380729Y-131075977D01*
X107269554Y-130795249D01*
X107105748Y-130541604D01*
X106895606Y-130324790D01*
X106647204Y-130153138D01*
X106370087Y-130033245D01*
X106264740Y-130008964D01*
X106027000Y-130129622D01*
X105773000Y-130129622D01*
X105535260Y-130008964D01*
X105429913Y-130033245D01*
X105152796Y-130153138D01*
X104904394Y-130324790D01*
X104694252Y-130541604D01*
X104530446Y-130795249D01*
X104419271Y-131075977D01*
X104365000Y-131373000D01*
X103251801Y-131373000D01*
X107489803Y-127134999D01*
X126109491Y-127134999D01*
X126065000Y-127358665D01*
X126065000Y-127641335D01*
X126120147Y-127918574D01*
X126228320Y-128179727D01*
X126385363Y-128414759D01*
X126585241Y-128614637D01*
X126740000Y-128718044D01*
X126740001Y-129281956D01*
X126585241Y-129385363D01*
X126385363Y-129585241D01*
X126281957Y-129740000D01*
X121097322Y-129740000D01*
X121059999Y-129736324D01*
X121022676Y-129740000D01*
X121022667Y-129740000D01*
X120911014Y-129750997D01*
X120767753Y-129794454D01*
X120635724Y-129865026D01*
X120519999Y-129959999D01*
X120496201Y-129988997D01*
X117192540Y-133292658D01*
X117179175Y-133290000D01*
X116940825Y-133290000D01*
X116707056Y-133336499D01*
X116486850Y-133427712D01*
X116288670Y-133560131D01*
X116120131Y-133728670D01*
X115987712Y-133926850D01*
X115896499Y-134147056D01*
X115850000Y-134380825D01*
X115850000Y-134619175D01*
X115896499Y-134852944D01*
X115987712Y-135073150D01*
X116100001Y-135241203D01*
X116100000Y-136052560D01*
X116088670Y-136060131D01*
X115920131Y-136228670D01*
X115787712Y-136426850D01*
X115696499Y-136647056D01*
X115650000Y-136880825D01*
X115650000Y-137119175D01*
X115696499Y-137352944D01*
X115787712Y-137573150D01*
X115920131Y-137771330D01*
X116088670Y-137939869D01*
X116286850Y-138072288D01*
X116507056Y-138163501D01*
X116740825Y-138210000D01*
X116979175Y-138210000D01*
X117212944Y-138163501D01*
X117433150Y-138072288D01*
X117631330Y-137939869D01*
X117799869Y-137771330D01*
X117932288Y-137573150D01*
X118023501Y-137352944D01*
X118070000Y-137119175D01*
X118070000Y-136880825D01*
X118023501Y-136647056D01*
X117932288Y-136426850D01*
X117799869Y-136228670D01*
X117631330Y-136060131D01*
X117620000Y-136052561D01*
X117620000Y-135577735D01*
X117633150Y-135572288D01*
X117831330Y-135439869D01*
X117999869Y-135271330D01*
X118132288Y-135073150D01*
X118223501Y-134852944D01*
X118270000Y-134619175D01*
X118270000Y-134380825D01*
X120930000Y-134380825D01*
X120930000Y-134619175D01*
X120976499Y-134852944D01*
X121067712Y-135073150D01*
X121200131Y-135271330D01*
X121368670Y-135439869D01*
X121566850Y-135572288D01*
X121787056Y-135663501D01*
X122020825Y-135710000D01*
X122259175Y-135710000D01*
X122492944Y-135663501D01*
X122713150Y-135572288D01*
X122911330Y-135439869D01*
X123079869Y-135271330D01*
X123212288Y-135073150D01*
X123303501Y-134852944D01*
X123350000Y-134619175D01*
X123350000Y-134380825D01*
X123303501Y-134147056D01*
X123212288Y-133926850D01*
X123079869Y-133728670D01*
X122911330Y-133560131D01*
X122713150Y-133427712D01*
X122492944Y-133336499D01*
X122259175Y-133290000D01*
X122020825Y-133290000D01*
X121787056Y-133336499D01*
X121566850Y-133427712D01*
X121368670Y-133560131D01*
X121200131Y-133728670D01*
X121067712Y-133926850D01*
X120976499Y-134147056D01*
X120930000Y-134380825D01*
X118270000Y-134380825D01*
X118267342Y-134367460D01*
X121374802Y-131260000D01*
X126281957Y-131260000D01*
X126385363Y-131414759D01*
X126585241Y-131614637D01*
X126820273Y-131771680D01*
X127081426Y-131879853D01*
X127358665Y-131935000D01*
X127641335Y-131935000D01*
X127918574Y-131879853D01*
X128179727Y-131771680D01*
X128414759Y-131614637D01*
X128614637Y-131414759D01*
X128771680Y-131179727D01*
X128879853Y-130918574D01*
X128935000Y-130641335D01*
X128935000Y-130358665D01*
X128879853Y-130081426D01*
X128771680Y-129820273D01*
X128614637Y-129585241D01*
X128414759Y-129385363D01*
X128260000Y-129281957D01*
X128260000Y-128718043D01*
X128414759Y-128614637D01*
X128536694Y-128492702D01*
X131686903Y-128492702D01*
X131758486Y-128736671D01*
X132013996Y-128857571D01*
X132288184Y-128926300D01*
X132570512Y-128940217D01*
X132850130Y-128898787D01*
X133116292Y-128803603D01*
X133241514Y-128736671D01*
X133313097Y-128492702D01*
X132500000Y-127679605D01*
X131686903Y-128492702D01*
X128536694Y-128492702D01*
X128614637Y-128414759D01*
X128771680Y-128179727D01*
X128879853Y-127918574D01*
X128935000Y-127641335D01*
X128935000Y-127570512D01*
X131059783Y-127570512D01*
X131101213Y-127850130D01*
X131196397Y-128116292D01*
X131263329Y-128241514D01*
X131507298Y-128313097D01*
X132320395Y-127500000D01*
X132679605Y-127500000D01*
X133492702Y-128313097D01*
X133736671Y-128241514D01*
X133857571Y-127986004D01*
X133926300Y-127711816D01*
X133940217Y-127429488D01*
X133898787Y-127149870D01*
X133803603Y-126883708D01*
X133736671Y-126758486D01*
X133492702Y-126686903D01*
X132679605Y-127500000D01*
X132320395Y-127500000D01*
X131507298Y-126686903D01*
X131263329Y-126758486D01*
X131142429Y-127013996D01*
X131073700Y-127288184D01*
X131059783Y-127570512D01*
X128935000Y-127570512D01*
X128935000Y-127358665D01*
X128881816Y-127091293D01*
X128917248Y-127080545D01*
X129049277Y-127009973D01*
X129165002Y-126915000D01*
X129188805Y-126885996D01*
X129567503Y-126507298D01*
X131686903Y-126507298D01*
X132500000Y-127320395D01*
X133313097Y-126507298D01*
X133241514Y-126263329D01*
X132986004Y-126142429D01*
X132711816Y-126073700D01*
X132429488Y-126059783D01*
X132149870Y-126101213D01*
X131883708Y-126196397D01*
X131758486Y-126263329D01*
X131686903Y-126507298D01*
X129567503Y-126507298D01*
X133761158Y-122313645D01*
X133868514Y-122335000D01*
X134131486Y-122335000D01*
X134265002Y-122308442D01*
X134265001Y-129325198D01*
X133770978Y-129819222D01*
X133614637Y-129585241D01*
X133414759Y-129385363D01*
X133179727Y-129228320D01*
X132918574Y-129120147D01*
X132641335Y-129065000D01*
X132358665Y-129065000D01*
X132081426Y-129120147D01*
X131820273Y-129228320D01*
X131585241Y-129385363D01*
X131385363Y-129585241D01*
X131228320Y-129820273D01*
X131120147Y-130081426D01*
X131065000Y-130358665D01*
X131065000Y-130641335D01*
X131120147Y-130918574D01*
X131228320Y-131179727D01*
X131385363Y-131414759D01*
X131585241Y-131614637D01*
X131819222Y-131770978D01*
X127350201Y-136240000D01*
X122887439Y-136240000D01*
X122879869Y-136228670D01*
X122711330Y-136060131D01*
X122513150Y-135927712D01*
X122292944Y-135836499D01*
X122059175Y-135790000D01*
X121820825Y-135790000D01*
X121587056Y-135836499D01*
X121366850Y-135927712D01*
X121168670Y-136060131D01*
X121000131Y-136228670D01*
X120867712Y-136426850D01*
X120776499Y-136647056D01*
X120730000Y-136880825D01*
X120730000Y-137119175D01*
X120776499Y-137352944D01*
X120867712Y-137573150D01*
X121000131Y-137771330D01*
X121168670Y-137939869D01*
X121366850Y-138072288D01*
X121587056Y-138163501D01*
X121820825Y-138210000D01*
X122059175Y-138210000D01*
X122292944Y-138163501D01*
X122513150Y-138072288D01*
X122711330Y-137939869D01*
X122879869Y-137771330D01*
X122887439Y-137760000D01*
X127627680Y-137760000D01*
X127665002Y-137763676D01*
X127702324Y-137760000D01*
X127702335Y-137760000D01*
X127813988Y-137749003D01*
X127957249Y-137705546D01*
X128089278Y-137634974D01*
X128205003Y-137540001D01*
X128228806Y-137510997D01*
X135536010Y-130203795D01*
X135565002Y-130180002D01*
X135588796Y-130151009D01*
X135588800Y-130151005D01*
X135659974Y-130064278D01*
X135659975Y-130064277D01*
X135730547Y-129932248D01*
X135774004Y-129788987D01*
X135785001Y-129677334D01*
X135785001Y-129677325D01*
X135788677Y-129640002D01*
X135785001Y-129602679D01*
X135785001Y-116682323D01*
X135788677Y-116645000D01*
X135785001Y-116607678D01*
X135785001Y-116607668D01*
X135774004Y-116496015D01*
X135730547Y-116352754D01*
X135659975Y-116220725D01*
X135565002Y-116105000D01*
X135535998Y-116081197D01*
X135520708Y-116065907D01*
X135534236Y-116021309D01*
X135561943Y-115740000D01*
X135534236Y-115458691D01*
X135452182Y-115188192D01*
X135318932Y-114938899D01*
X135139608Y-114720392D01*
X134921101Y-114541068D01*
X134788142Y-114470000D01*
X134921101Y-114398932D01*
X135139608Y-114219608D01*
X135318932Y-114001101D01*
X135452182Y-113751808D01*
X135534236Y-113481309D01*
X135561943Y-113200000D01*
X135534236Y-112918691D01*
X135452182Y-112648192D01*
X135318932Y-112398899D01*
X135139608Y-112180392D01*
X134921101Y-112001068D01*
X134788142Y-111930000D01*
X134921101Y-111858932D01*
X135139608Y-111679608D01*
X135318932Y-111461101D01*
X135452182Y-111211808D01*
X135534236Y-110941309D01*
X135561943Y-110660000D01*
X135534236Y-110378691D01*
X135452182Y-110108192D01*
X135318932Y-109858899D01*
X135139608Y-109640392D01*
X134921101Y-109461068D01*
X134788142Y-109390000D01*
X134921101Y-109318932D01*
X135139608Y-109139608D01*
X135318932Y-108921101D01*
X135452182Y-108671808D01*
X135534236Y-108401309D01*
X135561943Y-108120000D01*
X135544875Y-107946704D01*
X136365051Y-107126528D01*
X136398818Y-107098816D01*
X136509412Y-106964058D01*
X136591590Y-106810312D01*
X136642196Y-106643489D01*
X136655001Y-106513476D01*
X136655001Y-106513468D01*
X136659282Y-106469999D01*
X136655001Y-106426530D01*
X136655001Y-64773470D01*
X136659282Y-64730001D01*
X136655001Y-64686532D01*
X136655001Y-64686524D01*
X136642196Y-64556511D01*
X136612919Y-64459999D01*
X136591590Y-64389687D01*
X136509412Y-64235942D01*
X136426533Y-64134954D01*
X136426531Y-64134952D01*
X136398818Y-64101184D01*
X136365050Y-64073471D01*
X135676536Y-63384958D01*
X135676532Y-63384953D01*
X133510539Y-61218961D01*
X133525000Y-61146260D01*
X133525000Y-60853740D01*
X133467932Y-60566842D01*
X133355990Y-60296589D01*
X133193475Y-60053368D01*
X132986632Y-59846525D01*
X132743411Y-59684010D01*
X132473158Y-59572068D01*
X132186260Y-59515000D01*
X131893740Y-59515000D01*
X131606842Y-59572068D01*
X131336589Y-59684010D01*
X131093368Y-59846525D01*
X130961513Y-59978380D01*
X130939502Y-59905820D01*
X130880537Y-59795506D01*
X130801185Y-59698815D01*
X130704494Y-59619463D01*
X130594180Y-59560498D01*
X130474482Y-59524188D01*
X130350000Y-59511928D01*
X128650000Y-59511928D01*
X128525518Y-59524188D01*
X128405820Y-59560498D01*
X128303856Y-59615000D01*
X121134521Y-59615000D01*
X121114637Y-59585241D01*
X120914759Y-59385363D01*
X120679727Y-59228320D01*
X120418574Y-59120147D01*
X120141335Y-59065000D01*
X119858665Y-59065000D01*
X119581426Y-59120147D01*
X119320273Y-59228320D01*
X119085241Y-59385363D01*
X118885363Y-59585241D01*
X118728320Y-59820273D01*
X118620147Y-60081426D01*
X118565000Y-60358665D01*
X118565000Y-60641335D01*
X118620147Y-60918574D01*
X118728320Y-61179727D01*
X118885363Y-61414759D01*
X119051943Y-61581339D01*
X118955820Y-61610498D01*
X118871272Y-61655691D01*
X113120536Y-55904956D01*
X113092819Y-55871183D01*
X112958061Y-55760589D01*
X112804315Y-55678411D01*
X112637492Y-55627805D01*
X112507479Y-55615000D01*
X112507471Y-55615000D01*
X112464002Y-55610719D01*
X112420533Y-55615000D01*
X102754790Y-55615000D01*
X102692312Y-55521495D01*
X102478505Y-55307688D01*
X102227095Y-55139701D01*
X101947743Y-55023989D01*
X101651184Y-54965000D01*
X101348816Y-54965000D01*
X101052257Y-55023989D01*
X100772905Y-55139701D01*
X100521495Y-55307688D01*
X100307688Y-55521495D01*
X100139701Y-55772905D01*
X100023989Y-56052257D01*
X99965000Y-56348816D01*
X99965000Y-56651184D01*
X100023989Y-56947743D01*
X100139701Y-57227095D01*
X100307688Y-57478505D01*
X100521495Y-57692312D01*
X100607831Y-57750000D01*
X100521495Y-57807688D01*
X100307688Y-58021495D01*
X100139701Y-58272905D01*
X100023989Y-58552257D01*
X99965000Y-58848816D01*
X99965000Y-59151184D01*
X100023989Y-59447743D01*
X100139701Y-59727095D01*
X100307688Y-59978505D01*
X100521495Y-60192312D01*
X100664310Y-60287738D01*
X100615525Y-60435920D01*
X101500000Y-61320395D01*
X101514143Y-61306253D01*
X101693748Y-61485858D01*
X101679605Y-61500000D01*
X101693748Y-61514143D01*
X101514143Y-61693748D01*
X101500000Y-61679605D01*
X100615525Y-62564080D01*
X100699208Y-62818261D01*
X100971775Y-62949158D01*
X101264642Y-63024365D01*
X101566553Y-63040991D01*
X101865907Y-62998397D01*
X101965001Y-62963602D01*
X101965001Y-63840197D01*
X101742749Y-64062450D01*
X101565579Y-64045000D01*
X101434421Y-64045000D01*
X101238294Y-64064317D01*
X100986646Y-64140653D01*
X100754725Y-64264618D01*
X100551445Y-64431445D01*
X100384618Y-64634725D01*
X100260653Y-64866646D01*
X100184317Y-65118294D01*
X100158541Y-65380000D01*
X100184317Y-65641706D01*
X100260653Y-65893354D01*
X100384618Y-66125275D01*
X100551445Y-66328555D01*
X100754725Y-66495382D01*
X100986646Y-66619347D01*
X101238294Y-66695683D01*
X101434421Y-66715000D01*
X101565579Y-66715000D01*
X101761706Y-66695683D01*
X102013354Y-66619347D01*
X102245275Y-66495382D01*
X102448555Y-66328555D01*
X102615382Y-66125275D01*
X102739347Y-65893354D01*
X102752498Y-65850000D01*
X108011928Y-65850000D01*
X108024188Y-65974482D01*
X108060498Y-66094180D01*
X108119463Y-66204494D01*
X108198815Y-66301185D01*
X108295506Y-66380537D01*
X108405820Y-66439502D01*
X108525518Y-66475812D01*
X108650000Y-66488072D01*
X109214250Y-66485000D01*
X109373000Y-66326250D01*
X109373000Y-65127000D01*
X108173750Y-65127000D01*
X108015000Y-65285750D01*
X108011928Y-65850000D01*
X102752498Y-65850000D01*
X102815683Y-65641706D01*
X102841459Y-65380000D01*
X102817550Y-65137251D01*
X103236005Y-64718797D01*
X103265002Y-64695000D01*
X103291333Y-64662916D01*
X103359975Y-64579276D01*
X103430547Y-64447246D01*
X103437049Y-64425812D01*
X103474004Y-64303985D01*
X103485001Y-64192332D01*
X103485001Y-64192323D01*
X103488677Y-64155000D01*
X103488185Y-64150000D01*
X108011928Y-64150000D01*
X108015000Y-64714250D01*
X108173750Y-64873000D01*
X109373000Y-64873000D01*
X109373000Y-63673750D01*
X109214250Y-63515000D01*
X108650000Y-63511928D01*
X108525518Y-63524188D01*
X108405820Y-63560498D01*
X108295506Y-63619463D01*
X108198815Y-63698815D01*
X108119463Y-63795506D01*
X108060498Y-63905820D01*
X108024188Y-64025518D01*
X108011928Y-64150000D01*
X103488185Y-64150000D01*
X103485001Y-64117677D01*
X103485001Y-60262323D01*
X103488677Y-60225000D01*
X103485001Y-60187677D01*
X103485001Y-60187668D01*
X103474004Y-60076015D01*
X103430547Y-59932754D01*
X103359975Y-59800725D01*
X103265002Y-59685000D01*
X103235998Y-59661197D01*
X102983731Y-59408930D01*
X103035000Y-59151184D01*
X103035000Y-58848816D01*
X102976011Y-58552257D01*
X102860299Y-58272905D01*
X102692312Y-58021495D01*
X102478505Y-57807688D01*
X102392169Y-57750000D01*
X102478505Y-57692312D01*
X102692312Y-57478505D01*
X102754790Y-57385000D01*
X112097424Y-57385000D01*
X117864999Y-63152576D01*
X117865000Y-69706520D01*
X117860718Y-69749999D01*
X117877804Y-69923489D01*
X117928411Y-70090312D01*
X118010589Y-70244058D01*
X118093467Y-70345045D01*
X118093470Y-70345048D01*
X118121183Y-70378816D01*
X118154950Y-70406528D01*
X118561928Y-70813506D01*
X118561928Y-71365001D01*
X118277722Y-71365001D01*
X113025226Y-66112506D01*
X113095134Y-66055134D01*
X113280706Y-65829014D01*
X113418599Y-65571034D01*
X113503513Y-65291111D01*
X113532185Y-65000000D01*
X113503513Y-64708889D01*
X113418599Y-64428966D01*
X113280706Y-64170986D01*
X113095134Y-63944866D01*
X112869014Y-63759294D01*
X112611034Y-63621401D01*
X112331111Y-63536487D01*
X112112950Y-63515000D01*
X111967050Y-63515000D01*
X111748889Y-63536487D01*
X111468966Y-63621401D01*
X111210986Y-63759294D01*
X110984866Y-63944866D01*
X110960393Y-63974687D01*
X110939502Y-63905820D01*
X110880537Y-63795506D01*
X110801185Y-63698815D01*
X110704494Y-63619463D01*
X110594180Y-63560498D01*
X110474482Y-63524188D01*
X110350000Y-63511928D01*
X109785750Y-63515000D01*
X109627000Y-63673750D01*
X109627000Y-64873000D01*
X109647000Y-64873000D01*
X109647000Y-65127000D01*
X109627000Y-65127000D01*
X109627000Y-66326250D01*
X109785750Y-66485000D01*
X110350000Y-66488072D01*
X110474482Y-66475812D01*
X110594180Y-66439502D01*
X110704494Y-66380537D01*
X110801185Y-66301185D01*
X110880537Y-66204494D01*
X110939502Y-66094180D01*
X110960393Y-66025313D01*
X110984866Y-66055134D01*
X111210986Y-66240706D01*
X111283970Y-66279716D01*
X111290997Y-66351066D01*
X111325107Y-66463513D01*
X111334454Y-66494327D01*
X111405026Y-66626357D01*
X111444871Y-66674907D01*
X111499999Y-66742082D01*
X111529003Y-66765885D01*
X117399120Y-72636003D01*
X117422919Y-72665002D01*
X117538644Y-72759975D01*
X117670673Y-72830547D01*
X117813934Y-72874004D01*
X117925587Y-72885001D01*
X117925595Y-72885001D01*
X117962920Y-72888677D01*
X118000245Y-72885001D01*
X119589202Y-72885001D01*
X120769200Y-74064999D01*
X115112323Y-74064999D01*
X115075000Y-74061323D01*
X115037677Y-74064999D01*
X115037668Y-74064999D01*
X114926015Y-74075996D01*
X114782754Y-74119453D01*
X114650724Y-74190025D01*
X114567084Y-74258667D01*
X114535000Y-74284998D01*
X114511202Y-74313996D01*
X111488998Y-77336201D01*
X111460000Y-77359999D01*
X111436202Y-77388997D01*
X111436201Y-77388998D01*
X111365026Y-77475724D01*
X111345674Y-77511928D01*
X111150000Y-77511928D01*
X111025518Y-77524188D01*
X110905820Y-77560498D01*
X110795506Y-77619463D01*
X110698815Y-77698815D01*
X110619463Y-77795506D01*
X110560498Y-77905820D01*
X110539607Y-77974687D01*
X110515134Y-77944866D01*
X110289014Y-77759294D01*
X110031034Y-77621401D01*
X109751111Y-77536487D01*
X109532950Y-77515000D01*
X109387050Y-77515000D01*
X109168889Y-77536487D01*
X108888966Y-77621401D01*
X108630986Y-77759294D01*
X108404866Y-77944866D01*
X108219294Y-78170986D01*
X108081401Y-78428966D01*
X108063332Y-78488530D01*
X102924802Y-73350000D01*
X108011928Y-73350000D01*
X108024188Y-73474482D01*
X108060498Y-73594180D01*
X108119463Y-73704494D01*
X108198815Y-73801185D01*
X108295506Y-73880537D01*
X108405820Y-73939502D01*
X108525518Y-73975812D01*
X108650000Y-73988072D01*
X109214250Y-73985000D01*
X109373000Y-73826250D01*
X109373000Y-72627000D01*
X108173750Y-72627000D01*
X108015000Y-72785750D01*
X108011928Y-73350000D01*
X102924802Y-73350000D01*
X102813645Y-73238844D01*
X102835000Y-73131486D01*
X102835000Y-72868514D01*
X102783696Y-72610595D01*
X102683061Y-72367641D01*
X102536962Y-72148987D01*
X102472974Y-72084999D01*
X108014296Y-72084999D01*
X108015000Y-72214250D01*
X108173750Y-72373000D01*
X109373000Y-72373000D01*
X109373000Y-72353000D01*
X109627000Y-72353000D01*
X109627000Y-72373000D01*
X109647000Y-72373000D01*
X109647000Y-72627000D01*
X109627000Y-72627000D01*
X109627000Y-73826250D01*
X109785750Y-73985000D01*
X110350000Y-73988072D01*
X110474482Y-73975812D01*
X110594180Y-73939502D01*
X110704494Y-73880537D01*
X110801185Y-73801185D01*
X110880537Y-73704494D01*
X110939502Y-73594180D01*
X110960393Y-73525313D01*
X110984866Y-73555134D01*
X111210986Y-73740706D01*
X111468966Y-73878599D01*
X111748889Y-73963513D01*
X111967050Y-73985000D01*
X112112950Y-73985000D01*
X112331111Y-73963513D01*
X112611034Y-73878599D01*
X112869014Y-73740706D01*
X113095134Y-73555134D01*
X113280706Y-73329014D01*
X113418599Y-73071034D01*
X113503513Y-72791111D01*
X113532185Y-72500000D01*
X113503513Y-72208889D01*
X113418599Y-71928966D01*
X113280706Y-71670986D01*
X113095134Y-71444866D01*
X112869014Y-71259294D01*
X112611034Y-71121401D01*
X112331111Y-71036487D01*
X112112950Y-71015000D01*
X111967050Y-71015000D01*
X111748889Y-71036487D01*
X111674004Y-71059203D01*
X111428803Y-70814002D01*
X111405000Y-70784998D01*
X111289275Y-70690025D01*
X111157246Y-70619453D01*
X111013985Y-70575996D01*
X110902332Y-70564999D01*
X110902321Y-70564999D01*
X110864999Y-70561323D01*
X110827677Y-70564999D01*
X101695321Y-70564999D01*
X101657998Y-70561323D01*
X101620675Y-70564999D01*
X101620666Y-70564999D01*
X101509013Y-70575996D01*
X101365752Y-70619453D01*
X101233723Y-70690025D01*
X101117998Y-70784998D01*
X101094200Y-70813996D01*
X98488998Y-73419199D01*
X98460000Y-73442997D01*
X98436202Y-73471995D01*
X98436201Y-73471996D01*
X98365026Y-73558722D01*
X98294454Y-73690752D01*
X98250998Y-73834013D01*
X98236324Y-73982998D01*
X98240001Y-74020330D01*
X98240000Y-83462678D01*
X98236324Y-83500000D01*
X98240000Y-83537322D01*
X98240000Y-83537332D01*
X98250997Y-83648985D01*
X98294454Y-83792246D01*
X98365026Y-83924276D01*
X98396533Y-83962667D01*
X98459999Y-84040001D01*
X98489003Y-84063804D01*
X101965002Y-87539804D01*
X101965001Y-95031138D01*
X101947743Y-95023989D01*
X101651184Y-94965000D01*
X101348816Y-94965000D01*
X101052257Y-95023989D01*
X100772905Y-95139701D01*
X100521495Y-95307688D01*
X100307688Y-95521495D01*
X100139701Y-95772905D01*
X100023989Y-96052257D01*
X99965000Y-96348816D01*
X99965000Y-96651184D01*
X100016269Y-96908930D01*
X98739003Y-98186196D01*
X98709999Y-98209999D01*
X98665948Y-98263676D01*
X98615026Y-98325724D01*
X98554651Y-98438677D01*
X98544454Y-98457754D01*
X98500997Y-98601015D01*
X98490000Y-98712668D01*
X98490000Y-98712678D01*
X98486324Y-98750000D01*
X98490000Y-98787322D01*
X98490001Y-114812667D01*
X98486324Y-114850000D01*
X98490001Y-114887333D01*
X98500998Y-114998986D01*
X98511757Y-115034454D01*
X98544454Y-115142246D01*
X98615026Y-115274276D01*
X98686201Y-115361002D01*
X98710000Y-115390001D01*
X98738998Y-115413799D01*
X98919114Y-115593915D01*
X98887210Y-115699088D01*
X98865000Y-115924593D01*
X98865000Y-116724145D01*
X98856926Y-116717519D01*
X98590260Y-116574983D01*
X98300912Y-116487210D01*
X98000000Y-116457573D01*
X97699087Y-116487210D01*
X97409739Y-116574983D01*
X97160000Y-116708471D01*
X97160000Y-61566553D01*
X99959009Y-61566553D01*
X100001603Y-61865907D01*
X100101778Y-62151199D01*
X100181739Y-62300792D01*
X100435920Y-62384475D01*
X101320395Y-61500000D01*
X100435920Y-60615525D01*
X100181739Y-60699208D01*
X100050842Y-60971775D01*
X99975635Y-61264642D01*
X99959009Y-61566553D01*
X97160000Y-61566553D01*
X97160000Y-54660000D01*
X137340001Y-54660000D01*
X137340000Y-153340000D01*
G36*
X129081426Y-88379853D02*
G01*
X129358665Y-88435000D01*
X129641335Y-88435000D01*
X129823886Y-88398688D01*
X131240000Y-89814802D01*
X131240001Y-118962667D01*
X131236324Y-119000000D01*
X131250998Y-119148985D01*
X131294454Y-119292246D01*
X131365026Y-119424276D01*
X131436201Y-119511002D01*
X131460000Y-119540001D01*
X131488998Y-119563799D01*
X132686355Y-120761157D01*
X132665000Y-120868514D01*
X132665000Y-121131486D01*
X132686355Y-121238842D01*
X128310200Y-125614999D01*
X107212326Y-125614999D01*
X107175001Y-125611323D01*
X107137676Y-125614999D01*
X107137668Y-125614999D01*
X107026015Y-125625996D01*
X106882754Y-125669453D01*
X106750725Y-125740025D01*
X106635000Y-125834998D01*
X106611202Y-125863996D01*
X101734606Y-130740593D01*
X101682481Y-130643073D01*
X101490661Y-130409339D01*
X101256926Y-130217519D01*
X100990260Y-130074983D01*
X100700912Y-129987210D01*
X100400000Y-129957573D01*
X100099087Y-129987210D01*
X99809739Y-130074983D01*
X99543073Y-130217519D01*
X99309339Y-130409339D01*
X99117519Y-130643074D01*
X98974983Y-130909740D01*
X98887210Y-131199088D01*
X98865000Y-131424593D01*
X98865000Y-132224145D01*
X98856926Y-132217519D01*
X98590260Y-132074983D01*
X98300912Y-131987210D01*
X98000000Y-131957573D01*
X97699087Y-131987210D01*
X97409739Y-132074983D01*
X97160000Y-132208471D01*
X97160000Y-122868514D01*
X111665000Y-122868514D01*
X111665000Y-123131486D01*
X111716304Y-123389405D01*
X111816939Y-123632359D01*
X111963038Y-123851013D01*
X112148987Y-124036962D01*
X112367641Y-124183061D01*
X112610595Y-124283696D01*
X112868514Y-124335000D01*
X113131486Y-124335000D01*
X113389405Y-124283696D01*
X113632359Y-124183061D01*
X113851013Y-124036962D01*
X114036962Y-123851013D01*
X114183061Y-123632359D01*
X114283696Y-123389405D01*
X114335000Y-123131486D01*
X114335000Y-122868514D01*
X114283696Y-122610595D01*
X114183061Y-122367641D01*
X114036962Y-122148987D01*
X113851013Y-121963038D01*
X113632359Y-121816939D01*
X113389405Y-121716304D01*
X113131486Y-121665000D01*
X112868514Y-121665000D01*
X112610595Y-121716304D01*
X112367641Y-121816939D01*
X112148987Y-121963038D01*
X111963038Y-122148987D01*
X111816939Y-122367641D01*
X111716304Y-122610595D01*
X111665000Y-122868514D01*
X97160000Y-122868514D01*
X97160000Y-121333329D01*
X125087284Y-121333329D01*
X125119953Y-121441044D01*
X125230208Y-121678392D01*
X125384649Y-121889670D01*
X125577340Y-122066759D01*
X125800877Y-122202853D01*
X126046670Y-122292722D01*
X126253000Y-122170201D01*
X126253000Y-121127000D01*
X126507000Y-121127000D01*
X126507000Y-122170201D01*
X126713330Y-122292722D01*
X126959123Y-122202853D01*
X127182660Y-122066759D01*
X127375351Y-121889670D01*
X127529792Y-121678392D01*
X127640047Y-121441044D01*
X127672716Y-121333329D01*
X127549374Y-121127000D01*
X126507000Y-121127000D01*
X126253000Y-121127000D01*
X125210626Y-121127000D01*
X125087284Y-121333329D01*
X97160000Y-121333329D01*
X97160000Y-120291528D01*
X97409740Y-120425017D01*
X97699088Y-120512790D01*
X98000000Y-120542427D01*
X98300913Y-120512790D01*
X98590261Y-120425017D01*
X98856927Y-120282481D01*
X99090661Y-120090661D01*
X99282481Y-119856927D01*
X99425017Y-119590261D01*
X99488548Y-119380825D01*
X116490000Y-119380825D01*
X116490000Y-119619175D01*
X116536499Y-119852944D01*
X116627712Y-120073150D01*
X116760131Y-120271330D01*
X116928670Y-120439869D01*
X117126850Y-120572288D01*
X117347056Y-120663501D01*
X117580825Y-120710000D01*
X117819175Y-120710000D01*
X118052944Y-120663501D01*
X118273150Y-120572288D01*
X118471330Y-120439869D01*
X118639869Y-120271330D01*
X118772288Y-120073150D01*
X118863501Y-119852944D01*
X118910000Y-119619175D01*
X118910000Y-119380825D01*
X118876519Y-119212500D01*
X120286928Y-119212500D01*
X120286928Y-119787500D01*
X120304713Y-119968070D01*
X120357383Y-120141701D01*
X120442915Y-120301720D01*
X120558022Y-120441978D01*
X120698280Y-120557085D01*
X120858299Y-120642617D01*
X121031930Y-120695287D01*
X121212500Y-120713072D01*
X121787500Y-120713072D01*
X121968070Y-120695287D01*
X122062405Y-120666671D01*
X125087284Y-120666671D01*
X125210626Y-120873000D01*
X126253000Y-120873000D01*
X126253000Y-119829799D01*
X126507000Y-119829799D01*
X126507000Y-120873000D01*
X127549374Y-120873000D01*
X127672716Y-120666671D01*
X127640047Y-120558956D01*
X127529792Y-120321608D01*
X127375351Y-120110330D01*
X127182660Y-119933241D01*
X126959123Y-119797147D01*
X126713330Y-119707278D01*
X126507000Y-119829799D01*
X126253000Y-119829799D01*
X126046670Y-119707278D01*
X125800877Y-119797147D01*
X125577340Y-119933241D01*
X125384649Y-120110330D01*
X125230208Y-120321608D01*
X125119953Y-120558956D01*
X125087284Y-120666671D01*
X122062405Y-120666671D01*
X122141701Y-120642617D01*
X122301720Y-120557085D01*
X122441978Y-120441978D01*
X122557085Y-120301720D01*
X122642617Y-120141701D01*
X122695287Y-119968070D01*
X122713072Y-119787500D01*
X122713072Y-119212500D01*
X122695287Y-119031930D01*
X122642617Y-118858299D01*
X122557085Y-118698280D01*
X122441978Y-118558022D01*
X122301720Y-118442915D01*
X122141701Y-118357383D01*
X121968070Y-118304713D01*
X121787500Y-118286928D01*
X121212500Y-118286928D01*
X121031930Y-118304713D01*
X120858299Y-118357383D01*
X120698280Y-118442915D01*
X120558022Y-118558022D01*
X120442915Y-118698280D01*
X120357383Y-118858299D01*
X120304713Y-119031930D01*
X120286928Y-119212500D01*
X118876519Y-119212500D01*
X118863501Y-119147056D01*
X118772288Y-118926850D01*
X118639869Y-118728670D01*
X118471330Y-118560131D01*
X118273150Y-118427712D01*
X118052944Y-118336499D01*
X117819175Y-118290000D01*
X117580825Y-118290000D01*
X117347056Y-118336499D01*
X117126850Y-118427712D01*
X116928670Y-118560131D01*
X116760131Y-118728670D01*
X116627712Y-118926850D01*
X116536499Y-119147056D01*
X116490000Y-119380825D01*
X99488548Y-119380825D01*
X99512790Y-119300913D01*
X99535000Y-119075408D01*
X99535000Y-118275855D01*
X99543074Y-118282481D01*
X99809740Y-118425017D01*
X100099088Y-118512790D01*
X100400000Y-118542427D01*
X100700913Y-118512790D01*
X100990261Y-118425017D01*
X101256927Y-118282481D01*
X101490661Y-118090661D01*
X101682481Y-117856927D01*
X101825017Y-117590261D01*
X101912790Y-117300913D01*
X101935000Y-117075408D01*
X101935000Y-116627000D01*
X104365000Y-116627000D01*
X104365000Y-117127000D01*
X104419271Y-117424023D01*
X104530446Y-117704751D01*
X104694252Y-117958396D01*
X104904394Y-118175210D01*
X105152796Y-118346862D01*
X105429913Y-118466755D01*
X105535260Y-118491036D01*
X105773000Y-118370378D01*
X105773000Y-116627000D01*
X106027000Y-116627000D01*
X106027000Y-118370378D01*
X106264740Y-118491036D01*
X106370087Y-118466755D01*
X106647204Y-118346862D01*
X106895606Y-118175210D01*
X107105748Y-117958396D01*
X107269554Y-117704751D01*
X107380729Y-117424023D01*
X107435000Y-117127000D01*
X107435000Y-116992702D01*
X115686903Y-116992702D01*
X115758486Y-117236671D01*
X116013996Y-117357571D01*
X116288184Y-117426300D01*
X116570512Y-117440217D01*
X116850130Y-117398787D01*
X117116292Y-117303603D01*
X117241514Y-117236671D01*
X117313097Y-116992702D01*
X116500000Y-116179605D01*
X115686903Y-116992702D01*
X107435000Y-116992702D01*
X107435000Y-116627000D01*
X106027000Y-116627000D01*
X105773000Y-116627000D01*
X104365000Y-116627000D01*
X101935000Y-116627000D01*
X101935000Y-115924592D01*
X101929919Y-115873000D01*
X104365000Y-115873000D01*
X104365000Y-116373000D01*
X105773000Y-116373000D01*
X105773000Y-114629622D01*
X106027000Y-114629622D01*
X106027000Y-116373000D01*
X107435000Y-116373000D01*
X107435000Y-115873000D01*
X107380729Y-115575977D01*
X107269554Y-115295249D01*
X107105748Y-115041604D01*
X106895606Y-114824790D01*
X106647204Y-114653138D01*
X106370087Y-114533245D01*
X106264740Y-114508964D01*
X106027000Y-114629622D01*
X105773000Y-114629622D01*
X105535260Y-114508964D01*
X105429913Y-114533245D01*
X105152796Y-114653138D01*
X104904394Y-114824790D01*
X104694252Y-115041604D01*
X104530446Y-115295249D01*
X104419271Y-115575977D01*
X104365000Y-115873000D01*
X101929919Y-115873000D01*
X101912790Y-115699087D01*
X101825017Y-115409739D01*
X101682481Y-115143073D01*
X101490661Y-114909339D01*
X101256926Y-114717519D01*
X100990260Y-114574983D01*
X100700912Y-114487210D01*
X100400000Y-114457573D01*
X100099087Y-114487210D01*
X100010000Y-114514234D01*
X100010000Y-102564080D01*
X100615525Y-102564080D01*
X100699208Y-102818261D01*
X100971775Y-102949158D01*
X101264642Y-103024365D01*
X101566553Y-103040991D01*
X101865907Y-102998397D01*
X102151199Y-102898222D01*
X102300792Y-102818261D01*
X102384475Y-102564080D01*
X101500000Y-101679605D01*
X100615525Y-102564080D01*
X100010000Y-102564080D01*
X100010000Y-101889821D01*
X100101778Y-102151199D01*
X100181739Y-102300792D01*
X100435920Y-102384475D01*
X101320395Y-101500000D01*
X100435920Y-100615525D01*
X100181739Y-100699208D01*
X100050842Y-100971775D01*
X100010000Y-101130820D01*
X100010000Y-99377415D01*
X100023989Y-99447743D01*
X100139701Y-99727095D01*
X100307688Y-99978505D01*
X100521495Y-100192312D01*
X100664310Y-100287738D01*
X100615525Y-100435920D01*
X101500000Y-101320395D01*
X101514143Y-101306253D01*
X101693748Y-101485858D01*
X101679605Y-101500000D01*
X102564080Y-102384475D01*
X102818261Y-102300792D01*
X102841858Y-102251657D01*
X110319222Y-109729022D01*
X110085241Y-109885363D01*
X109885363Y-110085241D01*
X109728320Y-110320273D01*
X109620147Y-110581426D01*
X109565000Y-110858665D01*
X109565000Y-111141335D01*
X109620147Y-111418574D01*
X109728320Y-111679727D01*
X109885363Y-111914759D01*
X110085241Y-112114637D01*
X110320273Y-112271680D01*
X110581426Y-112379853D01*
X110858665Y-112435000D01*
X111141335Y-112435000D01*
X111323886Y-112398688D01*
X112436200Y-113511002D01*
X112459999Y-113540001D01*
X112488997Y-113563799D01*
X112575723Y-113634974D01*
X112697375Y-113699999D01*
X112707753Y-113705546D01*
X112851014Y-113749003D01*
X112897968Y-113753628D01*
X112963038Y-113851013D01*
X113148987Y-114036962D01*
X113177517Y-114056025D01*
X113065579Y-114045000D01*
X112934421Y-114045000D01*
X112738294Y-114064317D01*
X112486646Y-114140653D01*
X112254725Y-114264618D01*
X112051445Y-114431445D01*
X111884618Y-114634725D01*
X111760653Y-114866646D01*
X111684317Y-115118294D01*
X111658541Y-115380000D01*
X111684317Y-115641706D01*
X111760653Y-115893354D01*
X111884618Y-116125275D01*
X112051445Y-116328555D01*
X112254725Y-116495382D01*
X112486646Y-116619347D01*
X112738294Y-116695683D01*
X112934421Y-116715000D01*
X113065579Y-116715000D01*
X113261706Y-116695683D01*
X113513354Y-116619347D01*
X113745275Y-116495382D01*
X113948555Y-116328555D01*
X114101755Y-116141879D01*
X114120000Y-116143676D01*
X114157322Y-116140000D01*
X114157333Y-116140000D01*
X114268986Y-116129003D01*
X114412247Y-116085546D01*
X114544276Y-116014974D01*
X114660001Y-115920001D01*
X114683804Y-115890997D01*
X115215739Y-115359062D01*
X115142429Y-115513996D01*
X115073700Y-115788184D01*
X115059783Y-116070512D01*
X115101213Y-116350130D01*
X115196397Y-116616292D01*
X115263329Y-116741514D01*
X115507298Y-116813097D01*
X116320395Y-116000000D01*
X116306253Y-115985858D01*
X116485858Y-115806253D01*
X116500000Y-115820395D01*
X116514143Y-115806253D01*
X116693748Y-115985858D01*
X116679605Y-116000000D01*
X117492702Y-116813097D01*
X117736671Y-116741514D01*
X117857571Y-116486004D01*
X117926300Y-116211816D01*
X117940217Y-115929488D01*
X117898787Y-115649870D01*
X117803603Y-115383708D01*
X117797513Y-115372314D01*
X120061202Y-117636004D01*
X120085000Y-117665002D01*
X120200725Y-117759975D01*
X120332754Y-117830547D01*
X120476015Y-117874004D01*
X120587668Y-117885001D01*
X120587677Y-117885001D01*
X120625000Y-117888677D01*
X120662323Y-117885001D01*
X125077677Y-117885001D01*
X125114999Y-117888677D01*
X125152321Y-117885001D01*
X125152332Y-117885001D01*
X125263985Y-117874004D01*
X125407246Y-117830547D01*
X125539275Y-117759975D01*
X125655000Y-117665002D01*
X125678803Y-117635998D01*
X126174094Y-117140708D01*
X126218691Y-117154236D01*
X126429508Y-117175000D01*
X126570492Y-117175000D01*
X126781309Y-117154236D01*
X127051808Y-117072182D01*
X127301101Y-116938932D01*
X127519608Y-116759608D01*
X127698932Y-116541101D01*
X127832182Y-116291808D01*
X127914236Y-116021309D01*
X127941943Y-115740000D01*
X127914236Y-115458691D01*
X127832182Y-115188192D01*
X127698932Y-114938899D01*
X127519608Y-114720392D01*
X127301101Y-114541068D01*
X127168142Y-114470000D01*
X127301101Y-114398932D01*
X127519608Y-114219608D01*
X127698932Y-114001101D01*
X127832182Y-113751808D01*
X127914236Y-113481309D01*
X127941943Y-113200000D01*
X127914236Y-112918691D01*
X127832182Y-112648192D01*
X127698932Y-112398899D01*
X127519608Y-112180392D01*
X127301101Y-112001068D01*
X127168142Y-111930000D01*
X127301101Y-111858932D01*
X127519608Y-111679608D01*
X127698932Y-111461101D01*
X127832182Y-111211808D01*
X127914236Y-110941309D01*
X127941943Y-110660000D01*
X127914236Y-110378691D01*
X127832182Y-110108192D01*
X127698932Y-109858899D01*
X127519608Y-109640392D01*
X127301101Y-109461068D01*
X127168142Y-109390000D01*
X127301101Y-109318932D01*
X127519608Y-109139608D01*
X127698932Y-108921101D01*
X127832182Y-108671808D01*
X127914236Y-108401309D01*
X127941943Y-108120000D01*
X127924875Y-107946704D01*
X127956531Y-107915048D01*
X127956534Y-107915044D01*
X128696224Y-107175358D01*
X128710032Y-107165347D01*
X128757749Y-107113833D01*
X128776534Y-107095048D01*
X128787296Y-107081935D01*
X128828498Y-107037454D01*
X128842469Y-107014707D01*
X128859413Y-106994061D01*
X128888008Y-106940563D01*
X128919736Y-106888905D01*
X128929002Y-106863868D01*
X128941591Y-106840315D01*
X128959195Y-106782282D01*
X128980242Y-106725412D01*
X128984446Y-106699044D01*
X128992197Y-106673492D01*
X128998141Y-106613142D01*
X129000810Y-106596400D01*
X129002400Y-106569896D01*
X129009284Y-106500002D01*
X129007612Y-106483026D01*
X129032398Y-106069906D01*
X129035001Y-106043477D01*
X129035001Y-106026521D01*
X129036016Y-106009603D01*
X129035001Y-105983081D01*
X129035001Y-95360623D01*
X129081426Y-95379853D01*
X129358665Y-95435000D01*
X129641335Y-95435000D01*
X129918574Y-95379853D01*
X130179727Y-95271680D01*
X130414759Y-95114637D01*
X130614637Y-94914759D01*
X130771680Y-94679727D01*
X130879853Y-94418574D01*
X130935000Y-94141335D01*
X130935000Y-93858665D01*
X130879853Y-93581426D01*
X130771680Y-93320273D01*
X130614637Y-93085241D01*
X130414759Y-92885363D01*
X130179727Y-92728320D01*
X129918574Y-92620147D01*
X129641335Y-92565000D01*
X129358665Y-92565000D01*
X129081426Y-92620147D01*
X129035001Y-92639377D01*
X129035001Y-88360623D01*
X129081426Y-88379853D01*
X129081426Y-88379853D01*
G37*
X129081426Y-88379853D02*
X129358665Y-88435000D01*
X129641335Y-88435000D01*
X129823886Y-88398688D01*
X131240000Y-89814802D01*
X131240001Y-118962667D01*
X131236324Y-119000000D01*
X131250998Y-119148985D01*
X131294454Y-119292246D01*
X131365026Y-119424276D01*
X131436201Y-119511002D01*
X131460000Y-119540001D01*
X131488998Y-119563799D01*
X132686355Y-120761157D01*
X132665000Y-120868514D01*
X132665000Y-121131486D01*
X132686355Y-121238842D01*
X128310200Y-125614999D01*
X107212326Y-125614999D01*
X107175001Y-125611323D01*
X107137676Y-125614999D01*
X107137668Y-125614999D01*
X107026015Y-125625996D01*
X106882754Y-125669453D01*
X106750725Y-125740025D01*
X106635000Y-125834998D01*
X106611202Y-125863996D01*
X101734606Y-130740593D01*
X101682481Y-130643073D01*
X101490661Y-130409339D01*
X101256926Y-130217519D01*
X100990260Y-130074983D01*
X100700912Y-129987210D01*
X100400000Y-129957573D01*
X100099087Y-129987210D01*
X99809739Y-130074983D01*
X99543073Y-130217519D01*
X99309339Y-130409339D01*
X99117519Y-130643074D01*
X98974983Y-130909740D01*
X98887210Y-131199088D01*
X98865000Y-131424593D01*
X98865000Y-132224145D01*
X98856926Y-132217519D01*
X98590260Y-132074983D01*
X98300912Y-131987210D01*
X98000000Y-131957573D01*
X97699087Y-131987210D01*
X97409739Y-132074983D01*
X97160000Y-132208471D01*
X97160000Y-122868514D01*
X111665000Y-122868514D01*
X111665000Y-123131486D01*
X111716304Y-123389405D01*
X111816939Y-123632359D01*
X111963038Y-123851013D01*
X112148987Y-124036962D01*
X112367641Y-124183061D01*
X112610595Y-124283696D01*
X112868514Y-124335000D01*
X113131486Y-124335000D01*
X113389405Y-124283696D01*
X113632359Y-124183061D01*
X113851013Y-124036962D01*
X114036962Y-123851013D01*
X114183061Y-123632359D01*
X114283696Y-123389405D01*
X114335000Y-123131486D01*
X114335000Y-122868514D01*
X114283696Y-122610595D01*
X114183061Y-122367641D01*
X114036962Y-122148987D01*
X113851013Y-121963038D01*
X113632359Y-121816939D01*
X113389405Y-121716304D01*
X113131486Y-121665000D01*
X112868514Y-121665000D01*
X112610595Y-121716304D01*
X112367641Y-121816939D01*
X112148987Y-121963038D01*
X111963038Y-122148987D01*
X111816939Y-122367641D01*
X111716304Y-122610595D01*
X111665000Y-122868514D01*
X97160000Y-122868514D01*
X97160000Y-121333329D01*
X125087284Y-121333329D01*
X125119953Y-121441044D01*
X125230208Y-121678392D01*
X125384649Y-121889670D01*
X125577340Y-122066759D01*
X125800877Y-122202853D01*
X126046670Y-122292722D01*
X126253000Y-122170201D01*
X126253000Y-121127000D01*
X126507000Y-121127000D01*
X126507000Y-122170201D01*
X126713330Y-122292722D01*
X126959123Y-122202853D01*
X127182660Y-122066759D01*
X127375351Y-121889670D01*
X127529792Y-121678392D01*
X127640047Y-121441044D01*
X127672716Y-121333329D01*
X127549374Y-121127000D01*
X126507000Y-121127000D01*
X126253000Y-121127000D01*
X125210626Y-121127000D01*
X125087284Y-121333329D01*
X97160000Y-121333329D01*
X97160000Y-120291528D01*
X97409740Y-120425017D01*
X97699088Y-120512790D01*
X98000000Y-120542427D01*
X98300913Y-120512790D01*
X98590261Y-120425017D01*
X98856927Y-120282481D01*
X99090661Y-120090661D01*
X99282481Y-119856927D01*
X99425017Y-119590261D01*
X99488548Y-119380825D01*
X116490000Y-119380825D01*
X116490000Y-119619175D01*
X116536499Y-119852944D01*
X116627712Y-120073150D01*
X116760131Y-120271330D01*
X116928670Y-120439869D01*
X117126850Y-120572288D01*
X117347056Y-120663501D01*
X117580825Y-120710000D01*
X117819175Y-120710000D01*
X118052944Y-120663501D01*
X118273150Y-120572288D01*
X118471330Y-120439869D01*
X118639869Y-120271330D01*
X118772288Y-120073150D01*
X118863501Y-119852944D01*
X118910000Y-119619175D01*
X118910000Y-119380825D01*
X118876519Y-119212500D01*
X120286928Y-119212500D01*
X120286928Y-119787500D01*
X120304713Y-119968070D01*
X120357383Y-120141701D01*
X120442915Y-120301720D01*
X120558022Y-120441978D01*
X120698280Y-120557085D01*
X120858299Y-120642617D01*
X121031930Y-120695287D01*
X121212500Y-120713072D01*
X121787500Y-120713072D01*
X121968070Y-120695287D01*
X122062405Y-120666671D01*
X125087284Y-120666671D01*
X125210626Y-120873000D01*
X126253000Y-120873000D01*
X126253000Y-119829799D01*
X126507000Y-119829799D01*
X126507000Y-120873000D01*
X127549374Y-120873000D01*
X127672716Y-120666671D01*
X127640047Y-120558956D01*
X127529792Y-120321608D01*
X127375351Y-120110330D01*
X127182660Y-119933241D01*
X126959123Y-119797147D01*
X126713330Y-119707278D01*
X126507000Y-119829799D01*
X126253000Y-119829799D01*
X126046670Y-119707278D01*
X125800877Y-119797147D01*
X125577340Y-119933241D01*
X125384649Y-120110330D01*
X125230208Y-120321608D01*
X125119953Y-120558956D01*
X125087284Y-120666671D01*
X122062405Y-120666671D01*
X122141701Y-120642617D01*
X122301720Y-120557085D01*
X122441978Y-120441978D01*
X122557085Y-120301720D01*
X122642617Y-120141701D01*
X122695287Y-119968070D01*
X122713072Y-119787500D01*
X122713072Y-119212500D01*
X122695287Y-119031930D01*
X122642617Y-118858299D01*
X122557085Y-118698280D01*
X122441978Y-118558022D01*
X122301720Y-118442915D01*
X122141701Y-118357383D01*
X121968070Y-118304713D01*
X121787500Y-118286928D01*
X121212500Y-118286928D01*
X121031930Y-118304713D01*
X120858299Y-118357383D01*
X120698280Y-118442915D01*
X120558022Y-118558022D01*
X120442915Y-118698280D01*
X120357383Y-118858299D01*
X120304713Y-119031930D01*
X120286928Y-119212500D01*
X118876519Y-119212500D01*
X118863501Y-119147056D01*
X118772288Y-118926850D01*
X118639869Y-118728670D01*
X118471330Y-118560131D01*
X118273150Y-118427712D01*
X118052944Y-118336499D01*
X117819175Y-118290000D01*
X117580825Y-118290000D01*
X117347056Y-118336499D01*
X117126850Y-118427712D01*
X116928670Y-118560131D01*
X116760131Y-118728670D01*
X116627712Y-118926850D01*
X116536499Y-119147056D01*
X116490000Y-119380825D01*
X99488548Y-119380825D01*
X99512790Y-119300913D01*
X99535000Y-119075408D01*
X99535000Y-118275855D01*
X99543074Y-118282481D01*
X99809740Y-118425017D01*
X100099088Y-118512790D01*
X100400000Y-118542427D01*
X100700913Y-118512790D01*
X100990261Y-118425017D01*
X101256927Y-118282481D01*
X101490661Y-118090661D01*
X101682481Y-117856927D01*
X101825017Y-117590261D01*
X101912790Y-117300913D01*
X101935000Y-117075408D01*
X101935000Y-116627000D01*
X104365000Y-116627000D01*
X104365000Y-117127000D01*
X104419271Y-117424023D01*
X104530446Y-117704751D01*
X104694252Y-117958396D01*
X104904394Y-118175210D01*
X105152796Y-118346862D01*
X105429913Y-118466755D01*
X105535260Y-118491036D01*
X105773000Y-118370378D01*
X105773000Y-116627000D01*
X106027000Y-116627000D01*
X106027000Y-118370378D01*
X106264740Y-118491036D01*
X106370087Y-118466755D01*
X106647204Y-118346862D01*
X106895606Y-118175210D01*
X107105748Y-117958396D01*
X107269554Y-117704751D01*
X107380729Y-117424023D01*
X107435000Y-117127000D01*
X107435000Y-116992702D01*
X115686903Y-116992702D01*
X115758486Y-117236671D01*
X116013996Y-117357571D01*
X116288184Y-117426300D01*
X116570512Y-117440217D01*
X116850130Y-117398787D01*
X117116292Y-117303603D01*
X117241514Y-117236671D01*
X117313097Y-116992702D01*
X116500000Y-116179605D01*
X115686903Y-116992702D01*
X107435000Y-116992702D01*
X107435000Y-116627000D01*
X106027000Y-116627000D01*
X105773000Y-116627000D01*
X104365000Y-116627000D01*
X101935000Y-116627000D01*
X101935000Y-115924592D01*
X101929919Y-115873000D01*
X104365000Y-115873000D01*
X104365000Y-116373000D01*
X105773000Y-116373000D01*
X105773000Y-114629622D01*
X106027000Y-114629622D01*
X106027000Y-116373000D01*
X107435000Y-116373000D01*
X107435000Y-115873000D01*
X107380729Y-115575977D01*
X107269554Y-115295249D01*
X107105748Y-115041604D01*
X106895606Y-114824790D01*
X106647204Y-114653138D01*
X106370087Y-114533245D01*
X106264740Y-114508964D01*
X106027000Y-114629622D01*
X105773000Y-114629622D01*
X105535260Y-114508964D01*
X105429913Y-114533245D01*
X105152796Y-114653138D01*
X104904394Y-114824790D01*
X104694252Y-115041604D01*
X104530446Y-115295249D01*
X104419271Y-115575977D01*
X104365000Y-115873000D01*
X101929919Y-115873000D01*
X101912790Y-115699087D01*
X101825017Y-115409739D01*
X101682481Y-115143073D01*
X101490661Y-114909339D01*
X101256926Y-114717519D01*
X100990260Y-114574983D01*
X100700912Y-114487210D01*
X100400000Y-114457573D01*
X100099087Y-114487210D01*
X100010000Y-114514234D01*
X100010000Y-102564080D01*
X100615525Y-102564080D01*
X100699208Y-102818261D01*
X100971775Y-102949158D01*
X101264642Y-103024365D01*
X101566553Y-103040991D01*
X101865907Y-102998397D01*
X102151199Y-102898222D01*
X102300792Y-102818261D01*
X102384475Y-102564080D01*
X101500000Y-101679605D01*
X100615525Y-102564080D01*
X100010000Y-102564080D01*
X100010000Y-101889821D01*
X100101778Y-102151199D01*
X100181739Y-102300792D01*
X100435920Y-102384475D01*
X101320395Y-101500000D01*
X100435920Y-100615525D01*
X100181739Y-100699208D01*
X100050842Y-100971775D01*
X100010000Y-101130820D01*
X100010000Y-99377415D01*
X100023989Y-99447743D01*
X100139701Y-99727095D01*
X100307688Y-99978505D01*
X100521495Y-100192312D01*
X100664310Y-100287738D01*
X100615525Y-100435920D01*
X101500000Y-101320395D01*
X101514143Y-101306253D01*
X101693748Y-101485858D01*
X101679605Y-101500000D01*
X102564080Y-102384475D01*
X102818261Y-102300792D01*
X102841858Y-102251657D01*
X110319222Y-109729022D01*
X110085241Y-109885363D01*
X109885363Y-110085241D01*
X109728320Y-110320273D01*
X109620147Y-110581426D01*
X109565000Y-110858665D01*
X109565000Y-111141335D01*
X109620147Y-111418574D01*
X109728320Y-111679727D01*
X109885363Y-111914759D01*
X110085241Y-112114637D01*
X110320273Y-112271680D01*
X110581426Y-112379853D01*
X110858665Y-112435000D01*
X111141335Y-112435000D01*
X111323886Y-112398688D01*
X112436200Y-113511002D01*
X112459999Y-113540001D01*
X112488997Y-113563799D01*
X112575723Y-113634974D01*
X112697375Y-113699999D01*
X112707753Y-113705546D01*
X112851014Y-113749003D01*
X112897968Y-113753628D01*
X112963038Y-113851013D01*
X113148987Y-114036962D01*
X113177517Y-114056025D01*
X113065579Y-114045000D01*
X112934421Y-114045000D01*
X112738294Y-114064317D01*
X112486646Y-114140653D01*
X112254725Y-114264618D01*
X112051445Y-114431445D01*
X111884618Y-114634725D01*
X111760653Y-114866646D01*
X111684317Y-115118294D01*
X111658541Y-115380000D01*
X111684317Y-115641706D01*
X111760653Y-115893354D01*
X111884618Y-116125275D01*
X112051445Y-116328555D01*
X112254725Y-116495382D01*
X112486646Y-116619347D01*
X112738294Y-116695683D01*
X112934421Y-116715000D01*
X113065579Y-116715000D01*
X113261706Y-116695683D01*
X113513354Y-116619347D01*
X113745275Y-116495382D01*
X113948555Y-116328555D01*
X114101755Y-116141879D01*
X114120000Y-116143676D01*
X114157322Y-116140000D01*
X114157333Y-116140000D01*
X114268986Y-116129003D01*
X114412247Y-116085546D01*
X114544276Y-116014974D01*
X114660001Y-115920001D01*
X114683804Y-115890997D01*
X115215739Y-115359062D01*
X115142429Y-115513996D01*
X115073700Y-115788184D01*
X115059783Y-116070512D01*
X115101213Y-116350130D01*
X115196397Y-116616292D01*
X115263329Y-116741514D01*
X115507298Y-116813097D01*
X116320395Y-116000000D01*
X116306253Y-115985858D01*
X116485858Y-115806253D01*
X116500000Y-115820395D01*
X116514143Y-115806253D01*
X116693748Y-115985858D01*
X116679605Y-116000000D01*
X117492702Y-116813097D01*
X117736671Y-116741514D01*
X117857571Y-116486004D01*
X117926300Y-116211816D01*
X117940217Y-115929488D01*
X117898787Y-115649870D01*
X117803603Y-115383708D01*
X117797513Y-115372314D01*
X120061202Y-117636004D01*
X120085000Y-117665002D01*
X120200725Y-117759975D01*
X120332754Y-117830547D01*
X120476015Y-117874004D01*
X120587668Y-117885001D01*
X120587677Y-117885001D01*
X120625000Y-117888677D01*
X120662323Y-117885001D01*
X125077677Y-117885001D01*
X125114999Y-117888677D01*
X125152321Y-117885001D01*
X125152332Y-117885001D01*
X125263985Y-117874004D01*
X125407246Y-117830547D01*
X125539275Y-117759975D01*
X125655000Y-117665002D01*
X125678803Y-117635998D01*
X126174094Y-117140708D01*
X126218691Y-117154236D01*
X126429508Y-117175000D01*
X126570492Y-117175000D01*
X126781309Y-117154236D01*
X127051808Y-117072182D01*
X127301101Y-116938932D01*
X127519608Y-116759608D01*
X127698932Y-116541101D01*
X127832182Y-116291808D01*
X127914236Y-116021309D01*
X127941943Y-115740000D01*
X127914236Y-115458691D01*
X127832182Y-115188192D01*
X127698932Y-114938899D01*
X127519608Y-114720392D01*
X127301101Y-114541068D01*
X127168142Y-114470000D01*
X127301101Y-114398932D01*
X127519608Y-114219608D01*
X127698932Y-114001101D01*
X127832182Y-113751808D01*
X127914236Y-113481309D01*
X127941943Y-113200000D01*
X127914236Y-112918691D01*
X127832182Y-112648192D01*
X127698932Y-112398899D01*
X127519608Y-112180392D01*
X127301101Y-112001068D01*
X127168142Y-111930000D01*
X127301101Y-111858932D01*
X127519608Y-111679608D01*
X127698932Y-111461101D01*
X127832182Y-111211808D01*
X127914236Y-110941309D01*
X127941943Y-110660000D01*
X127914236Y-110378691D01*
X127832182Y-110108192D01*
X127698932Y-109858899D01*
X127519608Y-109640392D01*
X127301101Y-109461068D01*
X127168142Y-109390000D01*
X127301101Y-109318932D01*
X127519608Y-109139608D01*
X127698932Y-108921101D01*
X127832182Y-108671808D01*
X127914236Y-108401309D01*
X127941943Y-108120000D01*
X127924875Y-107946704D01*
X127956531Y-107915048D01*
X127956534Y-107915044D01*
X128696224Y-107175358D01*
X128710032Y-107165347D01*
X128757749Y-107113833D01*
X128776534Y-107095048D01*
X128787296Y-107081935D01*
X128828498Y-107037454D01*
X128842469Y-107014707D01*
X128859413Y-106994061D01*
X128888008Y-106940563D01*
X128919736Y-106888905D01*
X128929002Y-106863868D01*
X128941591Y-106840315D01*
X128959195Y-106782282D01*
X128980242Y-106725412D01*
X128984446Y-106699044D01*
X128992197Y-106673492D01*
X128998141Y-106613142D01*
X129000810Y-106596400D01*
X129002400Y-106569896D01*
X129009284Y-106500002D01*
X129007612Y-106483026D01*
X129032398Y-106069906D01*
X129035001Y-106043477D01*
X129035001Y-106026521D01*
X129036016Y-106009603D01*
X129035001Y-105983081D01*
X129035001Y-95360623D01*
X129081426Y-95379853D01*
X129358665Y-95435000D01*
X129641335Y-95435000D01*
X129918574Y-95379853D01*
X130179727Y-95271680D01*
X130414759Y-95114637D01*
X130614637Y-94914759D01*
X130771680Y-94679727D01*
X130879853Y-94418574D01*
X130935000Y-94141335D01*
X130935000Y-93858665D01*
X130879853Y-93581426D01*
X130771680Y-93320273D01*
X130614637Y-93085241D01*
X130414759Y-92885363D01*
X130179727Y-92728320D01*
X129918574Y-92620147D01*
X129641335Y-92565000D01*
X129358665Y-92565000D01*
X129081426Y-92620147D01*
X129035001Y-92639377D01*
X129035001Y-88360623D01*
X129081426Y-88379853D01*
G36*
X120559203Y-75594004D02*
G01*
X120536487Y-75668889D01*
X120507815Y-75960000D01*
X120536487Y-76251111D01*
X120621401Y-76531034D01*
X120759294Y-76789014D01*
X120944866Y-77015134D01*
X120974687Y-77039607D01*
X120905820Y-77060498D01*
X120795506Y-77119463D01*
X120698815Y-77198815D01*
X120619463Y-77295506D01*
X120560498Y-77405820D01*
X120524188Y-77525518D01*
X120511928Y-77650000D01*
X120511928Y-79350000D01*
X120524188Y-79474482D01*
X120560498Y-79594180D01*
X120619463Y-79704494D01*
X120698815Y-79801185D01*
X120795506Y-79880537D01*
X120905820Y-79939502D01*
X121025518Y-79975812D01*
X121150000Y-79988072D01*
X122850000Y-79988072D01*
X122974482Y-79975812D01*
X123094180Y-79939502D01*
X123204494Y-79880537D01*
X123301185Y-79801185D01*
X123380537Y-79704494D01*
X123439502Y-79594180D01*
X123475812Y-79474482D01*
X123488072Y-79350000D01*
X123488072Y-78072924D01*
X126013586Y-80598439D01*
X125963038Y-80648987D01*
X125816939Y-80867641D01*
X125716304Y-81110595D01*
X125665000Y-81368514D01*
X125665000Y-81631486D01*
X125716304Y-81889405D01*
X125816939Y-82132359D01*
X125963038Y-82351013D01*
X126148987Y-82536962D01*
X126367641Y-82683061D01*
X126482632Y-82730692D01*
X126300877Y-82797147D01*
X126077340Y-82933241D01*
X125884649Y-83110330D01*
X125730208Y-83321608D01*
X125619953Y-83558956D01*
X125587284Y-83666671D01*
X125710626Y-83873000D01*
X126753000Y-83873000D01*
X126753000Y-83853000D01*
X127007000Y-83853000D01*
X127007000Y-83873000D01*
X127027000Y-83873000D01*
X127027000Y-84127000D01*
X127007000Y-84127000D01*
X127007000Y-85170201D01*
X127127000Y-85241458D01*
X127127000Y-86253000D01*
X127147000Y-86253000D01*
X127147000Y-86507000D01*
X127127000Y-86507000D01*
X127127000Y-87549374D01*
X127265001Y-87631870D01*
X127265002Y-92691558D01*
X127131486Y-92665000D01*
X126868514Y-92665000D01*
X126610595Y-92716304D01*
X126367641Y-92816939D01*
X126243331Y-92900000D01*
X124896025Y-92900000D01*
X124889191Y-92877471D01*
X124700227Y-92523944D01*
X124445924Y-92214076D01*
X124136056Y-91959773D01*
X123782529Y-91770809D01*
X123398930Y-91654445D01*
X123099969Y-91625000D01*
X122900031Y-91625000D01*
X122601070Y-91654445D01*
X122217471Y-91770809D01*
X121863944Y-91959773D01*
X121554076Y-92214076D01*
X121299773Y-92523944D01*
X121110809Y-92877471D01*
X120994445Y-93261070D01*
X120955154Y-93660000D01*
X120994445Y-94058930D01*
X121110809Y-94442529D01*
X121299773Y-94796056D01*
X121554076Y-95105924D01*
X121863944Y-95360227D01*
X122217471Y-95549191D01*
X122601070Y-95665555D01*
X122900031Y-95695000D01*
X123099969Y-95695000D01*
X123398930Y-95665555D01*
X123782529Y-95549191D01*
X124136056Y-95360227D01*
X124445924Y-95105924D01*
X124700227Y-94796056D01*
X124889191Y-94442529D01*
X124896025Y-94420000D01*
X125728977Y-94420000D01*
X125816939Y-94632359D01*
X125963038Y-94851013D01*
X126148987Y-95036962D01*
X126240000Y-95097775D01*
X126240001Y-96190563D01*
X126110595Y-96216304D01*
X125867641Y-96316939D01*
X125648987Y-96463038D01*
X125463038Y-96648987D01*
X125316939Y-96867641D01*
X125216304Y-97110595D01*
X125169277Y-97347012D01*
X125036962Y-97148987D01*
X124851013Y-96963038D01*
X124632359Y-96816939D01*
X124389405Y-96716304D01*
X124131486Y-96665000D01*
X123868514Y-96665000D01*
X123610595Y-96716304D01*
X123367641Y-96816939D01*
X123148987Y-96963038D01*
X122963038Y-97148987D01*
X122816939Y-97367641D01*
X122716304Y-97610595D01*
X122665000Y-97868514D01*
X122665000Y-98131486D01*
X122716304Y-98389405D01*
X122816939Y-98632359D01*
X122963038Y-98851013D01*
X123148987Y-99036962D01*
X123367641Y-99183061D01*
X123529246Y-99250000D01*
X123367641Y-99316939D01*
X123148987Y-99463038D01*
X122963038Y-99648987D01*
X122816939Y-99867641D01*
X122716304Y-100110595D01*
X122665000Y-100368514D01*
X122665000Y-100631486D01*
X122716304Y-100889405D01*
X122816939Y-101132359D01*
X122963038Y-101351013D01*
X123148987Y-101536962D01*
X123367641Y-101683061D01*
X123529246Y-101750000D01*
X123367641Y-101816939D01*
X123148987Y-101963038D01*
X122963038Y-102148987D01*
X122816939Y-102367641D01*
X122716304Y-102610595D01*
X122665000Y-102868514D01*
X122665000Y-103131486D01*
X122716304Y-103389405D01*
X122816939Y-103632359D01*
X122963038Y-103851013D01*
X123148987Y-104036962D01*
X123367641Y-104183061D01*
X123529246Y-104250000D01*
X123367641Y-104316939D01*
X123148987Y-104463038D01*
X122963038Y-104648987D01*
X122816939Y-104867641D01*
X122716304Y-105110595D01*
X122665000Y-105368514D01*
X122665000Y-105631486D01*
X122716304Y-105889405D01*
X122816939Y-106132359D01*
X122963038Y-106351013D01*
X123148987Y-106536962D01*
X123367641Y-106683061D01*
X123529246Y-106750000D01*
X123367641Y-106816939D01*
X123148987Y-106963038D01*
X122963038Y-107148987D01*
X122816939Y-107367641D01*
X122716304Y-107610595D01*
X122665000Y-107868514D01*
X122665000Y-108131486D01*
X122716304Y-108389405D01*
X122816939Y-108632359D01*
X122963038Y-108851013D01*
X123148987Y-109036962D01*
X123240000Y-109097775D01*
X123240001Y-109495183D01*
X123171445Y-109551445D01*
X123004618Y-109754725D01*
X122880653Y-109986646D01*
X122804317Y-110238294D01*
X122778541Y-110500000D01*
X122802450Y-110742748D01*
X121788997Y-111756202D01*
X121759999Y-111780000D01*
X121736201Y-111808998D01*
X121736200Y-111808999D01*
X121665025Y-111895725D01*
X121594453Y-112027755D01*
X121568099Y-112114637D01*
X121550997Y-112171015D01*
X121543119Y-112250997D01*
X121536323Y-112320001D01*
X121540000Y-112357333D01*
X121539999Y-114565000D01*
X121358665Y-114565000D01*
X121081426Y-114620147D01*
X120820273Y-114728320D01*
X120585241Y-114885363D01*
X120385363Y-115085241D01*
X120228320Y-115320273D01*
X120130715Y-115555913D01*
X117813645Y-113238844D01*
X117835000Y-113131486D01*
X117835000Y-112868514D01*
X117813645Y-112761156D01*
X118035998Y-112538803D01*
X118065002Y-112515000D01*
X118159975Y-112399275D01*
X118230547Y-112267246D01*
X118274004Y-112123985D01*
X118285001Y-112012332D01*
X118285001Y-112012323D01*
X118288677Y-111975000D01*
X118285001Y-111937677D01*
X118285001Y-97712323D01*
X118288677Y-97675000D01*
X118285001Y-97637677D01*
X118285001Y-97637668D01*
X118274004Y-97526015D01*
X118230547Y-97382754D01*
X118159975Y-97250725D01*
X118065002Y-97135000D01*
X118036005Y-97111203D01*
X117584999Y-96660198D01*
X117584999Y-89993555D01*
X117696063Y-90159774D01*
X117840226Y-90303937D01*
X118009744Y-90417205D01*
X118198102Y-90495226D01*
X118398061Y-90535000D01*
X118601939Y-90535000D01*
X118801898Y-90495226D01*
X118990256Y-90417205D01*
X119159774Y-90303937D01*
X119303937Y-90159774D01*
X119417205Y-89990256D01*
X119495226Y-89801898D01*
X119535000Y-89601939D01*
X119535000Y-89398061D01*
X119495226Y-89198102D01*
X119417205Y-89009744D01*
X119303937Y-88840226D01*
X119159774Y-88696063D01*
X118990256Y-88582795D01*
X118801898Y-88504774D01*
X118760000Y-88496440D01*
X118760000Y-86713330D01*
X125707278Y-86713330D01*
X125797147Y-86959123D01*
X125933241Y-87182660D01*
X126110330Y-87375351D01*
X126321608Y-87529792D01*
X126558956Y-87640047D01*
X126666671Y-87672716D01*
X126873000Y-87549374D01*
X126873000Y-86507000D01*
X125829799Y-86507000D01*
X125707278Y-86713330D01*
X118760000Y-86713330D01*
X118760000Y-84900000D01*
X120961928Y-84900000D01*
X120974188Y-85024482D01*
X121010498Y-85144180D01*
X121069463Y-85254494D01*
X121148815Y-85351185D01*
X121245506Y-85430537D01*
X121355820Y-85489502D01*
X121475518Y-85525812D01*
X121600000Y-85538072D01*
X122714250Y-85535000D01*
X122873000Y-85376250D01*
X122873000Y-83627000D01*
X123127000Y-83627000D01*
X123127000Y-85376250D01*
X123285750Y-85535000D01*
X124400000Y-85538072D01*
X124524482Y-85525812D01*
X124644180Y-85489502D01*
X124754494Y-85430537D01*
X124851185Y-85351185D01*
X124930537Y-85254494D01*
X124989502Y-85144180D01*
X125025812Y-85024482D01*
X125038072Y-84900000D01*
X125036510Y-84333329D01*
X125587284Y-84333329D01*
X125619953Y-84441044D01*
X125730208Y-84678392D01*
X125884649Y-84889670D01*
X126077340Y-85066759D01*
X126300877Y-85202853D01*
X126345429Y-85219142D01*
X126321608Y-85230208D01*
X126110330Y-85384649D01*
X125933241Y-85577340D01*
X125797147Y-85800877D01*
X125707278Y-86046670D01*
X125829799Y-86253000D01*
X126873000Y-86253000D01*
X126873000Y-85210626D01*
X126753000Y-85138891D01*
X126753000Y-84127000D01*
X125710626Y-84127000D01*
X125587284Y-84333329D01*
X125036510Y-84333329D01*
X125035000Y-83785750D01*
X124876250Y-83627000D01*
X123127000Y-83627000D01*
X122873000Y-83627000D01*
X121123750Y-83627000D01*
X120965000Y-83785750D01*
X120961928Y-84900000D01*
X118760000Y-84900000D01*
X118760000Y-82100000D01*
X120961928Y-82100000D01*
X120965000Y-83214250D01*
X121123750Y-83373000D01*
X122873000Y-83373000D01*
X122873000Y-81623750D01*
X123127000Y-81623750D01*
X123127000Y-83373000D01*
X124876250Y-83373000D01*
X125035000Y-83214250D01*
X125038072Y-82100000D01*
X125025812Y-81975518D01*
X124989502Y-81855820D01*
X124930537Y-81745506D01*
X124851185Y-81648815D01*
X124754494Y-81569463D01*
X124644180Y-81510498D01*
X124524482Y-81474188D01*
X124400000Y-81461928D01*
X123285750Y-81465000D01*
X123127000Y-81623750D01*
X122873000Y-81623750D01*
X122714250Y-81465000D01*
X121600000Y-81461928D01*
X121475518Y-81474188D01*
X121355820Y-81510498D01*
X121245506Y-81569463D01*
X121148815Y-81648815D01*
X121069463Y-81745506D01*
X121010498Y-81855820D01*
X120974188Y-81975518D01*
X120961928Y-82100000D01*
X118760000Y-82100000D01*
X118760000Y-79817595D01*
X118829014Y-79780706D01*
X119055134Y-79595134D01*
X119240706Y-79369014D01*
X119378599Y-79111034D01*
X119463513Y-78831111D01*
X119492185Y-78540000D01*
X119463513Y-78248889D01*
X119378599Y-77968966D01*
X119240706Y-77710986D01*
X119055134Y-77484866D01*
X119025313Y-77460393D01*
X119094180Y-77439502D01*
X119204494Y-77380537D01*
X119301185Y-77301185D01*
X119380537Y-77204494D01*
X119439502Y-77094180D01*
X119475812Y-76974482D01*
X119488072Y-76850000D01*
X119488072Y-75584999D01*
X120550198Y-75584999D01*
X120559203Y-75594004D01*
X120559203Y-75594004D01*
G37*
X120559203Y-75594004D02*
X120536487Y-75668889D01*
X120507815Y-75960000D01*
X120536487Y-76251111D01*
X120621401Y-76531034D01*
X120759294Y-76789014D01*
X120944866Y-77015134D01*
X120974687Y-77039607D01*
X120905820Y-77060498D01*
X120795506Y-77119463D01*
X120698815Y-77198815D01*
X120619463Y-77295506D01*
X120560498Y-77405820D01*
X120524188Y-77525518D01*
X120511928Y-77650000D01*
X120511928Y-79350000D01*
X120524188Y-79474482D01*
X120560498Y-79594180D01*
X120619463Y-79704494D01*
X120698815Y-79801185D01*
X120795506Y-79880537D01*
X120905820Y-79939502D01*
X121025518Y-79975812D01*
X121150000Y-79988072D01*
X122850000Y-79988072D01*
X122974482Y-79975812D01*
X123094180Y-79939502D01*
X123204494Y-79880537D01*
X123301185Y-79801185D01*
X123380537Y-79704494D01*
X123439502Y-79594180D01*
X123475812Y-79474482D01*
X123488072Y-79350000D01*
X123488072Y-78072924D01*
X126013586Y-80598439D01*
X125963038Y-80648987D01*
X125816939Y-80867641D01*
X125716304Y-81110595D01*
X125665000Y-81368514D01*
X125665000Y-81631486D01*
X125716304Y-81889405D01*
X125816939Y-82132359D01*
X125963038Y-82351013D01*
X126148987Y-82536962D01*
X126367641Y-82683061D01*
X126482632Y-82730692D01*
X126300877Y-82797147D01*
X126077340Y-82933241D01*
X125884649Y-83110330D01*
X125730208Y-83321608D01*
X125619953Y-83558956D01*
X125587284Y-83666671D01*
X125710626Y-83873000D01*
X126753000Y-83873000D01*
X126753000Y-83853000D01*
X127007000Y-83853000D01*
X127007000Y-83873000D01*
X127027000Y-83873000D01*
X127027000Y-84127000D01*
X127007000Y-84127000D01*
X127007000Y-85170201D01*
X127127000Y-85241458D01*
X127127000Y-86253000D01*
X127147000Y-86253000D01*
X127147000Y-86507000D01*
X127127000Y-86507000D01*
X127127000Y-87549374D01*
X127265001Y-87631870D01*
X127265002Y-92691558D01*
X127131486Y-92665000D01*
X126868514Y-92665000D01*
X126610595Y-92716304D01*
X126367641Y-92816939D01*
X126243331Y-92900000D01*
X124896025Y-92900000D01*
X124889191Y-92877471D01*
X124700227Y-92523944D01*
X124445924Y-92214076D01*
X124136056Y-91959773D01*
X123782529Y-91770809D01*
X123398930Y-91654445D01*
X123099969Y-91625000D01*
X122900031Y-91625000D01*
X122601070Y-91654445D01*
X122217471Y-91770809D01*
X121863944Y-91959773D01*
X121554076Y-92214076D01*
X121299773Y-92523944D01*
X121110809Y-92877471D01*
X120994445Y-93261070D01*
X120955154Y-93660000D01*
X120994445Y-94058930D01*
X121110809Y-94442529D01*
X121299773Y-94796056D01*
X121554076Y-95105924D01*
X121863944Y-95360227D01*
X122217471Y-95549191D01*
X122601070Y-95665555D01*
X122900031Y-95695000D01*
X123099969Y-95695000D01*
X123398930Y-95665555D01*
X123782529Y-95549191D01*
X124136056Y-95360227D01*
X124445924Y-95105924D01*
X124700227Y-94796056D01*
X124889191Y-94442529D01*
X124896025Y-94420000D01*
X125728977Y-94420000D01*
X125816939Y-94632359D01*
X125963038Y-94851013D01*
X126148987Y-95036962D01*
X126240000Y-95097775D01*
X126240001Y-96190563D01*
X126110595Y-96216304D01*
X125867641Y-96316939D01*
X125648987Y-96463038D01*
X125463038Y-96648987D01*
X125316939Y-96867641D01*
X125216304Y-97110595D01*
X125169277Y-97347012D01*
X125036962Y-97148987D01*
X124851013Y-96963038D01*
X124632359Y-96816939D01*
X124389405Y-96716304D01*
X124131486Y-96665000D01*
X123868514Y-96665000D01*
X123610595Y-96716304D01*
X123367641Y-96816939D01*
X123148987Y-96963038D01*
X122963038Y-97148987D01*
X122816939Y-97367641D01*
X122716304Y-97610595D01*
X122665000Y-97868514D01*
X122665000Y-98131486D01*
X122716304Y-98389405D01*
X122816939Y-98632359D01*
X122963038Y-98851013D01*
X123148987Y-99036962D01*
X123367641Y-99183061D01*
X123529246Y-99250000D01*
X123367641Y-99316939D01*
X123148987Y-99463038D01*
X122963038Y-99648987D01*
X122816939Y-99867641D01*
X122716304Y-100110595D01*
X122665000Y-100368514D01*
X122665000Y-100631486D01*
X122716304Y-100889405D01*
X122816939Y-101132359D01*
X122963038Y-101351013D01*
X123148987Y-101536962D01*
X123367641Y-101683061D01*
X123529246Y-101750000D01*
X123367641Y-101816939D01*
X123148987Y-101963038D01*
X122963038Y-102148987D01*
X122816939Y-102367641D01*
X122716304Y-102610595D01*
X122665000Y-102868514D01*
X122665000Y-103131486D01*
X122716304Y-103389405D01*
X122816939Y-103632359D01*
X122963038Y-103851013D01*
X123148987Y-104036962D01*
X123367641Y-104183061D01*
X123529246Y-104250000D01*
X123367641Y-104316939D01*
X123148987Y-104463038D01*
X122963038Y-104648987D01*
X122816939Y-104867641D01*
X122716304Y-105110595D01*
X122665000Y-105368514D01*
X122665000Y-105631486D01*
X122716304Y-105889405D01*
X122816939Y-106132359D01*
X122963038Y-106351013D01*
X123148987Y-106536962D01*
X123367641Y-106683061D01*
X123529246Y-106750000D01*
X123367641Y-106816939D01*
X123148987Y-106963038D01*
X122963038Y-107148987D01*
X122816939Y-107367641D01*
X122716304Y-107610595D01*
X122665000Y-107868514D01*
X122665000Y-108131486D01*
X122716304Y-108389405D01*
X122816939Y-108632359D01*
X122963038Y-108851013D01*
X123148987Y-109036962D01*
X123240000Y-109097775D01*
X123240001Y-109495183D01*
X123171445Y-109551445D01*
X123004618Y-109754725D01*
X122880653Y-109986646D01*
X122804317Y-110238294D01*
X122778541Y-110500000D01*
X122802450Y-110742748D01*
X121788997Y-111756202D01*
X121759999Y-111780000D01*
X121736201Y-111808998D01*
X121736200Y-111808999D01*
X121665025Y-111895725D01*
X121594453Y-112027755D01*
X121568099Y-112114637D01*
X121550997Y-112171015D01*
X121543119Y-112250997D01*
X121536323Y-112320001D01*
X121540000Y-112357333D01*
X121539999Y-114565000D01*
X121358665Y-114565000D01*
X121081426Y-114620147D01*
X120820273Y-114728320D01*
X120585241Y-114885363D01*
X120385363Y-115085241D01*
X120228320Y-115320273D01*
X120130715Y-115555913D01*
X117813645Y-113238844D01*
X117835000Y-113131486D01*
X117835000Y-112868514D01*
X117813645Y-112761156D01*
X118035998Y-112538803D01*
X118065002Y-112515000D01*
X118159975Y-112399275D01*
X118230547Y-112267246D01*
X118274004Y-112123985D01*
X118285001Y-112012332D01*
X118285001Y-112012323D01*
X118288677Y-111975000D01*
X118285001Y-111937677D01*
X118285001Y-97712323D01*
X118288677Y-97675000D01*
X118285001Y-97637677D01*
X118285001Y-97637668D01*
X118274004Y-97526015D01*
X118230547Y-97382754D01*
X118159975Y-97250725D01*
X118065002Y-97135000D01*
X118036005Y-97111203D01*
X117584999Y-96660198D01*
X117584999Y-89993555D01*
X117696063Y-90159774D01*
X117840226Y-90303937D01*
X118009744Y-90417205D01*
X118198102Y-90495226D01*
X118398061Y-90535000D01*
X118601939Y-90535000D01*
X118801898Y-90495226D01*
X118990256Y-90417205D01*
X119159774Y-90303937D01*
X119303937Y-90159774D01*
X119417205Y-89990256D01*
X119495226Y-89801898D01*
X119535000Y-89601939D01*
X119535000Y-89398061D01*
X119495226Y-89198102D01*
X119417205Y-89009744D01*
X119303937Y-88840226D01*
X119159774Y-88696063D01*
X118990256Y-88582795D01*
X118801898Y-88504774D01*
X118760000Y-88496440D01*
X118760000Y-86713330D01*
X125707278Y-86713330D01*
X125797147Y-86959123D01*
X125933241Y-87182660D01*
X126110330Y-87375351D01*
X126321608Y-87529792D01*
X126558956Y-87640047D01*
X126666671Y-87672716D01*
X126873000Y-87549374D01*
X126873000Y-86507000D01*
X125829799Y-86507000D01*
X125707278Y-86713330D01*
X118760000Y-86713330D01*
X118760000Y-84900000D01*
X120961928Y-84900000D01*
X120974188Y-85024482D01*
X121010498Y-85144180D01*
X121069463Y-85254494D01*
X121148815Y-85351185D01*
X121245506Y-85430537D01*
X121355820Y-85489502D01*
X121475518Y-85525812D01*
X121600000Y-85538072D01*
X122714250Y-85535000D01*
X122873000Y-85376250D01*
X122873000Y-83627000D01*
X123127000Y-83627000D01*
X123127000Y-85376250D01*
X123285750Y-85535000D01*
X124400000Y-85538072D01*
X124524482Y-85525812D01*
X124644180Y-85489502D01*
X124754494Y-85430537D01*
X124851185Y-85351185D01*
X124930537Y-85254494D01*
X124989502Y-85144180D01*
X125025812Y-85024482D01*
X125038072Y-84900000D01*
X125036510Y-84333329D01*
X125587284Y-84333329D01*
X125619953Y-84441044D01*
X125730208Y-84678392D01*
X125884649Y-84889670D01*
X126077340Y-85066759D01*
X126300877Y-85202853D01*
X126345429Y-85219142D01*
X126321608Y-85230208D01*
X126110330Y-85384649D01*
X125933241Y-85577340D01*
X125797147Y-85800877D01*
X125707278Y-86046670D01*
X125829799Y-86253000D01*
X126873000Y-86253000D01*
X126873000Y-85210626D01*
X126753000Y-85138891D01*
X126753000Y-84127000D01*
X125710626Y-84127000D01*
X125587284Y-84333329D01*
X125036510Y-84333329D01*
X125035000Y-83785750D01*
X124876250Y-83627000D01*
X123127000Y-83627000D01*
X122873000Y-83627000D01*
X121123750Y-83627000D01*
X120965000Y-83785750D01*
X120961928Y-84900000D01*
X118760000Y-84900000D01*
X118760000Y-82100000D01*
X120961928Y-82100000D01*
X120965000Y-83214250D01*
X121123750Y-83373000D01*
X122873000Y-83373000D01*
X122873000Y-81623750D01*
X123127000Y-81623750D01*
X123127000Y-83373000D01*
X124876250Y-83373000D01*
X125035000Y-83214250D01*
X125038072Y-82100000D01*
X125025812Y-81975518D01*
X124989502Y-81855820D01*
X124930537Y-81745506D01*
X124851185Y-81648815D01*
X124754494Y-81569463D01*
X124644180Y-81510498D01*
X124524482Y-81474188D01*
X124400000Y-81461928D01*
X123285750Y-81465000D01*
X123127000Y-81623750D01*
X122873000Y-81623750D01*
X122714250Y-81465000D01*
X121600000Y-81461928D01*
X121475518Y-81474188D01*
X121355820Y-81510498D01*
X121245506Y-81569463D01*
X121148815Y-81648815D01*
X121069463Y-81745506D01*
X121010498Y-81855820D01*
X120974188Y-81975518D01*
X120961928Y-82100000D01*
X118760000Y-82100000D01*
X118760000Y-79817595D01*
X118829014Y-79780706D01*
X119055134Y-79595134D01*
X119240706Y-79369014D01*
X119378599Y-79111034D01*
X119463513Y-78831111D01*
X119492185Y-78540000D01*
X119463513Y-78248889D01*
X119378599Y-77968966D01*
X119240706Y-77710986D01*
X119055134Y-77484866D01*
X119025313Y-77460393D01*
X119094180Y-77439502D01*
X119204494Y-77380537D01*
X119301185Y-77301185D01*
X119380537Y-77204494D01*
X119439502Y-77094180D01*
X119475812Y-76974482D01*
X119488072Y-76850000D01*
X119488072Y-75584999D01*
X120550198Y-75584999D01*
X120559203Y-75594004D01*
G36*
X116507000Y-105373000D02*
G01*
X116527000Y-105373000D01*
X116527000Y-105627000D01*
X116507000Y-105627000D01*
X116507000Y-106670201D01*
X116641385Y-106750000D01*
X116507000Y-106829799D01*
X116507000Y-107873000D01*
X116527000Y-107873000D01*
X116527000Y-108127000D01*
X116507000Y-108127000D01*
X116507000Y-108147000D01*
X116253000Y-108147000D01*
X116253000Y-108127000D01*
X115210626Y-108127000D01*
X115087284Y-108333329D01*
X115119953Y-108441044D01*
X115230208Y-108678392D01*
X115384649Y-108889670D01*
X115577340Y-109066759D01*
X115800877Y-109202853D01*
X115982632Y-109269308D01*
X115867641Y-109316939D01*
X115648987Y-109463038D01*
X115463038Y-109648987D01*
X115402225Y-109740000D01*
X112479805Y-109740000D01*
X112244200Y-109504395D01*
X112398061Y-109535000D01*
X112601939Y-109535000D01*
X112801898Y-109495226D01*
X112990256Y-109417205D01*
X113159774Y-109303937D01*
X113303937Y-109159774D01*
X113417205Y-108990256D01*
X113495226Y-108801898D01*
X113535000Y-108601939D01*
X113535000Y-108398061D01*
X113495226Y-108198102D01*
X113417205Y-108009744D01*
X113303937Y-107840226D01*
X113260000Y-107796289D01*
X113260000Y-106498202D01*
X113486646Y-106619347D01*
X113738294Y-106695683D01*
X113934421Y-106715000D01*
X114065579Y-106715000D01*
X114261706Y-106695683D01*
X114513354Y-106619347D01*
X114745275Y-106495382D01*
X114948555Y-106328555D01*
X115115382Y-106125275D01*
X115163615Y-106035037D01*
X115230208Y-106178392D01*
X115384649Y-106389670D01*
X115577340Y-106566759D01*
X115800877Y-106702853D01*
X115929825Y-106750000D01*
X115800877Y-106797147D01*
X115577340Y-106933241D01*
X115384649Y-107110330D01*
X115230208Y-107321608D01*
X115119953Y-107558956D01*
X115087284Y-107666671D01*
X115210626Y-107873000D01*
X116253000Y-107873000D01*
X116253000Y-106829799D01*
X116118615Y-106750000D01*
X116253000Y-106670201D01*
X116253000Y-105627000D01*
X116233000Y-105627000D01*
X116233000Y-105373000D01*
X116253000Y-105373000D01*
X116253000Y-105353000D01*
X116507000Y-105353000D01*
X116507000Y-105373000D01*
X116507000Y-105373000D01*
G37*
X116507000Y-105373000D02*
X116527000Y-105373000D01*
X116527000Y-105627000D01*
X116507000Y-105627000D01*
X116507000Y-106670201D01*
X116641385Y-106750000D01*
X116507000Y-106829799D01*
X116507000Y-107873000D01*
X116527000Y-107873000D01*
X116527000Y-108127000D01*
X116507000Y-108127000D01*
X116507000Y-108147000D01*
X116253000Y-108147000D01*
X116253000Y-108127000D01*
X115210626Y-108127000D01*
X115087284Y-108333329D01*
X115119953Y-108441044D01*
X115230208Y-108678392D01*
X115384649Y-108889670D01*
X115577340Y-109066759D01*
X115800877Y-109202853D01*
X115982632Y-109269308D01*
X115867641Y-109316939D01*
X115648987Y-109463038D01*
X115463038Y-109648987D01*
X115402225Y-109740000D01*
X112479805Y-109740000D01*
X112244200Y-109504395D01*
X112398061Y-109535000D01*
X112601939Y-109535000D01*
X112801898Y-109495226D01*
X112990256Y-109417205D01*
X113159774Y-109303937D01*
X113303937Y-109159774D01*
X113417205Y-108990256D01*
X113495226Y-108801898D01*
X113535000Y-108601939D01*
X113535000Y-108398061D01*
X113495226Y-108198102D01*
X113417205Y-108009744D01*
X113303937Y-107840226D01*
X113260000Y-107796289D01*
X113260000Y-106498202D01*
X113486646Y-106619347D01*
X113738294Y-106695683D01*
X113934421Y-106715000D01*
X114065579Y-106715000D01*
X114261706Y-106695683D01*
X114513354Y-106619347D01*
X114745275Y-106495382D01*
X114948555Y-106328555D01*
X115115382Y-106125275D01*
X115163615Y-106035037D01*
X115230208Y-106178392D01*
X115384649Y-106389670D01*
X115577340Y-106566759D01*
X115800877Y-106702853D01*
X115929825Y-106750000D01*
X115800877Y-106797147D01*
X115577340Y-106933241D01*
X115384649Y-107110330D01*
X115230208Y-107321608D01*
X115119953Y-107558956D01*
X115087284Y-107666671D01*
X115210626Y-107873000D01*
X116253000Y-107873000D01*
X116253000Y-106829799D01*
X116118615Y-106750000D01*
X116253000Y-106670201D01*
X116253000Y-105627000D01*
X116233000Y-105627000D01*
X116233000Y-105373000D01*
X116253000Y-105373000D01*
X116253000Y-105353000D01*
X116507000Y-105353000D01*
X116507000Y-105373000D01*
G36*
X128011928Y-61850000D02*
G01*
X128024188Y-61974482D01*
X128060498Y-62094180D01*
X128119463Y-62204494D01*
X128198815Y-62301185D01*
X128295506Y-62380537D01*
X128405820Y-62439502D01*
X128525518Y-62475812D01*
X128650000Y-62488072D01*
X128658542Y-62488072D01*
X128651208Y-62511603D01*
X129500000Y-63360395D01*
X130348792Y-62511603D01*
X130341458Y-62488072D01*
X130350000Y-62488072D01*
X130474482Y-62475812D01*
X130594180Y-62439502D01*
X130704494Y-62380537D01*
X130801185Y-62301185D01*
X130880537Y-62204494D01*
X130939502Y-62094180D01*
X130961513Y-62021620D01*
X131093368Y-62153475D01*
X131266729Y-62269311D01*
X131191208Y-62511603D01*
X132040000Y-63360395D01*
X132054143Y-63346253D01*
X132233748Y-63525858D01*
X132219605Y-63540000D01*
X133068397Y-64388792D01*
X133317472Y-64311157D01*
X133443371Y-64047117D01*
X133515339Y-63763589D01*
X133517161Y-63728740D01*
X134424953Y-64636532D01*
X134424958Y-64636536D01*
X134885002Y-65096581D01*
X134885002Y-77215428D01*
X134631486Y-77165000D01*
X134368514Y-77165000D01*
X134110595Y-77216304D01*
X133867641Y-77316939D01*
X133648987Y-77463038D01*
X133463038Y-77648987D01*
X133316939Y-77867641D01*
X133216304Y-78110595D01*
X133165000Y-78368514D01*
X133165000Y-78631486D01*
X133216304Y-78889405D01*
X133316939Y-79132359D01*
X133463038Y-79351013D01*
X133648987Y-79536962D01*
X133867641Y-79683061D01*
X134110595Y-79783696D01*
X134368514Y-79835000D01*
X134631486Y-79835000D01*
X134885002Y-79784572D01*
X134885002Y-80185317D01*
X134881706Y-80184317D01*
X134685579Y-80165000D01*
X134554421Y-80165000D01*
X134358294Y-80184317D01*
X134106646Y-80260653D01*
X133874725Y-80384618D01*
X133671445Y-80551445D01*
X133504618Y-80754725D01*
X133380653Y-80986646D01*
X133304317Y-81238294D01*
X133278541Y-81500000D01*
X133304317Y-81761706D01*
X133380653Y-82013354D01*
X133504618Y-82245275D01*
X133671445Y-82448555D01*
X133874725Y-82615382D01*
X134084082Y-82727286D01*
X133867641Y-82816939D01*
X133648987Y-82963038D01*
X133463038Y-83148987D01*
X133316939Y-83367641D01*
X133216304Y-83610595D01*
X133165000Y-83868514D01*
X133165000Y-84131486D01*
X133216304Y-84389405D01*
X133316939Y-84632359D01*
X133463038Y-84851013D01*
X133648987Y-85036962D01*
X133740001Y-85097775D01*
X133740000Y-85781956D01*
X133585241Y-85885363D01*
X133385363Y-86085241D01*
X133228320Y-86320273D01*
X133120147Y-86581426D01*
X133065000Y-86858665D01*
X133065000Y-87141335D01*
X133120147Y-87418574D01*
X133228320Y-87679727D01*
X133385363Y-87914759D01*
X133585241Y-88114637D01*
X133820273Y-88271680D01*
X134081426Y-88379853D01*
X134358665Y-88435000D01*
X134641335Y-88435000D01*
X134885001Y-88386531D01*
X134885001Y-92613469D01*
X134641335Y-92565000D01*
X134358665Y-92565000D01*
X134081426Y-92620147D01*
X133820273Y-92728320D01*
X133585241Y-92885363D01*
X133385363Y-93085241D01*
X133228320Y-93320273D01*
X133120147Y-93581426D01*
X133065000Y-93858665D01*
X133065000Y-94141335D01*
X133120147Y-94418574D01*
X133228320Y-94679727D01*
X133385363Y-94914759D01*
X133585241Y-95114637D01*
X133745202Y-95221519D01*
X133750997Y-95280355D01*
X133781179Y-95379853D01*
X133794454Y-95423616D01*
X133865026Y-95555646D01*
X133904871Y-95604196D01*
X133959999Y-95671371D01*
X133989002Y-95695173D01*
X134385002Y-96091174D01*
X134385002Y-96185317D01*
X134381706Y-96184317D01*
X134185579Y-96165000D01*
X134054421Y-96165000D01*
X133858294Y-96184317D01*
X133606646Y-96260653D01*
X133374725Y-96384618D01*
X133171445Y-96551445D01*
X133004618Y-96754725D01*
X132880653Y-96986646D01*
X132804317Y-97238294D01*
X132778541Y-97500000D01*
X132804317Y-97761706D01*
X132880653Y-98013354D01*
X133004618Y-98245275D01*
X133171445Y-98448555D01*
X133374725Y-98615382D01*
X133606646Y-98739347D01*
X133858294Y-98815683D01*
X134054421Y-98835000D01*
X134185579Y-98835000D01*
X134381706Y-98815683D01*
X134385001Y-98814683D01*
X134385001Y-99084158D01*
X134190492Y-99065000D01*
X134049508Y-99065000D01*
X133838691Y-99085764D01*
X133568192Y-99167818D01*
X133318899Y-99301068D01*
X133100392Y-99480392D01*
X132921068Y-99698899D01*
X132787818Y-99948192D01*
X132760000Y-100039897D01*
X132760000Y-89537323D01*
X132763676Y-89500000D01*
X132760000Y-89462677D01*
X132760000Y-89462667D01*
X132749003Y-89351014D01*
X132705546Y-89207753D01*
X132674134Y-89148986D01*
X132634974Y-89075723D01*
X132563799Y-88988997D01*
X132540001Y-88959999D01*
X132511004Y-88936202D01*
X130898688Y-87323886D01*
X130935000Y-87141335D01*
X130935000Y-86858665D01*
X130879853Y-86581426D01*
X130771680Y-86320273D01*
X130614637Y-86085241D01*
X130414759Y-85885363D01*
X130179727Y-85728320D01*
X129918574Y-85620147D01*
X129641335Y-85565000D01*
X129358665Y-85565000D01*
X129081426Y-85620147D01*
X129035001Y-85639377D01*
X129035001Y-72876577D01*
X129281040Y-72630539D01*
X129353740Y-72645000D01*
X129646260Y-72645000D01*
X129933158Y-72587932D01*
X130203411Y-72475990D01*
X130446632Y-72313475D01*
X130653475Y-72106632D01*
X130694656Y-72045000D01*
X130845344Y-72045000D01*
X130886525Y-72106632D01*
X131093368Y-72313475D01*
X131336589Y-72475990D01*
X131606842Y-72587932D01*
X131893740Y-72645000D01*
X132186260Y-72645000D01*
X132473158Y-72587932D01*
X132743411Y-72475990D01*
X132986632Y-72313475D01*
X133193475Y-72106632D01*
X133355990Y-71863411D01*
X133467932Y-71593158D01*
X133525000Y-71306260D01*
X133525000Y-71013740D01*
X133467932Y-70726842D01*
X133355990Y-70456589D01*
X133193475Y-70213368D01*
X132986632Y-70006525D01*
X132813271Y-69890689D01*
X132888792Y-69648397D01*
X132040000Y-68799605D01*
X131191208Y-69648397D01*
X131266729Y-69890689D01*
X131093368Y-70006525D01*
X130886525Y-70213368D01*
X130845344Y-70275000D01*
X130694656Y-70275000D01*
X130653475Y-70213368D01*
X130446632Y-70006525D01*
X130273271Y-69890689D01*
X130348792Y-69648397D01*
X129500000Y-68799605D01*
X128651208Y-69648397D01*
X128726729Y-69890689D01*
X128553368Y-70006525D01*
X128346525Y-70213368D01*
X128305344Y-70275000D01*
X121438072Y-70275000D01*
X121438072Y-70200000D01*
X121425812Y-70075518D01*
X121389502Y-69955820D01*
X121330537Y-69845506D01*
X121251185Y-69748815D01*
X121154494Y-69669463D01*
X121044180Y-69610498D01*
X120924482Y-69574188D01*
X120800000Y-69561928D01*
X120792785Y-69561928D01*
X120813097Y-69492702D01*
X120000000Y-68679605D01*
X119985858Y-68693748D01*
X119806253Y-68514143D01*
X119820395Y-68500000D01*
X120179605Y-68500000D01*
X120992702Y-69313097D01*
X121236671Y-69241514D01*
X121357571Y-68986004D01*
X121426300Y-68711816D01*
X121427447Y-68688531D01*
X128009389Y-68688531D01*
X128051401Y-68978019D01*
X128149081Y-69253747D01*
X128222528Y-69391157D01*
X128471603Y-69468792D01*
X129320395Y-68620000D01*
X129679605Y-68620000D01*
X130528397Y-69468792D01*
X130770000Y-69393486D01*
X131011603Y-69468792D01*
X131860395Y-68620000D01*
X132219605Y-68620000D01*
X133068397Y-69468792D01*
X133317472Y-69391157D01*
X133443371Y-69127117D01*
X133515339Y-68843589D01*
X133530611Y-68551469D01*
X133488599Y-68261981D01*
X133390919Y-67986253D01*
X133317472Y-67848843D01*
X133068397Y-67771208D01*
X132219605Y-68620000D01*
X131860395Y-68620000D01*
X131011603Y-67771208D01*
X130770000Y-67846514D01*
X130528397Y-67771208D01*
X129679605Y-68620000D01*
X129320395Y-68620000D01*
X128471603Y-67771208D01*
X128222528Y-67848843D01*
X128096629Y-68112883D01*
X128024661Y-68396411D01*
X128009389Y-68688531D01*
X121427447Y-68688531D01*
X121440217Y-68429488D01*
X121398787Y-68149870D01*
X121303603Y-67883708D01*
X121236671Y-67758486D01*
X120992702Y-67686903D01*
X120179605Y-68500000D01*
X119820395Y-68500000D01*
X119806253Y-68485858D01*
X119985858Y-68306253D01*
X120000000Y-68320395D01*
X120813097Y-67507298D01*
X120741514Y-67263329D01*
X120486004Y-67142429D01*
X120350237Y-67108397D01*
X128651208Y-67108397D01*
X128726514Y-67350000D01*
X128651208Y-67591603D01*
X129500000Y-68440395D01*
X130348792Y-67591603D01*
X130273486Y-67350000D01*
X130348792Y-67108397D01*
X131191208Y-67108397D01*
X131266514Y-67350000D01*
X131191208Y-67591603D01*
X132040000Y-68440395D01*
X132888792Y-67591603D01*
X132813486Y-67350000D01*
X132888792Y-67108397D01*
X132040000Y-66259605D01*
X131191208Y-67108397D01*
X130348792Y-67108397D01*
X129500000Y-66259605D01*
X128651208Y-67108397D01*
X120350237Y-67108397D01*
X120211816Y-67073700D01*
X119929488Y-67059783D01*
X119649870Y-67101213D01*
X119634999Y-67106531D01*
X119634999Y-66148531D01*
X128009389Y-66148531D01*
X128051401Y-66438019D01*
X128149081Y-66713747D01*
X128222528Y-66851157D01*
X128471603Y-66928792D01*
X129320395Y-66080000D01*
X129679605Y-66080000D01*
X130528397Y-66928792D01*
X130770000Y-66853486D01*
X131011603Y-66928792D01*
X131860395Y-66080000D01*
X132219605Y-66080000D01*
X133068397Y-66928792D01*
X133317472Y-66851157D01*
X133443371Y-66587117D01*
X133515339Y-66303589D01*
X133530611Y-66011469D01*
X133488599Y-65721981D01*
X133390919Y-65446253D01*
X133317472Y-65308843D01*
X133068397Y-65231208D01*
X132219605Y-66080000D01*
X131860395Y-66080000D01*
X131011603Y-65231208D01*
X130770000Y-65306514D01*
X130528397Y-65231208D01*
X129679605Y-66080000D01*
X129320395Y-66080000D01*
X128471603Y-65231208D01*
X128222528Y-65308843D01*
X128096629Y-65572883D01*
X128024661Y-65856411D01*
X128009389Y-66148531D01*
X119634999Y-66148531D01*
X119634999Y-64568397D01*
X128651208Y-64568397D01*
X128726514Y-64810000D01*
X128651208Y-65051603D01*
X129500000Y-65900395D01*
X130348792Y-65051603D01*
X130273486Y-64810000D01*
X130348792Y-64568397D01*
X131191208Y-64568397D01*
X131266514Y-64810000D01*
X131191208Y-65051603D01*
X132040000Y-65900395D01*
X132888792Y-65051603D01*
X132813486Y-64810000D01*
X132888792Y-64568397D01*
X132040000Y-63719605D01*
X131191208Y-64568397D01*
X130348792Y-64568397D01*
X129500000Y-63719605D01*
X128651208Y-64568397D01*
X119634999Y-64568397D01*
X119634999Y-64435473D01*
X119714250Y-64435000D01*
X119873000Y-64276250D01*
X119873000Y-63127000D01*
X120127000Y-63127000D01*
X120127000Y-64276250D01*
X120285750Y-64435000D01*
X120800000Y-64438072D01*
X120924482Y-64425812D01*
X121044180Y-64389502D01*
X121154494Y-64330537D01*
X121251185Y-64251185D01*
X121330537Y-64154494D01*
X121389502Y-64044180D01*
X121425812Y-63924482D01*
X121438072Y-63800000D01*
X121436929Y-63608531D01*
X128009389Y-63608531D01*
X128051401Y-63898019D01*
X128149081Y-64173747D01*
X128222528Y-64311157D01*
X128471603Y-64388792D01*
X129320395Y-63540000D01*
X129679605Y-63540000D01*
X130528397Y-64388792D01*
X130770000Y-64313486D01*
X131011603Y-64388792D01*
X131860395Y-63540000D01*
X131011603Y-62691208D01*
X130770000Y-62766514D01*
X130528397Y-62691208D01*
X129679605Y-63540000D01*
X129320395Y-63540000D01*
X128471603Y-62691208D01*
X128222528Y-62768843D01*
X128096629Y-63032883D01*
X128024661Y-63316411D01*
X128009389Y-63608531D01*
X121436929Y-63608531D01*
X121435000Y-63285750D01*
X121276250Y-63127000D01*
X120127000Y-63127000D01*
X119873000Y-63127000D01*
X119853000Y-63127000D01*
X119853000Y-62873000D01*
X119873000Y-62873000D01*
X119873000Y-62853000D01*
X120127000Y-62853000D01*
X120127000Y-62873000D01*
X121276250Y-62873000D01*
X121435000Y-62714250D01*
X121438072Y-62200000D01*
X121425812Y-62075518D01*
X121389502Y-61955820D01*
X121330537Y-61845506D01*
X121251185Y-61748815D01*
X121154494Y-61669463D01*
X121044180Y-61610498D01*
X120948057Y-61581339D01*
X121114637Y-61414759D01*
X121134521Y-61385000D01*
X128011928Y-61385000D01*
X128011928Y-61850000D01*
X128011928Y-61850000D01*
G37*
X128011928Y-61850000D02*
X128024188Y-61974482D01*
X128060498Y-62094180D01*
X128119463Y-62204494D01*
X128198815Y-62301185D01*
X128295506Y-62380537D01*
X128405820Y-62439502D01*
X128525518Y-62475812D01*
X128650000Y-62488072D01*
X128658542Y-62488072D01*
X128651208Y-62511603D01*
X129500000Y-63360395D01*
X130348792Y-62511603D01*
X130341458Y-62488072D01*
X130350000Y-62488072D01*
X130474482Y-62475812D01*
X130594180Y-62439502D01*
X130704494Y-62380537D01*
X130801185Y-62301185D01*
X130880537Y-62204494D01*
X130939502Y-62094180D01*
X130961513Y-62021620D01*
X131093368Y-62153475D01*
X131266729Y-62269311D01*
X131191208Y-62511603D01*
X132040000Y-63360395D01*
X132054143Y-63346253D01*
X132233748Y-63525858D01*
X132219605Y-63540000D01*
X133068397Y-64388792D01*
X133317472Y-64311157D01*
X133443371Y-64047117D01*
X133515339Y-63763589D01*
X133517161Y-63728740D01*
X134424953Y-64636532D01*
X134424958Y-64636536D01*
X134885002Y-65096581D01*
X134885002Y-77215428D01*
X134631486Y-77165000D01*
X134368514Y-77165000D01*
X134110595Y-77216304D01*
X133867641Y-77316939D01*
X133648987Y-77463038D01*
X133463038Y-77648987D01*
X133316939Y-77867641D01*
X133216304Y-78110595D01*
X133165000Y-78368514D01*
X133165000Y-78631486D01*
X133216304Y-78889405D01*
X133316939Y-79132359D01*
X133463038Y-79351013D01*
X133648987Y-79536962D01*
X133867641Y-79683061D01*
X134110595Y-79783696D01*
X134368514Y-79835000D01*
X134631486Y-79835000D01*
X134885002Y-79784572D01*
X134885002Y-80185317D01*
X134881706Y-80184317D01*
X134685579Y-80165000D01*
X134554421Y-80165000D01*
X134358294Y-80184317D01*
X134106646Y-80260653D01*
X133874725Y-80384618D01*
X133671445Y-80551445D01*
X133504618Y-80754725D01*
X133380653Y-80986646D01*
X133304317Y-81238294D01*
X133278541Y-81500000D01*
X133304317Y-81761706D01*
X133380653Y-82013354D01*
X133504618Y-82245275D01*
X133671445Y-82448555D01*
X133874725Y-82615382D01*
X134084082Y-82727286D01*
X133867641Y-82816939D01*
X133648987Y-82963038D01*
X133463038Y-83148987D01*
X133316939Y-83367641D01*
X133216304Y-83610595D01*
X133165000Y-83868514D01*
X133165000Y-84131486D01*
X133216304Y-84389405D01*
X133316939Y-84632359D01*
X133463038Y-84851013D01*
X133648987Y-85036962D01*
X133740001Y-85097775D01*
X133740000Y-85781956D01*
X133585241Y-85885363D01*
X133385363Y-86085241D01*
X133228320Y-86320273D01*
X133120147Y-86581426D01*
X133065000Y-86858665D01*
X133065000Y-87141335D01*
X133120147Y-87418574D01*
X133228320Y-87679727D01*
X133385363Y-87914759D01*
X133585241Y-88114637D01*
X133820273Y-88271680D01*
X134081426Y-88379853D01*
X134358665Y-88435000D01*
X134641335Y-88435000D01*
X134885001Y-88386531D01*
X134885001Y-92613469D01*
X134641335Y-92565000D01*
X134358665Y-92565000D01*
X134081426Y-92620147D01*
X133820273Y-92728320D01*
X133585241Y-92885363D01*
X133385363Y-93085241D01*
X133228320Y-93320273D01*
X133120147Y-93581426D01*
X133065000Y-93858665D01*
X133065000Y-94141335D01*
X133120147Y-94418574D01*
X133228320Y-94679727D01*
X133385363Y-94914759D01*
X133585241Y-95114637D01*
X133745202Y-95221519D01*
X133750997Y-95280355D01*
X133781179Y-95379853D01*
X133794454Y-95423616D01*
X133865026Y-95555646D01*
X133904871Y-95604196D01*
X133959999Y-95671371D01*
X133989002Y-95695173D01*
X134385002Y-96091174D01*
X134385002Y-96185317D01*
X134381706Y-96184317D01*
X134185579Y-96165000D01*
X134054421Y-96165000D01*
X133858294Y-96184317D01*
X133606646Y-96260653D01*
X133374725Y-96384618D01*
X133171445Y-96551445D01*
X133004618Y-96754725D01*
X132880653Y-96986646D01*
X132804317Y-97238294D01*
X132778541Y-97500000D01*
X132804317Y-97761706D01*
X132880653Y-98013354D01*
X133004618Y-98245275D01*
X133171445Y-98448555D01*
X133374725Y-98615382D01*
X133606646Y-98739347D01*
X133858294Y-98815683D01*
X134054421Y-98835000D01*
X134185579Y-98835000D01*
X134381706Y-98815683D01*
X134385001Y-98814683D01*
X134385001Y-99084158D01*
X134190492Y-99065000D01*
X134049508Y-99065000D01*
X133838691Y-99085764D01*
X133568192Y-99167818D01*
X133318899Y-99301068D01*
X133100392Y-99480392D01*
X132921068Y-99698899D01*
X132787818Y-99948192D01*
X132760000Y-100039897D01*
X132760000Y-89537323D01*
X132763676Y-89500000D01*
X132760000Y-89462677D01*
X132760000Y-89462667D01*
X132749003Y-89351014D01*
X132705546Y-89207753D01*
X132674134Y-89148986D01*
X132634974Y-89075723D01*
X132563799Y-88988997D01*
X132540001Y-88959999D01*
X132511004Y-88936202D01*
X130898688Y-87323886D01*
X130935000Y-87141335D01*
X130935000Y-86858665D01*
X130879853Y-86581426D01*
X130771680Y-86320273D01*
X130614637Y-86085241D01*
X130414759Y-85885363D01*
X130179727Y-85728320D01*
X129918574Y-85620147D01*
X129641335Y-85565000D01*
X129358665Y-85565000D01*
X129081426Y-85620147D01*
X129035001Y-85639377D01*
X129035001Y-72876577D01*
X129281040Y-72630539D01*
X129353740Y-72645000D01*
X129646260Y-72645000D01*
X129933158Y-72587932D01*
X130203411Y-72475990D01*
X130446632Y-72313475D01*
X130653475Y-72106632D01*
X130694656Y-72045000D01*
X130845344Y-72045000D01*
X130886525Y-72106632D01*
X131093368Y-72313475D01*
X131336589Y-72475990D01*
X131606842Y-72587932D01*
X131893740Y-72645000D01*
X132186260Y-72645000D01*
X132473158Y-72587932D01*
X132743411Y-72475990D01*
X132986632Y-72313475D01*
X133193475Y-72106632D01*
X133355990Y-71863411D01*
X133467932Y-71593158D01*
X133525000Y-71306260D01*
X133525000Y-71013740D01*
X133467932Y-70726842D01*
X133355990Y-70456589D01*
X133193475Y-70213368D01*
X132986632Y-70006525D01*
X132813271Y-69890689D01*
X132888792Y-69648397D01*
X132040000Y-68799605D01*
X131191208Y-69648397D01*
X131266729Y-69890689D01*
X131093368Y-70006525D01*
X130886525Y-70213368D01*
X130845344Y-70275000D01*
X130694656Y-70275000D01*
X130653475Y-70213368D01*
X130446632Y-70006525D01*
X130273271Y-69890689D01*
X130348792Y-69648397D01*
X129500000Y-68799605D01*
X128651208Y-69648397D01*
X128726729Y-69890689D01*
X128553368Y-70006525D01*
X128346525Y-70213368D01*
X128305344Y-70275000D01*
X121438072Y-70275000D01*
X121438072Y-70200000D01*
X121425812Y-70075518D01*
X121389502Y-69955820D01*
X121330537Y-69845506D01*
X121251185Y-69748815D01*
X121154494Y-69669463D01*
X121044180Y-69610498D01*
X120924482Y-69574188D01*
X120800000Y-69561928D01*
X120792785Y-69561928D01*
X120813097Y-69492702D01*
X120000000Y-68679605D01*
X119985858Y-68693748D01*
X119806253Y-68514143D01*
X119820395Y-68500000D01*
X120179605Y-68500000D01*
X120992702Y-69313097D01*
X121236671Y-69241514D01*
X121357571Y-68986004D01*
X121426300Y-68711816D01*
X121427447Y-68688531D01*
X128009389Y-68688531D01*
X128051401Y-68978019D01*
X128149081Y-69253747D01*
X128222528Y-69391157D01*
X128471603Y-69468792D01*
X129320395Y-68620000D01*
X129679605Y-68620000D01*
X130528397Y-69468792D01*
X130770000Y-69393486D01*
X131011603Y-69468792D01*
X131860395Y-68620000D01*
X132219605Y-68620000D01*
X133068397Y-69468792D01*
X133317472Y-69391157D01*
X133443371Y-69127117D01*
X133515339Y-68843589D01*
X133530611Y-68551469D01*
X133488599Y-68261981D01*
X133390919Y-67986253D01*
X133317472Y-67848843D01*
X133068397Y-67771208D01*
X132219605Y-68620000D01*
X131860395Y-68620000D01*
X131011603Y-67771208D01*
X130770000Y-67846514D01*
X130528397Y-67771208D01*
X129679605Y-68620000D01*
X129320395Y-68620000D01*
X128471603Y-67771208D01*
X128222528Y-67848843D01*
X128096629Y-68112883D01*
X128024661Y-68396411D01*
X128009389Y-68688531D01*
X121427447Y-68688531D01*
X121440217Y-68429488D01*
X121398787Y-68149870D01*
X121303603Y-67883708D01*
X121236671Y-67758486D01*
X120992702Y-67686903D01*
X120179605Y-68500000D01*
X119820395Y-68500000D01*
X119806253Y-68485858D01*
X119985858Y-68306253D01*
X120000000Y-68320395D01*
X120813097Y-67507298D01*
X120741514Y-67263329D01*
X120486004Y-67142429D01*
X120350237Y-67108397D01*
X128651208Y-67108397D01*
X128726514Y-67350000D01*
X128651208Y-67591603D01*
X129500000Y-68440395D01*
X130348792Y-67591603D01*
X130273486Y-67350000D01*
X130348792Y-67108397D01*
X131191208Y-67108397D01*
X131266514Y-67350000D01*
X131191208Y-67591603D01*
X132040000Y-68440395D01*
X132888792Y-67591603D01*
X132813486Y-67350000D01*
X132888792Y-67108397D01*
X132040000Y-66259605D01*
X131191208Y-67108397D01*
X130348792Y-67108397D01*
X129500000Y-66259605D01*
X128651208Y-67108397D01*
X120350237Y-67108397D01*
X120211816Y-67073700D01*
X119929488Y-67059783D01*
X119649870Y-67101213D01*
X119634999Y-67106531D01*
X119634999Y-66148531D01*
X128009389Y-66148531D01*
X128051401Y-66438019D01*
X128149081Y-66713747D01*
X128222528Y-66851157D01*
X128471603Y-66928792D01*
X129320395Y-66080000D01*
X129679605Y-66080000D01*
X130528397Y-66928792D01*
X130770000Y-66853486D01*
X131011603Y-66928792D01*
X131860395Y-66080000D01*
X132219605Y-66080000D01*
X133068397Y-66928792D01*
X133317472Y-66851157D01*
X133443371Y-66587117D01*
X133515339Y-66303589D01*
X133530611Y-66011469D01*
X133488599Y-65721981D01*
X133390919Y-65446253D01*
X133317472Y-65308843D01*
X133068397Y-65231208D01*
X132219605Y-66080000D01*
X131860395Y-66080000D01*
X131011603Y-65231208D01*
X130770000Y-65306514D01*
X130528397Y-65231208D01*
X129679605Y-66080000D01*
X129320395Y-66080000D01*
X128471603Y-65231208D01*
X128222528Y-65308843D01*
X128096629Y-65572883D01*
X128024661Y-65856411D01*
X128009389Y-66148531D01*
X119634999Y-66148531D01*
X119634999Y-64568397D01*
X128651208Y-64568397D01*
X128726514Y-64810000D01*
X128651208Y-65051603D01*
X129500000Y-65900395D01*
X130348792Y-65051603D01*
X130273486Y-64810000D01*
X130348792Y-64568397D01*
X131191208Y-64568397D01*
X131266514Y-64810000D01*
X131191208Y-65051603D01*
X132040000Y-65900395D01*
X132888792Y-65051603D01*
X132813486Y-64810000D01*
X132888792Y-64568397D01*
X132040000Y-63719605D01*
X131191208Y-64568397D01*
X130348792Y-64568397D01*
X129500000Y-63719605D01*
X128651208Y-64568397D01*
X119634999Y-64568397D01*
X119634999Y-64435473D01*
X119714250Y-64435000D01*
X119873000Y-64276250D01*
X119873000Y-63127000D01*
X120127000Y-63127000D01*
X120127000Y-64276250D01*
X120285750Y-64435000D01*
X120800000Y-64438072D01*
X120924482Y-64425812D01*
X121044180Y-64389502D01*
X121154494Y-64330537D01*
X121251185Y-64251185D01*
X121330537Y-64154494D01*
X121389502Y-64044180D01*
X121425812Y-63924482D01*
X121438072Y-63800000D01*
X121436929Y-63608531D01*
X128009389Y-63608531D01*
X128051401Y-63898019D01*
X128149081Y-64173747D01*
X128222528Y-64311157D01*
X128471603Y-64388792D01*
X129320395Y-63540000D01*
X129679605Y-63540000D01*
X130528397Y-64388792D01*
X130770000Y-64313486D01*
X131011603Y-64388792D01*
X131860395Y-63540000D01*
X131011603Y-62691208D01*
X130770000Y-62766514D01*
X130528397Y-62691208D01*
X129679605Y-63540000D01*
X129320395Y-63540000D01*
X128471603Y-62691208D01*
X128222528Y-62768843D01*
X128096629Y-63032883D01*
X128024661Y-63316411D01*
X128009389Y-63608531D01*
X121436929Y-63608531D01*
X121435000Y-63285750D01*
X121276250Y-63127000D01*
X120127000Y-63127000D01*
X119873000Y-63127000D01*
X119853000Y-63127000D01*
X119853000Y-62873000D01*
X119873000Y-62873000D01*
X119873000Y-62853000D01*
X120127000Y-62853000D01*
X120127000Y-62873000D01*
X121276250Y-62873000D01*
X121435000Y-62714250D01*
X121438072Y-62200000D01*
X121425812Y-62075518D01*
X121389502Y-61955820D01*
X121330537Y-61845506D01*
X121251185Y-61748815D01*
X121154494Y-61669463D01*
X121044180Y-61610498D01*
X120948057Y-61581339D01*
X121114637Y-61414759D01*
X121134521Y-61385000D01*
X128011928Y-61385000D01*
X128011928Y-61850000D01*
G36*
X116507000Y-97873000D02*
G01*
X116527000Y-97873000D01*
X116527000Y-98127000D01*
X116507000Y-98127000D01*
X116507000Y-98147000D01*
X116253000Y-98147000D01*
X116253000Y-98127000D01*
X116233000Y-98127000D01*
X116233000Y-97873000D01*
X116253000Y-97873000D01*
X116253000Y-97853000D01*
X116507000Y-97853000D01*
X116507000Y-97873000D01*
X116507000Y-97873000D01*
G37*
X116507000Y-97873000D02*
X116527000Y-97873000D01*
X116527000Y-98127000D01*
X116507000Y-98127000D01*
X116507000Y-98147000D01*
X116253000Y-98147000D01*
X116253000Y-98127000D01*
X116233000Y-98127000D01*
X116233000Y-97873000D01*
X116253000Y-97873000D01*
X116253000Y-97853000D01*
X116507000Y-97853000D01*
X116507000Y-97873000D01*
M02*
