G04 #@! TF.GenerationSoftware,KiCad,Pcbnew,5.0.1*
G04 #@! TF.CreationDate,2019-05-06T23:41:24+02:00*
G04 #@! TF.ProjectId,plastik,706C617374696B2E6B696361645F7063,rev?*
G04 #@! TF.SameCoordinates,Original*
G04 #@! TF.FileFunction,Legend,Bot*
G04 #@! TF.FilePolarity,Positive*
%FSLAX46Y46*%
G04 Gerber Fmt 4.6, Leading zero omitted, Abs format (unit mm)*
G04 Created by KiCad (PCBNEW 5.0.1) date Mo 06 Mai 2019 23:41:24 CEST*
%MOMM*%
%LPD*%
G01*
G04 APERTURE LIST*
%ADD10C,0.300000*%
%ADD11C,0.120000*%
%ADD12C,0.150000*%
G04 APERTURE END LIST*
D10*
X115904761Y-58904761D02*
X115904761Y-57571428D01*
X115904761Y-57761904D02*
X115809523Y-57666666D01*
X115619047Y-57571428D01*
X115333333Y-57571428D01*
X115142857Y-57666666D01*
X115047619Y-57857142D01*
X115047619Y-58904761D01*
X115047619Y-57857142D02*
X114952380Y-57666666D01*
X114761904Y-57571428D01*
X114476190Y-57571428D01*
X114285714Y-57666666D01*
X114190476Y-57857142D01*
X114190476Y-58904761D01*
X112380952Y-57571428D02*
X112380952Y-58904761D01*
X113238095Y-57571428D02*
X113238095Y-58619047D01*
X113142857Y-58809523D01*
X112952380Y-58904761D01*
X112666666Y-58904761D01*
X112476190Y-58809523D01*
X112380952Y-58714285D01*
X111428571Y-58904761D02*
X111428571Y-57571428D01*
X111428571Y-57952380D02*
X111333333Y-57761904D01*
X111238095Y-57666666D01*
X111047619Y-57571428D01*
X110857142Y-57571428D01*
X109428571Y-58809523D02*
X109619047Y-58904761D01*
X109999999Y-58904761D01*
X110190476Y-58809523D01*
X110285714Y-58619047D01*
X110285714Y-57857142D01*
X110190476Y-57666666D01*
X109999999Y-57571428D01*
X109619047Y-57571428D01*
X109428571Y-57666666D01*
X109333333Y-57857142D01*
X109333333Y-58047619D01*
X110285714Y-58238095D01*
X108476190Y-57571428D02*
X108476190Y-58904761D01*
X108476190Y-57761904D02*
X108380952Y-57666666D01*
X108190476Y-57571428D01*
X107904761Y-57571428D01*
X107714285Y-57666666D01*
X107619047Y-57857142D01*
X107619047Y-58904761D01*
X105142857Y-57571428D02*
X105142857Y-59571428D01*
X105142857Y-57666666D02*
X104952380Y-57571428D01*
X104571428Y-57571428D01*
X104380952Y-57666666D01*
X104285714Y-57761904D01*
X104190476Y-57952380D01*
X104190476Y-58523809D01*
X104285714Y-58714285D01*
X104380952Y-58809523D01*
X104571428Y-58904761D01*
X104952380Y-58904761D01*
X105142857Y-58809523D01*
X103047619Y-58904761D02*
X103238095Y-58809523D01*
X103333333Y-58619047D01*
X103333333Y-56904761D01*
X101428571Y-58904761D02*
X101428571Y-57857142D01*
X101523809Y-57666666D01*
X101714285Y-57571428D01*
X102095238Y-57571428D01*
X102285714Y-57666666D01*
X101428571Y-58809523D02*
X101619047Y-58904761D01*
X102095238Y-58904761D01*
X102285714Y-58809523D01*
X102380952Y-58619047D01*
X102380952Y-58428571D01*
X102285714Y-58238095D01*
X102095238Y-58142857D01*
X101619047Y-58142857D01*
X101428571Y-58047619D01*
X100571428Y-58809523D02*
X100380952Y-58904761D01*
X99999999Y-58904761D01*
X99809523Y-58809523D01*
X99714285Y-58619047D01*
X99714285Y-58523809D01*
X99809523Y-58333333D01*
X99999999Y-58238095D01*
X100285714Y-58238095D01*
X100476190Y-58142857D01*
X100571428Y-57952380D01*
X100571428Y-57857142D01*
X100476190Y-57666666D01*
X100285714Y-57571428D01*
X99999999Y-57571428D01*
X99809523Y-57666666D01*
X99142857Y-57571428D02*
X98380952Y-57571428D01*
X98857142Y-56904761D02*
X98857142Y-58619047D01*
X98761904Y-58809523D01*
X98571428Y-58904761D01*
X98380952Y-58904761D01*
X97714285Y-58904761D02*
X97714285Y-57571428D01*
X97714285Y-56904761D02*
X97809523Y-57000000D01*
X97714285Y-57095238D01*
X97619047Y-57000000D01*
X97714285Y-56904761D01*
X97714285Y-57095238D01*
X96761904Y-58904761D02*
X96761904Y-56904761D01*
X96571428Y-58142857D02*
X95999999Y-58904761D01*
X95999999Y-57571428D02*
X96761904Y-58333333D01*
D11*
G04 #@! TO.C,C1*
X122870000Y-41000000D02*
G75*
G03X122870000Y-41000000I-2620000J0D01*
G01*
X120250000Y-43580000D02*
X120250000Y-38420000D01*
X120290000Y-43580000D02*
X120290000Y-38420000D01*
X120330000Y-43579000D02*
X120330000Y-38421000D01*
X120370000Y-43578000D02*
X120370000Y-38422000D01*
X120410000Y-43576000D02*
X120410000Y-38424000D01*
X120450000Y-43573000D02*
X120450000Y-38427000D01*
X120490000Y-43569000D02*
X120490000Y-42040000D01*
X120490000Y-39960000D02*
X120490000Y-38431000D01*
X120530000Y-43565000D02*
X120530000Y-42040000D01*
X120530000Y-39960000D02*
X120530000Y-38435000D01*
X120570000Y-43561000D02*
X120570000Y-42040000D01*
X120570000Y-39960000D02*
X120570000Y-38439000D01*
X120610000Y-43556000D02*
X120610000Y-42040000D01*
X120610000Y-39960000D02*
X120610000Y-38444000D01*
X120650000Y-43550000D02*
X120650000Y-42040000D01*
X120650000Y-39960000D02*
X120650000Y-38450000D01*
X120690000Y-43543000D02*
X120690000Y-42040000D01*
X120690000Y-39960000D02*
X120690000Y-38457000D01*
X120730000Y-43536000D02*
X120730000Y-42040000D01*
X120730000Y-39960000D02*
X120730000Y-38464000D01*
X120770000Y-43528000D02*
X120770000Y-42040000D01*
X120770000Y-39960000D02*
X120770000Y-38472000D01*
X120810000Y-43520000D02*
X120810000Y-42040000D01*
X120810000Y-39960000D02*
X120810000Y-38480000D01*
X120850000Y-43511000D02*
X120850000Y-42040000D01*
X120850000Y-39960000D02*
X120850000Y-38489000D01*
X120890000Y-43501000D02*
X120890000Y-42040000D01*
X120890000Y-39960000D02*
X120890000Y-38499000D01*
X120930000Y-43491000D02*
X120930000Y-42040000D01*
X120930000Y-39960000D02*
X120930000Y-38509000D01*
X120971000Y-43480000D02*
X120971000Y-42040000D01*
X120971000Y-39960000D02*
X120971000Y-38520000D01*
X121011000Y-43468000D02*
X121011000Y-42040000D01*
X121011000Y-39960000D02*
X121011000Y-38532000D01*
X121051000Y-43455000D02*
X121051000Y-42040000D01*
X121051000Y-39960000D02*
X121051000Y-38545000D01*
X121091000Y-43442000D02*
X121091000Y-42040000D01*
X121091000Y-39960000D02*
X121091000Y-38558000D01*
X121131000Y-43428000D02*
X121131000Y-42040000D01*
X121131000Y-39960000D02*
X121131000Y-38572000D01*
X121171000Y-43414000D02*
X121171000Y-42040000D01*
X121171000Y-39960000D02*
X121171000Y-38586000D01*
X121211000Y-43398000D02*
X121211000Y-42040000D01*
X121211000Y-39960000D02*
X121211000Y-38602000D01*
X121251000Y-43382000D02*
X121251000Y-42040000D01*
X121251000Y-39960000D02*
X121251000Y-38618000D01*
X121291000Y-43365000D02*
X121291000Y-42040000D01*
X121291000Y-39960000D02*
X121291000Y-38635000D01*
X121331000Y-43348000D02*
X121331000Y-42040000D01*
X121331000Y-39960000D02*
X121331000Y-38652000D01*
X121371000Y-43329000D02*
X121371000Y-42040000D01*
X121371000Y-39960000D02*
X121371000Y-38671000D01*
X121411000Y-43310000D02*
X121411000Y-42040000D01*
X121411000Y-39960000D02*
X121411000Y-38690000D01*
X121451000Y-43290000D02*
X121451000Y-42040000D01*
X121451000Y-39960000D02*
X121451000Y-38710000D01*
X121491000Y-43268000D02*
X121491000Y-42040000D01*
X121491000Y-39960000D02*
X121491000Y-38732000D01*
X121531000Y-43247000D02*
X121531000Y-42040000D01*
X121531000Y-39960000D02*
X121531000Y-38753000D01*
X121571000Y-43224000D02*
X121571000Y-42040000D01*
X121571000Y-39960000D02*
X121571000Y-38776000D01*
X121611000Y-43200000D02*
X121611000Y-42040000D01*
X121611000Y-39960000D02*
X121611000Y-38800000D01*
X121651000Y-43175000D02*
X121651000Y-42040000D01*
X121651000Y-39960000D02*
X121651000Y-38825000D01*
X121691000Y-43149000D02*
X121691000Y-42040000D01*
X121691000Y-39960000D02*
X121691000Y-38851000D01*
X121731000Y-43122000D02*
X121731000Y-42040000D01*
X121731000Y-39960000D02*
X121731000Y-38878000D01*
X121771000Y-43095000D02*
X121771000Y-42040000D01*
X121771000Y-39960000D02*
X121771000Y-38905000D01*
X121811000Y-43065000D02*
X121811000Y-42040000D01*
X121811000Y-39960000D02*
X121811000Y-38935000D01*
X121851000Y-43035000D02*
X121851000Y-42040000D01*
X121851000Y-39960000D02*
X121851000Y-38965000D01*
X121891000Y-43004000D02*
X121891000Y-42040000D01*
X121891000Y-39960000D02*
X121891000Y-38996000D01*
X121931000Y-42971000D02*
X121931000Y-42040000D01*
X121931000Y-39960000D02*
X121931000Y-39029000D01*
X121971000Y-42937000D02*
X121971000Y-42040000D01*
X121971000Y-39960000D02*
X121971000Y-39063000D01*
X122011000Y-42901000D02*
X122011000Y-42040000D01*
X122011000Y-39960000D02*
X122011000Y-39099000D01*
X122051000Y-42864000D02*
X122051000Y-42040000D01*
X122051000Y-39960000D02*
X122051000Y-39136000D01*
X122091000Y-42826000D02*
X122091000Y-42040000D01*
X122091000Y-39960000D02*
X122091000Y-39174000D01*
X122131000Y-42785000D02*
X122131000Y-42040000D01*
X122131000Y-39960000D02*
X122131000Y-39215000D01*
X122171000Y-42743000D02*
X122171000Y-42040000D01*
X122171000Y-39960000D02*
X122171000Y-39257000D01*
X122211000Y-42699000D02*
X122211000Y-42040000D01*
X122211000Y-39960000D02*
X122211000Y-39301000D01*
X122251000Y-42653000D02*
X122251000Y-42040000D01*
X122251000Y-39960000D02*
X122251000Y-39347000D01*
X122291000Y-42605000D02*
X122291000Y-42040000D01*
X122291000Y-39960000D02*
X122291000Y-39395000D01*
X122331000Y-42554000D02*
X122331000Y-42040000D01*
X122331000Y-39960000D02*
X122331000Y-39446000D01*
X122371000Y-42500000D02*
X122371000Y-42040000D01*
X122371000Y-39960000D02*
X122371000Y-39500000D01*
X122411000Y-42443000D02*
X122411000Y-42040000D01*
X122411000Y-39960000D02*
X122411000Y-39557000D01*
X122451000Y-42383000D02*
X122451000Y-42040000D01*
X122451000Y-39960000D02*
X122451000Y-39617000D01*
X122491000Y-42319000D02*
X122491000Y-42040000D01*
X122491000Y-39960000D02*
X122491000Y-39681000D01*
X122531000Y-42251000D02*
X122531000Y-42040000D01*
X122531000Y-39960000D02*
X122531000Y-39749000D01*
X122571000Y-42178000D02*
X122571000Y-39822000D01*
X122611000Y-42098000D02*
X122611000Y-39902000D01*
X122651000Y-42011000D02*
X122651000Y-39989000D01*
X122691000Y-41915000D02*
X122691000Y-40085000D01*
X122731000Y-41805000D02*
X122731000Y-40195000D01*
X122771000Y-41677000D02*
X122771000Y-40323000D01*
X122811000Y-41518000D02*
X122811000Y-40482000D01*
X122851000Y-41284000D02*
X122851000Y-40716000D01*
X117445225Y-42475000D02*
X117945225Y-42475000D01*
X117695225Y-42725000D02*
X117695225Y-42225000D01*
G04 #@! TO.C,R1*
X151690000Y-116630000D02*
X151690000Y-119370000D01*
X151690000Y-119370000D02*
X145150000Y-119370000D01*
X145150000Y-119370000D02*
X145150000Y-116630000D01*
X145150000Y-116630000D02*
X151690000Y-116630000D01*
X152460000Y-118000000D02*
X151690000Y-118000000D01*
X144380000Y-118000000D02*
X145150000Y-118000000D01*
G04 #@! TO.C,RV4*
X167065000Y-133996000D02*
X167065000Y-135960000D01*
X167065000Y-131220000D02*
X167065000Y-133006000D01*
X174015000Y-133996000D02*
X174015000Y-135960000D01*
X174015000Y-131220000D02*
X174015000Y-133006000D01*
X174015000Y-135960000D02*
X167065000Y-135960000D01*
X174015000Y-131220000D02*
X167065000Y-131220000D01*
G04 #@! TO.C,RV3*
X175015000Y-79220000D02*
X168065000Y-79220000D01*
X175015000Y-83960000D02*
X168065000Y-83960000D01*
X175015000Y-79220000D02*
X175015000Y-81006000D01*
X175015000Y-81996000D02*
X175015000Y-83960000D01*
X168065000Y-79220000D02*
X168065000Y-81006000D01*
X168065000Y-81996000D02*
X168065000Y-83960000D01*
G04 #@! TO.C,RV2*
X173935000Y-55004000D02*
X173935000Y-53040000D01*
X173935000Y-57780000D02*
X173935000Y-55994000D01*
X166985000Y-55004000D02*
X166985000Y-53040000D01*
X166985000Y-57780000D02*
X166985000Y-55994000D01*
X166985000Y-53040000D02*
X173935000Y-53040000D01*
X166985000Y-57780000D02*
X173935000Y-57780000D01*
G04 #@! TO.C,RV1*
X177220000Y-105485000D02*
X177220000Y-112435000D01*
X181960000Y-105485000D02*
X181960000Y-112435000D01*
X177220000Y-105485000D02*
X179006000Y-105485000D01*
X179996000Y-105485000D02*
X181960000Y-105485000D01*
X177220000Y-112435000D02*
X179006000Y-112435000D01*
X179996000Y-112435000D02*
X181960000Y-112435000D01*
G04 #@! TO.C,R8*
X131880000Y-95500000D02*
X132650000Y-95500000D01*
X139960000Y-95500000D02*
X139190000Y-95500000D01*
X132650000Y-94130000D02*
X139190000Y-94130000D01*
X132650000Y-96870000D02*
X132650000Y-94130000D01*
X139190000Y-96870000D02*
X132650000Y-96870000D01*
X139190000Y-94130000D02*
X139190000Y-96870000D01*
G04 #@! TO.C,R15*
X174690000Y-113130000D02*
X174690000Y-115870000D01*
X174690000Y-115870000D02*
X168150000Y-115870000D01*
X168150000Y-115870000D02*
X168150000Y-113130000D01*
X168150000Y-113130000D02*
X174690000Y-113130000D01*
X175460000Y-114500000D02*
X174690000Y-114500000D01*
X167380000Y-114500000D02*
X168150000Y-114500000D01*
G04 #@! TO.C,R14*
X162500000Y-114380000D02*
X162500000Y-115150000D01*
X162500000Y-122460000D02*
X162500000Y-121690000D01*
X163870000Y-115150000D02*
X163870000Y-121690000D01*
X161130000Y-115150000D02*
X163870000Y-115150000D01*
X161130000Y-121690000D02*
X161130000Y-115150000D01*
X163870000Y-121690000D02*
X161130000Y-121690000D01*
G04 #@! TO.C,R13*
X157870000Y-121690000D02*
X155130000Y-121690000D01*
X155130000Y-121690000D02*
X155130000Y-115150000D01*
X155130000Y-115150000D02*
X157870000Y-115150000D01*
X157870000Y-115150000D02*
X157870000Y-121690000D01*
X156500000Y-122460000D02*
X156500000Y-121690000D01*
X156500000Y-114380000D02*
X156500000Y-115150000D01*
G04 #@! TO.C,R12*
X159500000Y-114380000D02*
X159500000Y-115150000D01*
X159500000Y-122460000D02*
X159500000Y-121690000D01*
X160870000Y-115150000D02*
X160870000Y-121690000D01*
X158130000Y-115150000D02*
X160870000Y-115150000D01*
X158130000Y-121690000D02*
X158130000Y-115150000D01*
X160870000Y-121690000D02*
X158130000Y-121690000D01*
G04 #@! TO.C,R11*
X127870000Y-133350000D02*
X125130000Y-133350000D01*
X125130000Y-133350000D02*
X125130000Y-126810000D01*
X125130000Y-126810000D02*
X127870000Y-126810000D01*
X127870000Y-126810000D02*
X127870000Y-133350000D01*
X126500000Y-134120000D02*
X126500000Y-133350000D01*
X126500000Y-126040000D02*
X126500000Y-126810000D01*
G04 #@! TO.C,R10*
X148500000Y-125880000D02*
X148500000Y-126650000D01*
X148500000Y-133960000D02*
X148500000Y-133190000D01*
X149870000Y-126650000D02*
X149870000Y-133190000D01*
X147130000Y-126650000D02*
X149870000Y-126650000D01*
X147130000Y-133190000D02*
X147130000Y-126650000D01*
X149870000Y-133190000D02*
X147130000Y-133190000D01*
G04 #@! TO.C,R9*
X139190000Y-91130000D02*
X139190000Y-93870000D01*
X139190000Y-93870000D02*
X132650000Y-93870000D01*
X132650000Y-93870000D02*
X132650000Y-91130000D01*
X132650000Y-91130000D02*
X139190000Y-91130000D01*
X139960000Y-92500000D02*
X139190000Y-92500000D01*
X131880000Y-92500000D02*
X132650000Y-92500000D01*
G04 #@! TO.C,R7*
X131880000Y-98500000D02*
X132650000Y-98500000D01*
X139960000Y-98500000D02*
X139190000Y-98500000D01*
X132650000Y-97130000D02*
X139190000Y-97130000D01*
X132650000Y-99870000D02*
X132650000Y-97130000D01*
X139190000Y-99870000D02*
X132650000Y-99870000D01*
X139190000Y-97130000D02*
X139190000Y-99870000D01*
G04 #@! TO.C,R6*
X139190000Y-100130000D02*
X139190000Y-102870000D01*
X139190000Y-102870000D02*
X132650000Y-102870000D01*
X132650000Y-102870000D02*
X132650000Y-100130000D01*
X132650000Y-100130000D02*
X139190000Y-100130000D01*
X139960000Y-101500000D02*
X139190000Y-101500000D01*
X131880000Y-101500000D02*
X132650000Y-101500000D01*
G04 #@! TO.C,R5*
X131880000Y-104500000D02*
X132650000Y-104500000D01*
X139960000Y-104500000D02*
X139190000Y-104500000D01*
X132650000Y-103130000D02*
X139190000Y-103130000D01*
X132650000Y-105870000D02*
X132650000Y-103130000D01*
X139190000Y-105870000D02*
X132650000Y-105870000D01*
X139190000Y-103130000D02*
X139190000Y-105870000D01*
G04 #@! TO.C,R2*
X139190000Y-112130000D02*
X139190000Y-114870000D01*
X139190000Y-114870000D02*
X132650000Y-114870000D01*
X132650000Y-114870000D02*
X132650000Y-112130000D01*
X132650000Y-112130000D02*
X139190000Y-112130000D01*
X139960000Y-113500000D02*
X139190000Y-113500000D01*
X131880000Y-113500000D02*
X132650000Y-113500000D01*
G04 #@! TO.C,R4*
X131880000Y-107500000D02*
X132650000Y-107500000D01*
X139960000Y-107500000D02*
X139190000Y-107500000D01*
X132650000Y-106130000D02*
X139190000Y-106130000D01*
X132650000Y-108870000D02*
X132650000Y-106130000D01*
X139190000Y-108870000D02*
X132650000Y-108870000D01*
X139190000Y-106130000D02*
X139190000Y-108870000D01*
G04 #@! TO.C,R3*
X139190000Y-109130000D02*
X139190000Y-111870000D01*
X139190000Y-111870000D02*
X132650000Y-111870000D01*
X132650000Y-111870000D02*
X132650000Y-109130000D01*
X132650000Y-109130000D02*
X139190000Y-109130000D01*
X139960000Y-110500000D02*
X139190000Y-110500000D01*
X131880000Y-110500000D02*
X132650000Y-110500000D01*
G04 #@! TO.C,J9*
X106555000Y-38650000D02*
X106555000Y-67130000D01*
X106555000Y-67130000D02*
X115905000Y-67130000D01*
X115905000Y-67130000D02*
X115905000Y-38650000D01*
X115905000Y-38650000D02*
X106555000Y-38650000D01*
X116155000Y-38400000D02*
X116155000Y-40940000D01*
X116155000Y-38400000D02*
X113615000Y-38400000D01*
D12*
G04 #@! TO.C,U2*
X154820000Y-61100000D02*
X154820000Y-114440000D01*
X116720000Y-114440000D02*
X154820000Y-114440000D01*
X116720000Y-114440000D02*
X116720000Y-61100000D01*
X116720000Y-61100000D02*
X154820000Y-61100000D01*
X116720000Y-68720000D02*
X121800000Y-68720000D01*
X121800000Y-68720000D02*
X121800000Y-63640000D01*
X121800000Y-63640000D02*
X116720000Y-63640000D01*
X120530000Y-66180000D02*
G75*
G03X120530000Y-66180000I-1270000J0D01*
G01*
X125610000Y-61100000D02*
X125610000Y-68720000D01*
X134500000Y-61100000D02*
X134500000Y-68720000D01*
X134500000Y-68720000D02*
X125610000Y-68720000D01*
G04 #@! TO.C,C1*
X120416666Y-45107142D02*
X120464285Y-45154761D01*
X120607142Y-45202380D01*
X120702380Y-45202380D01*
X120845238Y-45154761D01*
X120940476Y-45059523D01*
X120988095Y-44964285D01*
X121035714Y-44773809D01*
X121035714Y-44630952D01*
X120988095Y-44440476D01*
X120940476Y-44345238D01*
X120845238Y-44250000D01*
X120702380Y-44202380D01*
X120607142Y-44202380D01*
X120464285Y-44250000D01*
X120416666Y-44297619D01*
X119464285Y-45202380D02*
X120035714Y-45202380D01*
X119750000Y-45202380D02*
X119750000Y-44202380D01*
X119845238Y-44345238D01*
X119940476Y-44440476D01*
X120035714Y-44488095D01*
G04 #@! TO.C,R1*
X148586666Y-118452380D02*
X148920000Y-117976190D01*
X149158095Y-118452380D02*
X149158095Y-117452380D01*
X148777142Y-117452380D01*
X148681904Y-117500000D01*
X148634285Y-117547619D01*
X148586666Y-117642857D01*
X148586666Y-117785714D01*
X148634285Y-117880952D01*
X148681904Y-117928571D01*
X148777142Y-117976190D01*
X149158095Y-117976190D01*
X147634285Y-118452380D02*
X148205714Y-118452380D01*
X147920000Y-118452380D02*
X147920000Y-117452380D01*
X148015238Y-117595238D01*
X148110476Y-117690476D01*
X148205714Y-117738095D01*
G04 #@! TO.C,RV4*
X173095238Y-132452380D02*
X173428571Y-131976190D01*
X173666666Y-132452380D02*
X173666666Y-131452380D01*
X173285714Y-131452380D01*
X173190476Y-131500000D01*
X173142857Y-131547619D01*
X173095238Y-131642857D01*
X173095238Y-131785714D01*
X173142857Y-131880952D01*
X173190476Y-131928571D01*
X173285714Y-131976190D01*
X173666666Y-131976190D01*
X172809523Y-131452380D02*
X172476190Y-132452380D01*
X172142857Y-131452380D01*
X171380952Y-131785714D02*
X171380952Y-132452380D01*
X171619047Y-131404761D02*
X171857142Y-132119047D01*
X171238095Y-132119047D01*
G04 #@! TO.C,RV3*
X174095238Y-80452380D02*
X174428571Y-79976190D01*
X174666666Y-80452380D02*
X174666666Y-79452380D01*
X174285714Y-79452380D01*
X174190476Y-79500000D01*
X174142857Y-79547619D01*
X174095238Y-79642857D01*
X174095238Y-79785714D01*
X174142857Y-79880952D01*
X174190476Y-79928571D01*
X174285714Y-79976190D01*
X174666666Y-79976190D01*
X173809523Y-79452380D02*
X173476190Y-80452380D01*
X173142857Y-79452380D01*
X172904761Y-79452380D02*
X172285714Y-79452380D01*
X172619047Y-79833333D01*
X172476190Y-79833333D01*
X172380952Y-79880952D01*
X172333333Y-79928571D01*
X172285714Y-80023809D01*
X172285714Y-80261904D01*
X172333333Y-80357142D01*
X172380952Y-80404761D01*
X172476190Y-80452380D01*
X172761904Y-80452380D01*
X172857142Y-80404761D01*
X172904761Y-80357142D01*
G04 #@! TO.C,RV2*
X169095238Y-54452380D02*
X169428571Y-53976190D01*
X169666666Y-54452380D02*
X169666666Y-53452380D01*
X169285714Y-53452380D01*
X169190476Y-53500000D01*
X169142857Y-53547619D01*
X169095238Y-53642857D01*
X169095238Y-53785714D01*
X169142857Y-53880952D01*
X169190476Y-53928571D01*
X169285714Y-53976190D01*
X169666666Y-53976190D01*
X168809523Y-53452380D02*
X168476190Y-54452380D01*
X168142857Y-53452380D01*
X167857142Y-53547619D02*
X167809523Y-53500000D01*
X167714285Y-53452380D01*
X167476190Y-53452380D01*
X167380952Y-53500000D01*
X167333333Y-53547619D01*
X167285714Y-53642857D01*
X167285714Y-53738095D01*
X167333333Y-53880952D01*
X167904761Y-54452380D01*
X167285714Y-54452380D01*
G04 #@! TO.C,RV1*
X181452380Y-106404761D02*
X180976190Y-106071428D01*
X181452380Y-105833333D02*
X180452380Y-105833333D01*
X180452380Y-106214285D01*
X180500000Y-106309523D01*
X180547619Y-106357142D01*
X180642857Y-106404761D01*
X180785714Y-106404761D01*
X180880952Y-106357142D01*
X180928571Y-106309523D01*
X180976190Y-106214285D01*
X180976190Y-105833333D01*
X180452380Y-106690476D02*
X181452380Y-107023809D01*
X180452380Y-107357142D01*
X181452380Y-108214285D02*
X181452380Y-107642857D01*
X181452380Y-107928571D02*
X180452380Y-107928571D01*
X180595238Y-107833333D01*
X180690476Y-107738095D01*
X180738095Y-107642857D01*
G04 #@! TO.C,R8*
X136166666Y-95952380D02*
X136500000Y-95476190D01*
X136738095Y-95952380D02*
X136738095Y-94952380D01*
X136357142Y-94952380D01*
X136261904Y-95000000D01*
X136214285Y-95047619D01*
X136166666Y-95142857D01*
X136166666Y-95285714D01*
X136214285Y-95380952D01*
X136261904Y-95428571D01*
X136357142Y-95476190D01*
X136738095Y-95476190D01*
X135595238Y-95380952D02*
X135690476Y-95333333D01*
X135738095Y-95285714D01*
X135785714Y-95190476D01*
X135785714Y-95142857D01*
X135738095Y-95047619D01*
X135690476Y-95000000D01*
X135595238Y-94952380D01*
X135404761Y-94952380D01*
X135309523Y-95000000D01*
X135261904Y-95047619D01*
X135214285Y-95142857D01*
X135214285Y-95190476D01*
X135261904Y-95285714D01*
X135309523Y-95333333D01*
X135404761Y-95380952D01*
X135595238Y-95380952D01*
X135690476Y-95428571D01*
X135738095Y-95476190D01*
X135785714Y-95571428D01*
X135785714Y-95761904D01*
X135738095Y-95857142D01*
X135690476Y-95904761D01*
X135595238Y-95952380D01*
X135404761Y-95952380D01*
X135309523Y-95904761D01*
X135261904Y-95857142D01*
X135214285Y-95761904D01*
X135214285Y-95571428D01*
X135261904Y-95476190D01*
X135309523Y-95428571D01*
X135404761Y-95380952D01*
G04 #@! TO.C,R15*
X172062857Y-114952380D02*
X172396190Y-114476190D01*
X172634285Y-114952380D02*
X172634285Y-113952380D01*
X172253333Y-113952380D01*
X172158095Y-114000000D01*
X172110476Y-114047619D01*
X172062857Y-114142857D01*
X172062857Y-114285714D01*
X172110476Y-114380952D01*
X172158095Y-114428571D01*
X172253333Y-114476190D01*
X172634285Y-114476190D01*
X171110476Y-114952380D02*
X171681904Y-114952380D01*
X171396190Y-114952380D02*
X171396190Y-113952380D01*
X171491428Y-114095238D01*
X171586666Y-114190476D01*
X171681904Y-114238095D01*
X170205714Y-113952380D02*
X170681904Y-113952380D01*
X170729523Y-114428571D01*
X170681904Y-114380952D01*
X170586666Y-114333333D01*
X170348571Y-114333333D01*
X170253333Y-114380952D01*
X170205714Y-114428571D01*
X170158095Y-114523809D01*
X170158095Y-114761904D01*
X170205714Y-114857142D01*
X170253333Y-114904761D01*
X170348571Y-114952380D01*
X170586666Y-114952380D01*
X170681904Y-114904761D01*
X170729523Y-114857142D01*
G04 #@! TO.C,R14*
X162952380Y-117777142D02*
X162476190Y-117443809D01*
X162952380Y-117205714D02*
X161952380Y-117205714D01*
X161952380Y-117586666D01*
X162000000Y-117681904D01*
X162047619Y-117729523D01*
X162142857Y-117777142D01*
X162285714Y-117777142D01*
X162380952Y-117729523D01*
X162428571Y-117681904D01*
X162476190Y-117586666D01*
X162476190Y-117205714D01*
X162952380Y-118729523D02*
X162952380Y-118158095D01*
X162952380Y-118443809D02*
X161952380Y-118443809D01*
X162095238Y-118348571D01*
X162190476Y-118253333D01*
X162238095Y-118158095D01*
X162285714Y-119586666D02*
X162952380Y-119586666D01*
X161904761Y-119348571D02*
X162619047Y-119110476D01*
X162619047Y-119729523D01*
G04 #@! TO.C,R13*
X156952380Y-117777142D02*
X156476190Y-117443809D01*
X156952380Y-117205714D02*
X155952380Y-117205714D01*
X155952380Y-117586666D01*
X156000000Y-117681904D01*
X156047619Y-117729523D01*
X156142857Y-117777142D01*
X156285714Y-117777142D01*
X156380952Y-117729523D01*
X156428571Y-117681904D01*
X156476190Y-117586666D01*
X156476190Y-117205714D01*
X156952380Y-118729523D02*
X156952380Y-118158095D01*
X156952380Y-118443809D02*
X155952380Y-118443809D01*
X156095238Y-118348571D01*
X156190476Y-118253333D01*
X156238095Y-118158095D01*
X155952380Y-119062857D02*
X155952380Y-119681904D01*
X156333333Y-119348571D01*
X156333333Y-119491428D01*
X156380952Y-119586666D01*
X156428571Y-119634285D01*
X156523809Y-119681904D01*
X156761904Y-119681904D01*
X156857142Y-119634285D01*
X156904761Y-119586666D01*
X156952380Y-119491428D01*
X156952380Y-119205714D01*
X156904761Y-119110476D01*
X156857142Y-119062857D01*
G04 #@! TO.C,R12*
X159952380Y-117857142D02*
X159476190Y-117523809D01*
X159952380Y-117285714D02*
X158952380Y-117285714D01*
X158952380Y-117666666D01*
X159000000Y-117761904D01*
X159047619Y-117809523D01*
X159142857Y-117857142D01*
X159285714Y-117857142D01*
X159380952Y-117809523D01*
X159428571Y-117761904D01*
X159476190Y-117666666D01*
X159476190Y-117285714D01*
X159952380Y-118809523D02*
X159952380Y-118238095D01*
X159952380Y-118523809D02*
X158952380Y-118523809D01*
X159095238Y-118428571D01*
X159190476Y-118333333D01*
X159238095Y-118238095D01*
X159047619Y-119190476D02*
X159000000Y-119238095D01*
X158952380Y-119333333D01*
X158952380Y-119571428D01*
X159000000Y-119666666D01*
X159047619Y-119714285D01*
X159142857Y-119761904D01*
X159238095Y-119761904D01*
X159380952Y-119714285D01*
X159952380Y-119142857D01*
X159952380Y-119761904D01*
G04 #@! TO.C,R11*
X126952380Y-129357142D02*
X126476190Y-129023809D01*
X126952380Y-128785714D02*
X125952380Y-128785714D01*
X125952380Y-129166666D01*
X126000000Y-129261904D01*
X126047619Y-129309523D01*
X126142857Y-129357142D01*
X126285714Y-129357142D01*
X126380952Y-129309523D01*
X126428571Y-129261904D01*
X126476190Y-129166666D01*
X126476190Y-128785714D01*
X126952380Y-130309523D02*
X126952380Y-129738095D01*
X126952380Y-130023809D02*
X125952380Y-130023809D01*
X126095238Y-129928571D01*
X126190476Y-129833333D01*
X126238095Y-129738095D01*
X126952380Y-131261904D02*
X126952380Y-130690476D01*
X126952380Y-130976190D02*
X125952380Y-130976190D01*
X126095238Y-130880952D01*
X126190476Y-130785714D01*
X126238095Y-130690476D01*
G04 #@! TO.C,R10*
X148952380Y-129357142D02*
X148476190Y-129023809D01*
X148952380Y-128785714D02*
X147952380Y-128785714D01*
X147952380Y-129166666D01*
X148000000Y-129261904D01*
X148047619Y-129309523D01*
X148142857Y-129357142D01*
X148285714Y-129357142D01*
X148380952Y-129309523D01*
X148428571Y-129261904D01*
X148476190Y-129166666D01*
X148476190Y-128785714D01*
X148952380Y-130309523D02*
X148952380Y-129738095D01*
X148952380Y-130023809D02*
X147952380Y-130023809D01*
X148095238Y-129928571D01*
X148190476Y-129833333D01*
X148238095Y-129738095D01*
X147952380Y-130928571D02*
X147952380Y-131023809D01*
X148000000Y-131119047D01*
X148047619Y-131166666D01*
X148142857Y-131214285D01*
X148333333Y-131261904D01*
X148571428Y-131261904D01*
X148761904Y-131214285D01*
X148857142Y-131166666D01*
X148904761Y-131119047D01*
X148952380Y-131023809D01*
X148952380Y-130928571D01*
X148904761Y-130833333D01*
X148857142Y-130785714D01*
X148761904Y-130738095D01*
X148571428Y-130690476D01*
X148333333Y-130690476D01*
X148142857Y-130738095D01*
X148047619Y-130785714D01*
X148000000Y-130833333D01*
X147952380Y-130928571D01*
G04 #@! TO.C,R9*
X136086666Y-92952380D02*
X136420000Y-92476190D01*
X136658095Y-92952380D02*
X136658095Y-91952380D01*
X136277142Y-91952380D01*
X136181904Y-92000000D01*
X136134285Y-92047619D01*
X136086666Y-92142857D01*
X136086666Y-92285714D01*
X136134285Y-92380952D01*
X136181904Y-92428571D01*
X136277142Y-92476190D01*
X136658095Y-92476190D01*
X135610476Y-92952380D02*
X135420000Y-92952380D01*
X135324761Y-92904761D01*
X135277142Y-92857142D01*
X135181904Y-92714285D01*
X135134285Y-92523809D01*
X135134285Y-92142857D01*
X135181904Y-92047619D01*
X135229523Y-92000000D01*
X135324761Y-91952380D01*
X135515238Y-91952380D01*
X135610476Y-92000000D01*
X135658095Y-92047619D01*
X135705714Y-92142857D01*
X135705714Y-92380952D01*
X135658095Y-92476190D01*
X135610476Y-92523809D01*
X135515238Y-92571428D01*
X135324761Y-92571428D01*
X135229523Y-92523809D01*
X135181904Y-92476190D01*
X135134285Y-92380952D01*
G04 #@! TO.C,R7*
X136086666Y-98952380D02*
X136420000Y-98476190D01*
X136658095Y-98952380D02*
X136658095Y-97952380D01*
X136277142Y-97952380D01*
X136181904Y-98000000D01*
X136134285Y-98047619D01*
X136086666Y-98142857D01*
X136086666Y-98285714D01*
X136134285Y-98380952D01*
X136181904Y-98428571D01*
X136277142Y-98476190D01*
X136658095Y-98476190D01*
X135753333Y-97952380D02*
X135086666Y-97952380D01*
X135515238Y-98952380D01*
G04 #@! TO.C,R6*
X136086666Y-101952380D02*
X136420000Y-101476190D01*
X136658095Y-101952380D02*
X136658095Y-100952380D01*
X136277142Y-100952380D01*
X136181904Y-101000000D01*
X136134285Y-101047619D01*
X136086666Y-101142857D01*
X136086666Y-101285714D01*
X136134285Y-101380952D01*
X136181904Y-101428571D01*
X136277142Y-101476190D01*
X136658095Y-101476190D01*
X135229523Y-100952380D02*
X135420000Y-100952380D01*
X135515238Y-101000000D01*
X135562857Y-101047619D01*
X135658095Y-101190476D01*
X135705714Y-101380952D01*
X135705714Y-101761904D01*
X135658095Y-101857142D01*
X135610476Y-101904761D01*
X135515238Y-101952380D01*
X135324761Y-101952380D01*
X135229523Y-101904761D01*
X135181904Y-101857142D01*
X135134285Y-101761904D01*
X135134285Y-101523809D01*
X135181904Y-101428571D01*
X135229523Y-101380952D01*
X135324761Y-101333333D01*
X135515238Y-101333333D01*
X135610476Y-101380952D01*
X135658095Y-101428571D01*
X135705714Y-101523809D01*
G04 #@! TO.C,R5*
X136086666Y-104952380D02*
X136420000Y-104476190D01*
X136658095Y-104952380D02*
X136658095Y-103952380D01*
X136277142Y-103952380D01*
X136181904Y-104000000D01*
X136134285Y-104047619D01*
X136086666Y-104142857D01*
X136086666Y-104285714D01*
X136134285Y-104380952D01*
X136181904Y-104428571D01*
X136277142Y-104476190D01*
X136658095Y-104476190D01*
X135181904Y-103952380D02*
X135658095Y-103952380D01*
X135705714Y-104428571D01*
X135658095Y-104380952D01*
X135562857Y-104333333D01*
X135324761Y-104333333D01*
X135229523Y-104380952D01*
X135181904Y-104428571D01*
X135134285Y-104523809D01*
X135134285Y-104761904D01*
X135181904Y-104857142D01*
X135229523Y-104904761D01*
X135324761Y-104952380D01*
X135562857Y-104952380D01*
X135658095Y-104904761D01*
X135705714Y-104857142D01*
G04 #@! TO.C,R2*
X136086666Y-113952380D02*
X136420000Y-113476190D01*
X136658095Y-113952380D02*
X136658095Y-112952380D01*
X136277142Y-112952380D01*
X136181904Y-113000000D01*
X136134285Y-113047619D01*
X136086666Y-113142857D01*
X136086666Y-113285714D01*
X136134285Y-113380952D01*
X136181904Y-113428571D01*
X136277142Y-113476190D01*
X136658095Y-113476190D01*
X135705714Y-113047619D02*
X135658095Y-113000000D01*
X135562857Y-112952380D01*
X135324761Y-112952380D01*
X135229523Y-113000000D01*
X135181904Y-113047619D01*
X135134285Y-113142857D01*
X135134285Y-113238095D01*
X135181904Y-113380952D01*
X135753333Y-113952380D01*
X135134285Y-113952380D01*
G04 #@! TO.C,R4*
X136086666Y-107952380D02*
X136420000Y-107476190D01*
X136658095Y-107952380D02*
X136658095Y-106952380D01*
X136277142Y-106952380D01*
X136181904Y-107000000D01*
X136134285Y-107047619D01*
X136086666Y-107142857D01*
X136086666Y-107285714D01*
X136134285Y-107380952D01*
X136181904Y-107428571D01*
X136277142Y-107476190D01*
X136658095Y-107476190D01*
X135229523Y-107285714D02*
X135229523Y-107952380D01*
X135467619Y-106904761D02*
X135705714Y-107619047D01*
X135086666Y-107619047D01*
G04 #@! TO.C,R3*
X136086666Y-110952380D02*
X136420000Y-110476190D01*
X136658095Y-110952380D02*
X136658095Y-109952380D01*
X136277142Y-109952380D01*
X136181904Y-110000000D01*
X136134285Y-110047619D01*
X136086666Y-110142857D01*
X136086666Y-110285714D01*
X136134285Y-110380952D01*
X136181904Y-110428571D01*
X136277142Y-110476190D01*
X136658095Y-110476190D01*
X135753333Y-109952380D02*
X135134285Y-109952380D01*
X135467619Y-110333333D01*
X135324761Y-110333333D01*
X135229523Y-110380952D01*
X135181904Y-110428571D01*
X135134285Y-110523809D01*
X135134285Y-110761904D01*
X135181904Y-110857142D01*
X135229523Y-110904761D01*
X135324761Y-110952380D01*
X135610476Y-110952380D01*
X135705714Y-110904761D01*
X135753333Y-110857142D01*
G04 #@! TO.C,J9*
X111563333Y-36848380D02*
X111563333Y-37562666D01*
X111610952Y-37705523D01*
X111706190Y-37800761D01*
X111849047Y-37848380D01*
X111944285Y-37848380D01*
X111039523Y-37848380D02*
X110849047Y-37848380D01*
X110753809Y-37800761D01*
X110706190Y-37753142D01*
X110610952Y-37610285D01*
X110563333Y-37419809D01*
X110563333Y-37038857D01*
X110610952Y-36943619D01*
X110658571Y-36896000D01*
X110753809Y-36848380D01*
X110944285Y-36848380D01*
X111039523Y-36896000D01*
X111087142Y-36943619D01*
X111134761Y-37038857D01*
X111134761Y-37276952D01*
X111087142Y-37372190D01*
X111039523Y-37419809D01*
X110944285Y-37467428D01*
X110753809Y-37467428D01*
X110658571Y-37419809D01*
X110610952Y-37372190D01*
X110563333Y-37276952D01*
G04 #@! TO.C,U2*
X136492380Y-85738095D02*
X137301904Y-85738095D01*
X137397142Y-85785714D01*
X137444761Y-85833333D01*
X137492380Y-85928571D01*
X137492380Y-86119047D01*
X137444761Y-86214285D01*
X137397142Y-86261904D01*
X137301904Y-86309523D01*
X136492380Y-86309523D01*
X136587619Y-86738095D02*
X136540000Y-86785714D01*
X136492380Y-86880952D01*
X136492380Y-87119047D01*
X136540000Y-87214285D01*
X136587619Y-87261904D01*
X136682857Y-87309523D01*
X136778095Y-87309523D01*
X136920952Y-87261904D01*
X137492380Y-86690476D01*
X137492380Y-87309523D01*
G04 #@! TD*
M02*
