G04 #@! TF.GenerationSoftware,KiCad,Pcbnew,5.0.1*
G04 #@! TF.CreationDate,2019-05-06T23:41:24+02:00*
G04 #@! TF.ProjectId,plastik,706C617374696B2E6B696361645F7063,rev?*
G04 #@! TF.SameCoordinates,Original*
G04 #@! TF.FileFunction,Copper,L1,Top,Signal*
G04 #@! TF.FilePolarity,Positive*
%FSLAX46Y46*%
G04 Gerber Fmt 4.6, Leading zero omitted, Abs format (unit mm)*
G04 Created by KiCad (PCBNEW 5.0.1) date Mo 06 Mai 2019 23:41:24 CEST*
%MOMM*%
%LPD*%
G01*
G04 APERTURE LIST*
G04 #@! TA.AperFunction,ComponentPad*
%ADD10R,1.600000X1.600000*%
G04 #@! TD*
G04 #@! TA.AperFunction,ComponentPad*
%ADD11C,1.600000*%
G04 #@! TD*
G04 #@! TA.AperFunction,ComponentPad*
%ADD12O,1.600000X1.600000*%
G04 #@! TD*
G04 #@! TA.AperFunction,ComponentPad*
%ADD13C,1.440000*%
G04 #@! TD*
G04 #@! TA.AperFunction,ComponentPad*
%ADD14C,2.130000*%
G04 #@! TD*
G04 #@! TA.AperFunction,ComponentPad*
%ADD15R,1.830000X1.930000*%
G04 #@! TD*
G04 #@! TA.AperFunction,SMDPad,CuDef*
%ADD16R,1.400000X0.300000*%
G04 #@! TD*
G04 #@! TA.AperFunction,ComponentPad*
%ADD17R,1.727200X1.727200*%
G04 #@! TD*
G04 #@! TA.AperFunction,ComponentPad*
%ADD18O,1.727200X1.727200*%
G04 #@! TD*
G04 #@! TA.AperFunction,ComponentPad*
%ADD19R,1.930000X1.830000*%
G04 #@! TD*
G04 #@! TA.AperFunction,ComponentPad*
%ADD20R,2.000000X2.000000*%
G04 #@! TD*
G04 #@! TA.AperFunction,ComponentPad*
%ADD21C,2.000000*%
G04 #@! TD*
G04 #@! TA.AperFunction,ComponentPad*
%ADD22C,3.200000*%
G04 #@! TD*
G04 #@! TA.AperFunction,ComponentPad*
%ADD23C,1.524000*%
G04 #@! TD*
G04 #@! TA.AperFunction,ViaPad*
%ADD24C,0.800000*%
G04 #@! TD*
G04 #@! TA.AperFunction,Conductor*
%ADD25C,0.500000*%
G04 #@! TD*
G04 #@! TA.AperFunction,Conductor*
%ADD26C,0.250000*%
G04 #@! TD*
G04 #@! TA.AperFunction,Conductor*
%ADD27C,0.254000*%
G04 #@! TD*
G04 APERTURE END LIST*
D10*
G04 #@! TO.P,C1,1*
G04 #@! TO.N,+5V*
X119000000Y-41000000D03*
D11*
G04 #@! TO.P,C1,2*
G04 #@! TO.N,GND*
X121500000Y-41000000D03*
G04 #@! TD*
G04 #@! TO.P,R1,1*
G04 #@! TO.N,Net-(R1-Pad1)*
X153500000Y-118000000D03*
D12*
G04 #@! TO.P,R1,2*
G04 #@! TO.N,+5V*
X143340000Y-118000000D03*
G04 #@! TD*
D13*
G04 #@! TO.P,RV4,3*
G04 #@! TO.N,Net-(RV4-Pad3)*
X173080000Y-133500000D03*
G04 #@! TO.P,RV4,2*
G04 #@! TO.N,Net-(J4-PadT)*
X170540000Y-133500000D03*
G04 #@! TO.P,RV4,1*
G04 #@! TO.N,GND*
X168000000Y-133500000D03*
G04 #@! TD*
G04 #@! TO.P,RV3,1*
G04 #@! TO.N,GND*
X169000000Y-81500000D03*
G04 #@! TO.P,RV3,2*
G04 #@! TO.N,Net-(J2-PadT)*
X171540000Y-81500000D03*
G04 #@! TO.P,RV3,3*
G04 #@! TO.N,Net-(RV3-Pad3)*
X174080000Y-81500000D03*
G04 #@! TD*
G04 #@! TO.P,RV2,3*
G04 #@! TO.N,Net-(RV2-Pad3)*
X167920000Y-55500000D03*
G04 #@! TO.P,RV2,2*
G04 #@! TO.N,Net-(J1-PadT)*
X170460000Y-55500000D03*
G04 #@! TO.P,RV2,1*
G04 #@! TO.N,GND*
X173000000Y-55500000D03*
G04 #@! TD*
G04 #@! TO.P,RV1,1*
G04 #@! TO.N,GND*
X179500000Y-111500000D03*
G04 #@! TO.P,RV1,2*
G04 #@! TO.N,Net-(J3-PadT)*
X179500000Y-108960000D03*
G04 #@! TO.P,RV1,3*
G04 #@! TO.N,Net-(RV1-Pad3)*
X179500000Y-106420000D03*
G04 #@! TD*
D12*
G04 #@! TO.P,R8,2*
G04 #@! TO.N,Net-(R8-Pad2)*
X130840000Y-95500000D03*
D11*
G04 #@! TO.P,R8,1*
G04 #@! TO.N,+5V*
X141000000Y-95500000D03*
G04 #@! TD*
G04 #@! TO.P,R15,1*
G04 #@! TO.N,+5V*
X176500000Y-114500000D03*
D12*
G04 #@! TO.P,R15,2*
G04 #@! TO.N,Net-(R15-Pad2)*
X166340000Y-114500000D03*
G04 #@! TD*
G04 #@! TO.P,R14,2*
G04 #@! TO.N,Net-(R14-Pad2)*
X162500000Y-113340000D03*
D11*
G04 #@! TO.P,R14,1*
G04 #@! TO.N,+5V*
X162500000Y-123500000D03*
G04 #@! TD*
G04 #@! TO.P,R13,1*
G04 #@! TO.N,+5V*
X156500000Y-123500000D03*
D12*
G04 #@! TO.P,R13,2*
G04 #@! TO.N,Net-(R13-Pad2)*
X156500000Y-113340000D03*
G04 #@! TD*
G04 #@! TO.P,R12,2*
G04 #@! TO.N,Net-(R12-Pad2)*
X159500000Y-113340000D03*
D11*
G04 #@! TO.P,R12,1*
G04 #@! TO.N,+5V*
X159500000Y-123500000D03*
G04 #@! TD*
G04 #@! TO.P,R11,1*
G04 #@! TO.N,GND*
X126500000Y-135160000D03*
D12*
G04 #@! TO.P,R11,2*
G04 #@! TO.N,Net-(J11-PadT)*
X126500000Y-125000000D03*
G04 #@! TD*
G04 #@! TO.P,R10,2*
G04 #@! TO.N,Net-(J10-PadT)*
X148500000Y-124840000D03*
D11*
G04 #@! TO.P,R10,1*
G04 #@! TO.N,GND*
X148500000Y-135000000D03*
G04 #@! TD*
G04 #@! TO.P,R9,1*
G04 #@! TO.N,+5V*
X141000000Y-92500000D03*
D12*
G04 #@! TO.P,R9,2*
G04 #@! TO.N,Net-(R9-Pad2)*
X130840000Y-92500000D03*
G04 #@! TD*
G04 #@! TO.P,R7,2*
G04 #@! TO.N,Net-(R7-Pad2)*
X130840000Y-98500000D03*
D11*
G04 #@! TO.P,R7,1*
G04 #@! TO.N,+5V*
X141000000Y-98500000D03*
G04 #@! TD*
G04 #@! TO.P,R6,1*
G04 #@! TO.N,+5V*
X141000000Y-101500000D03*
D12*
G04 #@! TO.P,R6,2*
G04 #@! TO.N,Net-(R6-Pad2)*
X130840000Y-101500000D03*
G04 #@! TD*
G04 #@! TO.P,R5,2*
G04 #@! TO.N,Net-(R5-Pad2)*
X130840000Y-104500000D03*
D11*
G04 #@! TO.P,R5,1*
G04 #@! TO.N,+5V*
X141000000Y-104500000D03*
G04 #@! TD*
G04 #@! TO.P,R2,1*
G04 #@! TO.N,+5V*
X141000000Y-113500000D03*
D12*
G04 #@! TO.P,R2,2*
G04 #@! TO.N,Net-(R2-Pad2)*
X130840000Y-113500000D03*
G04 #@! TD*
G04 #@! TO.P,R4,2*
G04 #@! TO.N,Net-(R4-Pad2)*
X130840000Y-107500000D03*
D11*
G04 #@! TO.P,R4,1*
G04 #@! TO.N,+5V*
X141000000Y-107500000D03*
G04 #@! TD*
G04 #@! TO.P,R3,1*
G04 #@! TO.N,+5V*
X141000000Y-110500000D03*
D12*
G04 #@! TO.P,R3,2*
G04 #@! TO.N,Net-(R3-Pad2)*
X130840000Y-110500000D03*
G04 #@! TD*
D14*
G04 #@! TO.P,J10,T*
G04 #@! TO.N,Net-(J10-PadT)*
X144900000Y-130000000D03*
D15*
G04 #@! TO.P,J10,S*
G04 #@! TO.N,GND*
X133500000Y-130000000D03*
D14*
G04 #@! TO.P,J10,TN*
G04 #@! TO.N,Net-(J10-PadTN)*
X136600000Y-130000000D03*
G04 #@! TD*
G04 #@! TO.P,J11,TN*
G04 #@! TO.N,Net-(J11-PadTN)*
X114600000Y-130000000D03*
D15*
G04 #@! TO.P,J11,S*
G04 #@! TO.N,GND*
X111500000Y-130000000D03*
D14*
G04 #@! TO.P,J11,T*
G04 #@! TO.N,Net-(J11-PadT)*
X122900000Y-130000000D03*
G04 #@! TD*
D16*
G04 #@! TO.P,U1,1*
G04 #@! TO.N,+5V*
X168300000Y-107500000D03*
G04 #@! TO.P,U1,2*
G04 #@! TO.N,Net-(U1-Pad2)*
X168300000Y-108000000D03*
G04 #@! TO.P,U1,3*
G04 #@! TO.N,Net-(U1-Pad3)*
X168300000Y-108500000D03*
G04 #@! TO.P,U1,4*
G04 #@! TO.N,Net-(U1-Pad4)*
X168300000Y-109000000D03*
G04 #@! TO.P,U1,5*
G04 #@! TO.N,Net-(R1-Pad1)*
X168300000Y-109500000D03*
G04 #@! TO.P,U1,6*
G04 #@! TO.N,Net-(RV4-Pad3)*
X172700000Y-109500000D03*
G04 #@! TO.P,U1,7*
G04 #@! TO.N,Net-(RV1-Pad3)*
X172700000Y-109000000D03*
G04 #@! TO.P,U1,8*
G04 #@! TO.N,Net-(RV3-Pad3)*
X172700000Y-108500000D03*
G04 #@! TO.P,U1,9*
G04 #@! TO.N,Net-(RV2-Pad3)*
X172700000Y-108000000D03*
G04 #@! TO.P,U1,10*
G04 #@! TO.N,GND*
X172700000Y-107500000D03*
G04 #@! TD*
D12*
G04 #@! TO.P,A1,32*
G04 #@! TO.N,Net-(A1-Pad32)*
X159760000Y-61200000D03*
G04 #@! TO.P,A1,31*
G04 #@! TO.N,Net-(A1-Pad31)*
X159760000Y-63740000D03*
D10*
G04 #@! TO.P,A1,1*
G04 #@! TO.N,Net-(A1-Pad1)*
X111500000Y-70340000D03*
D12*
G04 #@! TO.P,A1,17*
G04 #@! TO.N,Net-(A1-Pad17)*
X159760000Y-100820000D03*
G04 #@! TO.P,A1,2*
G04 #@! TO.N,Net-(A1-Pad2)*
X111500000Y-72880000D03*
G04 #@! TO.P,A1,18*
G04 #@! TO.N,Net-(A1-Pad18)*
X159760000Y-98280000D03*
G04 #@! TO.P,A1,3*
G04 #@! TO.N,Net-(A1-Pad3)*
X111500000Y-75420000D03*
G04 #@! TO.P,A1,19*
G04 #@! TO.N,Net-(A1-Pad19)*
X159760000Y-95740000D03*
G04 #@! TO.P,A1,4*
G04 #@! TO.N,+3V3*
X111500000Y-77960000D03*
G04 #@! TO.P,A1,20*
G04 #@! TO.N,Net-(A1-Pad20)*
X159760000Y-93200000D03*
G04 #@! TO.P,A1,5*
G04 #@! TO.N,+5V*
X111500000Y-80500000D03*
G04 #@! TO.P,A1,21*
G04 #@! TO.N,Net-(A1-Pad21)*
X159760000Y-90660000D03*
G04 #@! TO.P,A1,6*
G04 #@! TO.N,Net-(A1-Pad6)*
X111500000Y-83040000D03*
G04 #@! TO.P,A1,22*
G04 #@! TO.N,Net-(A1-Pad22)*
X159760000Y-88120000D03*
G04 #@! TO.P,A1,7*
G04 #@! TO.N,GND*
X111500000Y-85580000D03*
G04 #@! TO.P,A1,23*
G04 #@! TO.N,Net-(A1-Pad23)*
X159760000Y-84060000D03*
G04 #@! TO.P,A1,8*
G04 #@! TO.N,Net-(A1-Pad8)*
X111500000Y-88120000D03*
G04 #@! TO.P,A1,24*
G04 #@! TO.N,Net-(A1-Pad24)*
X159760000Y-81520000D03*
G04 #@! TO.P,A1,9*
G04 #@! TO.N,Net-(A1-Pad9)*
X111500000Y-93200000D03*
G04 #@! TO.P,A1,25*
G04 #@! TO.N,Net-(A1-Pad25)*
X159760000Y-78980000D03*
G04 #@! TO.P,A1,10*
G04 #@! TO.N,Net-(A1-Pad10)*
X111500000Y-95740000D03*
G04 #@! TO.P,A1,26*
G04 #@! TO.N,Net-(A1-Pad26)*
X159760000Y-76440000D03*
G04 #@! TO.P,A1,11*
G04 #@! TO.N,Net-(A1-Pad11)*
X111500000Y-98280000D03*
G04 #@! TO.P,A1,27*
G04 #@! TO.N,Net-(A1-Pad27)*
X159760000Y-73900000D03*
G04 #@! TO.P,A1,12*
G04 #@! TO.N,Net-(A1-Pad12)*
X111500000Y-100820000D03*
G04 #@! TO.P,A1,28*
G04 #@! TO.N,Net-(A1-Pad28)*
X159760000Y-71360000D03*
G04 #@! TO.P,A1,13*
G04 #@! TO.N,Net-(A1-Pad13)*
X111500000Y-103360000D03*
G04 #@! TO.P,A1,29*
G04 #@! TO.N,Net-(A1-Pad29)*
X159760000Y-68820000D03*
G04 #@! TO.P,A1,14*
G04 #@! TO.N,Net-(A1-Pad14)*
X111500000Y-105900000D03*
G04 #@! TO.P,A1,30*
G04 #@! TO.N,Net-(A1-Pad30)*
X159760000Y-66280000D03*
G04 #@! TO.P,A1,15*
G04 #@! TO.N,Net-(A1-Pad15)*
X159760000Y-105900000D03*
G04 #@! TO.P,A1,16*
G04 #@! TO.N,Net-(A1-Pad16)*
X159760000Y-103360000D03*
G04 #@! TD*
D17*
G04 #@! TO.P,J9,1*
G04 #@! TO.N,Net-(J9-Pad1)*
X112500000Y-44000000D03*
D18*
G04 #@! TO.P,J9,2*
G04 #@! TO.N,Net-(J9-Pad2)*
X109960000Y-44000000D03*
G04 #@! TO.P,J9,3*
G04 #@! TO.N,GND*
X112500000Y-46540000D03*
G04 #@! TO.P,J9,4*
X109960000Y-46540000D03*
G04 #@! TO.P,J9,5*
X112500000Y-49080000D03*
G04 #@! TO.P,J9,6*
X109960000Y-49080000D03*
G04 #@! TO.P,J9,7*
X112500000Y-51620000D03*
G04 #@! TO.P,J9,8*
X109960000Y-51620000D03*
G04 #@! TO.P,J9,9*
G04 #@! TO.N,Net-(J9-Pad9)*
X112500000Y-54160000D03*
G04 #@! TO.P,J9,10*
G04 #@! TO.N,Net-(J9-Pad10)*
X109960000Y-54160000D03*
G04 #@! TO.P,J9,11*
G04 #@! TO.N,+5V*
X112500000Y-56700000D03*
G04 #@! TO.P,J9,12*
X109960000Y-56700000D03*
G04 #@! TO.P,J9,13*
G04 #@! TO.N,Net-(J9-Pad13)*
X112500000Y-59240000D03*
G04 #@! TO.P,J9,14*
G04 #@! TO.N,Net-(J9-Pad14)*
X109960000Y-59240000D03*
G04 #@! TO.P,J9,15*
G04 #@! TO.N,Net-(J9-Pad15)*
X112500000Y-61780000D03*
G04 #@! TO.P,J9,16*
G04 #@! TO.N,Net-(J9-Pad16)*
X109960000Y-61780000D03*
G04 #@! TD*
D14*
G04 #@! TO.P,J8,T*
G04 #@! TO.N,Net-(J8-PadT)*
X181500000Y-129400000D03*
D19*
G04 #@! TO.P,J8,S*
G04 #@! TO.N,GND*
X181500000Y-118000000D03*
D14*
G04 #@! TO.P,J8,TN*
G04 #@! TO.N,Net-(J8-PadTN)*
X181500000Y-121100000D03*
G04 #@! TD*
G04 #@! TO.P,J7,TN*
G04 #@! TO.N,Net-(J7-PadTN)*
X181500000Y-95100000D03*
D19*
G04 #@! TO.P,J7,S*
G04 #@! TO.N,GND*
X181500000Y-92000000D03*
D14*
G04 #@! TO.P,J7,T*
G04 #@! TO.N,Net-(J7-PadT)*
X181500000Y-103400000D03*
G04 #@! TD*
D20*
G04 #@! TO.P,SW4,A*
G04 #@! TO.N,Net-(R3-Pad2)*
X94500000Y-132000000D03*
D21*
G04 #@! TO.P,SW4,C*
G04 #@! TO.N,GND*
X97000000Y-132000000D03*
G04 #@! TO.P,SW4,B*
G04 #@! TO.N,Net-(R2-Pad2)*
X99500000Y-132000000D03*
D22*
G04 #@! TO.P,SW4,MP*
G04 #@! TO.N,N/C*
X91400000Y-124500000D03*
X102600000Y-124500000D03*
D21*
G04 #@! TO.P,SW4,S2*
G04 #@! TO.N,Net-(R13-Pad2)*
X94500000Y-117500000D03*
G04 #@! TO.P,SW4,S1*
G04 #@! TO.N,GND*
X99500000Y-117500000D03*
G04 #@! TD*
G04 #@! TO.P,SW3,S1*
G04 #@! TO.N,GND*
X99500000Y-91500000D03*
G04 #@! TO.P,SW3,S2*
G04 #@! TO.N,Net-(R12-Pad2)*
X94500000Y-91500000D03*
D22*
G04 #@! TO.P,SW3,MP*
G04 #@! TO.N,N/C*
X102600000Y-98500000D03*
X91400000Y-98500000D03*
D21*
G04 #@! TO.P,SW3,B*
G04 #@! TO.N,Net-(R4-Pad2)*
X99500000Y-106000000D03*
G04 #@! TO.P,SW3,C*
G04 #@! TO.N,GND*
X97000000Y-106000000D03*
D20*
G04 #@! TO.P,SW3,A*
G04 #@! TO.N,Net-(R5-Pad2)*
X94500000Y-106000000D03*
G04 #@! TD*
G04 #@! TO.P,SW2,A*
G04 #@! TO.N,Net-(R7-Pad2)*
X94500000Y-80000000D03*
D21*
G04 #@! TO.P,SW2,C*
G04 #@! TO.N,GND*
X97000000Y-80000000D03*
G04 #@! TO.P,SW2,B*
G04 #@! TO.N,Net-(R6-Pad2)*
X99500000Y-80000000D03*
D22*
G04 #@! TO.P,SW2,MP*
G04 #@! TO.N,N/C*
X91400000Y-72500000D03*
X102600000Y-72500000D03*
D21*
G04 #@! TO.P,SW2,S2*
G04 #@! TO.N,Net-(R14-Pad2)*
X94500000Y-65500000D03*
G04 #@! TO.P,SW2,S1*
G04 #@! TO.N,GND*
X99500000Y-65500000D03*
G04 #@! TD*
G04 #@! TO.P,SW1,S1*
G04 #@! TO.N,GND*
X99500000Y-39500000D03*
G04 #@! TO.P,SW1,S2*
G04 #@! TO.N,Net-(R15-Pad2)*
X94500000Y-39500000D03*
D22*
G04 #@! TO.P,SW1,MP*
G04 #@! TO.N,N/C*
X102600000Y-46500000D03*
X91400000Y-46500000D03*
D21*
G04 #@! TO.P,SW1,B*
G04 #@! TO.N,Net-(R8-Pad2)*
X99500000Y-54000000D03*
G04 #@! TO.P,SW1,C*
G04 #@! TO.N,GND*
X97000000Y-54000000D03*
D20*
G04 #@! TO.P,SW1,A*
G04 #@! TO.N,Net-(R9-Pad2)*
X94500000Y-54000000D03*
G04 #@! TD*
D14*
G04 #@! TO.P,J6,T*
G04 #@! TO.N,Net-(J6-PadT)*
X181500000Y-77400000D03*
D19*
G04 #@! TO.P,J6,S*
G04 #@! TO.N,GND*
X181500000Y-66000000D03*
D14*
G04 #@! TO.P,J6,TN*
G04 #@! TO.N,Net-(J6-PadTN)*
X181500000Y-69100000D03*
G04 #@! TD*
G04 #@! TO.P,J5,TN*
G04 #@! TO.N,Net-(J5-PadTN)*
X181500000Y-43100000D03*
D19*
G04 #@! TO.P,J5,S*
G04 #@! TO.N,GND*
X181500000Y-40000000D03*
D14*
G04 #@! TO.P,J5,T*
G04 #@! TO.N,Net-(J5-PadT)*
X181500000Y-51400000D03*
G04 #@! TD*
G04 #@! TO.P,J4,T*
G04 #@! TO.N,Net-(J4-PadT)*
X170500000Y-129400000D03*
D19*
G04 #@! TO.P,J4,S*
G04 #@! TO.N,GND*
X170500000Y-118000000D03*
D14*
G04 #@! TO.P,J4,TN*
G04 #@! TO.N,Net-(J4-PadTN)*
X170500000Y-121100000D03*
G04 #@! TD*
G04 #@! TO.P,J3,TN*
G04 #@! TO.N,Net-(J3-PadTN)*
X170500000Y-95100000D03*
D19*
G04 #@! TO.P,J3,S*
G04 #@! TO.N,GND*
X170500000Y-92000000D03*
D14*
G04 #@! TO.P,J3,T*
G04 #@! TO.N,Net-(J3-PadT)*
X170500000Y-103400000D03*
G04 #@! TD*
G04 #@! TO.P,J2,T*
G04 #@! TO.N,Net-(J2-PadT)*
X170500000Y-77400000D03*
D19*
G04 #@! TO.P,J2,S*
G04 #@! TO.N,GND*
X170500000Y-66000000D03*
D14*
G04 #@! TO.P,J2,TN*
G04 #@! TO.N,Net-(J2-PadTN)*
X170500000Y-69100000D03*
G04 #@! TD*
G04 #@! TO.P,J1,TN*
G04 #@! TO.N,Net-(J1-PadTN)*
X170500000Y-43100000D03*
D19*
G04 #@! TO.P,J1,S*
G04 #@! TO.N,GND*
X170500000Y-40000000D03*
D14*
G04 #@! TO.P,J1,T*
G04 #@! TO.N,Net-(J1-PadT)*
X170500000Y-51400000D03*
G04 #@! TD*
D23*
G04 #@! TO.P,U2,1*
G04 #@! TO.N,Net-(U2-Pad1)*
X153550000Y-62370000D03*
G04 #@! TO.P,U2,2*
G04 #@! TO.N,GND*
X153550000Y-64910000D03*
G04 #@! TO.P,U2,3*
G04 #@! TO.N,+5V*
X153550000Y-67450000D03*
G04 #@! TO.P,U2,4*
G04 #@! TO.N,+3V3*
X153550000Y-69990000D03*
G04 #@! TO.P,U2,5*
G04 #@! TO.N,Net-(U2-Pad5)*
X153550000Y-72530000D03*
G04 #@! TO.P,U2,6*
G04 #@! TO.N,Net-(U2-Pad6)*
X153550000Y-75070000D03*
G04 #@! TO.P,U2,7*
G04 #@! TO.N,Net-(A1-Pad18)*
X153550000Y-77610000D03*
G04 #@! TO.P,U2,8*
G04 #@! TO.N,Net-(A1-Pad20)*
X153550000Y-80150000D03*
G04 #@! TO.P,U2,9*
G04 #@! TO.N,Net-(A1-Pad22)*
X153550000Y-82690000D03*
G04 #@! TO.P,U2,10*
G04 #@! TO.N,Net-(A1-Pad24)*
X153550000Y-85230000D03*
G04 #@! TO.P,U2,11*
G04 #@! TO.N,Net-(U2-Pad11)*
X153550000Y-87770000D03*
G04 #@! TO.P,U2,12*
G04 #@! TO.N,Net-(U2-Pad12)*
X153550000Y-90310000D03*
G04 #@! TO.P,U2,13*
G04 #@! TO.N,Net-(U2-Pad13)*
X153550000Y-92850000D03*
G04 #@! TO.P,U2,14*
G04 #@! TO.N,Net-(U2-Pad14)*
X153550000Y-95390000D03*
G04 #@! TO.P,U2,15*
G04 #@! TO.N,Net-(J11-PadT)*
X153550000Y-97930000D03*
G04 #@! TO.P,U2,16*
G04 #@! TO.N,Net-(U1-Pad2)*
X153550000Y-100470000D03*
G04 #@! TO.P,U2,17*
G04 #@! TO.N,Net-(U2-Pad17)*
X153550000Y-103010000D03*
G04 #@! TO.P,U2,18*
G04 #@! TO.N,Net-(U2-Pad18)*
X153550000Y-105550000D03*
G04 #@! TO.P,U2,19*
G04 #@! TO.N,Net-(U2-Pad19)*
X153550000Y-108090000D03*
G04 #@! TO.P,U2,20*
G04 #@! TO.N,Net-(U2-Pad20)*
X153550000Y-110630000D03*
G04 #@! TO.P,U2,21*
G04 #@! TO.N,Net-(U2-Pad21)*
X153550000Y-113170000D03*
G04 #@! TO.P,U2,22*
G04 #@! TO.N,VDD*
X151010000Y-62370000D03*
G04 #@! TO.P,U2,23*
G04 #@! TO.N,GND*
X151010000Y-64910000D03*
G04 #@! TO.P,U2,24*
G04 #@! TO.N,Net-(U2-Pad24)*
X151010000Y-67450000D03*
G04 #@! TO.P,U2,25*
G04 #@! TO.N,Net-(U2-Pad25)*
X151010000Y-69990000D03*
G04 #@! TO.P,U2,26*
G04 #@! TO.N,Net-(U2-Pad26)*
X151010000Y-72530000D03*
G04 #@! TO.P,U2,27*
G04 #@! TO.N,Net-(U2-Pad27)*
X151010000Y-75070000D03*
G04 #@! TO.P,U2,28*
G04 #@! TO.N,Net-(A1-Pad17)*
X151010000Y-77610000D03*
G04 #@! TO.P,U2,29*
G04 #@! TO.N,Net-(A1-Pad19)*
X151010000Y-80150000D03*
G04 #@! TO.P,U2,30*
G04 #@! TO.N,Net-(A1-Pad21)*
X151010000Y-82690000D03*
G04 #@! TO.P,U2,31*
G04 #@! TO.N,Net-(A1-Pad23)*
X151010000Y-85230000D03*
G04 #@! TO.P,U2,32*
G04 #@! TO.N,Net-(J8-PadT)*
X151010000Y-87770000D03*
G04 #@! TO.P,U2,33*
G04 #@! TO.N,Net-(J7-PadT)*
X151010000Y-90310000D03*
G04 #@! TO.P,U2,34*
G04 #@! TO.N,Net-(J6-PadT)*
X151010000Y-92850000D03*
G04 #@! TO.P,U2,35*
G04 #@! TO.N,Net-(J5-PadT)*
X151010000Y-95390000D03*
G04 #@! TO.P,U2,36*
G04 #@! TO.N,Net-(J10-PadT)*
X151010000Y-97930000D03*
G04 #@! TO.P,U2,37*
G04 #@! TO.N,Net-(U1-Pad3)*
X151010000Y-100470000D03*
G04 #@! TO.P,U2,38*
G04 #@! TO.N,Net-(U1-Pad4)*
X151010000Y-103010000D03*
G04 #@! TO.P,U2,39*
G04 #@! TO.N,Net-(R15-Pad2)*
X151010000Y-105550000D03*
G04 #@! TO.P,U2,40*
G04 #@! TO.N,Net-(R14-Pad2)*
X151010000Y-108090000D03*
G04 #@! TO.P,U2,41*
G04 #@! TO.N,Net-(R12-Pad2)*
X151010000Y-110630000D03*
G04 #@! TO.P,U2,42*
G04 #@! TO.N,Net-(R13-Pad2)*
X151010000Y-113170000D03*
G04 #@! TO.P,U2,43*
G04 #@! TO.N,Net-(A1-Pad10)*
X120530000Y-75070000D03*
G04 #@! TO.P,U2,44*
G04 #@! TO.N,Net-(A1-Pad12)*
X120530000Y-77610000D03*
G04 #@! TO.P,U2,45*
G04 #@! TO.N,Net-(U2-Pad45)*
X120530000Y-80150000D03*
G04 #@! TO.P,U2,46*
G04 #@! TO.N,Net-(U2-Pad46)*
X120530000Y-82690000D03*
G04 #@! TO.P,U2,47*
G04 #@! TO.N,Net-(U2-Pad47)*
X120530000Y-85230000D03*
G04 #@! TO.P,U2,48*
G04 #@! TO.N,Net-(U2-Pad48)*
X120530000Y-87770000D03*
G04 #@! TO.P,U2,49*
G04 #@! TO.N,Net-(U2-Pad49)*
X120530000Y-90310000D03*
G04 #@! TO.P,U2,50*
G04 #@! TO.N,Net-(U2-Pad50)*
X120530000Y-92850000D03*
G04 #@! TO.P,U2,51*
G04 #@! TO.N,Net-(U2-Pad51)*
X120530000Y-95390000D03*
G04 #@! TO.P,U2,52*
G04 #@! TO.N,Net-(U2-Pad52)*
X120530000Y-97930000D03*
G04 #@! TO.P,U2,53*
G04 #@! TO.N,Net-(U2-Pad53)*
X120530000Y-100470000D03*
G04 #@! TO.P,U2,54*
G04 #@! TO.N,Net-(U2-Pad54)*
X120530000Y-103010000D03*
G04 #@! TO.P,U2,55*
G04 #@! TO.N,Net-(U2-Pad55)*
X120530000Y-105550000D03*
G04 #@! TO.P,U2,56*
G04 #@! TO.N,Net-(U2-Pad56)*
X120530000Y-108090000D03*
G04 #@! TO.P,U2,57*
G04 #@! TO.N,Net-(U2-Pad57)*
X120530000Y-110630000D03*
G04 #@! TO.P,U2,58*
G04 #@! TO.N,Net-(U2-Pad58)*
X120530000Y-113170000D03*
G04 #@! TO.P,U2,59*
G04 #@! TO.N,Net-(A1-Pad9)*
X117990000Y-75070000D03*
G04 #@! TO.P,U2,60*
G04 #@! TO.N,Net-(A1-Pad11)*
X117990000Y-77610000D03*
G04 #@! TO.P,U2,61*
G04 #@! TO.N,Net-(A1-Pad13)*
X117990000Y-80150000D03*
G04 #@! TO.P,U2,62*
G04 #@! TO.N,Net-(U2-Pad62)*
X117990000Y-82690000D03*
G04 #@! TO.P,U2,63*
G04 #@! TO.N,Net-(U2-Pad63)*
X117990000Y-85230000D03*
G04 #@! TO.P,U2,64*
G04 #@! TO.N,Net-(U2-Pad64)*
X117990000Y-87770000D03*
G04 #@! TO.P,U2,65*
G04 #@! TO.N,Net-(U2-Pad65)*
X117990000Y-90310000D03*
G04 #@! TO.P,U2,66*
G04 #@! TO.N,Net-(U2-Pad66)*
X117990000Y-92850000D03*
G04 #@! TO.P,U2,67*
G04 #@! TO.N,Net-(R9-Pad2)*
X117990000Y-95390000D03*
G04 #@! TO.P,U2,68*
G04 #@! TO.N,Net-(R8-Pad2)*
X117990000Y-97930000D03*
G04 #@! TO.P,U2,69*
G04 #@! TO.N,Net-(R7-Pad2)*
X117990000Y-100470000D03*
G04 #@! TO.P,U2,70*
G04 #@! TO.N,Net-(R6-Pad2)*
X117990000Y-103010000D03*
G04 #@! TO.P,U2,71*
G04 #@! TO.N,Net-(R5-Pad2)*
X117990000Y-105550000D03*
G04 #@! TO.P,U2,72*
G04 #@! TO.N,Net-(R4-Pad2)*
X117990000Y-108090000D03*
G04 #@! TO.P,U2,73*
G04 #@! TO.N,Net-(R3-Pad2)*
X117990000Y-110630000D03*
G04 #@! TO.P,U2,74*
G04 #@! TO.N,Net-(R2-Pad2)*
X117990000Y-113170000D03*
G04 #@! TD*
D24*
G04 #@! TO.N,+5V*
X133385763Y-68902999D03*
G04 #@! TD*
D25*
G04 #@! TO.N,Net-(J1-PadT)*
X170540000Y-51440000D02*
X170500000Y-51400000D01*
X170540000Y-55500000D02*
X170540000Y-51440000D01*
D26*
G04 #@! TO.N,Net-(J2-PadT)*
X171564999Y-78464999D02*
X170500000Y-77400000D01*
X171540000Y-78440000D02*
X170500000Y-77400000D01*
X171540000Y-81500000D02*
X171540000Y-78440000D01*
G04 #@! TO.N,Net-(J4-PadT)*
X170500000Y-133460000D02*
X170540000Y-133500000D01*
X170500000Y-129400000D02*
X170500000Y-133460000D01*
G04 #@! TO.N,GND*
X172700000Y-107500000D02*
X172700000Y-107100000D01*
G04 #@! TO.N,+5V*
X156500000Y-123500000D02*
X162500000Y-123500000D01*
X146500000Y-113500000D02*
X141000000Y-113500000D01*
X156500000Y-123500000D02*
X146500000Y-113500000D01*
X141000000Y-113500000D02*
X141000000Y-92500000D01*
X153550000Y-67450000D02*
X152097001Y-68902999D01*
X141000000Y-92500000D02*
X141000000Y-68902999D01*
X152097001Y-68902999D02*
X141000000Y-68902999D01*
X141000000Y-68902999D02*
X133385763Y-68902999D01*
X112625001Y-78826237D02*
X122548239Y-68902999D01*
X122548239Y-68902999D02*
X133385763Y-68902999D01*
X111500000Y-80500000D02*
X112625001Y-79374999D01*
X143340000Y-115840000D02*
X141000000Y-113500000D01*
X143340000Y-118000000D02*
X143340000Y-115840000D01*
X168300000Y-107500000D02*
X169250000Y-107500000D01*
X171500000Y-114500000D02*
X176500000Y-114500000D01*
X162500000Y-123500000D02*
X171500000Y-114500000D01*
X169250000Y-107500000D02*
X171500000Y-109750000D01*
X171500000Y-109750000D02*
X171500000Y-114500000D01*
X112625001Y-79374999D02*
X112625001Y-78826237D01*
X133385763Y-68902999D02*
X133385763Y-68902999D01*
G04 #@! TO.N,Net-(A1-Pad17)*
X155000000Y-79991238D02*
X155000000Y-96000000D01*
X154071761Y-79062999D02*
X155000000Y-79991238D01*
X151010000Y-77610000D02*
X152462999Y-79062999D01*
X158960001Y-100020001D02*
X159760000Y-100820000D01*
X155000000Y-96000000D02*
X158960001Y-100020001D01*
X152462999Y-79062999D02*
X154071761Y-79062999D01*
G04 #@! TO.N,Net-(A1-Pad18)*
X158960001Y-97480001D02*
X159760000Y-98280000D01*
X153550000Y-77610000D02*
X155500000Y-79500000D01*
X155500000Y-94000000D02*
X158960001Y-97480001D01*
X155500000Y-79500000D02*
X155500000Y-94000000D01*
G04 #@! TO.N,Net-(A1-Pad21)*
X150248001Y-81928001D02*
X151010000Y-82690000D01*
X149922999Y-81602999D02*
X150248001Y-81928001D01*
X149922999Y-77088239D02*
X149922999Y-81602999D01*
X150488239Y-76522999D02*
X149922999Y-77088239D01*
X154071761Y-76522999D02*
X150488239Y-76522999D01*
X155950010Y-78401248D02*
X154071761Y-76522999D01*
X155950010Y-86850010D02*
X155950010Y-78401248D01*
X159760000Y-90660000D02*
X155950010Y-86850010D01*
G04 #@! TO.N,Net-(A1-Pad22)*
X152788001Y-83451999D02*
X153550000Y-82690000D01*
X152462999Y-83777001D02*
X152788001Y-83451999D01*
X149472989Y-82761751D02*
X150488239Y-83777001D01*
X149472989Y-74998249D02*
X149472989Y-82761751D01*
X150488239Y-73982999D02*
X149472989Y-74998249D01*
X154071761Y-73982999D02*
X150488239Y-73982999D01*
X156400022Y-84760022D02*
X156400022Y-76311260D01*
X150488239Y-83777001D02*
X152462999Y-83777001D01*
X156400022Y-76311260D02*
X154071761Y-73982999D01*
X159760000Y-88120000D02*
X156400022Y-84760022D01*
G04 #@! TO.N,Net-(A1-Pad9)*
X112750008Y-91949992D02*
X112299999Y-92400001D01*
X112299999Y-92400001D02*
X111500000Y-93200000D01*
X112750008Y-80309992D02*
X112750008Y-91949992D01*
X117990000Y-75070000D02*
X112750008Y-80309992D01*
G04 #@! TO.N,Net-(A1-Pad10)*
X117834237Y-76157001D02*
X113200018Y-80791220D01*
X112299999Y-94940001D02*
X111500000Y-95740000D01*
X113200018Y-80791220D02*
X113200018Y-94039982D01*
X119442999Y-76157001D02*
X117834237Y-76157001D01*
X113200018Y-94039982D02*
X112299999Y-94940001D01*
X120530000Y-75070000D02*
X119442999Y-76157001D01*
G04 #@! TO.N,Net-(A1-Pad11)*
X112299999Y-97480001D02*
X111500000Y-98280000D01*
X113650028Y-81949972D02*
X113650028Y-96129972D01*
X113650028Y-96129972D02*
X112299999Y-97480001D01*
X117990000Y-77610000D02*
X113650028Y-81949972D01*
G04 #@! TO.N,Net-(A1-Pad12)*
X114100038Y-98219962D02*
X112299999Y-100020001D01*
X114100038Y-82431200D02*
X114100038Y-98219962D01*
X117834237Y-78697001D02*
X114100038Y-82431200D01*
X119442999Y-78697001D02*
X117834237Y-78697001D01*
X112299999Y-100020001D02*
X111500000Y-100820000D01*
X120530000Y-77610000D02*
X119442999Y-78697001D01*
G04 #@! TO.N,Net-(A1-Pad13)*
X112299999Y-102560001D02*
X111500000Y-103360000D01*
X115000000Y-99860000D02*
X112299999Y-102560001D01*
X115000000Y-83140000D02*
X115000000Y-99860000D01*
X117990000Y-80150000D02*
X115000000Y-83140000D01*
G04 #@! TO.N,+3V3*
X154311999Y-69228001D02*
X153550000Y-69990000D01*
X154637001Y-68902999D02*
X154311999Y-69228001D01*
X154637001Y-66928239D02*
X154637001Y-68902999D01*
X123097001Y-66362999D02*
X154071761Y-66362999D01*
X111500000Y-77960000D02*
X123097001Y-66362999D01*
X154071761Y-66362999D02*
X154637001Y-66928239D01*
G04 #@! TO.N,Net-(U1-Pad2)*
X154311999Y-101231999D02*
X153550000Y-100470000D01*
X155025001Y-101945001D02*
X154311999Y-101231999D01*
X166065002Y-108000000D02*
X160010003Y-101945001D01*
X160010003Y-101945001D02*
X155025001Y-101945001D01*
X168300000Y-108000000D02*
X166065002Y-108000000D01*
G04 #@! TO.N,Net-(U1-Pad3)*
X151771999Y-101231999D02*
X151010000Y-100470000D01*
X152097001Y-101557001D02*
X151771999Y-101231999D01*
X153705763Y-101557001D02*
X152097001Y-101557001D01*
X156633763Y-104485001D02*
X153705763Y-101557001D01*
X160010003Y-104485001D02*
X156633763Y-104485001D01*
X164025002Y-108500000D02*
X160010003Y-104485001D01*
X168300000Y-108500000D02*
X164025002Y-108500000D01*
G04 #@! TO.N,Net-(R1-Pad1)*
X154631370Y-118000000D02*
X153500000Y-118000000D01*
X164505002Y-118000000D02*
X154631370Y-118000000D01*
X168300000Y-114205002D02*
X164505002Y-118000000D01*
X168300000Y-109500000D02*
X168300000Y-114205002D01*
G04 #@! TO.N,Net-(R15-Pad2)*
X160040001Y-108200001D02*
X166340000Y-114500000D01*
X153705763Y-106637001D02*
X155268763Y-108200001D01*
X155268763Y-108200001D02*
X160040001Y-108200001D01*
X151010000Y-105550000D02*
X152097001Y-106637001D01*
X152097001Y-106637001D02*
X153705763Y-106637001D01*
G04 #@! TO.N,Net-(R14-Pad2)*
X151771999Y-108851999D02*
X151010000Y-108090000D01*
X152462999Y-109542999D02*
X151771999Y-108851999D01*
X158702999Y-109542999D02*
X152462999Y-109542999D01*
X162500000Y-113340000D02*
X158702999Y-109542999D01*
G04 #@! TO.N,Net-(R12-Pad2)*
X151771999Y-111391999D02*
X151010000Y-110630000D01*
X152380000Y-112000000D02*
X151771999Y-111391999D01*
X158160000Y-112000000D02*
X152380000Y-112000000D01*
X159500000Y-113340000D02*
X158160000Y-112000000D01*
G04 #@! TO.N,Net-(R13-Pad2)*
X151771999Y-113931999D02*
X151010000Y-113170000D01*
X152097001Y-114257001D02*
X151771999Y-113931999D01*
X154071761Y-114257001D02*
X152097001Y-114257001D01*
X154988762Y-113340000D02*
X154071761Y-114257001D01*
X156500000Y-113340000D02*
X154988762Y-113340000D01*
G04 #@! TO.N,Net-(R9-Pad2)*
X118751999Y-94628001D02*
X117990000Y-95390000D01*
X119442999Y-93937001D02*
X118751999Y-94628001D01*
X129402999Y-93937001D02*
X119442999Y-93937001D01*
X130840000Y-92500000D02*
X129402999Y-93937001D01*
G04 #@! TO.N,Net-(R8-Pad2)*
X118751999Y-97168001D02*
X117990000Y-97930000D01*
X119420000Y-96500000D02*
X118751999Y-97168001D01*
X129840000Y-96500000D02*
X119420000Y-96500000D01*
X130840000Y-95500000D02*
X129840000Y-96500000D01*
G04 #@! TO.N,Net-(R7-Pad2)*
X118751999Y-99708001D02*
X117990000Y-100470000D01*
X119077001Y-99382999D02*
X118751999Y-99708001D01*
X128825631Y-99382999D02*
X119077001Y-99382999D01*
X129708630Y-98500000D02*
X128825631Y-99382999D01*
X130840000Y-98500000D02*
X129708630Y-98500000D01*
G04 #@! TO.N,Net-(R6-Pad2)*
X118751999Y-102248001D02*
X117990000Y-103010000D01*
X119077001Y-101922999D02*
X118751999Y-102248001D01*
X129285631Y-101922999D02*
X119077001Y-101922999D01*
X129708630Y-101500000D02*
X129285631Y-101922999D01*
X130840000Y-101500000D02*
X129708630Y-101500000D01*
G04 #@! TO.N,Net-(R5-Pad2)*
X118751999Y-104788001D02*
X117990000Y-105550000D01*
X119077001Y-104462999D02*
X118751999Y-104788001D01*
X129671629Y-104462999D02*
X119077001Y-104462999D01*
X129708630Y-104500000D02*
X129671629Y-104462999D01*
X130840000Y-104500000D02*
X129708630Y-104500000D01*
X117114999Y-104674999D02*
X117228001Y-104788001D01*
X94575001Y-104674999D02*
X117114999Y-104674999D01*
X94500000Y-104750000D02*
X94575001Y-104674999D01*
X117228001Y-104788001D02*
X117990000Y-105550000D01*
X94500000Y-106000000D02*
X94500000Y-104750000D01*
G04 #@! TO.N,Net-(R4-Pad2)*
X119379999Y-106700001D02*
X118751999Y-107328001D01*
X130040001Y-106700001D02*
X119379999Y-106700001D01*
X118751999Y-107328001D02*
X117990000Y-108090000D01*
X130840000Y-107500000D02*
X130040001Y-106700001D01*
X101590000Y-108090000D02*
X117990000Y-108090000D01*
X99500000Y-106000000D02*
X101590000Y-108090000D01*
G04 #@! TO.N,Net-(R3-Pad2)*
X119077001Y-109542999D02*
X118751999Y-109868001D01*
X129882999Y-109542999D02*
X119077001Y-109542999D01*
X118751999Y-109868001D02*
X117990000Y-110630000D01*
X130840000Y-110500000D02*
X129882999Y-109542999D01*
X116912370Y-110630000D02*
X117990000Y-110630000D01*
X113620998Y-110630000D02*
X116912370Y-110630000D01*
X94500000Y-129750998D02*
X113620998Y-110630000D01*
X94500000Y-132000000D02*
X94500000Y-129750998D01*
G04 #@! TO.N,Net-(R2-Pad2)*
X118751999Y-112408001D02*
X117990000Y-113170000D01*
X119442999Y-111717001D02*
X118751999Y-112408001D01*
X129057001Y-111717001D02*
X119442999Y-111717001D01*
X130840000Y-113500000D02*
X129057001Y-111717001D01*
X117990000Y-113510000D02*
X117990000Y-113170000D01*
X99500000Y-132000000D02*
X117990000Y-113510000D01*
G04 #@! TO.N,Net-(U1-Pad4)*
X152097001Y-104097001D02*
X151771999Y-103771999D01*
X153705763Y-104097001D02*
X152097001Y-104097001D01*
X156633763Y-107025001D02*
X153705763Y-104097001D01*
X168300000Y-109000000D02*
X161476410Y-109000000D01*
X159501411Y-107025001D02*
X156633763Y-107025001D01*
X161476410Y-109000000D02*
X159501411Y-107025001D01*
X151771999Y-103771999D02*
X151010000Y-103010000D01*
G04 #@! TO.N,Net-(RV2-Pad3)*
X171750000Y-108000000D02*
X172700000Y-108000000D01*
X163000000Y-99250000D02*
X171750000Y-108000000D01*
X166901767Y-55500000D02*
X163000000Y-59401767D01*
X163000000Y-59401767D02*
X163000000Y-62500000D01*
X167920000Y-55500000D02*
X166901767Y-55500000D01*
X163000000Y-62500000D02*
X163000000Y-99250000D01*
G04 #@! TO.N,Net-(RV3-Pad3)*
X173786410Y-108500000D02*
X174175011Y-108111399D01*
X174175011Y-108111399D02*
X174175011Y-81075011D01*
X172700000Y-108500000D02*
X173786410Y-108500000D01*
G04 #@! TO.N,Net-(RV4-Pad3)*
X177625001Y-113875001D02*
X177625001Y-122274999D01*
X173250000Y-109500000D02*
X177625001Y-113875001D01*
X172700000Y-109500000D02*
X173250000Y-109500000D01*
X173080000Y-126820000D02*
X177625001Y-122274999D01*
X173080000Y-133500000D02*
X173080000Y-126820000D01*
G04 #@! TO.N,Net-(RV1-Pad3)*
X176920000Y-109000000D02*
X179500000Y-106420000D01*
X172700000Y-109000000D02*
X176920000Y-109000000D01*
G04 #@! TD*
D27*
G04 #@! TO.N,GND*
G36*
X185790001Y-135790000D02*
X149634363Y-135790000D01*
X149753864Y-135754005D01*
X149946965Y-135216777D01*
X149919778Y-134646546D01*
X149838273Y-134449774D01*
X167229831Y-134449774D01*
X167294131Y-134687611D01*
X167802342Y-134867333D01*
X168340644Y-134838892D01*
X168705869Y-134687611D01*
X168770169Y-134449774D01*
X168000000Y-133679605D01*
X167229831Y-134449774D01*
X149838273Y-134449774D01*
X149753864Y-134245995D01*
X149507745Y-134171861D01*
X148679605Y-135000000D01*
X148693748Y-135014142D01*
X148514142Y-135193748D01*
X148500000Y-135179605D01*
X148485858Y-135193748D01*
X148306252Y-135014142D01*
X148320395Y-135000000D01*
X147492255Y-134171861D01*
X147246136Y-134245995D01*
X147053035Y-134783223D01*
X147080222Y-135353454D01*
X147246136Y-135754005D01*
X147365637Y-135790000D01*
X127798436Y-135790000D01*
X127946965Y-135376777D01*
X127919778Y-134806546D01*
X127753864Y-134405995D01*
X127507745Y-134331861D01*
X126679605Y-135160000D01*
X126693748Y-135174142D01*
X126514142Y-135353748D01*
X126500000Y-135339605D01*
X126485858Y-135353748D01*
X126306252Y-135174142D01*
X126320395Y-135160000D01*
X125492255Y-134331861D01*
X125246136Y-134405995D01*
X125053035Y-134943223D01*
X125080222Y-135513454D01*
X125194771Y-135790000D01*
X89210000Y-135790000D01*
X89210000Y-134152255D01*
X125671861Y-134152255D01*
X126500000Y-134980395D01*
X127328139Y-134152255D01*
X127279946Y-133992255D01*
X147671861Y-133992255D01*
X148500000Y-134820395D01*
X149328139Y-133992255D01*
X149254005Y-133746136D01*
X148716777Y-133553035D01*
X148146546Y-133580222D01*
X147745995Y-133746136D01*
X147671861Y-133992255D01*
X127279946Y-133992255D01*
X127254005Y-133906136D01*
X126716777Y-133713035D01*
X126146546Y-133740222D01*
X125745995Y-133906136D01*
X125671861Y-134152255D01*
X89210000Y-134152255D01*
X89210000Y-125053208D01*
X89505259Y-125766026D01*
X90133974Y-126394741D01*
X90955431Y-126735000D01*
X91844569Y-126735000D01*
X92666026Y-126394741D01*
X93294741Y-125766026D01*
X93635000Y-124944569D01*
X93635000Y-124055431D01*
X93294741Y-123233974D01*
X92666026Y-122605259D01*
X91844569Y-122265000D01*
X90955431Y-122265000D01*
X90133974Y-122605259D01*
X89505259Y-123233974D01*
X89210000Y-123946792D01*
X89210000Y-117174778D01*
X92865000Y-117174778D01*
X92865000Y-117825222D01*
X93113914Y-118426153D01*
X93573847Y-118886086D01*
X94174778Y-119135000D01*
X94825222Y-119135000D01*
X95426153Y-118886086D01*
X95659707Y-118652532D01*
X98527073Y-118652532D01*
X98625736Y-118919387D01*
X99235461Y-119145908D01*
X99885460Y-119121856D01*
X100374264Y-118919387D01*
X100472927Y-118652532D01*
X99500000Y-117679605D01*
X98527073Y-118652532D01*
X95659707Y-118652532D01*
X95886086Y-118426153D01*
X96135000Y-117825222D01*
X96135000Y-117235461D01*
X97854092Y-117235461D01*
X97878144Y-117885460D01*
X98080613Y-118374264D01*
X98347468Y-118472927D01*
X99320395Y-117500000D01*
X99679605Y-117500000D01*
X100652532Y-118472927D01*
X100919387Y-118374264D01*
X101145908Y-117764539D01*
X101121856Y-117114540D01*
X100919387Y-116625736D01*
X100652532Y-116527073D01*
X99679605Y-117500000D01*
X99320395Y-117500000D01*
X98347468Y-116527073D01*
X98080613Y-116625736D01*
X97854092Y-117235461D01*
X96135000Y-117235461D01*
X96135000Y-117174778D01*
X95886086Y-116573847D01*
X95659707Y-116347468D01*
X98527073Y-116347468D01*
X99500000Y-117320395D01*
X100472927Y-116347468D01*
X100374264Y-116080613D01*
X99764539Y-115854092D01*
X99114540Y-115878144D01*
X98625736Y-116080613D01*
X98527073Y-116347468D01*
X95659707Y-116347468D01*
X95426153Y-116113914D01*
X94825222Y-115865000D01*
X94174778Y-115865000D01*
X93573847Y-116113914D01*
X93113914Y-116573847D01*
X92865000Y-117174778D01*
X89210000Y-117174778D01*
X89210000Y-105000000D01*
X92852560Y-105000000D01*
X92852560Y-107000000D01*
X92901843Y-107247765D01*
X93042191Y-107457809D01*
X93252235Y-107598157D01*
X93500000Y-107647440D01*
X95500000Y-107647440D01*
X95747765Y-107598157D01*
X95957809Y-107457809D01*
X96075062Y-107282329D01*
X96125736Y-107419387D01*
X96735461Y-107645908D01*
X97385460Y-107621856D01*
X97874264Y-107419387D01*
X97972927Y-107152532D01*
X97000000Y-106179605D01*
X96985858Y-106193748D01*
X96806253Y-106014143D01*
X96820395Y-106000000D01*
X96806253Y-105985858D01*
X96985858Y-105806253D01*
X97000000Y-105820395D01*
X97014143Y-105806253D01*
X97193748Y-105985858D01*
X97179605Y-106000000D01*
X98152532Y-106972927D01*
X98158486Y-106970725D01*
X98573847Y-107386086D01*
X99174778Y-107635000D01*
X99825222Y-107635000D01*
X99991375Y-107566177D01*
X100999673Y-108574476D01*
X101042071Y-108637929D01*
X101105524Y-108680327D01*
X101105526Y-108680329D01*
X101212555Y-108751843D01*
X101293463Y-108805904D01*
X101515148Y-108850000D01*
X101515152Y-108850000D01*
X101589999Y-108864888D01*
X101664846Y-108850000D01*
X116792700Y-108850000D01*
X116805680Y-108881337D01*
X117198663Y-109274320D01*
X117405513Y-109360000D01*
X117198663Y-109445680D01*
X116805680Y-109838663D01*
X116792700Y-109870000D01*
X113695846Y-109870000D01*
X113620998Y-109855112D01*
X113546150Y-109870000D01*
X113546146Y-109870000D01*
X113372603Y-109904520D01*
X113324460Y-109914096D01*
X113137416Y-110039076D01*
X113073069Y-110082071D01*
X113030669Y-110145527D01*
X94015528Y-129160669D01*
X93952072Y-129203069D01*
X93909672Y-129266525D01*
X93909671Y-129266526D01*
X93784097Y-129454461D01*
X93725112Y-129750998D01*
X93740001Y-129825850D01*
X93740001Y-130352560D01*
X93500000Y-130352560D01*
X93252235Y-130401843D01*
X93042191Y-130542191D01*
X92901843Y-130752235D01*
X92852560Y-131000000D01*
X92852560Y-133000000D01*
X92901843Y-133247765D01*
X93042191Y-133457809D01*
X93252235Y-133598157D01*
X93500000Y-133647440D01*
X95500000Y-133647440D01*
X95747765Y-133598157D01*
X95957809Y-133457809D01*
X96075062Y-133282329D01*
X96125736Y-133419387D01*
X96735461Y-133645908D01*
X97385460Y-133621856D01*
X97874264Y-133419387D01*
X97972927Y-133152532D01*
X97000000Y-132179605D01*
X96985858Y-132193748D01*
X96806253Y-132014143D01*
X96820395Y-132000000D01*
X96806253Y-131985858D01*
X96985858Y-131806253D01*
X97000000Y-131820395D01*
X97972927Y-130847468D01*
X97874264Y-130580613D01*
X97264539Y-130354092D01*
X96614540Y-130378144D01*
X96125736Y-130580613D01*
X96075062Y-130717671D01*
X95957809Y-130542191D01*
X95747765Y-130401843D01*
X95500000Y-130352560D01*
X95260000Y-130352560D01*
X95260000Y-130065799D01*
X100369754Y-124956046D01*
X100705259Y-125766026D01*
X101333974Y-126394741D01*
X102155431Y-126735000D01*
X103044569Y-126735000D01*
X103866026Y-126394741D01*
X104494741Y-125766026D01*
X104835000Y-124944569D01*
X104835000Y-124055431D01*
X104494741Y-123233974D01*
X103866026Y-122605259D01*
X103056046Y-122269754D01*
X113935800Y-111390000D01*
X116792700Y-111390000D01*
X116805680Y-111421337D01*
X117198663Y-111814320D01*
X117405513Y-111900000D01*
X117198663Y-111985680D01*
X116805680Y-112378663D01*
X116593000Y-112892119D01*
X116593000Y-113447881D01*
X116705564Y-113719634D01*
X99991376Y-130433823D01*
X99825222Y-130365000D01*
X99174778Y-130365000D01*
X98573847Y-130613914D01*
X98158486Y-131029275D01*
X98152532Y-131027073D01*
X97179605Y-132000000D01*
X98152532Y-132972927D01*
X98158486Y-132970725D01*
X98573847Y-133386086D01*
X99174778Y-133635000D01*
X99825222Y-133635000D01*
X100426153Y-133386086D01*
X100509897Y-133302342D01*
X166632667Y-133302342D01*
X166661108Y-133840644D01*
X166812389Y-134205869D01*
X167050226Y-134270169D01*
X167820395Y-133500000D01*
X167050226Y-132729831D01*
X166812389Y-132794131D01*
X166632667Y-133302342D01*
X100509897Y-133302342D01*
X100886086Y-132926153D01*
X101041800Y-132550226D01*
X167229831Y-132550226D01*
X168000000Y-133320395D01*
X168770169Y-132550226D01*
X168705869Y-132312389D01*
X168197658Y-132132667D01*
X167659356Y-132161108D01*
X167294131Y-132312389D01*
X167229831Y-132550226D01*
X101041800Y-132550226D01*
X101135000Y-132325222D01*
X101135000Y-131674778D01*
X101066177Y-131508624D01*
X102289051Y-130285750D01*
X109950000Y-130285750D01*
X109950000Y-131091309D01*
X110046673Y-131324698D01*
X110225301Y-131503327D01*
X110458690Y-131600000D01*
X111214250Y-131600000D01*
X111373000Y-131441250D01*
X111373000Y-130127000D01*
X110108750Y-130127000D01*
X109950000Y-130285750D01*
X102289051Y-130285750D01*
X103666110Y-128908691D01*
X109950000Y-128908691D01*
X109950000Y-129714250D01*
X110108750Y-129873000D01*
X111373000Y-129873000D01*
X111373000Y-128558750D01*
X111627000Y-128558750D01*
X111627000Y-129873000D01*
X111647000Y-129873000D01*
X111647000Y-130127000D01*
X111627000Y-130127000D01*
X111627000Y-131441250D01*
X111785750Y-131600000D01*
X112541310Y-131600000D01*
X112774699Y-131503327D01*
X112953327Y-131324698D01*
X113050000Y-131091309D01*
X113050000Y-130700283D01*
X113158810Y-130962973D01*
X113637027Y-131441190D01*
X114261849Y-131700000D01*
X114938151Y-131700000D01*
X115562973Y-131441190D01*
X116041190Y-130962973D01*
X116300000Y-130338151D01*
X116300000Y-129661849D01*
X121200000Y-129661849D01*
X121200000Y-130338151D01*
X121458810Y-130962973D01*
X121937027Y-131441190D01*
X122561849Y-131700000D01*
X123238151Y-131700000D01*
X123862973Y-131441190D01*
X124341190Y-130962973D01*
X124600000Y-130338151D01*
X124600000Y-130285750D01*
X131950000Y-130285750D01*
X131950000Y-131091309D01*
X132046673Y-131324698D01*
X132225301Y-131503327D01*
X132458690Y-131600000D01*
X133214250Y-131600000D01*
X133373000Y-131441250D01*
X133373000Y-130127000D01*
X132108750Y-130127000D01*
X131950000Y-130285750D01*
X124600000Y-130285750D01*
X124600000Y-129661849D01*
X124341190Y-129037027D01*
X124212854Y-128908691D01*
X131950000Y-128908691D01*
X131950000Y-129714250D01*
X132108750Y-129873000D01*
X133373000Y-129873000D01*
X133373000Y-128558750D01*
X133627000Y-128558750D01*
X133627000Y-129873000D01*
X133647000Y-129873000D01*
X133647000Y-130127000D01*
X133627000Y-130127000D01*
X133627000Y-131441250D01*
X133785750Y-131600000D01*
X134541310Y-131600000D01*
X134774699Y-131503327D01*
X134953327Y-131324698D01*
X135050000Y-131091309D01*
X135050000Y-130700283D01*
X135158810Y-130962973D01*
X135637027Y-131441190D01*
X136261849Y-131700000D01*
X136938151Y-131700000D01*
X137562973Y-131441190D01*
X138041190Y-130962973D01*
X138300000Y-130338151D01*
X138300000Y-129661849D01*
X143200000Y-129661849D01*
X143200000Y-130338151D01*
X143458810Y-130962973D01*
X143937027Y-131441190D01*
X144561849Y-131700000D01*
X145238151Y-131700000D01*
X145862973Y-131441190D01*
X146341190Y-130962973D01*
X146600000Y-130338151D01*
X146600000Y-129661849D01*
X146341190Y-129037027D01*
X145862973Y-128558810D01*
X145238151Y-128300000D01*
X144561849Y-128300000D01*
X143937027Y-128558810D01*
X143458810Y-129037027D01*
X143200000Y-129661849D01*
X138300000Y-129661849D01*
X138041190Y-129037027D01*
X137562973Y-128558810D01*
X136938151Y-128300000D01*
X136261849Y-128300000D01*
X135637027Y-128558810D01*
X135158810Y-129037027D01*
X135050000Y-129299717D01*
X135050000Y-128908691D01*
X134953327Y-128675302D01*
X134774699Y-128496673D01*
X134541310Y-128400000D01*
X133785750Y-128400000D01*
X133627000Y-128558750D01*
X133373000Y-128558750D01*
X133214250Y-128400000D01*
X132458690Y-128400000D01*
X132225301Y-128496673D01*
X132046673Y-128675302D01*
X131950000Y-128908691D01*
X124212854Y-128908691D01*
X123862973Y-128558810D01*
X123238151Y-128300000D01*
X122561849Y-128300000D01*
X121937027Y-128558810D01*
X121458810Y-129037027D01*
X121200000Y-129661849D01*
X116300000Y-129661849D01*
X116041190Y-129037027D01*
X115562973Y-128558810D01*
X114938151Y-128300000D01*
X114261849Y-128300000D01*
X113637027Y-128558810D01*
X113158810Y-129037027D01*
X113050000Y-129299717D01*
X113050000Y-128908691D01*
X112953327Y-128675302D01*
X112774699Y-128496673D01*
X112541310Y-128400000D01*
X111785750Y-128400000D01*
X111627000Y-128558750D01*
X111373000Y-128558750D01*
X111214250Y-128400000D01*
X110458690Y-128400000D01*
X110225301Y-128496673D01*
X110046673Y-128675302D01*
X109950000Y-128908691D01*
X103666110Y-128908691D01*
X107574801Y-125000000D01*
X125036887Y-125000000D01*
X125148260Y-125559909D01*
X125465423Y-126034577D01*
X125940091Y-126351740D01*
X126358667Y-126435000D01*
X126641333Y-126435000D01*
X127059909Y-126351740D01*
X127534577Y-126034577D01*
X127851740Y-125559909D01*
X127963113Y-125000000D01*
X127931287Y-124840000D01*
X147036887Y-124840000D01*
X147148260Y-125399909D01*
X147465423Y-125874577D01*
X147940091Y-126191740D01*
X148358667Y-126275000D01*
X148641333Y-126275000D01*
X149059909Y-126191740D01*
X149534577Y-125874577D01*
X149851740Y-125399909D01*
X149963113Y-124840000D01*
X149851740Y-124280091D01*
X149534577Y-123805423D01*
X149059909Y-123488260D01*
X148641333Y-123405000D01*
X148358667Y-123405000D01*
X147940091Y-123488260D01*
X147465423Y-123805423D01*
X147148260Y-124280091D01*
X147036887Y-124840000D01*
X127931287Y-124840000D01*
X127851740Y-124440091D01*
X127534577Y-123965423D01*
X127059909Y-123648260D01*
X126641333Y-123565000D01*
X126358667Y-123565000D01*
X125940091Y-123648260D01*
X125465423Y-123965423D01*
X125148260Y-124440091D01*
X125036887Y-125000000D01*
X107574801Y-125000000D01*
X118007802Y-114567000D01*
X118267881Y-114567000D01*
X118781337Y-114354320D01*
X119174320Y-113961337D01*
X119260000Y-113754487D01*
X119345680Y-113961337D01*
X119738663Y-114354320D01*
X120252119Y-114567000D01*
X120807881Y-114567000D01*
X121321337Y-114354320D01*
X121714320Y-113961337D01*
X121927000Y-113447881D01*
X121927000Y-112892119D01*
X121755053Y-112477001D01*
X128742200Y-112477001D01*
X129441312Y-113176114D01*
X129376887Y-113500000D01*
X129488260Y-114059909D01*
X129805423Y-114534577D01*
X130280091Y-114851740D01*
X130698667Y-114935000D01*
X130981333Y-114935000D01*
X131399909Y-114851740D01*
X131874577Y-114534577D01*
X132191740Y-114059909D01*
X132303113Y-113500000D01*
X132191740Y-112940091D01*
X131874577Y-112465423D01*
X131399909Y-112148260D01*
X130981333Y-112065000D01*
X130698667Y-112065000D01*
X130516114Y-112101312D01*
X130239258Y-111824456D01*
X130280091Y-111851740D01*
X130698667Y-111935000D01*
X130981333Y-111935000D01*
X131399909Y-111851740D01*
X131874577Y-111534577D01*
X132191740Y-111059909D01*
X132303113Y-110500000D01*
X132191740Y-109940091D01*
X131874577Y-109465423D01*
X131399909Y-109148260D01*
X130981333Y-109065000D01*
X130698667Y-109065000D01*
X130516113Y-109101312D01*
X130473330Y-109058529D01*
X130430928Y-108995070D01*
X130179536Y-108827095D01*
X129957851Y-108782999D01*
X129957846Y-108782999D01*
X129882999Y-108768111D01*
X129808152Y-108782999D01*
X121755053Y-108782999D01*
X121927000Y-108367881D01*
X121927000Y-107812119D01*
X121781148Y-107460001D01*
X129384843Y-107460001D01*
X129376887Y-107500000D01*
X129488260Y-108059909D01*
X129805423Y-108534577D01*
X130280091Y-108851740D01*
X130698667Y-108935000D01*
X130981333Y-108935000D01*
X131399909Y-108851740D01*
X131874577Y-108534577D01*
X132191740Y-108059909D01*
X132303113Y-107500000D01*
X132191740Y-106940091D01*
X131874577Y-106465423D01*
X131399909Y-106148260D01*
X130981333Y-106065000D01*
X130698667Y-106065000D01*
X130512915Y-106101948D01*
X130336538Y-105984097D01*
X130114853Y-105940001D01*
X130114848Y-105940001D01*
X130040001Y-105925113D01*
X129965154Y-105940001D01*
X121880558Y-105940001D01*
X121927000Y-105827881D01*
X121927000Y-105272119D01*
X121906654Y-105222999D01*
X129447762Y-105222999D01*
X129620145Y-105257288D01*
X129805423Y-105534577D01*
X130280091Y-105851740D01*
X130698667Y-105935000D01*
X130981333Y-105935000D01*
X131399909Y-105851740D01*
X131874577Y-105534577D01*
X132191740Y-105059909D01*
X132303113Y-104500000D01*
X132191740Y-103940091D01*
X131874577Y-103465423D01*
X131399909Y-103148260D01*
X130981333Y-103065000D01*
X130698667Y-103065000D01*
X130280091Y-103148260D01*
X129805423Y-103465423D01*
X129654328Y-103691552D01*
X129596782Y-103702999D01*
X121755053Y-103702999D01*
X121927000Y-103287881D01*
X121927000Y-102732119D01*
X121906654Y-102682999D01*
X129210784Y-102682999D01*
X129285631Y-102697887D01*
X129360478Y-102682999D01*
X129360483Y-102682999D01*
X129582168Y-102638903D01*
X129784706Y-102503571D01*
X129805423Y-102534577D01*
X130280091Y-102851740D01*
X130698667Y-102935000D01*
X130981333Y-102935000D01*
X131399909Y-102851740D01*
X131874577Y-102534577D01*
X132191740Y-102059909D01*
X132303113Y-101500000D01*
X132191740Y-100940091D01*
X131874577Y-100465423D01*
X131399909Y-100148260D01*
X130981333Y-100065000D01*
X130698667Y-100065000D01*
X130280091Y-100148260D01*
X129805423Y-100465423D01*
X129620145Y-100742712D01*
X129412093Y-100784096D01*
X129160701Y-100952071D01*
X129118299Y-101015530D01*
X128970830Y-101162999D01*
X121755053Y-101162999D01*
X121927000Y-100747881D01*
X121927000Y-100192119D01*
X121906654Y-100142999D01*
X128750784Y-100142999D01*
X128825631Y-100157887D01*
X128900478Y-100142999D01*
X128900483Y-100142999D01*
X129122168Y-100098903D01*
X129373560Y-99930928D01*
X129415962Y-99867469D01*
X129782765Y-99500667D01*
X129805423Y-99534577D01*
X130280091Y-99851740D01*
X130698667Y-99935000D01*
X130981333Y-99935000D01*
X131399909Y-99851740D01*
X131874577Y-99534577D01*
X132191740Y-99059909D01*
X132303113Y-98500000D01*
X132191740Y-97940091D01*
X131874577Y-97465423D01*
X131399909Y-97148260D01*
X130981333Y-97065000D01*
X130698667Y-97065000D01*
X130280091Y-97148260D01*
X129805423Y-97465423D01*
X129620145Y-97742712D01*
X129412093Y-97784096D01*
X129160701Y-97952071D01*
X129118301Y-98015527D01*
X128510830Y-98622999D01*
X121755053Y-98622999D01*
X121927000Y-98207881D01*
X121927000Y-97652119D01*
X121764579Y-97260000D01*
X129765153Y-97260000D01*
X129840000Y-97274888D01*
X129914847Y-97260000D01*
X129914852Y-97260000D01*
X130136537Y-97215904D01*
X130387929Y-97047929D01*
X130430331Y-96984470D01*
X130516113Y-96898688D01*
X130698667Y-96935000D01*
X130981333Y-96935000D01*
X131399909Y-96851740D01*
X131874577Y-96534577D01*
X132191740Y-96059909D01*
X132303113Y-95500000D01*
X132191740Y-94940091D01*
X131874577Y-94465423D01*
X131399909Y-94148260D01*
X130981333Y-94065000D01*
X130698667Y-94065000D01*
X130280091Y-94148260D01*
X130239257Y-94175544D01*
X130516114Y-93898688D01*
X130698667Y-93935000D01*
X130981333Y-93935000D01*
X131399909Y-93851740D01*
X131874577Y-93534577D01*
X132191740Y-93059909D01*
X132303113Y-92500000D01*
X132191740Y-91940091D01*
X131874577Y-91465423D01*
X131399909Y-91148260D01*
X130981333Y-91065000D01*
X130698667Y-91065000D01*
X130280091Y-91148260D01*
X129805423Y-91465423D01*
X129488260Y-91940091D01*
X129376887Y-92500000D01*
X129441312Y-92823886D01*
X129088198Y-93177001D01*
X121906654Y-93177001D01*
X121927000Y-93127881D01*
X121927000Y-92572119D01*
X121714320Y-92058663D01*
X121321337Y-91665680D01*
X121114487Y-91580000D01*
X121321337Y-91494320D01*
X121714320Y-91101337D01*
X121927000Y-90587881D01*
X121927000Y-90032119D01*
X121714320Y-89518663D01*
X121321337Y-89125680D01*
X121114487Y-89040000D01*
X121321337Y-88954320D01*
X121714320Y-88561337D01*
X121927000Y-88047881D01*
X121927000Y-87492119D01*
X121714320Y-86978663D01*
X121321337Y-86585680D01*
X121114487Y-86500000D01*
X121321337Y-86414320D01*
X121714320Y-86021337D01*
X121927000Y-85507881D01*
X121927000Y-84952119D01*
X121714320Y-84438663D01*
X121321337Y-84045680D01*
X121114487Y-83960000D01*
X121321337Y-83874320D01*
X121714320Y-83481337D01*
X121927000Y-82967881D01*
X121927000Y-82412119D01*
X121714320Y-81898663D01*
X121321337Y-81505680D01*
X121114487Y-81420000D01*
X121321337Y-81334320D01*
X121714320Y-80941337D01*
X121927000Y-80427881D01*
X121927000Y-79872119D01*
X121714320Y-79358663D01*
X121321337Y-78965680D01*
X121114487Y-78880000D01*
X121321337Y-78794320D01*
X121714320Y-78401337D01*
X121927000Y-77887881D01*
X121927000Y-77332119D01*
X121714320Y-76818663D01*
X121321337Y-76425680D01*
X121114487Y-76340000D01*
X121321337Y-76254320D01*
X121714320Y-75861337D01*
X121927000Y-75347881D01*
X121927000Y-74792119D01*
X121714320Y-74278663D01*
X121321337Y-73885680D01*
X120807881Y-73673000D01*
X120252119Y-73673000D01*
X119738663Y-73885680D01*
X119345680Y-74278663D01*
X119260000Y-74485513D01*
X119174320Y-74278663D01*
X118781337Y-73885680D01*
X118681651Y-73844389D01*
X122863041Y-69662999D01*
X132682052Y-69662999D01*
X132799483Y-69780430D01*
X133179889Y-69937999D01*
X133591637Y-69937999D01*
X133972043Y-69780430D01*
X134089474Y-69662999D01*
X140240001Y-69662999D01*
X140240000Y-91261570D01*
X140187138Y-91283466D01*
X139783466Y-91687138D01*
X139565000Y-92214561D01*
X139565000Y-92785439D01*
X139783466Y-93312862D01*
X140187138Y-93716534D01*
X140240001Y-93738431D01*
X140240001Y-94261569D01*
X140187138Y-94283466D01*
X139783466Y-94687138D01*
X139565000Y-95214561D01*
X139565000Y-95785439D01*
X139783466Y-96312862D01*
X140187138Y-96716534D01*
X140240001Y-96738431D01*
X140240001Y-97261569D01*
X140187138Y-97283466D01*
X139783466Y-97687138D01*
X139565000Y-98214561D01*
X139565000Y-98785439D01*
X139783466Y-99312862D01*
X140187138Y-99716534D01*
X140240001Y-99738430D01*
X140240001Y-100261570D01*
X140187138Y-100283466D01*
X139783466Y-100687138D01*
X139565000Y-101214561D01*
X139565000Y-101785439D01*
X139783466Y-102312862D01*
X140187138Y-102716534D01*
X140240001Y-102738430D01*
X140240000Y-103261570D01*
X140187138Y-103283466D01*
X139783466Y-103687138D01*
X139565000Y-104214561D01*
X139565000Y-104785439D01*
X139783466Y-105312862D01*
X140187138Y-105716534D01*
X140240000Y-105738430D01*
X140240000Y-106261570D01*
X140187138Y-106283466D01*
X139783466Y-106687138D01*
X139565000Y-107214561D01*
X139565000Y-107785439D01*
X139783466Y-108312862D01*
X140187138Y-108716534D01*
X140240000Y-108738430D01*
X140240000Y-109261570D01*
X140187138Y-109283466D01*
X139783466Y-109687138D01*
X139565000Y-110214561D01*
X139565000Y-110785439D01*
X139783466Y-111312862D01*
X140187138Y-111716534D01*
X140240000Y-111738430D01*
X140240000Y-112261570D01*
X140187138Y-112283466D01*
X139783466Y-112687138D01*
X139565000Y-113214561D01*
X139565000Y-113785439D01*
X139783466Y-114312862D01*
X140187138Y-114716534D01*
X140714561Y-114935000D01*
X141285439Y-114935000D01*
X141338302Y-114913103D01*
X142580001Y-116154803D01*
X142580001Y-116781956D01*
X142305423Y-116965423D01*
X141988260Y-117440091D01*
X141876887Y-118000000D01*
X141988260Y-118559909D01*
X142305423Y-119034577D01*
X142780091Y-119351740D01*
X143198667Y-119435000D01*
X143481333Y-119435000D01*
X143899909Y-119351740D01*
X144374577Y-119034577D01*
X144691740Y-118559909D01*
X144803113Y-118000000D01*
X144691740Y-117440091D01*
X144374577Y-116965423D01*
X144100000Y-116781957D01*
X144100000Y-115914848D01*
X144114888Y-115840000D01*
X144100000Y-115765152D01*
X144100000Y-115765148D01*
X144055904Y-115543463D01*
X144055904Y-115543462D01*
X143930329Y-115355527D01*
X143887929Y-115292071D01*
X143824473Y-115249671D01*
X142834802Y-114260000D01*
X146185199Y-114260000D01*
X155086896Y-123161698D01*
X155065000Y-123214561D01*
X155065000Y-123785439D01*
X155283466Y-124312862D01*
X155687138Y-124716534D01*
X156214561Y-124935000D01*
X156785439Y-124935000D01*
X157312862Y-124716534D01*
X157716534Y-124312862D01*
X157738430Y-124260000D01*
X158261570Y-124260000D01*
X158283466Y-124312862D01*
X158687138Y-124716534D01*
X159214561Y-124935000D01*
X159785439Y-124935000D01*
X160312862Y-124716534D01*
X160716534Y-124312862D01*
X160738430Y-124260000D01*
X161261570Y-124260000D01*
X161283466Y-124312862D01*
X161687138Y-124716534D01*
X162214561Y-124935000D01*
X162785439Y-124935000D01*
X163312862Y-124716534D01*
X163716534Y-124312862D01*
X163935000Y-123785439D01*
X163935000Y-123214561D01*
X163913103Y-123161698D01*
X168947800Y-118127002D01*
X169058748Y-118127002D01*
X168900000Y-118285750D01*
X168900000Y-119041310D01*
X168996673Y-119274699D01*
X169175302Y-119453327D01*
X169408691Y-119550000D01*
X169799717Y-119550000D01*
X169537027Y-119658810D01*
X169058810Y-120137027D01*
X168800000Y-120761849D01*
X168800000Y-121438151D01*
X169058810Y-122062973D01*
X169537027Y-122541190D01*
X170161849Y-122800000D01*
X170838151Y-122800000D01*
X171462973Y-122541190D01*
X171941190Y-122062973D01*
X172200000Y-121438151D01*
X172200000Y-120761849D01*
X171941190Y-120137027D01*
X171462973Y-119658810D01*
X171200283Y-119550000D01*
X171591309Y-119550000D01*
X171824698Y-119453327D01*
X172003327Y-119274699D01*
X172100000Y-119041310D01*
X172100000Y-118285750D01*
X171941250Y-118127000D01*
X170627000Y-118127000D01*
X170627000Y-118147000D01*
X170373000Y-118147000D01*
X170373000Y-118127000D01*
X170353000Y-118127000D01*
X170353000Y-117873000D01*
X170373000Y-117873000D01*
X170373000Y-117853000D01*
X170627000Y-117853000D01*
X170627000Y-117873000D01*
X171941250Y-117873000D01*
X172100000Y-117714250D01*
X172100000Y-116958690D01*
X172003327Y-116725301D01*
X171824698Y-116546673D01*
X171591309Y-116450000D01*
X170785750Y-116450000D01*
X170627002Y-116608748D01*
X170627002Y-116450000D01*
X170624802Y-116450000D01*
X171814802Y-115260000D01*
X175261570Y-115260000D01*
X175283466Y-115312862D01*
X175687138Y-115716534D01*
X176214561Y-115935000D01*
X176785439Y-115935000D01*
X176865001Y-115902044D01*
X176865002Y-121960196D01*
X172595528Y-126229671D01*
X172532072Y-126272071D01*
X172489672Y-126335527D01*
X172489671Y-126335528D01*
X172364097Y-126523463D01*
X172305112Y-126820000D01*
X172320001Y-126894852D01*
X172320000Y-132348160D01*
X172312454Y-132351286D01*
X171931286Y-132732454D01*
X171810000Y-133025265D01*
X171688714Y-132732454D01*
X171307546Y-132351286D01*
X171260000Y-132331592D01*
X171260000Y-130925264D01*
X171462973Y-130841190D01*
X171941190Y-130362973D01*
X172200000Y-129738151D01*
X172200000Y-129061849D01*
X171941190Y-128437027D01*
X171462973Y-127958810D01*
X170838151Y-127700000D01*
X170161849Y-127700000D01*
X169537027Y-127958810D01*
X169058810Y-128437027D01*
X168800000Y-129061849D01*
X168800000Y-129738151D01*
X169058810Y-130362973D01*
X169537027Y-130841190D01*
X169740000Y-130925264D01*
X169740001Y-132383739D01*
X169391286Y-132732454D01*
X169276675Y-133009151D01*
X169187611Y-132794131D01*
X168949774Y-132729831D01*
X168179605Y-133500000D01*
X168949774Y-134270169D01*
X169187611Y-134205869D01*
X169269649Y-133973886D01*
X169391286Y-134267546D01*
X169772454Y-134648714D01*
X170270474Y-134855000D01*
X170809526Y-134855000D01*
X171307546Y-134648714D01*
X171688714Y-134267546D01*
X171810000Y-133974735D01*
X171931286Y-134267546D01*
X172312454Y-134648714D01*
X172810474Y-134855000D01*
X173349526Y-134855000D01*
X173847546Y-134648714D01*
X174228714Y-134267546D01*
X174435000Y-133769526D01*
X174435000Y-133230474D01*
X174228714Y-132732454D01*
X173847546Y-132351286D01*
X173840000Y-132348160D01*
X173840000Y-129061849D01*
X179800000Y-129061849D01*
X179800000Y-129738151D01*
X180058810Y-130362973D01*
X180537027Y-130841190D01*
X181161849Y-131100000D01*
X181838151Y-131100000D01*
X182462973Y-130841190D01*
X182941190Y-130362973D01*
X183200000Y-129738151D01*
X183200000Y-129061849D01*
X182941190Y-128437027D01*
X182462973Y-127958810D01*
X181838151Y-127700000D01*
X181161849Y-127700000D01*
X180537027Y-127958810D01*
X180058810Y-128437027D01*
X179800000Y-129061849D01*
X173840000Y-129061849D01*
X173840000Y-127134801D01*
X178109474Y-122865328D01*
X178172930Y-122822928D01*
X178340905Y-122571536D01*
X178385001Y-122349851D01*
X178385001Y-122349847D01*
X178399889Y-122275000D01*
X178385001Y-122200153D01*
X178385001Y-120761849D01*
X179800000Y-120761849D01*
X179800000Y-121438151D01*
X180058810Y-122062973D01*
X180537027Y-122541190D01*
X181161849Y-122800000D01*
X181838151Y-122800000D01*
X182462973Y-122541190D01*
X182941190Y-122062973D01*
X183200000Y-121438151D01*
X183200000Y-120761849D01*
X182941190Y-120137027D01*
X182462973Y-119658810D01*
X182200283Y-119550000D01*
X182591309Y-119550000D01*
X182824698Y-119453327D01*
X183003327Y-119274699D01*
X183100000Y-119041310D01*
X183100000Y-118285750D01*
X182941250Y-118127000D01*
X181627000Y-118127000D01*
X181627000Y-118147000D01*
X181373000Y-118147000D01*
X181373000Y-118127000D01*
X180058750Y-118127000D01*
X179900000Y-118285750D01*
X179900000Y-119041310D01*
X179996673Y-119274699D01*
X180175302Y-119453327D01*
X180408691Y-119550000D01*
X180799717Y-119550000D01*
X180537027Y-119658810D01*
X180058810Y-120137027D01*
X179800000Y-120761849D01*
X178385001Y-120761849D01*
X178385001Y-116958690D01*
X179900000Y-116958690D01*
X179900000Y-117714250D01*
X180058750Y-117873000D01*
X181373000Y-117873000D01*
X181373000Y-116608750D01*
X181627000Y-116608750D01*
X181627000Y-117873000D01*
X182941250Y-117873000D01*
X183100000Y-117714250D01*
X183100000Y-116958690D01*
X183003327Y-116725301D01*
X182824698Y-116546673D01*
X182591309Y-116450000D01*
X181785750Y-116450000D01*
X181627000Y-116608750D01*
X181373000Y-116608750D01*
X181214250Y-116450000D01*
X180408691Y-116450000D01*
X180175302Y-116546673D01*
X179996673Y-116725301D01*
X179900000Y-116958690D01*
X178385001Y-116958690D01*
X178385001Y-113949849D01*
X178399889Y-113875001D01*
X178385001Y-113800153D01*
X178385001Y-113800149D01*
X178342176Y-113584852D01*
X178340905Y-113578463D01*
X178215330Y-113390528D01*
X178172930Y-113327072D01*
X178109474Y-113284672D01*
X177274576Y-112449774D01*
X178729831Y-112449774D01*
X178794131Y-112687611D01*
X179302342Y-112867333D01*
X179840644Y-112838892D01*
X180205869Y-112687611D01*
X180270169Y-112449774D01*
X179500000Y-111679605D01*
X178729831Y-112449774D01*
X177274576Y-112449774D01*
X176127144Y-111302342D01*
X178132667Y-111302342D01*
X178161108Y-111840644D01*
X178312389Y-112205869D01*
X178550226Y-112270169D01*
X179320395Y-111500000D01*
X179679605Y-111500000D01*
X180449774Y-112270169D01*
X180687611Y-112205869D01*
X180867333Y-111697658D01*
X180838892Y-111159356D01*
X180687611Y-110794131D01*
X180449774Y-110729831D01*
X179679605Y-111500000D01*
X179320395Y-111500000D01*
X178550226Y-110729831D01*
X178312389Y-110794131D01*
X178132667Y-111302342D01*
X176127144Y-111302342D01*
X174584801Y-109760000D01*
X176845153Y-109760000D01*
X176920000Y-109774888D01*
X176994847Y-109760000D01*
X176994852Y-109760000D01*
X177216537Y-109715904D01*
X177467929Y-109547929D01*
X177510331Y-109484470D01*
X178145000Y-108849801D01*
X178145000Y-109229526D01*
X178351286Y-109727546D01*
X178732454Y-110108714D01*
X179009151Y-110223325D01*
X178794131Y-110312389D01*
X178729831Y-110550226D01*
X179500000Y-111320395D01*
X180270169Y-110550226D01*
X180205869Y-110312389D01*
X179973886Y-110230351D01*
X180267546Y-110108714D01*
X180648714Y-109727546D01*
X180855000Y-109229526D01*
X180855000Y-108690474D01*
X180648714Y-108192454D01*
X180267546Y-107811286D01*
X179974735Y-107690000D01*
X180267546Y-107568714D01*
X180648714Y-107187546D01*
X180855000Y-106689526D01*
X180855000Y-106150474D01*
X180648714Y-105652454D01*
X180267546Y-105271286D01*
X179769526Y-105065000D01*
X179230474Y-105065000D01*
X178732454Y-105271286D01*
X178351286Y-105652454D01*
X178145000Y-106150474D01*
X178145000Y-106689526D01*
X178148126Y-106697072D01*
X176605199Y-108240000D01*
X174924320Y-108240000D01*
X174935011Y-108186251D01*
X174935011Y-108186247D01*
X174949899Y-108111399D01*
X174935011Y-108036551D01*
X174935011Y-103061849D01*
X179800000Y-103061849D01*
X179800000Y-103738151D01*
X180058810Y-104362973D01*
X180537027Y-104841190D01*
X181161849Y-105100000D01*
X181838151Y-105100000D01*
X182462973Y-104841190D01*
X182941190Y-104362973D01*
X183200000Y-103738151D01*
X183200000Y-103061849D01*
X182941190Y-102437027D01*
X182462973Y-101958810D01*
X181838151Y-101700000D01*
X181161849Y-101700000D01*
X180537027Y-101958810D01*
X180058810Y-102437027D01*
X179800000Y-103061849D01*
X174935011Y-103061849D01*
X174935011Y-94761849D01*
X179800000Y-94761849D01*
X179800000Y-95438151D01*
X180058810Y-96062973D01*
X180537027Y-96541190D01*
X181161849Y-96800000D01*
X181838151Y-96800000D01*
X182462973Y-96541190D01*
X182941190Y-96062973D01*
X183200000Y-95438151D01*
X183200000Y-94761849D01*
X182941190Y-94137027D01*
X182462973Y-93658810D01*
X182200283Y-93550000D01*
X182591309Y-93550000D01*
X182824698Y-93453327D01*
X183003327Y-93274699D01*
X183100000Y-93041310D01*
X183100000Y-92285750D01*
X182941250Y-92127000D01*
X181627000Y-92127000D01*
X181627000Y-92147000D01*
X181373000Y-92147000D01*
X181373000Y-92127000D01*
X180058750Y-92127000D01*
X179900000Y-92285750D01*
X179900000Y-93041310D01*
X179996673Y-93274699D01*
X180175302Y-93453327D01*
X180408691Y-93550000D01*
X180799717Y-93550000D01*
X180537027Y-93658810D01*
X180058810Y-94137027D01*
X179800000Y-94761849D01*
X174935011Y-94761849D01*
X174935011Y-90958690D01*
X179900000Y-90958690D01*
X179900000Y-91714250D01*
X180058750Y-91873000D01*
X181373000Y-91873000D01*
X181373000Y-90608750D01*
X181627000Y-90608750D01*
X181627000Y-91873000D01*
X182941250Y-91873000D01*
X183100000Y-91714250D01*
X183100000Y-90958690D01*
X183003327Y-90725301D01*
X182824698Y-90546673D01*
X182591309Y-90450000D01*
X181785750Y-90450000D01*
X181627000Y-90608750D01*
X181373000Y-90608750D01*
X181214250Y-90450000D01*
X180408691Y-90450000D01*
X180175302Y-90546673D01*
X179996673Y-90725301D01*
X179900000Y-90958690D01*
X174935011Y-90958690D01*
X174935011Y-82561249D01*
X175228714Y-82267546D01*
X175435000Y-81769526D01*
X175435000Y-81230474D01*
X175228714Y-80732454D01*
X174847546Y-80351286D01*
X174349526Y-80145000D01*
X173810474Y-80145000D01*
X173312454Y-80351286D01*
X172931286Y-80732454D01*
X172810000Y-81025265D01*
X172688714Y-80732454D01*
X172307546Y-80351286D01*
X172300000Y-80348160D01*
X172300000Y-78665524D01*
X172339887Y-78464998D01*
X172280902Y-78168461D01*
X172155328Y-77980526D01*
X172130329Y-77955527D01*
X172117755Y-77936708D01*
X172200000Y-77738151D01*
X172200000Y-77061849D01*
X179800000Y-77061849D01*
X179800000Y-77738151D01*
X180058810Y-78362973D01*
X180537027Y-78841190D01*
X181161849Y-79100000D01*
X181838151Y-79100000D01*
X182462973Y-78841190D01*
X182941190Y-78362973D01*
X183200000Y-77738151D01*
X183200000Y-77061849D01*
X182941190Y-76437027D01*
X182462973Y-75958810D01*
X181838151Y-75700000D01*
X181161849Y-75700000D01*
X180537027Y-75958810D01*
X180058810Y-76437027D01*
X179800000Y-77061849D01*
X172200000Y-77061849D01*
X171941190Y-76437027D01*
X171462973Y-75958810D01*
X170838151Y-75700000D01*
X170161849Y-75700000D01*
X169537027Y-75958810D01*
X169058810Y-76437027D01*
X168800000Y-77061849D01*
X168800000Y-77738151D01*
X169058810Y-78362973D01*
X169537027Y-78841190D01*
X170161849Y-79100000D01*
X170780001Y-79100000D01*
X170780000Y-80348160D01*
X170772454Y-80351286D01*
X170391286Y-80732454D01*
X170276675Y-81009151D01*
X170187611Y-80794131D01*
X169949774Y-80729831D01*
X169179605Y-81500000D01*
X169949774Y-82270169D01*
X170187611Y-82205869D01*
X170269649Y-81973886D01*
X170391286Y-82267546D01*
X170772454Y-82648714D01*
X171270474Y-82855000D01*
X171809526Y-82855000D01*
X172307546Y-82648714D01*
X172688714Y-82267546D01*
X172810000Y-81974735D01*
X172931286Y-82267546D01*
X173312454Y-82648714D01*
X173415012Y-82691195D01*
X173415011Y-106715000D01*
X172985750Y-106715000D01*
X172827000Y-106873750D01*
X172827000Y-107202560D01*
X172573000Y-107202560D01*
X172573000Y-106873750D01*
X172414250Y-106715000D01*
X171873691Y-106715000D01*
X171640302Y-106811673D01*
X171638388Y-106813587D01*
X169757184Y-104932382D01*
X170161849Y-105100000D01*
X170838151Y-105100000D01*
X171462973Y-104841190D01*
X171941190Y-104362973D01*
X172200000Y-103738151D01*
X172200000Y-103061849D01*
X171941190Y-102437027D01*
X171462973Y-101958810D01*
X170838151Y-101700000D01*
X170161849Y-101700000D01*
X169537027Y-101958810D01*
X169058810Y-102437027D01*
X168800000Y-103061849D01*
X168800000Y-103738151D01*
X168967618Y-104142816D01*
X163760000Y-98935199D01*
X163760000Y-94761849D01*
X168800000Y-94761849D01*
X168800000Y-95438151D01*
X169058810Y-96062973D01*
X169537027Y-96541190D01*
X170161849Y-96800000D01*
X170838151Y-96800000D01*
X171462973Y-96541190D01*
X171941190Y-96062973D01*
X172200000Y-95438151D01*
X172200000Y-94761849D01*
X171941190Y-94137027D01*
X171462973Y-93658810D01*
X171200283Y-93550000D01*
X171591309Y-93550000D01*
X171824698Y-93453327D01*
X172003327Y-93274699D01*
X172100000Y-93041310D01*
X172100000Y-92285750D01*
X171941250Y-92127000D01*
X170627000Y-92127000D01*
X170627000Y-92147000D01*
X170373000Y-92147000D01*
X170373000Y-92127000D01*
X169058750Y-92127000D01*
X168900000Y-92285750D01*
X168900000Y-93041310D01*
X168996673Y-93274699D01*
X169175302Y-93453327D01*
X169408691Y-93550000D01*
X169799717Y-93550000D01*
X169537027Y-93658810D01*
X169058810Y-94137027D01*
X168800000Y-94761849D01*
X163760000Y-94761849D01*
X163760000Y-90958690D01*
X168900000Y-90958690D01*
X168900000Y-91714250D01*
X169058750Y-91873000D01*
X170373000Y-91873000D01*
X170373000Y-90608750D01*
X170627000Y-90608750D01*
X170627000Y-91873000D01*
X171941250Y-91873000D01*
X172100000Y-91714250D01*
X172100000Y-90958690D01*
X172003327Y-90725301D01*
X171824698Y-90546673D01*
X171591309Y-90450000D01*
X170785750Y-90450000D01*
X170627000Y-90608750D01*
X170373000Y-90608750D01*
X170214250Y-90450000D01*
X169408691Y-90450000D01*
X169175302Y-90546673D01*
X168996673Y-90725301D01*
X168900000Y-90958690D01*
X163760000Y-90958690D01*
X163760000Y-82449774D01*
X168229831Y-82449774D01*
X168294131Y-82687611D01*
X168802342Y-82867333D01*
X169340644Y-82838892D01*
X169705869Y-82687611D01*
X169770169Y-82449774D01*
X169000000Y-81679605D01*
X168229831Y-82449774D01*
X163760000Y-82449774D01*
X163760000Y-81302342D01*
X167632667Y-81302342D01*
X167661108Y-81840644D01*
X167812389Y-82205869D01*
X168050226Y-82270169D01*
X168820395Y-81500000D01*
X168050226Y-80729831D01*
X167812389Y-80794131D01*
X167632667Y-81302342D01*
X163760000Y-81302342D01*
X163760000Y-80550226D01*
X168229831Y-80550226D01*
X169000000Y-81320395D01*
X169770169Y-80550226D01*
X169705869Y-80312389D01*
X169197658Y-80132667D01*
X168659356Y-80161108D01*
X168294131Y-80312389D01*
X168229831Y-80550226D01*
X163760000Y-80550226D01*
X163760000Y-68761849D01*
X168800000Y-68761849D01*
X168800000Y-69438151D01*
X169058810Y-70062973D01*
X169537027Y-70541190D01*
X170161849Y-70800000D01*
X170838151Y-70800000D01*
X171462973Y-70541190D01*
X171941190Y-70062973D01*
X172200000Y-69438151D01*
X172200000Y-68761849D01*
X179800000Y-68761849D01*
X179800000Y-69438151D01*
X180058810Y-70062973D01*
X180537027Y-70541190D01*
X181161849Y-70800000D01*
X181838151Y-70800000D01*
X182462973Y-70541190D01*
X182941190Y-70062973D01*
X183200000Y-69438151D01*
X183200000Y-68761849D01*
X182941190Y-68137027D01*
X182462973Y-67658810D01*
X182200283Y-67550000D01*
X182591309Y-67550000D01*
X182824698Y-67453327D01*
X183003327Y-67274699D01*
X183100000Y-67041310D01*
X183100000Y-66285750D01*
X182941250Y-66127000D01*
X181627000Y-66127000D01*
X181627000Y-66147000D01*
X181373000Y-66147000D01*
X181373000Y-66127000D01*
X180058750Y-66127000D01*
X179900000Y-66285750D01*
X179900000Y-67041310D01*
X179996673Y-67274699D01*
X180175302Y-67453327D01*
X180408691Y-67550000D01*
X180799717Y-67550000D01*
X180537027Y-67658810D01*
X180058810Y-68137027D01*
X179800000Y-68761849D01*
X172200000Y-68761849D01*
X171941190Y-68137027D01*
X171462973Y-67658810D01*
X171200283Y-67550000D01*
X171591309Y-67550000D01*
X171824698Y-67453327D01*
X172003327Y-67274699D01*
X172100000Y-67041310D01*
X172100000Y-66285750D01*
X171941250Y-66127000D01*
X170627000Y-66127000D01*
X170627000Y-66147000D01*
X170373000Y-66147000D01*
X170373000Y-66127000D01*
X169058750Y-66127000D01*
X168900000Y-66285750D01*
X168900000Y-67041310D01*
X168996673Y-67274699D01*
X169175302Y-67453327D01*
X169408691Y-67550000D01*
X169799717Y-67550000D01*
X169537027Y-67658810D01*
X169058810Y-68137027D01*
X168800000Y-68761849D01*
X163760000Y-68761849D01*
X163760000Y-64958690D01*
X168900000Y-64958690D01*
X168900000Y-65714250D01*
X169058750Y-65873000D01*
X170373000Y-65873000D01*
X170373000Y-64608750D01*
X170627000Y-64608750D01*
X170627000Y-65873000D01*
X171941250Y-65873000D01*
X172100000Y-65714250D01*
X172100000Y-64958690D01*
X179900000Y-64958690D01*
X179900000Y-65714250D01*
X180058750Y-65873000D01*
X181373000Y-65873000D01*
X181373000Y-64608750D01*
X181627000Y-64608750D01*
X181627000Y-65873000D01*
X182941250Y-65873000D01*
X183100000Y-65714250D01*
X183100000Y-64958690D01*
X183003327Y-64725301D01*
X182824698Y-64546673D01*
X182591309Y-64450000D01*
X181785750Y-64450000D01*
X181627000Y-64608750D01*
X181373000Y-64608750D01*
X181214250Y-64450000D01*
X180408691Y-64450000D01*
X180175302Y-64546673D01*
X179996673Y-64725301D01*
X179900000Y-64958690D01*
X172100000Y-64958690D01*
X172003327Y-64725301D01*
X171824698Y-64546673D01*
X171591309Y-64450000D01*
X170785750Y-64450000D01*
X170627000Y-64608750D01*
X170373000Y-64608750D01*
X170214250Y-64450000D01*
X169408691Y-64450000D01*
X169175302Y-64546673D01*
X168996673Y-64725301D01*
X168900000Y-64958690D01*
X163760000Y-64958690D01*
X163760000Y-59716568D01*
X166990154Y-56486414D01*
X167152454Y-56648714D01*
X167650474Y-56855000D01*
X168189526Y-56855000D01*
X168687546Y-56648714D01*
X169068714Y-56267546D01*
X169190000Y-55974735D01*
X169311286Y-56267546D01*
X169692454Y-56648714D01*
X170190474Y-56855000D01*
X170729526Y-56855000D01*
X171227546Y-56648714D01*
X171426486Y-56449774D01*
X172229831Y-56449774D01*
X172294131Y-56687611D01*
X172802342Y-56867333D01*
X173340644Y-56838892D01*
X173705869Y-56687611D01*
X173770169Y-56449774D01*
X173000000Y-55679605D01*
X172229831Y-56449774D01*
X171426486Y-56449774D01*
X171608714Y-56267546D01*
X171723325Y-55990849D01*
X171812389Y-56205869D01*
X172050226Y-56270169D01*
X172820395Y-55500000D01*
X173179605Y-55500000D01*
X173949774Y-56270169D01*
X174187611Y-56205869D01*
X174367333Y-55697658D01*
X174338892Y-55159356D01*
X174187611Y-54794131D01*
X173949774Y-54729831D01*
X173179605Y-55500000D01*
X172820395Y-55500000D01*
X172050226Y-54729831D01*
X171812389Y-54794131D01*
X171730351Y-55026114D01*
X171608714Y-54732454D01*
X171426486Y-54550226D01*
X172229831Y-54550226D01*
X173000000Y-55320395D01*
X173770169Y-54550226D01*
X173705869Y-54312389D01*
X173197658Y-54132667D01*
X172659356Y-54161108D01*
X172294131Y-54312389D01*
X172229831Y-54550226D01*
X171426486Y-54550226D01*
X171425000Y-54548740D01*
X171425000Y-52856919D01*
X171462973Y-52841190D01*
X171941190Y-52362973D01*
X172200000Y-51738151D01*
X172200000Y-51061849D01*
X179800000Y-51061849D01*
X179800000Y-51738151D01*
X180058810Y-52362973D01*
X180537027Y-52841190D01*
X181161849Y-53100000D01*
X181838151Y-53100000D01*
X182462973Y-52841190D01*
X182941190Y-52362973D01*
X183200000Y-51738151D01*
X183200000Y-51061849D01*
X182941190Y-50437027D01*
X182462973Y-49958810D01*
X181838151Y-49700000D01*
X181161849Y-49700000D01*
X180537027Y-49958810D01*
X180058810Y-50437027D01*
X179800000Y-51061849D01*
X172200000Y-51061849D01*
X171941190Y-50437027D01*
X171462973Y-49958810D01*
X170838151Y-49700000D01*
X170161849Y-49700000D01*
X169537027Y-49958810D01*
X169058810Y-50437027D01*
X168800000Y-51061849D01*
X168800000Y-51738151D01*
X169058810Y-52362973D01*
X169537027Y-52841190D01*
X169655001Y-52890056D01*
X169655000Y-54388740D01*
X169311286Y-54732454D01*
X169190000Y-55025265D01*
X169068714Y-54732454D01*
X168687546Y-54351286D01*
X168189526Y-54145000D01*
X167650474Y-54145000D01*
X167152454Y-54351286D01*
X166771286Y-54732454D01*
X166762885Y-54752736D01*
X166653372Y-54774520D01*
X166605229Y-54784096D01*
X166470284Y-54874264D01*
X166353838Y-54952071D01*
X166311438Y-55015527D01*
X162515530Y-58811436D01*
X162452071Y-58853838D01*
X162284096Y-59105231D01*
X162240000Y-59326916D01*
X162240000Y-59326920D01*
X162225112Y-59401767D01*
X162240000Y-59476614D01*
X162240001Y-62425144D01*
X162240000Y-62425149D01*
X162240001Y-99175148D01*
X162225112Y-99250000D01*
X162284097Y-99546537D01*
X162402317Y-99723465D01*
X162452072Y-99797929D01*
X162515528Y-99840329D01*
X169437632Y-106762433D01*
X169324852Y-106740000D01*
X169324847Y-106740000D01*
X169250000Y-106725112D01*
X169181689Y-106738700D01*
X169000000Y-106702560D01*
X167600000Y-106702560D01*
X167352235Y-106751843D01*
X167142191Y-106892191D01*
X167001843Y-107102235D01*
X166974440Y-107240000D01*
X166379804Y-107240000D01*
X160874607Y-101734804D01*
X161111740Y-101379909D01*
X161223113Y-100820000D01*
X161111740Y-100260091D01*
X160794577Y-99785423D01*
X160442242Y-99550000D01*
X160794577Y-99314577D01*
X161111740Y-98839909D01*
X161223113Y-98280000D01*
X161111740Y-97720091D01*
X160794577Y-97245423D01*
X160442242Y-97010000D01*
X160794577Y-96774577D01*
X161111740Y-96299909D01*
X161223113Y-95740000D01*
X161111740Y-95180091D01*
X160794577Y-94705423D01*
X160442242Y-94470000D01*
X160794577Y-94234577D01*
X161111740Y-93759909D01*
X161223113Y-93200000D01*
X161111740Y-92640091D01*
X160794577Y-92165423D01*
X160442242Y-91930000D01*
X160794577Y-91694577D01*
X161111740Y-91219909D01*
X161223113Y-90660000D01*
X161111740Y-90100091D01*
X160794577Y-89625423D01*
X160442242Y-89390000D01*
X160794577Y-89154577D01*
X161111740Y-88679909D01*
X161223113Y-88120000D01*
X161111740Y-87560091D01*
X160794577Y-87085423D01*
X160319909Y-86768260D01*
X159901333Y-86685000D01*
X159618667Y-86685000D01*
X159436114Y-86721312D01*
X157160022Y-84445221D01*
X157160022Y-76386106D01*
X157174910Y-76311259D01*
X157160022Y-76236412D01*
X157160022Y-76236408D01*
X157115926Y-76014723D01*
X156947951Y-75763331D01*
X156884495Y-75720931D01*
X154662092Y-73498529D01*
X154620049Y-73435608D01*
X154734320Y-73321337D01*
X154947000Y-72807881D01*
X154947000Y-72252119D01*
X154734320Y-71738663D01*
X154341337Y-71345680D01*
X154134487Y-71260000D01*
X154341337Y-71174320D01*
X154734320Y-70781337D01*
X154947000Y-70267881D01*
X154947000Y-69712119D01*
X154934020Y-69680781D01*
X155121471Y-69493330D01*
X155184930Y-69450928D01*
X155352905Y-69199536D01*
X155397001Y-68977851D01*
X155397001Y-68977847D01*
X155411889Y-68903000D01*
X155397001Y-68828153D01*
X155397001Y-67003085D01*
X155411889Y-66928238D01*
X155397001Y-66853391D01*
X155397001Y-66853387D01*
X155352905Y-66631702D01*
X155184930Y-66380310D01*
X155121474Y-66337910D01*
X154662092Y-65878529D01*
X154634143Y-65836701D01*
X154645226Y-65825618D01*
X154530215Y-65710607D01*
X154772397Y-65641143D01*
X154959144Y-65117698D01*
X154931362Y-64562632D01*
X154772397Y-64178857D01*
X154530213Y-64109392D01*
X153729605Y-64910000D01*
X153743748Y-64924143D01*
X153564143Y-65103748D01*
X153550000Y-65089605D01*
X153535858Y-65103748D01*
X153356253Y-64924143D01*
X153370395Y-64910000D01*
X152569787Y-64109392D01*
X152327603Y-64178857D01*
X152283547Y-64302344D01*
X152232397Y-64178857D01*
X151990213Y-64109392D01*
X151189605Y-64910000D01*
X151203748Y-64924143D01*
X151024143Y-65103748D01*
X151010000Y-65089605D01*
X150995858Y-65103748D01*
X150816253Y-64924143D01*
X150830395Y-64910000D01*
X150029787Y-64109392D01*
X149787603Y-64178857D01*
X149600856Y-64702302D01*
X149628638Y-65257368D01*
X149771803Y-65602999D01*
X123171847Y-65602999D01*
X123097000Y-65588111D01*
X123022153Y-65602999D01*
X123022149Y-65602999D01*
X122800464Y-65647095D01*
X122549072Y-65815070D01*
X122506672Y-65878526D01*
X112962595Y-75422604D01*
X112963113Y-75420000D01*
X112851740Y-74860091D01*
X112534577Y-74385423D01*
X112182242Y-74150000D01*
X112534577Y-73914577D01*
X112851740Y-73439909D01*
X112963113Y-72880000D01*
X112851740Y-72320091D01*
X112534577Y-71845423D01*
X112413894Y-71764785D01*
X112547765Y-71738157D01*
X112757809Y-71597809D01*
X112898157Y-71387765D01*
X112947440Y-71140000D01*
X112947440Y-69540000D01*
X112898157Y-69292235D01*
X112757809Y-69082191D01*
X112547765Y-68941843D01*
X112300000Y-68892560D01*
X110700000Y-68892560D01*
X110452235Y-68941843D01*
X110242191Y-69082191D01*
X110101843Y-69292235D01*
X110052560Y-69540000D01*
X110052560Y-71140000D01*
X110101843Y-71387765D01*
X110242191Y-71597809D01*
X110452235Y-71738157D01*
X110586106Y-71764785D01*
X110465423Y-71845423D01*
X110148260Y-72320091D01*
X110036887Y-72880000D01*
X110148260Y-73439909D01*
X110465423Y-73914577D01*
X110817758Y-74150000D01*
X110465423Y-74385423D01*
X110148260Y-74860091D01*
X110036887Y-75420000D01*
X110148260Y-75979909D01*
X110465423Y-76454577D01*
X110817758Y-76690000D01*
X110465423Y-76925423D01*
X110148260Y-77400091D01*
X110036887Y-77960000D01*
X110148260Y-78519909D01*
X110465423Y-78994577D01*
X110817758Y-79230000D01*
X110465423Y-79465423D01*
X110148260Y-79940091D01*
X110036887Y-80500000D01*
X110148260Y-81059909D01*
X110465423Y-81534577D01*
X110817758Y-81770000D01*
X110465423Y-82005423D01*
X110148260Y-82480091D01*
X110036887Y-83040000D01*
X110148260Y-83599909D01*
X110465423Y-84074577D01*
X110849108Y-84330947D01*
X110644866Y-84427611D01*
X110268959Y-84842577D01*
X110108096Y-85230961D01*
X110230085Y-85453000D01*
X111373000Y-85453000D01*
X111373000Y-85433000D01*
X111627000Y-85433000D01*
X111627000Y-85453000D01*
X111647000Y-85453000D01*
X111647000Y-85707000D01*
X111627000Y-85707000D01*
X111627000Y-85727000D01*
X111373000Y-85727000D01*
X111373000Y-85707000D01*
X110230085Y-85707000D01*
X110108096Y-85929039D01*
X110268959Y-86317423D01*
X110644866Y-86732389D01*
X110849108Y-86829053D01*
X110465423Y-87085423D01*
X110148260Y-87560091D01*
X110036887Y-88120000D01*
X110148260Y-88679909D01*
X110465423Y-89154577D01*
X110940091Y-89471740D01*
X111358667Y-89555000D01*
X111641333Y-89555000D01*
X111990009Y-89485644D01*
X111990009Y-91635190D01*
X111823887Y-91801312D01*
X111641333Y-91765000D01*
X111358667Y-91765000D01*
X110940091Y-91848260D01*
X110465423Y-92165423D01*
X110148260Y-92640091D01*
X110036887Y-93200000D01*
X110148260Y-93759909D01*
X110465423Y-94234577D01*
X110817758Y-94470000D01*
X110465423Y-94705423D01*
X110148260Y-95180091D01*
X110036887Y-95740000D01*
X110148260Y-96299909D01*
X110465423Y-96774577D01*
X110817758Y-97010000D01*
X110465423Y-97245423D01*
X110148260Y-97720091D01*
X110036887Y-98280000D01*
X110148260Y-98839909D01*
X110465423Y-99314577D01*
X110817758Y-99550000D01*
X110465423Y-99785423D01*
X110148260Y-100260091D01*
X110036887Y-100820000D01*
X110148260Y-101379909D01*
X110465423Y-101854577D01*
X110817758Y-102090000D01*
X110465423Y-102325423D01*
X110148260Y-102800091D01*
X110036887Y-103360000D01*
X110147283Y-103914999D01*
X94649847Y-103914999D01*
X94575000Y-103900111D01*
X94500153Y-103914999D01*
X94500149Y-103914999D01*
X94278464Y-103959095D01*
X94027072Y-104127070D01*
X93997030Y-104172031D01*
X93952072Y-104202071D01*
X93909672Y-104265527D01*
X93909671Y-104265528D01*
X93851518Y-104352560D01*
X93500000Y-104352560D01*
X93252235Y-104401843D01*
X93042191Y-104542191D01*
X92901843Y-104752235D01*
X92852560Y-105000000D01*
X89210000Y-105000000D01*
X89210000Y-99053208D01*
X89505259Y-99766026D01*
X90133974Y-100394741D01*
X90955431Y-100735000D01*
X91844569Y-100735000D01*
X92666026Y-100394741D01*
X93294741Y-99766026D01*
X93635000Y-98944569D01*
X93635000Y-98055431D01*
X100365000Y-98055431D01*
X100365000Y-98944569D01*
X100705259Y-99766026D01*
X101333974Y-100394741D01*
X102155431Y-100735000D01*
X103044569Y-100735000D01*
X103866026Y-100394741D01*
X104494741Y-99766026D01*
X104835000Y-98944569D01*
X104835000Y-98055431D01*
X104494741Y-97233974D01*
X103866026Y-96605259D01*
X103044569Y-96265000D01*
X102155431Y-96265000D01*
X101333974Y-96605259D01*
X100705259Y-97233974D01*
X100365000Y-98055431D01*
X93635000Y-98055431D01*
X93294741Y-97233974D01*
X92666026Y-96605259D01*
X91844569Y-96265000D01*
X90955431Y-96265000D01*
X90133974Y-96605259D01*
X89505259Y-97233974D01*
X89210000Y-97946792D01*
X89210000Y-91174778D01*
X92865000Y-91174778D01*
X92865000Y-91825222D01*
X93113914Y-92426153D01*
X93573847Y-92886086D01*
X94174778Y-93135000D01*
X94825222Y-93135000D01*
X95426153Y-92886086D01*
X95659707Y-92652532D01*
X98527073Y-92652532D01*
X98625736Y-92919387D01*
X99235461Y-93145908D01*
X99885460Y-93121856D01*
X100374264Y-92919387D01*
X100472927Y-92652532D01*
X99500000Y-91679605D01*
X98527073Y-92652532D01*
X95659707Y-92652532D01*
X95886086Y-92426153D01*
X96135000Y-91825222D01*
X96135000Y-91235461D01*
X97854092Y-91235461D01*
X97878144Y-91885460D01*
X98080613Y-92374264D01*
X98347468Y-92472927D01*
X99320395Y-91500000D01*
X99679605Y-91500000D01*
X100652532Y-92472927D01*
X100919387Y-92374264D01*
X101145908Y-91764539D01*
X101121856Y-91114540D01*
X100919387Y-90625736D01*
X100652532Y-90527073D01*
X99679605Y-91500000D01*
X99320395Y-91500000D01*
X98347468Y-90527073D01*
X98080613Y-90625736D01*
X97854092Y-91235461D01*
X96135000Y-91235461D01*
X96135000Y-91174778D01*
X95886086Y-90573847D01*
X95659707Y-90347468D01*
X98527073Y-90347468D01*
X99500000Y-91320395D01*
X100472927Y-90347468D01*
X100374264Y-90080613D01*
X99764539Y-89854092D01*
X99114540Y-89878144D01*
X98625736Y-90080613D01*
X98527073Y-90347468D01*
X95659707Y-90347468D01*
X95426153Y-90113914D01*
X94825222Y-89865000D01*
X94174778Y-89865000D01*
X93573847Y-90113914D01*
X93113914Y-90573847D01*
X92865000Y-91174778D01*
X89210000Y-91174778D01*
X89210000Y-79000000D01*
X92852560Y-79000000D01*
X92852560Y-81000000D01*
X92901843Y-81247765D01*
X93042191Y-81457809D01*
X93252235Y-81598157D01*
X93500000Y-81647440D01*
X95500000Y-81647440D01*
X95747765Y-81598157D01*
X95957809Y-81457809D01*
X96075062Y-81282329D01*
X96125736Y-81419387D01*
X96735461Y-81645908D01*
X97385460Y-81621856D01*
X97874264Y-81419387D01*
X97972927Y-81152532D01*
X97000000Y-80179605D01*
X96985858Y-80193748D01*
X96806253Y-80014143D01*
X96820395Y-80000000D01*
X97179605Y-80000000D01*
X98152532Y-80972927D01*
X98158486Y-80970725D01*
X98573847Y-81386086D01*
X99174778Y-81635000D01*
X99825222Y-81635000D01*
X100426153Y-81386086D01*
X100886086Y-80926153D01*
X101135000Y-80325222D01*
X101135000Y-79674778D01*
X100886086Y-79073847D01*
X100426153Y-78613914D01*
X99825222Y-78365000D01*
X99174778Y-78365000D01*
X98573847Y-78613914D01*
X98158486Y-79029275D01*
X98152532Y-79027073D01*
X97179605Y-80000000D01*
X96820395Y-80000000D01*
X96806253Y-79985858D01*
X96985858Y-79806253D01*
X97000000Y-79820395D01*
X97972927Y-78847468D01*
X97874264Y-78580613D01*
X97264539Y-78354092D01*
X96614540Y-78378144D01*
X96125736Y-78580613D01*
X96075062Y-78717671D01*
X95957809Y-78542191D01*
X95747765Y-78401843D01*
X95500000Y-78352560D01*
X93500000Y-78352560D01*
X93252235Y-78401843D01*
X93042191Y-78542191D01*
X92901843Y-78752235D01*
X92852560Y-79000000D01*
X89210000Y-79000000D01*
X89210000Y-73053208D01*
X89505259Y-73766026D01*
X90133974Y-74394741D01*
X90955431Y-74735000D01*
X91844569Y-74735000D01*
X92666026Y-74394741D01*
X93294741Y-73766026D01*
X93635000Y-72944569D01*
X93635000Y-72055431D01*
X100365000Y-72055431D01*
X100365000Y-72944569D01*
X100705259Y-73766026D01*
X101333974Y-74394741D01*
X102155431Y-74735000D01*
X103044569Y-74735000D01*
X103866026Y-74394741D01*
X104494741Y-73766026D01*
X104835000Y-72944569D01*
X104835000Y-72055431D01*
X104494741Y-71233974D01*
X103866026Y-70605259D01*
X103044569Y-70265000D01*
X102155431Y-70265000D01*
X101333974Y-70605259D01*
X100705259Y-71233974D01*
X100365000Y-72055431D01*
X93635000Y-72055431D01*
X93294741Y-71233974D01*
X92666026Y-70605259D01*
X91844569Y-70265000D01*
X90955431Y-70265000D01*
X90133974Y-70605259D01*
X89505259Y-71233974D01*
X89210000Y-71946792D01*
X89210000Y-65174778D01*
X92865000Y-65174778D01*
X92865000Y-65825222D01*
X93113914Y-66426153D01*
X93573847Y-66886086D01*
X94174778Y-67135000D01*
X94825222Y-67135000D01*
X95426153Y-66886086D01*
X95659707Y-66652532D01*
X98527073Y-66652532D01*
X98625736Y-66919387D01*
X99235461Y-67145908D01*
X99885460Y-67121856D01*
X100374264Y-66919387D01*
X100472927Y-66652532D01*
X99500000Y-65679605D01*
X98527073Y-66652532D01*
X95659707Y-66652532D01*
X95886086Y-66426153D01*
X96135000Y-65825222D01*
X96135000Y-65235461D01*
X97854092Y-65235461D01*
X97878144Y-65885460D01*
X98080613Y-66374264D01*
X98347468Y-66472927D01*
X99320395Y-65500000D01*
X99679605Y-65500000D01*
X100652532Y-66472927D01*
X100919387Y-66374264D01*
X101145908Y-65764539D01*
X101121856Y-65114540D01*
X100919387Y-64625736D01*
X100652532Y-64527073D01*
X99679605Y-65500000D01*
X99320395Y-65500000D01*
X98347468Y-64527073D01*
X98080613Y-64625736D01*
X97854092Y-65235461D01*
X96135000Y-65235461D01*
X96135000Y-65174778D01*
X95886086Y-64573847D01*
X95659707Y-64347468D01*
X98527073Y-64347468D01*
X99500000Y-65320395D01*
X100472927Y-64347468D01*
X100374264Y-64080613D01*
X99764539Y-63854092D01*
X99114540Y-63878144D01*
X98625736Y-64080613D01*
X98527073Y-64347468D01*
X95659707Y-64347468D01*
X95426153Y-64113914D01*
X94825222Y-63865000D01*
X94174778Y-63865000D01*
X93573847Y-64113914D01*
X93113914Y-64573847D01*
X92865000Y-65174778D01*
X89210000Y-65174778D01*
X89210000Y-53000000D01*
X92852560Y-53000000D01*
X92852560Y-55000000D01*
X92901843Y-55247765D01*
X93042191Y-55457809D01*
X93252235Y-55598157D01*
X93500000Y-55647440D01*
X95500000Y-55647440D01*
X95747765Y-55598157D01*
X95957809Y-55457809D01*
X96075062Y-55282329D01*
X96125736Y-55419387D01*
X96735461Y-55645908D01*
X97385460Y-55621856D01*
X97874264Y-55419387D01*
X97972927Y-55152532D01*
X97000000Y-54179605D01*
X96985858Y-54193748D01*
X96806253Y-54014143D01*
X96820395Y-54000000D01*
X97179605Y-54000000D01*
X98152532Y-54972927D01*
X98158486Y-54970725D01*
X98573847Y-55386086D01*
X99174778Y-55635000D01*
X99825222Y-55635000D01*
X100426153Y-55386086D01*
X100886086Y-54926153D01*
X101135000Y-54325222D01*
X101135000Y-54160000D01*
X108432041Y-54160000D01*
X108548350Y-54744725D01*
X108879570Y-55240430D01*
X109163281Y-55430000D01*
X108879570Y-55619570D01*
X108548350Y-56115275D01*
X108432041Y-56700000D01*
X108548350Y-57284725D01*
X108879570Y-57780430D01*
X109163281Y-57970000D01*
X108879570Y-58159570D01*
X108548350Y-58655275D01*
X108432041Y-59240000D01*
X108548350Y-59824725D01*
X108879570Y-60320430D01*
X109163281Y-60510000D01*
X108879570Y-60699570D01*
X108548350Y-61195275D01*
X108432041Y-61780000D01*
X108548350Y-62364725D01*
X108879570Y-62860430D01*
X109375275Y-63191650D01*
X109812402Y-63278600D01*
X110107598Y-63278600D01*
X110544725Y-63191650D01*
X111040430Y-62860430D01*
X111230000Y-62576719D01*
X111419570Y-62860430D01*
X111915275Y-63191650D01*
X112352402Y-63278600D01*
X112647598Y-63278600D01*
X113084725Y-63191650D01*
X113580430Y-62860430D01*
X113911650Y-62364725D01*
X113965874Y-62092119D01*
X149613000Y-62092119D01*
X149613000Y-62647881D01*
X149825680Y-63161337D01*
X150218663Y-63554320D01*
X150409647Y-63633428D01*
X150278857Y-63687603D01*
X150209392Y-63929787D01*
X151010000Y-64730395D01*
X151810608Y-63929787D01*
X151741143Y-63687603D01*
X151600607Y-63637465D01*
X151801337Y-63554320D01*
X152194320Y-63161337D01*
X152280000Y-62954487D01*
X152365680Y-63161337D01*
X152758663Y-63554320D01*
X152949647Y-63633428D01*
X152818857Y-63687603D01*
X152749392Y-63929787D01*
X153550000Y-64730395D01*
X154350608Y-63929787D01*
X154281143Y-63687603D01*
X154140607Y-63637465D01*
X154341337Y-63554320D01*
X154734320Y-63161337D01*
X154947000Y-62647881D01*
X154947000Y-62092119D01*
X154734320Y-61578663D01*
X154355657Y-61200000D01*
X158296887Y-61200000D01*
X158408260Y-61759909D01*
X158725423Y-62234577D01*
X159077758Y-62470000D01*
X158725423Y-62705423D01*
X158408260Y-63180091D01*
X158296887Y-63740000D01*
X158408260Y-64299909D01*
X158725423Y-64774577D01*
X159077758Y-65010000D01*
X158725423Y-65245423D01*
X158408260Y-65720091D01*
X158296887Y-66280000D01*
X158408260Y-66839909D01*
X158725423Y-67314577D01*
X159077758Y-67550000D01*
X158725423Y-67785423D01*
X158408260Y-68260091D01*
X158296887Y-68820000D01*
X158408260Y-69379909D01*
X158725423Y-69854577D01*
X159077758Y-70090000D01*
X158725423Y-70325423D01*
X158408260Y-70800091D01*
X158296887Y-71360000D01*
X158408260Y-71919909D01*
X158725423Y-72394577D01*
X159077758Y-72630000D01*
X158725423Y-72865423D01*
X158408260Y-73340091D01*
X158296887Y-73900000D01*
X158408260Y-74459909D01*
X158725423Y-74934577D01*
X159077758Y-75170000D01*
X158725423Y-75405423D01*
X158408260Y-75880091D01*
X158296887Y-76440000D01*
X158408260Y-76999909D01*
X158725423Y-77474577D01*
X159077758Y-77710000D01*
X158725423Y-77945423D01*
X158408260Y-78420091D01*
X158296887Y-78980000D01*
X158408260Y-79539909D01*
X158725423Y-80014577D01*
X159077758Y-80250000D01*
X158725423Y-80485423D01*
X158408260Y-80960091D01*
X158296887Y-81520000D01*
X158408260Y-82079909D01*
X158725423Y-82554577D01*
X159077758Y-82790000D01*
X158725423Y-83025423D01*
X158408260Y-83500091D01*
X158296887Y-84060000D01*
X158408260Y-84619909D01*
X158725423Y-85094577D01*
X159200091Y-85411740D01*
X159618667Y-85495000D01*
X159901333Y-85495000D01*
X160319909Y-85411740D01*
X160794577Y-85094577D01*
X161111740Y-84619909D01*
X161223113Y-84060000D01*
X161111740Y-83500091D01*
X160794577Y-83025423D01*
X160442242Y-82790000D01*
X160794577Y-82554577D01*
X161111740Y-82079909D01*
X161223113Y-81520000D01*
X161111740Y-80960091D01*
X160794577Y-80485423D01*
X160442242Y-80250000D01*
X160794577Y-80014577D01*
X161111740Y-79539909D01*
X161223113Y-78980000D01*
X161111740Y-78420091D01*
X160794577Y-77945423D01*
X160442242Y-77710000D01*
X160794577Y-77474577D01*
X161111740Y-76999909D01*
X161223113Y-76440000D01*
X161111740Y-75880091D01*
X160794577Y-75405423D01*
X160442242Y-75170000D01*
X160794577Y-74934577D01*
X161111740Y-74459909D01*
X161223113Y-73900000D01*
X161111740Y-73340091D01*
X160794577Y-72865423D01*
X160442242Y-72630000D01*
X160794577Y-72394577D01*
X161111740Y-71919909D01*
X161223113Y-71360000D01*
X161111740Y-70800091D01*
X160794577Y-70325423D01*
X160442242Y-70090000D01*
X160794577Y-69854577D01*
X161111740Y-69379909D01*
X161223113Y-68820000D01*
X161111740Y-68260091D01*
X160794577Y-67785423D01*
X160442242Y-67550000D01*
X160794577Y-67314577D01*
X161111740Y-66839909D01*
X161223113Y-66280000D01*
X161111740Y-65720091D01*
X160794577Y-65245423D01*
X160442242Y-65010000D01*
X160794577Y-64774577D01*
X161111740Y-64299909D01*
X161223113Y-63740000D01*
X161111740Y-63180091D01*
X160794577Y-62705423D01*
X160442242Y-62470000D01*
X160794577Y-62234577D01*
X161111740Y-61759909D01*
X161223113Y-61200000D01*
X161111740Y-60640091D01*
X160794577Y-60165423D01*
X160319909Y-59848260D01*
X159901333Y-59765000D01*
X159618667Y-59765000D01*
X159200091Y-59848260D01*
X158725423Y-60165423D01*
X158408260Y-60640091D01*
X158296887Y-61200000D01*
X154355657Y-61200000D01*
X154341337Y-61185680D01*
X153827881Y-60973000D01*
X153272119Y-60973000D01*
X152758663Y-61185680D01*
X152365680Y-61578663D01*
X152280000Y-61785513D01*
X152194320Y-61578663D01*
X151801337Y-61185680D01*
X151287881Y-60973000D01*
X150732119Y-60973000D01*
X150218663Y-61185680D01*
X149825680Y-61578663D01*
X149613000Y-62092119D01*
X113965874Y-62092119D01*
X114027959Y-61780000D01*
X113911650Y-61195275D01*
X113580430Y-60699570D01*
X113296719Y-60510000D01*
X113580430Y-60320430D01*
X113911650Y-59824725D01*
X114027959Y-59240000D01*
X113911650Y-58655275D01*
X113580430Y-58159570D01*
X113296719Y-57970000D01*
X113580430Y-57780430D01*
X113911650Y-57284725D01*
X114027959Y-56700000D01*
X113911650Y-56115275D01*
X113580430Y-55619570D01*
X113296719Y-55430000D01*
X113580430Y-55240430D01*
X113911650Y-54744725D01*
X114027959Y-54160000D01*
X113911650Y-53575275D01*
X113580430Y-53079570D01*
X113278979Y-52878146D01*
X113388490Y-52826821D01*
X113782688Y-52394947D01*
X113954958Y-51979026D01*
X113833817Y-51747000D01*
X112627000Y-51747000D01*
X112627000Y-51767000D01*
X112373000Y-51767000D01*
X112373000Y-51747000D01*
X110087000Y-51747000D01*
X110087000Y-51767000D01*
X109833000Y-51767000D01*
X109833000Y-51747000D01*
X108626183Y-51747000D01*
X108505042Y-51979026D01*
X108677312Y-52394947D01*
X109071510Y-52826821D01*
X109181021Y-52878146D01*
X108879570Y-53079570D01*
X108548350Y-53575275D01*
X108432041Y-54160000D01*
X101135000Y-54160000D01*
X101135000Y-53674778D01*
X100886086Y-53073847D01*
X100426153Y-52613914D01*
X99825222Y-52365000D01*
X99174778Y-52365000D01*
X98573847Y-52613914D01*
X98158486Y-53029275D01*
X98152532Y-53027073D01*
X97179605Y-54000000D01*
X96820395Y-54000000D01*
X96806253Y-53985858D01*
X96985858Y-53806253D01*
X97000000Y-53820395D01*
X97972927Y-52847468D01*
X97874264Y-52580613D01*
X97264539Y-52354092D01*
X96614540Y-52378144D01*
X96125736Y-52580613D01*
X96075062Y-52717671D01*
X95957809Y-52542191D01*
X95747765Y-52401843D01*
X95500000Y-52352560D01*
X93500000Y-52352560D01*
X93252235Y-52401843D01*
X93042191Y-52542191D01*
X92901843Y-52752235D01*
X92852560Y-53000000D01*
X89210000Y-53000000D01*
X89210000Y-49439026D01*
X108505042Y-49439026D01*
X108677312Y-49854947D01*
X109071510Y-50286821D01*
X109206313Y-50350000D01*
X109071510Y-50413179D01*
X108677312Y-50845053D01*
X108505042Y-51260974D01*
X108626183Y-51493000D01*
X109833000Y-51493000D01*
X109833000Y-49207000D01*
X110087000Y-49207000D01*
X110087000Y-51493000D01*
X112373000Y-51493000D01*
X112373000Y-49207000D01*
X112627000Y-49207000D01*
X112627000Y-51493000D01*
X113833817Y-51493000D01*
X113954958Y-51260974D01*
X113782688Y-50845053D01*
X113388490Y-50413179D01*
X113253687Y-50350000D01*
X113388490Y-50286821D01*
X113782688Y-49854947D01*
X113954958Y-49439026D01*
X113833817Y-49207000D01*
X112627000Y-49207000D01*
X112373000Y-49207000D01*
X110087000Y-49207000D01*
X109833000Y-49207000D01*
X108626183Y-49207000D01*
X108505042Y-49439026D01*
X89210000Y-49439026D01*
X89210000Y-47053208D01*
X89505259Y-47766026D01*
X90133974Y-48394741D01*
X90955431Y-48735000D01*
X91844569Y-48735000D01*
X92666026Y-48394741D01*
X93294741Y-47766026D01*
X93635000Y-46944569D01*
X93635000Y-46055431D01*
X100365000Y-46055431D01*
X100365000Y-46944569D01*
X100705259Y-47766026D01*
X101333974Y-48394741D01*
X102155431Y-48735000D01*
X103044569Y-48735000D01*
X103866026Y-48394741D01*
X104494741Y-47766026D01*
X104835000Y-46944569D01*
X104835000Y-46899026D01*
X108505042Y-46899026D01*
X108677312Y-47314947D01*
X109071510Y-47746821D01*
X109206313Y-47810000D01*
X109071510Y-47873179D01*
X108677312Y-48305053D01*
X108505042Y-48720974D01*
X108626183Y-48953000D01*
X109833000Y-48953000D01*
X109833000Y-46667000D01*
X110087000Y-46667000D01*
X110087000Y-48953000D01*
X112373000Y-48953000D01*
X112373000Y-46667000D01*
X112627000Y-46667000D01*
X112627000Y-48953000D01*
X113833817Y-48953000D01*
X113954958Y-48720974D01*
X113782688Y-48305053D01*
X113388490Y-47873179D01*
X113253687Y-47810000D01*
X113388490Y-47746821D01*
X113782688Y-47314947D01*
X113954958Y-46899026D01*
X113833817Y-46667000D01*
X112627000Y-46667000D01*
X112373000Y-46667000D01*
X110087000Y-46667000D01*
X109833000Y-46667000D01*
X108626183Y-46667000D01*
X108505042Y-46899026D01*
X104835000Y-46899026D01*
X104835000Y-46055431D01*
X104494741Y-45233974D01*
X103866026Y-44605259D01*
X103044569Y-44265000D01*
X102155431Y-44265000D01*
X101333974Y-44605259D01*
X100705259Y-45233974D01*
X100365000Y-46055431D01*
X93635000Y-46055431D01*
X93294741Y-45233974D01*
X92666026Y-44605259D01*
X91844569Y-44265000D01*
X90955431Y-44265000D01*
X90133974Y-44605259D01*
X89505259Y-45233974D01*
X89210000Y-45946792D01*
X89210000Y-44000000D01*
X108432041Y-44000000D01*
X108548350Y-44584725D01*
X108879570Y-45080430D01*
X109181021Y-45281854D01*
X109071510Y-45333179D01*
X108677312Y-45765053D01*
X108505042Y-46180974D01*
X108626183Y-46413000D01*
X109833000Y-46413000D01*
X109833000Y-46393000D01*
X110087000Y-46393000D01*
X110087000Y-46413000D01*
X112373000Y-46413000D01*
X112373000Y-46393000D01*
X112627000Y-46393000D01*
X112627000Y-46413000D01*
X113833817Y-46413000D01*
X113954958Y-46180974D01*
X113782688Y-45765053D01*
X113522064Y-45479520D01*
X113611365Y-45461757D01*
X113821409Y-45321409D01*
X113961757Y-45111365D01*
X114011040Y-44863600D01*
X114011040Y-43136400D01*
X113961757Y-42888635D01*
X113877041Y-42761849D01*
X168800000Y-42761849D01*
X168800000Y-43438151D01*
X169058810Y-44062973D01*
X169537027Y-44541190D01*
X170161849Y-44800000D01*
X170838151Y-44800000D01*
X171462973Y-44541190D01*
X171941190Y-44062973D01*
X172200000Y-43438151D01*
X172200000Y-42761849D01*
X179800000Y-42761849D01*
X179800000Y-43438151D01*
X180058810Y-44062973D01*
X180537027Y-44541190D01*
X181161849Y-44800000D01*
X181838151Y-44800000D01*
X182462973Y-44541190D01*
X182941190Y-44062973D01*
X183200000Y-43438151D01*
X183200000Y-42761849D01*
X182941190Y-42137027D01*
X182462973Y-41658810D01*
X182200283Y-41550000D01*
X182591309Y-41550000D01*
X182824698Y-41453327D01*
X183003327Y-41274699D01*
X183100000Y-41041310D01*
X183100000Y-40285750D01*
X182941250Y-40127000D01*
X181627000Y-40127000D01*
X181627000Y-40147000D01*
X181373000Y-40147000D01*
X181373000Y-40127000D01*
X180058750Y-40127000D01*
X179900000Y-40285750D01*
X179900000Y-41041310D01*
X179996673Y-41274699D01*
X180175302Y-41453327D01*
X180408691Y-41550000D01*
X180799717Y-41550000D01*
X180537027Y-41658810D01*
X180058810Y-42137027D01*
X179800000Y-42761849D01*
X172200000Y-42761849D01*
X171941190Y-42137027D01*
X171462973Y-41658810D01*
X171200283Y-41550000D01*
X171591309Y-41550000D01*
X171824698Y-41453327D01*
X172003327Y-41274699D01*
X172100000Y-41041310D01*
X172100000Y-40285750D01*
X171941250Y-40127000D01*
X170627000Y-40127000D01*
X170627000Y-40147000D01*
X170373000Y-40147000D01*
X170373000Y-40127000D01*
X169058750Y-40127000D01*
X168900000Y-40285750D01*
X168900000Y-41041310D01*
X168996673Y-41274699D01*
X169175302Y-41453327D01*
X169408691Y-41550000D01*
X169799717Y-41550000D01*
X169537027Y-41658810D01*
X169058810Y-42137027D01*
X168800000Y-42761849D01*
X113877041Y-42761849D01*
X113821409Y-42678591D01*
X113611365Y-42538243D01*
X113363600Y-42488960D01*
X111636400Y-42488960D01*
X111388635Y-42538243D01*
X111178591Y-42678591D01*
X111038243Y-42888635D01*
X111033068Y-42914651D01*
X110544725Y-42588350D01*
X110107598Y-42501400D01*
X109812402Y-42501400D01*
X109375275Y-42588350D01*
X108879570Y-42919570D01*
X108548350Y-43415275D01*
X108432041Y-44000000D01*
X89210000Y-44000000D01*
X89210000Y-39174778D01*
X92865000Y-39174778D01*
X92865000Y-39825222D01*
X93113914Y-40426153D01*
X93573847Y-40886086D01*
X94174778Y-41135000D01*
X94825222Y-41135000D01*
X95426153Y-40886086D01*
X95659707Y-40652532D01*
X98527073Y-40652532D01*
X98625736Y-40919387D01*
X99235461Y-41145908D01*
X99885460Y-41121856D01*
X100374264Y-40919387D01*
X100472927Y-40652532D01*
X99500000Y-39679605D01*
X98527073Y-40652532D01*
X95659707Y-40652532D01*
X95886086Y-40426153D01*
X96135000Y-39825222D01*
X96135000Y-39235461D01*
X97854092Y-39235461D01*
X97878144Y-39885460D01*
X98080613Y-40374264D01*
X98347468Y-40472927D01*
X99320395Y-39500000D01*
X99679605Y-39500000D01*
X100652532Y-40472927D01*
X100919387Y-40374264D01*
X100984128Y-40200000D01*
X117552560Y-40200000D01*
X117552560Y-41800000D01*
X117601843Y-42047765D01*
X117742191Y-42257809D01*
X117952235Y-42398157D01*
X118200000Y-42447440D01*
X119800000Y-42447440D01*
X120047765Y-42398157D01*
X120257809Y-42257809D01*
X120398157Y-42047765D01*
X120406117Y-42007745D01*
X120671861Y-42007745D01*
X120745995Y-42253864D01*
X121283223Y-42446965D01*
X121853454Y-42419778D01*
X122254005Y-42253864D01*
X122328139Y-42007745D01*
X121500000Y-41179605D01*
X120671861Y-42007745D01*
X120406117Y-42007745D01*
X120444693Y-41813813D01*
X120492255Y-41828139D01*
X121320395Y-41000000D01*
X121679605Y-41000000D01*
X122507745Y-41828139D01*
X122753864Y-41754005D01*
X122946965Y-41216777D01*
X122919778Y-40646546D01*
X122753864Y-40245995D01*
X122507745Y-40171861D01*
X121679605Y-41000000D01*
X121320395Y-41000000D01*
X120492255Y-40171861D01*
X120444693Y-40186187D01*
X120406118Y-39992255D01*
X120671861Y-39992255D01*
X121500000Y-40820395D01*
X122328139Y-39992255D01*
X122254005Y-39746136D01*
X121716777Y-39553035D01*
X121146546Y-39580222D01*
X120745995Y-39746136D01*
X120671861Y-39992255D01*
X120406118Y-39992255D01*
X120398157Y-39952235D01*
X120257809Y-39742191D01*
X120047765Y-39601843D01*
X119800000Y-39552560D01*
X118200000Y-39552560D01*
X117952235Y-39601843D01*
X117742191Y-39742191D01*
X117601843Y-39952235D01*
X117552560Y-40200000D01*
X100984128Y-40200000D01*
X101145908Y-39764539D01*
X101121856Y-39114540D01*
X101057301Y-38958690D01*
X168900000Y-38958690D01*
X168900000Y-39714250D01*
X169058750Y-39873000D01*
X170373000Y-39873000D01*
X170373000Y-38608750D01*
X170627000Y-38608750D01*
X170627000Y-39873000D01*
X171941250Y-39873000D01*
X172100000Y-39714250D01*
X172100000Y-38958690D01*
X179900000Y-38958690D01*
X179900000Y-39714250D01*
X180058750Y-39873000D01*
X181373000Y-39873000D01*
X181373000Y-38608750D01*
X181627000Y-38608750D01*
X181627000Y-39873000D01*
X182941250Y-39873000D01*
X183100000Y-39714250D01*
X183100000Y-38958690D01*
X183003327Y-38725301D01*
X182824698Y-38546673D01*
X182591309Y-38450000D01*
X181785750Y-38450000D01*
X181627000Y-38608750D01*
X181373000Y-38608750D01*
X181214250Y-38450000D01*
X180408691Y-38450000D01*
X180175302Y-38546673D01*
X179996673Y-38725301D01*
X179900000Y-38958690D01*
X172100000Y-38958690D01*
X172003327Y-38725301D01*
X171824698Y-38546673D01*
X171591309Y-38450000D01*
X170785750Y-38450000D01*
X170627000Y-38608750D01*
X170373000Y-38608750D01*
X170214250Y-38450000D01*
X169408691Y-38450000D01*
X169175302Y-38546673D01*
X168996673Y-38725301D01*
X168900000Y-38958690D01*
X101057301Y-38958690D01*
X100919387Y-38625736D01*
X100652532Y-38527073D01*
X99679605Y-39500000D01*
X99320395Y-39500000D01*
X98347468Y-38527073D01*
X98080613Y-38625736D01*
X97854092Y-39235461D01*
X96135000Y-39235461D01*
X96135000Y-39174778D01*
X95886086Y-38573847D01*
X95659707Y-38347468D01*
X98527073Y-38347468D01*
X99500000Y-39320395D01*
X100472927Y-38347468D01*
X100374264Y-38080613D01*
X99764539Y-37854092D01*
X99114540Y-37878144D01*
X98625736Y-38080613D01*
X98527073Y-38347468D01*
X95659707Y-38347468D01*
X95426153Y-38113914D01*
X94825222Y-37865000D01*
X94174778Y-37865000D01*
X93573847Y-38113914D01*
X93113914Y-38573847D01*
X92865000Y-39174778D01*
X89210000Y-39174778D01*
X89210000Y-37710000D01*
X185790000Y-37710000D01*
X185790001Y-135790000D01*
X185790001Y-135790000D01*
G37*
X185790001Y-135790000D02*
X149634363Y-135790000D01*
X149753864Y-135754005D01*
X149946965Y-135216777D01*
X149919778Y-134646546D01*
X149838273Y-134449774D01*
X167229831Y-134449774D01*
X167294131Y-134687611D01*
X167802342Y-134867333D01*
X168340644Y-134838892D01*
X168705869Y-134687611D01*
X168770169Y-134449774D01*
X168000000Y-133679605D01*
X167229831Y-134449774D01*
X149838273Y-134449774D01*
X149753864Y-134245995D01*
X149507745Y-134171861D01*
X148679605Y-135000000D01*
X148693748Y-135014142D01*
X148514142Y-135193748D01*
X148500000Y-135179605D01*
X148485858Y-135193748D01*
X148306252Y-135014142D01*
X148320395Y-135000000D01*
X147492255Y-134171861D01*
X147246136Y-134245995D01*
X147053035Y-134783223D01*
X147080222Y-135353454D01*
X147246136Y-135754005D01*
X147365637Y-135790000D01*
X127798436Y-135790000D01*
X127946965Y-135376777D01*
X127919778Y-134806546D01*
X127753864Y-134405995D01*
X127507745Y-134331861D01*
X126679605Y-135160000D01*
X126693748Y-135174142D01*
X126514142Y-135353748D01*
X126500000Y-135339605D01*
X126485858Y-135353748D01*
X126306252Y-135174142D01*
X126320395Y-135160000D01*
X125492255Y-134331861D01*
X125246136Y-134405995D01*
X125053035Y-134943223D01*
X125080222Y-135513454D01*
X125194771Y-135790000D01*
X89210000Y-135790000D01*
X89210000Y-134152255D01*
X125671861Y-134152255D01*
X126500000Y-134980395D01*
X127328139Y-134152255D01*
X127279946Y-133992255D01*
X147671861Y-133992255D01*
X148500000Y-134820395D01*
X149328139Y-133992255D01*
X149254005Y-133746136D01*
X148716777Y-133553035D01*
X148146546Y-133580222D01*
X147745995Y-133746136D01*
X147671861Y-133992255D01*
X127279946Y-133992255D01*
X127254005Y-133906136D01*
X126716777Y-133713035D01*
X126146546Y-133740222D01*
X125745995Y-133906136D01*
X125671861Y-134152255D01*
X89210000Y-134152255D01*
X89210000Y-125053208D01*
X89505259Y-125766026D01*
X90133974Y-126394741D01*
X90955431Y-126735000D01*
X91844569Y-126735000D01*
X92666026Y-126394741D01*
X93294741Y-125766026D01*
X93635000Y-124944569D01*
X93635000Y-124055431D01*
X93294741Y-123233974D01*
X92666026Y-122605259D01*
X91844569Y-122265000D01*
X90955431Y-122265000D01*
X90133974Y-122605259D01*
X89505259Y-123233974D01*
X89210000Y-123946792D01*
X89210000Y-117174778D01*
X92865000Y-117174778D01*
X92865000Y-117825222D01*
X93113914Y-118426153D01*
X93573847Y-118886086D01*
X94174778Y-119135000D01*
X94825222Y-119135000D01*
X95426153Y-118886086D01*
X95659707Y-118652532D01*
X98527073Y-118652532D01*
X98625736Y-118919387D01*
X99235461Y-119145908D01*
X99885460Y-119121856D01*
X100374264Y-118919387D01*
X100472927Y-118652532D01*
X99500000Y-117679605D01*
X98527073Y-118652532D01*
X95659707Y-118652532D01*
X95886086Y-118426153D01*
X96135000Y-117825222D01*
X96135000Y-117235461D01*
X97854092Y-117235461D01*
X97878144Y-117885460D01*
X98080613Y-118374264D01*
X98347468Y-118472927D01*
X99320395Y-117500000D01*
X99679605Y-117500000D01*
X100652532Y-118472927D01*
X100919387Y-118374264D01*
X101145908Y-117764539D01*
X101121856Y-117114540D01*
X100919387Y-116625736D01*
X100652532Y-116527073D01*
X99679605Y-117500000D01*
X99320395Y-117500000D01*
X98347468Y-116527073D01*
X98080613Y-116625736D01*
X97854092Y-117235461D01*
X96135000Y-117235461D01*
X96135000Y-117174778D01*
X95886086Y-116573847D01*
X95659707Y-116347468D01*
X98527073Y-116347468D01*
X99500000Y-117320395D01*
X100472927Y-116347468D01*
X100374264Y-116080613D01*
X99764539Y-115854092D01*
X99114540Y-115878144D01*
X98625736Y-116080613D01*
X98527073Y-116347468D01*
X95659707Y-116347468D01*
X95426153Y-116113914D01*
X94825222Y-115865000D01*
X94174778Y-115865000D01*
X93573847Y-116113914D01*
X93113914Y-116573847D01*
X92865000Y-117174778D01*
X89210000Y-117174778D01*
X89210000Y-105000000D01*
X92852560Y-105000000D01*
X92852560Y-107000000D01*
X92901843Y-107247765D01*
X93042191Y-107457809D01*
X93252235Y-107598157D01*
X93500000Y-107647440D01*
X95500000Y-107647440D01*
X95747765Y-107598157D01*
X95957809Y-107457809D01*
X96075062Y-107282329D01*
X96125736Y-107419387D01*
X96735461Y-107645908D01*
X97385460Y-107621856D01*
X97874264Y-107419387D01*
X97972927Y-107152532D01*
X97000000Y-106179605D01*
X96985858Y-106193748D01*
X96806253Y-106014143D01*
X96820395Y-106000000D01*
X96806253Y-105985858D01*
X96985858Y-105806253D01*
X97000000Y-105820395D01*
X97014143Y-105806253D01*
X97193748Y-105985858D01*
X97179605Y-106000000D01*
X98152532Y-106972927D01*
X98158486Y-106970725D01*
X98573847Y-107386086D01*
X99174778Y-107635000D01*
X99825222Y-107635000D01*
X99991375Y-107566177D01*
X100999673Y-108574476D01*
X101042071Y-108637929D01*
X101105524Y-108680327D01*
X101105526Y-108680329D01*
X101212555Y-108751843D01*
X101293463Y-108805904D01*
X101515148Y-108850000D01*
X101515152Y-108850000D01*
X101589999Y-108864888D01*
X101664846Y-108850000D01*
X116792700Y-108850000D01*
X116805680Y-108881337D01*
X117198663Y-109274320D01*
X117405513Y-109360000D01*
X117198663Y-109445680D01*
X116805680Y-109838663D01*
X116792700Y-109870000D01*
X113695846Y-109870000D01*
X113620998Y-109855112D01*
X113546150Y-109870000D01*
X113546146Y-109870000D01*
X113372603Y-109904520D01*
X113324460Y-109914096D01*
X113137416Y-110039076D01*
X113073069Y-110082071D01*
X113030669Y-110145527D01*
X94015528Y-129160669D01*
X93952072Y-129203069D01*
X93909672Y-129266525D01*
X93909671Y-129266526D01*
X93784097Y-129454461D01*
X93725112Y-129750998D01*
X93740001Y-129825850D01*
X93740001Y-130352560D01*
X93500000Y-130352560D01*
X93252235Y-130401843D01*
X93042191Y-130542191D01*
X92901843Y-130752235D01*
X92852560Y-131000000D01*
X92852560Y-133000000D01*
X92901843Y-133247765D01*
X93042191Y-133457809D01*
X93252235Y-133598157D01*
X93500000Y-133647440D01*
X95500000Y-133647440D01*
X95747765Y-133598157D01*
X95957809Y-133457809D01*
X96075062Y-133282329D01*
X96125736Y-133419387D01*
X96735461Y-133645908D01*
X97385460Y-133621856D01*
X97874264Y-133419387D01*
X97972927Y-133152532D01*
X97000000Y-132179605D01*
X96985858Y-132193748D01*
X96806253Y-132014143D01*
X96820395Y-132000000D01*
X96806253Y-131985858D01*
X96985858Y-131806253D01*
X97000000Y-131820395D01*
X97972927Y-130847468D01*
X97874264Y-130580613D01*
X97264539Y-130354092D01*
X96614540Y-130378144D01*
X96125736Y-130580613D01*
X96075062Y-130717671D01*
X95957809Y-130542191D01*
X95747765Y-130401843D01*
X95500000Y-130352560D01*
X95260000Y-130352560D01*
X95260000Y-130065799D01*
X100369754Y-124956046D01*
X100705259Y-125766026D01*
X101333974Y-126394741D01*
X102155431Y-126735000D01*
X103044569Y-126735000D01*
X103866026Y-126394741D01*
X104494741Y-125766026D01*
X104835000Y-124944569D01*
X104835000Y-124055431D01*
X104494741Y-123233974D01*
X103866026Y-122605259D01*
X103056046Y-122269754D01*
X113935800Y-111390000D01*
X116792700Y-111390000D01*
X116805680Y-111421337D01*
X117198663Y-111814320D01*
X117405513Y-111900000D01*
X117198663Y-111985680D01*
X116805680Y-112378663D01*
X116593000Y-112892119D01*
X116593000Y-113447881D01*
X116705564Y-113719634D01*
X99991376Y-130433823D01*
X99825222Y-130365000D01*
X99174778Y-130365000D01*
X98573847Y-130613914D01*
X98158486Y-131029275D01*
X98152532Y-131027073D01*
X97179605Y-132000000D01*
X98152532Y-132972927D01*
X98158486Y-132970725D01*
X98573847Y-133386086D01*
X99174778Y-133635000D01*
X99825222Y-133635000D01*
X100426153Y-133386086D01*
X100509897Y-133302342D01*
X166632667Y-133302342D01*
X166661108Y-133840644D01*
X166812389Y-134205869D01*
X167050226Y-134270169D01*
X167820395Y-133500000D01*
X167050226Y-132729831D01*
X166812389Y-132794131D01*
X166632667Y-133302342D01*
X100509897Y-133302342D01*
X100886086Y-132926153D01*
X101041800Y-132550226D01*
X167229831Y-132550226D01*
X168000000Y-133320395D01*
X168770169Y-132550226D01*
X168705869Y-132312389D01*
X168197658Y-132132667D01*
X167659356Y-132161108D01*
X167294131Y-132312389D01*
X167229831Y-132550226D01*
X101041800Y-132550226D01*
X101135000Y-132325222D01*
X101135000Y-131674778D01*
X101066177Y-131508624D01*
X102289051Y-130285750D01*
X109950000Y-130285750D01*
X109950000Y-131091309D01*
X110046673Y-131324698D01*
X110225301Y-131503327D01*
X110458690Y-131600000D01*
X111214250Y-131600000D01*
X111373000Y-131441250D01*
X111373000Y-130127000D01*
X110108750Y-130127000D01*
X109950000Y-130285750D01*
X102289051Y-130285750D01*
X103666110Y-128908691D01*
X109950000Y-128908691D01*
X109950000Y-129714250D01*
X110108750Y-129873000D01*
X111373000Y-129873000D01*
X111373000Y-128558750D01*
X111627000Y-128558750D01*
X111627000Y-129873000D01*
X111647000Y-129873000D01*
X111647000Y-130127000D01*
X111627000Y-130127000D01*
X111627000Y-131441250D01*
X111785750Y-131600000D01*
X112541310Y-131600000D01*
X112774699Y-131503327D01*
X112953327Y-131324698D01*
X113050000Y-131091309D01*
X113050000Y-130700283D01*
X113158810Y-130962973D01*
X113637027Y-131441190D01*
X114261849Y-131700000D01*
X114938151Y-131700000D01*
X115562973Y-131441190D01*
X116041190Y-130962973D01*
X116300000Y-130338151D01*
X116300000Y-129661849D01*
X121200000Y-129661849D01*
X121200000Y-130338151D01*
X121458810Y-130962973D01*
X121937027Y-131441190D01*
X122561849Y-131700000D01*
X123238151Y-131700000D01*
X123862973Y-131441190D01*
X124341190Y-130962973D01*
X124600000Y-130338151D01*
X124600000Y-130285750D01*
X131950000Y-130285750D01*
X131950000Y-131091309D01*
X132046673Y-131324698D01*
X132225301Y-131503327D01*
X132458690Y-131600000D01*
X133214250Y-131600000D01*
X133373000Y-131441250D01*
X133373000Y-130127000D01*
X132108750Y-130127000D01*
X131950000Y-130285750D01*
X124600000Y-130285750D01*
X124600000Y-129661849D01*
X124341190Y-129037027D01*
X124212854Y-128908691D01*
X131950000Y-128908691D01*
X131950000Y-129714250D01*
X132108750Y-129873000D01*
X133373000Y-129873000D01*
X133373000Y-128558750D01*
X133627000Y-128558750D01*
X133627000Y-129873000D01*
X133647000Y-129873000D01*
X133647000Y-130127000D01*
X133627000Y-130127000D01*
X133627000Y-131441250D01*
X133785750Y-131600000D01*
X134541310Y-131600000D01*
X134774699Y-131503327D01*
X134953327Y-131324698D01*
X135050000Y-131091309D01*
X135050000Y-130700283D01*
X135158810Y-130962973D01*
X135637027Y-131441190D01*
X136261849Y-131700000D01*
X136938151Y-131700000D01*
X137562973Y-131441190D01*
X138041190Y-130962973D01*
X138300000Y-130338151D01*
X138300000Y-129661849D01*
X143200000Y-129661849D01*
X143200000Y-130338151D01*
X143458810Y-130962973D01*
X143937027Y-131441190D01*
X144561849Y-131700000D01*
X145238151Y-131700000D01*
X145862973Y-131441190D01*
X146341190Y-130962973D01*
X146600000Y-130338151D01*
X146600000Y-129661849D01*
X146341190Y-129037027D01*
X145862973Y-128558810D01*
X145238151Y-128300000D01*
X144561849Y-128300000D01*
X143937027Y-128558810D01*
X143458810Y-129037027D01*
X143200000Y-129661849D01*
X138300000Y-129661849D01*
X138041190Y-129037027D01*
X137562973Y-128558810D01*
X136938151Y-128300000D01*
X136261849Y-128300000D01*
X135637027Y-128558810D01*
X135158810Y-129037027D01*
X135050000Y-129299717D01*
X135050000Y-128908691D01*
X134953327Y-128675302D01*
X134774699Y-128496673D01*
X134541310Y-128400000D01*
X133785750Y-128400000D01*
X133627000Y-128558750D01*
X133373000Y-128558750D01*
X133214250Y-128400000D01*
X132458690Y-128400000D01*
X132225301Y-128496673D01*
X132046673Y-128675302D01*
X131950000Y-128908691D01*
X124212854Y-128908691D01*
X123862973Y-128558810D01*
X123238151Y-128300000D01*
X122561849Y-128300000D01*
X121937027Y-128558810D01*
X121458810Y-129037027D01*
X121200000Y-129661849D01*
X116300000Y-129661849D01*
X116041190Y-129037027D01*
X115562973Y-128558810D01*
X114938151Y-128300000D01*
X114261849Y-128300000D01*
X113637027Y-128558810D01*
X113158810Y-129037027D01*
X113050000Y-129299717D01*
X113050000Y-128908691D01*
X112953327Y-128675302D01*
X112774699Y-128496673D01*
X112541310Y-128400000D01*
X111785750Y-128400000D01*
X111627000Y-128558750D01*
X111373000Y-128558750D01*
X111214250Y-128400000D01*
X110458690Y-128400000D01*
X110225301Y-128496673D01*
X110046673Y-128675302D01*
X109950000Y-128908691D01*
X103666110Y-128908691D01*
X107574801Y-125000000D01*
X125036887Y-125000000D01*
X125148260Y-125559909D01*
X125465423Y-126034577D01*
X125940091Y-126351740D01*
X126358667Y-126435000D01*
X126641333Y-126435000D01*
X127059909Y-126351740D01*
X127534577Y-126034577D01*
X127851740Y-125559909D01*
X127963113Y-125000000D01*
X127931287Y-124840000D01*
X147036887Y-124840000D01*
X147148260Y-125399909D01*
X147465423Y-125874577D01*
X147940091Y-126191740D01*
X148358667Y-126275000D01*
X148641333Y-126275000D01*
X149059909Y-126191740D01*
X149534577Y-125874577D01*
X149851740Y-125399909D01*
X149963113Y-124840000D01*
X149851740Y-124280091D01*
X149534577Y-123805423D01*
X149059909Y-123488260D01*
X148641333Y-123405000D01*
X148358667Y-123405000D01*
X147940091Y-123488260D01*
X147465423Y-123805423D01*
X147148260Y-124280091D01*
X147036887Y-124840000D01*
X127931287Y-124840000D01*
X127851740Y-124440091D01*
X127534577Y-123965423D01*
X127059909Y-123648260D01*
X126641333Y-123565000D01*
X126358667Y-123565000D01*
X125940091Y-123648260D01*
X125465423Y-123965423D01*
X125148260Y-124440091D01*
X125036887Y-125000000D01*
X107574801Y-125000000D01*
X118007802Y-114567000D01*
X118267881Y-114567000D01*
X118781337Y-114354320D01*
X119174320Y-113961337D01*
X119260000Y-113754487D01*
X119345680Y-113961337D01*
X119738663Y-114354320D01*
X120252119Y-114567000D01*
X120807881Y-114567000D01*
X121321337Y-114354320D01*
X121714320Y-113961337D01*
X121927000Y-113447881D01*
X121927000Y-112892119D01*
X121755053Y-112477001D01*
X128742200Y-112477001D01*
X129441312Y-113176114D01*
X129376887Y-113500000D01*
X129488260Y-114059909D01*
X129805423Y-114534577D01*
X130280091Y-114851740D01*
X130698667Y-114935000D01*
X130981333Y-114935000D01*
X131399909Y-114851740D01*
X131874577Y-114534577D01*
X132191740Y-114059909D01*
X132303113Y-113500000D01*
X132191740Y-112940091D01*
X131874577Y-112465423D01*
X131399909Y-112148260D01*
X130981333Y-112065000D01*
X130698667Y-112065000D01*
X130516114Y-112101312D01*
X130239258Y-111824456D01*
X130280091Y-111851740D01*
X130698667Y-111935000D01*
X130981333Y-111935000D01*
X131399909Y-111851740D01*
X131874577Y-111534577D01*
X132191740Y-111059909D01*
X132303113Y-110500000D01*
X132191740Y-109940091D01*
X131874577Y-109465423D01*
X131399909Y-109148260D01*
X130981333Y-109065000D01*
X130698667Y-109065000D01*
X130516113Y-109101312D01*
X130473330Y-109058529D01*
X130430928Y-108995070D01*
X130179536Y-108827095D01*
X129957851Y-108782999D01*
X129957846Y-108782999D01*
X129882999Y-108768111D01*
X129808152Y-108782999D01*
X121755053Y-108782999D01*
X121927000Y-108367881D01*
X121927000Y-107812119D01*
X121781148Y-107460001D01*
X129384843Y-107460001D01*
X129376887Y-107500000D01*
X129488260Y-108059909D01*
X129805423Y-108534577D01*
X130280091Y-108851740D01*
X130698667Y-108935000D01*
X130981333Y-108935000D01*
X131399909Y-108851740D01*
X131874577Y-108534577D01*
X132191740Y-108059909D01*
X132303113Y-107500000D01*
X132191740Y-106940091D01*
X131874577Y-106465423D01*
X131399909Y-106148260D01*
X130981333Y-106065000D01*
X130698667Y-106065000D01*
X130512915Y-106101948D01*
X130336538Y-105984097D01*
X130114853Y-105940001D01*
X130114848Y-105940001D01*
X130040001Y-105925113D01*
X129965154Y-105940001D01*
X121880558Y-105940001D01*
X121927000Y-105827881D01*
X121927000Y-105272119D01*
X121906654Y-105222999D01*
X129447762Y-105222999D01*
X129620145Y-105257288D01*
X129805423Y-105534577D01*
X130280091Y-105851740D01*
X130698667Y-105935000D01*
X130981333Y-105935000D01*
X131399909Y-105851740D01*
X131874577Y-105534577D01*
X132191740Y-105059909D01*
X132303113Y-104500000D01*
X132191740Y-103940091D01*
X131874577Y-103465423D01*
X131399909Y-103148260D01*
X130981333Y-103065000D01*
X130698667Y-103065000D01*
X130280091Y-103148260D01*
X129805423Y-103465423D01*
X129654328Y-103691552D01*
X129596782Y-103702999D01*
X121755053Y-103702999D01*
X121927000Y-103287881D01*
X121927000Y-102732119D01*
X121906654Y-102682999D01*
X129210784Y-102682999D01*
X129285631Y-102697887D01*
X129360478Y-102682999D01*
X129360483Y-102682999D01*
X129582168Y-102638903D01*
X129784706Y-102503571D01*
X129805423Y-102534577D01*
X130280091Y-102851740D01*
X130698667Y-102935000D01*
X130981333Y-102935000D01*
X131399909Y-102851740D01*
X131874577Y-102534577D01*
X132191740Y-102059909D01*
X132303113Y-101500000D01*
X132191740Y-100940091D01*
X131874577Y-100465423D01*
X131399909Y-100148260D01*
X130981333Y-100065000D01*
X130698667Y-100065000D01*
X130280091Y-100148260D01*
X129805423Y-100465423D01*
X129620145Y-100742712D01*
X129412093Y-100784096D01*
X129160701Y-100952071D01*
X129118299Y-101015530D01*
X128970830Y-101162999D01*
X121755053Y-101162999D01*
X121927000Y-100747881D01*
X121927000Y-100192119D01*
X121906654Y-100142999D01*
X128750784Y-100142999D01*
X128825631Y-100157887D01*
X128900478Y-100142999D01*
X128900483Y-100142999D01*
X129122168Y-100098903D01*
X129373560Y-99930928D01*
X129415962Y-99867469D01*
X129782765Y-99500667D01*
X129805423Y-99534577D01*
X130280091Y-99851740D01*
X130698667Y-99935000D01*
X130981333Y-99935000D01*
X131399909Y-99851740D01*
X131874577Y-99534577D01*
X132191740Y-99059909D01*
X132303113Y-98500000D01*
X132191740Y-97940091D01*
X131874577Y-97465423D01*
X131399909Y-97148260D01*
X130981333Y-97065000D01*
X130698667Y-97065000D01*
X130280091Y-97148260D01*
X129805423Y-97465423D01*
X129620145Y-97742712D01*
X129412093Y-97784096D01*
X129160701Y-97952071D01*
X129118301Y-98015527D01*
X128510830Y-98622999D01*
X121755053Y-98622999D01*
X121927000Y-98207881D01*
X121927000Y-97652119D01*
X121764579Y-97260000D01*
X129765153Y-97260000D01*
X129840000Y-97274888D01*
X129914847Y-97260000D01*
X129914852Y-97260000D01*
X130136537Y-97215904D01*
X130387929Y-97047929D01*
X130430331Y-96984470D01*
X130516113Y-96898688D01*
X130698667Y-96935000D01*
X130981333Y-96935000D01*
X131399909Y-96851740D01*
X131874577Y-96534577D01*
X132191740Y-96059909D01*
X132303113Y-95500000D01*
X132191740Y-94940091D01*
X131874577Y-94465423D01*
X131399909Y-94148260D01*
X130981333Y-94065000D01*
X130698667Y-94065000D01*
X130280091Y-94148260D01*
X130239257Y-94175544D01*
X130516114Y-93898688D01*
X130698667Y-93935000D01*
X130981333Y-93935000D01*
X131399909Y-93851740D01*
X131874577Y-93534577D01*
X132191740Y-93059909D01*
X132303113Y-92500000D01*
X132191740Y-91940091D01*
X131874577Y-91465423D01*
X131399909Y-91148260D01*
X130981333Y-91065000D01*
X130698667Y-91065000D01*
X130280091Y-91148260D01*
X129805423Y-91465423D01*
X129488260Y-91940091D01*
X129376887Y-92500000D01*
X129441312Y-92823886D01*
X129088198Y-93177001D01*
X121906654Y-93177001D01*
X121927000Y-93127881D01*
X121927000Y-92572119D01*
X121714320Y-92058663D01*
X121321337Y-91665680D01*
X121114487Y-91580000D01*
X121321337Y-91494320D01*
X121714320Y-91101337D01*
X121927000Y-90587881D01*
X121927000Y-90032119D01*
X121714320Y-89518663D01*
X121321337Y-89125680D01*
X121114487Y-89040000D01*
X121321337Y-88954320D01*
X121714320Y-88561337D01*
X121927000Y-88047881D01*
X121927000Y-87492119D01*
X121714320Y-86978663D01*
X121321337Y-86585680D01*
X121114487Y-86500000D01*
X121321337Y-86414320D01*
X121714320Y-86021337D01*
X121927000Y-85507881D01*
X121927000Y-84952119D01*
X121714320Y-84438663D01*
X121321337Y-84045680D01*
X121114487Y-83960000D01*
X121321337Y-83874320D01*
X121714320Y-83481337D01*
X121927000Y-82967881D01*
X121927000Y-82412119D01*
X121714320Y-81898663D01*
X121321337Y-81505680D01*
X121114487Y-81420000D01*
X121321337Y-81334320D01*
X121714320Y-80941337D01*
X121927000Y-80427881D01*
X121927000Y-79872119D01*
X121714320Y-79358663D01*
X121321337Y-78965680D01*
X121114487Y-78880000D01*
X121321337Y-78794320D01*
X121714320Y-78401337D01*
X121927000Y-77887881D01*
X121927000Y-77332119D01*
X121714320Y-76818663D01*
X121321337Y-76425680D01*
X121114487Y-76340000D01*
X121321337Y-76254320D01*
X121714320Y-75861337D01*
X121927000Y-75347881D01*
X121927000Y-74792119D01*
X121714320Y-74278663D01*
X121321337Y-73885680D01*
X120807881Y-73673000D01*
X120252119Y-73673000D01*
X119738663Y-73885680D01*
X119345680Y-74278663D01*
X119260000Y-74485513D01*
X119174320Y-74278663D01*
X118781337Y-73885680D01*
X118681651Y-73844389D01*
X122863041Y-69662999D01*
X132682052Y-69662999D01*
X132799483Y-69780430D01*
X133179889Y-69937999D01*
X133591637Y-69937999D01*
X133972043Y-69780430D01*
X134089474Y-69662999D01*
X140240001Y-69662999D01*
X140240000Y-91261570D01*
X140187138Y-91283466D01*
X139783466Y-91687138D01*
X139565000Y-92214561D01*
X139565000Y-92785439D01*
X139783466Y-93312862D01*
X140187138Y-93716534D01*
X140240001Y-93738431D01*
X140240001Y-94261569D01*
X140187138Y-94283466D01*
X139783466Y-94687138D01*
X139565000Y-95214561D01*
X139565000Y-95785439D01*
X139783466Y-96312862D01*
X140187138Y-96716534D01*
X140240001Y-96738431D01*
X140240001Y-97261569D01*
X140187138Y-97283466D01*
X139783466Y-97687138D01*
X139565000Y-98214561D01*
X139565000Y-98785439D01*
X139783466Y-99312862D01*
X140187138Y-99716534D01*
X140240001Y-99738430D01*
X140240001Y-100261570D01*
X140187138Y-100283466D01*
X139783466Y-100687138D01*
X139565000Y-101214561D01*
X139565000Y-101785439D01*
X139783466Y-102312862D01*
X140187138Y-102716534D01*
X140240001Y-102738430D01*
X140240000Y-103261570D01*
X140187138Y-103283466D01*
X139783466Y-103687138D01*
X139565000Y-104214561D01*
X139565000Y-104785439D01*
X139783466Y-105312862D01*
X140187138Y-105716534D01*
X140240000Y-105738430D01*
X140240000Y-106261570D01*
X140187138Y-106283466D01*
X139783466Y-106687138D01*
X139565000Y-107214561D01*
X139565000Y-107785439D01*
X139783466Y-108312862D01*
X140187138Y-108716534D01*
X140240000Y-108738430D01*
X140240000Y-109261570D01*
X140187138Y-109283466D01*
X139783466Y-109687138D01*
X139565000Y-110214561D01*
X139565000Y-110785439D01*
X139783466Y-111312862D01*
X140187138Y-111716534D01*
X140240000Y-111738430D01*
X140240000Y-112261570D01*
X140187138Y-112283466D01*
X139783466Y-112687138D01*
X139565000Y-113214561D01*
X139565000Y-113785439D01*
X139783466Y-114312862D01*
X140187138Y-114716534D01*
X140714561Y-114935000D01*
X141285439Y-114935000D01*
X141338302Y-114913103D01*
X142580001Y-116154803D01*
X142580001Y-116781956D01*
X142305423Y-116965423D01*
X141988260Y-117440091D01*
X141876887Y-118000000D01*
X141988260Y-118559909D01*
X142305423Y-119034577D01*
X142780091Y-119351740D01*
X143198667Y-119435000D01*
X143481333Y-119435000D01*
X143899909Y-119351740D01*
X144374577Y-119034577D01*
X144691740Y-118559909D01*
X144803113Y-118000000D01*
X144691740Y-117440091D01*
X144374577Y-116965423D01*
X144100000Y-116781957D01*
X144100000Y-115914848D01*
X144114888Y-115840000D01*
X144100000Y-115765152D01*
X144100000Y-115765148D01*
X144055904Y-115543463D01*
X144055904Y-115543462D01*
X143930329Y-115355527D01*
X143887929Y-115292071D01*
X143824473Y-115249671D01*
X142834802Y-114260000D01*
X146185199Y-114260000D01*
X155086896Y-123161698D01*
X155065000Y-123214561D01*
X155065000Y-123785439D01*
X155283466Y-124312862D01*
X155687138Y-124716534D01*
X156214561Y-124935000D01*
X156785439Y-124935000D01*
X157312862Y-124716534D01*
X157716534Y-124312862D01*
X157738430Y-124260000D01*
X158261570Y-124260000D01*
X158283466Y-124312862D01*
X158687138Y-124716534D01*
X159214561Y-124935000D01*
X159785439Y-124935000D01*
X160312862Y-124716534D01*
X160716534Y-124312862D01*
X160738430Y-124260000D01*
X161261570Y-124260000D01*
X161283466Y-124312862D01*
X161687138Y-124716534D01*
X162214561Y-124935000D01*
X162785439Y-124935000D01*
X163312862Y-124716534D01*
X163716534Y-124312862D01*
X163935000Y-123785439D01*
X163935000Y-123214561D01*
X163913103Y-123161698D01*
X168947800Y-118127002D01*
X169058748Y-118127002D01*
X168900000Y-118285750D01*
X168900000Y-119041310D01*
X168996673Y-119274699D01*
X169175302Y-119453327D01*
X169408691Y-119550000D01*
X169799717Y-119550000D01*
X169537027Y-119658810D01*
X169058810Y-120137027D01*
X168800000Y-120761849D01*
X168800000Y-121438151D01*
X169058810Y-122062973D01*
X169537027Y-122541190D01*
X170161849Y-122800000D01*
X170838151Y-122800000D01*
X171462973Y-122541190D01*
X171941190Y-122062973D01*
X172200000Y-121438151D01*
X172200000Y-120761849D01*
X171941190Y-120137027D01*
X171462973Y-119658810D01*
X171200283Y-119550000D01*
X171591309Y-119550000D01*
X171824698Y-119453327D01*
X172003327Y-119274699D01*
X172100000Y-119041310D01*
X172100000Y-118285750D01*
X171941250Y-118127000D01*
X170627000Y-118127000D01*
X170627000Y-118147000D01*
X170373000Y-118147000D01*
X170373000Y-118127000D01*
X170353000Y-118127000D01*
X170353000Y-117873000D01*
X170373000Y-117873000D01*
X170373000Y-117853000D01*
X170627000Y-117853000D01*
X170627000Y-117873000D01*
X171941250Y-117873000D01*
X172100000Y-117714250D01*
X172100000Y-116958690D01*
X172003327Y-116725301D01*
X171824698Y-116546673D01*
X171591309Y-116450000D01*
X170785750Y-116450000D01*
X170627002Y-116608748D01*
X170627002Y-116450000D01*
X170624802Y-116450000D01*
X171814802Y-115260000D01*
X175261570Y-115260000D01*
X175283466Y-115312862D01*
X175687138Y-115716534D01*
X176214561Y-115935000D01*
X176785439Y-115935000D01*
X176865001Y-115902044D01*
X176865002Y-121960196D01*
X172595528Y-126229671D01*
X172532072Y-126272071D01*
X172489672Y-126335527D01*
X172489671Y-126335528D01*
X172364097Y-126523463D01*
X172305112Y-126820000D01*
X172320001Y-126894852D01*
X172320000Y-132348160D01*
X172312454Y-132351286D01*
X171931286Y-132732454D01*
X171810000Y-133025265D01*
X171688714Y-132732454D01*
X171307546Y-132351286D01*
X171260000Y-132331592D01*
X171260000Y-130925264D01*
X171462973Y-130841190D01*
X171941190Y-130362973D01*
X172200000Y-129738151D01*
X172200000Y-129061849D01*
X171941190Y-128437027D01*
X171462973Y-127958810D01*
X170838151Y-127700000D01*
X170161849Y-127700000D01*
X169537027Y-127958810D01*
X169058810Y-128437027D01*
X168800000Y-129061849D01*
X168800000Y-129738151D01*
X169058810Y-130362973D01*
X169537027Y-130841190D01*
X169740000Y-130925264D01*
X169740001Y-132383739D01*
X169391286Y-132732454D01*
X169276675Y-133009151D01*
X169187611Y-132794131D01*
X168949774Y-132729831D01*
X168179605Y-133500000D01*
X168949774Y-134270169D01*
X169187611Y-134205869D01*
X169269649Y-133973886D01*
X169391286Y-134267546D01*
X169772454Y-134648714D01*
X170270474Y-134855000D01*
X170809526Y-134855000D01*
X171307546Y-134648714D01*
X171688714Y-134267546D01*
X171810000Y-133974735D01*
X171931286Y-134267546D01*
X172312454Y-134648714D01*
X172810474Y-134855000D01*
X173349526Y-134855000D01*
X173847546Y-134648714D01*
X174228714Y-134267546D01*
X174435000Y-133769526D01*
X174435000Y-133230474D01*
X174228714Y-132732454D01*
X173847546Y-132351286D01*
X173840000Y-132348160D01*
X173840000Y-129061849D01*
X179800000Y-129061849D01*
X179800000Y-129738151D01*
X180058810Y-130362973D01*
X180537027Y-130841190D01*
X181161849Y-131100000D01*
X181838151Y-131100000D01*
X182462973Y-130841190D01*
X182941190Y-130362973D01*
X183200000Y-129738151D01*
X183200000Y-129061849D01*
X182941190Y-128437027D01*
X182462973Y-127958810D01*
X181838151Y-127700000D01*
X181161849Y-127700000D01*
X180537027Y-127958810D01*
X180058810Y-128437027D01*
X179800000Y-129061849D01*
X173840000Y-129061849D01*
X173840000Y-127134801D01*
X178109474Y-122865328D01*
X178172930Y-122822928D01*
X178340905Y-122571536D01*
X178385001Y-122349851D01*
X178385001Y-122349847D01*
X178399889Y-122275000D01*
X178385001Y-122200153D01*
X178385001Y-120761849D01*
X179800000Y-120761849D01*
X179800000Y-121438151D01*
X180058810Y-122062973D01*
X180537027Y-122541190D01*
X181161849Y-122800000D01*
X181838151Y-122800000D01*
X182462973Y-122541190D01*
X182941190Y-122062973D01*
X183200000Y-121438151D01*
X183200000Y-120761849D01*
X182941190Y-120137027D01*
X182462973Y-119658810D01*
X182200283Y-119550000D01*
X182591309Y-119550000D01*
X182824698Y-119453327D01*
X183003327Y-119274699D01*
X183100000Y-119041310D01*
X183100000Y-118285750D01*
X182941250Y-118127000D01*
X181627000Y-118127000D01*
X181627000Y-118147000D01*
X181373000Y-118147000D01*
X181373000Y-118127000D01*
X180058750Y-118127000D01*
X179900000Y-118285750D01*
X179900000Y-119041310D01*
X179996673Y-119274699D01*
X180175302Y-119453327D01*
X180408691Y-119550000D01*
X180799717Y-119550000D01*
X180537027Y-119658810D01*
X180058810Y-120137027D01*
X179800000Y-120761849D01*
X178385001Y-120761849D01*
X178385001Y-116958690D01*
X179900000Y-116958690D01*
X179900000Y-117714250D01*
X180058750Y-117873000D01*
X181373000Y-117873000D01*
X181373000Y-116608750D01*
X181627000Y-116608750D01*
X181627000Y-117873000D01*
X182941250Y-117873000D01*
X183100000Y-117714250D01*
X183100000Y-116958690D01*
X183003327Y-116725301D01*
X182824698Y-116546673D01*
X182591309Y-116450000D01*
X181785750Y-116450000D01*
X181627000Y-116608750D01*
X181373000Y-116608750D01*
X181214250Y-116450000D01*
X180408691Y-116450000D01*
X180175302Y-116546673D01*
X179996673Y-116725301D01*
X179900000Y-116958690D01*
X178385001Y-116958690D01*
X178385001Y-113949849D01*
X178399889Y-113875001D01*
X178385001Y-113800153D01*
X178385001Y-113800149D01*
X178342176Y-113584852D01*
X178340905Y-113578463D01*
X178215330Y-113390528D01*
X178172930Y-113327072D01*
X178109474Y-113284672D01*
X177274576Y-112449774D01*
X178729831Y-112449774D01*
X178794131Y-112687611D01*
X179302342Y-112867333D01*
X179840644Y-112838892D01*
X180205869Y-112687611D01*
X180270169Y-112449774D01*
X179500000Y-111679605D01*
X178729831Y-112449774D01*
X177274576Y-112449774D01*
X176127144Y-111302342D01*
X178132667Y-111302342D01*
X178161108Y-111840644D01*
X178312389Y-112205869D01*
X178550226Y-112270169D01*
X179320395Y-111500000D01*
X179679605Y-111500000D01*
X180449774Y-112270169D01*
X180687611Y-112205869D01*
X180867333Y-111697658D01*
X180838892Y-111159356D01*
X180687611Y-110794131D01*
X180449774Y-110729831D01*
X179679605Y-111500000D01*
X179320395Y-111500000D01*
X178550226Y-110729831D01*
X178312389Y-110794131D01*
X178132667Y-111302342D01*
X176127144Y-111302342D01*
X174584801Y-109760000D01*
X176845153Y-109760000D01*
X176920000Y-109774888D01*
X176994847Y-109760000D01*
X176994852Y-109760000D01*
X177216537Y-109715904D01*
X177467929Y-109547929D01*
X177510331Y-109484470D01*
X178145000Y-108849801D01*
X178145000Y-109229526D01*
X178351286Y-109727546D01*
X178732454Y-110108714D01*
X179009151Y-110223325D01*
X178794131Y-110312389D01*
X178729831Y-110550226D01*
X179500000Y-111320395D01*
X180270169Y-110550226D01*
X180205869Y-110312389D01*
X179973886Y-110230351D01*
X180267546Y-110108714D01*
X180648714Y-109727546D01*
X180855000Y-109229526D01*
X180855000Y-108690474D01*
X180648714Y-108192454D01*
X180267546Y-107811286D01*
X179974735Y-107690000D01*
X180267546Y-107568714D01*
X180648714Y-107187546D01*
X180855000Y-106689526D01*
X180855000Y-106150474D01*
X180648714Y-105652454D01*
X180267546Y-105271286D01*
X179769526Y-105065000D01*
X179230474Y-105065000D01*
X178732454Y-105271286D01*
X178351286Y-105652454D01*
X178145000Y-106150474D01*
X178145000Y-106689526D01*
X178148126Y-106697072D01*
X176605199Y-108240000D01*
X174924320Y-108240000D01*
X174935011Y-108186251D01*
X174935011Y-108186247D01*
X174949899Y-108111399D01*
X174935011Y-108036551D01*
X174935011Y-103061849D01*
X179800000Y-103061849D01*
X179800000Y-103738151D01*
X180058810Y-104362973D01*
X180537027Y-104841190D01*
X181161849Y-105100000D01*
X181838151Y-105100000D01*
X182462973Y-104841190D01*
X182941190Y-104362973D01*
X183200000Y-103738151D01*
X183200000Y-103061849D01*
X182941190Y-102437027D01*
X182462973Y-101958810D01*
X181838151Y-101700000D01*
X181161849Y-101700000D01*
X180537027Y-101958810D01*
X180058810Y-102437027D01*
X179800000Y-103061849D01*
X174935011Y-103061849D01*
X174935011Y-94761849D01*
X179800000Y-94761849D01*
X179800000Y-95438151D01*
X180058810Y-96062973D01*
X180537027Y-96541190D01*
X181161849Y-96800000D01*
X181838151Y-96800000D01*
X182462973Y-96541190D01*
X182941190Y-96062973D01*
X183200000Y-95438151D01*
X183200000Y-94761849D01*
X182941190Y-94137027D01*
X182462973Y-93658810D01*
X182200283Y-93550000D01*
X182591309Y-93550000D01*
X182824698Y-93453327D01*
X183003327Y-93274699D01*
X183100000Y-93041310D01*
X183100000Y-92285750D01*
X182941250Y-92127000D01*
X181627000Y-92127000D01*
X181627000Y-92147000D01*
X181373000Y-92147000D01*
X181373000Y-92127000D01*
X180058750Y-92127000D01*
X179900000Y-92285750D01*
X179900000Y-93041310D01*
X179996673Y-93274699D01*
X180175302Y-93453327D01*
X180408691Y-93550000D01*
X180799717Y-93550000D01*
X180537027Y-93658810D01*
X180058810Y-94137027D01*
X179800000Y-94761849D01*
X174935011Y-94761849D01*
X174935011Y-90958690D01*
X179900000Y-90958690D01*
X179900000Y-91714250D01*
X180058750Y-91873000D01*
X181373000Y-91873000D01*
X181373000Y-90608750D01*
X181627000Y-90608750D01*
X181627000Y-91873000D01*
X182941250Y-91873000D01*
X183100000Y-91714250D01*
X183100000Y-90958690D01*
X183003327Y-90725301D01*
X182824698Y-90546673D01*
X182591309Y-90450000D01*
X181785750Y-90450000D01*
X181627000Y-90608750D01*
X181373000Y-90608750D01*
X181214250Y-90450000D01*
X180408691Y-90450000D01*
X180175302Y-90546673D01*
X179996673Y-90725301D01*
X179900000Y-90958690D01*
X174935011Y-90958690D01*
X174935011Y-82561249D01*
X175228714Y-82267546D01*
X175435000Y-81769526D01*
X175435000Y-81230474D01*
X175228714Y-80732454D01*
X174847546Y-80351286D01*
X174349526Y-80145000D01*
X173810474Y-80145000D01*
X173312454Y-80351286D01*
X172931286Y-80732454D01*
X172810000Y-81025265D01*
X172688714Y-80732454D01*
X172307546Y-80351286D01*
X172300000Y-80348160D01*
X172300000Y-78665524D01*
X172339887Y-78464998D01*
X172280902Y-78168461D01*
X172155328Y-77980526D01*
X172130329Y-77955527D01*
X172117755Y-77936708D01*
X172200000Y-77738151D01*
X172200000Y-77061849D01*
X179800000Y-77061849D01*
X179800000Y-77738151D01*
X180058810Y-78362973D01*
X180537027Y-78841190D01*
X181161849Y-79100000D01*
X181838151Y-79100000D01*
X182462973Y-78841190D01*
X182941190Y-78362973D01*
X183200000Y-77738151D01*
X183200000Y-77061849D01*
X182941190Y-76437027D01*
X182462973Y-75958810D01*
X181838151Y-75700000D01*
X181161849Y-75700000D01*
X180537027Y-75958810D01*
X180058810Y-76437027D01*
X179800000Y-77061849D01*
X172200000Y-77061849D01*
X171941190Y-76437027D01*
X171462973Y-75958810D01*
X170838151Y-75700000D01*
X170161849Y-75700000D01*
X169537027Y-75958810D01*
X169058810Y-76437027D01*
X168800000Y-77061849D01*
X168800000Y-77738151D01*
X169058810Y-78362973D01*
X169537027Y-78841190D01*
X170161849Y-79100000D01*
X170780001Y-79100000D01*
X170780000Y-80348160D01*
X170772454Y-80351286D01*
X170391286Y-80732454D01*
X170276675Y-81009151D01*
X170187611Y-80794131D01*
X169949774Y-80729831D01*
X169179605Y-81500000D01*
X169949774Y-82270169D01*
X170187611Y-82205869D01*
X170269649Y-81973886D01*
X170391286Y-82267546D01*
X170772454Y-82648714D01*
X171270474Y-82855000D01*
X171809526Y-82855000D01*
X172307546Y-82648714D01*
X172688714Y-82267546D01*
X172810000Y-81974735D01*
X172931286Y-82267546D01*
X173312454Y-82648714D01*
X173415012Y-82691195D01*
X173415011Y-106715000D01*
X172985750Y-106715000D01*
X172827000Y-106873750D01*
X172827000Y-107202560D01*
X172573000Y-107202560D01*
X172573000Y-106873750D01*
X172414250Y-106715000D01*
X171873691Y-106715000D01*
X171640302Y-106811673D01*
X171638388Y-106813587D01*
X169757184Y-104932382D01*
X170161849Y-105100000D01*
X170838151Y-105100000D01*
X171462973Y-104841190D01*
X171941190Y-104362973D01*
X172200000Y-103738151D01*
X172200000Y-103061849D01*
X171941190Y-102437027D01*
X171462973Y-101958810D01*
X170838151Y-101700000D01*
X170161849Y-101700000D01*
X169537027Y-101958810D01*
X169058810Y-102437027D01*
X168800000Y-103061849D01*
X168800000Y-103738151D01*
X168967618Y-104142816D01*
X163760000Y-98935199D01*
X163760000Y-94761849D01*
X168800000Y-94761849D01*
X168800000Y-95438151D01*
X169058810Y-96062973D01*
X169537027Y-96541190D01*
X170161849Y-96800000D01*
X170838151Y-96800000D01*
X171462973Y-96541190D01*
X171941190Y-96062973D01*
X172200000Y-95438151D01*
X172200000Y-94761849D01*
X171941190Y-94137027D01*
X171462973Y-93658810D01*
X171200283Y-93550000D01*
X171591309Y-93550000D01*
X171824698Y-93453327D01*
X172003327Y-93274699D01*
X172100000Y-93041310D01*
X172100000Y-92285750D01*
X171941250Y-92127000D01*
X170627000Y-92127000D01*
X170627000Y-92147000D01*
X170373000Y-92147000D01*
X170373000Y-92127000D01*
X169058750Y-92127000D01*
X168900000Y-92285750D01*
X168900000Y-93041310D01*
X168996673Y-93274699D01*
X169175302Y-93453327D01*
X169408691Y-93550000D01*
X169799717Y-93550000D01*
X169537027Y-93658810D01*
X169058810Y-94137027D01*
X168800000Y-94761849D01*
X163760000Y-94761849D01*
X163760000Y-90958690D01*
X168900000Y-90958690D01*
X168900000Y-91714250D01*
X169058750Y-91873000D01*
X170373000Y-91873000D01*
X170373000Y-90608750D01*
X170627000Y-90608750D01*
X170627000Y-91873000D01*
X171941250Y-91873000D01*
X172100000Y-91714250D01*
X172100000Y-90958690D01*
X172003327Y-90725301D01*
X171824698Y-90546673D01*
X171591309Y-90450000D01*
X170785750Y-90450000D01*
X170627000Y-90608750D01*
X170373000Y-90608750D01*
X170214250Y-90450000D01*
X169408691Y-90450000D01*
X169175302Y-90546673D01*
X168996673Y-90725301D01*
X168900000Y-90958690D01*
X163760000Y-90958690D01*
X163760000Y-82449774D01*
X168229831Y-82449774D01*
X168294131Y-82687611D01*
X168802342Y-82867333D01*
X169340644Y-82838892D01*
X169705869Y-82687611D01*
X169770169Y-82449774D01*
X169000000Y-81679605D01*
X168229831Y-82449774D01*
X163760000Y-82449774D01*
X163760000Y-81302342D01*
X167632667Y-81302342D01*
X167661108Y-81840644D01*
X167812389Y-82205869D01*
X168050226Y-82270169D01*
X168820395Y-81500000D01*
X168050226Y-80729831D01*
X167812389Y-80794131D01*
X167632667Y-81302342D01*
X163760000Y-81302342D01*
X163760000Y-80550226D01*
X168229831Y-80550226D01*
X169000000Y-81320395D01*
X169770169Y-80550226D01*
X169705869Y-80312389D01*
X169197658Y-80132667D01*
X168659356Y-80161108D01*
X168294131Y-80312389D01*
X168229831Y-80550226D01*
X163760000Y-80550226D01*
X163760000Y-68761849D01*
X168800000Y-68761849D01*
X168800000Y-69438151D01*
X169058810Y-70062973D01*
X169537027Y-70541190D01*
X170161849Y-70800000D01*
X170838151Y-70800000D01*
X171462973Y-70541190D01*
X171941190Y-70062973D01*
X172200000Y-69438151D01*
X172200000Y-68761849D01*
X179800000Y-68761849D01*
X179800000Y-69438151D01*
X180058810Y-70062973D01*
X180537027Y-70541190D01*
X181161849Y-70800000D01*
X181838151Y-70800000D01*
X182462973Y-70541190D01*
X182941190Y-70062973D01*
X183200000Y-69438151D01*
X183200000Y-68761849D01*
X182941190Y-68137027D01*
X182462973Y-67658810D01*
X182200283Y-67550000D01*
X182591309Y-67550000D01*
X182824698Y-67453327D01*
X183003327Y-67274699D01*
X183100000Y-67041310D01*
X183100000Y-66285750D01*
X182941250Y-66127000D01*
X181627000Y-66127000D01*
X181627000Y-66147000D01*
X181373000Y-66147000D01*
X181373000Y-66127000D01*
X180058750Y-66127000D01*
X179900000Y-66285750D01*
X179900000Y-67041310D01*
X179996673Y-67274699D01*
X180175302Y-67453327D01*
X180408691Y-67550000D01*
X180799717Y-67550000D01*
X180537027Y-67658810D01*
X180058810Y-68137027D01*
X179800000Y-68761849D01*
X172200000Y-68761849D01*
X171941190Y-68137027D01*
X171462973Y-67658810D01*
X171200283Y-67550000D01*
X171591309Y-67550000D01*
X171824698Y-67453327D01*
X172003327Y-67274699D01*
X172100000Y-67041310D01*
X172100000Y-66285750D01*
X171941250Y-66127000D01*
X170627000Y-66127000D01*
X170627000Y-66147000D01*
X170373000Y-66147000D01*
X170373000Y-66127000D01*
X169058750Y-66127000D01*
X168900000Y-66285750D01*
X168900000Y-67041310D01*
X168996673Y-67274699D01*
X169175302Y-67453327D01*
X169408691Y-67550000D01*
X169799717Y-67550000D01*
X169537027Y-67658810D01*
X169058810Y-68137027D01*
X168800000Y-68761849D01*
X163760000Y-68761849D01*
X163760000Y-64958690D01*
X168900000Y-64958690D01*
X168900000Y-65714250D01*
X169058750Y-65873000D01*
X170373000Y-65873000D01*
X170373000Y-64608750D01*
X170627000Y-64608750D01*
X170627000Y-65873000D01*
X171941250Y-65873000D01*
X172100000Y-65714250D01*
X172100000Y-64958690D01*
X179900000Y-64958690D01*
X179900000Y-65714250D01*
X180058750Y-65873000D01*
X181373000Y-65873000D01*
X181373000Y-64608750D01*
X181627000Y-64608750D01*
X181627000Y-65873000D01*
X182941250Y-65873000D01*
X183100000Y-65714250D01*
X183100000Y-64958690D01*
X183003327Y-64725301D01*
X182824698Y-64546673D01*
X182591309Y-64450000D01*
X181785750Y-64450000D01*
X181627000Y-64608750D01*
X181373000Y-64608750D01*
X181214250Y-64450000D01*
X180408691Y-64450000D01*
X180175302Y-64546673D01*
X179996673Y-64725301D01*
X179900000Y-64958690D01*
X172100000Y-64958690D01*
X172003327Y-64725301D01*
X171824698Y-64546673D01*
X171591309Y-64450000D01*
X170785750Y-64450000D01*
X170627000Y-64608750D01*
X170373000Y-64608750D01*
X170214250Y-64450000D01*
X169408691Y-64450000D01*
X169175302Y-64546673D01*
X168996673Y-64725301D01*
X168900000Y-64958690D01*
X163760000Y-64958690D01*
X163760000Y-59716568D01*
X166990154Y-56486414D01*
X167152454Y-56648714D01*
X167650474Y-56855000D01*
X168189526Y-56855000D01*
X168687546Y-56648714D01*
X169068714Y-56267546D01*
X169190000Y-55974735D01*
X169311286Y-56267546D01*
X169692454Y-56648714D01*
X170190474Y-56855000D01*
X170729526Y-56855000D01*
X171227546Y-56648714D01*
X171426486Y-56449774D01*
X172229831Y-56449774D01*
X172294131Y-56687611D01*
X172802342Y-56867333D01*
X173340644Y-56838892D01*
X173705869Y-56687611D01*
X173770169Y-56449774D01*
X173000000Y-55679605D01*
X172229831Y-56449774D01*
X171426486Y-56449774D01*
X171608714Y-56267546D01*
X171723325Y-55990849D01*
X171812389Y-56205869D01*
X172050226Y-56270169D01*
X172820395Y-55500000D01*
X173179605Y-55500000D01*
X173949774Y-56270169D01*
X174187611Y-56205869D01*
X174367333Y-55697658D01*
X174338892Y-55159356D01*
X174187611Y-54794131D01*
X173949774Y-54729831D01*
X173179605Y-55500000D01*
X172820395Y-55500000D01*
X172050226Y-54729831D01*
X171812389Y-54794131D01*
X171730351Y-55026114D01*
X171608714Y-54732454D01*
X171426486Y-54550226D01*
X172229831Y-54550226D01*
X173000000Y-55320395D01*
X173770169Y-54550226D01*
X173705869Y-54312389D01*
X173197658Y-54132667D01*
X172659356Y-54161108D01*
X172294131Y-54312389D01*
X172229831Y-54550226D01*
X171426486Y-54550226D01*
X171425000Y-54548740D01*
X171425000Y-52856919D01*
X171462973Y-52841190D01*
X171941190Y-52362973D01*
X172200000Y-51738151D01*
X172200000Y-51061849D01*
X179800000Y-51061849D01*
X179800000Y-51738151D01*
X180058810Y-52362973D01*
X180537027Y-52841190D01*
X181161849Y-53100000D01*
X181838151Y-53100000D01*
X182462973Y-52841190D01*
X182941190Y-52362973D01*
X183200000Y-51738151D01*
X183200000Y-51061849D01*
X182941190Y-50437027D01*
X182462973Y-49958810D01*
X181838151Y-49700000D01*
X181161849Y-49700000D01*
X180537027Y-49958810D01*
X180058810Y-50437027D01*
X179800000Y-51061849D01*
X172200000Y-51061849D01*
X171941190Y-50437027D01*
X171462973Y-49958810D01*
X170838151Y-49700000D01*
X170161849Y-49700000D01*
X169537027Y-49958810D01*
X169058810Y-50437027D01*
X168800000Y-51061849D01*
X168800000Y-51738151D01*
X169058810Y-52362973D01*
X169537027Y-52841190D01*
X169655001Y-52890056D01*
X169655000Y-54388740D01*
X169311286Y-54732454D01*
X169190000Y-55025265D01*
X169068714Y-54732454D01*
X168687546Y-54351286D01*
X168189526Y-54145000D01*
X167650474Y-54145000D01*
X167152454Y-54351286D01*
X166771286Y-54732454D01*
X166762885Y-54752736D01*
X166653372Y-54774520D01*
X166605229Y-54784096D01*
X166470284Y-54874264D01*
X166353838Y-54952071D01*
X166311438Y-55015527D01*
X162515530Y-58811436D01*
X162452071Y-58853838D01*
X162284096Y-59105231D01*
X162240000Y-59326916D01*
X162240000Y-59326920D01*
X162225112Y-59401767D01*
X162240000Y-59476614D01*
X162240001Y-62425144D01*
X162240000Y-62425149D01*
X162240001Y-99175148D01*
X162225112Y-99250000D01*
X162284097Y-99546537D01*
X162402317Y-99723465D01*
X162452072Y-99797929D01*
X162515528Y-99840329D01*
X169437632Y-106762433D01*
X169324852Y-106740000D01*
X169324847Y-106740000D01*
X169250000Y-106725112D01*
X169181689Y-106738700D01*
X169000000Y-106702560D01*
X167600000Y-106702560D01*
X167352235Y-106751843D01*
X167142191Y-106892191D01*
X167001843Y-107102235D01*
X166974440Y-107240000D01*
X166379804Y-107240000D01*
X160874607Y-101734804D01*
X161111740Y-101379909D01*
X161223113Y-100820000D01*
X161111740Y-100260091D01*
X160794577Y-99785423D01*
X160442242Y-99550000D01*
X160794577Y-99314577D01*
X161111740Y-98839909D01*
X161223113Y-98280000D01*
X161111740Y-97720091D01*
X160794577Y-97245423D01*
X160442242Y-97010000D01*
X160794577Y-96774577D01*
X161111740Y-96299909D01*
X161223113Y-95740000D01*
X161111740Y-95180091D01*
X160794577Y-94705423D01*
X160442242Y-94470000D01*
X160794577Y-94234577D01*
X161111740Y-93759909D01*
X161223113Y-93200000D01*
X161111740Y-92640091D01*
X160794577Y-92165423D01*
X160442242Y-91930000D01*
X160794577Y-91694577D01*
X161111740Y-91219909D01*
X161223113Y-90660000D01*
X161111740Y-90100091D01*
X160794577Y-89625423D01*
X160442242Y-89390000D01*
X160794577Y-89154577D01*
X161111740Y-88679909D01*
X161223113Y-88120000D01*
X161111740Y-87560091D01*
X160794577Y-87085423D01*
X160319909Y-86768260D01*
X159901333Y-86685000D01*
X159618667Y-86685000D01*
X159436114Y-86721312D01*
X157160022Y-84445221D01*
X157160022Y-76386106D01*
X157174910Y-76311259D01*
X157160022Y-76236412D01*
X157160022Y-76236408D01*
X157115926Y-76014723D01*
X156947951Y-75763331D01*
X156884495Y-75720931D01*
X154662092Y-73498529D01*
X154620049Y-73435608D01*
X154734320Y-73321337D01*
X154947000Y-72807881D01*
X154947000Y-72252119D01*
X154734320Y-71738663D01*
X154341337Y-71345680D01*
X154134487Y-71260000D01*
X154341337Y-71174320D01*
X154734320Y-70781337D01*
X154947000Y-70267881D01*
X154947000Y-69712119D01*
X154934020Y-69680781D01*
X155121471Y-69493330D01*
X155184930Y-69450928D01*
X155352905Y-69199536D01*
X155397001Y-68977851D01*
X155397001Y-68977847D01*
X155411889Y-68903000D01*
X155397001Y-68828153D01*
X155397001Y-67003085D01*
X155411889Y-66928238D01*
X155397001Y-66853391D01*
X155397001Y-66853387D01*
X155352905Y-66631702D01*
X155184930Y-66380310D01*
X155121474Y-66337910D01*
X154662092Y-65878529D01*
X154634143Y-65836701D01*
X154645226Y-65825618D01*
X154530215Y-65710607D01*
X154772397Y-65641143D01*
X154959144Y-65117698D01*
X154931362Y-64562632D01*
X154772397Y-64178857D01*
X154530213Y-64109392D01*
X153729605Y-64910000D01*
X153743748Y-64924143D01*
X153564143Y-65103748D01*
X153550000Y-65089605D01*
X153535858Y-65103748D01*
X153356253Y-64924143D01*
X153370395Y-64910000D01*
X152569787Y-64109392D01*
X152327603Y-64178857D01*
X152283547Y-64302344D01*
X152232397Y-64178857D01*
X151990213Y-64109392D01*
X151189605Y-64910000D01*
X151203748Y-64924143D01*
X151024143Y-65103748D01*
X151010000Y-65089605D01*
X150995858Y-65103748D01*
X150816253Y-64924143D01*
X150830395Y-64910000D01*
X150029787Y-64109392D01*
X149787603Y-64178857D01*
X149600856Y-64702302D01*
X149628638Y-65257368D01*
X149771803Y-65602999D01*
X123171847Y-65602999D01*
X123097000Y-65588111D01*
X123022153Y-65602999D01*
X123022149Y-65602999D01*
X122800464Y-65647095D01*
X122549072Y-65815070D01*
X122506672Y-65878526D01*
X112962595Y-75422604D01*
X112963113Y-75420000D01*
X112851740Y-74860091D01*
X112534577Y-74385423D01*
X112182242Y-74150000D01*
X112534577Y-73914577D01*
X112851740Y-73439909D01*
X112963113Y-72880000D01*
X112851740Y-72320091D01*
X112534577Y-71845423D01*
X112413894Y-71764785D01*
X112547765Y-71738157D01*
X112757809Y-71597809D01*
X112898157Y-71387765D01*
X112947440Y-71140000D01*
X112947440Y-69540000D01*
X112898157Y-69292235D01*
X112757809Y-69082191D01*
X112547765Y-68941843D01*
X112300000Y-68892560D01*
X110700000Y-68892560D01*
X110452235Y-68941843D01*
X110242191Y-69082191D01*
X110101843Y-69292235D01*
X110052560Y-69540000D01*
X110052560Y-71140000D01*
X110101843Y-71387765D01*
X110242191Y-71597809D01*
X110452235Y-71738157D01*
X110586106Y-71764785D01*
X110465423Y-71845423D01*
X110148260Y-72320091D01*
X110036887Y-72880000D01*
X110148260Y-73439909D01*
X110465423Y-73914577D01*
X110817758Y-74150000D01*
X110465423Y-74385423D01*
X110148260Y-74860091D01*
X110036887Y-75420000D01*
X110148260Y-75979909D01*
X110465423Y-76454577D01*
X110817758Y-76690000D01*
X110465423Y-76925423D01*
X110148260Y-77400091D01*
X110036887Y-77960000D01*
X110148260Y-78519909D01*
X110465423Y-78994577D01*
X110817758Y-79230000D01*
X110465423Y-79465423D01*
X110148260Y-79940091D01*
X110036887Y-80500000D01*
X110148260Y-81059909D01*
X110465423Y-81534577D01*
X110817758Y-81770000D01*
X110465423Y-82005423D01*
X110148260Y-82480091D01*
X110036887Y-83040000D01*
X110148260Y-83599909D01*
X110465423Y-84074577D01*
X110849108Y-84330947D01*
X110644866Y-84427611D01*
X110268959Y-84842577D01*
X110108096Y-85230961D01*
X110230085Y-85453000D01*
X111373000Y-85453000D01*
X111373000Y-85433000D01*
X111627000Y-85433000D01*
X111627000Y-85453000D01*
X111647000Y-85453000D01*
X111647000Y-85707000D01*
X111627000Y-85707000D01*
X111627000Y-85727000D01*
X111373000Y-85727000D01*
X111373000Y-85707000D01*
X110230085Y-85707000D01*
X110108096Y-85929039D01*
X110268959Y-86317423D01*
X110644866Y-86732389D01*
X110849108Y-86829053D01*
X110465423Y-87085423D01*
X110148260Y-87560091D01*
X110036887Y-88120000D01*
X110148260Y-88679909D01*
X110465423Y-89154577D01*
X110940091Y-89471740D01*
X111358667Y-89555000D01*
X111641333Y-89555000D01*
X111990009Y-89485644D01*
X111990009Y-91635190D01*
X111823887Y-91801312D01*
X111641333Y-91765000D01*
X111358667Y-91765000D01*
X110940091Y-91848260D01*
X110465423Y-92165423D01*
X110148260Y-92640091D01*
X110036887Y-93200000D01*
X110148260Y-93759909D01*
X110465423Y-94234577D01*
X110817758Y-94470000D01*
X110465423Y-94705423D01*
X110148260Y-95180091D01*
X110036887Y-95740000D01*
X110148260Y-96299909D01*
X110465423Y-96774577D01*
X110817758Y-97010000D01*
X110465423Y-97245423D01*
X110148260Y-97720091D01*
X110036887Y-98280000D01*
X110148260Y-98839909D01*
X110465423Y-99314577D01*
X110817758Y-99550000D01*
X110465423Y-99785423D01*
X110148260Y-100260091D01*
X110036887Y-100820000D01*
X110148260Y-101379909D01*
X110465423Y-101854577D01*
X110817758Y-102090000D01*
X110465423Y-102325423D01*
X110148260Y-102800091D01*
X110036887Y-103360000D01*
X110147283Y-103914999D01*
X94649847Y-103914999D01*
X94575000Y-103900111D01*
X94500153Y-103914999D01*
X94500149Y-103914999D01*
X94278464Y-103959095D01*
X94027072Y-104127070D01*
X93997030Y-104172031D01*
X93952072Y-104202071D01*
X93909672Y-104265527D01*
X93909671Y-104265528D01*
X93851518Y-104352560D01*
X93500000Y-104352560D01*
X93252235Y-104401843D01*
X93042191Y-104542191D01*
X92901843Y-104752235D01*
X92852560Y-105000000D01*
X89210000Y-105000000D01*
X89210000Y-99053208D01*
X89505259Y-99766026D01*
X90133974Y-100394741D01*
X90955431Y-100735000D01*
X91844569Y-100735000D01*
X92666026Y-100394741D01*
X93294741Y-99766026D01*
X93635000Y-98944569D01*
X93635000Y-98055431D01*
X100365000Y-98055431D01*
X100365000Y-98944569D01*
X100705259Y-99766026D01*
X101333974Y-100394741D01*
X102155431Y-100735000D01*
X103044569Y-100735000D01*
X103866026Y-100394741D01*
X104494741Y-99766026D01*
X104835000Y-98944569D01*
X104835000Y-98055431D01*
X104494741Y-97233974D01*
X103866026Y-96605259D01*
X103044569Y-96265000D01*
X102155431Y-96265000D01*
X101333974Y-96605259D01*
X100705259Y-97233974D01*
X100365000Y-98055431D01*
X93635000Y-98055431D01*
X93294741Y-97233974D01*
X92666026Y-96605259D01*
X91844569Y-96265000D01*
X90955431Y-96265000D01*
X90133974Y-96605259D01*
X89505259Y-97233974D01*
X89210000Y-97946792D01*
X89210000Y-91174778D01*
X92865000Y-91174778D01*
X92865000Y-91825222D01*
X93113914Y-92426153D01*
X93573847Y-92886086D01*
X94174778Y-93135000D01*
X94825222Y-93135000D01*
X95426153Y-92886086D01*
X95659707Y-92652532D01*
X98527073Y-92652532D01*
X98625736Y-92919387D01*
X99235461Y-93145908D01*
X99885460Y-93121856D01*
X100374264Y-92919387D01*
X100472927Y-92652532D01*
X99500000Y-91679605D01*
X98527073Y-92652532D01*
X95659707Y-92652532D01*
X95886086Y-92426153D01*
X96135000Y-91825222D01*
X96135000Y-91235461D01*
X97854092Y-91235461D01*
X97878144Y-91885460D01*
X98080613Y-92374264D01*
X98347468Y-92472927D01*
X99320395Y-91500000D01*
X99679605Y-91500000D01*
X100652532Y-92472927D01*
X100919387Y-92374264D01*
X101145908Y-91764539D01*
X101121856Y-91114540D01*
X100919387Y-90625736D01*
X100652532Y-90527073D01*
X99679605Y-91500000D01*
X99320395Y-91500000D01*
X98347468Y-90527073D01*
X98080613Y-90625736D01*
X97854092Y-91235461D01*
X96135000Y-91235461D01*
X96135000Y-91174778D01*
X95886086Y-90573847D01*
X95659707Y-90347468D01*
X98527073Y-90347468D01*
X99500000Y-91320395D01*
X100472927Y-90347468D01*
X100374264Y-90080613D01*
X99764539Y-89854092D01*
X99114540Y-89878144D01*
X98625736Y-90080613D01*
X98527073Y-90347468D01*
X95659707Y-90347468D01*
X95426153Y-90113914D01*
X94825222Y-89865000D01*
X94174778Y-89865000D01*
X93573847Y-90113914D01*
X93113914Y-90573847D01*
X92865000Y-91174778D01*
X89210000Y-91174778D01*
X89210000Y-79000000D01*
X92852560Y-79000000D01*
X92852560Y-81000000D01*
X92901843Y-81247765D01*
X93042191Y-81457809D01*
X93252235Y-81598157D01*
X93500000Y-81647440D01*
X95500000Y-81647440D01*
X95747765Y-81598157D01*
X95957809Y-81457809D01*
X96075062Y-81282329D01*
X96125736Y-81419387D01*
X96735461Y-81645908D01*
X97385460Y-81621856D01*
X97874264Y-81419387D01*
X97972927Y-81152532D01*
X97000000Y-80179605D01*
X96985858Y-80193748D01*
X96806253Y-80014143D01*
X96820395Y-80000000D01*
X97179605Y-80000000D01*
X98152532Y-80972927D01*
X98158486Y-80970725D01*
X98573847Y-81386086D01*
X99174778Y-81635000D01*
X99825222Y-81635000D01*
X100426153Y-81386086D01*
X100886086Y-80926153D01*
X101135000Y-80325222D01*
X101135000Y-79674778D01*
X100886086Y-79073847D01*
X100426153Y-78613914D01*
X99825222Y-78365000D01*
X99174778Y-78365000D01*
X98573847Y-78613914D01*
X98158486Y-79029275D01*
X98152532Y-79027073D01*
X97179605Y-80000000D01*
X96820395Y-80000000D01*
X96806253Y-79985858D01*
X96985858Y-79806253D01*
X97000000Y-79820395D01*
X97972927Y-78847468D01*
X97874264Y-78580613D01*
X97264539Y-78354092D01*
X96614540Y-78378144D01*
X96125736Y-78580613D01*
X96075062Y-78717671D01*
X95957809Y-78542191D01*
X95747765Y-78401843D01*
X95500000Y-78352560D01*
X93500000Y-78352560D01*
X93252235Y-78401843D01*
X93042191Y-78542191D01*
X92901843Y-78752235D01*
X92852560Y-79000000D01*
X89210000Y-79000000D01*
X89210000Y-73053208D01*
X89505259Y-73766026D01*
X90133974Y-74394741D01*
X90955431Y-74735000D01*
X91844569Y-74735000D01*
X92666026Y-74394741D01*
X93294741Y-73766026D01*
X93635000Y-72944569D01*
X93635000Y-72055431D01*
X100365000Y-72055431D01*
X100365000Y-72944569D01*
X100705259Y-73766026D01*
X101333974Y-74394741D01*
X102155431Y-74735000D01*
X103044569Y-74735000D01*
X103866026Y-74394741D01*
X104494741Y-73766026D01*
X104835000Y-72944569D01*
X104835000Y-72055431D01*
X104494741Y-71233974D01*
X103866026Y-70605259D01*
X103044569Y-70265000D01*
X102155431Y-70265000D01*
X101333974Y-70605259D01*
X100705259Y-71233974D01*
X100365000Y-72055431D01*
X93635000Y-72055431D01*
X93294741Y-71233974D01*
X92666026Y-70605259D01*
X91844569Y-70265000D01*
X90955431Y-70265000D01*
X90133974Y-70605259D01*
X89505259Y-71233974D01*
X89210000Y-71946792D01*
X89210000Y-65174778D01*
X92865000Y-65174778D01*
X92865000Y-65825222D01*
X93113914Y-66426153D01*
X93573847Y-66886086D01*
X94174778Y-67135000D01*
X94825222Y-67135000D01*
X95426153Y-66886086D01*
X95659707Y-66652532D01*
X98527073Y-66652532D01*
X98625736Y-66919387D01*
X99235461Y-67145908D01*
X99885460Y-67121856D01*
X100374264Y-66919387D01*
X100472927Y-66652532D01*
X99500000Y-65679605D01*
X98527073Y-66652532D01*
X95659707Y-66652532D01*
X95886086Y-66426153D01*
X96135000Y-65825222D01*
X96135000Y-65235461D01*
X97854092Y-65235461D01*
X97878144Y-65885460D01*
X98080613Y-66374264D01*
X98347468Y-66472927D01*
X99320395Y-65500000D01*
X99679605Y-65500000D01*
X100652532Y-66472927D01*
X100919387Y-66374264D01*
X101145908Y-65764539D01*
X101121856Y-65114540D01*
X100919387Y-64625736D01*
X100652532Y-64527073D01*
X99679605Y-65500000D01*
X99320395Y-65500000D01*
X98347468Y-64527073D01*
X98080613Y-64625736D01*
X97854092Y-65235461D01*
X96135000Y-65235461D01*
X96135000Y-65174778D01*
X95886086Y-64573847D01*
X95659707Y-64347468D01*
X98527073Y-64347468D01*
X99500000Y-65320395D01*
X100472927Y-64347468D01*
X100374264Y-64080613D01*
X99764539Y-63854092D01*
X99114540Y-63878144D01*
X98625736Y-64080613D01*
X98527073Y-64347468D01*
X95659707Y-64347468D01*
X95426153Y-64113914D01*
X94825222Y-63865000D01*
X94174778Y-63865000D01*
X93573847Y-64113914D01*
X93113914Y-64573847D01*
X92865000Y-65174778D01*
X89210000Y-65174778D01*
X89210000Y-53000000D01*
X92852560Y-53000000D01*
X92852560Y-55000000D01*
X92901843Y-55247765D01*
X93042191Y-55457809D01*
X93252235Y-55598157D01*
X93500000Y-55647440D01*
X95500000Y-55647440D01*
X95747765Y-55598157D01*
X95957809Y-55457809D01*
X96075062Y-55282329D01*
X96125736Y-55419387D01*
X96735461Y-55645908D01*
X97385460Y-55621856D01*
X97874264Y-55419387D01*
X97972927Y-55152532D01*
X97000000Y-54179605D01*
X96985858Y-54193748D01*
X96806253Y-54014143D01*
X96820395Y-54000000D01*
X97179605Y-54000000D01*
X98152532Y-54972927D01*
X98158486Y-54970725D01*
X98573847Y-55386086D01*
X99174778Y-55635000D01*
X99825222Y-55635000D01*
X100426153Y-55386086D01*
X100886086Y-54926153D01*
X101135000Y-54325222D01*
X101135000Y-54160000D01*
X108432041Y-54160000D01*
X108548350Y-54744725D01*
X108879570Y-55240430D01*
X109163281Y-55430000D01*
X108879570Y-55619570D01*
X108548350Y-56115275D01*
X108432041Y-56700000D01*
X108548350Y-57284725D01*
X108879570Y-57780430D01*
X109163281Y-57970000D01*
X108879570Y-58159570D01*
X108548350Y-58655275D01*
X108432041Y-59240000D01*
X108548350Y-59824725D01*
X108879570Y-60320430D01*
X109163281Y-60510000D01*
X108879570Y-60699570D01*
X108548350Y-61195275D01*
X108432041Y-61780000D01*
X108548350Y-62364725D01*
X108879570Y-62860430D01*
X109375275Y-63191650D01*
X109812402Y-63278600D01*
X110107598Y-63278600D01*
X110544725Y-63191650D01*
X111040430Y-62860430D01*
X111230000Y-62576719D01*
X111419570Y-62860430D01*
X111915275Y-63191650D01*
X112352402Y-63278600D01*
X112647598Y-63278600D01*
X113084725Y-63191650D01*
X113580430Y-62860430D01*
X113911650Y-62364725D01*
X113965874Y-62092119D01*
X149613000Y-62092119D01*
X149613000Y-62647881D01*
X149825680Y-63161337D01*
X150218663Y-63554320D01*
X150409647Y-63633428D01*
X150278857Y-63687603D01*
X150209392Y-63929787D01*
X151010000Y-64730395D01*
X151810608Y-63929787D01*
X151741143Y-63687603D01*
X151600607Y-63637465D01*
X151801337Y-63554320D01*
X152194320Y-63161337D01*
X152280000Y-62954487D01*
X152365680Y-63161337D01*
X152758663Y-63554320D01*
X152949647Y-63633428D01*
X152818857Y-63687603D01*
X152749392Y-63929787D01*
X153550000Y-64730395D01*
X154350608Y-63929787D01*
X154281143Y-63687603D01*
X154140607Y-63637465D01*
X154341337Y-63554320D01*
X154734320Y-63161337D01*
X154947000Y-62647881D01*
X154947000Y-62092119D01*
X154734320Y-61578663D01*
X154355657Y-61200000D01*
X158296887Y-61200000D01*
X158408260Y-61759909D01*
X158725423Y-62234577D01*
X159077758Y-62470000D01*
X158725423Y-62705423D01*
X158408260Y-63180091D01*
X158296887Y-63740000D01*
X158408260Y-64299909D01*
X158725423Y-64774577D01*
X159077758Y-65010000D01*
X158725423Y-65245423D01*
X158408260Y-65720091D01*
X158296887Y-66280000D01*
X158408260Y-66839909D01*
X158725423Y-67314577D01*
X159077758Y-67550000D01*
X158725423Y-67785423D01*
X158408260Y-68260091D01*
X158296887Y-68820000D01*
X158408260Y-69379909D01*
X158725423Y-69854577D01*
X159077758Y-70090000D01*
X158725423Y-70325423D01*
X158408260Y-70800091D01*
X158296887Y-71360000D01*
X158408260Y-71919909D01*
X158725423Y-72394577D01*
X159077758Y-72630000D01*
X158725423Y-72865423D01*
X158408260Y-73340091D01*
X158296887Y-73900000D01*
X158408260Y-74459909D01*
X158725423Y-74934577D01*
X159077758Y-75170000D01*
X158725423Y-75405423D01*
X158408260Y-75880091D01*
X158296887Y-76440000D01*
X158408260Y-76999909D01*
X158725423Y-77474577D01*
X159077758Y-77710000D01*
X158725423Y-77945423D01*
X158408260Y-78420091D01*
X158296887Y-78980000D01*
X158408260Y-79539909D01*
X158725423Y-80014577D01*
X159077758Y-80250000D01*
X158725423Y-80485423D01*
X158408260Y-80960091D01*
X158296887Y-81520000D01*
X158408260Y-82079909D01*
X158725423Y-82554577D01*
X159077758Y-82790000D01*
X158725423Y-83025423D01*
X158408260Y-83500091D01*
X158296887Y-84060000D01*
X158408260Y-84619909D01*
X158725423Y-85094577D01*
X159200091Y-85411740D01*
X159618667Y-85495000D01*
X159901333Y-85495000D01*
X160319909Y-85411740D01*
X160794577Y-85094577D01*
X161111740Y-84619909D01*
X161223113Y-84060000D01*
X161111740Y-83500091D01*
X160794577Y-83025423D01*
X160442242Y-82790000D01*
X160794577Y-82554577D01*
X161111740Y-82079909D01*
X161223113Y-81520000D01*
X161111740Y-80960091D01*
X160794577Y-80485423D01*
X160442242Y-80250000D01*
X160794577Y-80014577D01*
X161111740Y-79539909D01*
X161223113Y-78980000D01*
X161111740Y-78420091D01*
X160794577Y-77945423D01*
X160442242Y-77710000D01*
X160794577Y-77474577D01*
X161111740Y-76999909D01*
X161223113Y-76440000D01*
X161111740Y-75880091D01*
X160794577Y-75405423D01*
X160442242Y-75170000D01*
X160794577Y-74934577D01*
X161111740Y-74459909D01*
X161223113Y-73900000D01*
X161111740Y-73340091D01*
X160794577Y-72865423D01*
X160442242Y-72630000D01*
X160794577Y-72394577D01*
X161111740Y-71919909D01*
X161223113Y-71360000D01*
X161111740Y-70800091D01*
X160794577Y-70325423D01*
X160442242Y-70090000D01*
X160794577Y-69854577D01*
X161111740Y-69379909D01*
X161223113Y-68820000D01*
X161111740Y-68260091D01*
X160794577Y-67785423D01*
X160442242Y-67550000D01*
X160794577Y-67314577D01*
X161111740Y-66839909D01*
X161223113Y-66280000D01*
X161111740Y-65720091D01*
X160794577Y-65245423D01*
X160442242Y-65010000D01*
X160794577Y-64774577D01*
X161111740Y-64299909D01*
X161223113Y-63740000D01*
X161111740Y-63180091D01*
X160794577Y-62705423D01*
X160442242Y-62470000D01*
X160794577Y-62234577D01*
X161111740Y-61759909D01*
X161223113Y-61200000D01*
X161111740Y-60640091D01*
X160794577Y-60165423D01*
X160319909Y-59848260D01*
X159901333Y-59765000D01*
X159618667Y-59765000D01*
X159200091Y-59848260D01*
X158725423Y-60165423D01*
X158408260Y-60640091D01*
X158296887Y-61200000D01*
X154355657Y-61200000D01*
X154341337Y-61185680D01*
X153827881Y-60973000D01*
X153272119Y-60973000D01*
X152758663Y-61185680D01*
X152365680Y-61578663D01*
X152280000Y-61785513D01*
X152194320Y-61578663D01*
X151801337Y-61185680D01*
X151287881Y-60973000D01*
X150732119Y-60973000D01*
X150218663Y-61185680D01*
X149825680Y-61578663D01*
X149613000Y-62092119D01*
X113965874Y-62092119D01*
X114027959Y-61780000D01*
X113911650Y-61195275D01*
X113580430Y-60699570D01*
X113296719Y-60510000D01*
X113580430Y-60320430D01*
X113911650Y-59824725D01*
X114027959Y-59240000D01*
X113911650Y-58655275D01*
X113580430Y-58159570D01*
X113296719Y-57970000D01*
X113580430Y-57780430D01*
X113911650Y-57284725D01*
X114027959Y-56700000D01*
X113911650Y-56115275D01*
X113580430Y-55619570D01*
X113296719Y-55430000D01*
X113580430Y-55240430D01*
X113911650Y-54744725D01*
X114027959Y-54160000D01*
X113911650Y-53575275D01*
X113580430Y-53079570D01*
X113278979Y-52878146D01*
X113388490Y-52826821D01*
X113782688Y-52394947D01*
X113954958Y-51979026D01*
X113833817Y-51747000D01*
X112627000Y-51747000D01*
X112627000Y-51767000D01*
X112373000Y-51767000D01*
X112373000Y-51747000D01*
X110087000Y-51747000D01*
X110087000Y-51767000D01*
X109833000Y-51767000D01*
X109833000Y-51747000D01*
X108626183Y-51747000D01*
X108505042Y-51979026D01*
X108677312Y-52394947D01*
X109071510Y-52826821D01*
X109181021Y-52878146D01*
X108879570Y-53079570D01*
X108548350Y-53575275D01*
X108432041Y-54160000D01*
X101135000Y-54160000D01*
X101135000Y-53674778D01*
X100886086Y-53073847D01*
X100426153Y-52613914D01*
X99825222Y-52365000D01*
X99174778Y-52365000D01*
X98573847Y-52613914D01*
X98158486Y-53029275D01*
X98152532Y-53027073D01*
X97179605Y-54000000D01*
X96820395Y-54000000D01*
X96806253Y-53985858D01*
X96985858Y-53806253D01*
X97000000Y-53820395D01*
X97972927Y-52847468D01*
X97874264Y-52580613D01*
X97264539Y-52354092D01*
X96614540Y-52378144D01*
X96125736Y-52580613D01*
X96075062Y-52717671D01*
X95957809Y-52542191D01*
X95747765Y-52401843D01*
X95500000Y-52352560D01*
X93500000Y-52352560D01*
X93252235Y-52401843D01*
X93042191Y-52542191D01*
X92901843Y-52752235D01*
X92852560Y-53000000D01*
X89210000Y-53000000D01*
X89210000Y-49439026D01*
X108505042Y-49439026D01*
X108677312Y-49854947D01*
X109071510Y-50286821D01*
X109206313Y-50350000D01*
X109071510Y-50413179D01*
X108677312Y-50845053D01*
X108505042Y-51260974D01*
X108626183Y-51493000D01*
X109833000Y-51493000D01*
X109833000Y-49207000D01*
X110087000Y-49207000D01*
X110087000Y-51493000D01*
X112373000Y-51493000D01*
X112373000Y-49207000D01*
X112627000Y-49207000D01*
X112627000Y-51493000D01*
X113833817Y-51493000D01*
X113954958Y-51260974D01*
X113782688Y-50845053D01*
X113388490Y-50413179D01*
X113253687Y-50350000D01*
X113388490Y-50286821D01*
X113782688Y-49854947D01*
X113954958Y-49439026D01*
X113833817Y-49207000D01*
X112627000Y-49207000D01*
X112373000Y-49207000D01*
X110087000Y-49207000D01*
X109833000Y-49207000D01*
X108626183Y-49207000D01*
X108505042Y-49439026D01*
X89210000Y-49439026D01*
X89210000Y-47053208D01*
X89505259Y-47766026D01*
X90133974Y-48394741D01*
X90955431Y-48735000D01*
X91844569Y-48735000D01*
X92666026Y-48394741D01*
X93294741Y-47766026D01*
X93635000Y-46944569D01*
X93635000Y-46055431D01*
X100365000Y-46055431D01*
X100365000Y-46944569D01*
X100705259Y-47766026D01*
X101333974Y-48394741D01*
X102155431Y-48735000D01*
X103044569Y-48735000D01*
X103866026Y-48394741D01*
X104494741Y-47766026D01*
X104835000Y-46944569D01*
X104835000Y-46899026D01*
X108505042Y-46899026D01*
X108677312Y-47314947D01*
X109071510Y-47746821D01*
X109206313Y-47810000D01*
X109071510Y-47873179D01*
X108677312Y-48305053D01*
X108505042Y-48720974D01*
X108626183Y-48953000D01*
X109833000Y-48953000D01*
X109833000Y-46667000D01*
X110087000Y-46667000D01*
X110087000Y-48953000D01*
X112373000Y-48953000D01*
X112373000Y-46667000D01*
X112627000Y-46667000D01*
X112627000Y-48953000D01*
X113833817Y-48953000D01*
X113954958Y-48720974D01*
X113782688Y-48305053D01*
X113388490Y-47873179D01*
X113253687Y-47810000D01*
X113388490Y-47746821D01*
X113782688Y-47314947D01*
X113954958Y-46899026D01*
X113833817Y-46667000D01*
X112627000Y-46667000D01*
X112373000Y-46667000D01*
X110087000Y-46667000D01*
X109833000Y-46667000D01*
X108626183Y-46667000D01*
X108505042Y-46899026D01*
X104835000Y-46899026D01*
X104835000Y-46055431D01*
X104494741Y-45233974D01*
X103866026Y-44605259D01*
X103044569Y-44265000D01*
X102155431Y-44265000D01*
X101333974Y-44605259D01*
X100705259Y-45233974D01*
X100365000Y-46055431D01*
X93635000Y-46055431D01*
X93294741Y-45233974D01*
X92666026Y-44605259D01*
X91844569Y-44265000D01*
X90955431Y-44265000D01*
X90133974Y-44605259D01*
X89505259Y-45233974D01*
X89210000Y-45946792D01*
X89210000Y-44000000D01*
X108432041Y-44000000D01*
X108548350Y-44584725D01*
X108879570Y-45080430D01*
X109181021Y-45281854D01*
X109071510Y-45333179D01*
X108677312Y-45765053D01*
X108505042Y-46180974D01*
X108626183Y-46413000D01*
X109833000Y-46413000D01*
X109833000Y-46393000D01*
X110087000Y-46393000D01*
X110087000Y-46413000D01*
X112373000Y-46413000D01*
X112373000Y-46393000D01*
X112627000Y-46393000D01*
X112627000Y-46413000D01*
X113833817Y-46413000D01*
X113954958Y-46180974D01*
X113782688Y-45765053D01*
X113522064Y-45479520D01*
X113611365Y-45461757D01*
X113821409Y-45321409D01*
X113961757Y-45111365D01*
X114011040Y-44863600D01*
X114011040Y-43136400D01*
X113961757Y-42888635D01*
X113877041Y-42761849D01*
X168800000Y-42761849D01*
X168800000Y-43438151D01*
X169058810Y-44062973D01*
X169537027Y-44541190D01*
X170161849Y-44800000D01*
X170838151Y-44800000D01*
X171462973Y-44541190D01*
X171941190Y-44062973D01*
X172200000Y-43438151D01*
X172200000Y-42761849D01*
X179800000Y-42761849D01*
X179800000Y-43438151D01*
X180058810Y-44062973D01*
X180537027Y-44541190D01*
X181161849Y-44800000D01*
X181838151Y-44800000D01*
X182462973Y-44541190D01*
X182941190Y-44062973D01*
X183200000Y-43438151D01*
X183200000Y-42761849D01*
X182941190Y-42137027D01*
X182462973Y-41658810D01*
X182200283Y-41550000D01*
X182591309Y-41550000D01*
X182824698Y-41453327D01*
X183003327Y-41274699D01*
X183100000Y-41041310D01*
X183100000Y-40285750D01*
X182941250Y-40127000D01*
X181627000Y-40127000D01*
X181627000Y-40147000D01*
X181373000Y-40147000D01*
X181373000Y-40127000D01*
X180058750Y-40127000D01*
X179900000Y-40285750D01*
X179900000Y-41041310D01*
X179996673Y-41274699D01*
X180175302Y-41453327D01*
X180408691Y-41550000D01*
X180799717Y-41550000D01*
X180537027Y-41658810D01*
X180058810Y-42137027D01*
X179800000Y-42761849D01*
X172200000Y-42761849D01*
X171941190Y-42137027D01*
X171462973Y-41658810D01*
X171200283Y-41550000D01*
X171591309Y-41550000D01*
X171824698Y-41453327D01*
X172003327Y-41274699D01*
X172100000Y-41041310D01*
X172100000Y-40285750D01*
X171941250Y-40127000D01*
X170627000Y-40127000D01*
X170627000Y-40147000D01*
X170373000Y-40147000D01*
X170373000Y-40127000D01*
X169058750Y-40127000D01*
X168900000Y-40285750D01*
X168900000Y-41041310D01*
X168996673Y-41274699D01*
X169175302Y-41453327D01*
X169408691Y-41550000D01*
X169799717Y-41550000D01*
X169537027Y-41658810D01*
X169058810Y-42137027D01*
X168800000Y-42761849D01*
X113877041Y-42761849D01*
X113821409Y-42678591D01*
X113611365Y-42538243D01*
X113363600Y-42488960D01*
X111636400Y-42488960D01*
X111388635Y-42538243D01*
X111178591Y-42678591D01*
X111038243Y-42888635D01*
X111033068Y-42914651D01*
X110544725Y-42588350D01*
X110107598Y-42501400D01*
X109812402Y-42501400D01*
X109375275Y-42588350D01*
X108879570Y-42919570D01*
X108548350Y-43415275D01*
X108432041Y-44000000D01*
X89210000Y-44000000D01*
X89210000Y-39174778D01*
X92865000Y-39174778D01*
X92865000Y-39825222D01*
X93113914Y-40426153D01*
X93573847Y-40886086D01*
X94174778Y-41135000D01*
X94825222Y-41135000D01*
X95426153Y-40886086D01*
X95659707Y-40652532D01*
X98527073Y-40652532D01*
X98625736Y-40919387D01*
X99235461Y-41145908D01*
X99885460Y-41121856D01*
X100374264Y-40919387D01*
X100472927Y-40652532D01*
X99500000Y-39679605D01*
X98527073Y-40652532D01*
X95659707Y-40652532D01*
X95886086Y-40426153D01*
X96135000Y-39825222D01*
X96135000Y-39235461D01*
X97854092Y-39235461D01*
X97878144Y-39885460D01*
X98080613Y-40374264D01*
X98347468Y-40472927D01*
X99320395Y-39500000D01*
X99679605Y-39500000D01*
X100652532Y-40472927D01*
X100919387Y-40374264D01*
X100984128Y-40200000D01*
X117552560Y-40200000D01*
X117552560Y-41800000D01*
X117601843Y-42047765D01*
X117742191Y-42257809D01*
X117952235Y-42398157D01*
X118200000Y-42447440D01*
X119800000Y-42447440D01*
X120047765Y-42398157D01*
X120257809Y-42257809D01*
X120398157Y-42047765D01*
X120406117Y-42007745D01*
X120671861Y-42007745D01*
X120745995Y-42253864D01*
X121283223Y-42446965D01*
X121853454Y-42419778D01*
X122254005Y-42253864D01*
X122328139Y-42007745D01*
X121500000Y-41179605D01*
X120671861Y-42007745D01*
X120406117Y-42007745D01*
X120444693Y-41813813D01*
X120492255Y-41828139D01*
X121320395Y-41000000D01*
X121679605Y-41000000D01*
X122507745Y-41828139D01*
X122753864Y-41754005D01*
X122946965Y-41216777D01*
X122919778Y-40646546D01*
X122753864Y-40245995D01*
X122507745Y-40171861D01*
X121679605Y-41000000D01*
X121320395Y-41000000D01*
X120492255Y-40171861D01*
X120444693Y-40186187D01*
X120406118Y-39992255D01*
X120671861Y-39992255D01*
X121500000Y-40820395D01*
X122328139Y-39992255D01*
X122254005Y-39746136D01*
X121716777Y-39553035D01*
X121146546Y-39580222D01*
X120745995Y-39746136D01*
X120671861Y-39992255D01*
X120406118Y-39992255D01*
X120398157Y-39952235D01*
X120257809Y-39742191D01*
X120047765Y-39601843D01*
X119800000Y-39552560D01*
X118200000Y-39552560D01*
X117952235Y-39601843D01*
X117742191Y-39742191D01*
X117601843Y-39952235D01*
X117552560Y-40200000D01*
X100984128Y-40200000D01*
X101145908Y-39764539D01*
X101121856Y-39114540D01*
X101057301Y-38958690D01*
X168900000Y-38958690D01*
X168900000Y-39714250D01*
X169058750Y-39873000D01*
X170373000Y-39873000D01*
X170373000Y-38608750D01*
X170627000Y-38608750D01*
X170627000Y-39873000D01*
X171941250Y-39873000D01*
X172100000Y-39714250D01*
X172100000Y-38958690D01*
X179900000Y-38958690D01*
X179900000Y-39714250D01*
X180058750Y-39873000D01*
X181373000Y-39873000D01*
X181373000Y-38608750D01*
X181627000Y-38608750D01*
X181627000Y-39873000D01*
X182941250Y-39873000D01*
X183100000Y-39714250D01*
X183100000Y-38958690D01*
X183003327Y-38725301D01*
X182824698Y-38546673D01*
X182591309Y-38450000D01*
X181785750Y-38450000D01*
X181627000Y-38608750D01*
X181373000Y-38608750D01*
X181214250Y-38450000D01*
X180408691Y-38450000D01*
X180175302Y-38546673D01*
X179996673Y-38725301D01*
X179900000Y-38958690D01*
X172100000Y-38958690D01*
X172003327Y-38725301D01*
X171824698Y-38546673D01*
X171591309Y-38450000D01*
X170785750Y-38450000D01*
X170627000Y-38608750D01*
X170373000Y-38608750D01*
X170214250Y-38450000D01*
X169408691Y-38450000D01*
X169175302Y-38546673D01*
X168996673Y-38725301D01*
X168900000Y-38958690D01*
X101057301Y-38958690D01*
X100919387Y-38625736D01*
X100652532Y-38527073D01*
X99679605Y-39500000D01*
X99320395Y-39500000D01*
X98347468Y-38527073D01*
X98080613Y-38625736D01*
X97854092Y-39235461D01*
X96135000Y-39235461D01*
X96135000Y-39174778D01*
X95886086Y-38573847D01*
X95659707Y-38347468D01*
X98527073Y-38347468D01*
X99500000Y-39320395D01*
X100472927Y-38347468D01*
X100374264Y-38080613D01*
X99764539Y-37854092D01*
X99114540Y-37878144D01*
X98625736Y-38080613D01*
X98527073Y-38347468D01*
X95659707Y-38347468D01*
X95426153Y-38113914D01*
X94825222Y-37865000D01*
X94174778Y-37865000D01*
X93573847Y-38113914D01*
X93113914Y-38573847D01*
X92865000Y-39174778D01*
X89210000Y-39174778D01*
X89210000Y-37710000D01*
X185790000Y-37710000D01*
X185790001Y-135790000D01*
G04 #@! TD*
M02*
