M48
; DRILL file {KiCad 5.1.2} date Mo 17 Jun 2019 23:14:25 CEST
; FORMAT={-:-/ absolute / metric / decimal}
; #@! TF.CreationDate,2019-06-17T23:14:25+02:00
; #@! TF.GenerationSoftware,Kicad,Pcbnew,5.1.2
FMAT,2
METRIC
T1C0.400
T2C0.762
T3C0.800
T4C1.000
T5C1.016
T6C1.220
T7C1.420
T8C1.430
T9C2.600
%
G90
G05
T1
X133.386Y-68.903
T2
X117.99Y-75.07
X117.99Y-77.61
X117.99Y-80.15
X117.99Y-82.69
X117.99Y-85.23
X117.99Y-87.77
X117.99Y-90.31
X117.99Y-92.85
X117.99Y-95.39
X117.99Y-97.93
X117.99Y-100.47
X117.99Y-103.01
X117.99Y-105.55
X117.99Y-108.09
X117.99Y-110.63
X117.99Y-113.17
X120.53Y-75.07
X120.53Y-77.61
X120.53Y-80.15
X120.53Y-82.69
X120.53Y-85.23
X120.53Y-87.77
X120.53Y-90.31
X120.53Y-92.85
X120.53Y-95.39
X120.53Y-97.93
X120.53Y-100.47
X120.53Y-103.01
X120.53Y-105.55
X120.53Y-108.09
X120.53Y-110.63
X120.53Y-113.17
X151.01Y-62.37
X151.01Y-64.91
X151.01Y-67.45
X151.01Y-69.99
X151.01Y-72.53
X151.01Y-75.07
X151.01Y-77.61
X151.01Y-80.15
X151.01Y-82.69
X151.01Y-85.23
X151.01Y-87.77
X151.01Y-90.31
X151.01Y-92.85
X151.01Y-95.39
X151.01Y-97.93
X151.01Y-100.47
X151.01Y-103.01
X151.01Y-105.55
X151.01Y-108.09
X151.01Y-110.63
X151.01Y-113.17
X153.55Y-62.37
X153.55Y-64.91
X153.55Y-67.45
X153.55Y-69.99
X153.55Y-72.53
X153.55Y-75.07
X153.55Y-77.61
X153.55Y-80.15
X153.55Y-82.69
X153.55Y-85.23
X153.55Y-87.77
X153.55Y-90.31
X153.55Y-92.85
X153.55Y-95.39
X153.55Y-97.93
X153.55Y-100.47
X153.55Y-103.01
X153.55Y-105.55
X153.55Y-108.09
X153.55Y-110.63
X153.55Y-113.17
T3
X179.5Y-106.42
X179.5Y-108.96
X179.5Y-111.5
X148.5Y-124.84
X148.5Y-135.0
X143.34Y-118.0
X153.5Y-118.0
X130.84Y-110.5
X141.0Y-110.5
X166.34Y-114.5
X176.5Y-114.5
X126.5Y-125.0
X126.5Y-135.16
X167.92Y-55.5
X170.46Y-55.5
X173.0Y-55.5
X130.84Y-98.5
X141.0Y-98.5
X130.84Y-95.5
X141.0Y-95.5
X119.0Y-41.0
X121.5Y-41.0
X159.5Y-113.34
X159.5Y-123.5
X168.0Y-133.5
X170.54Y-133.5
X173.08Y-133.5
X130.84Y-92.5
X141.0Y-92.5
X156.5Y-113.34
X156.5Y-123.5
X130.84Y-101.5
X141.0Y-101.5
X162.5Y-113.34
X162.5Y-123.5
X130.84Y-107.5
X141.0Y-107.5
X169.0Y-81.5
X171.54Y-81.5
X174.08Y-81.5
X111.5Y-70.34
X111.5Y-72.88
X111.5Y-75.42
X111.5Y-77.96
X111.5Y-80.5
X111.5Y-83.04
X111.5Y-85.58
X111.5Y-88.12
X111.5Y-93.2
X111.5Y-95.74
X111.5Y-98.28
X111.5Y-100.82
X111.5Y-103.36
X111.5Y-105.9
X159.76Y-61.2
X159.76Y-63.74
X159.76Y-66.28
X159.76Y-68.82
X159.76Y-71.36
X159.76Y-73.9
X159.76Y-76.44
X159.76Y-78.98
X159.76Y-81.52
X159.76Y-84.06
X159.76Y-88.12
X159.76Y-90.66
X159.76Y-93.2
X159.76Y-95.74
X159.76Y-98.28
X159.76Y-100.82
X159.76Y-103.36
X159.76Y-105.9
X130.84Y-113.5
X141.0Y-113.5
X130.84Y-104.5
X141.0Y-104.5
T4
X94.5Y-117.5
X94.5Y-132.0
X97.0Y-132.0
X99.5Y-117.5
X99.5Y-132.0
X94.5Y-39.5
X94.5Y-54.0
X97.0Y-54.0
X99.5Y-39.5
X99.5Y-54.0
X94.5Y-65.5
X94.5Y-80.0
X97.0Y-80.0
X99.5Y-65.5
X99.5Y-80.0
X94.5Y-91.5
X94.5Y-106.0
X97.0Y-106.0
X99.5Y-91.5
X99.5Y-106.0
T5
X109.96Y-44.0
X109.96Y-46.54
X109.96Y-49.08
X109.96Y-51.62
X109.96Y-54.16
X109.96Y-56.7
X109.96Y-59.24
X109.96Y-61.78
X112.5Y-44.0
X112.5Y-46.54
X112.5Y-49.08
X112.5Y-51.62
X112.5Y-54.16
X112.5Y-56.7
X112.5Y-59.24
X112.5Y-61.78
T6
X170.5Y-66.0
X170.5Y-40.0
X181.5Y-66.0
X181.5Y-118.0
X111.5Y-130.0
X170.5Y-118.0
X170.5Y-92.0
X181.5Y-92.0
X181.5Y-40.0
X133.5Y-130.0
T7
X170.5Y-69.1
X170.5Y-43.1
X181.5Y-43.1
X136.6Y-130.0
X181.5Y-69.1
X181.5Y-121.1
X114.6Y-130.0
X170.5Y-121.1
X170.5Y-95.1
X181.5Y-95.1
T8
X170.5Y-103.4
X181.5Y-103.4
X170.5Y-77.4
X170.5Y-51.4
X181.5Y-51.4
X144.9Y-130.0
X181.5Y-77.4
X181.5Y-129.4
X122.9Y-130.0
X170.5Y-129.4
T9
X91.4Y-72.5
X91.4Y-98.5
X102.6Y-98.5
X91.4Y-124.5
X102.6Y-124.5
X91.4Y-46.5
X102.6Y-46.5
X102.6Y-72.5
T0
M30
