G04 #@! TF.GenerationSoftware,KiCad,Pcbnew,5.0.1*
G04 #@! TF.CreationDate,2019-05-06T23:41:24+02:00*
G04 #@! TF.ProjectId,plastik,706C617374696B2E6B696361645F7063,rev?*
G04 #@! TF.SameCoordinates,Original*
G04 #@! TF.FileFunction,Legend,Top*
G04 #@! TF.FilePolarity,Positive*
%FSLAX46Y46*%
G04 Gerber Fmt 4.6, Leading zero omitted, Abs format (unit mm)*
G04 Created by KiCad (PCBNEW 5.0.1) date Mo 06 Mai 2019 23:41:24 CEST*
%MOMM*%
%LPD*%
G01*
G04 APERTURE LIST*
%ADD10C,0.120000*%
%ADD11C,0.150000*%
G04 APERTURE END LIST*
D10*
G04 #@! TO.C,J10*
X132500000Y-131060000D02*
X132500000Y-130200000D01*
X132500000Y-131060000D02*
X133300000Y-131060000D01*
X141780000Y-130000000D02*
G75*
G03X141780000Y-130000000I-1800000J0D01*
G01*
X135480000Y-130350000D02*
X135480000Y-134500000D01*
X135480000Y-125500000D02*
X135480000Y-129650000D01*
X145980000Y-130500000D02*
X145980000Y-134500000D01*
X145980000Y-125500000D02*
X145980000Y-129500000D01*
X135480000Y-125500000D02*
X145980000Y-125500000D01*
X135480000Y-134500000D02*
X145980000Y-134500000D01*
G04 #@! TO.C,J11*
X113480000Y-134500000D02*
X123980000Y-134500000D01*
X113480000Y-125500000D02*
X123980000Y-125500000D01*
X123980000Y-125500000D02*
X123980000Y-129500000D01*
X123980000Y-130500000D02*
X123980000Y-134500000D01*
X113480000Y-125500000D02*
X113480000Y-129650000D01*
X113480000Y-130350000D02*
X113480000Y-134500000D01*
X119780000Y-130000000D02*
G75*
G03X119780000Y-130000000I-1800000J0D01*
G01*
X110500000Y-131060000D02*
X111300000Y-131060000D01*
X110500000Y-131060000D02*
X110500000Y-130200000D01*
D11*
G04 #@! TO.C,U1*
X168825000Y-106825000D02*
X168825000Y-107050000D01*
X172175000Y-106825000D02*
X172175000Y-107125000D01*
X172175000Y-110175000D02*
X172175000Y-109875000D01*
X168825000Y-110175000D02*
X168825000Y-109875000D01*
X168825000Y-106825000D02*
X172175000Y-106825000D01*
X168825000Y-110175000D02*
X172175000Y-110175000D01*
X168825000Y-107050000D02*
X167600000Y-107050000D01*
G04 #@! TO.C,A1*
X106420000Y-123680000D02*
X164840000Y-123680000D01*
X164840000Y-37320000D02*
X164840000Y-123680000D01*
X106420000Y-37320000D02*
X164840000Y-37320000D01*
X106420000Y-37320000D02*
X106420000Y-123680000D01*
X162300000Y-121140000D02*
X162300000Y-39860000D01*
X162300000Y-39860000D02*
X108960000Y-39860000D01*
X108960000Y-39860000D02*
X108960000Y-121140000D01*
X108960000Y-121140000D02*
X162300000Y-121140000D01*
D10*
G04 #@! TO.C,J8*
X180440000Y-117000000D02*
X181300000Y-117000000D01*
X180440000Y-117000000D02*
X180440000Y-117800000D01*
X183300000Y-124480000D02*
G75*
G03X183300000Y-124480000I-1800000J0D01*
G01*
X181150000Y-119980000D02*
X177000000Y-119980000D01*
X186000000Y-119980000D02*
X181850000Y-119980000D01*
X181000000Y-130480000D02*
X177000000Y-130480000D01*
X186000000Y-130480000D02*
X182000000Y-130480000D01*
X186000000Y-119980000D02*
X186000000Y-130480000D01*
X177000000Y-119980000D02*
X177000000Y-130480000D01*
G04 #@! TO.C,J7*
X177000000Y-93980000D02*
X177000000Y-104480000D01*
X186000000Y-93980000D02*
X186000000Y-104480000D01*
X186000000Y-104480000D02*
X182000000Y-104480000D01*
X181000000Y-104480000D02*
X177000000Y-104480000D01*
X186000000Y-93980000D02*
X181850000Y-93980000D01*
X181150000Y-93980000D02*
X177000000Y-93980000D01*
X183300000Y-98480000D02*
G75*
G03X183300000Y-98480000I-1800000J0D01*
G01*
X180440000Y-91000000D02*
X180440000Y-91800000D01*
X180440000Y-91000000D02*
X181300000Y-91000000D01*
G04 #@! TO.C,SW4*
X100000000Y-124500000D02*
G75*
G03X100000000Y-124500000I-3000000J0D01*
G01*
X91100000Y-122500000D02*
X91100000Y-118400000D01*
X102900000Y-118400000D02*
X102900000Y-122500000D01*
X102900000Y-126500000D02*
X102900000Y-130600000D01*
X91100000Y-126500000D02*
X91100000Y-130600000D01*
X91100000Y-130600000D02*
X102900000Y-130600000D01*
X93200000Y-132000000D02*
X92900000Y-132300000D01*
X92900000Y-132300000D02*
X92900000Y-131700000D01*
X92900000Y-131700000D02*
X93200000Y-132000000D01*
X91100000Y-118400000D02*
X93500000Y-118400000D01*
X95700000Y-118400000D02*
X98300000Y-118400000D01*
X100500000Y-118400000D02*
X102900000Y-118400000D01*
X96500000Y-124500000D02*
X97500000Y-124500000D01*
X97000000Y-125000000D02*
X97000000Y-124000000D01*
G04 #@! TO.C,SW3*
X97000000Y-99000000D02*
X97000000Y-98000000D01*
X96500000Y-98500000D02*
X97500000Y-98500000D01*
X100500000Y-92400000D02*
X102900000Y-92400000D01*
X95700000Y-92400000D02*
X98300000Y-92400000D01*
X91100000Y-92400000D02*
X93500000Y-92400000D01*
X92900000Y-105700000D02*
X93200000Y-106000000D01*
X92900000Y-106300000D02*
X92900000Y-105700000D01*
X93200000Y-106000000D02*
X92900000Y-106300000D01*
X91100000Y-104600000D02*
X102900000Y-104600000D01*
X91100000Y-100500000D02*
X91100000Y-104600000D01*
X102900000Y-100500000D02*
X102900000Y-104600000D01*
X102900000Y-92400000D02*
X102900000Y-96500000D01*
X91100000Y-96500000D02*
X91100000Y-92400000D01*
X100000000Y-98500000D02*
G75*
G03X100000000Y-98500000I-3000000J0D01*
G01*
G04 #@! TO.C,SW2*
X100000000Y-72500000D02*
G75*
G03X100000000Y-72500000I-3000000J0D01*
G01*
X91100000Y-70500000D02*
X91100000Y-66400000D01*
X102900000Y-66400000D02*
X102900000Y-70500000D01*
X102900000Y-74500000D02*
X102900000Y-78600000D01*
X91100000Y-74500000D02*
X91100000Y-78600000D01*
X91100000Y-78600000D02*
X102900000Y-78600000D01*
X93200000Y-80000000D02*
X92900000Y-80300000D01*
X92900000Y-80300000D02*
X92900000Y-79700000D01*
X92900000Y-79700000D02*
X93200000Y-80000000D01*
X91100000Y-66400000D02*
X93500000Y-66400000D01*
X95700000Y-66400000D02*
X98300000Y-66400000D01*
X100500000Y-66400000D02*
X102900000Y-66400000D01*
X96500000Y-72500000D02*
X97500000Y-72500000D01*
X97000000Y-73000000D02*
X97000000Y-72000000D01*
G04 #@! TO.C,SW1*
X97000000Y-47000000D02*
X97000000Y-46000000D01*
X96500000Y-46500000D02*
X97500000Y-46500000D01*
X100500000Y-40400000D02*
X102900000Y-40400000D01*
X95700000Y-40400000D02*
X98300000Y-40400000D01*
X91100000Y-40400000D02*
X93500000Y-40400000D01*
X92900000Y-53700000D02*
X93200000Y-54000000D01*
X92900000Y-54300000D02*
X92900000Y-53700000D01*
X93200000Y-54000000D02*
X92900000Y-54300000D01*
X91100000Y-52600000D02*
X102900000Y-52600000D01*
X91100000Y-48500000D02*
X91100000Y-52600000D01*
X102900000Y-48500000D02*
X102900000Y-52600000D01*
X102900000Y-40400000D02*
X102900000Y-44500000D01*
X91100000Y-44500000D02*
X91100000Y-40400000D01*
X100000000Y-46500000D02*
G75*
G03X100000000Y-46500000I-3000000J0D01*
G01*
G04 #@! TO.C,J6*
X180440000Y-65000000D02*
X181300000Y-65000000D01*
X180440000Y-65000000D02*
X180440000Y-65800000D01*
X183300000Y-72480000D02*
G75*
G03X183300000Y-72480000I-1800000J0D01*
G01*
X181150000Y-67980000D02*
X177000000Y-67980000D01*
X186000000Y-67980000D02*
X181850000Y-67980000D01*
X181000000Y-78480000D02*
X177000000Y-78480000D01*
X186000000Y-78480000D02*
X182000000Y-78480000D01*
X186000000Y-67980000D02*
X186000000Y-78480000D01*
X177000000Y-67980000D02*
X177000000Y-78480000D01*
G04 #@! TO.C,J5*
X177000000Y-41980000D02*
X177000000Y-52480000D01*
X186000000Y-41980000D02*
X186000000Y-52480000D01*
X186000000Y-52480000D02*
X182000000Y-52480000D01*
X181000000Y-52480000D02*
X177000000Y-52480000D01*
X186000000Y-41980000D02*
X181850000Y-41980000D01*
X181150000Y-41980000D02*
X177000000Y-41980000D01*
X183300000Y-46480000D02*
G75*
G03X183300000Y-46480000I-1800000J0D01*
G01*
X180440000Y-39000000D02*
X180440000Y-39800000D01*
X180440000Y-39000000D02*
X181300000Y-39000000D01*
G04 #@! TO.C,J4*
X169440000Y-117000000D02*
X170300000Y-117000000D01*
X169440000Y-117000000D02*
X169440000Y-117800000D01*
X172300000Y-124480000D02*
G75*
G03X172300000Y-124480000I-1800000J0D01*
G01*
X170150000Y-119980000D02*
X166000000Y-119980000D01*
X175000000Y-119980000D02*
X170850000Y-119980000D01*
X170000000Y-130480000D02*
X166000000Y-130480000D01*
X175000000Y-130480000D02*
X171000000Y-130480000D01*
X175000000Y-119980000D02*
X175000000Y-130480000D01*
X166000000Y-119980000D02*
X166000000Y-130480000D01*
G04 #@! TO.C,J3*
X166000000Y-93980000D02*
X166000000Y-104480000D01*
X175000000Y-93980000D02*
X175000000Y-104480000D01*
X175000000Y-104480000D02*
X171000000Y-104480000D01*
X170000000Y-104480000D02*
X166000000Y-104480000D01*
X175000000Y-93980000D02*
X170850000Y-93980000D01*
X170150000Y-93980000D02*
X166000000Y-93980000D01*
X172300000Y-98480000D02*
G75*
G03X172300000Y-98480000I-1800000J0D01*
G01*
X169440000Y-91000000D02*
X169440000Y-91800000D01*
X169440000Y-91000000D02*
X170300000Y-91000000D01*
G04 #@! TO.C,J2*
X169440000Y-65000000D02*
X170300000Y-65000000D01*
X169440000Y-65000000D02*
X169440000Y-65800000D01*
X172300000Y-72480000D02*
G75*
G03X172300000Y-72480000I-1800000J0D01*
G01*
X170150000Y-67980000D02*
X166000000Y-67980000D01*
X175000000Y-67980000D02*
X170850000Y-67980000D01*
X170000000Y-78480000D02*
X166000000Y-78480000D01*
X175000000Y-78480000D02*
X171000000Y-78480000D01*
X175000000Y-67980000D02*
X175000000Y-78480000D01*
X166000000Y-67980000D02*
X166000000Y-78480000D01*
G04 #@! TO.C,J1*
X166000000Y-41980000D02*
X166000000Y-52480000D01*
X175000000Y-41980000D02*
X175000000Y-52480000D01*
X175000000Y-52480000D02*
X171000000Y-52480000D01*
X170000000Y-52480000D02*
X166000000Y-52480000D01*
X175000000Y-41980000D02*
X170850000Y-41980000D01*
X170150000Y-41980000D02*
X166000000Y-41980000D01*
X172300000Y-46480000D02*
G75*
G03X172300000Y-46480000I-1800000J0D01*
G01*
X169440000Y-39000000D02*
X169440000Y-39800000D01*
X169440000Y-39000000D02*
X170300000Y-39000000D01*
G04 #@! TO.C,J10*
D11*
X134032380Y-134839523D02*
X134746666Y-134839523D01*
X134889523Y-134887142D01*
X134984761Y-134982380D01*
X135032380Y-135125238D01*
X135032380Y-135220476D01*
X135032380Y-133839523D02*
X135032380Y-134410952D01*
X135032380Y-134125238D02*
X134032380Y-134125238D01*
X134175238Y-134220476D01*
X134270476Y-134315714D01*
X134318095Y-134410952D01*
X134032380Y-133220476D02*
X134032380Y-133125238D01*
X134080000Y-133030000D01*
X134127619Y-132982380D01*
X134222857Y-132934761D01*
X134413333Y-132887142D01*
X134651428Y-132887142D01*
X134841904Y-132934761D01*
X134937142Y-132982380D01*
X134984761Y-133030000D01*
X135032380Y-133125238D01*
X135032380Y-133220476D01*
X134984761Y-133315714D01*
X134937142Y-133363333D01*
X134841904Y-133410952D01*
X134651428Y-133458571D01*
X134413333Y-133458571D01*
X134222857Y-133410952D01*
X134127619Y-133363333D01*
X134080000Y-133315714D01*
X134032380Y-133220476D01*
G04 #@! TO.C,J11*
X112032380Y-134839523D02*
X112746666Y-134839523D01*
X112889523Y-134887142D01*
X112984761Y-134982380D01*
X113032380Y-135125238D01*
X113032380Y-135220476D01*
X113032380Y-133839523D02*
X113032380Y-134410952D01*
X113032380Y-134125238D02*
X112032380Y-134125238D01*
X112175238Y-134220476D01*
X112270476Y-134315714D01*
X112318095Y-134410952D01*
X113032380Y-132887142D02*
X113032380Y-133458571D01*
X113032380Y-133172857D02*
X112032380Y-133172857D01*
X112175238Y-133268095D01*
X112270476Y-133363333D01*
X112318095Y-133458571D01*
G04 #@! TO.C,U1*
X174238095Y-107952380D02*
X174238095Y-108761904D01*
X174285714Y-108857142D01*
X174333333Y-108904761D01*
X174428571Y-108952380D01*
X174619047Y-108952380D01*
X174714285Y-108904761D01*
X174761904Y-108857142D01*
X174809523Y-108761904D01*
X174809523Y-107952380D01*
X175809523Y-108952380D02*
X175238095Y-108952380D01*
X175523809Y-108952380D02*
X175523809Y-107952380D01*
X175428571Y-108095238D01*
X175333333Y-108190476D01*
X175238095Y-108238095D01*
G04 #@! TO.C,A1*
X107856666Y-72324285D02*
X107856666Y-71848095D01*
X108142380Y-72419523D02*
X107142380Y-72086190D01*
X108142380Y-71752857D01*
X108142380Y-70895714D02*
X108142380Y-71467142D01*
X108142380Y-71181428D02*
X107142380Y-71181428D01*
X107285238Y-71276666D01*
X107380476Y-71371904D01*
X107428095Y-71467142D01*
G04 #@! TO.C,J8*
X177136666Y-118532380D02*
X177136666Y-119246666D01*
X177089047Y-119389523D01*
X176993809Y-119484761D01*
X176850952Y-119532380D01*
X176755714Y-119532380D01*
X177755714Y-118960952D02*
X177660476Y-118913333D01*
X177612857Y-118865714D01*
X177565238Y-118770476D01*
X177565238Y-118722857D01*
X177612857Y-118627619D01*
X177660476Y-118580000D01*
X177755714Y-118532380D01*
X177946190Y-118532380D01*
X178041428Y-118580000D01*
X178089047Y-118627619D01*
X178136666Y-118722857D01*
X178136666Y-118770476D01*
X178089047Y-118865714D01*
X178041428Y-118913333D01*
X177946190Y-118960952D01*
X177755714Y-118960952D01*
X177660476Y-119008571D01*
X177612857Y-119056190D01*
X177565238Y-119151428D01*
X177565238Y-119341904D01*
X177612857Y-119437142D01*
X177660476Y-119484761D01*
X177755714Y-119532380D01*
X177946190Y-119532380D01*
X178041428Y-119484761D01*
X178089047Y-119437142D01*
X178136666Y-119341904D01*
X178136666Y-119151428D01*
X178089047Y-119056190D01*
X178041428Y-119008571D01*
X177946190Y-118960952D01*
G04 #@! TO.C,J7*
X177136666Y-92532380D02*
X177136666Y-93246666D01*
X177089047Y-93389523D01*
X176993809Y-93484761D01*
X176850952Y-93532380D01*
X176755714Y-93532380D01*
X177517619Y-92532380D02*
X178184285Y-92532380D01*
X177755714Y-93532380D01*
G04 #@! TO.C,SW4*
X90204761Y-130533333D02*
X90252380Y-130390476D01*
X90252380Y-130152380D01*
X90204761Y-130057142D01*
X90157142Y-130009523D01*
X90061904Y-129961904D01*
X89966666Y-129961904D01*
X89871428Y-130009523D01*
X89823809Y-130057142D01*
X89776190Y-130152380D01*
X89728571Y-130342857D01*
X89680952Y-130438095D01*
X89633333Y-130485714D01*
X89538095Y-130533333D01*
X89442857Y-130533333D01*
X89347619Y-130485714D01*
X89300000Y-130438095D01*
X89252380Y-130342857D01*
X89252380Y-130104761D01*
X89300000Y-129961904D01*
X89252380Y-129628571D02*
X90252380Y-129390476D01*
X89538095Y-129200000D01*
X90252380Y-129009523D01*
X89252380Y-128771428D01*
X89585714Y-127961904D02*
X90252380Y-127961904D01*
X89204761Y-128200000D02*
X89919047Y-128438095D01*
X89919047Y-127819047D01*
G04 #@! TO.C,SW3*
X90204761Y-104533333D02*
X90252380Y-104390476D01*
X90252380Y-104152380D01*
X90204761Y-104057142D01*
X90157142Y-104009523D01*
X90061904Y-103961904D01*
X89966666Y-103961904D01*
X89871428Y-104009523D01*
X89823809Y-104057142D01*
X89776190Y-104152380D01*
X89728571Y-104342857D01*
X89680952Y-104438095D01*
X89633333Y-104485714D01*
X89538095Y-104533333D01*
X89442857Y-104533333D01*
X89347619Y-104485714D01*
X89300000Y-104438095D01*
X89252380Y-104342857D01*
X89252380Y-104104761D01*
X89300000Y-103961904D01*
X89252380Y-103628571D02*
X90252380Y-103390476D01*
X89538095Y-103200000D01*
X90252380Y-103009523D01*
X89252380Y-102771428D01*
X89252380Y-102485714D02*
X89252380Y-101866666D01*
X89633333Y-102200000D01*
X89633333Y-102057142D01*
X89680952Y-101961904D01*
X89728571Y-101914285D01*
X89823809Y-101866666D01*
X90061904Y-101866666D01*
X90157142Y-101914285D01*
X90204761Y-101961904D01*
X90252380Y-102057142D01*
X90252380Y-102342857D01*
X90204761Y-102438095D01*
X90157142Y-102485714D01*
G04 #@! TO.C,SW2*
X90204761Y-78533333D02*
X90252380Y-78390476D01*
X90252380Y-78152380D01*
X90204761Y-78057142D01*
X90157142Y-78009523D01*
X90061904Y-77961904D01*
X89966666Y-77961904D01*
X89871428Y-78009523D01*
X89823809Y-78057142D01*
X89776190Y-78152380D01*
X89728571Y-78342857D01*
X89680952Y-78438095D01*
X89633333Y-78485714D01*
X89538095Y-78533333D01*
X89442857Y-78533333D01*
X89347619Y-78485714D01*
X89300000Y-78438095D01*
X89252380Y-78342857D01*
X89252380Y-78104761D01*
X89300000Y-77961904D01*
X89252380Y-77628571D02*
X90252380Y-77390476D01*
X89538095Y-77200000D01*
X90252380Y-77009523D01*
X89252380Y-76771428D01*
X89347619Y-76438095D02*
X89300000Y-76390476D01*
X89252380Y-76295238D01*
X89252380Y-76057142D01*
X89300000Y-75961904D01*
X89347619Y-75914285D01*
X89442857Y-75866666D01*
X89538095Y-75866666D01*
X89680952Y-75914285D01*
X90252380Y-76485714D01*
X90252380Y-75866666D01*
G04 #@! TO.C,SW1*
X90204761Y-52533333D02*
X90252380Y-52390476D01*
X90252380Y-52152380D01*
X90204761Y-52057142D01*
X90157142Y-52009523D01*
X90061904Y-51961904D01*
X89966666Y-51961904D01*
X89871428Y-52009523D01*
X89823809Y-52057142D01*
X89776190Y-52152380D01*
X89728571Y-52342857D01*
X89680952Y-52438095D01*
X89633333Y-52485714D01*
X89538095Y-52533333D01*
X89442857Y-52533333D01*
X89347619Y-52485714D01*
X89300000Y-52438095D01*
X89252380Y-52342857D01*
X89252380Y-52104761D01*
X89300000Y-51961904D01*
X89252380Y-51628571D02*
X90252380Y-51390476D01*
X89538095Y-51200000D01*
X90252380Y-51009523D01*
X89252380Y-50771428D01*
X90252380Y-49866666D02*
X90252380Y-50438095D01*
X90252380Y-50152380D02*
X89252380Y-50152380D01*
X89395238Y-50247619D01*
X89490476Y-50342857D01*
X89538095Y-50438095D01*
G04 #@! TO.C,J6*
X177136666Y-66532380D02*
X177136666Y-67246666D01*
X177089047Y-67389523D01*
X176993809Y-67484761D01*
X176850952Y-67532380D01*
X176755714Y-67532380D01*
X178041428Y-66532380D02*
X177850952Y-66532380D01*
X177755714Y-66580000D01*
X177708095Y-66627619D01*
X177612857Y-66770476D01*
X177565238Y-66960952D01*
X177565238Y-67341904D01*
X177612857Y-67437142D01*
X177660476Y-67484761D01*
X177755714Y-67532380D01*
X177946190Y-67532380D01*
X178041428Y-67484761D01*
X178089047Y-67437142D01*
X178136666Y-67341904D01*
X178136666Y-67103809D01*
X178089047Y-67008571D01*
X178041428Y-66960952D01*
X177946190Y-66913333D01*
X177755714Y-66913333D01*
X177660476Y-66960952D01*
X177612857Y-67008571D01*
X177565238Y-67103809D01*
G04 #@! TO.C,J5*
X177136666Y-40532380D02*
X177136666Y-41246666D01*
X177089047Y-41389523D01*
X176993809Y-41484761D01*
X176850952Y-41532380D01*
X176755714Y-41532380D01*
X178089047Y-40532380D02*
X177612857Y-40532380D01*
X177565238Y-41008571D01*
X177612857Y-40960952D01*
X177708095Y-40913333D01*
X177946190Y-40913333D01*
X178041428Y-40960952D01*
X178089047Y-41008571D01*
X178136666Y-41103809D01*
X178136666Y-41341904D01*
X178089047Y-41437142D01*
X178041428Y-41484761D01*
X177946190Y-41532380D01*
X177708095Y-41532380D01*
X177612857Y-41484761D01*
X177565238Y-41437142D01*
G04 #@! TO.C,J4*
X166491665Y-118557379D02*
X166491665Y-119271665D01*
X166444046Y-119414522D01*
X166348808Y-119509760D01*
X166205951Y-119557379D01*
X166110713Y-119557379D01*
X167396427Y-118890713D02*
X167396427Y-119557379D01*
X167158332Y-118509760D02*
X166920237Y-119224046D01*
X167539284Y-119224046D01*
G04 #@! TO.C,J3*
X166136666Y-92532380D02*
X166136666Y-93246666D01*
X166089047Y-93389523D01*
X165993809Y-93484761D01*
X165850952Y-93532380D01*
X165755714Y-93532380D01*
X166517619Y-92532380D02*
X167136666Y-92532380D01*
X166803333Y-92913333D01*
X166946190Y-92913333D01*
X167041428Y-92960952D01*
X167089047Y-93008571D01*
X167136666Y-93103809D01*
X167136666Y-93341904D01*
X167089047Y-93437142D01*
X167041428Y-93484761D01*
X166946190Y-93532380D01*
X166660476Y-93532380D01*
X166565238Y-93484761D01*
X166517619Y-93437142D01*
G04 #@! TO.C,J2*
X166136666Y-66532380D02*
X166136666Y-67246666D01*
X166089047Y-67389523D01*
X165993809Y-67484761D01*
X165850952Y-67532380D01*
X165755714Y-67532380D01*
X166565238Y-66627619D02*
X166612857Y-66580000D01*
X166708095Y-66532380D01*
X166946190Y-66532380D01*
X167041428Y-66580000D01*
X167089047Y-66627619D01*
X167136666Y-66722857D01*
X167136666Y-66818095D01*
X167089047Y-66960952D01*
X166517619Y-67532380D01*
X167136666Y-67532380D01*
G04 #@! TO.C,J1*
X166136666Y-40532380D02*
X166136666Y-41246666D01*
X166089047Y-41389523D01*
X165993809Y-41484761D01*
X165850952Y-41532380D01*
X165755714Y-41532380D01*
X167136666Y-41532380D02*
X166565238Y-41532380D01*
X166850952Y-41532380D02*
X166850952Y-40532380D01*
X166755714Y-40675238D01*
X166660476Y-40770476D01*
X166565238Y-40818095D01*
G04 #@! TD*
M02*
