G04 #@! TF.GenerationSoftware,KiCad,Pcbnew,5.0.1*
G04 #@! TF.CreationDate,2019-05-06T23:45:27+02:00*
G04 #@! TF.ProjectId,adadad,6164616461642E6B696361645F706362,rev?*
G04 #@! TF.SameCoordinates,Original*
G04 #@! TF.FileFunction,Soldermask,Bot*
G04 #@! TF.FilePolarity,Negative*
%FSLAX46Y46*%
G04 Gerber Fmt 4.6, Leading zero omitted, Abs format (unit mm)*
G04 Created by KiCad (PCBNEW 5.0.1) date Mo 06 Mai 2019 23:45:27 CEST*
%MOMM*%
%LPD*%
G01*
G04 APERTURE LIST*
%ADD10C,0.100000*%
G04 APERTURE END LIST*
D10*
G36*
X131851000Y-143851000D02*
X130149000Y-143851000D01*
X130149000Y-142149000D01*
X131851000Y-142149000D01*
X131851000Y-143851000D01*
X131851000Y-143851000D01*
G37*
G36*
X121006821Y-142161313D02*
X121006824Y-142161314D01*
X121006825Y-142161314D01*
X121167239Y-142209975D01*
X121167241Y-142209976D01*
X121167244Y-142209977D01*
X121315078Y-142288995D01*
X121444659Y-142395341D01*
X121551005Y-142524922D01*
X121630023Y-142672756D01*
X121678687Y-142833179D01*
X121695117Y-143000000D01*
X121678687Y-143166821D01*
X121630023Y-143327244D01*
X121551005Y-143475078D01*
X121444659Y-143604659D01*
X121315078Y-143711005D01*
X121167244Y-143790023D01*
X121167241Y-143790024D01*
X121167239Y-143790025D01*
X121006825Y-143838686D01*
X121006824Y-143838686D01*
X121006821Y-143838687D01*
X120881804Y-143851000D01*
X120798196Y-143851000D01*
X120673179Y-143838687D01*
X120673176Y-143838686D01*
X120673175Y-143838686D01*
X120512761Y-143790025D01*
X120512759Y-143790024D01*
X120512756Y-143790023D01*
X120364922Y-143711005D01*
X120235341Y-143604659D01*
X120128995Y-143475078D01*
X120049977Y-143327244D01*
X120001313Y-143166821D01*
X119984883Y-143000000D01*
X120001313Y-142833179D01*
X120049977Y-142672756D01*
X120128995Y-142524922D01*
X120235341Y-142395341D01*
X120364922Y-142288995D01*
X120512756Y-142209977D01*
X120512759Y-142209976D01*
X120512761Y-142209975D01*
X120673175Y-142161314D01*
X120673176Y-142161314D01*
X120673179Y-142161313D01*
X120798196Y-142149000D01*
X120881804Y-142149000D01*
X121006821Y-142161313D01*
X121006821Y-142161313D01*
G37*
G36*
X104686424Y-139062760D02*
X104686427Y-139062761D01*
X104686428Y-139062761D01*
X104865692Y-139117140D01*
X104865694Y-139117141D01*
X104865697Y-139117142D01*
X105030904Y-139205446D01*
X105175712Y-139324288D01*
X105294552Y-139469095D01*
X105294553Y-139469097D01*
X105382860Y-139634307D01*
X105431470Y-139794553D01*
X105437240Y-139813575D01*
X105451000Y-139953282D01*
X105451000Y-141046718D01*
X105437240Y-141186425D01*
X105437239Y-141186428D01*
X105437239Y-141186429D01*
X105382861Y-141365691D01*
X105382859Y-141365695D01*
X105294552Y-141530905D01*
X105175712Y-141675712D01*
X105030905Y-141794552D01*
X105030903Y-141794553D01*
X104865693Y-141882860D01*
X104686429Y-141937239D01*
X104686428Y-141937239D01*
X104686425Y-141937240D01*
X104500000Y-141955601D01*
X104313576Y-141937240D01*
X104313573Y-141937239D01*
X104313572Y-141937239D01*
X104134308Y-141882860D01*
X103969098Y-141794553D01*
X103969096Y-141794552D01*
X103824289Y-141675712D01*
X103705449Y-141530905D01*
X103617140Y-141365691D01*
X103562760Y-141186430D01*
X103549000Y-141046718D01*
X103549000Y-139953283D01*
X103562760Y-139813576D01*
X103562761Y-139813572D01*
X103617140Y-139634308D01*
X103617141Y-139634306D01*
X103617142Y-139634303D01*
X103705446Y-139469096D01*
X103824288Y-139324288D01*
X103969095Y-139205448D01*
X104134305Y-139117141D01*
X104134307Y-139117140D01*
X104313571Y-139062761D01*
X104313572Y-139062761D01*
X104313575Y-139062760D01*
X104500000Y-139044399D01*
X104686424Y-139062760D01*
X104686424Y-139062760D01*
G37*
G36*
X121006821Y-139621313D02*
X121006824Y-139621314D01*
X121006825Y-139621314D01*
X121167239Y-139669975D01*
X121167241Y-139669976D01*
X121167244Y-139669977D01*
X121315078Y-139748995D01*
X121444659Y-139855341D01*
X121551005Y-139984922D01*
X121630023Y-140132756D01*
X121678687Y-140293179D01*
X121695117Y-140460000D01*
X121678687Y-140626821D01*
X121630023Y-140787244D01*
X121551005Y-140935078D01*
X121444659Y-141064659D01*
X121315078Y-141171005D01*
X121167244Y-141250023D01*
X121167241Y-141250024D01*
X121167239Y-141250025D01*
X121006825Y-141298686D01*
X121006824Y-141298686D01*
X121006821Y-141298687D01*
X120881804Y-141311000D01*
X120798196Y-141311000D01*
X120673179Y-141298687D01*
X120673176Y-141298686D01*
X120673175Y-141298686D01*
X120512761Y-141250025D01*
X120512759Y-141250024D01*
X120512756Y-141250023D01*
X120364922Y-141171005D01*
X120235341Y-141064659D01*
X120128995Y-140935078D01*
X120049977Y-140787244D01*
X120001313Y-140626821D01*
X119984883Y-140460000D01*
X120001313Y-140293179D01*
X120049977Y-140132756D01*
X120128995Y-139984922D01*
X120235341Y-139855341D01*
X120364922Y-139748995D01*
X120512756Y-139669977D01*
X120512759Y-139669976D01*
X120512761Y-139669975D01*
X120673175Y-139621314D01*
X120673176Y-139621314D01*
X120673179Y-139621313D01*
X120798196Y-139609000D01*
X120881804Y-139609000D01*
X121006821Y-139621313D01*
X121006821Y-139621313D01*
G37*
G36*
X131166821Y-139621313D02*
X131166824Y-139621314D01*
X131166825Y-139621314D01*
X131327239Y-139669975D01*
X131327241Y-139669976D01*
X131327244Y-139669977D01*
X131475078Y-139748995D01*
X131604659Y-139855341D01*
X131711005Y-139984922D01*
X131790023Y-140132756D01*
X131838687Y-140293179D01*
X131855117Y-140460000D01*
X131838687Y-140626821D01*
X131790023Y-140787244D01*
X131711005Y-140935078D01*
X131604659Y-141064659D01*
X131475078Y-141171005D01*
X131327244Y-141250023D01*
X131327241Y-141250024D01*
X131327239Y-141250025D01*
X131166825Y-141298686D01*
X131166824Y-141298686D01*
X131166821Y-141298687D01*
X131041804Y-141311000D01*
X130958196Y-141311000D01*
X130833179Y-141298687D01*
X130833176Y-141298686D01*
X130833175Y-141298686D01*
X130672761Y-141250025D01*
X130672759Y-141250024D01*
X130672756Y-141250023D01*
X130524922Y-141171005D01*
X130395341Y-141064659D01*
X130288995Y-140935078D01*
X130209977Y-140787244D01*
X130161313Y-140626821D01*
X130144883Y-140460000D01*
X130161313Y-140293179D01*
X130209977Y-140132756D01*
X130288995Y-139984922D01*
X130395341Y-139855341D01*
X130524922Y-139748995D01*
X130672756Y-139669977D01*
X130672759Y-139669976D01*
X130672761Y-139669975D01*
X130833175Y-139621314D01*
X130833176Y-139621314D01*
X130833179Y-139621313D01*
X130958196Y-139609000D01*
X131041804Y-139609000D01*
X131166821Y-139621313D01*
X131166821Y-139621313D01*
G37*
G36*
X107086424Y-137062760D02*
X107086427Y-137062761D01*
X107086428Y-137062761D01*
X107265692Y-137117140D01*
X107265694Y-137117141D01*
X107265697Y-137117142D01*
X107430904Y-137205446D01*
X107575712Y-137324288D01*
X107694552Y-137469095D01*
X107782859Y-137634305D01*
X107837240Y-137813575D01*
X107851000Y-137953282D01*
X107851000Y-139046718D01*
X107837240Y-139186425D01*
X107837239Y-139186428D01*
X107837239Y-139186429D01*
X107782861Y-139365691D01*
X107782859Y-139365695D01*
X107694552Y-139530905D01*
X107575712Y-139675712D01*
X107430905Y-139794552D01*
X107430903Y-139794553D01*
X107265693Y-139882860D01*
X107086429Y-139937239D01*
X107086428Y-139937239D01*
X107086425Y-139937240D01*
X106900000Y-139955601D01*
X106713576Y-139937240D01*
X106713573Y-139937239D01*
X106713572Y-139937239D01*
X106534308Y-139882860D01*
X106369098Y-139794553D01*
X106369096Y-139794552D01*
X106224289Y-139675712D01*
X106105449Y-139530905D01*
X106017140Y-139365691D01*
X105962760Y-139186430D01*
X105949000Y-139046718D01*
X105949000Y-137953283D01*
X105962760Y-137813576D01*
X105962761Y-137813572D01*
X106017140Y-137634308D01*
X106017141Y-137634306D01*
X106017142Y-137634303D01*
X106105446Y-137469096D01*
X106224288Y-137324288D01*
X106369095Y-137205448D01*
X106534305Y-137117141D01*
X106534307Y-137117140D01*
X106713571Y-137062761D01*
X106713572Y-137062761D01*
X106713575Y-137062760D01*
X106900000Y-137044399D01*
X107086424Y-137062760D01*
X107086424Y-137062760D01*
G37*
G36*
X112586424Y-137062760D02*
X112586427Y-137062761D01*
X112586428Y-137062761D01*
X112765692Y-137117140D01*
X112765694Y-137117141D01*
X112765697Y-137117142D01*
X112930904Y-137205446D01*
X113075712Y-137324288D01*
X113194552Y-137469095D01*
X113282859Y-137634305D01*
X113337240Y-137813575D01*
X113351000Y-137953282D01*
X113351000Y-139046718D01*
X113337240Y-139186425D01*
X113337239Y-139186428D01*
X113337239Y-139186429D01*
X113282861Y-139365691D01*
X113282859Y-139365695D01*
X113194552Y-139530905D01*
X113075712Y-139675712D01*
X112930905Y-139794552D01*
X112930903Y-139794553D01*
X112765693Y-139882860D01*
X112586429Y-139937239D01*
X112586428Y-139937239D01*
X112586425Y-139937240D01*
X112400000Y-139955601D01*
X112213576Y-139937240D01*
X112213573Y-139937239D01*
X112213572Y-139937239D01*
X112034308Y-139882860D01*
X111869098Y-139794553D01*
X111869096Y-139794552D01*
X111724289Y-139675712D01*
X111605449Y-139530905D01*
X111517140Y-139365691D01*
X111462760Y-139186430D01*
X111449000Y-139046718D01*
X111449000Y-137953283D01*
X111462760Y-137813576D01*
X111462761Y-137813572D01*
X111517140Y-137634308D01*
X111517141Y-137634306D01*
X111517142Y-137634303D01*
X111605446Y-137469096D01*
X111724288Y-137324288D01*
X111869095Y-137205448D01*
X112034305Y-137117141D01*
X112034307Y-137117140D01*
X112213571Y-137062761D01*
X112213572Y-137062761D01*
X112213575Y-137062760D01*
X112400000Y-137044399D01*
X112586424Y-137062760D01*
X112586424Y-137062760D01*
G37*
G36*
X131166821Y-137081313D02*
X131166824Y-137081314D01*
X131166825Y-137081314D01*
X131327239Y-137129975D01*
X131327241Y-137129976D01*
X131327244Y-137129977D01*
X131475078Y-137208995D01*
X131604659Y-137315341D01*
X131711005Y-137444922D01*
X131790023Y-137592756D01*
X131790024Y-137592759D01*
X131790025Y-137592761D01*
X131802628Y-137634308D01*
X131838687Y-137753179D01*
X131855117Y-137920000D01*
X131838687Y-138086821D01*
X131790023Y-138247244D01*
X131711005Y-138395078D01*
X131604659Y-138524659D01*
X131475078Y-138631005D01*
X131327244Y-138710023D01*
X131327241Y-138710024D01*
X131327239Y-138710025D01*
X131166825Y-138758686D01*
X131166824Y-138758686D01*
X131166821Y-138758687D01*
X131041804Y-138771000D01*
X130958196Y-138771000D01*
X130833179Y-138758687D01*
X130833176Y-138758686D01*
X130833175Y-138758686D01*
X130672761Y-138710025D01*
X130672759Y-138710024D01*
X130672756Y-138710023D01*
X130524922Y-138631005D01*
X130395341Y-138524659D01*
X130288995Y-138395078D01*
X130209977Y-138247244D01*
X130161313Y-138086821D01*
X130144883Y-137920000D01*
X130161313Y-137753179D01*
X130197372Y-137634308D01*
X130209975Y-137592761D01*
X130209976Y-137592759D01*
X130209977Y-137592756D01*
X130288995Y-137444922D01*
X130395341Y-137315341D01*
X130524922Y-137208995D01*
X130672756Y-137129977D01*
X130672759Y-137129976D01*
X130672761Y-137129975D01*
X130833175Y-137081314D01*
X130833176Y-137081314D01*
X130833179Y-137081313D01*
X130958196Y-137069000D01*
X131041804Y-137069000D01*
X131166821Y-137081313D01*
X131166821Y-137081313D01*
G37*
G36*
X121006821Y-137081313D02*
X121006824Y-137081314D01*
X121006825Y-137081314D01*
X121167239Y-137129975D01*
X121167241Y-137129976D01*
X121167244Y-137129977D01*
X121315078Y-137208995D01*
X121444659Y-137315341D01*
X121551005Y-137444922D01*
X121630023Y-137592756D01*
X121630024Y-137592759D01*
X121630025Y-137592761D01*
X121642628Y-137634308D01*
X121678687Y-137753179D01*
X121695117Y-137920000D01*
X121678687Y-138086821D01*
X121630023Y-138247244D01*
X121551005Y-138395078D01*
X121444659Y-138524659D01*
X121315078Y-138631005D01*
X121167244Y-138710023D01*
X121167241Y-138710024D01*
X121167239Y-138710025D01*
X121006825Y-138758686D01*
X121006824Y-138758686D01*
X121006821Y-138758687D01*
X120881804Y-138771000D01*
X120798196Y-138771000D01*
X120673179Y-138758687D01*
X120673176Y-138758686D01*
X120673175Y-138758686D01*
X120512761Y-138710025D01*
X120512759Y-138710024D01*
X120512756Y-138710023D01*
X120364922Y-138631005D01*
X120235341Y-138524659D01*
X120128995Y-138395078D01*
X120049977Y-138247244D01*
X120001313Y-138086821D01*
X119984883Y-137920000D01*
X120001313Y-137753179D01*
X120037372Y-137634308D01*
X120049975Y-137592761D01*
X120049976Y-137592759D01*
X120049977Y-137592756D01*
X120128995Y-137444922D01*
X120235341Y-137315341D01*
X120364922Y-137208995D01*
X120512756Y-137129977D01*
X120512759Y-137129976D01*
X120512761Y-137129975D01*
X120673175Y-137081314D01*
X120673176Y-137081314D01*
X120673179Y-137081313D01*
X120798196Y-137069000D01*
X120881804Y-137069000D01*
X121006821Y-137081313D01*
X121006821Y-137081313D01*
G37*
G36*
X131166821Y-134541313D02*
X131166824Y-134541314D01*
X131166825Y-134541314D01*
X131327239Y-134589975D01*
X131327241Y-134589976D01*
X131327244Y-134589977D01*
X131475078Y-134668995D01*
X131604659Y-134775341D01*
X131711005Y-134904922D01*
X131790023Y-135052756D01*
X131790024Y-135052759D01*
X131790025Y-135052761D01*
X131819825Y-135151000D01*
X131838687Y-135213179D01*
X131855117Y-135380000D01*
X131838687Y-135546821D01*
X131790023Y-135707244D01*
X131711005Y-135855078D01*
X131604659Y-135984659D01*
X131475078Y-136091005D01*
X131327244Y-136170023D01*
X131327241Y-136170024D01*
X131327239Y-136170025D01*
X131166825Y-136218686D01*
X131166824Y-136218686D01*
X131166821Y-136218687D01*
X131041804Y-136231000D01*
X130958196Y-136231000D01*
X130833179Y-136218687D01*
X130833176Y-136218686D01*
X130833175Y-136218686D01*
X130672761Y-136170025D01*
X130672759Y-136170024D01*
X130672756Y-136170023D01*
X130524922Y-136091005D01*
X130395341Y-135984659D01*
X130288995Y-135855078D01*
X130209977Y-135707244D01*
X130161313Y-135546821D01*
X130144883Y-135380000D01*
X130161313Y-135213179D01*
X130180175Y-135151000D01*
X130209975Y-135052761D01*
X130209976Y-135052759D01*
X130209977Y-135052756D01*
X130288995Y-134904922D01*
X130395341Y-134775341D01*
X130524922Y-134668995D01*
X130672756Y-134589977D01*
X130672759Y-134589976D01*
X130672761Y-134589975D01*
X130833175Y-134541314D01*
X130833176Y-134541314D01*
X130833179Y-134541313D01*
X130958196Y-134529000D01*
X131041804Y-134529000D01*
X131166821Y-134541313D01*
X131166821Y-134541313D01*
G37*
G36*
X121006821Y-134541313D02*
X121006824Y-134541314D01*
X121006825Y-134541314D01*
X121167239Y-134589975D01*
X121167241Y-134589976D01*
X121167244Y-134589977D01*
X121315078Y-134668995D01*
X121444659Y-134775341D01*
X121551005Y-134904922D01*
X121630023Y-135052756D01*
X121630024Y-135052759D01*
X121630025Y-135052761D01*
X121659825Y-135151000D01*
X121678687Y-135213179D01*
X121695117Y-135380000D01*
X121678687Y-135546821D01*
X121630023Y-135707244D01*
X121551005Y-135855078D01*
X121444659Y-135984659D01*
X121315078Y-136091005D01*
X121167244Y-136170023D01*
X121167241Y-136170024D01*
X121167239Y-136170025D01*
X121006825Y-136218686D01*
X121006824Y-136218686D01*
X121006821Y-136218687D01*
X120881804Y-136231000D01*
X120798196Y-136231000D01*
X120673179Y-136218687D01*
X120673176Y-136218686D01*
X120673175Y-136218686D01*
X120512761Y-136170025D01*
X120512759Y-136170024D01*
X120512756Y-136170023D01*
X120364922Y-136091005D01*
X120235341Y-135984659D01*
X120128995Y-135855078D01*
X120049977Y-135707244D01*
X120001313Y-135546821D01*
X119984883Y-135380000D01*
X120001313Y-135213179D01*
X120020175Y-135151000D01*
X120049975Y-135052761D01*
X120049976Y-135052759D01*
X120049977Y-135052756D01*
X120128995Y-134904922D01*
X120235341Y-134775341D01*
X120364922Y-134668995D01*
X120512756Y-134589977D01*
X120512759Y-134589976D01*
X120512761Y-134589975D01*
X120673175Y-134541314D01*
X120673176Y-134541314D01*
X120673179Y-134541313D01*
X120798196Y-134529000D01*
X120881804Y-134529000D01*
X121006821Y-134541313D01*
X121006821Y-134541313D01*
G37*
G36*
X106151000Y-135151000D02*
X103849000Y-135151000D01*
X103849000Y-132849000D01*
X106151000Y-132849000D01*
X106151000Y-135151000D01*
X106151000Y-135151000D01*
G37*
G36*
X115284180Y-132855662D02*
X115385635Y-132865654D01*
X115602600Y-132931470D01*
X115602602Y-132931471D01*
X115602605Y-132931472D01*
X115802556Y-133038347D01*
X115977818Y-133182182D01*
X116121653Y-133357444D01*
X116228528Y-133557395D01*
X116228529Y-133557398D01*
X116228530Y-133557400D01*
X116294346Y-133774365D01*
X116316569Y-134000000D01*
X116294346Y-134225635D01*
X116228530Y-134442600D01*
X116228528Y-134442605D01*
X116121653Y-134642556D01*
X115977818Y-134817818D01*
X115802556Y-134961653D01*
X115602605Y-135068528D01*
X115602602Y-135068529D01*
X115602600Y-135068530D01*
X115385635Y-135134346D01*
X115284180Y-135144338D01*
X115216545Y-135151000D01*
X115103455Y-135151000D01*
X115035820Y-135144338D01*
X114934365Y-135134346D01*
X114717400Y-135068530D01*
X114717398Y-135068529D01*
X114717395Y-135068528D01*
X114517444Y-134961653D01*
X114342182Y-134817818D01*
X114198347Y-134642556D01*
X114091472Y-134442605D01*
X114091470Y-134442600D01*
X114025654Y-134225635D01*
X114003431Y-134000000D01*
X114025654Y-133774365D01*
X114091470Y-133557400D01*
X114091471Y-133557398D01*
X114091472Y-133557395D01*
X114198347Y-133357444D01*
X114342182Y-133182182D01*
X114517444Y-133038347D01*
X114717395Y-132931472D01*
X114717398Y-132931471D01*
X114717400Y-132931470D01*
X114934365Y-132865654D01*
X115035820Y-132855662D01*
X115103455Y-132849000D01*
X115216545Y-132849000D01*
X115284180Y-132855662D01*
X115284180Y-132855662D01*
G37*
G36*
X121006821Y-132001313D02*
X121006824Y-132001314D01*
X121006825Y-132001314D01*
X121167239Y-132049975D01*
X121167241Y-132049976D01*
X121167244Y-132049977D01*
X121315078Y-132128995D01*
X121444659Y-132235341D01*
X121551005Y-132364922D01*
X121630023Y-132512756D01*
X121678687Y-132673179D01*
X121695117Y-132840000D01*
X121678687Y-133006821D01*
X121678686Y-133006824D01*
X121678686Y-133006825D01*
X121669124Y-133038348D01*
X121630023Y-133167244D01*
X121551005Y-133315078D01*
X121444659Y-133444659D01*
X121315078Y-133551005D01*
X121167244Y-133630023D01*
X121167241Y-133630024D01*
X121167239Y-133630025D01*
X121006825Y-133678686D01*
X121006824Y-133678686D01*
X121006821Y-133678687D01*
X120881804Y-133691000D01*
X120798196Y-133691000D01*
X120673179Y-133678687D01*
X120673176Y-133678686D01*
X120673175Y-133678686D01*
X120512761Y-133630025D01*
X120512759Y-133630024D01*
X120512756Y-133630023D01*
X120364922Y-133551005D01*
X120235341Y-133444659D01*
X120128995Y-133315078D01*
X120049977Y-133167244D01*
X120010877Y-133038348D01*
X120001314Y-133006825D01*
X120001314Y-133006824D01*
X120001313Y-133006821D01*
X119984883Y-132840000D01*
X120001313Y-132673179D01*
X120049977Y-132512756D01*
X120128995Y-132364922D01*
X120235341Y-132235341D01*
X120364922Y-132128995D01*
X120512756Y-132049977D01*
X120512759Y-132049976D01*
X120512761Y-132049975D01*
X120673175Y-132001314D01*
X120673176Y-132001314D01*
X120673179Y-132001313D01*
X120798196Y-131989000D01*
X120881804Y-131989000D01*
X121006821Y-132001313D01*
X121006821Y-132001313D01*
G37*
G36*
X131166821Y-132001313D02*
X131166824Y-132001314D01*
X131166825Y-132001314D01*
X131327239Y-132049975D01*
X131327241Y-132049976D01*
X131327244Y-132049977D01*
X131475078Y-132128995D01*
X131604659Y-132235341D01*
X131711005Y-132364922D01*
X131790023Y-132512756D01*
X131838687Y-132673179D01*
X131855117Y-132840000D01*
X131838687Y-133006821D01*
X131838686Y-133006824D01*
X131838686Y-133006825D01*
X131829124Y-133038348D01*
X131790023Y-133167244D01*
X131711005Y-133315078D01*
X131604659Y-133444659D01*
X131475078Y-133551005D01*
X131327244Y-133630023D01*
X131327241Y-133630024D01*
X131327239Y-133630025D01*
X131166825Y-133678686D01*
X131166824Y-133678686D01*
X131166821Y-133678687D01*
X131041804Y-133691000D01*
X130958196Y-133691000D01*
X130833179Y-133678687D01*
X130833176Y-133678686D01*
X130833175Y-133678686D01*
X130672761Y-133630025D01*
X130672759Y-133630024D01*
X130672756Y-133630023D01*
X130524922Y-133551005D01*
X130395341Y-133444659D01*
X130288995Y-133315078D01*
X130209977Y-133167244D01*
X130170877Y-133038348D01*
X130161314Y-133006825D01*
X130161314Y-133006824D01*
X130161313Y-133006821D01*
X130144883Y-132840000D01*
X130161313Y-132673179D01*
X130209977Y-132512756D01*
X130288995Y-132364922D01*
X130395341Y-132235341D01*
X130524922Y-132128995D01*
X130672756Y-132049977D01*
X130672759Y-132049976D01*
X130672761Y-132049975D01*
X130833175Y-132001314D01*
X130833176Y-132001314D01*
X130833179Y-132001313D01*
X130958196Y-131989000D01*
X131041804Y-131989000D01*
X131166821Y-132001313D01*
X131166821Y-132001313D01*
G37*
G36*
X114286821Y-129661313D02*
X114286824Y-129661314D01*
X114286825Y-129661314D01*
X114447239Y-129709975D01*
X114447241Y-129709976D01*
X114447244Y-129709977D01*
X114595078Y-129788995D01*
X114724659Y-129895341D01*
X114831005Y-130024922D01*
X114910023Y-130172756D01*
X114958687Y-130333179D01*
X114975117Y-130500000D01*
X114958687Y-130666821D01*
X114958686Y-130666824D01*
X114958686Y-130666825D01*
X114925848Y-130775078D01*
X114910023Y-130827244D01*
X114831005Y-130975078D01*
X114724659Y-131104659D01*
X114595078Y-131211005D01*
X114447244Y-131290023D01*
X114447241Y-131290024D01*
X114447239Y-131290025D01*
X114286825Y-131338686D01*
X114286824Y-131338686D01*
X114286821Y-131338687D01*
X114161804Y-131351000D01*
X114078196Y-131351000D01*
X113953179Y-131338687D01*
X113953176Y-131338686D01*
X113953175Y-131338686D01*
X113792761Y-131290025D01*
X113792759Y-131290024D01*
X113792756Y-131290023D01*
X113644922Y-131211005D01*
X113515341Y-131104659D01*
X113408995Y-130975078D01*
X113329977Y-130827244D01*
X113314153Y-130775078D01*
X113281314Y-130666825D01*
X113281314Y-130666824D01*
X113281313Y-130666821D01*
X113264883Y-130500000D01*
X113281313Y-130333179D01*
X113329977Y-130172756D01*
X113408995Y-130024922D01*
X113515341Y-129895341D01*
X113644922Y-129788995D01*
X113792756Y-129709977D01*
X113792759Y-129709976D01*
X113792761Y-129709975D01*
X113953175Y-129661314D01*
X113953176Y-129661314D01*
X113953179Y-129661313D01*
X114078196Y-129649000D01*
X114161804Y-129649000D01*
X114286821Y-129661313D01*
X114286821Y-129661313D01*
G37*
G36*
X107351000Y-131351000D02*
X105649000Y-131351000D01*
X105649000Y-129649000D01*
X107351000Y-129649000D01*
X107351000Y-131351000D01*
X107351000Y-131351000D01*
G37*
G36*
X121006821Y-129461313D02*
X121006824Y-129461314D01*
X121006825Y-129461314D01*
X121167239Y-129509975D01*
X121167241Y-129509976D01*
X121167244Y-129509977D01*
X121315078Y-129588995D01*
X121444659Y-129695341D01*
X121551005Y-129824922D01*
X121630023Y-129972756D01*
X121630024Y-129972759D01*
X121630025Y-129972761D01*
X121678686Y-130133175D01*
X121678687Y-130133179D01*
X121695117Y-130300000D01*
X121678687Y-130466821D01*
X121630023Y-130627244D01*
X121551005Y-130775078D01*
X121444659Y-130904659D01*
X121315078Y-131011005D01*
X121167244Y-131090023D01*
X121167241Y-131090024D01*
X121167239Y-131090025D01*
X121006825Y-131138686D01*
X121006824Y-131138686D01*
X121006821Y-131138687D01*
X120881804Y-131151000D01*
X120798196Y-131151000D01*
X120673179Y-131138687D01*
X120673176Y-131138686D01*
X120673175Y-131138686D01*
X120512761Y-131090025D01*
X120512759Y-131090024D01*
X120512756Y-131090023D01*
X120364922Y-131011005D01*
X120235341Y-130904659D01*
X120128995Y-130775078D01*
X120049977Y-130627244D01*
X120001313Y-130466821D01*
X119984883Y-130300000D01*
X120001313Y-130133179D01*
X120001314Y-130133175D01*
X120049975Y-129972761D01*
X120049976Y-129972759D01*
X120049977Y-129972756D01*
X120128995Y-129824922D01*
X120235341Y-129695341D01*
X120364922Y-129588995D01*
X120512756Y-129509977D01*
X120512759Y-129509976D01*
X120512761Y-129509975D01*
X120673175Y-129461314D01*
X120673176Y-129461314D01*
X120673179Y-129461313D01*
X120798196Y-129449000D01*
X120881804Y-129449000D01*
X121006821Y-129461313D01*
X121006821Y-129461313D01*
G37*
G36*
X131166821Y-129461313D02*
X131166824Y-129461314D01*
X131166825Y-129461314D01*
X131327239Y-129509975D01*
X131327241Y-129509976D01*
X131327244Y-129509977D01*
X131475078Y-129588995D01*
X131604659Y-129695341D01*
X131711005Y-129824922D01*
X131790023Y-129972756D01*
X131790024Y-129972759D01*
X131790025Y-129972761D01*
X131838686Y-130133175D01*
X131838687Y-130133179D01*
X131855117Y-130300000D01*
X131838687Y-130466821D01*
X131790023Y-130627244D01*
X131711005Y-130775078D01*
X131604659Y-130904659D01*
X131475078Y-131011005D01*
X131327244Y-131090023D01*
X131327241Y-131090024D01*
X131327239Y-131090025D01*
X131166825Y-131138686D01*
X131166824Y-131138686D01*
X131166821Y-131138687D01*
X131041804Y-131151000D01*
X130958196Y-131151000D01*
X130833179Y-131138687D01*
X130833176Y-131138686D01*
X130833175Y-131138686D01*
X130672761Y-131090025D01*
X130672759Y-131090024D01*
X130672756Y-131090023D01*
X130524922Y-131011005D01*
X130395341Y-130904659D01*
X130288995Y-130775078D01*
X130209977Y-130627244D01*
X130161313Y-130466821D01*
X130144883Y-130300000D01*
X130161313Y-130133179D01*
X130161314Y-130133175D01*
X130209975Y-129972761D01*
X130209976Y-129972759D01*
X130209977Y-129972756D01*
X130288995Y-129824922D01*
X130395341Y-129695341D01*
X130524922Y-129588995D01*
X130672756Y-129509977D01*
X130672759Y-129509976D01*
X130672761Y-129509975D01*
X130833175Y-129461314D01*
X130833176Y-129461314D01*
X130833179Y-129461313D01*
X130958196Y-129449000D01*
X131041804Y-129449000D01*
X131166821Y-129461313D01*
X131166821Y-129461313D01*
G37*
G36*
X121006821Y-126921313D02*
X121006824Y-126921314D01*
X121006825Y-126921314D01*
X121167239Y-126969975D01*
X121167241Y-126969976D01*
X121167244Y-126969977D01*
X121315078Y-127048995D01*
X121444659Y-127155341D01*
X121551005Y-127284922D01*
X121630023Y-127432756D01*
X121678687Y-127593179D01*
X121695117Y-127760000D01*
X121678687Y-127926821D01*
X121630023Y-128087244D01*
X121551005Y-128235078D01*
X121444659Y-128364659D01*
X121315078Y-128471005D01*
X121167244Y-128550023D01*
X121167241Y-128550024D01*
X121167239Y-128550025D01*
X121006825Y-128598686D01*
X121006824Y-128598686D01*
X121006821Y-128598687D01*
X120881804Y-128611000D01*
X120798196Y-128611000D01*
X120673179Y-128598687D01*
X120673176Y-128598686D01*
X120673175Y-128598686D01*
X120512761Y-128550025D01*
X120512759Y-128550024D01*
X120512756Y-128550023D01*
X120364922Y-128471005D01*
X120235341Y-128364659D01*
X120128995Y-128235078D01*
X120049977Y-128087244D01*
X120001313Y-127926821D01*
X119984883Y-127760000D01*
X120001313Y-127593179D01*
X120049977Y-127432756D01*
X120128995Y-127284922D01*
X120235341Y-127155341D01*
X120364922Y-127048995D01*
X120512756Y-126969977D01*
X120512759Y-126969976D01*
X120512761Y-126969975D01*
X120673175Y-126921314D01*
X120673176Y-126921314D01*
X120673179Y-126921313D01*
X120798196Y-126909000D01*
X120881804Y-126909000D01*
X121006821Y-126921313D01*
X121006821Y-126921313D01*
G37*
G36*
X131166821Y-126921313D02*
X131166824Y-126921314D01*
X131166825Y-126921314D01*
X131327239Y-126969975D01*
X131327241Y-126969976D01*
X131327244Y-126969977D01*
X131475078Y-127048995D01*
X131604659Y-127155341D01*
X131711005Y-127284922D01*
X131790023Y-127432756D01*
X131838687Y-127593179D01*
X131855117Y-127760000D01*
X131838687Y-127926821D01*
X131790023Y-128087244D01*
X131711005Y-128235078D01*
X131604659Y-128364659D01*
X131475078Y-128471005D01*
X131327244Y-128550023D01*
X131327241Y-128550024D01*
X131327239Y-128550025D01*
X131166825Y-128598686D01*
X131166824Y-128598686D01*
X131166821Y-128598687D01*
X131041804Y-128611000D01*
X130958196Y-128611000D01*
X130833179Y-128598687D01*
X130833176Y-128598686D01*
X130833175Y-128598686D01*
X130672761Y-128550025D01*
X130672759Y-128550024D01*
X130672756Y-128550023D01*
X130524922Y-128471005D01*
X130395341Y-128364659D01*
X130288995Y-128235078D01*
X130209977Y-128087244D01*
X130161313Y-127926821D01*
X130144883Y-127760000D01*
X130161313Y-127593179D01*
X130209977Y-127432756D01*
X130288995Y-127284922D01*
X130395341Y-127155341D01*
X130524922Y-127048995D01*
X130672756Y-126969977D01*
X130672759Y-126969976D01*
X130672761Y-126969975D01*
X130833175Y-126921314D01*
X130833176Y-126921314D01*
X130833179Y-126921313D01*
X130958196Y-126909000D01*
X131041804Y-126909000D01*
X131166821Y-126921313D01*
X131166821Y-126921313D01*
G37*
G36*
X104686424Y-121062760D02*
X104686427Y-121062761D01*
X104686428Y-121062761D01*
X104865692Y-121117140D01*
X104865694Y-121117141D01*
X104865697Y-121117142D01*
X105030904Y-121205446D01*
X105175712Y-121324288D01*
X105294552Y-121469095D01*
X105294553Y-121469097D01*
X105382860Y-121634307D01*
X105431470Y-121794553D01*
X105437240Y-121813575D01*
X105451000Y-121953282D01*
X105451000Y-123046718D01*
X105437240Y-123186425D01*
X105437239Y-123186428D01*
X105437239Y-123186429D01*
X105382861Y-123365691D01*
X105382859Y-123365695D01*
X105294552Y-123530905D01*
X105175712Y-123675712D01*
X105030905Y-123794552D01*
X105030903Y-123794553D01*
X104865693Y-123882860D01*
X104686429Y-123937239D01*
X104686428Y-123937239D01*
X104686425Y-123937240D01*
X104500000Y-123955601D01*
X104313576Y-123937240D01*
X104313573Y-123937239D01*
X104313572Y-123937239D01*
X104134308Y-123882860D01*
X103969098Y-123794553D01*
X103969096Y-123794552D01*
X103824289Y-123675712D01*
X103705449Y-123530905D01*
X103617140Y-123365691D01*
X103562760Y-123186430D01*
X103549000Y-123046718D01*
X103549000Y-121953283D01*
X103562760Y-121813576D01*
X103562761Y-121813572D01*
X103617140Y-121634308D01*
X103617141Y-121634306D01*
X103617142Y-121634303D01*
X103705446Y-121469096D01*
X103824288Y-121324288D01*
X103969095Y-121205448D01*
X104134305Y-121117141D01*
X104134307Y-121117140D01*
X104313571Y-121062761D01*
X104313572Y-121062761D01*
X104313575Y-121062760D01*
X104500000Y-121044399D01*
X104686424Y-121062760D01*
X104686424Y-121062760D01*
G37*
G36*
X107086424Y-119062760D02*
X107086427Y-119062761D01*
X107086428Y-119062761D01*
X107265692Y-119117140D01*
X107265694Y-119117141D01*
X107265697Y-119117142D01*
X107430904Y-119205446D01*
X107575712Y-119324288D01*
X107694552Y-119469095D01*
X107782859Y-119634305D01*
X107837240Y-119813575D01*
X107851000Y-119953282D01*
X107851000Y-121046718D01*
X107837240Y-121186425D01*
X107837239Y-121186428D01*
X107837239Y-121186429D01*
X107782861Y-121365691D01*
X107782859Y-121365695D01*
X107694552Y-121530905D01*
X107575712Y-121675712D01*
X107430905Y-121794552D01*
X107430903Y-121794553D01*
X107265693Y-121882860D01*
X107086429Y-121937239D01*
X107086428Y-121937239D01*
X107086425Y-121937240D01*
X106900000Y-121955601D01*
X106713576Y-121937240D01*
X106713573Y-121937239D01*
X106713572Y-121937239D01*
X106534308Y-121882860D01*
X106369098Y-121794553D01*
X106369096Y-121794552D01*
X106224289Y-121675712D01*
X106105449Y-121530905D01*
X106017140Y-121365691D01*
X105962760Y-121186430D01*
X105949000Y-121046718D01*
X105949000Y-119953283D01*
X105962760Y-119813576D01*
X105962761Y-119813572D01*
X106017140Y-119634308D01*
X106017141Y-119634306D01*
X106017142Y-119634303D01*
X106105446Y-119469096D01*
X106224288Y-119324288D01*
X106369095Y-119205448D01*
X106534305Y-119117141D01*
X106534307Y-119117140D01*
X106713571Y-119062761D01*
X106713572Y-119062761D01*
X106713575Y-119062760D01*
X106900000Y-119044399D01*
X107086424Y-119062760D01*
X107086424Y-119062760D01*
G37*
G36*
X112586424Y-119062760D02*
X112586427Y-119062761D01*
X112586428Y-119062761D01*
X112765692Y-119117140D01*
X112765694Y-119117141D01*
X112765697Y-119117142D01*
X112930904Y-119205446D01*
X113075712Y-119324288D01*
X113194552Y-119469095D01*
X113282859Y-119634305D01*
X113337240Y-119813575D01*
X113351000Y-119953282D01*
X113351000Y-121046718D01*
X113337240Y-121186425D01*
X113337239Y-121186428D01*
X113337239Y-121186429D01*
X113282861Y-121365691D01*
X113282859Y-121365695D01*
X113194552Y-121530905D01*
X113075712Y-121675712D01*
X112930905Y-121794552D01*
X112930903Y-121794553D01*
X112765693Y-121882860D01*
X112586429Y-121937239D01*
X112586428Y-121937239D01*
X112586425Y-121937240D01*
X112400000Y-121955601D01*
X112213576Y-121937240D01*
X112213573Y-121937239D01*
X112213572Y-121937239D01*
X112034308Y-121882860D01*
X111869098Y-121794553D01*
X111869096Y-121794552D01*
X111724289Y-121675712D01*
X111605449Y-121530905D01*
X111517140Y-121365691D01*
X111462760Y-121186430D01*
X111449000Y-121046718D01*
X111449000Y-119953283D01*
X111462760Y-119813576D01*
X111462761Y-119813572D01*
X111517140Y-119634308D01*
X111517141Y-119634306D01*
X111517142Y-119634303D01*
X111605446Y-119469096D01*
X111724288Y-119324288D01*
X111869095Y-119205448D01*
X112034305Y-119117141D01*
X112034307Y-119117140D01*
X112213571Y-119062761D01*
X112213572Y-119062761D01*
X112213575Y-119062760D01*
X112400000Y-119044399D01*
X112586424Y-119062760D01*
X112586424Y-119062760D01*
G37*
G36*
X130125589Y-118738876D02*
X130224893Y-118758629D01*
X130365206Y-118816748D01*
X130491484Y-118901125D01*
X130598875Y-119008516D01*
X130683252Y-119134794D01*
X130741371Y-119275107D01*
X130771000Y-119424063D01*
X130771000Y-119575937D01*
X130741371Y-119724893D01*
X130683252Y-119865206D01*
X130598875Y-119991484D01*
X130491484Y-120098875D01*
X130365206Y-120183252D01*
X130224893Y-120241371D01*
X130125589Y-120261124D01*
X130075938Y-120271000D01*
X129924062Y-120271000D01*
X129874411Y-120261124D01*
X129775107Y-120241371D01*
X129634794Y-120183252D01*
X129508516Y-120098875D01*
X129401125Y-119991484D01*
X129316748Y-119865206D01*
X129258629Y-119724893D01*
X129229000Y-119575937D01*
X129229000Y-119424063D01*
X129258629Y-119275107D01*
X129316748Y-119134794D01*
X129401125Y-119008516D01*
X129508516Y-118901125D01*
X129634794Y-118816748D01*
X129775107Y-118758629D01*
X129874411Y-118738876D01*
X129924062Y-118729000D01*
X130075938Y-118729000D01*
X130125589Y-118738876D01*
X130125589Y-118738876D01*
G37*
G36*
X127585589Y-118738876D02*
X127684893Y-118758629D01*
X127825206Y-118816748D01*
X127951484Y-118901125D01*
X128058875Y-119008516D01*
X128143252Y-119134794D01*
X128201371Y-119275107D01*
X128231000Y-119424063D01*
X128231000Y-119575937D01*
X128201371Y-119724893D01*
X128143252Y-119865206D01*
X128058875Y-119991484D01*
X127951484Y-120098875D01*
X127825206Y-120183252D01*
X127684893Y-120241371D01*
X127585589Y-120261124D01*
X127535938Y-120271000D01*
X127384062Y-120271000D01*
X127334411Y-120261124D01*
X127235107Y-120241371D01*
X127094794Y-120183252D01*
X126968516Y-120098875D01*
X126861125Y-119991484D01*
X126776748Y-119865206D01*
X126718629Y-119724893D01*
X126689000Y-119575937D01*
X126689000Y-119424063D01*
X126718629Y-119275107D01*
X126776748Y-119134794D01*
X126861125Y-119008516D01*
X126968516Y-118901125D01*
X127094794Y-118816748D01*
X127235107Y-118758629D01*
X127334411Y-118738876D01*
X127384062Y-118729000D01*
X127535938Y-118729000D01*
X127585589Y-118738876D01*
X127585589Y-118738876D01*
G37*
G36*
X125045589Y-118738876D02*
X125144893Y-118758629D01*
X125285206Y-118816748D01*
X125411484Y-118901125D01*
X125518875Y-119008516D01*
X125603252Y-119134794D01*
X125661371Y-119275107D01*
X125691000Y-119424063D01*
X125691000Y-119575937D01*
X125661371Y-119724893D01*
X125603252Y-119865206D01*
X125518875Y-119991484D01*
X125411484Y-120098875D01*
X125285206Y-120183252D01*
X125144893Y-120241371D01*
X125045589Y-120261124D01*
X124995938Y-120271000D01*
X124844062Y-120271000D01*
X124794411Y-120261124D01*
X124695107Y-120241371D01*
X124554794Y-120183252D01*
X124428516Y-120098875D01*
X124321125Y-119991484D01*
X124236748Y-119865206D01*
X124178629Y-119724893D01*
X124149000Y-119575937D01*
X124149000Y-119424063D01*
X124178629Y-119275107D01*
X124236748Y-119134794D01*
X124321125Y-119008516D01*
X124428516Y-118901125D01*
X124554794Y-118816748D01*
X124695107Y-118758629D01*
X124794411Y-118738876D01*
X124844062Y-118729000D01*
X124995938Y-118729000D01*
X125045589Y-118738876D01*
X125045589Y-118738876D01*
G37*
G36*
X107451000Y-115451000D02*
X105549000Y-115451000D01*
X105549000Y-113549000D01*
X107451000Y-113549000D01*
X107451000Y-115451000D01*
X107451000Y-115451000D01*
G37*
G36*
X127585589Y-113238876D02*
X127684893Y-113258629D01*
X127825206Y-113316748D01*
X127951484Y-113401125D01*
X128058875Y-113508516D01*
X128143252Y-113634794D01*
X128201371Y-113775107D01*
X128231000Y-113924063D01*
X128231000Y-114075937D01*
X128201371Y-114224893D01*
X128143252Y-114365206D01*
X128058875Y-114491484D01*
X127951484Y-114598875D01*
X127825206Y-114683252D01*
X127684893Y-114741371D01*
X127585589Y-114761124D01*
X127535938Y-114771000D01*
X127384062Y-114771000D01*
X127334411Y-114761124D01*
X127235107Y-114741371D01*
X127094794Y-114683252D01*
X126968516Y-114598875D01*
X126861125Y-114491484D01*
X126776748Y-114365206D01*
X126718629Y-114224893D01*
X126689000Y-114075937D01*
X126689000Y-113924063D01*
X126718629Y-113775107D01*
X126776748Y-113634794D01*
X126861125Y-113508516D01*
X126968516Y-113401125D01*
X127094794Y-113316748D01*
X127235107Y-113258629D01*
X127334411Y-113238876D01*
X127384062Y-113229000D01*
X127535938Y-113229000D01*
X127585589Y-113238876D01*
X127585589Y-113238876D01*
G37*
G36*
X125045589Y-113238876D02*
X125144893Y-113258629D01*
X125285206Y-113316748D01*
X125411484Y-113401125D01*
X125518875Y-113508516D01*
X125603252Y-113634794D01*
X125661371Y-113775107D01*
X125691000Y-113924063D01*
X125691000Y-114075937D01*
X125661371Y-114224893D01*
X125603252Y-114365206D01*
X125518875Y-114491484D01*
X125411484Y-114598875D01*
X125285206Y-114683252D01*
X125144893Y-114741371D01*
X125045589Y-114761124D01*
X124995938Y-114771000D01*
X124844062Y-114771000D01*
X124794411Y-114761124D01*
X124695107Y-114741371D01*
X124554794Y-114683252D01*
X124428516Y-114598875D01*
X124321125Y-114491484D01*
X124236748Y-114365206D01*
X124178629Y-114224893D01*
X124149000Y-114075937D01*
X124149000Y-113924063D01*
X124178629Y-113775107D01*
X124236748Y-113634794D01*
X124321125Y-113508516D01*
X124428516Y-113401125D01*
X124554794Y-113316748D01*
X124695107Y-113258629D01*
X124794411Y-113238876D01*
X124844062Y-113229000D01*
X124995938Y-113229000D01*
X125045589Y-113238876D01*
X125045589Y-113238876D01*
G37*
G36*
X130125589Y-113238876D02*
X130224893Y-113258629D01*
X130365206Y-113316748D01*
X130491484Y-113401125D01*
X130598875Y-113508516D01*
X130683252Y-113634794D01*
X130741371Y-113775107D01*
X130771000Y-113924063D01*
X130771000Y-114075937D01*
X130741371Y-114224893D01*
X130683252Y-114365206D01*
X130598875Y-114491484D01*
X130491484Y-114598875D01*
X130365206Y-114683252D01*
X130224893Y-114741371D01*
X130125589Y-114761124D01*
X130075938Y-114771000D01*
X129924062Y-114771000D01*
X129874411Y-114761124D01*
X129775107Y-114741371D01*
X129634794Y-114683252D01*
X129508516Y-114598875D01*
X129401125Y-114491484D01*
X129316748Y-114365206D01*
X129258629Y-114224893D01*
X129229000Y-114075937D01*
X129229000Y-113924063D01*
X129258629Y-113775107D01*
X129316748Y-113634794D01*
X129401125Y-113508516D01*
X129508516Y-113401125D01*
X129634794Y-113316748D01*
X129775107Y-113258629D01*
X129874411Y-113238876D01*
X129924062Y-113229000D01*
X130075938Y-113229000D01*
X130125589Y-113238876D01*
X130125589Y-113238876D01*
G37*
G36*
X106777396Y-111045546D02*
X106950466Y-111117234D01*
X107106230Y-111221312D01*
X107238688Y-111353770D01*
X107342766Y-111509534D01*
X107414454Y-111682604D01*
X107451000Y-111866333D01*
X107451000Y-112053667D01*
X107414454Y-112237396D01*
X107342766Y-112410466D01*
X107238688Y-112566230D01*
X107106230Y-112698688D01*
X106950466Y-112802766D01*
X106777396Y-112874454D01*
X106593667Y-112911000D01*
X106406333Y-112911000D01*
X106222604Y-112874454D01*
X106049534Y-112802766D01*
X105893770Y-112698688D01*
X105761312Y-112566230D01*
X105657234Y-112410466D01*
X105585546Y-112237396D01*
X105549000Y-112053667D01*
X105549000Y-111866333D01*
X105585546Y-111682604D01*
X105657234Y-111509534D01*
X105761312Y-111353770D01*
X105893770Y-111221312D01*
X106049534Y-111117234D01*
X106222604Y-111045546D01*
X106406333Y-111009000D01*
X106593667Y-111009000D01*
X106777396Y-111045546D01*
X106777396Y-111045546D01*
G37*
G36*
X119286821Y-111161313D02*
X119286824Y-111161314D01*
X119286825Y-111161314D01*
X119447239Y-111209975D01*
X119447241Y-111209976D01*
X119447244Y-111209977D01*
X119595078Y-111288995D01*
X119724659Y-111395341D01*
X119831005Y-111524922D01*
X119910023Y-111672756D01*
X119910024Y-111672759D01*
X119910025Y-111672761D01*
X119958686Y-111833175D01*
X119958687Y-111833179D01*
X119975117Y-112000000D01*
X119958687Y-112166821D01*
X119958686Y-112166824D01*
X119958686Y-112166825D01*
X119933993Y-112248228D01*
X119910023Y-112327244D01*
X119831005Y-112475078D01*
X119724659Y-112604659D01*
X119595078Y-112711005D01*
X119447244Y-112790023D01*
X119447241Y-112790024D01*
X119447239Y-112790025D01*
X119286825Y-112838686D01*
X119286824Y-112838686D01*
X119286821Y-112838687D01*
X119161804Y-112851000D01*
X119078196Y-112851000D01*
X118953179Y-112838687D01*
X118953176Y-112838686D01*
X118953175Y-112838686D01*
X118792761Y-112790025D01*
X118792759Y-112790024D01*
X118792756Y-112790023D01*
X118644922Y-112711005D01*
X118515341Y-112604659D01*
X118408995Y-112475078D01*
X118329977Y-112327244D01*
X118306008Y-112248228D01*
X118281314Y-112166825D01*
X118281314Y-112166824D01*
X118281313Y-112166821D01*
X118264883Y-112000000D01*
X118281313Y-111833179D01*
X118281314Y-111833175D01*
X118329975Y-111672761D01*
X118329976Y-111672759D01*
X118329977Y-111672756D01*
X118408995Y-111524922D01*
X118515341Y-111395341D01*
X118644922Y-111288995D01*
X118792756Y-111209977D01*
X118792759Y-111209976D01*
X118792761Y-111209975D01*
X118953175Y-111161314D01*
X118953176Y-111161314D01*
X118953179Y-111161313D01*
X119078196Y-111149000D01*
X119161804Y-111149000D01*
X119286821Y-111161313D01*
X119286821Y-111161313D01*
G37*
G36*
X111748228Y-111181703D02*
X111903100Y-111245853D01*
X112042481Y-111338985D01*
X112161015Y-111457519D01*
X112254147Y-111596900D01*
X112318297Y-111751772D01*
X112351000Y-111916184D01*
X112351000Y-112083816D01*
X112318297Y-112248228D01*
X112254147Y-112403100D01*
X112161015Y-112542481D01*
X112042481Y-112661015D01*
X111903100Y-112754147D01*
X111748228Y-112818297D01*
X111583816Y-112851000D01*
X111416184Y-112851000D01*
X111251772Y-112818297D01*
X111096900Y-112754147D01*
X110957519Y-112661015D01*
X110838985Y-112542481D01*
X110745853Y-112403100D01*
X110681703Y-112248228D01*
X110649000Y-112083816D01*
X110649000Y-111916184D01*
X110681703Y-111751772D01*
X110745853Y-111596900D01*
X110838985Y-111457519D01*
X110957519Y-111338985D01*
X111096900Y-111245853D01*
X111251772Y-111181703D01*
X111416184Y-111149000D01*
X111583816Y-111149000D01*
X111748228Y-111181703D01*
X111748228Y-111181703D01*
G37*
G36*
X104686424Y-103062760D02*
X104686427Y-103062761D01*
X104686428Y-103062761D01*
X104865692Y-103117140D01*
X104865694Y-103117141D01*
X104865697Y-103117142D01*
X105030904Y-103205446D01*
X105175712Y-103324288D01*
X105294552Y-103469095D01*
X105294553Y-103469097D01*
X105382860Y-103634307D01*
X105431470Y-103794553D01*
X105437240Y-103813575D01*
X105451000Y-103953282D01*
X105451000Y-105046718D01*
X105437240Y-105186425D01*
X105437239Y-105186428D01*
X105437239Y-105186429D01*
X105382861Y-105365691D01*
X105382859Y-105365695D01*
X105294552Y-105530905D01*
X105175712Y-105675712D01*
X105030905Y-105794552D01*
X105030903Y-105794553D01*
X104865693Y-105882860D01*
X104686429Y-105937239D01*
X104686428Y-105937239D01*
X104686425Y-105937240D01*
X104500000Y-105955601D01*
X104313576Y-105937240D01*
X104313573Y-105937239D01*
X104313572Y-105937239D01*
X104134308Y-105882860D01*
X103969098Y-105794553D01*
X103969096Y-105794552D01*
X103824289Y-105675712D01*
X103705449Y-105530905D01*
X103617140Y-105365691D01*
X103562760Y-105186430D01*
X103549000Y-105046718D01*
X103549000Y-103953283D01*
X103562760Y-103813576D01*
X103562761Y-103813572D01*
X103617140Y-103634308D01*
X103617141Y-103634306D01*
X103617142Y-103634303D01*
X103705446Y-103469096D01*
X103824288Y-103324288D01*
X103969095Y-103205448D01*
X104134305Y-103117141D01*
X104134307Y-103117140D01*
X104313571Y-103062761D01*
X104313572Y-103062761D01*
X104313575Y-103062760D01*
X104500000Y-103044399D01*
X104686424Y-103062760D01*
X104686424Y-103062760D01*
G37*
G36*
X107086424Y-101062760D02*
X107086427Y-101062761D01*
X107086428Y-101062761D01*
X107265692Y-101117140D01*
X107265694Y-101117141D01*
X107265697Y-101117142D01*
X107430904Y-101205446D01*
X107575712Y-101324288D01*
X107694552Y-101469095D01*
X107782859Y-101634305D01*
X107837240Y-101813575D01*
X107851000Y-101953282D01*
X107851000Y-103046718D01*
X107837240Y-103186425D01*
X107837239Y-103186428D01*
X107837239Y-103186429D01*
X107782861Y-103365691D01*
X107782859Y-103365695D01*
X107694552Y-103530905D01*
X107575712Y-103675712D01*
X107430905Y-103794552D01*
X107430903Y-103794553D01*
X107265693Y-103882860D01*
X107086429Y-103937239D01*
X107086428Y-103937239D01*
X107086425Y-103937240D01*
X106900000Y-103955601D01*
X106713576Y-103937240D01*
X106713573Y-103937239D01*
X106713572Y-103937239D01*
X106534308Y-103882860D01*
X106369098Y-103794553D01*
X106369096Y-103794552D01*
X106224289Y-103675712D01*
X106105449Y-103530905D01*
X106017140Y-103365691D01*
X105962760Y-103186430D01*
X105949000Y-103046718D01*
X105949000Y-101953283D01*
X105962760Y-101813576D01*
X105962761Y-101813572D01*
X106017140Y-101634308D01*
X106017141Y-101634306D01*
X106017142Y-101634303D01*
X106105446Y-101469096D01*
X106224288Y-101324288D01*
X106369095Y-101205448D01*
X106534305Y-101117141D01*
X106534307Y-101117140D01*
X106713571Y-101062761D01*
X106713572Y-101062761D01*
X106713575Y-101062760D01*
X106900000Y-101044399D01*
X107086424Y-101062760D01*
X107086424Y-101062760D01*
G37*
G36*
X112586424Y-101062760D02*
X112586427Y-101062761D01*
X112586428Y-101062761D01*
X112765692Y-101117140D01*
X112765694Y-101117141D01*
X112765697Y-101117142D01*
X112930904Y-101205446D01*
X113075712Y-101324288D01*
X113194552Y-101469095D01*
X113282859Y-101634305D01*
X113337240Y-101813575D01*
X113351000Y-101953282D01*
X113351000Y-103046718D01*
X113337240Y-103186425D01*
X113337239Y-103186428D01*
X113337239Y-103186429D01*
X113282861Y-103365691D01*
X113282859Y-103365695D01*
X113194552Y-103530905D01*
X113075712Y-103675712D01*
X112930905Y-103794552D01*
X112930903Y-103794553D01*
X112765693Y-103882860D01*
X112586429Y-103937239D01*
X112586428Y-103937239D01*
X112586425Y-103937240D01*
X112400000Y-103955601D01*
X112213576Y-103937240D01*
X112213573Y-103937239D01*
X112213572Y-103937239D01*
X112034308Y-103882860D01*
X111869098Y-103794553D01*
X111869096Y-103794552D01*
X111724289Y-103675712D01*
X111605449Y-103530905D01*
X111517140Y-103365691D01*
X111462760Y-103186430D01*
X111449000Y-103046718D01*
X111449000Y-101953283D01*
X111462760Y-101813576D01*
X111462761Y-101813572D01*
X111517140Y-101634308D01*
X111517141Y-101634306D01*
X111517142Y-101634303D01*
X111605446Y-101469096D01*
X111724288Y-101324288D01*
X111869095Y-101205448D01*
X112034305Y-101117141D01*
X112034307Y-101117140D01*
X112213571Y-101062761D01*
X112213572Y-101062761D01*
X112213575Y-101062760D01*
X112400000Y-101044399D01*
X112586424Y-101062760D01*
X112586424Y-101062760D01*
G37*
G36*
X127262812Y-97793624D02*
X127426784Y-97861544D01*
X127574354Y-97960147D01*
X127699853Y-98085646D01*
X127798456Y-98233216D01*
X127866376Y-98397188D01*
X127901000Y-98571259D01*
X127901000Y-98748741D01*
X127866376Y-98922812D01*
X127798456Y-99086784D01*
X127699853Y-99234354D01*
X127574354Y-99359853D01*
X127426784Y-99458456D01*
X127262812Y-99526376D01*
X127088741Y-99561000D01*
X126911259Y-99561000D01*
X126737188Y-99526376D01*
X126573216Y-99458456D01*
X126425646Y-99359853D01*
X126300147Y-99234354D01*
X126201544Y-99086784D01*
X126133624Y-98922812D01*
X126099000Y-98748741D01*
X126099000Y-98571259D01*
X126133624Y-98397188D01*
X126201544Y-98233216D01*
X126300147Y-98085646D01*
X126425646Y-97960147D01*
X126573216Y-97861544D01*
X126737188Y-97793624D01*
X126911259Y-97759000D01*
X127088741Y-97759000D01*
X127262812Y-97793624D01*
X127262812Y-97793624D01*
G37*
G36*
X129802812Y-97793624D02*
X129966784Y-97861544D01*
X130114354Y-97960147D01*
X130239853Y-98085646D01*
X130338456Y-98233216D01*
X130406376Y-98397188D01*
X130441000Y-98571259D01*
X130441000Y-98748741D01*
X130406376Y-98922812D01*
X130338456Y-99086784D01*
X130239853Y-99234354D01*
X130114354Y-99359853D01*
X129966784Y-99458456D01*
X129802812Y-99526376D01*
X129628741Y-99561000D01*
X129451259Y-99561000D01*
X129277188Y-99526376D01*
X129113216Y-99458456D01*
X128965646Y-99359853D01*
X128840147Y-99234354D01*
X128741544Y-99086784D01*
X128673624Y-98922812D01*
X128639000Y-98748741D01*
X128639000Y-98571259D01*
X128673624Y-98397188D01*
X128741544Y-98233216D01*
X128840147Y-98085646D01*
X128965646Y-97960147D01*
X129113216Y-97861544D01*
X129277188Y-97793624D01*
X129451259Y-97759000D01*
X129628741Y-97759000D01*
X129802812Y-97793624D01*
X129802812Y-97793624D01*
G37*
G36*
X107851000Y-98851000D02*
X106149000Y-98851000D01*
X106149000Y-97149000D01*
X107851000Y-97149000D01*
X107851000Y-98851000D01*
X107851000Y-98851000D01*
G37*
G36*
X114786821Y-97161313D02*
X114786824Y-97161314D01*
X114786825Y-97161314D01*
X114947239Y-97209975D01*
X114947241Y-97209976D01*
X114947244Y-97209977D01*
X115095078Y-97288995D01*
X115224659Y-97395341D01*
X115331005Y-97524922D01*
X115410023Y-97672756D01*
X115410024Y-97672759D01*
X115410025Y-97672761D01*
X115458686Y-97833175D01*
X115458687Y-97833179D01*
X115475117Y-98000000D01*
X115458687Y-98166821D01*
X115458686Y-98166824D01*
X115458686Y-98166825D01*
X115438547Y-98233216D01*
X115410023Y-98327244D01*
X115331005Y-98475078D01*
X115224659Y-98604659D01*
X115095078Y-98711005D01*
X114947244Y-98790023D01*
X114947241Y-98790024D01*
X114947239Y-98790025D01*
X114786825Y-98838686D01*
X114786824Y-98838686D01*
X114786821Y-98838687D01*
X114661804Y-98851000D01*
X114578196Y-98851000D01*
X114453179Y-98838687D01*
X114453176Y-98838686D01*
X114453175Y-98838686D01*
X114292761Y-98790025D01*
X114292759Y-98790024D01*
X114292756Y-98790023D01*
X114144922Y-98711005D01*
X114015341Y-98604659D01*
X113908995Y-98475078D01*
X113829977Y-98327244D01*
X113801454Y-98233216D01*
X113781314Y-98166825D01*
X113781314Y-98166824D01*
X113781313Y-98166821D01*
X113764883Y-98000000D01*
X113781313Y-97833179D01*
X113781314Y-97833175D01*
X113829975Y-97672761D01*
X113829976Y-97672759D01*
X113829977Y-97672756D01*
X113908995Y-97524922D01*
X114015341Y-97395341D01*
X114144922Y-97288995D01*
X114292756Y-97209977D01*
X114292759Y-97209976D01*
X114292761Y-97209975D01*
X114453175Y-97161314D01*
X114453176Y-97161314D01*
X114453179Y-97161313D01*
X114578196Y-97149000D01*
X114661804Y-97149000D01*
X114786821Y-97161313D01*
X114786821Y-97161313D01*
G37*
G36*
X129802812Y-95253624D02*
X129966784Y-95321544D01*
X130114354Y-95420147D01*
X130239853Y-95545646D01*
X130338456Y-95693216D01*
X130406376Y-95857188D01*
X130441000Y-96031259D01*
X130441000Y-96208741D01*
X130406376Y-96382812D01*
X130338456Y-96546784D01*
X130239853Y-96694354D01*
X130114354Y-96819853D01*
X129966784Y-96918456D01*
X129802812Y-96986376D01*
X129628741Y-97021000D01*
X129451259Y-97021000D01*
X129277188Y-96986376D01*
X129113216Y-96918456D01*
X128965646Y-96819853D01*
X128840147Y-96694354D01*
X128741544Y-96546784D01*
X128673624Y-96382812D01*
X128639000Y-96208741D01*
X128639000Y-96031259D01*
X128673624Y-95857188D01*
X128741544Y-95693216D01*
X128840147Y-95545646D01*
X128965646Y-95420147D01*
X129113216Y-95321544D01*
X129277188Y-95253624D01*
X129451259Y-95219000D01*
X129628741Y-95219000D01*
X129802812Y-95253624D01*
X129802812Y-95253624D01*
G37*
G36*
X127262812Y-95253624D02*
X127426784Y-95321544D01*
X127574354Y-95420147D01*
X127699853Y-95545646D01*
X127798456Y-95693216D01*
X127866376Y-95857188D01*
X127901000Y-96031259D01*
X127901000Y-96208741D01*
X127866376Y-96382812D01*
X127798456Y-96546784D01*
X127699853Y-96694354D01*
X127574354Y-96819853D01*
X127426784Y-96918456D01*
X127262812Y-96986376D01*
X127088741Y-97021000D01*
X126911259Y-97021000D01*
X126737188Y-96986376D01*
X126573216Y-96918456D01*
X126425646Y-96819853D01*
X126300147Y-96694354D01*
X126201544Y-96546784D01*
X126133624Y-96382812D01*
X126099000Y-96208741D01*
X126099000Y-96031259D01*
X126133624Y-95857188D01*
X126201544Y-95693216D01*
X126300147Y-95545646D01*
X126425646Y-95420147D01*
X126573216Y-95321544D01*
X126737188Y-95253624D01*
X126911259Y-95219000D01*
X127088741Y-95219000D01*
X127262812Y-95253624D01*
X127262812Y-95253624D01*
G37*
G36*
X129802812Y-92713624D02*
X129966784Y-92781544D01*
X130114354Y-92880147D01*
X130239853Y-93005646D01*
X130338456Y-93153216D01*
X130406376Y-93317188D01*
X130441000Y-93491259D01*
X130441000Y-93668741D01*
X130406376Y-93842812D01*
X130338456Y-94006784D01*
X130239853Y-94154354D01*
X130114354Y-94279853D01*
X129966784Y-94378456D01*
X129802812Y-94446376D01*
X129628741Y-94481000D01*
X129451259Y-94481000D01*
X129277188Y-94446376D01*
X129113216Y-94378456D01*
X128965646Y-94279853D01*
X128840147Y-94154354D01*
X128741544Y-94006784D01*
X128673624Y-93842812D01*
X128639000Y-93668741D01*
X128639000Y-93491259D01*
X128673624Y-93317188D01*
X128741544Y-93153216D01*
X128840147Y-93005646D01*
X128965646Y-92880147D01*
X129113216Y-92781544D01*
X129277188Y-92713624D01*
X129451259Y-92679000D01*
X129628741Y-92679000D01*
X129802812Y-92713624D01*
X129802812Y-92713624D01*
G37*
G36*
X127262812Y-92713624D02*
X127426784Y-92781544D01*
X127574354Y-92880147D01*
X127699853Y-93005646D01*
X127798456Y-93153216D01*
X127866376Y-93317188D01*
X127901000Y-93491259D01*
X127901000Y-93668741D01*
X127866376Y-93842812D01*
X127798456Y-94006784D01*
X127699853Y-94154354D01*
X127574354Y-94279853D01*
X127426784Y-94378456D01*
X127262812Y-94446376D01*
X127088741Y-94481000D01*
X126911259Y-94481000D01*
X126737188Y-94446376D01*
X126573216Y-94378456D01*
X126425646Y-94279853D01*
X126300147Y-94154354D01*
X126201544Y-94006784D01*
X126133624Y-93842812D01*
X126099000Y-93668741D01*
X126099000Y-93491259D01*
X126133624Y-93317188D01*
X126201544Y-93153216D01*
X126300147Y-93005646D01*
X126425646Y-92880147D01*
X126573216Y-92781544D01*
X126737188Y-92713624D01*
X126911259Y-92679000D01*
X127088741Y-92679000D01*
X127262812Y-92713624D01*
X127262812Y-92713624D01*
G37*
G36*
X121748228Y-92681703D02*
X121903100Y-92745853D01*
X122042481Y-92838985D01*
X122161015Y-92957519D01*
X122254147Y-93096900D01*
X122318297Y-93251772D01*
X122351000Y-93416184D01*
X122351000Y-93583816D01*
X122318297Y-93748228D01*
X122254147Y-93903100D01*
X122161015Y-94042481D01*
X122042481Y-94161015D01*
X121903100Y-94254147D01*
X121748228Y-94318297D01*
X121583816Y-94351000D01*
X121416184Y-94351000D01*
X121251772Y-94318297D01*
X121096900Y-94254147D01*
X120957519Y-94161015D01*
X120838985Y-94042481D01*
X120745853Y-93903100D01*
X120681703Y-93748228D01*
X120649000Y-93583816D01*
X120649000Y-93416184D01*
X120681703Y-93251772D01*
X120745853Y-93096900D01*
X120838985Y-92957519D01*
X120957519Y-92838985D01*
X121096900Y-92745853D01*
X121251772Y-92681703D01*
X121416184Y-92649000D01*
X121583816Y-92649000D01*
X121748228Y-92681703D01*
X121748228Y-92681703D01*
G37*
G36*
X119851000Y-94351000D02*
X118149000Y-94351000D01*
X118149000Y-92649000D01*
X119851000Y-92649000D01*
X119851000Y-94351000D01*
X119851000Y-94351000D01*
G37*
G36*
X127262812Y-90173624D02*
X127426784Y-90241544D01*
X127574354Y-90340147D01*
X127699853Y-90465646D01*
X127798456Y-90613216D01*
X127866376Y-90777188D01*
X127901000Y-90951259D01*
X127901000Y-91128741D01*
X127866376Y-91302812D01*
X127798456Y-91466784D01*
X127699853Y-91614354D01*
X127574354Y-91739853D01*
X127426784Y-91838456D01*
X127262812Y-91906376D01*
X127088741Y-91941000D01*
X126911259Y-91941000D01*
X126737188Y-91906376D01*
X126573216Y-91838456D01*
X126425646Y-91739853D01*
X126300147Y-91614354D01*
X126201544Y-91466784D01*
X126133624Y-91302812D01*
X126099000Y-91128741D01*
X126099000Y-90951259D01*
X126133624Y-90777188D01*
X126201544Y-90613216D01*
X126300147Y-90465646D01*
X126425646Y-90340147D01*
X126573216Y-90241544D01*
X126737188Y-90173624D01*
X126911259Y-90139000D01*
X127088741Y-90139000D01*
X127262812Y-90173624D01*
X127262812Y-90173624D01*
G37*
G36*
X129802812Y-90173624D02*
X129966784Y-90241544D01*
X130114354Y-90340147D01*
X130239853Y-90465646D01*
X130338456Y-90613216D01*
X130406376Y-90777188D01*
X130441000Y-90951259D01*
X130441000Y-91128741D01*
X130406376Y-91302812D01*
X130338456Y-91466784D01*
X130239853Y-91614354D01*
X130114354Y-91739853D01*
X129966784Y-91838456D01*
X129802812Y-91906376D01*
X129628741Y-91941000D01*
X129451259Y-91941000D01*
X129277188Y-91906376D01*
X129113216Y-91838456D01*
X128965646Y-91739853D01*
X128840147Y-91614354D01*
X128741544Y-91466784D01*
X128673624Y-91302812D01*
X128639000Y-91128741D01*
X128639000Y-90951259D01*
X128673624Y-90777188D01*
X128741544Y-90613216D01*
X128840147Y-90465646D01*
X128965646Y-90340147D01*
X129113216Y-90241544D01*
X129277188Y-90173624D01*
X129451259Y-90139000D01*
X129628741Y-90139000D01*
X129802812Y-90173624D01*
X129802812Y-90173624D01*
G37*
G36*
X127901000Y-89401000D02*
X126099000Y-89401000D01*
X126099000Y-87599000D01*
X127901000Y-87599000D01*
X127901000Y-89401000D01*
X127901000Y-89401000D01*
G37*
G36*
X129802812Y-87633624D02*
X129966784Y-87701544D01*
X130114354Y-87800147D01*
X130239853Y-87925646D01*
X130338456Y-88073216D01*
X130406376Y-88237188D01*
X130441000Y-88411259D01*
X130441000Y-88588741D01*
X130406376Y-88762812D01*
X130338456Y-88926784D01*
X130239853Y-89074354D01*
X130114354Y-89199853D01*
X129966784Y-89298456D01*
X129802812Y-89366376D01*
X129628741Y-89401000D01*
X129451259Y-89401000D01*
X129277188Y-89366376D01*
X129113216Y-89298456D01*
X128965646Y-89199853D01*
X128840147Y-89074354D01*
X128741544Y-88926784D01*
X128673624Y-88762812D01*
X128639000Y-88588741D01*
X128639000Y-88411259D01*
X128673624Y-88237188D01*
X128741544Y-88073216D01*
X128840147Y-87925646D01*
X128965646Y-87800147D01*
X129113216Y-87701544D01*
X129277188Y-87633624D01*
X129451259Y-87599000D01*
X129628741Y-87599000D01*
X129802812Y-87633624D01*
X129802812Y-87633624D01*
G37*
G36*
X106748228Y-86681703D02*
X106903100Y-86745853D01*
X107042481Y-86838985D01*
X107161015Y-86957519D01*
X107254147Y-87096900D01*
X107318297Y-87251772D01*
X107351000Y-87416184D01*
X107351000Y-87583816D01*
X107318297Y-87748228D01*
X107254147Y-87903100D01*
X107161015Y-88042481D01*
X107042481Y-88161015D01*
X106903100Y-88254147D01*
X106748228Y-88318297D01*
X106583816Y-88351000D01*
X106416184Y-88351000D01*
X106251772Y-88318297D01*
X106096900Y-88254147D01*
X105957519Y-88161015D01*
X105838985Y-88042481D01*
X105745853Y-87903100D01*
X105681703Y-87748228D01*
X105649000Y-87583816D01*
X105649000Y-87416184D01*
X105681703Y-87251772D01*
X105745853Y-87096900D01*
X105838985Y-86957519D01*
X105957519Y-86838985D01*
X106096900Y-86745853D01*
X106251772Y-86681703D01*
X106416184Y-86649000D01*
X106583816Y-86649000D01*
X106748228Y-86681703D01*
X106748228Y-86681703D01*
G37*
G36*
X109851000Y-88351000D02*
X108149000Y-88351000D01*
X108149000Y-86649000D01*
X109851000Y-86649000D01*
X109851000Y-88351000D01*
X109851000Y-88351000D01*
G37*
G36*
X114533228Y-85181703D02*
X114688100Y-85245853D01*
X114827481Y-85338985D01*
X114946015Y-85457519D01*
X115039147Y-85596900D01*
X115103297Y-85751772D01*
X115136000Y-85916184D01*
X115136000Y-86083816D01*
X115103297Y-86248228D01*
X115039147Y-86403100D01*
X114946015Y-86542481D01*
X114827481Y-86661015D01*
X114688100Y-86754147D01*
X114533228Y-86818297D01*
X114368816Y-86851000D01*
X114201184Y-86851000D01*
X114036772Y-86818297D01*
X113881900Y-86754147D01*
X113742519Y-86661015D01*
X113623985Y-86542481D01*
X113530853Y-86403100D01*
X113466703Y-86248228D01*
X113434000Y-86083816D01*
X113434000Y-85916184D01*
X113466703Y-85751772D01*
X113530853Y-85596900D01*
X113623985Y-85457519D01*
X113742519Y-85338985D01*
X113881900Y-85245853D01*
X114036772Y-85181703D01*
X114201184Y-85149000D01*
X114368816Y-85149000D01*
X114533228Y-85181703D01*
X114533228Y-85181703D01*
G37*
G36*
X119533228Y-85181703D02*
X119688100Y-85245853D01*
X119827481Y-85338985D01*
X119946015Y-85457519D01*
X120039147Y-85596900D01*
X120103297Y-85751772D01*
X120136000Y-85916184D01*
X120136000Y-86083816D01*
X120103297Y-86248228D01*
X120039147Y-86403100D01*
X119946015Y-86542481D01*
X119827481Y-86661015D01*
X119688100Y-86754147D01*
X119533228Y-86818297D01*
X119368816Y-86851000D01*
X119201184Y-86851000D01*
X119036772Y-86818297D01*
X118881900Y-86754147D01*
X118742519Y-86661015D01*
X118623985Y-86542481D01*
X118530853Y-86403100D01*
X118466703Y-86248228D01*
X118434000Y-86083816D01*
X118434000Y-85916184D01*
X118466703Y-85751772D01*
X118530853Y-85596900D01*
X118623985Y-85457519D01*
X118742519Y-85338985D01*
X118881900Y-85245853D01*
X119036772Y-85181703D01*
X119201184Y-85149000D01*
X119368816Y-85149000D01*
X119533228Y-85181703D01*
X119533228Y-85181703D01*
G37*
G36*
X119531821Y-81781313D02*
X119531824Y-81781314D01*
X119531825Y-81781314D01*
X119692239Y-81829975D01*
X119692241Y-81829976D01*
X119692244Y-81829977D01*
X119840078Y-81908995D01*
X119969659Y-82015341D01*
X120076005Y-82144922D01*
X120155023Y-82292756D01*
X120155024Y-82292759D01*
X120155025Y-82292761D01*
X120203686Y-82453175D01*
X120203687Y-82453179D01*
X120220117Y-82620000D01*
X120203687Y-82786821D01*
X120203686Y-82786824D01*
X120203686Y-82786825D01*
X120178993Y-82868228D01*
X120155023Y-82947244D01*
X120076005Y-83095078D01*
X119969659Y-83224659D01*
X119840078Y-83331005D01*
X119692244Y-83410023D01*
X119692241Y-83410024D01*
X119692239Y-83410025D01*
X119531825Y-83458686D01*
X119531824Y-83458686D01*
X119531821Y-83458687D01*
X119406804Y-83471000D01*
X119323196Y-83471000D01*
X119198179Y-83458687D01*
X119198176Y-83458686D01*
X119198175Y-83458686D01*
X119037761Y-83410025D01*
X119037759Y-83410024D01*
X119037756Y-83410023D01*
X118889922Y-83331005D01*
X118760341Y-83224659D01*
X118653995Y-83095078D01*
X118574977Y-82947244D01*
X118551008Y-82868228D01*
X118526314Y-82786825D01*
X118526314Y-82786824D01*
X118526313Y-82786821D01*
X118509883Y-82620000D01*
X118526313Y-82453179D01*
X118526314Y-82453175D01*
X118574975Y-82292761D01*
X118574976Y-82292759D01*
X118574977Y-82292756D01*
X118653995Y-82144922D01*
X118760341Y-82015341D01*
X118889922Y-81908995D01*
X119037756Y-81829977D01*
X119037759Y-81829976D01*
X119037761Y-81829975D01*
X119198175Y-81781314D01*
X119198176Y-81781314D01*
X119198179Y-81781313D01*
X119323196Y-81769000D01*
X119406804Y-81769000D01*
X119531821Y-81781313D01*
X119531821Y-81781313D01*
G37*
G36*
X111993228Y-81801703D02*
X112148100Y-81865853D01*
X112287481Y-81958985D01*
X112406015Y-82077519D01*
X112499147Y-82216900D01*
X112563297Y-82371772D01*
X112596000Y-82536184D01*
X112596000Y-82703816D01*
X112563297Y-82868228D01*
X112499147Y-83023100D01*
X112406015Y-83162481D01*
X112287481Y-83281015D01*
X112148100Y-83374147D01*
X111993228Y-83438297D01*
X111828816Y-83471000D01*
X111661184Y-83471000D01*
X111496772Y-83438297D01*
X111341900Y-83374147D01*
X111202519Y-83281015D01*
X111083985Y-83162481D01*
X110990853Y-83023100D01*
X110926703Y-82868228D01*
X110894000Y-82703816D01*
X110894000Y-82536184D01*
X110926703Y-82371772D01*
X110990853Y-82216900D01*
X111083985Y-82077519D01*
X111202519Y-81958985D01*
X111341900Y-81865853D01*
X111496772Y-81801703D01*
X111661184Y-81769000D01*
X111828816Y-81769000D01*
X111993228Y-81801703D01*
X111993228Y-81801703D01*
G37*
G36*
X111993228Y-78626703D02*
X112148100Y-78690853D01*
X112287481Y-78783985D01*
X112406015Y-78902519D01*
X112499147Y-79041900D01*
X112563297Y-79196772D01*
X112596000Y-79361184D01*
X112596000Y-79528816D01*
X112563297Y-79693228D01*
X112499147Y-79848100D01*
X112406015Y-79987481D01*
X112287481Y-80106015D01*
X112148100Y-80199147D01*
X111993228Y-80263297D01*
X111828816Y-80296000D01*
X111661184Y-80296000D01*
X111496772Y-80263297D01*
X111341900Y-80199147D01*
X111202519Y-80106015D01*
X111083985Y-79987481D01*
X110990853Y-79848100D01*
X110926703Y-79693228D01*
X110894000Y-79528816D01*
X110894000Y-79361184D01*
X110926703Y-79196772D01*
X110990853Y-79041900D01*
X111083985Y-78902519D01*
X111202519Y-78783985D01*
X111341900Y-78690853D01*
X111496772Y-78626703D01*
X111661184Y-78594000D01*
X111828816Y-78594000D01*
X111993228Y-78626703D01*
X111993228Y-78626703D01*
G37*
G36*
X119531821Y-78606313D02*
X119531824Y-78606314D01*
X119531825Y-78606314D01*
X119692239Y-78654975D01*
X119692241Y-78654976D01*
X119692244Y-78654977D01*
X119840078Y-78733995D01*
X119969659Y-78840341D01*
X120076005Y-78969922D01*
X120155023Y-79117756D01*
X120155024Y-79117759D01*
X120155025Y-79117761D01*
X120203686Y-79278175D01*
X120203687Y-79278179D01*
X120220117Y-79445000D01*
X120203687Y-79611821D01*
X120203686Y-79611824D01*
X120203686Y-79611825D01*
X120165203Y-79738688D01*
X120155023Y-79772244D01*
X120076005Y-79920078D01*
X119969659Y-80049659D01*
X119840078Y-80156005D01*
X119692244Y-80235023D01*
X119692241Y-80235024D01*
X119692239Y-80235025D01*
X119531825Y-80283686D01*
X119531824Y-80283686D01*
X119531821Y-80283687D01*
X119406804Y-80296000D01*
X119323196Y-80296000D01*
X119198179Y-80283687D01*
X119198176Y-80283686D01*
X119198175Y-80283686D01*
X119037761Y-80235025D01*
X119037759Y-80235024D01*
X119037756Y-80235023D01*
X118889922Y-80156005D01*
X118760341Y-80049659D01*
X118653995Y-79920078D01*
X118574977Y-79772244D01*
X118564798Y-79738688D01*
X118526314Y-79611825D01*
X118526314Y-79611824D01*
X118526313Y-79611821D01*
X118509883Y-79445000D01*
X118526313Y-79278179D01*
X118526314Y-79278175D01*
X118574975Y-79117761D01*
X118574976Y-79117759D01*
X118574977Y-79117756D01*
X118653995Y-78969922D01*
X118760341Y-78840341D01*
X118889922Y-78733995D01*
X119037756Y-78654977D01*
X119037759Y-78654976D01*
X119037761Y-78654975D01*
X119198175Y-78606314D01*
X119198176Y-78606314D01*
X119198179Y-78606313D01*
X119323196Y-78594000D01*
X119406804Y-78594000D01*
X119531821Y-78606313D01*
X119531821Y-78606313D01*
G37*
G36*
X108277396Y-78085546D02*
X108450466Y-78157234D01*
X108606230Y-78261312D01*
X108738688Y-78393770D01*
X108842766Y-78549534D01*
X108914454Y-78722604D01*
X108951000Y-78906333D01*
X108951000Y-79093667D01*
X108914454Y-79277396D01*
X108842766Y-79450466D01*
X108738688Y-79606230D01*
X108606230Y-79738688D01*
X108450466Y-79842766D01*
X108277396Y-79914454D01*
X108093667Y-79951000D01*
X107906333Y-79951000D01*
X107722604Y-79914454D01*
X107549534Y-79842766D01*
X107393770Y-79738688D01*
X107261312Y-79606230D01*
X107157234Y-79450466D01*
X107085546Y-79277396D01*
X107049000Y-79093667D01*
X107049000Y-78906333D01*
X107085546Y-78722604D01*
X107157234Y-78549534D01*
X107261312Y-78393770D01*
X107393770Y-78261312D01*
X107549534Y-78157234D01*
X107722604Y-78085546D01*
X107906333Y-78049000D01*
X108093667Y-78049000D01*
X108277396Y-78085546D01*
X108277396Y-78085546D01*
G37*
G36*
X130851000Y-79851000D02*
X129149000Y-79851000D01*
X129149000Y-78149000D01*
X130851000Y-78149000D01*
X130851000Y-79851000D01*
X130851000Y-79851000D01*
G37*
G36*
X122546821Y-78161313D02*
X122546824Y-78161314D01*
X122546825Y-78161314D01*
X122707239Y-78209975D01*
X122707241Y-78209976D01*
X122707244Y-78209977D01*
X122855078Y-78288995D01*
X122984659Y-78395341D01*
X123091005Y-78524922D01*
X123170023Y-78672756D01*
X123170024Y-78672759D01*
X123170025Y-78672761D01*
X123218686Y-78833175D01*
X123218687Y-78833179D01*
X123235117Y-79000000D01*
X123218687Y-79166821D01*
X123218686Y-79166824D01*
X123218686Y-79166825D01*
X123185145Y-79277396D01*
X123170023Y-79327244D01*
X123091005Y-79475078D01*
X122984659Y-79604659D01*
X122855078Y-79711005D01*
X122707244Y-79790023D01*
X122707241Y-79790024D01*
X122707239Y-79790025D01*
X122546825Y-79838686D01*
X122546824Y-79838686D01*
X122546821Y-79838687D01*
X122421804Y-79851000D01*
X122338196Y-79851000D01*
X122213179Y-79838687D01*
X122213176Y-79838686D01*
X122213175Y-79838686D01*
X122052761Y-79790025D01*
X122052759Y-79790024D01*
X122052756Y-79790023D01*
X121904922Y-79711005D01*
X121775341Y-79604659D01*
X121668995Y-79475078D01*
X121589977Y-79327244D01*
X121574856Y-79277396D01*
X121541314Y-79166825D01*
X121541314Y-79166824D01*
X121541313Y-79166821D01*
X121524883Y-79000000D01*
X121541313Y-78833179D01*
X121541314Y-78833175D01*
X121589975Y-78672761D01*
X121589976Y-78672759D01*
X121589977Y-78672756D01*
X121668995Y-78524922D01*
X121775341Y-78395341D01*
X121904922Y-78288995D01*
X122052756Y-78209977D01*
X122052759Y-78209976D01*
X122052761Y-78209975D01*
X122213175Y-78161314D01*
X122213176Y-78161314D01*
X122213179Y-78161313D01*
X122338196Y-78149000D01*
X122421804Y-78149000D01*
X122546821Y-78161313D01*
X122546821Y-78161313D01*
G37*
G36*
X108277396Y-75585546D02*
X108450466Y-75657234D01*
X108606230Y-75761312D01*
X108738688Y-75893770D01*
X108842766Y-76049534D01*
X108914454Y-76222604D01*
X108951000Y-76406333D01*
X108951000Y-76593667D01*
X108914454Y-76777396D01*
X108842766Y-76950466D01*
X108738688Y-77106230D01*
X108606230Y-77238688D01*
X108450466Y-77342766D01*
X108277396Y-77414454D01*
X108093667Y-77451000D01*
X107906333Y-77451000D01*
X107722604Y-77414454D01*
X107549534Y-77342766D01*
X107393770Y-77238688D01*
X107261312Y-77106230D01*
X107157234Y-76950466D01*
X107085546Y-76777396D01*
X107049000Y-76593667D01*
X107049000Y-76406333D01*
X107085546Y-76222604D01*
X107157234Y-76049534D01*
X107261312Y-75893770D01*
X107393770Y-75761312D01*
X107549534Y-75657234D01*
X107722604Y-75585546D01*
X107906333Y-75549000D01*
X108093667Y-75549000D01*
X108277396Y-75585546D01*
X108277396Y-75585546D01*
G37*
G36*
X111748228Y-75681703D02*
X111903100Y-75745853D01*
X112042481Y-75838985D01*
X112161015Y-75957519D01*
X112254147Y-76096900D01*
X112318297Y-76251772D01*
X112351000Y-76416184D01*
X112351000Y-76583816D01*
X112318297Y-76748228D01*
X112254147Y-76903100D01*
X112161015Y-77042481D01*
X112042481Y-77161015D01*
X111903100Y-77254147D01*
X111748228Y-77318297D01*
X111583816Y-77351000D01*
X111416184Y-77351000D01*
X111251772Y-77318297D01*
X111096900Y-77254147D01*
X110957519Y-77161015D01*
X110838985Y-77042481D01*
X110745853Y-76903100D01*
X110681703Y-76748228D01*
X110649000Y-76583816D01*
X110649000Y-76416184D01*
X110681703Y-76251772D01*
X110745853Y-76096900D01*
X110838985Y-75957519D01*
X110957519Y-75838985D01*
X111096900Y-75745853D01*
X111251772Y-75681703D01*
X111416184Y-75649000D01*
X111583816Y-75649000D01*
X111748228Y-75681703D01*
X111748228Y-75681703D01*
G37*
G36*
X119286821Y-75661313D02*
X119286824Y-75661314D01*
X119286825Y-75661314D01*
X119447239Y-75709975D01*
X119447241Y-75709976D01*
X119447244Y-75709977D01*
X119595078Y-75788995D01*
X119724659Y-75895341D01*
X119831005Y-76024922D01*
X119910023Y-76172756D01*
X119910024Y-76172759D01*
X119910025Y-76172761D01*
X119946552Y-76293175D01*
X119958687Y-76333179D01*
X119975117Y-76500000D01*
X119958687Y-76666821D01*
X119958686Y-76666824D01*
X119958686Y-76666825D01*
X119922159Y-76787239D01*
X119910023Y-76827244D01*
X119831005Y-76975078D01*
X119724659Y-77104659D01*
X119595078Y-77211005D01*
X119447244Y-77290023D01*
X119447241Y-77290024D01*
X119447239Y-77290025D01*
X119286825Y-77338686D01*
X119286824Y-77338686D01*
X119286821Y-77338687D01*
X119161804Y-77351000D01*
X119078196Y-77351000D01*
X118953179Y-77338687D01*
X118953176Y-77338686D01*
X118953175Y-77338686D01*
X118792761Y-77290025D01*
X118792759Y-77290024D01*
X118792756Y-77290023D01*
X118644922Y-77211005D01*
X118515341Y-77104659D01*
X118408995Y-76975078D01*
X118329977Y-76827244D01*
X118317842Y-76787239D01*
X118281314Y-76666825D01*
X118281314Y-76666824D01*
X118281313Y-76666821D01*
X118264883Y-76500000D01*
X118281313Y-76333179D01*
X118293448Y-76293175D01*
X118329975Y-76172761D01*
X118329976Y-76172759D01*
X118329977Y-76172756D01*
X118408995Y-76024922D01*
X118515341Y-75895341D01*
X118644922Y-75788995D01*
X118792756Y-75709977D01*
X118792759Y-75709976D01*
X118792761Y-75709975D01*
X118953175Y-75661314D01*
X118953176Y-75661314D01*
X118953179Y-75661313D01*
X119078196Y-75649000D01*
X119161804Y-75649000D01*
X119286821Y-75661313D01*
X119286821Y-75661313D01*
G37*
G36*
X130166821Y-75621313D02*
X130166824Y-75621314D01*
X130166825Y-75621314D01*
X130327239Y-75669975D01*
X130327241Y-75669976D01*
X130327244Y-75669977D01*
X130475078Y-75748995D01*
X130604659Y-75855341D01*
X130711005Y-75984922D01*
X130790023Y-76132756D01*
X130790024Y-76132759D01*
X130790025Y-76132761D01*
X130838686Y-76293175D01*
X130838687Y-76293179D01*
X130855117Y-76460000D01*
X130838687Y-76626821D01*
X130838686Y-76626824D01*
X130838686Y-76626825D01*
X130793011Y-76777396D01*
X130790023Y-76787244D01*
X130711005Y-76935078D01*
X130604659Y-77064659D01*
X130475078Y-77171005D01*
X130327244Y-77250023D01*
X130327241Y-77250024D01*
X130327239Y-77250025D01*
X130166825Y-77298686D01*
X130166824Y-77298686D01*
X130166821Y-77298687D01*
X130041804Y-77311000D01*
X129958196Y-77311000D01*
X129833179Y-77298687D01*
X129833176Y-77298686D01*
X129833175Y-77298686D01*
X129672761Y-77250025D01*
X129672759Y-77250024D01*
X129672756Y-77250023D01*
X129524922Y-77171005D01*
X129395341Y-77064659D01*
X129288995Y-76935078D01*
X129209977Y-76787244D01*
X129206990Y-76777396D01*
X129161314Y-76626825D01*
X129161314Y-76626824D01*
X129161313Y-76626821D01*
X129144883Y-76460000D01*
X129161313Y-76293179D01*
X129161314Y-76293175D01*
X129209975Y-76132761D01*
X129209976Y-76132759D01*
X129209977Y-76132756D01*
X129288995Y-75984922D01*
X129395341Y-75855341D01*
X129524922Y-75748995D01*
X129672756Y-75669977D01*
X129672759Y-75669976D01*
X129672761Y-75669975D01*
X129833175Y-75621314D01*
X129833176Y-75621314D01*
X129833179Y-75621313D01*
X129958196Y-75609000D01*
X130041804Y-75609000D01*
X130166821Y-75621313D01*
X130166821Y-75621313D01*
G37*
G36*
X122546821Y-75621313D02*
X122546824Y-75621314D01*
X122546825Y-75621314D01*
X122707239Y-75669975D01*
X122707241Y-75669976D01*
X122707244Y-75669977D01*
X122855078Y-75748995D01*
X122984659Y-75855341D01*
X123091005Y-75984922D01*
X123170023Y-76132756D01*
X123170024Y-76132759D01*
X123170025Y-76132761D01*
X123218686Y-76293175D01*
X123218687Y-76293179D01*
X123235117Y-76460000D01*
X123218687Y-76626821D01*
X123218686Y-76626824D01*
X123218686Y-76626825D01*
X123173011Y-76777396D01*
X123170023Y-76787244D01*
X123091005Y-76935078D01*
X122984659Y-77064659D01*
X122855078Y-77171005D01*
X122707244Y-77250023D01*
X122707241Y-77250024D01*
X122707239Y-77250025D01*
X122546825Y-77298686D01*
X122546824Y-77298686D01*
X122546821Y-77298687D01*
X122421804Y-77311000D01*
X122338196Y-77311000D01*
X122213179Y-77298687D01*
X122213176Y-77298686D01*
X122213175Y-77298686D01*
X122052761Y-77250025D01*
X122052759Y-77250024D01*
X122052756Y-77250023D01*
X121904922Y-77171005D01*
X121775341Y-77064659D01*
X121668995Y-76935078D01*
X121589977Y-76787244D01*
X121586990Y-76777396D01*
X121541314Y-76626825D01*
X121541314Y-76626824D01*
X121541313Y-76626821D01*
X121524883Y-76460000D01*
X121541313Y-76293179D01*
X121541314Y-76293175D01*
X121589975Y-76132761D01*
X121589976Y-76132759D01*
X121589977Y-76132756D01*
X121668995Y-75984922D01*
X121775341Y-75855341D01*
X121904922Y-75748995D01*
X122052756Y-75669977D01*
X122052759Y-75669976D01*
X122052761Y-75669975D01*
X122213175Y-75621314D01*
X122213176Y-75621314D01*
X122213179Y-75621313D01*
X122338196Y-75609000D01*
X122421804Y-75609000D01*
X122546821Y-75621313D01*
X122546821Y-75621313D01*
G37*
G36*
X108277396Y-73085546D02*
X108450466Y-73157234D01*
X108606230Y-73261312D01*
X108738688Y-73393770D01*
X108842766Y-73549534D01*
X108914454Y-73722604D01*
X108951000Y-73906333D01*
X108951000Y-74093667D01*
X108914454Y-74277396D01*
X108842766Y-74450466D01*
X108738688Y-74606230D01*
X108606230Y-74738688D01*
X108450466Y-74842766D01*
X108277396Y-74914454D01*
X108093667Y-74951000D01*
X107906333Y-74951000D01*
X107722604Y-74914454D01*
X107549534Y-74842766D01*
X107393770Y-74738688D01*
X107261312Y-74606230D01*
X107157234Y-74450466D01*
X107085546Y-74277396D01*
X107049000Y-74093667D01*
X107049000Y-73906333D01*
X107085546Y-73722604D01*
X107157234Y-73549534D01*
X107261312Y-73393770D01*
X107393770Y-73261312D01*
X107549534Y-73157234D01*
X107722604Y-73085546D01*
X107906333Y-73049000D01*
X108093667Y-73049000D01*
X108277396Y-73085546D01*
X108277396Y-73085546D01*
G37*
G36*
X119286821Y-73161313D02*
X119286824Y-73161314D01*
X119286825Y-73161314D01*
X119447239Y-73209975D01*
X119447241Y-73209976D01*
X119447244Y-73209977D01*
X119595078Y-73288995D01*
X119724659Y-73395341D01*
X119831005Y-73524922D01*
X119910023Y-73672756D01*
X119910024Y-73672759D01*
X119910025Y-73672761D01*
X119958686Y-73833175D01*
X119958687Y-73833179D01*
X119975117Y-74000000D01*
X119958687Y-74166821D01*
X119958686Y-74166824D01*
X119958686Y-74166825D01*
X119925145Y-74277396D01*
X119910023Y-74327244D01*
X119831005Y-74475078D01*
X119724659Y-74604659D01*
X119595078Y-74711005D01*
X119447244Y-74790023D01*
X119447241Y-74790024D01*
X119447239Y-74790025D01*
X119286825Y-74838686D01*
X119286824Y-74838686D01*
X119286821Y-74838687D01*
X119161804Y-74851000D01*
X119078196Y-74851000D01*
X118953179Y-74838687D01*
X118953176Y-74838686D01*
X118953175Y-74838686D01*
X118792761Y-74790025D01*
X118792759Y-74790024D01*
X118792756Y-74790023D01*
X118644922Y-74711005D01*
X118515341Y-74604659D01*
X118408995Y-74475078D01*
X118329977Y-74327244D01*
X118314856Y-74277396D01*
X118281314Y-74166825D01*
X118281314Y-74166824D01*
X118281313Y-74166821D01*
X118264883Y-74000000D01*
X118281313Y-73833179D01*
X118281314Y-73833175D01*
X118329975Y-73672761D01*
X118329976Y-73672759D01*
X118329977Y-73672756D01*
X118408995Y-73524922D01*
X118515341Y-73395341D01*
X118644922Y-73288995D01*
X118792756Y-73209977D01*
X118792759Y-73209976D01*
X118792761Y-73209975D01*
X118953175Y-73161314D01*
X118953176Y-73161314D01*
X118953179Y-73161313D01*
X119078196Y-73149000D01*
X119161804Y-73149000D01*
X119286821Y-73161313D01*
X119286821Y-73161313D01*
G37*
G36*
X112351000Y-74851000D02*
X110649000Y-74851000D01*
X110649000Y-73149000D01*
X112351000Y-73149000D01*
X112351000Y-74851000D01*
X112351000Y-74851000D01*
G37*
G36*
X130166821Y-73081313D02*
X130166824Y-73081314D01*
X130166825Y-73081314D01*
X130327239Y-73129975D01*
X130327241Y-73129976D01*
X130327244Y-73129977D01*
X130475078Y-73208995D01*
X130604659Y-73315341D01*
X130711005Y-73444922D01*
X130790023Y-73592756D01*
X130790024Y-73592759D01*
X130790025Y-73592761D01*
X130829412Y-73722604D01*
X130838687Y-73753179D01*
X130855117Y-73920000D01*
X130838687Y-74086821D01*
X130838686Y-74086824D01*
X130838686Y-74086825D01*
X130814420Y-74166821D01*
X130790023Y-74247244D01*
X130711005Y-74395078D01*
X130604659Y-74524659D01*
X130475078Y-74631005D01*
X130327244Y-74710023D01*
X130327241Y-74710024D01*
X130327239Y-74710025D01*
X130166825Y-74758686D01*
X130166824Y-74758686D01*
X130166821Y-74758687D01*
X130041804Y-74771000D01*
X129958196Y-74771000D01*
X129833179Y-74758687D01*
X129833176Y-74758686D01*
X129833175Y-74758686D01*
X129672761Y-74710025D01*
X129672759Y-74710024D01*
X129672756Y-74710023D01*
X129524922Y-74631005D01*
X129395341Y-74524659D01*
X129288995Y-74395078D01*
X129209977Y-74247244D01*
X129185581Y-74166821D01*
X129161314Y-74086825D01*
X129161314Y-74086824D01*
X129161313Y-74086821D01*
X129144883Y-73920000D01*
X129161313Y-73753179D01*
X129170588Y-73722604D01*
X129209975Y-73592761D01*
X129209976Y-73592759D01*
X129209977Y-73592756D01*
X129288995Y-73444922D01*
X129395341Y-73315341D01*
X129524922Y-73208995D01*
X129672756Y-73129977D01*
X129672759Y-73129976D01*
X129672761Y-73129975D01*
X129833175Y-73081314D01*
X129833176Y-73081314D01*
X129833179Y-73081313D01*
X129958196Y-73069000D01*
X130041804Y-73069000D01*
X130166821Y-73081313D01*
X130166821Y-73081313D01*
G37*
G36*
X122546821Y-73081313D02*
X122546824Y-73081314D01*
X122546825Y-73081314D01*
X122707239Y-73129975D01*
X122707241Y-73129976D01*
X122707244Y-73129977D01*
X122855078Y-73208995D01*
X122984659Y-73315341D01*
X123091005Y-73444922D01*
X123170023Y-73592756D01*
X123170024Y-73592759D01*
X123170025Y-73592761D01*
X123209412Y-73722604D01*
X123218687Y-73753179D01*
X123235117Y-73920000D01*
X123218687Y-74086821D01*
X123218686Y-74086824D01*
X123218686Y-74086825D01*
X123194420Y-74166821D01*
X123170023Y-74247244D01*
X123091005Y-74395078D01*
X122984659Y-74524659D01*
X122855078Y-74631005D01*
X122707244Y-74710023D01*
X122707241Y-74710024D01*
X122707239Y-74710025D01*
X122546825Y-74758686D01*
X122546824Y-74758686D01*
X122546821Y-74758687D01*
X122421804Y-74771000D01*
X122338196Y-74771000D01*
X122213179Y-74758687D01*
X122213176Y-74758686D01*
X122213175Y-74758686D01*
X122052761Y-74710025D01*
X122052759Y-74710024D01*
X122052756Y-74710023D01*
X121904922Y-74631005D01*
X121775341Y-74524659D01*
X121668995Y-74395078D01*
X121589977Y-74247244D01*
X121565581Y-74166821D01*
X121541314Y-74086825D01*
X121541314Y-74086824D01*
X121541313Y-74086821D01*
X121524883Y-73920000D01*
X121541313Y-73753179D01*
X121550588Y-73722604D01*
X121589975Y-73592761D01*
X121589976Y-73592759D01*
X121589977Y-73592756D01*
X121668995Y-73444922D01*
X121775341Y-73315341D01*
X121904922Y-73208995D01*
X122052756Y-73129977D01*
X122052759Y-73129976D01*
X122052761Y-73129975D01*
X122213175Y-73081314D01*
X122213176Y-73081314D01*
X122213179Y-73081313D01*
X122338196Y-73069000D01*
X122421804Y-73069000D01*
X122546821Y-73081313D01*
X122546821Y-73081313D01*
G37*
G36*
X130166821Y-70541313D02*
X130166824Y-70541314D01*
X130166825Y-70541314D01*
X130327239Y-70589975D01*
X130327241Y-70589976D01*
X130327244Y-70589977D01*
X130475078Y-70668995D01*
X130604659Y-70775341D01*
X130711005Y-70904922D01*
X130790023Y-71052756D01*
X130790024Y-71052759D01*
X130790025Y-71052761D01*
X130823713Y-71163816D01*
X130838687Y-71213179D01*
X130855117Y-71380000D01*
X130838687Y-71546821D01*
X130838686Y-71546824D01*
X130838686Y-71546825D01*
X130796875Y-71684659D01*
X130790023Y-71707244D01*
X130711005Y-71855078D01*
X130604659Y-71984659D01*
X130475078Y-72091005D01*
X130327244Y-72170023D01*
X130327241Y-72170024D01*
X130327239Y-72170025D01*
X130166825Y-72218686D01*
X130166824Y-72218686D01*
X130166821Y-72218687D01*
X130041804Y-72231000D01*
X129958196Y-72231000D01*
X129833179Y-72218687D01*
X129833176Y-72218686D01*
X129833175Y-72218686D01*
X129672761Y-72170025D01*
X129672759Y-72170024D01*
X129672756Y-72170023D01*
X129524922Y-72091005D01*
X129395341Y-71984659D01*
X129288995Y-71855078D01*
X129209977Y-71707244D01*
X129203126Y-71684659D01*
X129161314Y-71546825D01*
X129161314Y-71546824D01*
X129161313Y-71546821D01*
X129144883Y-71380000D01*
X129161313Y-71213179D01*
X129176287Y-71163816D01*
X129209975Y-71052761D01*
X129209976Y-71052759D01*
X129209977Y-71052756D01*
X129288995Y-70904922D01*
X129395341Y-70775341D01*
X129524922Y-70668995D01*
X129672756Y-70589977D01*
X129672759Y-70589976D01*
X129672761Y-70589975D01*
X129833175Y-70541314D01*
X129833176Y-70541314D01*
X129833179Y-70541313D01*
X129958196Y-70529000D01*
X130041804Y-70529000D01*
X130166821Y-70541313D01*
X130166821Y-70541313D01*
G37*
G36*
X122546821Y-70541313D02*
X122546824Y-70541314D01*
X122546825Y-70541314D01*
X122707239Y-70589975D01*
X122707241Y-70589976D01*
X122707244Y-70589977D01*
X122855078Y-70668995D01*
X122984659Y-70775341D01*
X123091005Y-70904922D01*
X123170023Y-71052756D01*
X123170024Y-71052759D01*
X123170025Y-71052761D01*
X123203713Y-71163816D01*
X123218687Y-71213179D01*
X123235117Y-71380000D01*
X123218687Y-71546821D01*
X123218686Y-71546824D01*
X123218686Y-71546825D01*
X123176875Y-71684659D01*
X123170023Y-71707244D01*
X123091005Y-71855078D01*
X122984659Y-71984659D01*
X122855078Y-72091005D01*
X122707244Y-72170023D01*
X122707241Y-72170024D01*
X122707239Y-72170025D01*
X122546825Y-72218686D01*
X122546824Y-72218686D01*
X122546821Y-72218687D01*
X122421804Y-72231000D01*
X122338196Y-72231000D01*
X122213179Y-72218687D01*
X122213176Y-72218686D01*
X122213175Y-72218686D01*
X122052761Y-72170025D01*
X122052759Y-72170024D01*
X122052756Y-72170023D01*
X121904922Y-72091005D01*
X121775341Y-71984659D01*
X121668995Y-71855078D01*
X121589977Y-71707244D01*
X121583126Y-71684659D01*
X121541314Y-71546825D01*
X121541314Y-71546824D01*
X121541313Y-71546821D01*
X121524883Y-71380000D01*
X121541313Y-71213179D01*
X121556287Y-71163816D01*
X121589975Y-71052761D01*
X121589976Y-71052759D01*
X121589977Y-71052756D01*
X121668995Y-70904922D01*
X121775341Y-70775341D01*
X121904922Y-70668995D01*
X122052756Y-70589977D01*
X122052759Y-70589976D01*
X122052761Y-70589975D01*
X122213175Y-70541314D01*
X122213176Y-70541314D01*
X122213179Y-70541313D01*
X122338196Y-70529000D01*
X122421804Y-70529000D01*
X122546821Y-70541313D01*
X122546821Y-70541313D01*
G37*
G36*
X111751821Y-70241313D02*
X111751824Y-70241314D01*
X111751825Y-70241314D01*
X111912239Y-70289975D01*
X111912241Y-70289976D01*
X111912244Y-70289977D01*
X112060078Y-70368995D01*
X112189659Y-70475341D01*
X112296005Y-70604922D01*
X112375023Y-70752756D01*
X112375024Y-70752759D01*
X112375025Y-70752761D01*
X112421182Y-70904922D01*
X112423687Y-70913179D01*
X112440117Y-71080000D01*
X112423687Y-71246821D01*
X112423686Y-71246824D01*
X112423686Y-71246825D01*
X112383288Y-71380000D01*
X112375023Y-71407244D01*
X112296005Y-71555078D01*
X112189659Y-71684659D01*
X112060078Y-71791005D01*
X111912244Y-71870023D01*
X111912241Y-71870024D01*
X111912239Y-71870025D01*
X111751825Y-71918686D01*
X111751824Y-71918686D01*
X111751821Y-71918687D01*
X111626804Y-71931000D01*
X111543196Y-71931000D01*
X111418179Y-71918687D01*
X111418176Y-71918686D01*
X111418175Y-71918686D01*
X111257761Y-71870025D01*
X111257759Y-71870024D01*
X111257756Y-71870023D01*
X111109922Y-71791005D01*
X110980341Y-71684659D01*
X110873995Y-71555078D01*
X110794977Y-71407244D01*
X110786713Y-71380000D01*
X110746314Y-71246825D01*
X110746314Y-71246824D01*
X110746313Y-71246821D01*
X110729883Y-71080000D01*
X110746313Y-70913179D01*
X110748818Y-70904922D01*
X110794975Y-70752761D01*
X110794976Y-70752759D01*
X110794977Y-70752756D01*
X110873995Y-70604922D01*
X110980341Y-70475341D01*
X111109922Y-70368995D01*
X111257756Y-70289977D01*
X111257759Y-70289976D01*
X111257761Y-70289975D01*
X111418175Y-70241314D01*
X111418176Y-70241314D01*
X111418179Y-70241313D01*
X111543196Y-70229000D01*
X111626804Y-70229000D01*
X111751821Y-70241313D01*
X111751821Y-70241313D01*
G37*
G36*
X119453228Y-70261703D02*
X119608100Y-70325853D01*
X119747481Y-70418985D01*
X119866015Y-70537519D01*
X119959147Y-70676900D01*
X120023297Y-70831772D01*
X120056000Y-70996184D01*
X120056000Y-71163816D01*
X120023297Y-71328228D01*
X119959147Y-71483100D01*
X119866015Y-71622481D01*
X119747481Y-71741015D01*
X119608100Y-71834147D01*
X119453228Y-71898297D01*
X119288816Y-71931000D01*
X119121184Y-71931000D01*
X118956772Y-71898297D01*
X118801900Y-71834147D01*
X118662519Y-71741015D01*
X118543985Y-71622481D01*
X118450853Y-71483100D01*
X118386703Y-71328228D01*
X118354000Y-71163816D01*
X118354000Y-70996184D01*
X118386703Y-70831772D01*
X118450853Y-70676900D01*
X118543985Y-70537519D01*
X118662519Y-70418985D01*
X118801900Y-70325853D01*
X118956772Y-70261703D01*
X119121184Y-70229000D01*
X119288816Y-70229000D01*
X119453228Y-70261703D01*
X119453228Y-70261703D01*
G37*
G36*
X122748228Y-67181703D02*
X122903100Y-67245853D01*
X123042481Y-67338985D01*
X123161015Y-67457519D01*
X123254147Y-67596900D01*
X123318297Y-67751772D01*
X123351000Y-67916184D01*
X123351000Y-68083816D01*
X123318297Y-68248228D01*
X123254147Y-68403100D01*
X123161015Y-68542481D01*
X123042481Y-68661015D01*
X122903100Y-68754147D01*
X122748228Y-68818297D01*
X122583816Y-68851000D01*
X122416184Y-68851000D01*
X122251772Y-68818297D01*
X122096900Y-68754147D01*
X121957519Y-68661015D01*
X121838985Y-68542481D01*
X121745853Y-68403100D01*
X121681703Y-68248228D01*
X121649000Y-68083816D01*
X121649000Y-67916184D01*
X121681703Y-67751772D01*
X121745853Y-67596900D01*
X121838985Y-67457519D01*
X121957519Y-67338985D01*
X122096900Y-67245853D01*
X122251772Y-67181703D01*
X122416184Y-67149000D01*
X122583816Y-67149000D01*
X122748228Y-67181703D01*
X122748228Y-67181703D01*
G37*
G36*
X127748228Y-67181703D02*
X127903100Y-67245853D01*
X128042481Y-67338985D01*
X128161015Y-67457519D01*
X128254147Y-67596900D01*
X128318297Y-67751772D01*
X128351000Y-67916184D01*
X128351000Y-68083816D01*
X128318297Y-68248228D01*
X128254147Y-68403100D01*
X128161015Y-68542481D01*
X128042481Y-68661015D01*
X127903100Y-68754147D01*
X127748228Y-68818297D01*
X127583816Y-68851000D01*
X127416184Y-68851000D01*
X127251772Y-68818297D01*
X127096900Y-68754147D01*
X126957519Y-68661015D01*
X126838985Y-68542481D01*
X126745853Y-68403100D01*
X126681703Y-68248228D01*
X126649000Y-68083816D01*
X126649000Y-67916184D01*
X126681703Y-67751772D01*
X126745853Y-67596900D01*
X126838985Y-67457519D01*
X126957519Y-67338985D01*
X127096900Y-67245853D01*
X127251772Y-67181703D01*
X127416184Y-67149000D01*
X127583816Y-67149000D01*
X127748228Y-67181703D01*
X127748228Y-67181703D01*
G37*
G36*
X119453228Y-67086703D02*
X119608100Y-67150853D01*
X119747481Y-67243985D01*
X119866015Y-67362519D01*
X119959147Y-67501900D01*
X120023297Y-67656772D01*
X120056000Y-67821184D01*
X120056000Y-67988816D01*
X120023297Y-68153228D01*
X119959147Y-68308100D01*
X119866015Y-68447481D01*
X119747481Y-68566015D01*
X119608100Y-68659147D01*
X119453228Y-68723297D01*
X119288816Y-68756000D01*
X119121184Y-68756000D01*
X118956772Y-68723297D01*
X118801900Y-68659147D01*
X118662519Y-68566015D01*
X118543985Y-68447481D01*
X118450853Y-68308100D01*
X118386703Y-68153228D01*
X118354000Y-67988816D01*
X118354000Y-67821184D01*
X118386703Y-67656772D01*
X118450853Y-67501900D01*
X118543985Y-67362519D01*
X118662519Y-67243985D01*
X118801900Y-67150853D01*
X118956772Y-67086703D01*
X119121184Y-67054000D01*
X119288816Y-67054000D01*
X119453228Y-67086703D01*
X119453228Y-67086703D01*
G37*
G36*
X111751821Y-67066313D02*
X111751824Y-67066314D01*
X111751825Y-67066314D01*
X111912239Y-67114975D01*
X111912241Y-67114976D01*
X111912244Y-67114977D01*
X112060078Y-67193995D01*
X112189659Y-67300341D01*
X112296005Y-67429922D01*
X112375023Y-67577756D01*
X112375024Y-67577759D01*
X112375025Y-67577761D01*
X112423686Y-67738175D01*
X112423687Y-67738179D01*
X112440117Y-67905000D01*
X112423687Y-68071821D01*
X112423686Y-68071824D01*
X112423686Y-68071825D01*
X112398993Y-68153228D01*
X112375023Y-68232244D01*
X112296005Y-68380078D01*
X112189659Y-68509659D01*
X112060078Y-68616005D01*
X111912244Y-68695023D01*
X111912241Y-68695024D01*
X111912239Y-68695025D01*
X111751825Y-68743686D01*
X111751824Y-68743686D01*
X111751821Y-68743687D01*
X111626804Y-68756000D01*
X111543196Y-68756000D01*
X111418179Y-68743687D01*
X111418176Y-68743686D01*
X111418175Y-68743686D01*
X111257761Y-68695025D01*
X111257759Y-68695024D01*
X111257756Y-68695023D01*
X111109922Y-68616005D01*
X110980341Y-68509659D01*
X110873995Y-68380078D01*
X110794977Y-68232244D01*
X110771008Y-68153228D01*
X110746314Y-68071825D01*
X110746314Y-68071824D01*
X110746313Y-68071821D01*
X110729883Y-67905000D01*
X110746313Y-67738179D01*
X110746314Y-67738175D01*
X110794975Y-67577761D01*
X110794976Y-67577759D01*
X110794977Y-67577756D01*
X110873995Y-67429922D01*
X110980341Y-67300341D01*
X111109922Y-67193995D01*
X111257756Y-67114977D01*
X111257759Y-67114976D01*
X111257761Y-67114975D01*
X111418175Y-67066314D01*
X111418176Y-67066314D01*
X111418179Y-67066313D01*
X111543196Y-67054000D01*
X111626804Y-67054000D01*
X111751821Y-67066313D01*
X111751821Y-67066313D01*
G37*
G36*
X112436000Y-63636000D02*
X110734000Y-63636000D01*
X110734000Y-61934000D01*
X112436000Y-61934000D01*
X112436000Y-63636000D01*
X112436000Y-63636000D01*
G37*
G36*
X119371821Y-61946313D02*
X119371824Y-61946314D01*
X119371825Y-61946314D01*
X119532239Y-61994975D01*
X119532241Y-61994976D01*
X119532244Y-61994977D01*
X119680078Y-62073995D01*
X119809659Y-62180341D01*
X119916005Y-62309922D01*
X119995023Y-62457756D01*
X120043687Y-62618179D01*
X120060117Y-62785000D01*
X120043687Y-62951821D01*
X119995023Y-63112244D01*
X119916005Y-63260078D01*
X119809659Y-63389659D01*
X119680078Y-63496005D01*
X119532244Y-63575023D01*
X119532241Y-63575024D01*
X119532239Y-63575025D01*
X119371825Y-63623686D01*
X119371824Y-63623686D01*
X119371821Y-63623687D01*
X119246804Y-63636000D01*
X119163196Y-63636000D01*
X119038179Y-63623687D01*
X119038176Y-63623686D01*
X119038175Y-63623686D01*
X118877761Y-63575025D01*
X118877759Y-63575024D01*
X118877756Y-63575023D01*
X118729922Y-63496005D01*
X118600341Y-63389659D01*
X118493995Y-63260078D01*
X118414977Y-63112244D01*
X118366313Y-62951821D01*
X118349883Y-62785000D01*
X118366313Y-62618179D01*
X118414977Y-62457756D01*
X118493995Y-62309922D01*
X118600341Y-62180341D01*
X118729922Y-62073995D01*
X118877756Y-61994977D01*
X118877759Y-61994976D01*
X118877761Y-61994975D01*
X119038175Y-61946314D01*
X119038176Y-61946314D01*
X119038179Y-61946313D01*
X119163196Y-61934000D01*
X119246804Y-61934000D01*
X119371821Y-61946313D01*
X119371821Y-61946313D01*
G37*
G36*
X127773643Y-60729781D02*
X127919415Y-60790162D01*
X128050611Y-60877824D01*
X128162176Y-60989389D01*
X128249838Y-61120585D01*
X128310219Y-61266357D01*
X128341000Y-61421107D01*
X128341000Y-61578893D01*
X128310219Y-61733643D01*
X128249838Y-61879415D01*
X128162176Y-62010611D01*
X128050611Y-62122176D01*
X127919415Y-62209838D01*
X127773643Y-62270219D01*
X127618893Y-62301000D01*
X127461107Y-62301000D01*
X127306357Y-62270219D01*
X127160585Y-62209838D01*
X127029389Y-62122176D01*
X126917824Y-62010611D01*
X126830162Y-61879415D01*
X126769781Y-61733643D01*
X126739000Y-61578893D01*
X126739000Y-61421107D01*
X126769781Y-61266357D01*
X126830162Y-61120585D01*
X126917824Y-60989389D01*
X127029389Y-60877824D01*
X127160585Y-60790162D01*
X127306357Y-60729781D01*
X127461107Y-60699000D01*
X127618893Y-60699000D01*
X127773643Y-60729781D01*
X127773643Y-60729781D01*
G37*
G36*
X125801000Y-62301000D02*
X124199000Y-62301000D01*
X124199000Y-60699000D01*
X125801000Y-60699000D01*
X125801000Y-62301000D01*
X125801000Y-62301000D01*
G37*
G36*
X130313643Y-60729781D02*
X130459415Y-60790162D01*
X130590611Y-60877824D01*
X130702176Y-60989389D01*
X130789838Y-61120585D01*
X130850219Y-61266357D01*
X130881000Y-61421107D01*
X130881000Y-61578893D01*
X130850219Y-61733643D01*
X130789838Y-61879415D01*
X130702176Y-62010611D01*
X130590611Y-62122176D01*
X130459415Y-62209838D01*
X130313643Y-62270219D01*
X130158893Y-62301000D01*
X130001107Y-62301000D01*
X129846357Y-62270219D01*
X129700585Y-62209838D01*
X129569389Y-62122176D01*
X129457824Y-62010611D01*
X129370162Y-61879415D01*
X129309781Y-61733643D01*
X129279000Y-61578893D01*
X129279000Y-61421107D01*
X129309781Y-61266357D01*
X129370162Y-61120585D01*
X129457824Y-60989389D01*
X129569389Y-60877824D01*
X129700585Y-60790162D01*
X129846357Y-60729781D01*
X130001107Y-60699000D01*
X130158893Y-60699000D01*
X130313643Y-60729781D01*
X130313643Y-60729781D01*
G37*
G36*
X111546821Y-59161313D02*
X111546824Y-59161314D01*
X111546825Y-59161314D01*
X111707239Y-59209975D01*
X111707241Y-59209976D01*
X111707244Y-59209977D01*
X111855078Y-59288995D01*
X111984659Y-59395341D01*
X112091005Y-59524922D01*
X112170023Y-59672756D01*
X112170024Y-59672759D01*
X112170025Y-59672761D01*
X112218686Y-59833175D01*
X112218687Y-59833179D01*
X112235117Y-60000000D01*
X112218687Y-60166821D01*
X112218686Y-60166824D01*
X112218686Y-60166825D01*
X112193993Y-60248228D01*
X112170023Y-60327244D01*
X112091005Y-60475078D01*
X111984659Y-60604659D01*
X111855078Y-60711005D01*
X111707244Y-60790023D01*
X111707241Y-60790024D01*
X111707239Y-60790025D01*
X111546825Y-60838686D01*
X111546824Y-60838686D01*
X111546821Y-60838687D01*
X111421804Y-60851000D01*
X111338196Y-60851000D01*
X111213179Y-60838687D01*
X111213176Y-60838686D01*
X111213175Y-60838686D01*
X111052761Y-60790025D01*
X111052759Y-60790024D01*
X111052756Y-60790023D01*
X110904922Y-60711005D01*
X110775341Y-60604659D01*
X110668995Y-60475078D01*
X110589977Y-60327244D01*
X110566008Y-60248228D01*
X110541314Y-60166825D01*
X110541314Y-60166824D01*
X110541313Y-60166821D01*
X110524883Y-60000000D01*
X110541313Y-59833179D01*
X110541314Y-59833175D01*
X110589975Y-59672761D01*
X110589976Y-59672759D01*
X110589977Y-59672756D01*
X110668995Y-59524922D01*
X110775341Y-59395341D01*
X110904922Y-59288995D01*
X111052756Y-59209977D01*
X111052759Y-59209976D01*
X111052761Y-59209975D01*
X111213175Y-59161314D01*
X111213176Y-59161314D01*
X111213179Y-59161313D01*
X111338196Y-59149000D01*
X111421804Y-59149000D01*
X111546821Y-59161313D01*
X111546821Y-59161313D01*
G37*
G36*
X119248228Y-59181703D02*
X119403100Y-59245853D01*
X119542481Y-59338985D01*
X119661015Y-59457519D01*
X119754147Y-59596900D01*
X119818297Y-59751772D01*
X119851000Y-59916184D01*
X119851000Y-60083816D01*
X119818297Y-60248228D01*
X119754147Y-60403100D01*
X119661015Y-60542481D01*
X119542481Y-60661015D01*
X119403100Y-60754147D01*
X119248228Y-60818297D01*
X119083816Y-60851000D01*
X118916184Y-60851000D01*
X118751772Y-60818297D01*
X118596900Y-60754147D01*
X118457519Y-60661015D01*
X118338985Y-60542481D01*
X118245853Y-60403100D01*
X118181703Y-60248228D01*
X118149000Y-60083816D01*
X118149000Y-59916184D01*
X118181703Y-59751772D01*
X118245853Y-59596900D01*
X118338985Y-59457519D01*
X118457519Y-59338985D01*
X118596900Y-59245853D01*
X118751772Y-59181703D01*
X118916184Y-59149000D01*
X119083816Y-59149000D01*
X119248228Y-59181703D01*
X119248228Y-59181703D01*
G37*
G36*
X116748228Y-56181703D02*
X116903100Y-56245853D01*
X117042481Y-56338985D01*
X117161015Y-56457519D01*
X117254147Y-56596900D01*
X117318297Y-56751772D01*
X117351000Y-56916184D01*
X117351000Y-57083816D01*
X117318297Y-57248228D01*
X117254147Y-57403100D01*
X117161015Y-57542481D01*
X117042481Y-57661015D01*
X116903100Y-57754147D01*
X116748228Y-57818297D01*
X116583816Y-57851000D01*
X116416184Y-57851000D01*
X116251772Y-57818297D01*
X116096900Y-57754147D01*
X115957519Y-57661015D01*
X115838985Y-57542481D01*
X115745853Y-57403100D01*
X115681703Y-57248228D01*
X115649000Y-57083816D01*
X115649000Y-56916184D01*
X115681703Y-56751772D01*
X115745853Y-56596900D01*
X115838985Y-56457519D01*
X115957519Y-56338985D01*
X116096900Y-56245853D01*
X116251772Y-56181703D01*
X116416184Y-56149000D01*
X116583816Y-56149000D01*
X116748228Y-56181703D01*
X116748228Y-56181703D01*
G37*
G36*
X111748228Y-56181703D02*
X111903100Y-56245853D01*
X112042481Y-56338985D01*
X112161015Y-56457519D01*
X112254147Y-56596900D01*
X112318297Y-56751772D01*
X112351000Y-56916184D01*
X112351000Y-57083816D01*
X112318297Y-57248228D01*
X112254147Y-57403100D01*
X112161015Y-57542481D01*
X112042481Y-57661015D01*
X111903100Y-57754147D01*
X111748228Y-57818297D01*
X111583816Y-57851000D01*
X111416184Y-57851000D01*
X111251772Y-57818297D01*
X111096900Y-57754147D01*
X110957519Y-57661015D01*
X110838985Y-57542481D01*
X110745853Y-57403100D01*
X110681703Y-57248228D01*
X110649000Y-57083816D01*
X110649000Y-56916184D01*
X110681703Y-56751772D01*
X110745853Y-56596900D01*
X110838985Y-56457519D01*
X110957519Y-56338985D01*
X111096900Y-56245853D01*
X111251772Y-56181703D01*
X111416184Y-56149000D01*
X111583816Y-56149000D01*
X111748228Y-56181703D01*
X111748228Y-56181703D01*
G37*
G36*
X108052396Y-55520546D02*
X108225466Y-55592234D01*
X108381230Y-55696312D01*
X108513688Y-55828770D01*
X108617766Y-55984534D01*
X108689454Y-56157604D01*
X108726000Y-56341333D01*
X108726000Y-56528667D01*
X108689454Y-56712396D01*
X108617766Y-56885466D01*
X108513688Y-57041230D01*
X108381230Y-57173688D01*
X108225466Y-57277766D01*
X108052396Y-57349454D01*
X107868667Y-57386000D01*
X107681333Y-57386000D01*
X107497604Y-57349454D01*
X107324534Y-57277766D01*
X107168770Y-57173688D01*
X107036312Y-57041230D01*
X106932234Y-56885466D01*
X106860546Y-56712396D01*
X106824000Y-56528667D01*
X106824000Y-56341333D01*
X106860546Y-56157604D01*
X106932234Y-55984534D01*
X107036312Y-55828770D01*
X107168770Y-55696312D01*
X107324534Y-55592234D01*
X107497604Y-55520546D01*
X107681333Y-55484000D01*
X107868667Y-55484000D01*
X108052396Y-55520546D01*
X108052396Y-55520546D01*
G37*
G36*
X130313643Y-55729781D02*
X130459415Y-55790162D01*
X130590611Y-55877824D01*
X130702176Y-55989389D01*
X130789838Y-56120585D01*
X130850219Y-56266357D01*
X130881000Y-56421107D01*
X130881000Y-56578893D01*
X130850219Y-56733643D01*
X130789838Y-56879415D01*
X130702176Y-57010611D01*
X130590611Y-57122176D01*
X130459415Y-57209838D01*
X130313643Y-57270219D01*
X130158893Y-57301000D01*
X130001107Y-57301000D01*
X129846357Y-57270219D01*
X129700585Y-57209838D01*
X129569389Y-57122176D01*
X129457824Y-57010611D01*
X129370162Y-56879415D01*
X129309781Y-56733643D01*
X129279000Y-56578893D01*
X129279000Y-56421107D01*
X129309781Y-56266357D01*
X129370162Y-56120585D01*
X129457824Y-55989389D01*
X129569389Y-55877824D01*
X129700585Y-55790162D01*
X129846357Y-55729781D01*
X130001107Y-55699000D01*
X130158893Y-55699000D01*
X130313643Y-55729781D01*
X130313643Y-55729781D01*
G37*
G36*
X125801000Y-57301000D02*
X124199000Y-57301000D01*
X124199000Y-55699000D01*
X125801000Y-55699000D01*
X125801000Y-57301000D01*
X125801000Y-57301000D01*
G37*
G36*
X127773643Y-55729781D02*
X127919415Y-55790162D01*
X128050611Y-55877824D01*
X128162176Y-55989389D01*
X128249838Y-56120585D01*
X128310219Y-56266357D01*
X128341000Y-56421107D01*
X128341000Y-56578893D01*
X128310219Y-56733643D01*
X128249838Y-56879415D01*
X128162176Y-57010611D01*
X128050611Y-57122176D01*
X127919415Y-57209838D01*
X127773643Y-57270219D01*
X127618893Y-57301000D01*
X127461107Y-57301000D01*
X127306357Y-57270219D01*
X127160585Y-57209838D01*
X127029389Y-57122176D01*
X126917824Y-57010611D01*
X126830162Y-56879415D01*
X126769781Y-56733643D01*
X126739000Y-56578893D01*
X126739000Y-56421107D01*
X126769781Y-56266357D01*
X126830162Y-56120585D01*
X126917824Y-55989389D01*
X127029389Y-55877824D01*
X127160585Y-55790162D01*
X127306357Y-55729781D01*
X127461107Y-55699000D01*
X127618893Y-55699000D01*
X127773643Y-55729781D01*
X127773643Y-55729781D01*
G37*
G36*
X108052396Y-53020546D02*
X108225466Y-53092234D01*
X108381230Y-53196312D01*
X108513688Y-53328770D01*
X108617766Y-53484534D01*
X108689454Y-53657604D01*
X108726000Y-53841333D01*
X108726000Y-54028667D01*
X108689454Y-54212396D01*
X108617766Y-54385466D01*
X108513688Y-54541230D01*
X108381230Y-54673688D01*
X108225466Y-54777766D01*
X108052396Y-54849454D01*
X107868667Y-54886000D01*
X107681333Y-54886000D01*
X107497604Y-54849454D01*
X107324534Y-54777766D01*
X107168770Y-54673688D01*
X107036312Y-54541230D01*
X106932234Y-54385466D01*
X106860546Y-54212396D01*
X106824000Y-54028667D01*
X106824000Y-53841333D01*
X106860546Y-53657604D01*
X106932234Y-53484534D01*
X107036312Y-53328770D01*
X107168770Y-53196312D01*
X107324534Y-53092234D01*
X107497604Y-53020546D01*
X107681333Y-52984000D01*
X107868667Y-52984000D01*
X108052396Y-53020546D01*
X108052396Y-53020546D01*
G37*
G36*
X111833228Y-53181703D02*
X111988100Y-53245853D01*
X112127481Y-53338985D01*
X112246015Y-53457519D01*
X112339147Y-53596900D01*
X112403297Y-53751772D01*
X112436000Y-53916184D01*
X112436000Y-54083816D01*
X112403297Y-54248228D01*
X112339147Y-54403100D01*
X112246015Y-54542481D01*
X112127481Y-54661015D01*
X111988100Y-54754147D01*
X111833228Y-54818297D01*
X111668816Y-54851000D01*
X111501184Y-54851000D01*
X111336772Y-54818297D01*
X111181900Y-54754147D01*
X111042519Y-54661015D01*
X110923985Y-54542481D01*
X110830853Y-54403100D01*
X110766703Y-54248228D01*
X110734000Y-54083816D01*
X110734000Y-53916184D01*
X110766703Y-53751772D01*
X110830853Y-53596900D01*
X110923985Y-53457519D01*
X111042519Y-53338985D01*
X111181900Y-53245853D01*
X111336772Y-53181703D01*
X111501184Y-53149000D01*
X111668816Y-53149000D01*
X111833228Y-53181703D01*
X111833228Y-53181703D01*
G37*
G36*
X119371821Y-53161313D02*
X119371824Y-53161314D01*
X119371825Y-53161314D01*
X119532239Y-53209975D01*
X119532241Y-53209976D01*
X119532244Y-53209977D01*
X119680078Y-53288995D01*
X119809659Y-53395341D01*
X119916005Y-53524922D01*
X119995023Y-53672756D01*
X119995024Y-53672759D01*
X119995025Y-53672761D01*
X120043686Y-53833175D01*
X120043687Y-53833179D01*
X120060117Y-54000000D01*
X120043687Y-54166821D01*
X120043686Y-54166824D01*
X120043686Y-54166825D01*
X120018993Y-54248228D01*
X119995023Y-54327244D01*
X119916005Y-54475078D01*
X119809659Y-54604659D01*
X119680078Y-54711005D01*
X119532244Y-54790023D01*
X119532241Y-54790024D01*
X119532239Y-54790025D01*
X119371825Y-54838686D01*
X119371824Y-54838686D01*
X119371821Y-54838687D01*
X119246804Y-54851000D01*
X119163196Y-54851000D01*
X119038179Y-54838687D01*
X119038176Y-54838686D01*
X119038175Y-54838686D01*
X118877761Y-54790025D01*
X118877759Y-54790024D01*
X118877756Y-54790023D01*
X118729922Y-54711005D01*
X118600341Y-54604659D01*
X118493995Y-54475078D01*
X118414977Y-54327244D01*
X118391008Y-54248228D01*
X118366314Y-54166825D01*
X118366314Y-54166824D01*
X118366313Y-54166821D01*
X118349883Y-54000000D01*
X118366313Y-53833179D01*
X118366314Y-53833175D01*
X118414975Y-53672761D01*
X118414976Y-53672759D01*
X118414977Y-53672756D01*
X118493995Y-53524922D01*
X118600341Y-53395341D01*
X118729922Y-53288995D01*
X118877756Y-53209977D01*
X118877759Y-53209976D01*
X118877761Y-53209975D01*
X119038175Y-53161314D01*
X119038176Y-53161314D01*
X119038179Y-53161313D01*
X119163196Y-53149000D01*
X119246804Y-53149000D01*
X119371821Y-53161313D01*
X119371821Y-53161313D01*
G37*
G36*
X108052396Y-50520546D02*
X108225466Y-50592234D01*
X108381230Y-50696312D01*
X108513688Y-50828770D01*
X108617766Y-50984534D01*
X108689454Y-51157604D01*
X108726000Y-51341333D01*
X108726000Y-51528667D01*
X108689454Y-51712396D01*
X108617766Y-51885466D01*
X108513688Y-52041230D01*
X108381230Y-52173688D01*
X108225466Y-52277766D01*
X108052396Y-52349454D01*
X107868667Y-52386000D01*
X107681333Y-52386000D01*
X107497604Y-52349454D01*
X107324534Y-52277766D01*
X107168770Y-52173688D01*
X107036312Y-52041230D01*
X106932234Y-51885466D01*
X106860546Y-51712396D01*
X106824000Y-51528667D01*
X106824000Y-51341333D01*
X106860546Y-51157604D01*
X106932234Y-50984534D01*
X107036312Y-50828770D01*
X107168770Y-50696312D01*
X107324534Y-50592234D01*
X107497604Y-50520546D01*
X107681333Y-50484000D01*
X107868667Y-50484000D01*
X108052396Y-50520546D01*
X108052396Y-50520546D01*
G37*
G36*
X125801000Y-52301000D02*
X124199000Y-52301000D01*
X124199000Y-50699000D01*
X125801000Y-50699000D01*
X125801000Y-52301000D01*
X125801000Y-52301000D01*
G37*
G36*
X127773643Y-50729781D02*
X127919415Y-50790162D01*
X128050611Y-50877824D01*
X128162176Y-50989389D01*
X128249838Y-51120585D01*
X128310219Y-51266357D01*
X128341000Y-51421107D01*
X128341000Y-51578893D01*
X128310219Y-51733643D01*
X128249838Y-51879415D01*
X128162176Y-52010611D01*
X128050611Y-52122176D01*
X127919415Y-52209838D01*
X127773643Y-52270219D01*
X127618893Y-52301000D01*
X127461107Y-52301000D01*
X127306357Y-52270219D01*
X127160585Y-52209838D01*
X127029389Y-52122176D01*
X126917824Y-52010611D01*
X126830162Y-51879415D01*
X126769781Y-51733643D01*
X126739000Y-51578893D01*
X126739000Y-51421107D01*
X126769781Y-51266357D01*
X126830162Y-51120585D01*
X126917824Y-50989389D01*
X127029389Y-50877824D01*
X127160585Y-50790162D01*
X127306357Y-50729781D01*
X127461107Y-50699000D01*
X127618893Y-50699000D01*
X127773643Y-50729781D01*
X127773643Y-50729781D01*
G37*
G36*
X130313643Y-50729781D02*
X130459415Y-50790162D01*
X130590611Y-50877824D01*
X130702176Y-50989389D01*
X130789838Y-51120585D01*
X130850219Y-51266357D01*
X130881000Y-51421107D01*
X130881000Y-51578893D01*
X130850219Y-51733643D01*
X130789838Y-51879415D01*
X130702176Y-52010611D01*
X130590611Y-52122176D01*
X130459415Y-52209838D01*
X130313643Y-52270219D01*
X130158893Y-52301000D01*
X130001107Y-52301000D01*
X129846357Y-52270219D01*
X129700585Y-52209838D01*
X129569389Y-52122176D01*
X129457824Y-52010611D01*
X129370162Y-51879415D01*
X129309781Y-51733643D01*
X129279000Y-51578893D01*
X129279000Y-51421107D01*
X129309781Y-51266357D01*
X129370162Y-51120585D01*
X129457824Y-50989389D01*
X129569389Y-50877824D01*
X129700585Y-50790162D01*
X129846357Y-50729781D01*
X130001107Y-50699000D01*
X130158893Y-50699000D01*
X130313643Y-50729781D01*
X130313643Y-50729781D01*
G37*
G36*
X119851000Y-51851000D02*
X118149000Y-51851000D01*
X118149000Y-50149000D01*
X119851000Y-50149000D01*
X119851000Y-51851000D01*
X119851000Y-51851000D01*
G37*
G36*
X111546821Y-50161313D02*
X111546824Y-50161314D01*
X111546825Y-50161314D01*
X111707239Y-50209975D01*
X111707241Y-50209976D01*
X111707244Y-50209977D01*
X111855078Y-50288995D01*
X111984659Y-50395341D01*
X112091005Y-50524922D01*
X112170023Y-50672756D01*
X112170024Y-50672759D01*
X112170025Y-50672761D01*
X112218686Y-50833175D01*
X112218687Y-50833179D01*
X112235117Y-51000000D01*
X112218687Y-51166821D01*
X112170023Y-51327244D01*
X112091005Y-51475078D01*
X111984659Y-51604659D01*
X111855078Y-51711005D01*
X111707244Y-51790023D01*
X111707241Y-51790024D01*
X111707239Y-51790025D01*
X111546825Y-51838686D01*
X111546824Y-51838686D01*
X111546821Y-51838687D01*
X111421804Y-51851000D01*
X111338196Y-51851000D01*
X111213179Y-51838687D01*
X111213176Y-51838686D01*
X111213175Y-51838686D01*
X111052761Y-51790025D01*
X111052759Y-51790024D01*
X111052756Y-51790023D01*
X110904922Y-51711005D01*
X110775341Y-51604659D01*
X110668995Y-51475078D01*
X110589977Y-51327244D01*
X110541313Y-51166821D01*
X110524883Y-51000000D01*
X110541313Y-50833179D01*
X110541314Y-50833175D01*
X110589975Y-50672761D01*
X110589976Y-50672759D01*
X110589977Y-50672756D01*
X110668995Y-50524922D01*
X110775341Y-50395341D01*
X110904922Y-50288995D01*
X111052756Y-50209977D01*
X111052759Y-50209976D01*
X111052761Y-50209975D01*
X111213175Y-50161314D01*
X111213176Y-50161314D01*
X111213179Y-50161313D01*
X111338196Y-50149000D01*
X111421804Y-50149000D01*
X111546821Y-50161313D01*
X111546821Y-50161313D01*
G37*
M02*
