G04 #@! TF.GenerationSoftware,KiCad,Pcbnew,5.0.1*
G04 #@! TF.CreationDate,2019-05-06T23:45:27+02:00*
G04 #@! TF.ProjectId,adadad,6164616461642E6B696361645F706362,rev?*
G04 #@! TF.SameCoordinates,Original*
G04 #@! TF.FileFunction,Copper,L2,Bot,Signal*
G04 #@! TF.FilePolarity,Positive*
%FSLAX46Y46*%
G04 Gerber Fmt 4.6, Leading zero omitted, Abs format (unit mm)*
G04 Created by KiCad (PCBNEW 5.0.1) date Mo 06 Mai 2019 23:45:27 CEST*
%MOMM*%
%LPD*%
G01*
G04 APERTURE LIST*
G04 #@! TA.AperFunction,ComponentPad*
%ADD10C,1.440000*%
G04 #@! TD*
G04 #@! TA.AperFunction,ComponentPad*
%ADD11R,1.600000X1.600000*%
G04 #@! TD*
G04 #@! TA.AperFunction,ComponentPad*
%ADD12O,1.600000X1.600000*%
G04 #@! TD*
G04 #@! TA.AperFunction,ComponentPad*
%ADD13C,1.700000*%
G04 #@! TD*
G04 #@! TA.AperFunction,ComponentPad*
%ADD14R,1.700000X1.700000*%
G04 #@! TD*
G04 #@! TA.AperFunction,ComponentPad*
%ADD15R,2.200000X2.200000*%
G04 #@! TD*
G04 #@! TA.AperFunction,ComponentPad*
%ADD16O,2.200000X2.200000*%
G04 #@! TD*
G04 #@! TA.AperFunction,ComponentPad*
%ADD17R,1.800000X1.800000*%
G04 #@! TD*
G04 #@! TA.AperFunction,ComponentPad*
%ADD18C,1.800000*%
G04 #@! TD*
G04 #@! TA.AperFunction,ComponentPad*
%ADD19C,1.600000*%
G04 #@! TD*
G04 #@! TA.AperFunction,ComponentPad*
%ADD20C,1.500000*%
G04 #@! TD*
G04 #@! TA.AperFunction,ComponentPad*
%ADD21R,1.500000X1.500000*%
G04 #@! TD*
G04 #@! TA.AperFunction,ComponentPad*
%ADD22O,1.800000X2.800000*%
G04 #@! TD*
G04 #@! TA.AperFunction,ViaPad*
%ADD23C,0.800000*%
G04 #@! TD*
G04 #@! TA.AperFunction,Conductor*
%ADD24C,1.000000*%
G04 #@! TD*
G04 #@! TA.AperFunction,Conductor*
%ADD25C,0.500000*%
G04 #@! TD*
G04 #@! TA.AperFunction,Conductor*
%ADD26C,0.254000*%
G04 #@! TD*
G04 APERTURE END LIST*
D10*
G04 #@! TO.P,RV2,3*
G04 #@! TO.N,Net-(D6-Pad2)*
X124920000Y-114000000D03*
G04 #@! TO.P,RV2,2*
G04 #@! TO.N,Net-(RV2-Pad2)*
X127460000Y-114000000D03*
G04 #@! TO.P,RV2,1*
G04 #@! TO.N,Net-(C3-Pad2)*
X130000000Y-114000000D03*
G04 #@! TD*
G04 #@! TO.P,RV1,1*
G04 #@! TO.N,+12V*
X130000000Y-119500000D03*
G04 #@! TO.P,RV1,2*
G04 #@! TO.N,Net-(RV1-Pad2)*
X127460000Y-119500000D03*
G04 #@! TO.P,RV1,3*
G04 #@! TO.N,GND*
X124920000Y-119500000D03*
G04 #@! TD*
D11*
G04 #@! TO.P,D7,1*
G04 #@! TO.N,Net-(D4-Pad2)*
X106500000Y-130500000D03*
D12*
G04 #@! TO.P,D7,2*
G04 #@! TO.N,Net-(D4-Pad1)*
X114120000Y-130500000D03*
G04 #@! TD*
D11*
G04 #@! TO.P,U2,1*
G04 #@! TO.N,Net-(OUT_J4-PadT)*
X131000000Y-143000000D03*
D12*
G04 #@! TO.P,U2,8*
G04 #@! TO.N,Net-(D4-Pad1)*
X120840000Y-127760000D03*
G04 #@! TO.P,U2,2*
G04 #@! TO.N,Net-(OUT_J4-PadT)*
X131000000Y-140460000D03*
G04 #@! TO.P,U2,9*
G04 #@! TO.N,Net-(D4-Pad2)*
X120840000Y-130300000D03*
G04 #@! TO.P,U2,3*
G04 #@! TO.N,Net-(C3-Pad2)*
X131000000Y-137920000D03*
G04 #@! TO.P,U2,10*
G04 #@! TO.N,GND*
X120840000Y-132840000D03*
G04 #@! TO.P,U2,4*
G04 #@! TO.N,+12V*
X131000000Y-135380000D03*
G04 #@! TO.P,U2,11*
G04 #@! TO.N,-12V*
X120840000Y-135380000D03*
G04 #@! TO.P,U2,5*
G04 #@! TO.N,Net-(RV1-Pad2)*
X131000000Y-132840000D03*
G04 #@! TO.P,U2,12*
G04 #@! TO.N,N/C*
X120840000Y-137920000D03*
G04 #@! TO.P,U2,6*
G04 #@! TO.N,Net-(RV2-Pad2)*
X131000000Y-130300000D03*
G04 #@! TO.P,U2,13*
G04 #@! TO.N,N/C*
X120840000Y-140460000D03*
G04 #@! TO.P,U2,7*
G04 #@! TO.N,Net-(D6-Pad2)*
X131000000Y-127760000D03*
G04 #@! TO.P,U2,14*
G04 #@! TO.N,N/C*
X120840000Y-143000000D03*
G04 #@! TD*
D13*
G04 #@! TO.P,J1,10*
G04 #@! TO.N,+12V*
X129540000Y-98660000D03*
G04 #@! TO.P,J1,9*
X127000000Y-98660000D03*
G04 #@! TO.P,J1,8*
G04 #@! TO.N,GND*
X129540000Y-96120000D03*
G04 #@! TO.P,J1,7*
X127000000Y-96120000D03*
G04 #@! TO.P,J1,6*
X129540000Y-93580000D03*
G04 #@! TO.P,J1,5*
X127000000Y-93580000D03*
G04 #@! TO.P,J1,4*
X129540000Y-91040000D03*
G04 #@! TO.P,J1,3*
X127000000Y-91040000D03*
G04 #@! TO.P,J1,2*
G04 #@! TO.N,-12V*
X129540000Y-88500000D03*
D14*
G04 #@! TO.P,J1,1*
X127000000Y-88500000D03*
G04 #@! TD*
D15*
G04 #@! TO.P,D6,1*
G04 #@! TO.N,Net-(D6-Pad1)*
X105000000Y-134000000D03*
D16*
G04 #@! TO.P,D6,2*
G04 #@! TO.N,Net-(D6-Pad2)*
X115160000Y-134000000D03*
G04 #@! TD*
D17*
G04 #@! TO.P,D4,1*
G04 #@! TO.N,Net-(D4-Pad1)*
X106500000Y-114500000D03*
D18*
G04 #@! TO.P,D4,2*
G04 #@! TO.N,Net-(D4-Pad2)*
X106500000Y-111960000D03*
G04 #@! TD*
D19*
G04 #@! TO.P,R10,1*
G04 #@! TO.N,Net-(D4-Pad2)*
X111500000Y-112000000D03*
D12*
G04 #@! TO.P,R10,2*
G04 #@! TO.N,Net-(C3-Pad2)*
X119120000Y-112000000D03*
G04 #@! TD*
D19*
G04 #@! TO.P,C4,2*
G04 #@! TO.N,-12V*
X121500000Y-93500000D03*
D11*
G04 #@! TO.P,C4,1*
G04 #@! TO.N,GND*
X119000000Y-93500000D03*
G04 #@! TD*
G04 #@! TO.P,C5,1*
G04 #@! TO.N,+12V*
X109000000Y-87500000D03*
D19*
G04 #@! TO.P,C5,2*
G04 #@! TO.N,GND*
X106500000Y-87500000D03*
G04 #@! TD*
D20*
G04 #@! TO.P,Q1,2*
G04 #@! TO.N,Net-(D1-Pad1)*
X127540000Y-61500000D03*
G04 #@! TO.P,Q1,3*
G04 #@! TO.N,GND*
X130080000Y-61500000D03*
D21*
G04 #@! TO.P,Q1,1*
G04 #@! TO.N,Net-(Q1-Pad1)*
X125000000Y-61500000D03*
G04 #@! TD*
G04 #@! TO.P,Q2,1*
G04 #@! TO.N,Net-(C1-Pad2)*
X125000000Y-51500000D03*
D20*
G04 #@! TO.P,Q2,3*
G04 #@! TO.N,GND*
X130080000Y-51500000D03*
G04 #@! TO.P,Q2,2*
G04 #@! TO.N,Net-(Q2-Pad2)*
X127540000Y-51500000D03*
G04 #@! TD*
G04 #@! TO.P,Q3,2*
G04 #@! TO.N,Net-(Q3-Pad2)*
X127540000Y-56500000D03*
G04 #@! TO.P,Q3,3*
G04 #@! TO.N,GND*
X130080000Y-56500000D03*
D21*
G04 #@! TO.P,Q3,1*
G04 #@! TO.N,Net-(Q3-Pad1)*
X125000000Y-56500000D03*
G04 #@! TD*
D22*
G04 #@! TO.P,EoC_J1,S*
G04 #@! TO.N,Net-(EoC_J1-PadS)*
X104500000Y-140500000D03*
G04 #@! TO.P,EoC_J1,T*
G04 #@! TO.N,Net-(D6-Pad1)*
X106900000Y-138500000D03*
G04 #@! TO.P,EoC_J1,R*
G04 #@! TO.N,GND*
X112400000Y-138500000D03*
G04 #@! TD*
G04 #@! TO.P,GATE_J2,S*
G04 #@! TO.N,Net-(GATE_J2-PadS)*
X104500000Y-104500000D03*
G04 #@! TO.P,GATE_J2,T*
G04 #@! TO.N,Net-(D1-Pad1)*
X106900000Y-102500000D03*
G04 #@! TO.P,GATE_J2,R*
G04 #@! TO.N,GND*
X112400000Y-102500000D03*
G04 #@! TD*
G04 #@! TO.P,OUT_J4,S*
G04 #@! TO.N,Net-(OUT_J4-PadS)*
X104500000Y-122500000D03*
G04 #@! TO.P,OUT_J4,T*
G04 #@! TO.N,Net-(OUT_J4-PadT)*
X106900000Y-120500000D03*
G04 #@! TO.P,OUT_J4,R*
G04 #@! TO.N,GND*
X112400000Y-120500000D03*
G04 #@! TD*
D18*
G04 #@! TO.P,Attack1,3*
G04 #@! TO.N,Net-(Attack1-Pad2)*
X107775000Y-56435000D03*
G04 #@! TO.P,Attack1,2*
X107775000Y-53935000D03*
G04 #@! TO.P,Attack1,1*
G04 #@! TO.N,Net-(Attack1-Pad1)*
X107775000Y-51435000D03*
G04 #@! TD*
G04 #@! TO.P,Decay1,3*
G04 #@! TO.N,Net-(Decay1-Pad2)*
X108000000Y-79000000D03*
G04 #@! TO.P,Decay1,2*
X108000000Y-76500000D03*
G04 #@! TO.P,Decay1,1*
G04 #@! TO.N,Net-(D5-Pad1)*
X108000000Y-74000000D03*
G04 #@! TD*
D19*
G04 #@! TO.P,C1,2*
G04 #@! TO.N,Net-(C1-Pad2)*
X116500000Y-57000000D03*
G04 #@! TO.P,C1,1*
G04 #@! TO.N,Net-(C1-Pad1)*
X111500000Y-57000000D03*
G04 #@! TD*
G04 #@! TO.P,C2,1*
G04 #@! TO.N,Net-(C2-Pad1)*
X122500000Y-68000000D03*
G04 #@! TO.P,C2,2*
G04 #@! TO.N,GND*
X127500000Y-68000000D03*
G04 #@! TD*
G04 #@! TO.P,C3,2*
G04 #@! TO.N,Net-(C3-Pad2)*
X119285000Y-86000000D03*
G04 #@! TO.P,C3,1*
G04 #@! TO.N,GND*
X114285000Y-86000000D03*
G04 #@! TD*
D12*
G04 #@! TO.P,D1,2*
G04 #@! TO.N,GND*
X114620000Y-98000000D03*
D11*
G04 #@! TO.P,D1,1*
G04 #@! TO.N,Net-(D1-Pad1)*
X107000000Y-98000000D03*
G04 #@! TD*
G04 #@! TO.P,D2,1*
G04 #@! TO.N,Net-(C1-Pad1)*
X111585000Y-62785000D03*
D12*
G04 #@! TO.P,D2,2*
G04 #@! TO.N,GND*
X119205000Y-62785000D03*
G04 #@! TD*
G04 #@! TO.P,D3,2*
G04 #@! TO.N,Net-(Attack1-Pad1)*
X111380000Y-51000000D03*
D11*
G04 #@! TO.P,D3,1*
G04 #@! TO.N,Net-(C3-Pad2)*
X119000000Y-51000000D03*
G04 #@! TD*
D12*
G04 #@! TO.P,D5,2*
G04 #@! TO.N,Net-(C3-Pad2)*
X119120000Y-74000000D03*
D11*
G04 #@! TO.P,D5,1*
G04 #@! TO.N,Net-(D5-Pad1)*
X111500000Y-74000000D03*
G04 #@! TD*
D19*
G04 #@! TO.P,R2,1*
G04 #@! TO.N,+12V*
X119205000Y-71080000D03*
D12*
G04 #@! TO.P,R2,2*
G04 #@! TO.N,Net-(Q1-Pad1)*
X111585000Y-71080000D03*
G04 #@! TD*
G04 #@! TO.P,R5,2*
G04 #@! TO.N,Net-(C1-Pad1)*
X111380000Y-60000000D03*
D19*
G04 #@! TO.P,R5,1*
G04 #@! TO.N,Net-(Q3-Pad2)*
X119000000Y-60000000D03*
G04 #@! TD*
G04 #@! TO.P,R6,1*
G04 #@! TO.N,+12V*
X111745000Y-79445000D03*
D12*
G04 #@! TO.P,R6,2*
G04 #@! TO.N,Net-(Q3-Pad1)*
X119365000Y-79445000D03*
G04 #@! TD*
D19*
G04 #@! TO.P,R8,1*
G04 #@! TO.N,Net-(Attack1-Pad2)*
X111585000Y-54000000D03*
D12*
G04 #@! TO.P,R8,2*
G04 #@! TO.N,Net-(R8-Pad2)*
X119205000Y-54000000D03*
G04 #@! TD*
D19*
G04 #@! TO.P,R9,1*
G04 #@! TO.N,Net-(Decay1-Pad2)*
X111500000Y-76500000D03*
D12*
G04 #@! TO.P,R9,2*
G04 #@! TO.N,Net-(R9-Pad2)*
X119120000Y-76500000D03*
G04 #@! TD*
D19*
G04 #@! TO.P,R4,1*
G04 #@! TO.N,+12V*
X111745000Y-82620000D03*
D12*
G04 #@! TO.P,R4,2*
G04 #@! TO.N,Net-(C1-Pad2)*
X119365000Y-82620000D03*
G04 #@! TD*
G04 #@! TO.P,R3,2*
G04 #@! TO.N,Net-(Q1-Pad1)*
X111585000Y-67905000D03*
D19*
G04 #@! TO.P,R3,1*
G04 #@! TO.N,Net-(Q2-Pad2)*
X119205000Y-67905000D03*
G04 #@! TD*
D12*
G04 #@! TO.P,U1,8*
G04 #@! TO.N,+12V*
X122380000Y-79000000D03*
G04 #@! TO.P,U1,4*
G04 #@! TO.N,Net-(C1-Pad2)*
X130000000Y-71380000D03*
G04 #@! TO.P,U1,7*
G04 #@! TO.N,Net-(R9-Pad2)*
X122380000Y-76460000D03*
G04 #@! TO.P,U1,3*
G04 #@! TO.N,Net-(R8-Pad2)*
X130000000Y-73920000D03*
G04 #@! TO.P,U1,6*
G04 #@! TO.N,Net-(C3-Pad2)*
X122380000Y-73920000D03*
G04 #@! TO.P,U1,2*
G04 #@! TO.N,Net-(Q3-Pad1)*
X130000000Y-76460000D03*
G04 #@! TO.P,U1,5*
G04 #@! TO.N,Net-(C2-Pad1)*
X122380000Y-71380000D03*
D11*
G04 #@! TO.P,U1,1*
G04 #@! TO.N,GND*
X130000000Y-79000000D03*
G04 #@! TD*
D23*
G04 #@! TO.N,Net-(C1-Pad2)*
X120615001Y-66500000D03*
G04 #@! TD*
D24*
G04 #@! TO.N,+12V*
X128500000Y-98660000D02*
X127000000Y-98660000D01*
X129540000Y-98660000D02*
X128500000Y-98660000D01*
D25*
X131000000Y-135380000D02*
X132250001Y-134129999D01*
X129540000Y-99862081D02*
X132250001Y-102572082D01*
X132250001Y-102572082D02*
X132250001Y-103000000D01*
X129540000Y-98660000D02*
X129540000Y-99862081D01*
X130000000Y-119500000D02*
X132000000Y-119500000D01*
X132250001Y-119500000D02*
X132250001Y-103000000D01*
X132250001Y-119500000D02*
X130000000Y-119500000D01*
X132250001Y-134129999D02*
X132250001Y-119500000D01*
G04 #@! TO.N,Net-(Q2-Pad2)*
X123500000Y-49500000D02*
X126600660Y-49500000D01*
X118000000Y-67905000D02*
X114500000Y-64405000D01*
X127540000Y-50439340D02*
X127540000Y-51500000D01*
X119205000Y-67905000D02*
X118000000Y-67905000D01*
X114500000Y-64405000D02*
X114500000Y-56000000D01*
X114500000Y-56000000D02*
X118000000Y-52500000D01*
X118000000Y-52500000D02*
X120500000Y-52500000D01*
X126600660Y-49500000D02*
X127540000Y-50439340D01*
X120500000Y-52500000D02*
X123500000Y-49500000D01*
G04 #@! TO.N,Net-(C1-Pad2)*
X116500000Y-63000000D02*
X116500000Y-57000000D01*
X119500000Y-64500000D02*
X118000000Y-64500000D01*
X120500000Y-65500000D02*
X120500000Y-65500000D01*
X118000000Y-64500000D02*
X116500000Y-63000000D01*
X120615001Y-65615001D02*
X120500000Y-65500000D01*
X120615001Y-82501369D02*
X120615001Y-66500000D01*
X120496370Y-82620000D02*
X120615001Y-82501369D01*
X119365000Y-82620000D02*
X120496370Y-82620000D01*
X120500000Y-65500000D02*
X119500000Y-64500000D01*
X120615001Y-66500000D02*
X120615001Y-65615001D01*
D24*
G04 #@! TO.N,Net-(R8-Pad2)*
X120500000Y-54000000D02*
X122000000Y-55500000D01*
X128080000Y-73920000D02*
X130000000Y-73920000D01*
X119205000Y-54000000D02*
X120500000Y-54000000D01*
X122000000Y-55500000D02*
X122000000Y-64500000D01*
X122000000Y-64500000D02*
X125000000Y-67000000D01*
X125000000Y-67000000D02*
X125000000Y-70500000D01*
X125000000Y-70500000D02*
X128080000Y-73920000D01*
G04 #@! TO.N,Net-(D1-Pad1)*
X127540000Y-62960000D02*
X127540000Y-61500000D01*
X127500000Y-63000000D02*
X127540000Y-62960000D01*
X132000000Y-67500000D02*
X127500000Y-63000000D01*
X132000000Y-83000000D02*
X132000000Y-67500000D01*
X107000000Y-96200000D02*
X113250001Y-89949999D01*
X107000000Y-98000000D02*
X107000000Y-96200000D01*
X127000000Y-85000000D02*
X130000000Y-85000000D01*
X130000000Y-85000000D02*
X132000000Y-83000000D01*
X113250001Y-89949999D02*
X122050001Y-89949999D01*
X122050001Y-89949999D02*
X127000000Y-85000000D01*
D25*
G04 #@! TO.N,-12V*
X129540000Y-88500000D02*
X127000000Y-88500000D01*
X126500000Y-88500000D02*
X127000000Y-88500000D01*
X121500000Y-93500000D02*
X126500000Y-88500000D01*
D24*
G04 #@! TO.N,Net-(OUT_J4-PadT)*
X106900000Y-120500000D02*
X106900000Y-121400000D01*
X131000000Y-143000000D02*
X131000000Y-140460000D01*
X130040000Y-140460000D02*
X131000000Y-140460000D01*
X130000000Y-140500000D02*
X130040000Y-140460000D01*
X106900000Y-121000000D02*
X110400000Y-124500000D01*
X106900000Y-120500000D02*
X106900000Y-121000000D01*
X119800002Y-124500000D02*
X128500000Y-133199998D01*
X128500000Y-133199998D02*
X128500000Y-139000000D01*
X110400000Y-124500000D02*
X119800002Y-124500000D01*
X128500000Y-139000000D02*
X130000000Y-140500000D01*
G04 #@! TO.N,Net-(D4-Pad2)*
X118200000Y-130300000D02*
X120840000Y-130300000D01*
X116000000Y-128500000D02*
X118200000Y-130300000D01*
X110300000Y-128500000D02*
X116000000Y-128500000D01*
X106500000Y-130500000D02*
X108300000Y-130500000D01*
X108300000Y-130500000D02*
X110300000Y-128500000D01*
D25*
G04 #@! TO.N,Net-(D6-Pad2)*
X131000000Y-127760000D02*
X129760000Y-127760000D01*
X129760000Y-127760000D02*
X123000000Y-121000000D01*
X123000000Y-115920000D02*
X124920000Y-114000000D01*
X123000000Y-121000000D02*
X123000000Y-115920000D01*
G04 #@! TO.N,Net-(RV2-Pad2)*
X128300000Y-130300000D02*
X131000000Y-130300000D01*
X126289999Y-112829999D02*
X126289999Y-112789999D01*
X121000000Y-123000000D02*
X128300000Y-130300000D01*
X126000000Y-112500000D02*
X123500000Y-112500000D01*
X127460000Y-114000000D02*
X126289999Y-112829999D01*
X126289999Y-112789999D02*
X126000000Y-112500000D01*
X123500000Y-112500000D02*
X121000000Y-115000000D01*
X121000000Y-115000000D02*
X121000000Y-123000000D01*
G04 #@! TO.N,Net-(C3-Pad2)*
X119120000Y-74000000D02*
X118000000Y-74000000D01*
X118000000Y-74000000D02*
X117500000Y-74500000D01*
X117500000Y-74500000D02*
X117500000Y-85000000D01*
X117500000Y-85000000D02*
X118500000Y-86000000D01*
X118500000Y-86000000D02*
X119285000Y-86000000D01*
X119120000Y-74000000D02*
X115000000Y-69880000D01*
X117700000Y-51000000D02*
X113200000Y-55500000D01*
X119000000Y-51000000D02*
X117700000Y-51000000D01*
X113200000Y-68080000D02*
X119120000Y-74000000D01*
X113200000Y-55500000D02*
X113200000Y-68080000D01*
G04 #@! TD*
D26*
G04 #@! TO.N,GND*
G36*
X133265000Y-145265000D02*
X103735000Y-145265000D01*
X103735000Y-142334971D01*
X103901074Y-142445938D01*
X104500000Y-142565072D01*
X105098927Y-142445938D01*
X105606673Y-142106673D01*
X105945938Y-141598927D01*
X106035000Y-141151182D01*
X106035000Y-140268153D01*
X106301074Y-140445938D01*
X106900000Y-140565072D01*
X107498927Y-140445938D01*
X108006673Y-140106673D01*
X108345938Y-139598927D01*
X108435000Y-139151182D01*
X108435000Y-138627000D01*
X110865000Y-138627000D01*
X110865000Y-139127000D01*
X111030446Y-139704752D01*
X111404394Y-140175212D01*
X111929914Y-140466756D01*
X112035260Y-140491036D01*
X112273000Y-140370378D01*
X112273000Y-138627000D01*
X112527000Y-138627000D01*
X112527000Y-140370378D01*
X112764740Y-140491036D01*
X112870086Y-140466756D01*
X113395606Y-140175212D01*
X113769554Y-139704752D01*
X113935000Y-139127000D01*
X113935000Y-138627000D01*
X112527000Y-138627000D01*
X112273000Y-138627000D01*
X110865000Y-138627000D01*
X108435000Y-138627000D01*
X108435000Y-137873000D01*
X110865000Y-137873000D01*
X110865000Y-138373000D01*
X112273000Y-138373000D01*
X112273000Y-136629622D01*
X112527000Y-136629622D01*
X112527000Y-138373000D01*
X113935000Y-138373000D01*
X113935000Y-137873000D01*
X113769554Y-137295248D01*
X113395606Y-136824788D01*
X112870086Y-136533244D01*
X112764740Y-136508964D01*
X112527000Y-136629622D01*
X112273000Y-136629622D01*
X112035260Y-136508964D01*
X111929914Y-136533244D01*
X111404394Y-136824788D01*
X111030446Y-137295248D01*
X110865000Y-137873000D01*
X108435000Y-137873000D01*
X108435000Y-137848818D01*
X108345938Y-137401073D01*
X108006673Y-136893327D01*
X107498926Y-136554062D01*
X106900000Y-136434928D01*
X106301073Y-136554062D01*
X105793327Y-136893327D01*
X105454062Y-137401074D01*
X105365000Y-137848819D01*
X105365000Y-138731847D01*
X105098926Y-138554062D01*
X104500000Y-138434928D01*
X103901073Y-138554062D01*
X103735000Y-138665028D01*
X103735000Y-135714620D01*
X103900000Y-135747440D01*
X106100000Y-135747440D01*
X106347765Y-135698157D01*
X106557809Y-135557809D01*
X106698157Y-135347765D01*
X106747440Y-135100000D01*
X106747440Y-134000000D01*
X113391010Y-134000000D01*
X113525666Y-134676963D01*
X113909135Y-135250865D01*
X114483037Y-135634334D01*
X114989120Y-135735000D01*
X115330880Y-135735000D01*
X115836963Y-135634334D01*
X116217600Y-135380000D01*
X119376887Y-135380000D01*
X119488260Y-135939909D01*
X119805423Y-136414577D01*
X120157758Y-136650000D01*
X119805423Y-136885423D01*
X119488260Y-137360091D01*
X119376887Y-137920000D01*
X119488260Y-138479909D01*
X119805423Y-138954577D01*
X120157758Y-139190000D01*
X119805423Y-139425423D01*
X119488260Y-139900091D01*
X119376887Y-140460000D01*
X119488260Y-141019909D01*
X119805423Y-141494577D01*
X120157758Y-141730000D01*
X119805423Y-141965423D01*
X119488260Y-142440091D01*
X119376887Y-143000000D01*
X119488260Y-143559909D01*
X119805423Y-144034577D01*
X120280091Y-144351740D01*
X120698667Y-144435000D01*
X120981333Y-144435000D01*
X121399909Y-144351740D01*
X121874577Y-144034577D01*
X122191740Y-143559909D01*
X122303113Y-143000000D01*
X122191740Y-142440091D01*
X121874577Y-141965423D01*
X121522242Y-141730000D01*
X121874577Y-141494577D01*
X122191740Y-141019909D01*
X122303113Y-140460000D01*
X122191740Y-139900091D01*
X121874577Y-139425423D01*
X121522242Y-139190000D01*
X121874577Y-138954577D01*
X122191740Y-138479909D01*
X122303113Y-137920000D01*
X122191740Y-137360091D01*
X121874577Y-136885423D01*
X121522242Y-136650000D01*
X121874577Y-136414577D01*
X122191740Y-135939909D01*
X122303113Y-135380000D01*
X122191740Y-134820091D01*
X121874577Y-134345423D01*
X121490892Y-134089053D01*
X121695134Y-133992389D01*
X122071041Y-133577423D01*
X122231904Y-133189039D01*
X122109915Y-132967000D01*
X120967000Y-132967000D01*
X120967000Y-132987000D01*
X120713000Y-132987000D01*
X120713000Y-132967000D01*
X119570085Y-132967000D01*
X119448096Y-133189039D01*
X119608959Y-133577423D01*
X119984866Y-133992389D01*
X120189108Y-134089053D01*
X119805423Y-134345423D01*
X119488260Y-134820091D01*
X119376887Y-135380000D01*
X116217600Y-135380000D01*
X116410865Y-135250865D01*
X116794334Y-134676963D01*
X116928990Y-134000000D01*
X116794334Y-133323037D01*
X116410865Y-132749135D01*
X115836963Y-132365666D01*
X115330880Y-132265000D01*
X114989120Y-132265000D01*
X114483037Y-132365666D01*
X113909135Y-132749135D01*
X113525666Y-133323037D01*
X113391010Y-134000000D01*
X106747440Y-134000000D01*
X106747440Y-132900000D01*
X106698157Y-132652235D01*
X106557809Y-132442191D01*
X106347765Y-132301843D01*
X106100000Y-132252560D01*
X103900000Y-132252560D01*
X103735000Y-132285380D01*
X103735000Y-124334971D01*
X103901074Y-124445938D01*
X104500000Y-124565072D01*
X105098927Y-124445938D01*
X105606673Y-124106673D01*
X105945938Y-123598927D01*
X106035000Y-123151182D01*
X106035000Y-122268153D01*
X106301074Y-122445938D01*
X106849994Y-122555125D01*
X109518390Y-125223523D01*
X109581711Y-125318289D01*
X109957145Y-125569146D01*
X110288217Y-125635000D01*
X110399999Y-125657235D01*
X110511781Y-125635000D01*
X119329871Y-125635000D01*
X120174011Y-126479140D01*
X119805423Y-126725423D01*
X119488260Y-127200091D01*
X119376887Y-127760000D01*
X119488260Y-128319909D01*
X119805423Y-128794577D01*
X120157758Y-129030000D01*
X119955717Y-129165000D01*
X118605154Y-129165000D01*
X116849700Y-127728721D01*
X116818289Y-127681711D01*
X116676224Y-127586786D01*
X116632209Y-127550774D01*
X116583514Y-127524840D01*
X116442855Y-127430854D01*
X116385700Y-127419485D01*
X116334272Y-127392095D01*
X116165910Y-127375766D01*
X116111783Y-127365000D01*
X116054898Y-127365000D01*
X115884851Y-127348508D01*
X115830775Y-127365000D01*
X110411782Y-127365000D01*
X110299999Y-127342765D01*
X109938407Y-127414690D01*
X109857145Y-127430854D01*
X109481711Y-127681711D01*
X109418389Y-127776479D01*
X107835863Y-129359006D01*
X107757809Y-129242191D01*
X107547765Y-129101843D01*
X107300000Y-129052560D01*
X105700000Y-129052560D01*
X105452235Y-129101843D01*
X105242191Y-129242191D01*
X105101843Y-129452235D01*
X105052560Y-129700000D01*
X105052560Y-131300000D01*
X105101843Y-131547765D01*
X105242191Y-131757809D01*
X105452235Y-131898157D01*
X105700000Y-131947440D01*
X107300000Y-131947440D01*
X107547765Y-131898157D01*
X107757809Y-131757809D01*
X107839868Y-131635000D01*
X108188217Y-131635000D01*
X108300000Y-131657235D01*
X108411783Y-131635000D01*
X108742855Y-131569146D01*
X109118289Y-131318289D01*
X109181613Y-131223518D01*
X110770132Y-129635000D01*
X112972115Y-129635000D01*
X112768260Y-129940091D01*
X112656887Y-130500000D01*
X112768260Y-131059909D01*
X113085423Y-131534577D01*
X113560091Y-131851740D01*
X113978667Y-131935000D01*
X114261333Y-131935000D01*
X114679909Y-131851740D01*
X115154577Y-131534577D01*
X115471740Y-131059909D01*
X115583113Y-130500000D01*
X115471740Y-129940091D01*
X115267885Y-129635000D01*
X115594847Y-129635000D01*
X117350301Y-131071280D01*
X117381711Y-131118289D01*
X117523771Y-131213211D01*
X117567790Y-131249226D01*
X117616489Y-131275163D01*
X117757145Y-131369146D01*
X117814298Y-131380514D01*
X117865727Y-131407905D01*
X118034091Y-131424234D01*
X118088217Y-131435000D01*
X118145101Y-131435000D01*
X118315149Y-131451492D01*
X118369225Y-131435000D01*
X119955717Y-131435000D01*
X120189108Y-131590947D01*
X119984866Y-131687611D01*
X119608959Y-132102577D01*
X119448096Y-132490961D01*
X119570085Y-132713000D01*
X120713000Y-132713000D01*
X120713000Y-132693000D01*
X120967000Y-132693000D01*
X120967000Y-132713000D01*
X122109915Y-132713000D01*
X122231904Y-132490961D01*
X122071041Y-132102577D01*
X121695134Y-131687611D01*
X121490892Y-131590947D01*
X121874577Y-131334577D01*
X122191740Y-130859909D01*
X122303113Y-130300000D01*
X122191740Y-129740091D01*
X121874577Y-129265423D01*
X121522242Y-129030000D01*
X121874577Y-128794577D01*
X122120860Y-128425989D01*
X127365000Y-133670130D01*
X127365001Y-138888212D01*
X127342765Y-139000000D01*
X127430854Y-139442854D01*
X127430855Y-139442855D01*
X127681712Y-139818289D01*
X127776480Y-139881611D01*
X129118393Y-141223525D01*
X129181712Y-141318288D01*
X129276475Y-141381607D01*
X129276476Y-141381608D01*
X129439792Y-141490732D01*
X129557146Y-141569146D01*
X129865001Y-141630382D01*
X129865001Y-141660132D01*
X129742191Y-141742191D01*
X129601843Y-141952235D01*
X129552560Y-142200000D01*
X129552560Y-143800000D01*
X129601843Y-144047765D01*
X129742191Y-144257809D01*
X129952235Y-144398157D01*
X130200000Y-144447440D01*
X131800000Y-144447440D01*
X132047765Y-144398157D01*
X132257809Y-144257809D01*
X132398157Y-144047765D01*
X132447440Y-143800000D01*
X132447440Y-142200000D01*
X132398157Y-141952235D01*
X132257809Y-141742191D01*
X132135000Y-141660132D01*
X132135000Y-141344283D01*
X132351740Y-141019909D01*
X132463113Y-140460000D01*
X132351740Y-139900091D01*
X132034577Y-139425423D01*
X131682242Y-139190000D01*
X132034577Y-138954577D01*
X132351740Y-138479909D01*
X132463113Y-137920000D01*
X132351740Y-137360091D01*
X132034577Y-136885423D01*
X131682242Y-136650000D01*
X132034577Y-136414577D01*
X132351740Y-135939909D01*
X132463113Y-135380000D01*
X132428017Y-135203561D01*
X132814157Y-134817422D01*
X132888050Y-134768048D01*
X132948912Y-134676963D01*
X133083652Y-134475310D01*
X133083653Y-134475309D01*
X133135001Y-134217164D01*
X133135001Y-134217160D01*
X133152338Y-134130000D01*
X133135001Y-134042840D01*
X133135001Y-119587164D01*
X133152339Y-119500000D01*
X133135001Y-119412835D01*
X133135001Y-102659241D01*
X133152338Y-102572081D01*
X133135001Y-102484921D01*
X133135001Y-102484917D01*
X133083653Y-102226772D01*
X132888050Y-101934033D01*
X132814157Y-101884659D01*
X130614802Y-99685305D01*
X130798922Y-99501185D01*
X131025000Y-98955385D01*
X131025000Y-98364615D01*
X130798922Y-97818815D01*
X130381185Y-97401078D01*
X130334753Y-97381845D01*
X130404353Y-97163958D01*
X129540000Y-96299605D01*
X128675647Y-97163958D01*
X128745247Y-97381845D01*
X128698815Y-97401078D01*
X128574893Y-97525000D01*
X127965107Y-97525000D01*
X127841185Y-97401078D01*
X127794753Y-97381845D01*
X127864353Y-97163958D01*
X127000000Y-96299605D01*
X126135647Y-97163958D01*
X126205247Y-97381845D01*
X126158815Y-97401078D01*
X125741078Y-97818815D01*
X125515000Y-98364615D01*
X125515000Y-98955385D01*
X125741078Y-99501185D01*
X126158815Y-99918922D01*
X126704615Y-100145000D01*
X127295385Y-100145000D01*
X127841185Y-99918922D01*
X127965107Y-99795000D01*
X128574893Y-99795000D01*
X128638378Y-99858485D01*
X128637663Y-99862081D01*
X128706348Y-100207390D01*
X128852576Y-100426235D01*
X128852578Y-100426237D01*
X128901952Y-100500130D01*
X128975845Y-100549504D01*
X131365001Y-102938661D01*
X131365001Y-103087165D01*
X131365002Y-103087170D01*
X131365001Y-118615000D01*
X131031260Y-118615000D01*
X130767546Y-118351286D01*
X130269526Y-118145000D01*
X129730474Y-118145000D01*
X129232454Y-118351286D01*
X128851286Y-118732454D01*
X128730000Y-119025265D01*
X128608714Y-118732454D01*
X128227546Y-118351286D01*
X127729526Y-118145000D01*
X127190474Y-118145000D01*
X126692454Y-118351286D01*
X126311286Y-118732454D01*
X126196675Y-119009151D01*
X126107611Y-118794131D01*
X125869774Y-118729831D01*
X125099605Y-119500000D01*
X125869774Y-120270169D01*
X126107611Y-120205869D01*
X126189649Y-119973886D01*
X126311286Y-120267546D01*
X126692454Y-120648714D01*
X127190474Y-120855000D01*
X127729526Y-120855000D01*
X128227546Y-120648714D01*
X128608714Y-120267546D01*
X128730000Y-119974735D01*
X128851286Y-120267546D01*
X129232454Y-120648714D01*
X129730474Y-120855000D01*
X130269526Y-120855000D01*
X130767546Y-120648714D01*
X131031260Y-120385000D01*
X131365002Y-120385000D01*
X131365002Y-126369490D01*
X131141333Y-126325000D01*
X130858667Y-126325000D01*
X130440091Y-126408260D01*
X129972364Y-126720785D01*
X123885000Y-120633422D01*
X123885000Y-120449774D01*
X124149831Y-120449774D01*
X124214131Y-120687611D01*
X124722342Y-120867333D01*
X125260644Y-120838892D01*
X125625869Y-120687611D01*
X125690169Y-120449774D01*
X124920000Y-119679605D01*
X124149831Y-120449774D01*
X123885000Y-120449774D01*
X123885000Y-120247128D01*
X123970226Y-120270169D01*
X124740395Y-119500000D01*
X123970226Y-118729831D01*
X123885000Y-118752872D01*
X123885000Y-118550226D01*
X124149831Y-118550226D01*
X124920000Y-119320395D01*
X125690169Y-118550226D01*
X125625869Y-118312389D01*
X125117658Y-118132667D01*
X124579356Y-118161108D01*
X124214131Y-118312389D01*
X124149831Y-118550226D01*
X123885000Y-118550226D01*
X123885000Y-116286578D01*
X124816579Y-115355000D01*
X125189526Y-115355000D01*
X125687546Y-115148714D01*
X126068714Y-114767546D01*
X126190000Y-114474735D01*
X126311286Y-114767546D01*
X126692454Y-115148714D01*
X127190474Y-115355000D01*
X127729526Y-115355000D01*
X128227546Y-115148714D01*
X128608714Y-114767546D01*
X128730000Y-114474735D01*
X128851286Y-114767546D01*
X129232454Y-115148714D01*
X129730474Y-115355000D01*
X130269526Y-115355000D01*
X130767546Y-115148714D01*
X131148714Y-114767546D01*
X131355000Y-114269526D01*
X131355000Y-113730474D01*
X131148714Y-113232454D01*
X130767546Y-112851286D01*
X130269526Y-112645000D01*
X129730474Y-112645000D01*
X129232454Y-112851286D01*
X128851286Y-113232454D01*
X128730000Y-113525265D01*
X128608714Y-113232454D01*
X128227546Y-112851286D01*
X127729526Y-112645000D01*
X127356578Y-112645000D01*
X127057970Y-112346392D01*
X126928048Y-112151950D01*
X126854152Y-112102574D01*
X126687425Y-111935847D01*
X126638049Y-111861951D01*
X126345310Y-111666348D01*
X126087165Y-111615000D01*
X126087161Y-111615000D01*
X126000000Y-111597663D01*
X125912839Y-111615000D01*
X123587161Y-111615000D01*
X123500000Y-111597663D01*
X123412839Y-111615000D01*
X123412835Y-111615000D01*
X123213400Y-111654670D01*
X123154690Y-111666348D01*
X122935845Y-111812576D01*
X122935844Y-111812577D01*
X122861951Y-111861951D01*
X122812577Y-111935844D01*
X120435847Y-114312575D01*
X120361951Y-114361951D01*
X120166348Y-114654691D01*
X120115000Y-114912836D01*
X120115000Y-114912839D01*
X120097663Y-115000000D01*
X120115000Y-115087161D01*
X120115001Y-122912835D01*
X120097663Y-123000000D01*
X120166348Y-123345309D01*
X120220542Y-123426415D01*
X119911785Y-123365000D01*
X119800002Y-123342765D01*
X119688219Y-123365000D01*
X110870133Y-123365000D01*
X108435000Y-120929869D01*
X108435000Y-120627000D01*
X110865000Y-120627000D01*
X110865000Y-121127000D01*
X111030446Y-121704752D01*
X111404394Y-122175212D01*
X111929914Y-122466756D01*
X112035260Y-122491036D01*
X112273000Y-122370378D01*
X112273000Y-120627000D01*
X112527000Y-120627000D01*
X112527000Y-122370378D01*
X112764740Y-122491036D01*
X112870086Y-122466756D01*
X113395606Y-122175212D01*
X113769554Y-121704752D01*
X113935000Y-121127000D01*
X113935000Y-120627000D01*
X112527000Y-120627000D01*
X112273000Y-120627000D01*
X110865000Y-120627000D01*
X108435000Y-120627000D01*
X108435000Y-119873000D01*
X110865000Y-119873000D01*
X110865000Y-120373000D01*
X112273000Y-120373000D01*
X112273000Y-118629622D01*
X112527000Y-118629622D01*
X112527000Y-120373000D01*
X113935000Y-120373000D01*
X113935000Y-119873000D01*
X113769554Y-119295248D01*
X113395606Y-118824788D01*
X112870086Y-118533244D01*
X112764740Y-118508964D01*
X112527000Y-118629622D01*
X112273000Y-118629622D01*
X112035260Y-118508964D01*
X111929914Y-118533244D01*
X111404394Y-118824788D01*
X111030446Y-119295248D01*
X110865000Y-119873000D01*
X108435000Y-119873000D01*
X108435000Y-119848818D01*
X108345938Y-119401073D01*
X108006673Y-118893327D01*
X107498926Y-118554062D01*
X106900000Y-118434928D01*
X106301073Y-118554062D01*
X105793327Y-118893327D01*
X105454062Y-119401074D01*
X105365000Y-119848819D01*
X105365000Y-120731847D01*
X105098926Y-120554062D01*
X104500000Y-120434928D01*
X103901073Y-120554062D01*
X103735000Y-120665028D01*
X103735000Y-113600000D01*
X104952560Y-113600000D01*
X104952560Y-115400000D01*
X105001843Y-115647765D01*
X105142191Y-115857809D01*
X105352235Y-115998157D01*
X105600000Y-116047440D01*
X107400000Y-116047440D01*
X107647765Y-115998157D01*
X107857809Y-115857809D01*
X107998157Y-115647765D01*
X108047440Y-115400000D01*
X108047440Y-113600000D01*
X107998157Y-113352235D01*
X107857809Y-113142191D01*
X107647765Y-113001843D01*
X107632092Y-112998725D01*
X107801310Y-112829507D01*
X108035000Y-112265330D01*
X108035000Y-111714561D01*
X110065000Y-111714561D01*
X110065000Y-112285439D01*
X110283466Y-112812862D01*
X110687138Y-113216534D01*
X111214561Y-113435000D01*
X111785439Y-113435000D01*
X112312862Y-113216534D01*
X112716534Y-112812862D01*
X112935000Y-112285439D01*
X112935000Y-112000000D01*
X117656887Y-112000000D01*
X117768260Y-112559909D01*
X118085423Y-113034577D01*
X118560091Y-113351740D01*
X118978667Y-113435000D01*
X119261333Y-113435000D01*
X119679909Y-113351740D01*
X120154577Y-113034577D01*
X120471740Y-112559909D01*
X120583113Y-112000000D01*
X120471740Y-111440091D01*
X120154577Y-110965423D01*
X119679909Y-110648260D01*
X119261333Y-110565000D01*
X118978667Y-110565000D01*
X118560091Y-110648260D01*
X118085423Y-110965423D01*
X117768260Y-111440091D01*
X117656887Y-112000000D01*
X112935000Y-112000000D01*
X112935000Y-111714561D01*
X112716534Y-111187138D01*
X112312862Y-110783466D01*
X111785439Y-110565000D01*
X111214561Y-110565000D01*
X110687138Y-110783466D01*
X110283466Y-111187138D01*
X110065000Y-111714561D01*
X108035000Y-111714561D01*
X108035000Y-111654670D01*
X107801310Y-111090493D01*
X107369507Y-110658690D01*
X106805330Y-110425000D01*
X106194670Y-110425000D01*
X105630493Y-110658690D01*
X105198690Y-111090493D01*
X104965000Y-111654670D01*
X104965000Y-112265330D01*
X105198690Y-112829507D01*
X105367908Y-112998725D01*
X105352235Y-113001843D01*
X105142191Y-113142191D01*
X105001843Y-113352235D01*
X104952560Y-113600000D01*
X103735000Y-113600000D01*
X103735000Y-106334971D01*
X103901074Y-106445938D01*
X104500000Y-106565072D01*
X105098927Y-106445938D01*
X105606673Y-106106673D01*
X105945938Y-105598927D01*
X106035000Y-105151182D01*
X106035000Y-104268153D01*
X106301074Y-104445938D01*
X106900000Y-104565072D01*
X107498927Y-104445938D01*
X108006673Y-104106673D01*
X108345938Y-103598927D01*
X108435000Y-103151182D01*
X108435000Y-102627000D01*
X110865000Y-102627000D01*
X110865000Y-103127000D01*
X111030446Y-103704752D01*
X111404394Y-104175212D01*
X111929914Y-104466756D01*
X112035260Y-104491036D01*
X112273000Y-104370378D01*
X112273000Y-102627000D01*
X112527000Y-102627000D01*
X112527000Y-104370378D01*
X112764740Y-104491036D01*
X112870086Y-104466756D01*
X113395606Y-104175212D01*
X113769554Y-103704752D01*
X113935000Y-103127000D01*
X113935000Y-102627000D01*
X112527000Y-102627000D01*
X112273000Y-102627000D01*
X110865000Y-102627000D01*
X108435000Y-102627000D01*
X108435000Y-101873000D01*
X110865000Y-101873000D01*
X110865000Y-102373000D01*
X112273000Y-102373000D01*
X112273000Y-100629622D01*
X112527000Y-100629622D01*
X112527000Y-102373000D01*
X113935000Y-102373000D01*
X113935000Y-101873000D01*
X113769554Y-101295248D01*
X113395606Y-100824788D01*
X112870086Y-100533244D01*
X112764740Y-100508964D01*
X112527000Y-100629622D01*
X112273000Y-100629622D01*
X112035260Y-100508964D01*
X111929914Y-100533244D01*
X111404394Y-100824788D01*
X111030446Y-101295248D01*
X110865000Y-101873000D01*
X108435000Y-101873000D01*
X108435000Y-101848818D01*
X108345938Y-101401073D01*
X108006673Y-100893327D01*
X107498926Y-100554062D01*
X106900000Y-100434928D01*
X106301073Y-100554062D01*
X105793327Y-100893327D01*
X105454062Y-101401074D01*
X105365000Y-101848819D01*
X105365000Y-102731847D01*
X105098926Y-102554062D01*
X104500000Y-102434928D01*
X103901073Y-102554062D01*
X103735000Y-102665028D01*
X103735000Y-97200000D01*
X105552560Y-97200000D01*
X105552560Y-98800000D01*
X105601843Y-99047765D01*
X105742191Y-99257809D01*
X105952235Y-99398157D01*
X106200000Y-99447440D01*
X107800000Y-99447440D01*
X108047765Y-99398157D01*
X108257809Y-99257809D01*
X108398157Y-99047765D01*
X108447440Y-98800000D01*
X108447440Y-98349039D01*
X113228096Y-98349039D01*
X113388959Y-98737423D01*
X113764866Y-99152389D01*
X114270959Y-99391914D01*
X114493000Y-99270629D01*
X114493000Y-98127000D01*
X114747000Y-98127000D01*
X114747000Y-99270629D01*
X114969041Y-99391914D01*
X115475134Y-99152389D01*
X115851041Y-98737423D01*
X116011904Y-98349039D01*
X115889915Y-98127000D01*
X114747000Y-98127000D01*
X114493000Y-98127000D01*
X113350085Y-98127000D01*
X113228096Y-98349039D01*
X108447440Y-98349039D01*
X108447440Y-97650961D01*
X113228096Y-97650961D01*
X113350085Y-97873000D01*
X114493000Y-97873000D01*
X114493000Y-96729371D01*
X114747000Y-96729371D01*
X114747000Y-97873000D01*
X115889915Y-97873000D01*
X116011904Y-97650961D01*
X115851041Y-97262577D01*
X115475134Y-96847611D01*
X114969041Y-96608086D01*
X114747000Y-96729371D01*
X114493000Y-96729371D01*
X114270959Y-96608086D01*
X113764866Y-96847611D01*
X113388959Y-97262577D01*
X113228096Y-97650961D01*
X108447440Y-97650961D01*
X108447440Y-97200000D01*
X108398157Y-96952235D01*
X108257809Y-96742191D01*
X108140994Y-96664137D01*
X108913852Y-95891279D01*
X125503282Y-95891279D01*
X125529685Y-96481458D01*
X125704741Y-96904080D01*
X125956042Y-96984353D01*
X126820395Y-96120000D01*
X127179605Y-96120000D01*
X128043958Y-96984353D01*
X128270000Y-96912148D01*
X128496042Y-96984353D01*
X129360395Y-96120000D01*
X129719605Y-96120000D01*
X130583958Y-96984353D01*
X130835259Y-96904080D01*
X131036718Y-96348721D01*
X131010315Y-95758542D01*
X130835259Y-95335920D01*
X130583958Y-95255647D01*
X129719605Y-96120000D01*
X129360395Y-96120000D01*
X128496042Y-95255647D01*
X128270000Y-95327852D01*
X128043958Y-95255647D01*
X127179605Y-96120000D01*
X126820395Y-96120000D01*
X125956042Y-95255647D01*
X125704741Y-95335920D01*
X125503282Y-95891279D01*
X108913852Y-95891279D01*
X111019381Y-93785750D01*
X117565000Y-93785750D01*
X117565000Y-94426310D01*
X117661673Y-94659699D01*
X117840302Y-94838327D01*
X118073691Y-94935000D01*
X118714250Y-94935000D01*
X118873000Y-94776250D01*
X118873000Y-93627000D01*
X117723750Y-93627000D01*
X117565000Y-93785750D01*
X111019381Y-93785750D01*
X112231441Y-92573690D01*
X117565000Y-92573690D01*
X117565000Y-93214250D01*
X117723750Y-93373000D01*
X118873000Y-93373000D01*
X118873000Y-92223750D01*
X118714250Y-92065000D01*
X118073691Y-92065000D01*
X117840302Y-92161673D01*
X117661673Y-92340301D01*
X117565000Y-92573690D01*
X112231441Y-92573690D01*
X113720133Y-91084999D01*
X121938218Y-91084999D01*
X122050001Y-91107234D01*
X122161784Y-91084999D01*
X122492856Y-91019145D01*
X122868290Y-90768288D01*
X122931614Y-90673517D01*
X125502560Y-88102572D01*
X125502560Y-88245861D01*
X121683422Y-92065000D01*
X121214561Y-92065000D01*
X120687138Y-92283466D01*
X120423845Y-92546759D01*
X120338327Y-92340301D01*
X120159698Y-92161673D01*
X119926309Y-92065000D01*
X119285750Y-92065000D01*
X119127000Y-92223750D01*
X119127000Y-93373000D01*
X119147000Y-93373000D01*
X119147000Y-93627000D01*
X119127000Y-93627000D01*
X119127000Y-94776250D01*
X119285750Y-94935000D01*
X119926309Y-94935000D01*
X120159698Y-94838327D01*
X120338327Y-94659699D01*
X120423845Y-94453241D01*
X120687138Y-94716534D01*
X121214561Y-94935000D01*
X121785439Y-94935000D01*
X122312862Y-94716534D01*
X122405438Y-94623958D01*
X126135647Y-94623958D01*
X126207852Y-94850000D01*
X126135647Y-95076042D01*
X127000000Y-95940395D01*
X127864353Y-95076042D01*
X127792148Y-94850000D01*
X127864353Y-94623958D01*
X128675647Y-94623958D01*
X128747852Y-94850000D01*
X128675647Y-95076042D01*
X129540000Y-95940395D01*
X130404353Y-95076042D01*
X130332148Y-94850000D01*
X130404353Y-94623958D01*
X129540000Y-93759605D01*
X128675647Y-94623958D01*
X127864353Y-94623958D01*
X127000000Y-93759605D01*
X126135647Y-94623958D01*
X122405438Y-94623958D01*
X122716534Y-94312862D01*
X122935000Y-93785439D01*
X122935000Y-93351279D01*
X125503282Y-93351279D01*
X125529685Y-93941458D01*
X125704741Y-94364080D01*
X125956042Y-94444353D01*
X126820395Y-93580000D01*
X127179605Y-93580000D01*
X128043958Y-94444353D01*
X128270000Y-94372148D01*
X128496042Y-94444353D01*
X129360395Y-93580000D01*
X129719605Y-93580000D01*
X130583958Y-94444353D01*
X130835259Y-94364080D01*
X131036718Y-93808721D01*
X131010315Y-93218542D01*
X130835259Y-92795920D01*
X130583958Y-92715647D01*
X129719605Y-93580000D01*
X129360395Y-93580000D01*
X128496042Y-92715647D01*
X128270000Y-92787852D01*
X128043958Y-92715647D01*
X127179605Y-93580000D01*
X126820395Y-93580000D01*
X125956042Y-92715647D01*
X125704741Y-92795920D01*
X125503282Y-93351279D01*
X122935000Y-93351279D01*
X122935000Y-93316578D01*
X124167620Y-92083958D01*
X126135647Y-92083958D01*
X126207852Y-92310000D01*
X126135647Y-92536042D01*
X127000000Y-93400395D01*
X127864353Y-92536042D01*
X127792148Y-92310000D01*
X127864353Y-92083958D01*
X128675647Y-92083958D01*
X128747852Y-92310000D01*
X128675647Y-92536042D01*
X129540000Y-93400395D01*
X130404353Y-92536042D01*
X130332148Y-92310000D01*
X130404353Y-92083958D01*
X129540000Y-91219605D01*
X128675647Y-92083958D01*
X127864353Y-92083958D01*
X127000000Y-91219605D01*
X126135647Y-92083958D01*
X124167620Y-92083958D01*
X125539135Y-90712444D01*
X125503282Y-90811279D01*
X125529685Y-91401458D01*
X125704741Y-91824080D01*
X125956042Y-91904353D01*
X126820395Y-91040000D01*
X127179605Y-91040000D01*
X128043958Y-91904353D01*
X128270000Y-91832148D01*
X128496042Y-91904353D01*
X129360395Y-91040000D01*
X129719605Y-91040000D01*
X130583958Y-91904353D01*
X130835259Y-91824080D01*
X131036718Y-91268721D01*
X131010315Y-90678542D01*
X130835259Y-90255920D01*
X130583958Y-90175647D01*
X129719605Y-91040000D01*
X129360395Y-91040000D01*
X128496042Y-90175647D01*
X128270000Y-90247852D01*
X128043958Y-90175647D01*
X127179605Y-91040000D01*
X126820395Y-91040000D01*
X126806253Y-91025858D01*
X126985858Y-90846253D01*
X127000000Y-90860395D01*
X127864353Y-89996042D01*
X127863915Y-89994672D01*
X128097765Y-89948157D01*
X128307809Y-89807809D01*
X128448157Y-89597765D01*
X128463006Y-89523113D01*
X128698815Y-89758922D01*
X128745247Y-89778155D01*
X128675647Y-89996042D01*
X129540000Y-90860395D01*
X130404353Y-89996042D01*
X130334753Y-89778155D01*
X130381185Y-89758922D01*
X130798922Y-89341185D01*
X131025000Y-88795385D01*
X131025000Y-88204615D01*
X130798922Y-87658815D01*
X130381185Y-87241078D01*
X129835385Y-87015000D01*
X129244615Y-87015000D01*
X128698815Y-87241078D01*
X128463006Y-87476887D01*
X128448157Y-87402235D01*
X128307809Y-87192191D01*
X128097765Y-87051843D01*
X127850000Y-87002560D01*
X126602572Y-87002560D01*
X127470132Y-86135000D01*
X129888217Y-86135000D01*
X130000000Y-86157235D01*
X130111783Y-86135000D01*
X130442855Y-86069146D01*
X130818289Y-85818289D01*
X130881613Y-85723518D01*
X132723521Y-83881611D01*
X132818289Y-83818289D01*
X133069146Y-83442855D01*
X133135000Y-83111783D01*
X133135000Y-83111782D01*
X133157235Y-83000001D01*
X133135000Y-82888218D01*
X133135000Y-67611782D01*
X133157235Y-67499999D01*
X133069146Y-67057145D01*
X132818289Y-66681711D01*
X132723521Y-66618389D01*
X128675000Y-62569869D01*
X128675000Y-62471517D01*
X129288088Y-62471517D01*
X129356077Y-62712460D01*
X129875171Y-62897201D01*
X130425448Y-62869230D01*
X130803923Y-62712460D01*
X130871912Y-62471517D01*
X130080000Y-61679605D01*
X129288088Y-62471517D01*
X128675000Y-62471517D01*
X128675000Y-62323687D01*
X128714147Y-62284540D01*
X128803397Y-62069070D01*
X128867540Y-62223923D01*
X129108483Y-62291912D01*
X129900395Y-61500000D01*
X130259605Y-61500000D01*
X131051517Y-62291912D01*
X131292460Y-62223923D01*
X131477201Y-61704829D01*
X131449230Y-61154552D01*
X131292460Y-60776077D01*
X131051517Y-60708088D01*
X130259605Y-61500000D01*
X129900395Y-61500000D01*
X129108483Y-60708088D01*
X128867540Y-60776077D01*
X128808255Y-60942658D01*
X128714147Y-60715460D01*
X128527170Y-60528483D01*
X129288088Y-60528483D01*
X130080000Y-61320395D01*
X130871912Y-60528483D01*
X130803923Y-60287540D01*
X130284829Y-60102799D01*
X129734552Y-60130770D01*
X129356077Y-60287540D01*
X129288088Y-60528483D01*
X128527170Y-60528483D01*
X128324540Y-60325853D01*
X127815494Y-60115000D01*
X127264506Y-60115000D01*
X126755460Y-60325853D01*
X126386469Y-60694844D01*
X126348157Y-60502235D01*
X126207809Y-60292191D01*
X125997765Y-60151843D01*
X125750000Y-60102560D01*
X124250000Y-60102560D01*
X124002235Y-60151843D01*
X123792191Y-60292191D01*
X123651843Y-60502235D01*
X123602560Y-60750000D01*
X123602560Y-62250000D01*
X123651843Y-62497765D01*
X123792191Y-62707809D01*
X124002235Y-62848157D01*
X124250000Y-62897440D01*
X125750000Y-62897440D01*
X125997765Y-62848157D01*
X126207809Y-62707809D01*
X126348157Y-62497765D01*
X126386469Y-62305156D01*
X126405000Y-62323687D01*
X126405000Y-62687123D01*
X126342765Y-63000000D01*
X126430854Y-63442854D01*
X126681712Y-63818288D01*
X126776477Y-63881608D01*
X130865001Y-67970133D01*
X130865001Y-70232116D01*
X130559909Y-70028260D01*
X130141333Y-69945000D01*
X129858667Y-69945000D01*
X129440091Y-70028260D01*
X128965423Y-70345423D01*
X128648260Y-70820091D01*
X128536887Y-71380000D01*
X128648260Y-71939909D01*
X128965423Y-72414577D01*
X129317758Y-72650000D01*
X129115717Y-72785000D01*
X128585266Y-72785000D01*
X126135000Y-70064251D01*
X126135000Y-69007745D01*
X126671861Y-69007745D01*
X126745995Y-69253864D01*
X127283223Y-69446965D01*
X127853454Y-69419778D01*
X128254005Y-69253864D01*
X128328139Y-69007745D01*
X127500000Y-68179605D01*
X126671861Y-69007745D01*
X126135000Y-69007745D01*
X126135000Y-68485700D01*
X126246136Y-68754005D01*
X126492255Y-68828139D01*
X127320395Y-68000000D01*
X127679605Y-68000000D01*
X128507745Y-68828139D01*
X128753864Y-68754005D01*
X128946965Y-68216777D01*
X128919778Y-67646546D01*
X128753864Y-67245995D01*
X128507745Y-67171861D01*
X127679605Y-68000000D01*
X127320395Y-68000000D01*
X126492255Y-67171861D01*
X126246136Y-67245995D01*
X126135000Y-67555187D01*
X126135000Y-67060022D01*
X126142188Y-66992255D01*
X126671861Y-66992255D01*
X127500000Y-67820395D01*
X128328139Y-66992255D01*
X128254005Y-66746136D01*
X127716777Y-66553035D01*
X127146546Y-66580222D01*
X126745995Y-66746136D01*
X126671861Y-66992255D01*
X126142188Y-66992255D01*
X126152482Y-66895228D01*
X126103147Y-66728079D01*
X126069146Y-66557145D01*
X126039676Y-66513041D01*
X126024661Y-66462168D01*
X125915116Y-66326622D01*
X125818289Y-66181711D01*
X125680496Y-66089641D01*
X123135000Y-63968395D01*
X123135000Y-55750000D01*
X123602560Y-55750000D01*
X123602560Y-57250000D01*
X123651843Y-57497765D01*
X123792191Y-57707809D01*
X124002235Y-57848157D01*
X124250000Y-57897440D01*
X125750000Y-57897440D01*
X125997765Y-57848157D01*
X126207809Y-57707809D01*
X126348157Y-57497765D01*
X126386469Y-57305156D01*
X126755460Y-57674147D01*
X127264506Y-57885000D01*
X127815494Y-57885000D01*
X128324540Y-57674147D01*
X128527170Y-57471517D01*
X129288088Y-57471517D01*
X129356077Y-57712460D01*
X129875171Y-57897201D01*
X130425448Y-57869230D01*
X130803923Y-57712460D01*
X130871912Y-57471517D01*
X130080000Y-56679605D01*
X129288088Y-57471517D01*
X128527170Y-57471517D01*
X128714147Y-57284540D01*
X128803397Y-57069070D01*
X128867540Y-57223923D01*
X129108483Y-57291912D01*
X129900395Y-56500000D01*
X130259605Y-56500000D01*
X131051517Y-57291912D01*
X131292460Y-57223923D01*
X131477201Y-56704829D01*
X131449230Y-56154552D01*
X131292460Y-55776077D01*
X131051517Y-55708088D01*
X130259605Y-56500000D01*
X129900395Y-56500000D01*
X129108483Y-55708088D01*
X128867540Y-55776077D01*
X128808255Y-55942658D01*
X128714147Y-55715460D01*
X128527170Y-55528483D01*
X129288088Y-55528483D01*
X130080000Y-56320395D01*
X130871912Y-55528483D01*
X130803923Y-55287540D01*
X130284829Y-55102799D01*
X129734552Y-55130770D01*
X129356077Y-55287540D01*
X129288088Y-55528483D01*
X128527170Y-55528483D01*
X128324540Y-55325853D01*
X127815494Y-55115000D01*
X127264506Y-55115000D01*
X126755460Y-55325853D01*
X126386469Y-55694844D01*
X126348157Y-55502235D01*
X126207809Y-55292191D01*
X125997765Y-55151843D01*
X125750000Y-55102560D01*
X124250000Y-55102560D01*
X124002235Y-55151843D01*
X123792191Y-55292191D01*
X123651843Y-55502235D01*
X123602560Y-55750000D01*
X123135000Y-55750000D01*
X123135000Y-55611781D01*
X123157235Y-55499999D01*
X123114974Y-55287540D01*
X123069146Y-55057145D01*
X122818289Y-54681711D01*
X122723521Y-54618389D01*
X121381613Y-53276482D01*
X121318289Y-53181711D01*
X121173512Y-53084974D01*
X121187425Y-53064153D01*
X123627634Y-50623945D01*
X123602560Y-50750000D01*
X123602560Y-52250000D01*
X123651843Y-52497765D01*
X123792191Y-52707809D01*
X124002235Y-52848157D01*
X124250000Y-52897440D01*
X125750000Y-52897440D01*
X125997765Y-52848157D01*
X126207809Y-52707809D01*
X126348157Y-52497765D01*
X126386469Y-52305156D01*
X126755460Y-52674147D01*
X127264506Y-52885000D01*
X127815494Y-52885000D01*
X128324540Y-52674147D01*
X128527170Y-52471517D01*
X129288088Y-52471517D01*
X129356077Y-52712460D01*
X129875171Y-52897201D01*
X130425448Y-52869230D01*
X130803923Y-52712460D01*
X130871912Y-52471517D01*
X130080000Y-51679605D01*
X129288088Y-52471517D01*
X128527170Y-52471517D01*
X128714147Y-52284540D01*
X128803397Y-52069070D01*
X128867540Y-52223923D01*
X129108483Y-52291912D01*
X129900395Y-51500000D01*
X130259605Y-51500000D01*
X131051517Y-52291912D01*
X131292460Y-52223923D01*
X131477201Y-51704829D01*
X131449230Y-51154552D01*
X131292460Y-50776077D01*
X131051517Y-50708088D01*
X130259605Y-51500000D01*
X129900395Y-51500000D01*
X129108483Y-50708088D01*
X128867540Y-50776077D01*
X128808255Y-50942658D01*
X128714147Y-50715460D01*
X128527170Y-50528483D01*
X129288088Y-50528483D01*
X130080000Y-51320395D01*
X130871912Y-50528483D01*
X130803923Y-50287540D01*
X130284829Y-50102799D01*
X129734552Y-50130770D01*
X129356077Y-50287540D01*
X129288088Y-50528483D01*
X128527170Y-50528483D01*
X128441622Y-50442935D01*
X128442337Y-50439339D01*
X128425000Y-50352179D01*
X128425000Y-50352175D01*
X128373652Y-50094030D01*
X128178049Y-49801291D01*
X128104156Y-49751917D01*
X127288085Y-48935847D01*
X127238709Y-48861951D01*
X126945970Y-48666348D01*
X126687825Y-48615000D01*
X126687821Y-48615000D01*
X126600660Y-48597663D01*
X126513499Y-48615000D01*
X123587161Y-48615000D01*
X123500000Y-48597663D01*
X123412839Y-48615000D01*
X123412835Y-48615000D01*
X123154690Y-48666348D01*
X122935845Y-48812576D01*
X122935844Y-48812577D01*
X122861951Y-48861951D01*
X122812577Y-48935844D01*
X120447440Y-51300982D01*
X120447440Y-50200000D01*
X120398157Y-49952235D01*
X120257809Y-49742191D01*
X120047765Y-49601843D01*
X119800000Y-49552560D01*
X118200000Y-49552560D01*
X117952235Y-49601843D01*
X117742191Y-49742191D01*
X117601843Y-49952235D01*
X117567681Y-50123982D01*
X117354690Y-50166348D01*
X117135845Y-50312576D01*
X117135844Y-50312577D01*
X117061951Y-50361951D01*
X117012577Y-50435844D01*
X112918896Y-54529526D01*
X113020000Y-54285439D01*
X113020000Y-53714561D01*
X112801534Y-53187138D01*
X112397862Y-52783466D01*
X111870439Y-52565000D01*
X111299561Y-52565000D01*
X110772138Y-52783466D01*
X110368466Y-53187138D01*
X110150000Y-53714561D01*
X110150000Y-54285439D01*
X110368466Y-54812862D01*
X110772138Y-55216534D01*
X111299561Y-55435000D01*
X111870439Y-55435000D01*
X112350113Y-55236312D01*
X112315000Y-55412836D01*
X112315000Y-55412839D01*
X112297663Y-55500000D01*
X112315000Y-55587161D01*
X112315000Y-55785604D01*
X112312862Y-55783466D01*
X111785439Y-55565000D01*
X111214561Y-55565000D01*
X110687138Y-55783466D01*
X110283466Y-56187138D01*
X110065000Y-56714561D01*
X110065000Y-57285439D01*
X110283466Y-57812862D01*
X110687138Y-58216534D01*
X111214561Y-58435000D01*
X111785439Y-58435000D01*
X112312862Y-58216534D01*
X112315000Y-58214396D01*
X112315000Y-58898888D01*
X111939909Y-58648260D01*
X111521333Y-58565000D01*
X111238667Y-58565000D01*
X110820091Y-58648260D01*
X110345423Y-58965423D01*
X110028260Y-59440091D01*
X109916887Y-60000000D01*
X110028260Y-60559909D01*
X110345423Y-61034577D01*
X110798869Y-61337560D01*
X110785000Y-61337560D01*
X110537235Y-61386843D01*
X110327191Y-61527191D01*
X110186843Y-61737235D01*
X110137560Y-61985000D01*
X110137560Y-63585000D01*
X110186843Y-63832765D01*
X110327191Y-64042809D01*
X110537235Y-64183157D01*
X110785000Y-64232440D01*
X112315001Y-64232440D01*
X112315001Y-66666912D01*
X112144909Y-66553260D01*
X111726333Y-66470000D01*
X111443667Y-66470000D01*
X111025091Y-66553260D01*
X110550423Y-66870423D01*
X110233260Y-67345091D01*
X110121887Y-67905000D01*
X110233260Y-68464909D01*
X110550423Y-68939577D01*
X111025091Y-69256740D01*
X111443667Y-69340000D01*
X111726333Y-69340000D01*
X112144909Y-69256740D01*
X112619577Y-68939577D01*
X112695048Y-68826626D01*
X116436681Y-72568260D01*
X117308422Y-73440000D01*
X116935847Y-73812575D01*
X116861951Y-73861951D01*
X116666348Y-74154691D01*
X116615000Y-74412836D01*
X116615000Y-74412839D01*
X116597663Y-74500000D01*
X116615000Y-74587161D01*
X116615001Y-84912835D01*
X116597663Y-85000000D01*
X116666348Y-85345309D01*
X116812576Y-85564154D01*
X116812578Y-85564156D01*
X116861952Y-85638049D01*
X116935845Y-85687423D01*
X117812577Y-86564156D01*
X117861951Y-86638049D01*
X117935844Y-86687423D01*
X117935845Y-86687424D01*
X118035490Y-86754005D01*
X118047376Y-86761947D01*
X118068466Y-86812862D01*
X118472138Y-87216534D01*
X118999561Y-87435000D01*
X119570439Y-87435000D01*
X120097862Y-87216534D01*
X120501534Y-86812862D01*
X120720000Y-86285439D01*
X120720000Y-85714561D01*
X120501534Y-85187138D01*
X120097862Y-84783466D01*
X119570439Y-84565000D01*
X118999561Y-84565000D01*
X118516620Y-84765041D01*
X118385000Y-84633422D01*
X118385000Y-83691044D01*
X118805091Y-83971740D01*
X119223667Y-84055000D01*
X119506333Y-84055000D01*
X119924909Y-83971740D01*
X120399577Y-83654577D01*
X120488926Y-83520856D01*
X120496370Y-83522337D01*
X120583531Y-83505000D01*
X120583535Y-83505000D01*
X120841680Y-83453652D01*
X121134419Y-83258049D01*
X121181936Y-83186935D01*
X121253050Y-83139418D01*
X121448653Y-82846679D01*
X121500001Y-82588534D01*
X121500001Y-82588530D01*
X121517338Y-82501369D01*
X121500001Y-82414208D01*
X121500001Y-80137863D01*
X121820091Y-80351740D01*
X122238667Y-80435000D01*
X122521333Y-80435000D01*
X122939909Y-80351740D01*
X123414577Y-80034577D01*
X123731740Y-79559909D01*
X123786273Y-79285750D01*
X128565000Y-79285750D01*
X128565000Y-79926310D01*
X128661673Y-80159699D01*
X128840302Y-80338327D01*
X129073691Y-80435000D01*
X129714250Y-80435000D01*
X129873000Y-80276250D01*
X129873000Y-79127000D01*
X128723750Y-79127000D01*
X128565000Y-79285750D01*
X123786273Y-79285750D01*
X123843113Y-79000000D01*
X123731740Y-78440091D01*
X123414577Y-77965423D01*
X123062242Y-77730000D01*
X123414577Y-77494577D01*
X123731740Y-77019909D01*
X123843113Y-76460000D01*
X123731740Y-75900091D01*
X123414577Y-75425423D01*
X123062242Y-75190000D01*
X123414577Y-74954577D01*
X123731740Y-74479909D01*
X123843113Y-73920000D01*
X123731740Y-73360091D01*
X123414577Y-72885423D01*
X123062242Y-72650000D01*
X123414577Y-72414577D01*
X123731740Y-71939909D01*
X123843113Y-71380000D01*
X123731740Y-70820091D01*
X123414577Y-70345423D01*
X122939909Y-70028260D01*
X122521333Y-69945000D01*
X122238667Y-69945000D01*
X121820091Y-70028260D01*
X121500001Y-70242137D01*
X121500001Y-69029397D01*
X121687138Y-69216534D01*
X122214561Y-69435000D01*
X122785439Y-69435000D01*
X123312862Y-69216534D01*
X123716534Y-68812862D01*
X123865000Y-68454433D01*
X123865001Y-70358184D01*
X123844345Y-70439551D01*
X123865001Y-70581912D01*
X123865001Y-70611783D01*
X123881021Y-70692319D01*
X123909181Y-70886401D01*
X123924870Y-70912766D01*
X123930855Y-70942855D01*
X124039805Y-71105910D01*
X124081801Y-71176483D01*
X124101793Y-71198682D01*
X124181712Y-71318289D01*
X124251511Y-71364927D01*
X127181793Y-74618684D01*
X127261711Y-74738289D01*
X127424769Y-74847241D01*
X127581902Y-74964553D01*
X127611636Y-74972101D01*
X127637145Y-74989146D01*
X127829482Y-75027404D01*
X128019550Y-75075655D01*
X128161905Y-75055000D01*
X129115717Y-75055000D01*
X129317758Y-75190000D01*
X128965423Y-75425423D01*
X128648260Y-75900091D01*
X128536887Y-76460000D01*
X128648260Y-77019909D01*
X128965423Y-77494577D01*
X129071918Y-77565735D01*
X128840302Y-77661673D01*
X128661673Y-77840301D01*
X128565000Y-78073690D01*
X128565000Y-78714250D01*
X128723750Y-78873000D01*
X129873000Y-78873000D01*
X129873000Y-78853000D01*
X130127000Y-78853000D01*
X130127000Y-78873000D01*
X130147000Y-78873000D01*
X130147000Y-79127000D01*
X130127000Y-79127000D01*
X130127000Y-80276250D01*
X130285750Y-80435000D01*
X130865000Y-80435000D01*
X130865000Y-82529868D01*
X129529869Y-83865000D01*
X127111783Y-83865000D01*
X127000000Y-83842765D01*
X126888217Y-83865000D01*
X126557145Y-83930854D01*
X126181711Y-84181711D01*
X126118389Y-84276479D01*
X121579870Y-88814999D01*
X113361783Y-88814999D01*
X113250000Y-88792764D01*
X112807146Y-88880853D01*
X112431712Y-89131710D01*
X112368390Y-89226478D01*
X106276480Y-95318389D01*
X106181712Y-95381711D01*
X105996085Y-95659522D01*
X105930854Y-95757146D01*
X105842765Y-96200000D01*
X105865001Y-96311788D01*
X105865001Y-96660132D01*
X105742191Y-96742191D01*
X105601843Y-96952235D01*
X105552560Y-97200000D01*
X103735000Y-97200000D01*
X103735000Y-88507745D01*
X105671861Y-88507745D01*
X105745995Y-88753864D01*
X106283223Y-88946965D01*
X106853454Y-88919778D01*
X107254005Y-88753864D01*
X107328139Y-88507745D01*
X106500000Y-87679605D01*
X105671861Y-88507745D01*
X103735000Y-88507745D01*
X103735000Y-87283223D01*
X105053035Y-87283223D01*
X105080222Y-87853454D01*
X105246136Y-88254005D01*
X105492255Y-88328139D01*
X106320395Y-87500000D01*
X106679605Y-87500000D01*
X107507745Y-88328139D01*
X107555307Y-88313813D01*
X107601843Y-88547765D01*
X107742191Y-88757809D01*
X107952235Y-88898157D01*
X108200000Y-88947440D01*
X109800000Y-88947440D01*
X110047765Y-88898157D01*
X110257809Y-88757809D01*
X110398157Y-88547765D01*
X110447440Y-88300000D01*
X110447440Y-87007745D01*
X113456861Y-87007745D01*
X113530995Y-87253864D01*
X114068223Y-87446965D01*
X114638454Y-87419778D01*
X115039005Y-87253864D01*
X115113139Y-87007745D01*
X114285000Y-86179605D01*
X113456861Y-87007745D01*
X110447440Y-87007745D01*
X110447440Y-86700000D01*
X110398157Y-86452235D01*
X110257809Y-86242191D01*
X110047765Y-86101843D01*
X109800000Y-86052560D01*
X108200000Y-86052560D01*
X107952235Y-86101843D01*
X107742191Y-86242191D01*
X107601843Y-86452235D01*
X107555307Y-86686187D01*
X107507745Y-86671861D01*
X106679605Y-87500000D01*
X106320395Y-87500000D01*
X105492255Y-86671861D01*
X105246136Y-86745995D01*
X105053035Y-87283223D01*
X103735000Y-87283223D01*
X103735000Y-86492255D01*
X105671861Y-86492255D01*
X106500000Y-87320395D01*
X107328139Y-86492255D01*
X107254005Y-86246136D01*
X106716777Y-86053035D01*
X106146546Y-86080222D01*
X105745995Y-86246136D01*
X105671861Y-86492255D01*
X103735000Y-86492255D01*
X103735000Y-85783223D01*
X112838035Y-85783223D01*
X112865222Y-86353454D01*
X113031136Y-86754005D01*
X113277255Y-86828139D01*
X114105395Y-86000000D01*
X114464605Y-86000000D01*
X115292745Y-86828139D01*
X115538864Y-86754005D01*
X115731965Y-86216777D01*
X115704778Y-85646546D01*
X115538864Y-85245995D01*
X115292745Y-85171861D01*
X114464605Y-86000000D01*
X114105395Y-86000000D01*
X113277255Y-85171861D01*
X113031136Y-85245995D01*
X112838035Y-85783223D01*
X103735000Y-85783223D01*
X103735000Y-84992255D01*
X113456861Y-84992255D01*
X114285000Y-85820395D01*
X115113139Y-84992255D01*
X115039005Y-84746136D01*
X114501777Y-84553035D01*
X113931546Y-84580222D01*
X113530995Y-84746136D01*
X113456861Y-84992255D01*
X103735000Y-84992255D01*
X103735000Y-82334561D01*
X110310000Y-82334561D01*
X110310000Y-82905439D01*
X110528466Y-83432862D01*
X110932138Y-83836534D01*
X111459561Y-84055000D01*
X112030439Y-84055000D01*
X112557862Y-83836534D01*
X112961534Y-83432862D01*
X113180000Y-82905439D01*
X113180000Y-82334561D01*
X112961534Y-81807138D01*
X112557862Y-81403466D01*
X112030439Y-81185000D01*
X111459561Y-81185000D01*
X110932138Y-81403466D01*
X110528466Y-81807138D01*
X110310000Y-82334561D01*
X103735000Y-82334561D01*
X103735000Y-73694670D01*
X106465000Y-73694670D01*
X106465000Y-74305330D01*
X106698690Y-74869507D01*
X107079183Y-75250000D01*
X106698690Y-75630493D01*
X106465000Y-76194670D01*
X106465000Y-76805330D01*
X106698690Y-77369507D01*
X107079183Y-77750000D01*
X106698690Y-78130493D01*
X106465000Y-78694670D01*
X106465000Y-79305330D01*
X106698690Y-79869507D01*
X107130493Y-80301310D01*
X107694670Y-80535000D01*
X108305330Y-80535000D01*
X108869507Y-80301310D01*
X109301310Y-79869507D01*
X109535000Y-79305330D01*
X109535000Y-79159561D01*
X110310000Y-79159561D01*
X110310000Y-79730439D01*
X110528466Y-80257862D01*
X110932138Y-80661534D01*
X111459561Y-80880000D01*
X112030439Y-80880000D01*
X112557862Y-80661534D01*
X112961534Y-80257862D01*
X113180000Y-79730439D01*
X113180000Y-79159561D01*
X112961534Y-78632138D01*
X112557862Y-78228466D01*
X112030439Y-78010000D01*
X111459561Y-78010000D01*
X110932138Y-78228466D01*
X110528466Y-78632138D01*
X110310000Y-79159561D01*
X109535000Y-79159561D01*
X109535000Y-78694670D01*
X109301310Y-78130493D01*
X108920817Y-77750000D01*
X109301310Y-77369507D01*
X109535000Y-76805330D01*
X109535000Y-76194670D01*
X109301310Y-75630493D01*
X108920817Y-75250000D01*
X109301310Y-74869507D01*
X109535000Y-74305330D01*
X109535000Y-73694670D01*
X109330101Y-73200000D01*
X110052560Y-73200000D01*
X110052560Y-74800000D01*
X110101843Y-75047765D01*
X110242191Y-75257809D01*
X110452235Y-75398157D01*
X110552503Y-75418101D01*
X110283466Y-75687138D01*
X110065000Y-76214561D01*
X110065000Y-76785439D01*
X110283466Y-77312862D01*
X110687138Y-77716534D01*
X111214561Y-77935000D01*
X111785439Y-77935000D01*
X112312862Y-77716534D01*
X112716534Y-77312862D01*
X112935000Y-76785439D01*
X112935000Y-76214561D01*
X112716534Y-75687138D01*
X112447497Y-75418101D01*
X112547765Y-75398157D01*
X112757809Y-75257809D01*
X112898157Y-75047765D01*
X112947440Y-74800000D01*
X112947440Y-73200000D01*
X112898157Y-72952235D01*
X112757809Y-72742191D01*
X112547765Y-72601843D01*
X112300000Y-72552560D01*
X110700000Y-72552560D01*
X110452235Y-72601843D01*
X110242191Y-72742191D01*
X110101843Y-72952235D01*
X110052560Y-73200000D01*
X109330101Y-73200000D01*
X109301310Y-73130493D01*
X108869507Y-72698690D01*
X108305330Y-72465000D01*
X107694670Y-72465000D01*
X107130493Y-72698690D01*
X106698690Y-73130493D01*
X106465000Y-73694670D01*
X103735000Y-73694670D01*
X103735000Y-71080000D01*
X110121887Y-71080000D01*
X110233260Y-71639909D01*
X110550423Y-72114577D01*
X111025091Y-72431740D01*
X111443667Y-72515000D01*
X111726333Y-72515000D01*
X112144909Y-72431740D01*
X112619577Y-72114577D01*
X112936740Y-71639909D01*
X113048113Y-71080000D01*
X112936740Y-70520091D01*
X112619577Y-70045423D01*
X112144909Y-69728260D01*
X111726333Y-69645000D01*
X111443667Y-69645000D01*
X111025091Y-69728260D01*
X110550423Y-70045423D01*
X110233260Y-70520091D01*
X110121887Y-71080000D01*
X103735000Y-71080000D01*
X103735000Y-51129670D01*
X106240000Y-51129670D01*
X106240000Y-51740330D01*
X106473690Y-52304507D01*
X106854183Y-52685000D01*
X106473690Y-53065493D01*
X106240000Y-53629670D01*
X106240000Y-54240330D01*
X106473690Y-54804507D01*
X106854183Y-55185000D01*
X106473690Y-55565493D01*
X106240000Y-56129670D01*
X106240000Y-56740330D01*
X106473690Y-57304507D01*
X106905493Y-57736310D01*
X107469670Y-57970000D01*
X108080330Y-57970000D01*
X108644507Y-57736310D01*
X109076310Y-57304507D01*
X109310000Y-56740330D01*
X109310000Y-56129670D01*
X109076310Y-55565493D01*
X108695817Y-55185000D01*
X109076310Y-54804507D01*
X109310000Y-54240330D01*
X109310000Y-53629670D01*
X109076310Y-53065493D01*
X108695817Y-52685000D01*
X109076310Y-52304507D01*
X109310000Y-51740330D01*
X109310000Y-51129670D01*
X109256289Y-51000000D01*
X109916887Y-51000000D01*
X110028260Y-51559909D01*
X110345423Y-52034577D01*
X110820091Y-52351740D01*
X111238667Y-52435000D01*
X111521333Y-52435000D01*
X111939909Y-52351740D01*
X112414577Y-52034577D01*
X112731740Y-51559909D01*
X112843113Y-51000000D01*
X112731740Y-50440091D01*
X112414577Y-49965423D01*
X111939909Y-49648260D01*
X111521333Y-49565000D01*
X111238667Y-49565000D01*
X110820091Y-49648260D01*
X110345423Y-49965423D01*
X110028260Y-50440091D01*
X109916887Y-51000000D01*
X109256289Y-51000000D01*
X109076310Y-50565493D01*
X108644507Y-50133690D01*
X108080330Y-49900000D01*
X107469670Y-49900000D01*
X106905493Y-50133690D01*
X106473690Y-50565493D01*
X106240000Y-51129670D01*
X103735000Y-51129670D01*
X103735000Y-47235000D01*
X133265001Y-47235000D01*
X133265000Y-145265000D01*
X133265000Y-145265000D01*
G37*
X133265000Y-145265000D02*
X103735000Y-145265000D01*
X103735000Y-142334971D01*
X103901074Y-142445938D01*
X104500000Y-142565072D01*
X105098927Y-142445938D01*
X105606673Y-142106673D01*
X105945938Y-141598927D01*
X106035000Y-141151182D01*
X106035000Y-140268153D01*
X106301074Y-140445938D01*
X106900000Y-140565072D01*
X107498927Y-140445938D01*
X108006673Y-140106673D01*
X108345938Y-139598927D01*
X108435000Y-139151182D01*
X108435000Y-138627000D01*
X110865000Y-138627000D01*
X110865000Y-139127000D01*
X111030446Y-139704752D01*
X111404394Y-140175212D01*
X111929914Y-140466756D01*
X112035260Y-140491036D01*
X112273000Y-140370378D01*
X112273000Y-138627000D01*
X112527000Y-138627000D01*
X112527000Y-140370378D01*
X112764740Y-140491036D01*
X112870086Y-140466756D01*
X113395606Y-140175212D01*
X113769554Y-139704752D01*
X113935000Y-139127000D01*
X113935000Y-138627000D01*
X112527000Y-138627000D01*
X112273000Y-138627000D01*
X110865000Y-138627000D01*
X108435000Y-138627000D01*
X108435000Y-137873000D01*
X110865000Y-137873000D01*
X110865000Y-138373000D01*
X112273000Y-138373000D01*
X112273000Y-136629622D01*
X112527000Y-136629622D01*
X112527000Y-138373000D01*
X113935000Y-138373000D01*
X113935000Y-137873000D01*
X113769554Y-137295248D01*
X113395606Y-136824788D01*
X112870086Y-136533244D01*
X112764740Y-136508964D01*
X112527000Y-136629622D01*
X112273000Y-136629622D01*
X112035260Y-136508964D01*
X111929914Y-136533244D01*
X111404394Y-136824788D01*
X111030446Y-137295248D01*
X110865000Y-137873000D01*
X108435000Y-137873000D01*
X108435000Y-137848818D01*
X108345938Y-137401073D01*
X108006673Y-136893327D01*
X107498926Y-136554062D01*
X106900000Y-136434928D01*
X106301073Y-136554062D01*
X105793327Y-136893327D01*
X105454062Y-137401074D01*
X105365000Y-137848819D01*
X105365000Y-138731847D01*
X105098926Y-138554062D01*
X104500000Y-138434928D01*
X103901073Y-138554062D01*
X103735000Y-138665028D01*
X103735000Y-135714620D01*
X103900000Y-135747440D01*
X106100000Y-135747440D01*
X106347765Y-135698157D01*
X106557809Y-135557809D01*
X106698157Y-135347765D01*
X106747440Y-135100000D01*
X106747440Y-134000000D01*
X113391010Y-134000000D01*
X113525666Y-134676963D01*
X113909135Y-135250865D01*
X114483037Y-135634334D01*
X114989120Y-135735000D01*
X115330880Y-135735000D01*
X115836963Y-135634334D01*
X116217600Y-135380000D01*
X119376887Y-135380000D01*
X119488260Y-135939909D01*
X119805423Y-136414577D01*
X120157758Y-136650000D01*
X119805423Y-136885423D01*
X119488260Y-137360091D01*
X119376887Y-137920000D01*
X119488260Y-138479909D01*
X119805423Y-138954577D01*
X120157758Y-139190000D01*
X119805423Y-139425423D01*
X119488260Y-139900091D01*
X119376887Y-140460000D01*
X119488260Y-141019909D01*
X119805423Y-141494577D01*
X120157758Y-141730000D01*
X119805423Y-141965423D01*
X119488260Y-142440091D01*
X119376887Y-143000000D01*
X119488260Y-143559909D01*
X119805423Y-144034577D01*
X120280091Y-144351740D01*
X120698667Y-144435000D01*
X120981333Y-144435000D01*
X121399909Y-144351740D01*
X121874577Y-144034577D01*
X122191740Y-143559909D01*
X122303113Y-143000000D01*
X122191740Y-142440091D01*
X121874577Y-141965423D01*
X121522242Y-141730000D01*
X121874577Y-141494577D01*
X122191740Y-141019909D01*
X122303113Y-140460000D01*
X122191740Y-139900091D01*
X121874577Y-139425423D01*
X121522242Y-139190000D01*
X121874577Y-138954577D01*
X122191740Y-138479909D01*
X122303113Y-137920000D01*
X122191740Y-137360091D01*
X121874577Y-136885423D01*
X121522242Y-136650000D01*
X121874577Y-136414577D01*
X122191740Y-135939909D01*
X122303113Y-135380000D01*
X122191740Y-134820091D01*
X121874577Y-134345423D01*
X121490892Y-134089053D01*
X121695134Y-133992389D01*
X122071041Y-133577423D01*
X122231904Y-133189039D01*
X122109915Y-132967000D01*
X120967000Y-132967000D01*
X120967000Y-132987000D01*
X120713000Y-132987000D01*
X120713000Y-132967000D01*
X119570085Y-132967000D01*
X119448096Y-133189039D01*
X119608959Y-133577423D01*
X119984866Y-133992389D01*
X120189108Y-134089053D01*
X119805423Y-134345423D01*
X119488260Y-134820091D01*
X119376887Y-135380000D01*
X116217600Y-135380000D01*
X116410865Y-135250865D01*
X116794334Y-134676963D01*
X116928990Y-134000000D01*
X116794334Y-133323037D01*
X116410865Y-132749135D01*
X115836963Y-132365666D01*
X115330880Y-132265000D01*
X114989120Y-132265000D01*
X114483037Y-132365666D01*
X113909135Y-132749135D01*
X113525666Y-133323037D01*
X113391010Y-134000000D01*
X106747440Y-134000000D01*
X106747440Y-132900000D01*
X106698157Y-132652235D01*
X106557809Y-132442191D01*
X106347765Y-132301843D01*
X106100000Y-132252560D01*
X103900000Y-132252560D01*
X103735000Y-132285380D01*
X103735000Y-124334971D01*
X103901074Y-124445938D01*
X104500000Y-124565072D01*
X105098927Y-124445938D01*
X105606673Y-124106673D01*
X105945938Y-123598927D01*
X106035000Y-123151182D01*
X106035000Y-122268153D01*
X106301074Y-122445938D01*
X106849994Y-122555125D01*
X109518390Y-125223523D01*
X109581711Y-125318289D01*
X109957145Y-125569146D01*
X110288217Y-125635000D01*
X110399999Y-125657235D01*
X110511781Y-125635000D01*
X119329871Y-125635000D01*
X120174011Y-126479140D01*
X119805423Y-126725423D01*
X119488260Y-127200091D01*
X119376887Y-127760000D01*
X119488260Y-128319909D01*
X119805423Y-128794577D01*
X120157758Y-129030000D01*
X119955717Y-129165000D01*
X118605154Y-129165000D01*
X116849700Y-127728721D01*
X116818289Y-127681711D01*
X116676224Y-127586786D01*
X116632209Y-127550774D01*
X116583514Y-127524840D01*
X116442855Y-127430854D01*
X116385700Y-127419485D01*
X116334272Y-127392095D01*
X116165910Y-127375766D01*
X116111783Y-127365000D01*
X116054898Y-127365000D01*
X115884851Y-127348508D01*
X115830775Y-127365000D01*
X110411782Y-127365000D01*
X110299999Y-127342765D01*
X109938407Y-127414690D01*
X109857145Y-127430854D01*
X109481711Y-127681711D01*
X109418389Y-127776479D01*
X107835863Y-129359006D01*
X107757809Y-129242191D01*
X107547765Y-129101843D01*
X107300000Y-129052560D01*
X105700000Y-129052560D01*
X105452235Y-129101843D01*
X105242191Y-129242191D01*
X105101843Y-129452235D01*
X105052560Y-129700000D01*
X105052560Y-131300000D01*
X105101843Y-131547765D01*
X105242191Y-131757809D01*
X105452235Y-131898157D01*
X105700000Y-131947440D01*
X107300000Y-131947440D01*
X107547765Y-131898157D01*
X107757809Y-131757809D01*
X107839868Y-131635000D01*
X108188217Y-131635000D01*
X108300000Y-131657235D01*
X108411783Y-131635000D01*
X108742855Y-131569146D01*
X109118289Y-131318289D01*
X109181613Y-131223518D01*
X110770132Y-129635000D01*
X112972115Y-129635000D01*
X112768260Y-129940091D01*
X112656887Y-130500000D01*
X112768260Y-131059909D01*
X113085423Y-131534577D01*
X113560091Y-131851740D01*
X113978667Y-131935000D01*
X114261333Y-131935000D01*
X114679909Y-131851740D01*
X115154577Y-131534577D01*
X115471740Y-131059909D01*
X115583113Y-130500000D01*
X115471740Y-129940091D01*
X115267885Y-129635000D01*
X115594847Y-129635000D01*
X117350301Y-131071280D01*
X117381711Y-131118289D01*
X117523771Y-131213211D01*
X117567790Y-131249226D01*
X117616489Y-131275163D01*
X117757145Y-131369146D01*
X117814298Y-131380514D01*
X117865727Y-131407905D01*
X118034091Y-131424234D01*
X118088217Y-131435000D01*
X118145101Y-131435000D01*
X118315149Y-131451492D01*
X118369225Y-131435000D01*
X119955717Y-131435000D01*
X120189108Y-131590947D01*
X119984866Y-131687611D01*
X119608959Y-132102577D01*
X119448096Y-132490961D01*
X119570085Y-132713000D01*
X120713000Y-132713000D01*
X120713000Y-132693000D01*
X120967000Y-132693000D01*
X120967000Y-132713000D01*
X122109915Y-132713000D01*
X122231904Y-132490961D01*
X122071041Y-132102577D01*
X121695134Y-131687611D01*
X121490892Y-131590947D01*
X121874577Y-131334577D01*
X122191740Y-130859909D01*
X122303113Y-130300000D01*
X122191740Y-129740091D01*
X121874577Y-129265423D01*
X121522242Y-129030000D01*
X121874577Y-128794577D01*
X122120860Y-128425989D01*
X127365000Y-133670130D01*
X127365001Y-138888212D01*
X127342765Y-139000000D01*
X127430854Y-139442854D01*
X127430855Y-139442855D01*
X127681712Y-139818289D01*
X127776480Y-139881611D01*
X129118393Y-141223525D01*
X129181712Y-141318288D01*
X129276475Y-141381607D01*
X129276476Y-141381608D01*
X129439792Y-141490732D01*
X129557146Y-141569146D01*
X129865001Y-141630382D01*
X129865001Y-141660132D01*
X129742191Y-141742191D01*
X129601843Y-141952235D01*
X129552560Y-142200000D01*
X129552560Y-143800000D01*
X129601843Y-144047765D01*
X129742191Y-144257809D01*
X129952235Y-144398157D01*
X130200000Y-144447440D01*
X131800000Y-144447440D01*
X132047765Y-144398157D01*
X132257809Y-144257809D01*
X132398157Y-144047765D01*
X132447440Y-143800000D01*
X132447440Y-142200000D01*
X132398157Y-141952235D01*
X132257809Y-141742191D01*
X132135000Y-141660132D01*
X132135000Y-141344283D01*
X132351740Y-141019909D01*
X132463113Y-140460000D01*
X132351740Y-139900091D01*
X132034577Y-139425423D01*
X131682242Y-139190000D01*
X132034577Y-138954577D01*
X132351740Y-138479909D01*
X132463113Y-137920000D01*
X132351740Y-137360091D01*
X132034577Y-136885423D01*
X131682242Y-136650000D01*
X132034577Y-136414577D01*
X132351740Y-135939909D01*
X132463113Y-135380000D01*
X132428017Y-135203561D01*
X132814157Y-134817422D01*
X132888050Y-134768048D01*
X132948912Y-134676963D01*
X133083652Y-134475310D01*
X133083653Y-134475309D01*
X133135001Y-134217164D01*
X133135001Y-134217160D01*
X133152338Y-134130000D01*
X133135001Y-134042840D01*
X133135001Y-119587164D01*
X133152339Y-119500000D01*
X133135001Y-119412835D01*
X133135001Y-102659241D01*
X133152338Y-102572081D01*
X133135001Y-102484921D01*
X133135001Y-102484917D01*
X133083653Y-102226772D01*
X132888050Y-101934033D01*
X132814157Y-101884659D01*
X130614802Y-99685305D01*
X130798922Y-99501185D01*
X131025000Y-98955385D01*
X131025000Y-98364615D01*
X130798922Y-97818815D01*
X130381185Y-97401078D01*
X130334753Y-97381845D01*
X130404353Y-97163958D01*
X129540000Y-96299605D01*
X128675647Y-97163958D01*
X128745247Y-97381845D01*
X128698815Y-97401078D01*
X128574893Y-97525000D01*
X127965107Y-97525000D01*
X127841185Y-97401078D01*
X127794753Y-97381845D01*
X127864353Y-97163958D01*
X127000000Y-96299605D01*
X126135647Y-97163958D01*
X126205247Y-97381845D01*
X126158815Y-97401078D01*
X125741078Y-97818815D01*
X125515000Y-98364615D01*
X125515000Y-98955385D01*
X125741078Y-99501185D01*
X126158815Y-99918922D01*
X126704615Y-100145000D01*
X127295385Y-100145000D01*
X127841185Y-99918922D01*
X127965107Y-99795000D01*
X128574893Y-99795000D01*
X128638378Y-99858485D01*
X128637663Y-99862081D01*
X128706348Y-100207390D01*
X128852576Y-100426235D01*
X128852578Y-100426237D01*
X128901952Y-100500130D01*
X128975845Y-100549504D01*
X131365001Y-102938661D01*
X131365001Y-103087165D01*
X131365002Y-103087170D01*
X131365001Y-118615000D01*
X131031260Y-118615000D01*
X130767546Y-118351286D01*
X130269526Y-118145000D01*
X129730474Y-118145000D01*
X129232454Y-118351286D01*
X128851286Y-118732454D01*
X128730000Y-119025265D01*
X128608714Y-118732454D01*
X128227546Y-118351286D01*
X127729526Y-118145000D01*
X127190474Y-118145000D01*
X126692454Y-118351286D01*
X126311286Y-118732454D01*
X126196675Y-119009151D01*
X126107611Y-118794131D01*
X125869774Y-118729831D01*
X125099605Y-119500000D01*
X125869774Y-120270169D01*
X126107611Y-120205869D01*
X126189649Y-119973886D01*
X126311286Y-120267546D01*
X126692454Y-120648714D01*
X127190474Y-120855000D01*
X127729526Y-120855000D01*
X128227546Y-120648714D01*
X128608714Y-120267546D01*
X128730000Y-119974735D01*
X128851286Y-120267546D01*
X129232454Y-120648714D01*
X129730474Y-120855000D01*
X130269526Y-120855000D01*
X130767546Y-120648714D01*
X131031260Y-120385000D01*
X131365002Y-120385000D01*
X131365002Y-126369490D01*
X131141333Y-126325000D01*
X130858667Y-126325000D01*
X130440091Y-126408260D01*
X129972364Y-126720785D01*
X123885000Y-120633422D01*
X123885000Y-120449774D01*
X124149831Y-120449774D01*
X124214131Y-120687611D01*
X124722342Y-120867333D01*
X125260644Y-120838892D01*
X125625869Y-120687611D01*
X125690169Y-120449774D01*
X124920000Y-119679605D01*
X124149831Y-120449774D01*
X123885000Y-120449774D01*
X123885000Y-120247128D01*
X123970226Y-120270169D01*
X124740395Y-119500000D01*
X123970226Y-118729831D01*
X123885000Y-118752872D01*
X123885000Y-118550226D01*
X124149831Y-118550226D01*
X124920000Y-119320395D01*
X125690169Y-118550226D01*
X125625869Y-118312389D01*
X125117658Y-118132667D01*
X124579356Y-118161108D01*
X124214131Y-118312389D01*
X124149831Y-118550226D01*
X123885000Y-118550226D01*
X123885000Y-116286578D01*
X124816579Y-115355000D01*
X125189526Y-115355000D01*
X125687546Y-115148714D01*
X126068714Y-114767546D01*
X126190000Y-114474735D01*
X126311286Y-114767546D01*
X126692454Y-115148714D01*
X127190474Y-115355000D01*
X127729526Y-115355000D01*
X128227546Y-115148714D01*
X128608714Y-114767546D01*
X128730000Y-114474735D01*
X128851286Y-114767546D01*
X129232454Y-115148714D01*
X129730474Y-115355000D01*
X130269526Y-115355000D01*
X130767546Y-115148714D01*
X131148714Y-114767546D01*
X131355000Y-114269526D01*
X131355000Y-113730474D01*
X131148714Y-113232454D01*
X130767546Y-112851286D01*
X130269526Y-112645000D01*
X129730474Y-112645000D01*
X129232454Y-112851286D01*
X128851286Y-113232454D01*
X128730000Y-113525265D01*
X128608714Y-113232454D01*
X128227546Y-112851286D01*
X127729526Y-112645000D01*
X127356578Y-112645000D01*
X127057970Y-112346392D01*
X126928048Y-112151950D01*
X126854152Y-112102574D01*
X126687425Y-111935847D01*
X126638049Y-111861951D01*
X126345310Y-111666348D01*
X126087165Y-111615000D01*
X126087161Y-111615000D01*
X126000000Y-111597663D01*
X125912839Y-111615000D01*
X123587161Y-111615000D01*
X123500000Y-111597663D01*
X123412839Y-111615000D01*
X123412835Y-111615000D01*
X123213400Y-111654670D01*
X123154690Y-111666348D01*
X122935845Y-111812576D01*
X122935844Y-111812577D01*
X122861951Y-111861951D01*
X122812577Y-111935844D01*
X120435847Y-114312575D01*
X120361951Y-114361951D01*
X120166348Y-114654691D01*
X120115000Y-114912836D01*
X120115000Y-114912839D01*
X120097663Y-115000000D01*
X120115000Y-115087161D01*
X120115001Y-122912835D01*
X120097663Y-123000000D01*
X120166348Y-123345309D01*
X120220542Y-123426415D01*
X119911785Y-123365000D01*
X119800002Y-123342765D01*
X119688219Y-123365000D01*
X110870133Y-123365000D01*
X108435000Y-120929869D01*
X108435000Y-120627000D01*
X110865000Y-120627000D01*
X110865000Y-121127000D01*
X111030446Y-121704752D01*
X111404394Y-122175212D01*
X111929914Y-122466756D01*
X112035260Y-122491036D01*
X112273000Y-122370378D01*
X112273000Y-120627000D01*
X112527000Y-120627000D01*
X112527000Y-122370378D01*
X112764740Y-122491036D01*
X112870086Y-122466756D01*
X113395606Y-122175212D01*
X113769554Y-121704752D01*
X113935000Y-121127000D01*
X113935000Y-120627000D01*
X112527000Y-120627000D01*
X112273000Y-120627000D01*
X110865000Y-120627000D01*
X108435000Y-120627000D01*
X108435000Y-119873000D01*
X110865000Y-119873000D01*
X110865000Y-120373000D01*
X112273000Y-120373000D01*
X112273000Y-118629622D01*
X112527000Y-118629622D01*
X112527000Y-120373000D01*
X113935000Y-120373000D01*
X113935000Y-119873000D01*
X113769554Y-119295248D01*
X113395606Y-118824788D01*
X112870086Y-118533244D01*
X112764740Y-118508964D01*
X112527000Y-118629622D01*
X112273000Y-118629622D01*
X112035260Y-118508964D01*
X111929914Y-118533244D01*
X111404394Y-118824788D01*
X111030446Y-119295248D01*
X110865000Y-119873000D01*
X108435000Y-119873000D01*
X108435000Y-119848818D01*
X108345938Y-119401073D01*
X108006673Y-118893327D01*
X107498926Y-118554062D01*
X106900000Y-118434928D01*
X106301073Y-118554062D01*
X105793327Y-118893327D01*
X105454062Y-119401074D01*
X105365000Y-119848819D01*
X105365000Y-120731847D01*
X105098926Y-120554062D01*
X104500000Y-120434928D01*
X103901073Y-120554062D01*
X103735000Y-120665028D01*
X103735000Y-113600000D01*
X104952560Y-113600000D01*
X104952560Y-115400000D01*
X105001843Y-115647765D01*
X105142191Y-115857809D01*
X105352235Y-115998157D01*
X105600000Y-116047440D01*
X107400000Y-116047440D01*
X107647765Y-115998157D01*
X107857809Y-115857809D01*
X107998157Y-115647765D01*
X108047440Y-115400000D01*
X108047440Y-113600000D01*
X107998157Y-113352235D01*
X107857809Y-113142191D01*
X107647765Y-113001843D01*
X107632092Y-112998725D01*
X107801310Y-112829507D01*
X108035000Y-112265330D01*
X108035000Y-111714561D01*
X110065000Y-111714561D01*
X110065000Y-112285439D01*
X110283466Y-112812862D01*
X110687138Y-113216534D01*
X111214561Y-113435000D01*
X111785439Y-113435000D01*
X112312862Y-113216534D01*
X112716534Y-112812862D01*
X112935000Y-112285439D01*
X112935000Y-112000000D01*
X117656887Y-112000000D01*
X117768260Y-112559909D01*
X118085423Y-113034577D01*
X118560091Y-113351740D01*
X118978667Y-113435000D01*
X119261333Y-113435000D01*
X119679909Y-113351740D01*
X120154577Y-113034577D01*
X120471740Y-112559909D01*
X120583113Y-112000000D01*
X120471740Y-111440091D01*
X120154577Y-110965423D01*
X119679909Y-110648260D01*
X119261333Y-110565000D01*
X118978667Y-110565000D01*
X118560091Y-110648260D01*
X118085423Y-110965423D01*
X117768260Y-111440091D01*
X117656887Y-112000000D01*
X112935000Y-112000000D01*
X112935000Y-111714561D01*
X112716534Y-111187138D01*
X112312862Y-110783466D01*
X111785439Y-110565000D01*
X111214561Y-110565000D01*
X110687138Y-110783466D01*
X110283466Y-111187138D01*
X110065000Y-111714561D01*
X108035000Y-111714561D01*
X108035000Y-111654670D01*
X107801310Y-111090493D01*
X107369507Y-110658690D01*
X106805330Y-110425000D01*
X106194670Y-110425000D01*
X105630493Y-110658690D01*
X105198690Y-111090493D01*
X104965000Y-111654670D01*
X104965000Y-112265330D01*
X105198690Y-112829507D01*
X105367908Y-112998725D01*
X105352235Y-113001843D01*
X105142191Y-113142191D01*
X105001843Y-113352235D01*
X104952560Y-113600000D01*
X103735000Y-113600000D01*
X103735000Y-106334971D01*
X103901074Y-106445938D01*
X104500000Y-106565072D01*
X105098927Y-106445938D01*
X105606673Y-106106673D01*
X105945938Y-105598927D01*
X106035000Y-105151182D01*
X106035000Y-104268153D01*
X106301074Y-104445938D01*
X106900000Y-104565072D01*
X107498927Y-104445938D01*
X108006673Y-104106673D01*
X108345938Y-103598927D01*
X108435000Y-103151182D01*
X108435000Y-102627000D01*
X110865000Y-102627000D01*
X110865000Y-103127000D01*
X111030446Y-103704752D01*
X111404394Y-104175212D01*
X111929914Y-104466756D01*
X112035260Y-104491036D01*
X112273000Y-104370378D01*
X112273000Y-102627000D01*
X112527000Y-102627000D01*
X112527000Y-104370378D01*
X112764740Y-104491036D01*
X112870086Y-104466756D01*
X113395606Y-104175212D01*
X113769554Y-103704752D01*
X113935000Y-103127000D01*
X113935000Y-102627000D01*
X112527000Y-102627000D01*
X112273000Y-102627000D01*
X110865000Y-102627000D01*
X108435000Y-102627000D01*
X108435000Y-101873000D01*
X110865000Y-101873000D01*
X110865000Y-102373000D01*
X112273000Y-102373000D01*
X112273000Y-100629622D01*
X112527000Y-100629622D01*
X112527000Y-102373000D01*
X113935000Y-102373000D01*
X113935000Y-101873000D01*
X113769554Y-101295248D01*
X113395606Y-100824788D01*
X112870086Y-100533244D01*
X112764740Y-100508964D01*
X112527000Y-100629622D01*
X112273000Y-100629622D01*
X112035260Y-100508964D01*
X111929914Y-100533244D01*
X111404394Y-100824788D01*
X111030446Y-101295248D01*
X110865000Y-101873000D01*
X108435000Y-101873000D01*
X108435000Y-101848818D01*
X108345938Y-101401073D01*
X108006673Y-100893327D01*
X107498926Y-100554062D01*
X106900000Y-100434928D01*
X106301073Y-100554062D01*
X105793327Y-100893327D01*
X105454062Y-101401074D01*
X105365000Y-101848819D01*
X105365000Y-102731847D01*
X105098926Y-102554062D01*
X104500000Y-102434928D01*
X103901073Y-102554062D01*
X103735000Y-102665028D01*
X103735000Y-97200000D01*
X105552560Y-97200000D01*
X105552560Y-98800000D01*
X105601843Y-99047765D01*
X105742191Y-99257809D01*
X105952235Y-99398157D01*
X106200000Y-99447440D01*
X107800000Y-99447440D01*
X108047765Y-99398157D01*
X108257809Y-99257809D01*
X108398157Y-99047765D01*
X108447440Y-98800000D01*
X108447440Y-98349039D01*
X113228096Y-98349039D01*
X113388959Y-98737423D01*
X113764866Y-99152389D01*
X114270959Y-99391914D01*
X114493000Y-99270629D01*
X114493000Y-98127000D01*
X114747000Y-98127000D01*
X114747000Y-99270629D01*
X114969041Y-99391914D01*
X115475134Y-99152389D01*
X115851041Y-98737423D01*
X116011904Y-98349039D01*
X115889915Y-98127000D01*
X114747000Y-98127000D01*
X114493000Y-98127000D01*
X113350085Y-98127000D01*
X113228096Y-98349039D01*
X108447440Y-98349039D01*
X108447440Y-97650961D01*
X113228096Y-97650961D01*
X113350085Y-97873000D01*
X114493000Y-97873000D01*
X114493000Y-96729371D01*
X114747000Y-96729371D01*
X114747000Y-97873000D01*
X115889915Y-97873000D01*
X116011904Y-97650961D01*
X115851041Y-97262577D01*
X115475134Y-96847611D01*
X114969041Y-96608086D01*
X114747000Y-96729371D01*
X114493000Y-96729371D01*
X114270959Y-96608086D01*
X113764866Y-96847611D01*
X113388959Y-97262577D01*
X113228096Y-97650961D01*
X108447440Y-97650961D01*
X108447440Y-97200000D01*
X108398157Y-96952235D01*
X108257809Y-96742191D01*
X108140994Y-96664137D01*
X108913852Y-95891279D01*
X125503282Y-95891279D01*
X125529685Y-96481458D01*
X125704741Y-96904080D01*
X125956042Y-96984353D01*
X126820395Y-96120000D01*
X127179605Y-96120000D01*
X128043958Y-96984353D01*
X128270000Y-96912148D01*
X128496042Y-96984353D01*
X129360395Y-96120000D01*
X129719605Y-96120000D01*
X130583958Y-96984353D01*
X130835259Y-96904080D01*
X131036718Y-96348721D01*
X131010315Y-95758542D01*
X130835259Y-95335920D01*
X130583958Y-95255647D01*
X129719605Y-96120000D01*
X129360395Y-96120000D01*
X128496042Y-95255647D01*
X128270000Y-95327852D01*
X128043958Y-95255647D01*
X127179605Y-96120000D01*
X126820395Y-96120000D01*
X125956042Y-95255647D01*
X125704741Y-95335920D01*
X125503282Y-95891279D01*
X108913852Y-95891279D01*
X111019381Y-93785750D01*
X117565000Y-93785750D01*
X117565000Y-94426310D01*
X117661673Y-94659699D01*
X117840302Y-94838327D01*
X118073691Y-94935000D01*
X118714250Y-94935000D01*
X118873000Y-94776250D01*
X118873000Y-93627000D01*
X117723750Y-93627000D01*
X117565000Y-93785750D01*
X111019381Y-93785750D01*
X112231441Y-92573690D01*
X117565000Y-92573690D01*
X117565000Y-93214250D01*
X117723750Y-93373000D01*
X118873000Y-93373000D01*
X118873000Y-92223750D01*
X118714250Y-92065000D01*
X118073691Y-92065000D01*
X117840302Y-92161673D01*
X117661673Y-92340301D01*
X117565000Y-92573690D01*
X112231441Y-92573690D01*
X113720133Y-91084999D01*
X121938218Y-91084999D01*
X122050001Y-91107234D01*
X122161784Y-91084999D01*
X122492856Y-91019145D01*
X122868290Y-90768288D01*
X122931614Y-90673517D01*
X125502560Y-88102572D01*
X125502560Y-88245861D01*
X121683422Y-92065000D01*
X121214561Y-92065000D01*
X120687138Y-92283466D01*
X120423845Y-92546759D01*
X120338327Y-92340301D01*
X120159698Y-92161673D01*
X119926309Y-92065000D01*
X119285750Y-92065000D01*
X119127000Y-92223750D01*
X119127000Y-93373000D01*
X119147000Y-93373000D01*
X119147000Y-93627000D01*
X119127000Y-93627000D01*
X119127000Y-94776250D01*
X119285750Y-94935000D01*
X119926309Y-94935000D01*
X120159698Y-94838327D01*
X120338327Y-94659699D01*
X120423845Y-94453241D01*
X120687138Y-94716534D01*
X121214561Y-94935000D01*
X121785439Y-94935000D01*
X122312862Y-94716534D01*
X122405438Y-94623958D01*
X126135647Y-94623958D01*
X126207852Y-94850000D01*
X126135647Y-95076042D01*
X127000000Y-95940395D01*
X127864353Y-95076042D01*
X127792148Y-94850000D01*
X127864353Y-94623958D01*
X128675647Y-94623958D01*
X128747852Y-94850000D01*
X128675647Y-95076042D01*
X129540000Y-95940395D01*
X130404353Y-95076042D01*
X130332148Y-94850000D01*
X130404353Y-94623958D01*
X129540000Y-93759605D01*
X128675647Y-94623958D01*
X127864353Y-94623958D01*
X127000000Y-93759605D01*
X126135647Y-94623958D01*
X122405438Y-94623958D01*
X122716534Y-94312862D01*
X122935000Y-93785439D01*
X122935000Y-93351279D01*
X125503282Y-93351279D01*
X125529685Y-93941458D01*
X125704741Y-94364080D01*
X125956042Y-94444353D01*
X126820395Y-93580000D01*
X127179605Y-93580000D01*
X128043958Y-94444353D01*
X128270000Y-94372148D01*
X128496042Y-94444353D01*
X129360395Y-93580000D01*
X129719605Y-93580000D01*
X130583958Y-94444353D01*
X130835259Y-94364080D01*
X131036718Y-93808721D01*
X131010315Y-93218542D01*
X130835259Y-92795920D01*
X130583958Y-92715647D01*
X129719605Y-93580000D01*
X129360395Y-93580000D01*
X128496042Y-92715647D01*
X128270000Y-92787852D01*
X128043958Y-92715647D01*
X127179605Y-93580000D01*
X126820395Y-93580000D01*
X125956042Y-92715647D01*
X125704741Y-92795920D01*
X125503282Y-93351279D01*
X122935000Y-93351279D01*
X122935000Y-93316578D01*
X124167620Y-92083958D01*
X126135647Y-92083958D01*
X126207852Y-92310000D01*
X126135647Y-92536042D01*
X127000000Y-93400395D01*
X127864353Y-92536042D01*
X127792148Y-92310000D01*
X127864353Y-92083958D01*
X128675647Y-92083958D01*
X128747852Y-92310000D01*
X128675647Y-92536042D01*
X129540000Y-93400395D01*
X130404353Y-92536042D01*
X130332148Y-92310000D01*
X130404353Y-92083958D01*
X129540000Y-91219605D01*
X128675647Y-92083958D01*
X127864353Y-92083958D01*
X127000000Y-91219605D01*
X126135647Y-92083958D01*
X124167620Y-92083958D01*
X125539135Y-90712444D01*
X125503282Y-90811279D01*
X125529685Y-91401458D01*
X125704741Y-91824080D01*
X125956042Y-91904353D01*
X126820395Y-91040000D01*
X127179605Y-91040000D01*
X128043958Y-91904353D01*
X128270000Y-91832148D01*
X128496042Y-91904353D01*
X129360395Y-91040000D01*
X129719605Y-91040000D01*
X130583958Y-91904353D01*
X130835259Y-91824080D01*
X131036718Y-91268721D01*
X131010315Y-90678542D01*
X130835259Y-90255920D01*
X130583958Y-90175647D01*
X129719605Y-91040000D01*
X129360395Y-91040000D01*
X128496042Y-90175647D01*
X128270000Y-90247852D01*
X128043958Y-90175647D01*
X127179605Y-91040000D01*
X126820395Y-91040000D01*
X126806253Y-91025858D01*
X126985858Y-90846253D01*
X127000000Y-90860395D01*
X127864353Y-89996042D01*
X127863915Y-89994672D01*
X128097765Y-89948157D01*
X128307809Y-89807809D01*
X128448157Y-89597765D01*
X128463006Y-89523113D01*
X128698815Y-89758922D01*
X128745247Y-89778155D01*
X128675647Y-89996042D01*
X129540000Y-90860395D01*
X130404353Y-89996042D01*
X130334753Y-89778155D01*
X130381185Y-89758922D01*
X130798922Y-89341185D01*
X131025000Y-88795385D01*
X131025000Y-88204615D01*
X130798922Y-87658815D01*
X130381185Y-87241078D01*
X129835385Y-87015000D01*
X129244615Y-87015000D01*
X128698815Y-87241078D01*
X128463006Y-87476887D01*
X128448157Y-87402235D01*
X128307809Y-87192191D01*
X128097765Y-87051843D01*
X127850000Y-87002560D01*
X126602572Y-87002560D01*
X127470132Y-86135000D01*
X129888217Y-86135000D01*
X130000000Y-86157235D01*
X130111783Y-86135000D01*
X130442855Y-86069146D01*
X130818289Y-85818289D01*
X130881613Y-85723518D01*
X132723521Y-83881611D01*
X132818289Y-83818289D01*
X133069146Y-83442855D01*
X133135000Y-83111783D01*
X133135000Y-83111782D01*
X133157235Y-83000001D01*
X133135000Y-82888218D01*
X133135000Y-67611782D01*
X133157235Y-67499999D01*
X133069146Y-67057145D01*
X132818289Y-66681711D01*
X132723521Y-66618389D01*
X128675000Y-62569869D01*
X128675000Y-62471517D01*
X129288088Y-62471517D01*
X129356077Y-62712460D01*
X129875171Y-62897201D01*
X130425448Y-62869230D01*
X130803923Y-62712460D01*
X130871912Y-62471517D01*
X130080000Y-61679605D01*
X129288088Y-62471517D01*
X128675000Y-62471517D01*
X128675000Y-62323687D01*
X128714147Y-62284540D01*
X128803397Y-62069070D01*
X128867540Y-62223923D01*
X129108483Y-62291912D01*
X129900395Y-61500000D01*
X130259605Y-61500000D01*
X131051517Y-62291912D01*
X131292460Y-62223923D01*
X131477201Y-61704829D01*
X131449230Y-61154552D01*
X131292460Y-60776077D01*
X131051517Y-60708088D01*
X130259605Y-61500000D01*
X129900395Y-61500000D01*
X129108483Y-60708088D01*
X128867540Y-60776077D01*
X128808255Y-60942658D01*
X128714147Y-60715460D01*
X128527170Y-60528483D01*
X129288088Y-60528483D01*
X130080000Y-61320395D01*
X130871912Y-60528483D01*
X130803923Y-60287540D01*
X130284829Y-60102799D01*
X129734552Y-60130770D01*
X129356077Y-60287540D01*
X129288088Y-60528483D01*
X128527170Y-60528483D01*
X128324540Y-60325853D01*
X127815494Y-60115000D01*
X127264506Y-60115000D01*
X126755460Y-60325853D01*
X126386469Y-60694844D01*
X126348157Y-60502235D01*
X126207809Y-60292191D01*
X125997765Y-60151843D01*
X125750000Y-60102560D01*
X124250000Y-60102560D01*
X124002235Y-60151843D01*
X123792191Y-60292191D01*
X123651843Y-60502235D01*
X123602560Y-60750000D01*
X123602560Y-62250000D01*
X123651843Y-62497765D01*
X123792191Y-62707809D01*
X124002235Y-62848157D01*
X124250000Y-62897440D01*
X125750000Y-62897440D01*
X125997765Y-62848157D01*
X126207809Y-62707809D01*
X126348157Y-62497765D01*
X126386469Y-62305156D01*
X126405000Y-62323687D01*
X126405000Y-62687123D01*
X126342765Y-63000000D01*
X126430854Y-63442854D01*
X126681712Y-63818288D01*
X126776477Y-63881608D01*
X130865001Y-67970133D01*
X130865001Y-70232116D01*
X130559909Y-70028260D01*
X130141333Y-69945000D01*
X129858667Y-69945000D01*
X129440091Y-70028260D01*
X128965423Y-70345423D01*
X128648260Y-70820091D01*
X128536887Y-71380000D01*
X128648260Y-71939909D01*
X128965423Y-72414577D01*
X129317758Y-72650000D01*
X129115717Y-72785000D01*
X128585266Y-72785000D01*
X126135000Y-70064251D01*
X126135000Y-69007745D01*
X126671861Y-69007745D01*
X126745995Y-69253864D01*
X127283223Y-69446965D01*
X127853454Y-69419778D01*
X128254005Y-69253864D01*
X128328139Y-69007745D01*
X127500000Y-68179605D01*
X126671861Y-69007745D01*
X126135000Y-69007745D01*
X126135000Y-68485700D01*
X126246136Y-68754005D01*
X126492255Y-68828139D01*
X127320395Y-68000000D01*
X127679605Y-68000000D01*
X128507745Y-68828139D01*
X128753864Y-68754005D01*
X128946965Y-68216777D01*
X128919778Y-67646546D01*
X128753864Y-67245995D01*
X128507745Y-67171861D01*
X127679605Y-68000000D01*
X127320395Y-68000000D01*
X126492255Y-67171861D01*
X126246136Y-67245995D01*
X126135000Y-67555187D01*
X126135000Y-67060022D01*
X126142188Y-66992255D01*
X126671861Y-66992255D01*
X127500000Y-67820395D01*
X128328139Y-66992255D01*
X128254005Y-66746136D01*
X127716777Y-66553035D01*
X127146546Y-66580222D01*
X126745995Y-66746136D01*
X126671861Y-66992255D01*
X126142188Y-66992255D01*
X126152482Y-66895228D01*
X126103147Y-66728079D01*
X126069146Y-66557145D01*
X126039676Y-66513041D01*
X126024661Y-66462168D01*
X125915116Y-66326622D01*
X125818289Y-66181711D01*
X125680496Y-66089641D01*
X123135000Y-63968395D01*
X123135000Y-55750000D01*
X123602560Y-55750000D01*
X123602560Y-57250000D01*
X123651843Y-57497765D01*
X123792191Y-57707809D01*
X124002235Y-57848157D01*
X124250000Y-57897440D01*
X125750000Y-57897440D01*
X125997765Y-57848157D01*
X126207809Y-57707809D01*
X126348157Y-57497765D01*
X126386469Y-57305156D01*
X126755460Y-57674147D01*
X127264506Y-57885000D01*
X127815494Y-57885000D01*
X128324540Y-57674147D01*
X128527170Y-57471517D01*
X129288088Y-57471517D01*
X129356077Y-57712460D01*
X129875171Y-57897201D01*
X130425448Y-57869230D01*
X130803923Y-57712460D01*
X130871912Y-57471517D01*
X130080000Y-56679605D01*
X129288088Y-57471517D01*
X128527170Y-57471517D01*
X128714147Y-57284540D01*
X128803397Y-57069070D01*
X128867540Y-57223923D01*
X129108483Y-57291912D01*
X129900395Y-56500000D01*
X130259605Y-56500000D01*
X131051517Y-57291912D01*
X131292460Y-57223923D01*
X131477201Y-56704829D01*
X131449230Y-56154552D01*
X131292460Y-55776077D01*
X131051517Y-55708088D01*
X130259605Y-56500000D01*
X129900395Y-56500000D01*
X129108483Y-55708088D01*
X128867540Y-55776077D01*
X128808255Y-55942658D01*
X128714147Y-55715460D01*
X128527170Y-55528483D01*
X129288088Y-55528483D01*
X130080000Y-56320395D01*
X130871912Y-55528483D01*
X130803923Y-55287540D01*
X130284829Y-55102799D01*
X129734552Y-55130770D01*
X129356077Y-55287540D01*
X129288088Y-55528483D01*
X128527170Y-55528483D01*
X128324540Y-55325853D01*
X127815494Y-55115000D01*
X127264506Y-55115000D01*
X126755460Y-55325853D01*
X126386469Y-55694844D01*
X126348157Y-55502235D01*
X126207809Y-55292191D01*
X125997765Y-55151843D01*
X125750000Y-55102560D01*
X124250000Y-55102560D01*
X124002235Y-55151843D01*
X123792191Y-55292191D01*
X123651843Y-55502235D01*
X123602560Y-55750000D01*
X123135000Y-55750000D01*
X123135000Y-55611781D01*
X123157235Y-55499999D01*
X123114974Y-55287540D01*
X123069146Y-55057145D01*
X122818289Y-54681711D01*
X122723521Y-54618389D01*
X121381613Y-53276482D01*
X121318289Y-53181711D01*
X121173512Y-53084974D01*
X121187425Y-53064153D01*
X123627634Y-50623945D01*
X123602560Y-50750000D01*
X123602560Y-52250000D01*
X123651843Y-52497765D01*
X123792191Y-52707809D01*
X124002235Y-52848157D01*
X124250000Y-52897440D01*
X125750000Y-52897440D01*
X125997765Y-52848157D01*
X126207809Y-52707809D01*
X126348157Y-52497765D01*
X126386469Y-52305156D01*
X126755460Y-52674147D01*
X127264506Y-52885000D01*
X127815494Y-52885000D01*
X128324540Y-52674147D01*
X128527170Y-52471517D01*
X129288088Y-52471517D01*
X129356077Y-52712460D01*
X129875171Y-52897201D01*
X130425448Y-52869230D01*
X130803923Y-52712460D01*
X130871912Y-52471517D01*
X130080000Y-51679605D01*
X129288088Y-52471517D01*
X128527170Y-52471517D01*
X128714147Y-52284540D01*
X128803397Y-52069070D01*
X128867540Y-52223923D01*
X129108483Y-52291912D01*
X129900395Y-51500000D01*
X130259605Y-51500000D01*
X131051517Y-52291912D01*
X131292460Y-52223923D01*
X131477201Y-51704829D01*
X131449230Y-51154552D01*
X131292460Y-50776077D01*
X131051517Y-50708088D01*
X130259605Y-51500000D01*
X129900395Y-51500000D01*
X129108483Y-50708088D01*
X128867540Y-50776077D01*
X128808255Y-50942658D01*
X128714147Y-50715460D01*
X128527170Y-50528483D01*
X129288088Y-50528483D01*
X130080000Y-51320395D01*
X130871912Y-50528483D01*
X130803923Y-50287540D01*
X130284829Y-50102799D01*
X129734552Y-50130770D01*
X129356077Y-50287540D01*
X129288088Y-50528483D01*
X128527170Y-50528483D01*
X128441622Y-50442935D01*
X128442337Y-50439339D01*
X128425000Y-50352179D01*
X128425000Y-50352175D01*
X128373652Y-50094030D01*
X128178049Y-49801291D01*
X128104156Y-49751917D01*
X127288085Y-48935847D01*
X127238709Y-48861951D01*
X126945970Y-48666348D01*
X126687825Y-48615000D01*
X126687821Y-48615000D01*
X126600660Y-48597663D01*
X126513499Y-48615000D01*
X123587161Y-48615000D01*
X123500000Y-48597663D01*
X123412839Y-48615000D01*
X123412835Y-48615000D01*
X123154690Y-48666348D01*
X122935845Y-48812576D01*
X122935844Y-48812577D01*
X122861951Y-48861951D01*
X122812577Y-48935844D01*
X120447440Y-51300982D01*
X120447440Y-50200000D01*
X120398157Y-49952235D01*
X120257809Y-49742191D01*
X120047765Y-49601843D01*
X119800000Y-49552560D01*
X118200000Y-49552560D01*
X117952235Y-49601843D01*
X117742191Y-49742191D01*
X117601843Y-49952235D01*
X117567681Y-50123982D01*
X117354690Y-50166348D01*
X117135845Y-50312576D01*
X117135844Y-50312577D01*
X117061951Y-50361951D01*
X117012577Y-50435844D01*
X112918896Y-54529526D01*
X113020000Y-54285439D01*
X113020000Y-53714561D01*
X112801534Y-53187138D01*
X112397862Y-52783466D01*
X111870439Y-52565000D01*
X111299561Y-52565000D01*
X110772138Y-52783466D01*
X110368466Y-53187138D01*
X110150000Y-53714561D01*
X110150000Y-54285439D01*
X110368466Y-54812862D01*
X110772138Y-55216534D01*
X111299561Y-55435000D01*
X111870439Y-55435000D01*
X112350113Y-55236312D01*
X112315000Y-55412836D01*
X112315000Y-55412839D01*
X112297663Y-55500000D01*
X112315000Y-55587161D01*
X112315000Y-55785604D01*
X112312862Y-55783466D01*
X111785439Y-55565000D01*
X111214561Y-55565000D01*
X110687138Y-55783466D01*
X110283466Y-56187138D01*
X110065000Y-56714561D01*
X110065000Y-57285439D01*
X110283466Y-57812862D01*
X110687138Y-58216534D01*
X111214561Y-58435000D01*
X111785439Y-58435000D01*
X112312862Y-58216534D01*
X112315000Y-58214396D01*
X112315000Y-58898888D01*
X111939909Y-58648260D01*
X111521333Y-58565000D01*
X111238667Y-58565000D01*
X110820091Y-58648260D01*
X110345423Y-58965423D01*
X110028260Y-59440091D01*
X109916887Y-60000000D01*
X110028260Y-60559909D01*
X110345423Y-61034577D01*
X110798869Y-61337560D01*
X110785000Y-61337560D01*
X110537235Y-61386843D01*
X110327191Y-61527191D01*
X110186843Y-61737235D01*
X110137560Y-61985000D01*
X110137560Y-63585000D01*
X110186843Y-63832765D01*
X110327191Y-64042809D01*
X110537235Y-64183157D01*
X110785000Y-64232440D01*
X112315001Y-64232440D01*
X112315001Y-66666912D01*
X112144909Y-66553260D01*
X111726333Y-66470000D01*
X111443667Y-66470000D01*
X111025091Y-66553260D01*
X110550423Y-66870423D01*
X110233260Y-67345091D01*
X110121887Y-67905000D01*
X110233260Y-68464909D01*
X110550423Y-68939577D01*
X111025091Y-69256740D01*
X111443667Y-69340000D01*
X111726333Y-69340000D01*
X112144909Y-69256740D01*
X112619577Y-68939577D01*
X112695048Y-68826626D01*
X116436681Y-72568260D01*
X117308422Y-73440000D01*
X116935847Y-73812575D01*
X116861951Y-73861951D01*
X116666348Y-74154691D01*
X116615000Y-74412836D01*
X116615000Y-74412839D01*
X116597663Y-74500000D01*
X116615000Y-74587161D01*
X116615001Y-84912835D01*
X116597663Y-85000000D01*
X116666348Y-85345309D01*
X116812576Y-85564154D01*
X116812578Y-85564156D01*
X116861952Y-85638049D01*
X116935845Y-85687423D01*
X117812577Y-86564156D01*
X117861951Y-86638049D01*
X117935844Y-86687423D01*
X117935845Y-86687424D01*
X118035490Y-86754005D01*
X118047376Y-86761947D01*
X118068466Y-86812862D01*
X118472138Y-87216534D01*
X118999561Y-87435000D01*
X119570439Y-87435000D01*
X120097862Y-87216534D01*
X120501534Y-86812862D01*
X120720000Y-86285439D01*
X120720000Y-85714561D01*
X120501534Y-85187138D01*
X120097862Y-84783466D01*
X119570439Y-84565000D01*
X118999561Y-84565000D01*
X118516620Y-84765041D01*
X118385000Y-84633422D01*
X118385000Y-83691044D01*
X118805091Y-83971740D01*
X119223667Y-84055000D01*
X119506333Y-84055000D01*
X119924909Y-83971740D01*
X120399577Y-83654577D01*
X120488926Y-83520856D01*
X120496370Y-83522337D01*
X120583531Y-83505000D01*
X120583535Y-83505000D01*
X120841680Y-83453652D01*
X121134419Y-83258049D01*
X121181936Y-83186935D01*
X121253050Y-83139418D01*
X121448653Y-82846679D01*
X121500001Y-82588534D01*
X121500001Y-82588530D01*
X121517338Y-82501369D01*
X121500001Y-82414208D01*
X121500001Y-80137863D01*
X121820091Y-80351740D01*
X122238667Y-80435000D01*
X122521333Y-80435000D01*
X122939909Y-80351740D01*
X123414577Y-80034577D01*
X123731740Y-79559909D01*
X123786273Y-79285750D01*
X128565000Y-79285750D01*
X128565000Y-79926310D01*
X128661673Y-80159699D01*
X128840302Y-80338327D01*
X129073691Y-80435000D01*
X129714250Y-80435000D01*
X129873000Y-80276250D01*
X129873000Y-79127000D01*
X128723750Y-79127000D01*
X128565000Y-79285750D01*
X123786273Y-79285750D01*
X123843113Y-79000000D01*
X123731740Y-78440091D01*
X123414577Y-77965423D01*
X123062242Y-77730000D01*
X123414577Y-77494577D01*
X123731740Y-77019909D01*
X123843113Y-76460000D01*
X123731740Y-75900091D01*
X123414577Y-75425423D01*
X123062242Y-75190000D01*
X123414577Y-74954577D01*
X123731740Y-74479909D01*
X123843113Y-73920000D01*
X123731740Y-73360091D01*
X123414577Y-72885423D01*
X123062242Y-72650000D01*
X123414577Y-72414577D01*
X123731740Y-71939909D01*
X123843113Y-71380000D01*
X123731740Y-70820091D01*
X123414577Y-70345423D01*
X122939909Y-70028260D01*
X122521333Y-69945000D01*
X122238667Y-69945000D01*
X121820091Y-70028260D01*
X121500001Y-70242137D01*
X121500001Y-69029397D01*
X121687138Y-69216534D01*
X122214561Y-69435000D01*
X122785439Y-69435000D01*
X123312862Y-69216534D01*
X123716534Y-68812862D01*
X123865000Y-68454433D01*
X123865001Y-70358184D01*
X123844345Y-70439551D01*
X123865001Y-70581912D01*
X123865001Y-70611783D01*
X123881021Y-70692319D01*
X123909181Y-70886401D01*
X123924870Y-70912766D01*
X123930855Y-70942855D01*
X124039805Y-71105910D01*
X124081801Y-71176483D01*
X124101793Y-71198682D01*
X124181712Y-71318289D01*
X124251511Y-71364927D01*
X127181793Y-74618684D01*
X127261711Y-74738289D01*
X127424769Y-74847241D01*
X127581902Y-74964553D01*
X127611636Y-74972101D01*
X127637145Y-74989146D01*
X127829482Y-75027404D01*
X128019550Y-75075655D01*
X128161905Y-75055000D01*
X129115717Y-75055000D01*
X129317758Y-75190000D01*
X128965423Y-75425423D01*
X128648260Y-75900091D01*
X128536887Y-76460000D01*
X128648260Y-77019909D01*
X128965423Y-77494577D01*
X129071918Y-77565735D01*
X128840302Y-77661673D01*
X128661673Y-77840301D01*
X128565000Y-78073690D01*
X128565000Y-78714250D01*
X128723750Y-78873000D01*
X129873000Y-78873000D01*
X129873000Y-78853000D01*
X130127000Y-78853000D01*
X130127000Y-78873000D01*
X130147000Y-78873000D01*
X130147000Y-79127000D01*
X130127000Y-79127000D01*
X130127000Y-80276250D01*
X130285750Y-80435000D01*
X130865000Y-80435000D01*
X130865000Y-82529868D01*
X129529869Y-83865000D01*
X127111783Y-83865000D01*
X127000000Y-83842765D01*
X126888217Y-83865000D01*
X126557145Y-83930854D01*
X126181711Y-84181711D01*
X126118389Y-84276479D01*
X121579870Y-88814999D01*
X113361783Y-88814999D01*
X113250000Y-88792764D01*
X112807146Y-88880853D01*
X112431712Y-89131710D01*
X112368390Y-89226478D01*
X106276480Y-95318389D01*
X106181712Y-95381711D01*
X105996085Y-95659522D01*
X105930854Y-95757146D01*
X105842765Y-96200000D01*
X105865001Y-96311788D01*
X105865001Y-96660132D01*
X105742191Y-96742191D01*
X105601843Y-96952235D01*
X105552560Y-97200000D01*
X103735000Y-97200000D01*
X103735000Y-88507745D01*
X105671861Y-88507745D01*
X105745995Y-88753864D01*
X106283223Y-88946965D01*
X106853454Y-88919778D01*
X107254005Y-88753864D01*
X107328139Y-88507745D01*
X106500000Y-87679605D01*
X105671861Y-88507745D01*
X103735000Y-88507745D01*
X103735000Y-87283223D01*
X105053035Y-87283223D01*
X105080222Y-87853454D01*
X105246136Y-88254005D01*
X105492255Y-88328139D01*
X106320395Y-87500000D01*
X106679605Y-87500000D01*
X107507745Y-88328139D01*
X107555307Y-88313813D01*
X107601843Y-88547765D01*
X107742191Y-88757809D01*
X107952235Y-88898157D01*
X108200000Y-88947440D01*
X109800000Y-88947440D01*
X110047765Y-88898157D01*
X110257809Y-88757809D01*
X110398157Y-88547765D01*
X110447440Y-88300000D01*
X110447440Y-87007745D01*
X113456861Y-87007745D01*
X113530995Y-87253864D01*
X114068223Y-87446965D01*
X114638454Y-87419778D01*
X115039005Y-87253864D01*
X115113139Y-87007745D01*
X114285000Y-86179605D01*
X113456861Y-87007745D01*
X110447440Y-87007745D01*
X110447440Y-86700000D01*
X110398157Y-86452235D01*
X110257809Y-86242191D01*
X110047765Y-86101843D01*
X109800000Y-86052560D01*
X108200000Y-86052560D01*
X107952235Y-86101843D01*
X107742191Y-86242191D01*
X107601843Y-86452235D01*
X107555307Y-86686187D01*
X107507745Y-86671861D01*
X106679605Y-87500000D01*
X106320395Y-87500000D01*
X105492255Y-86671861D01*
X105246136Y-86745995D01*
X105053035Y-87283223D01*
X103735000Y-87283223D01*
X103735000Y-86492255D01*
X105671861Y-86492255D01*
X106500000Y-87320395D01*
X107328139Y-86492255D01*
X107254005Y-86246136D01*
X106716777Y-86053035D01*
X106146546Y-86080222D01*
X105745995Y-86246136D01*
X105671861Y-86492255D01*
X103735000Y-86492255D01*
X103735000Y-85783223D01*
X112838035Y-85783223D01*
X112865222Y-86353454D01*
X113031136Y-86754005D01*
X113277255Y-86828139D01*
X114105395Y-86000000D01*
X114464605Y-86000000D01*
X115292745Y-86828139D01*
X115538864Y-86754005D01*
X115731965Y-86216777D01*
X115704778Y-85646546D01*
X115538864Y-85245995D01*
X115292745Y-85171861D01*
X114464605Y-86000000D01*
X114105395Y-86000000D01*
X113277255Y-85171861D01*
X113031136Y-85245995D01*
X112838035Y-85783223D01*
X103735000Y-85783223D01*
X103735000Y-84992255D01*
X113456861Y-84992255D01*
X114285000Y-85820395D01*
X115113139Y-84992255D01*
X115039005Y-84746136D01*
X114501777Y-84553035D01*
X113931546Y-84580222D01*
X113530995Y-84746136D01*
X113456861Y-84992255D01*
X103735000Y-84992255D01*
X103735000Y-82334561D01*
X110310000Y-82334561D01*
X110310000Y-82905439D01*
X110528466Y-83432862D01*
X110932138Y-83836534D01*
X111459561Y-84055000D01*
X112030439Y-84055000D01*
X112557862Y-83836534D01*
X112961534Y-83432862D01*
X113180000Y-82905439D01*
X113180000Y-82334561D01*
X112961534Y-81807138D01*
X112557862Y-81403466D01*
X112030439Y-81185000D01*
X111459561Y-81185000D01*
X110932138Y-81403466D01*
X110528466Y-81807138D01*
X110310000Y-82334561D01*
X103735000Y-82334561D01*
X103735000Y-73694670D01*
X106465000Y-73694670D01*
X106465000Y-74305330D01*
X106698690Y-74869507D01*
X107079183Y-75250000D01*
X106698690Y-75630493D01*
X106465000Y-76194670D01*
X106465000Y-76805330D01*
X106698690Y-77369507D01*
X107079183Y-77750000D01*
X106698690Y-78130493D01*
X106465000Y-78694670D01*
X106465000Y-79305330D01*
X106698690Y-79869507D01*
X107130493Y-80301310D01*
X107694670Y-80535000D01*
X108305330Y-80535000D01*
X108869507Y-80301310D01*
X109301310Y-79869507D01*
X109535000Y-79305330D01*
X109535000Y-79159561D01*
X110310000Y-79159561D01*
X110310000Y-79730439D01*
X110528466Y-80257862D01*
X110932138Y-80661534D01*
X111459561Y-80880000D01*
X112030439Y-80880000D01*
X112557862Y-80661534D01*
X112961534Y-80257862D01*
X113180000Y-79730439D01*
X113180000Y-79159561D01*
X112961534Y-78632138D01*
X112557862Y-78228466D01*
X112030439Y-78010000D01*
X111459561Y-78010000D01*
X110932138Y-78228466D01*
X110528466Y-78632138D01*
X110310000Y-79159561D01*
X109535000Y-79159561D01*
X109535000Y-78694670D01*
X109301310Y-78130493D01*
X108920817Y-77750000D01*
X109301310Y-77369507D01*
X109535000Y-76805330D01*
X109535000Y-76194670D01*
X109301310Y-75630493D01*
X108920817Y-75250000D01*
X109301310Y-74869507D01*
X109535000Y-74305330D01*
X109535000Y-73694670D01*
X109330101Y-73200000D01*
X110052560Y-73200000D01*
X110052560Y-74800000D01*
X110101843Y-75047765D01*
X110242191Y-75257809D01*
X110452235Y-75398157D01*
X110552503Y-75418101D01*
X110283466Y-75687138D01*
X110065000Y-76214561D01*
X110065000Y-76785439D01*
X110283466Y-77312862D01*
X110687138Y-77716534D01*
X111214561Y-77935000D01*
X111785439Y-77935000D01*
X112312862Y-77716534D01*
X112716534Y-77312862D01*
X112935000Y-76785439D01*
X112935000Y-76214561D01*
X112716534Y-75687138D01*
X112447497Y-75418101D01*
X112547765Y-75398157D01*
X112757809Y-75257809D01*
X112898157Y-75047765D01*
X112947440Y-74800000D01*
X112947440Y-73200000D01*
X112898157Y-72952235D01*
X112757809Y-72742191D01*
X112547765Y-72601843D01*
X112300000Y-72552560D01*
X110700000Y-72552560D01*
X110452235Y-72601843D01*
X110242191Y-72742191D01*
X110101843Y-72952235D01*
X110052560Y-73200000D01*
X109330101Y-73200000D01*
X109301310Y-73130493D01*
X108869507Y-72698690D01*
X108305330Y-72465000D01*
X107694670Y-72465000D01*
X107130493Y-72698690D01*
X106698690Y-73130493D01*
X106465000Y-73694670D01*
X103735000Y-73694670D01*
X103735000Y-71080000D01*
X110121887Y-71080000D01*
X110233260Y-71639909D01*
X110550423Y-72114577D01*
X111025091Y-72431740D01*
X111443667Y-72515000D01*
X111726333Y-72515000D01*
X112144909Y-72431740D01*
X112619577Y-72114577D01*
X112936740Y-71639909D01*
X113048113Y-71080000D01*
X112936740Y-70520091D01*
X112619577Y-70045423D01*
X112144909Y-69728260D01*
X111726333Y-69645000D01*
X111443667Y-69645000D01*
X111025091Y-69728260D01*
X110550423Y-70045423D01*
X110233260Y-70520091D01*
X110121887Y-71080000D01*
X103735000Y-71080000D01*
X103735000Y-51129670D01*
X106240000Y-51129670D01*
X106240000Y-51740330D01*
X106473690Y-52304507D01*
X106854183Y-52685000D01*
X106473690Y-53065493D01*
X106240000Y-53629670D01*
X106240000Y-54240330D01*
X106473690Y-54804507D01*
X106854183Y-55185000D01*
X106473690Y-55565493D01*
X106240000Y-56129670D01*
X106240000Y-56740330D01*
X106473690Y-57304507D01*
X106905493Y-57736310D01*
X107469670Y-57970000D01*
X108080330Y-57970000D01*
X108644507Y-57736310D01*
X109076310Y-57304507D01*
X109310000Y-56740330D01*
X109310000Y-56129670D01*
X109076310Y-55565493D01*
X108695817Y-55185000D01*
X109076310Y-54804507D01*
X109310000Y-54240330D01*
X109310000Y-53629670D01*
X109076310Y-53065493D01*
X108695817Y-52685000D01*
X109076310Y-52304507D01*
X109310000Y-51740330D01*
X109310000Y-51129670D01*
X109256289Y-51000000D01*
X109916887Y-51000000D01*
X110028260Y-51559909D01*
X110345423Y-52034577D01*
X110820091Y-52351740D01*
X111238667Y-52435000D01*
X111521333Y-52435000D01*
X111939909Y-52351740D01*
X112414577Y-52034577D01*
X112731740Y-51559909D01*
X112843113Y-51000000D01*
X112731740Y-50440091D01*
X112414577Y-49965423D01*
X111939909Y-49648260D01*
X111521333Y-49565000D01*
X111238667Y-49565000D01*
X110820091Y-49648260D01*
X110345423Y-49965423D01*
X110028260Y-50440091D01*
X109916887Y-51000000D01*
X109256289Y-51000000D01*
X109076310Y-50565493D01*
X108644507Y-50133690D01*
X108080330Y-49900000D01*
X107469670Y-49900000D01*
X106905493Y-50133690D01*
X106473690Y-50565493D01*
X106240000Y-51129670D01*
X103735000Y-51129670D01*
X103735000Y-47235000D01*
X133265001Y-47235000D01*
X133265000Y-145265000D01*
G36*
X117853260Y-54559909D02*
X118170423Y-55034577D01*
X118645091Y-55351740D01*
X119063667Y-55435000D01*
X119346333Y-55435000D01*
X119764909Y-55351740D01*
X120053667Y-55158798D01*
X120865000Y-55970132D01*
X120865001Y-64439969D01*
X120848365Y-64596786D01*
X120187425Y-63935847D01*
X120138049Y-63861951D01*
X120132083Y-63857964D01*
X120436041Y-63522423D01*
X120596904Y-63134039D01*
X120474915Y-62912000D01*
X119332000Y-62912000D01*
X119332000Y-62932000D01*
X119078000Y-62932000D01*
X119078000Y-62912000D01*
X117935085Y-62912000D01*
X117838811Y-63087233D01*
X117385000Y-62633422D01*
X117385000Y-59714561D01*
X117565000Y-59714561D01*
X117565000Y-60285439D01*
X117783466Y-60812862D01*
X118187138Y-61216534D01*
X118714561Y-61435000D01*
X118767399Y-61435000D01*
X118349866Y-61632611D01*
X117973959Y-62047577D01*
X117813096Y-62435961D01*
X117935085Y-62658000D01*
X119078000Y-62658000D01*
X119078000Y-62638000D01*
X119332000Y-62638000D01*
X119332000Y-62658000D01*
X120474915Y-62658000D01*
X120596904Y-62435961D01*
X120436041Y-62047577D01*
X120060134Y-61632611D01*
X119554041Y-61393086D01*
X119332002Y-61514370D01*
X119332002Y-61415713D01*
X119812862Y-61216534D01*
X120216534Y-60812862D01*
X120435000Y-60285439D01*
X120435000Y-59714561D01*
X120216534Y-59187138D01*
X119812862Y-58783466D01*
X119285439Y-58565000D01*
X118714561Y-58565000D01*
X118187138Y-58783466D01*
X117783466Y-59187138D01*
X117565000Y-59714561D01*
X117385000Y-59714561D01*
X117385000Y-58144396D01*
X117716534Y-57812862D01*
X117935000Y-57285439D01*
X117935000Y-56714561D01*
X117716534Y-56187138D01*
X117312862Y-55783466D01*
X116785439Y-55565000D01*
X116214561Y-55565000D01*
X116166792Y-55584787D01*
X117743495Y-54008084D01*
X117853260Y-54559909D01*
X117853260Y-54559909D01*
G37*
X117853260Y-54559909D02*
X118170423Y-55034577D01*
X118645091Y-55351740D01*
X119063667Y-55435000D01*
X119346333Y-55435000D01*
X119764909Y-55351740D01*
X120053667Y-55158798D01*
X120865000Y-55970132D01*
X120865001Y-64439969D01*
X120848365Y-64596786D01*
X120187425Y-63935847D01*
X120138049Y-63861951D01*
X120132083Y-63857964D01*
X120436041Y-63522423D01*
X120596904Y-63134039D01*
X120474915Y-62912000D01*
X119332000Y-62912000D01*
X119332000Y-62932000D01*
X119078000Y-62932000D01*
X119078000Y-62912000D01*
X117935085Y-62912000D01*
X117838811Y-63087233D01*
X117385000Y-62633422D01*
X117385000Y-59714561D01*
X117565000Y-59714561D01*
X117565000Y-60285439D01*
X117783466Y-60812862D01*
X118187138Y-61216534D01*
X118714561Y-61435000D01*
X118767399Y-61435000D01*
X118349866Y-61632611D01*
X117973959Y-62047577D01*
X117813096Y-62435961D01*
X117935085Y-62658000D01*
X119078000Y-62658000D01*
X119078000Y-62638000D01*
X119332000Y-62638000D01*
X119332000Y-62658000D01*
X120474915Y-62658000D01*
X120596904Y-62435961D01*
X120436041Y-62047577D01*
X120060134Y-61632611D01*
X119554041Y-61393086D01*
X119332002Y-61514370D01*
X119332002Y-61415713D01*
X119812862Y-61216534D01*
X120216534Y-60812862D01*
X120435000Y-60285439D01*
X120435000Y-59714561D01*
X120216534Y-59187138D01*
X119812862Y-58783466D01*
X119285439Y-58565000D01*
X118714561Y-58565000D01*
X118187138Y-58783466D01*
X117783466Y-59187138D01*
X117565000Y-59714561D01*
X117385000Y-59714561D01*
X117385000Y-58144396D01*
X117716534Y-57812862D01*
X117935000Y-57285439D01*
X117935000Y-56714561D01*
X117716534Y-56187138D01*
X117312862Y-55783466D01*
X116785439Y-55565000D01*
X116214561Y-55565000D01*
X116166792Y-55584787D01*
X117743495Y-54008084D01*
X117853260Y-54559909D01*
G04 #@! TD*
M02*
