G04 #@! TF.GenerationSoftware,KiCad,Pcbnew,5.0.1*
G04 #@! TF.CreationDate,2019-05-06T23:45:27+02:00*
G04 #@! TF.ProjectId,adadad,6164616461642E6B696361645F706362,rev?*
G04 #@! TF.SameCoordinates,Original*
G04 #@! TF.FileFunction,Copper,L1,Top,Signal*
G04 #@! TF.FilePolarity,Positive*
%FSLAX46Y46*%
G04 Gerber Fmt 4.6, Leading zero omitted, Abs format (unit mm)*
G04 Created by KiCad (PCBNEW 5.0.1) date Mo 06 Mai 2019 23:45:27 CEST*
%MOMM*%
%LPD*%
G01*
G04 APERTURE LIST*
G04 #@! TA.AperFunction,ComponentPad*
%ADD10C,1.440000*%
G04 #@! TD*
G04 #@! TA.AperFunction,ComponentPad*
%ADD11R,1.600000X1.600000*%
G04 #@! TD*
G04 #@! TA.AperFunction,ComponentPad*
%ADD12O,1.600000X1.600000*%
G04 #@! TD*
G04 #@! TA.AperFunction,ComponentPad*
%ADD13C,1.700000*%
G04 #@! TD*
G04 #@! TA.AperFunction,ComponentPad*
%ADD14R,1.700000X1.700000*%
G04 #@! TD*
G04 #@! TA.AperFunction,ComponentPad*
%ADD15R,2.200000X2.200000*%
G04 #@! TD*
G04 #@! TA.AperFunction,ComponentPad*
%ADD16O,2.200000X2.200000*%
G04 #@! TD*
G04 #@! TA.AperFunction,ComponentPad*
%ADD17R,1.800000X1.800000*%
G04 #@! TD*
G04 #@! TA.AperFunction,ComponentPad*
%ADD18C,1.800000*%
G04 #@! TD*
G04 #@! TA.AperFunction,ComponentPad*
%ADD19C,1.600000*%
G04 #@! TD*
G04 #@! TA.AperFunction,ComponentPad*
%ADD20C,1.500000*%
G04 #@! TD*
G04 #@! TA.AperFunction,ComponentPad*
%ADD21R,1.500000X1.500000*%
G04 #@! TD*
G04 #@! TA.AperFunction,ComponentPad*
%ADD22O,1.800000X2.800000*%
G04 #@! TD*
G04 #@! TA.AperFunction,ViaPad*
%ADD23C,0.800000*%
G04 #@! TD*
G04 #@! TA.AperFunction,Conductor*
%ADD24C,1.000000*%
G04 #@! TD*
G04 #@! TA.AperFunction,Conductor*
%ADD25C,0.500000*%
G04 #@! TD*
G04 #@! TA.AperFunction,Conductor*
%ADD26C,0.254000*%
G04 #@! TD*
G04 APERTURE END LIST*
D10*
G04 #@! TO.P,RV2,3*
G04 #@! TO.N,Net-(D6-Pad2)*
X124920000Y-114000000D03*
G04 #@! TO.P,RV2,2*
G04 #@! TO.N,Net-(RV2-Pad2)*
X127460000Y-114000000D03*
G04 #@! TO.P,RV2,1*
G04 #@! TO.N,Net-(C3-Pad2)*
X130000000Y-114000000D03*
G04 #@! TD*
G04 #@! TO.P,RV1,1*
G04 #@! TO.N,+12V*
X130000000Y-119500000D03*
G04 #@! TO.P,RV1,2*
G04 #@! TO.N,Net-(RV1-Pad2)*
X127460000Y-119500000D03*
G04 #@! TO.P,RV1,3*
G04 #@! TO.N,GND*
X124920000Y-119500000D03*
G04 #@! TD*
D11*
G04 #@! TO.P,D7,1*
G04 #@! TO.N,Net-(D4-Pad2)*
X106500000Y-130500000D03*
D12*
G04 #@! TO.P,D7,2*
G04 #@! TO.N,Net-(D4-Pad1)*
X114120000Y-130500000D03*
G04 #@! TD*
D11*
G04 #@! TO.P,U2,1*
G04 #@! TO.N,Net-(OUT_J4-PadT)*
X131000000Y-143000000D03*
D12*
G04 #@! TO.P,U2,8*
G04 #@! TO.N,Net-(D4-Pad1)*
X120840000Y-127760000D03*
G04 #@! TO.P,U2,2*
G04 #@! TO.N,Net-(OUT_J4-PadT)*
X131000000Y-140460000D03*
G04 #@! TO.P,U2,9*
G04 #@! TO.N,Net-(D4-Pad2)*
X120840000Y-130300000D03*
G04 #@! TO.P,U2,3*
G04 #@! TO.N,Net-(C3-Pad2)*
X131000000Y-137920000D03*
G04 #@! TO.P,U2,10*
G04 #@! TO.N,GND*
X120840000Y-132840000D03*
G04 #@! TO.P,U2,4*
G04 #@! TO.N,+12V*
X131000000Y-135380000D03*
G04 #@! TO.P,U2,11*
G04 #@! TO.N,-12V*
X120840000Y-135380000D03*
G04 #@! TO.P,U2,5*
G04 #@! TO.N,Net-(RV1-Pad2)*
X131000000Y-132840000D03*
G04 #@! TO.P,U2,12*
G04 #@! TO.N,N/C*
X120840000Y-137920000D03*
G04 #@! TO.P,U2,6*
G04 #@! TO.N,Net-(RV2-Pad2)*
X131000000Y-130300000D03*
G04 #@! TO.P,U2,13*
G04 #@! TO.N,N/C*
X120840000Y-140460000D03*
G04 #@! TO.P,U2,7*
G04 #@! TO.N,Net-(D6-Pad2)*
X131000000Y-127760000D03*
G04 #@! TO.P,U2,14*
G04 #@! TO.N,N/C*
X120840000Y-143000000D03*
G04 #@! TD*
D13*
G04 #@! TO.P,J1,10*
G04 #@! TO.N,+12V*
X129540000Y-98660000D03*
G04 #@! TO.P,J1,9*
X127000000Y-98660000D03*
G04 #@! TO.P,J1,8*
G04 #@! TO.N,GND*
X129540000Y-96120000D03*
G04 #@! TO.P,J1,7*
X127000000Y-96120000D03*
G04 #@! TO.P,J1,6*
X129540000Y-93580000D03*
G04 #@! TO.P,J1,5*
X127000000Y-93580000D03*
G04 #@! TO.P,J1,4*
X129540000Y-91040000D03*
G04 #@! TO.P,J1,3*
X127000000Y-91040000D03*
G04 #@! TO.P,J1,2*
G04 #@! TO.N,-12V*
X129540000Y-88500000D03*
D14*
G04 #@! TO.P,J1,1*
X127000000Y-88500000D03*
G04 #@! TD*
D15*
G04 #@! TO.P,D6,1*
G04 #@! TO.N,Net-(D6-Pad1)*
X105000000Y-134000000D03*
D16*
G04 #@! TO.P,D6,2*
G04 #@! TO.N,Net-(D6-Pad2)*
X115160000Y-134000000D03*
G04 #@! TD*
D17*
G04 #@! TO.P,D4,1*
G04 #@! TO.N,Net-(D4-Pad1)*
X106500000Y-114500000D03*
D18*
G04 #@! TO.P,D4,2*
G04 #@! TO.N,Net-(D4-Pad2)*
X106500000Y-111960000D03*
G04 #@! TD*
D19*
G04 #@! TO.P,R10,1*
G04 #@! TO.N,Net-(D4-Pad2)*
X111500000Y-112000000D03*
D12*
G04 #@! TO.P,R10,2*
G04 #@! TO.N,Net-(C3-Pad2)*
X119120000Y-112000000D03*
G04 #@! TD*
D19*
G04 #@! TO.P,C4,2*
G04 #@! TO.N,-12V*
X121500000Y-93500000D03*
D11*
G04 #@! TO.P,C4,1*
G04 #@! TO.N,GND*
X119000000Y-93500000D03*
G04 #@! TD*
G04 #@! TO.P,C5,1*
G04 #@! TO.N,+12V*
X109000000Y-87500000D03*
D19*
G04 #@! TO.P,C5,2*
G04 #@! TO.N,GND*
X106500000Y-87500000D03*
G04 #@! TD*
D20*
G04 #@! TO.P,Q1,2*
G04 #@! TO.N,Net-(D1-Pad1)*
X127540000Y-61500000D03*
G04 #@! TO.P,Q1,3*
G04 #@! TO.N,GND*
X130080000Y-61500000D03*
D21*
G04 #@! TO.P,Q1,1*
G04 #@! TO.N,Net-(Q1-Pad1)*
X125000000Y-61500000D03*
G04 #@! TD*
G04 #@! TO.P,Q2,1*
G04 #@! TO.N,Net-(C1-Pad2)*
X125000000Y-51500000D03*
D20*
G04 #@! TO.P,Q2,3*
G04 #@! TO.N,GND*
X130080000Y-51500000D03*
G04 #@! TO.P,Q2,2*
G04 #@! TO.N,Net-(Q2-Pad2)*
X127540000Y-51500000D03*
G04 #@! TD*
G04 #@! TO.P,Q3,2*
G04 #@! TO.N,Net-(Q3-Pad2)*
X127540000Y-56500000D03*
G04 #@! TO.P,Q3,3*
G04 #@! TO.N,GND*
X130080000Y-56500000D03*
D21*
G04 #@! TO.P,Q3,1*
G04 #@! TO.N,Net-(Q3-Pad1)*
X125000000Y-56500000D03*
G04 #@! TD*
D22*
G04 #@! TO.P,EoC_J1,S*
G04 #@! TO.N,Net-(EoC_J1-PadS)*
X104500000Y-140500000D03*
G04 #@! TO.P,EoC_J1,T*
G04 #@! TO.N,Net-(D6-Pad1)*
X106900000Y-138500000D03*
G04 #@! TO.P,EoC_J1,R*
G04 #@! TO.N,GND*
X112400000Y-138500000D03*
G04 #@! TD*
G04 #@! TO.P,GATE_J2,S*
G04 #@! TO.N,Net-(GATE_J2-PadS)*
X104500000Y-104500000D03*
G04 #@! TO.P,GATE_J2,T*
G04 #@! TO.N,Net-(D1-Pad1)*
X106900000Y-102500000D03*
G04 #@! TO.P,GATE_J2,R*
G04 #@! TO.N,GND*
X112400000Y-102500000D03*
G04 #@! TD*
G04 #@! TO.P,OUT_J4,S*
G04 #@! TO.N,Net-(OUT_J4-PadS)*
X104500000Y-122500000D03*
G04 #@! TO.P,OUT_J4,T*
G04 #@! TO.N,Net-(OUT_J4-PadT)*
X106900000Y-120500000D03*
G04 #@! TO.P,OUT_J4,R*
G04 #@! TO.N,GND*
X112400000Y-120500000D03*
G04 #@! TD*
D18*
G04 #@! TO.P,Attack1,3*
G04 #@! TO.N,Net-(Attack1-Pad2)*
X107775000Y-56435000D03*
G04 #@! TO.P,Attack1,2*
X107775000Y-53935000D03*
G04 #@! TO.P,Attack1,1*
G04 #@! TO.N,Net-(Attack1-Pad1)*
X107775000Y-51435000D03*
G04 #@! TD*
G04 #@! TO.P,Decay1,3*
G04 #@! TO.N,Net-(Decay1-Pad2)*
X108000000Y-79000000D03*
G04 #@! TO.P,Decay1,2*
X108000000Y-76500000D03*
G04 #@! TO.P,Decay1,1*
G04 #@! TO.N,Net-(D5-Pad1)*
X108000000Y-74000000D03*
G04 #@! TD*
D19*
G04 #@! TO.P,C1,2*
G04 #@! TO.N,Net-(C1-Pad2)*
X116500000Y-57000000D03*
G04 #@! TO.P,C1,1*
G04 #@! TO.N,Net-(C1-Pad1)*
X111500000Y-57000000D03*
G04 #@! TD*
G04 #@! TO.P,C2,1*
G04 #@! TO.N,Net-(C2-Pad1)*
X122500000Y-68000000D03*
G04 #@! TO.P,C2,2*
G04 #@! TO.N,GND*
X127500000Y-68000000D03*
G04 #@! TD*
G04 #@! TO.P,C3,2*
G04 #@! TO.N,Net-(C3-Pad2)*
X119285000Y-86000000D03*
G04 #@! TO.P,C3,1*
G04 #@! TO.N,GND*
X114285000Y-86000000D03*
G04 #@! TD*
D12*
G04 #@! TO.P,D1,2*
G04 #@! TO.N,GND*
X114620000Y-98000000D03*
D11*
G04 #@! TO.P,D1,1*
G04 #@! TO.N,Net-(D1-Pad1)*
X107000000Y-98000000D03*
G04 #@! TD*
G04 #@! TO.P,D2,1*
G04 #@! TO.N,Net-(C1-Pad1)*
X111585000Y-62785000D03*
D12*
G04 #@! TO.P,D2,2*
G04 #@! TO.N,GND*
X119205000Y-62785000D03*
G04 #@! TD*
G04 #@! TO.P,D3,2*
G04 #@! TO.N,Net-(Attack1-Pad1)*
X111380000Y-51000000D03*
D11*
G04 #@! TO.P,D3,1*
G04 #@! TO.N,Net-(C3-Pad2)*
X119000000Y-51000000D03*
G04 #@! TD*
D12*
G04 #@! TO.P,D5,2*
G04 #@! TO.N,Net-(C3-Pad2)*
X119120000Y-74000000D03*
D11*
G04 #@! TO.P,D5,1*
G04 #@! TO.N,Net-(D5-Pad1)*
X111500000Y-74000000D03*
G04 #@! TD*
D19*
G04 #@! TO.P,R2,1*
G04 #@! TO.N,+12V*
X119205000Y-71080000D03*
D12*
G04 #@! TO.P,R2,2*
G04 #@! TO.N,Net-(Q1-Pad1)*
X111585000Y-71080000D03*
G04 #@! TD*
G04 #@! TO.P,R5,2*
G04 #@! TO.N,Net-(C1-Pad1)*
X111380000Y-60000000D03*
D19*
G04 #@! TO.P,R5,1*
G04 #@! TO.N,Net-(Q3-Pad2)*
X119000000Y-60000000D03*
G04 #@! TD*
G04 #@! TO.P,R6,1*
G04 #@! TO.N,+12V*
X111745000Y-79445000D03*
D12*
G04 #@! TO.P,R6,2*
G04 #@! TO.N,Net-(Q3-Pad1)*
X119365000Y-79445000D03*
G04 #@! TD*
D19*
G04 #@! TO.P,R8,1*
G04 #@! TO.N,Net-(Attack1-Pad2)*
X111585000Y-54000000D03*
D12*
G04 #@! TO.P,R8,2*
G04 #@! TO.N,Net-(R8-Pad2)*
X119205000Y-54000000D03*
G04 #@! TD*
D19*
G04 #@! TO.P,R9,1*
G04 #@! TO.N,Net-(Decay1-Pad2)*
X111500000Y-76500000D03*
D12*
G04 #@! TO.P,R9,2*
G04 #@! TO.N,Net-(R9-Pad2)*
X119120000Y-76500000D03*
G04 #@! TD*
D19*
G04 #@! TO.P,R4,1*
G04 #@! TO.N,+12V*
X111745000Y-82620000D03*
D12*
G04 #@! TO.P,R4,2*
G04 #@! TO.N,Net-(C1-Pad2)*
X119365000Y-82620000D03*
G04 #@! TD*
G04 #@! TO.P,R3,2*
G04 #@! TO.N,Net-(Q1-Pad1)*
X111585000Y-67905000D03*
D19*
G04 #@! TO.P,R3,1*
G04 #@! TO.N,Net-(Q2-Pad2)*
X119205000Y-67905000D03*
G04 #@! TD*
D12*
G04 #@! TO.P,U1,8*
G04 #@! TO.N,+12V*
X122380000Y-79000000D03*
G04 #@! TO.P,U1,4*
G04 #@! TO.N,Net-(C1-Pad2)*
X130000000Y-71380000D03*
G04 #@! TO.P,U1,7*
G04 #@! TO.N,Net-(R9-Pad2)*
X122380000Y-76460000D03*
G04 #@! TO.P,U1,3*
G04 #@! TO.N,Net-(R8-Pad2)*
X130000000Y-73920000D03*
G04 #@! TO.P,U1,6*
G04 #@! TO.N,Net-(C3-Pad2)*
X122380000Y-73920000D03*
G04 #@! TO.P,U1,2*
G04 #@! TO.N,Net-(Q3-Pad1)*
X130000000Y-76460000D03*
G04 #@! TO.P,U1,5*
G04 #@! TO.N,Net-(C2-Pad1)*
X122380000Y-71380000D03*
D11*
G04 #@! TO.P,U1,1*
G04 #@! TO.N,GND*
X130000000Y-79000000D03*
G04 #@! TD*
D23*
G04 #@! TO.N,Net-(C1-Pad2)*
X120615001Y-66500000D03*
G04 #@! TD*
D24*
G04 #@! TO.N,+12V*
X111745000Y-82620000D02*
X111745000Y-79445000D01*
X119205000Y-71080000D02*
X117920000Y-71080000D01*
X117920000Y-71080000D02*
X116000000Y-73000000D01*
X116000000Y-73000000D02*
X116000000Y-76500000D01*
X113055000Y-79445000D02*
X111745000Y-79445000D01*
X109000000Y-87500000D02*
X111745000Y-87500000D01*
X111745000Y-87500000D02*
X111745000Y-82620000D01*
X111745000Y-87500000D02*
X111745000Y-90245000D01*
D25*
X114749999Y-77750001D02*
X114500000Y-78000000D01*
X121130001Y-77750001D02*
X114749999Y-77750001D01*
X122380000Y-79000000D02*
X121130001Y-77750001D01*
D24*
X116000000Y-76500000D02*
X114500000Y-78000000D01*
X114500000Y-78000000D02*
X113055000Y-79445000D01*
X120160000Y-98660000D02*
X111745000Y-90245000D01*
X127000000Y-98660000D02*
X120160000Y-98660000D01*
G04 #@! TO.N,Net-(Q1-Pad1)*
X111585000Y-71080000D02*
X111585000Y-67905000D01*
X125000000Y-63250000D02*
X125000000Y-61500000D01*
X123750000Y-64500000D02*
X125000000Y-63250000D01*
X114990000Y-64500000D02*
X123750000Y-64500000D01*
X111585000Y-67905000D02*
X114990000Y-64500000D01*
G04 #@! TO.N,Net-(C1-Pad2)*
X119285000Y-82700000D02*
X119365000Y-82620000D01*
D25*
X117631370Y-57000000D02*
X116500000Y-57000000D01*
X120750000Y-57000000D02*
X117631370Y-57000000D01*
X125000000Y-52750000D02*
X120750000Y-57000000D01*
X125000000Y-51500000D02*
X125000000Y-52750000D01*
X121115001Y-66000000D02*
X120615001Y-66500000D01*
X129000000Y-66000000D02*
X121115001Y-66000000D01*
X130000000Y-71380000D02*
X130000000Y-67000000D01*
X130000000Y-67000000D02*
X129000000Y-66000000D01*
D24*
G04 #@! TO.N,Net-(R9-Pad2)*
X122340000Y-76500000D02*
X122380000Y-76460000D01*
X119120000Y-76500000D02*
X122340000Y-76500000D01*
G04 #@! TO.N,Net-(Attack1-Pad1)*
X110945000Y-51435000D02*
X111380000Y-51000000D01*
X107775000Y-51435000D02*
X110945000Y-51435000D01*
G04 #@! TO.N,Net-(Q3-Pad1)*
X120164999Y-80244999D02*
X120244999Y-80244999D01*
X119365000Y-79445000D02*
X120164999Y-80244999D01*
X120244999Y-80244999D02*
X121000000Y-81000000D01*
X121000000Y-81000000D02*
X124000000Y-81000000D01*
X128540000Y-76460000D02*
X130000000Y-76460000D01*
X124000000Y-81000000D02*
X128540000Y-76460000D01*
X125000000Y-54750000D02*
X125000000Y-56500000D01*
X130000000Y-76460000D02*
X131131370Y-76460000D01*
X131131370Y-76460000D02*
X132000000Y-75591370D01*
X132000000Y-55000000D02*
X131000000Y-54000000D01*
X132000000Y-75591370D02*
X132000000Y-55000000D01*
X131000000Y-54000000D02*
X125750000Y-54000000D01*
X125750000Y-54000000D02*
X125000000Y-54750000D01*
G04 #@! TO.N,Net-(Q3-Pad2)*
X126299999Y-59200001D02*
X127540000Y-57960000D01*
X119000000Y-60000000D02*
X119799999Y-59200001D01*
X127540000Y-57960000D02*
X127540000Y-56500000D01*
X119799999Y-59200001D02*
X126299999Y-59200001D01*
G04 #@! TO.N,Net-(C1-Pad1)*
X111500000Y-59880000D02*
X111380000Y-60000000D01*
X111500000Y-57000000D02*
X111500000Y-59880000D01*
X111585000Y-60205000D02*
X111380000Y-60000000D01*
X111585000Y-62785000D02*
X111585000Y-60205000D01*
G04 #@! TO.N,Net-(D5-Pad1)*
X108000000Y-74000000D02*
X111500000Y-74000000D01*
G04 #@! TO.N,Net-(D1-Pad1)*
X106900000Y-98100000D02*
X107000000Y-98000000D01*
X106900000Y-102500000D02*
X106900000Y-98100000D01*
D25*
G04 #@! TO.N,-12V*
X120840000Y-135380000D02*
X123500000Y-132720000D01*
X123500000Y-132720000D02*
X123500000Y-121000000D01*
X123500000Y-121000000D02*
X117000000Y-114500000D01*
X117000000Y-112269998D02*
X125269998Y-104000000D01*
X117000000Y-114500000D02*
X117000000Y-112269998D01*
X125269998Y-104000000D02*
X129000000Y-104000000D01*
X130389999Y-89349999D02*
X129540000Y-88500000D01*
X130840001Y-89800001D02*
X130389999Y-89349999D01*
X130840001Y-102159999D02*
X130840001Y-89800001D01*
X129000000Y-104000000D02*
X130840001Y-102159999D01*
D24*
G04 #@! TO.N,Net-(C2-Pad1)*
X122380000Y-68120000D02*
X122500000Y-68000000D01*
X122380000Y-71380000D02*
X122380000Y-68120000D01*
G04 #@! TO.N,Net-(Decay1-Pad2)*
X108000000Y-79000000D02*
X108000000Y-76500000D01*
X111500000Y-76500000D02*
X108000000Y-76500000D01*
G04 #@! TO.N,Net-(Attack1-Pad2)*
X107775000Y-56435000D02*
X107775000Y-53935000D01*
X107840000Y-54000000D02*
X107775000Y-53935000D01*
X111585000Y-54000000D02*
X107840000Y-54000000D01*
D25*
G04 #@! TO.N,Net-(RV1-Pad2)*
X127460000Y-120960000D02*
X127460000Y-119500000D01*
X132250001Y-125750001D02*
X127460000Y-120960000D01*
X131000000Y-132840000D02*
X132250001Y-131589999D01*
X132250001Y-131589999D02*
X132250001Y-125750001D01*
D24*
G04 #@! TO.N,Net-(D4-Pad2)*
X106540000Y-112000000D02*
X106500000Y-111960000D01*
X111500000Y-112000000D02*
X106540000Y-112000000D01*
D25*
X106500000Y-129200000D02*
X109500000Y-126200000D01*
X106500000Y-130500000D02*
X106500000Y-129200000D01*
X109500000Y-126200000D02*
X109500000Y-119000000D01*
X109500000Y-119000000D02*
X107000000Y-116500000D01*
X107000000Y-116500000D02*
X105000000Y-116500000D01*
X105000000Y-116500000D02*
X104500000Y-116000000D01*
X104500000Y-116000000D02*
X104500000Y-112500000D01*
X105040000Y-111960000D02*
X106500000Y-111960000D01*
X104500000Y-112500000D02*
X105040000Y-111960000D01*
D24*
G04 #@! TO.N,Net-(D6-Pad2)*
X115160000Y-134240000D02*
X115160000Y-134000000D01*
D25*
X128740000Y-127760000D02*
X129500000Y-127760000D01*
X126000000Y-130500000D02*
X128740000Y-127760000D01*
X115160000Y-134000000D02*
X117790001Y-136630001D01*
X129500000Y-127760000D02*
X131000000Y-127760000D01*
X117790001Y-136630001D02*
X121440001Y-136630001D01*
X121440001Y-136630001D02*
X126000000Y-132070002D01*
X126000000Y-132070002D02*
X126000000Y-130500000D01*
D24*
G04 #@! TO.N,Net-(D6-Pad1)*
X107000000Y-138400000D02*
X106900000Y-138500000D01*
X105000000Y-136600000D02*
X106900000Y-138500000D01*
X105000000Y-134000000D02*
X105000000Y-136600000D01*
G04 #@! TO.N,Net-(C3-Pad2)*
X122300000Y-74000000D02*
X122380000Y-73920000D01*
X119200000Y-73920000D02*
X119120000Y-74000000D01*
X122380000Y-73920000D02*
X119200000Y-73920000D01*
X119285000Y-86000000D02*
X130500000Y-86000000D01*
X130500000Y-86000000D02*
X132500000Y-88000000D01*
X119120000Y-112000000D02*
X120620000Y-110500000D01*
D25*
X131799999Y-137120001D02*
X131000000Y-137920000D01*
X132950011Y-135969989D02*
X131799999Y-137120001D01*
D24*
X129500000Y-110500000D02*
X132500000Y-107500000D01*
X128000000Y-110500000D02*
X129500000Y-110500000D01*
X132500000Y-88000000D02*
X132500000Y-107500000D01*
X128000000Y-110500000D02*
X128500000Y-110500000D01*
X120620000Y-110500000D02*
X128000000Y-110500000D01*
X130000000Y-111000000D02*
X129500000Y-110500000D01*
X130000000Y-114000000D02*
X130000000Y-111000000D01*
D25*
X132950011Y-116950011D02*
X132950011Y-117500000D01*
X130000000Y-114000000D02*
X132950011Y-116950011D01*
X132950011Y-117500000D02*
X132950011Y-135969989D01*
D24*
G04 #@! TO.N,Net-(D4-Pad1)*
X116860000Y-127760000D02*
X114120000Y-130500000D01*
X120840000Y-127760000D02*
X116860000Y-127760000D01*
X106500000Y-114500000D02*
X112000000Y-114500000D01*
X120840000Y-123340000D02*
X120840000Y-127760000D01*
X112000000Y-114500000D02*
X120840000Y-123340000D01*
G04 #@! TD*
D26*
G04 #@! TO.N,GND*
G36*
X119705000Y-123810132D02*
X119705001Y-126625000D01*
X116971782Y-126625000D01*
X116859999Y-126602765D01*
X116417145Y-126690854D01*
X116041711Y-126941711D01*
X115978389Y-127036479D01*
X113942718Y-129072151D01*
X113560091Y-129148260D01*
X113085423Y-129465423D01*
X112768260Y-129940091D01*
X112656887Y-130500000D01*
X112768260Y-131059909D01*
X113085423Y-131534577D01*
X113560091Y-131851740D01*
X113978667Y-131935000D01*
X114261333Y-131935000D01*
X114679909Y-131851740D01*
X115154577Y-131534577D01*
X115471740Y-131059909D01*
X115547849Y-130677282D01*
X117330132Y-128895000D01*
X119955717Y-128895000D01*
X120157758Y-129030000D01*
X119805423Y-129265423D01*
X119488260Y-129740091D01*
X119376887Y-130300000D01*
X119488260Y-130859909D01*
X119805423Y-131334577D01*
X120189108Y-131590947D01*
X119984866Y-131687611D01*
X119608959Y-132102577D01*
X119448096Y-132490961D01*
X119570085Y-132713000D01*
X120713000Y-132713000D01*
X120713000Y-132693000D01*
X120967000Y-132693000D01*
X120967000Y-132713000D01*
X120987000Y-132713000D01*
X120987000Y-132967000D01*
X120967000Y-132967000D01*
X120967000Y-132987000D01*
X120713000Y-132987000D01*
X120713000Y-132967000D01*
X119570085Y-132967000D01*
X119448096Y-133189039D01*
X119608959Y-133577423D01*
X119984866Y-133992389D01*
X120189108Y-134089053D01*
X119805423Y-134345423D01*
X119488260Y-134820091D01*
X119376887Y-135380000D01*
X119449490Y-135745001D01*
X118156580Y-135745001D01*
X116843146Y-134431568D01*
X116928990Y-134000000D01*
X116794334Y-133323037D01*
X116410865Y-132749135D01*
X115836963Y-132365666D01*
X115330880Y-132265000D01*
X114989120Y-132265000D01*
X114483037Y-132365666D01*
X113909135Y-132749135D01*
X113525666Y-133323037D01*
X113391010Y-134000000D01*
X113525666Y-134676963D01*
X113909135Y-135250865D01*
X114483037Y-135634334D01*
X114989120Y-135735000D01*
X115330880Y-135735000D01*
X115591568Y-135683146D01*
X117102578Y-137194157D01*
X117151952Y-137268050D01*
X117225845Y-137317424D01*
X117225846Y-137317425D01*
X117281587Y-137354670D01*
X117444691Y-137463653D01*
X117702836Y-137515001D01*
X117702841Y-137515001D01*
X117790000Y-137532338D01*
X117877160Y-137515001D01*
X119457446Y-137515001D01*
X119376887Y-137920000D01*
X119488260Y-138479909D01*
X119805423Y-138954577D01*
X120157758Y-139190000D01*
X119805423Y-139425423D01*
X119488260Y-139900091D01*
X119376887Y-140460000D01*
X119488260Y-141019909D01*
X119805423Y-141494577D01*
X120157758Y-141730000D01*
X119805423Y-141965423D01*
X119488260Y-142440091D01*
X119376887Y-143000000D01*
X119488260Y-143559909D01*
X119805423Y-144034577D01*
X120280091Y-144351740D01*
X120698667Y-144435000D01*
X120981333Y-144435000D01*
X121399909Y-144351740D01*
X121874577Y-144034577D01*
X122191740Y-143559909D01*
X122303113Y-143000000D01*
X122191740Y-142440091D01*
X121874577Y-141965423D01*
X121522242Y-141730000D01*
X121874577Y-141494577D01*
X122191740Y-141019909D01*
X122303113Y-140460000D01*
X122191740Y-139900091D01*
X121874577Y-139425423D01*
X121522242Y-139190000D01*
X121874577Y-138954577D01*
X122191740Y-138479909D01*
X122303113Y-137920000D01*
X122191740Y-137360091D01*
X122104145Y-137228996D01*
X122127426Y-137194154D01*
X126564156Y-132757425D01*
X126638049Y-132708051D01*
X126833652Y-132415312D01*
X126885000Y-132157167D01*
X126885000Y-132157163D01*
X126902337Y-132070003D01*
X126885000Y-131982843D01*
X126885000Y-130866578D01*
X129106579Y-128645000D01*
X129865479Y-128645000D01*
X129965423Y-128794577D01*
X130317758Y-129030000D01*
X129965423Y-129265423D01*
X129648260Y-129740091D01*
X129536887Y-130300000D01*
X129648260Y-130859909D01*
X129965423Y-131334577D01*
X130317758Y-131570000D01*
X129965423Y-131805423D01*
X129648260Y-132280091D01*
X129536887Y-132840000D01*
X129648260Y-133399909D01*
X129965423Y-133874577D01*
X130317758Y-134110000D01*
X129965423Y-134345423D01*
X129648260Y-134820091D01*
X129536887Y-135380000D01*
X129648260Y-135939909D01*
X129965423Y-136414577D01*
X130317758Y-136650000D01*
X129965423Y-136885423D01*
X129648260Y-137360091D01*
X129536887Y-137920000D01*
X129648260Y-138479909D01*
X129965423Y-138954577D01*
X130317758Y-139190000D01*
X129965423Y-139425423D01*
X129648260Y-139900091D01*
X129536887Y-140460000D01*
X129648260Y-141019909D01*
X129965423Y-141494577D01*
X130086106Y-141575215D01*
X129952235Y-141601843D01*
X129742191Y-141742191D01*
X129601843Y-141952235D01*
X129552560Y-142200000D01*
X129552560Y-143800000D01*
X129601843Y-144047765D01*
X129742191Y-144257809D01*
X129952235Y-144398157D01*
X130200000Y-144447440D01*
X131800000Y-144447440D01*
X132047765Y-144398157D01*
X132257809Y-144257809D01*
X132398157Y-144047765D01*
X132447440Y-143800000D01*
X132447440Y-142200000D01*
X132398157Y-141952235D01*
X132257809Y-141742191D01*
X132047765Y-141601843D01*
X131913894Y-141575215D01*
X132034577Y-141494577D01*
X132351740Y-141019909D01*
X132463113Y-140460000D01*
X132351740Y-139900091D01*
X132034577Y-139425423D01*
X131682242Y-139190000D01*
X132034577Y-138954577D01*
X132351740Y-138479909D01*
X132463113Y-137920000D01*
X132428017Y-137743562D01*
X132487423Y-137684156D01*
X132487425Y-137684153D01*
X133265000Y-136906579D01*
X133265000Y-145265000D01*
X103735000Y-145265000D01*
X103735000Y-142334971D01*
X103901074Y-142445938D01*
X104500000Y-142565072D01*
X105098927Y-142445938D01*
X105606673Y-142106673D01*
X105945938Y-141598927D01*
X106035000Y-141151182D01*
X106035000Y-140268153D01*
X106301074Y-140445938D01*
X106900000Y-140565072D01*
X107498927Y-140445938D01*
X108006673Y-140106673D01*
X108345938Y-139598927D01*
X108435000Y-139151182D01*
X108435000Y-138627000D01*
X110865000Y-138627000D01*
X110865000Y-139127000D01*
X111030446Y-139704752D01*
X111404394Y-140175212D01*
X111929914Y-140466756D01*
X112035260Y-140491036D01*
X112273000Y-140370378D01*
X112273000Y-138627000D01*
X112527000Y-138627000D01*
X112527000Y-140370378D01*
X112764740Y-140491036D01*
X112870086Y-140466756D01*
X113395606Y-140175212D01*
X113769554Y-139704752D01*
X113935000Y-139127000D01*
X113935000Y-138627000D01*
X112527000Y-138627000D01*
X112273000Y-138627000D01*
X110865000Y-138627000D01*
X108435000Y-138627000D01*
X108435000Y-137873000D01*
X110865000Y-137873000D01*
X110865000Y-138373000D01*
X112273000Y-138373000D01*
X112273000Y-136629622D01*
X112527000Y-136629622D01*
X112527000Y-138373000D01*
X113935000Y-138373000D01*
X113935000Y-137873000D01*
X113769554Y-137295248D01*
X113395606Y-136824788D01*
X112870086Y-136533244D01*
X112764740Y-136508964D01*
X112527000Y-136629622D01*
X112273000Y-136629622D01*
X112035260Y-136508964D01*
X111929914Y-136533244D01*
X111404394Y-136824788D01*
X111030446Y-137295248D01*
X110865000Y-137873000D01*
X108435000Y-137873000D01*
X108435000Y-137848818D01*
X108345938Y-137401073D01*
X108006673Y-136893327D01*
X107498926Y-136554062D01*
X106900000Y-136434928D01*
X106516368Y-136511237D01*
X106135000Y-136129869D01*
X106135000Y-135740478D01*
X106347765Y-135698157D01*
X106557809Y-135557809D01*
X106698157Y-135347765D01*
X106747440Y-135100000D01*
X106747440Y-132900000D01*
X106698157Y-132652235D01*
X106557809Y-132442191D01*
X106347765Y-132301843D01*
X106100000Y-132252560D01*
X103900000Y-132252560D01*
X103735000Y-132285380D01*
X103735000Y-124334971D01*
X103901074Y-124445938D01*
X104500000Y-124565072D01*
X105098927Y-124445938D01*
X105606673Y-124106673D01*
X105945938Y-123598927D01*
X106035000Y-123151182D01*
X106035000Y-122268153D01*
X106301074Y-122445938D01*
X106900000Y-122565072D01*
X107498927Y-122445938D01*
X108006673Y-122106673D01*
X108345938Y-121598927D01*
X108435000Y-121151182D01*
X108435000Y-119848818D01*
X108345938Y-119401073D01*
X108006673Y-118893327D01*
X107498926Y-118554062D01*
X106900000Y-118434928D01*
X106301073Y-118554062D01*
X105793327Y-118893327D01*
X105454062Y-119401074D01*
X105365000Y-119848819D01*
X105365000Y-120731847D01*
X105098926Y-120554062D01*
X104500000Y-120434928D01*
X103901073Y-120554062D01*
X103735000Y-120665028D01*
X103735000Y-116448054D01*
X103861951Y-116638049D01*
X103935847Y-116687425D01*
X104312575Y-117064153D01*
X104361951Y-117138049D01*
X104654690Y-117333652D01*
X104912835Y-117385000D01*
X104912839Y-117385000D01*
X105000000Y-117402337D01*
X105087161Y-117385000D01*
X106633422Y-117385000D01*
X108615001Y-119366580D01*
X108615000Y-125833421D01*
X105935845Y-128512577D01*
X105861952Y-128561951D01*
X105812578Y-128635844D01*
X105812576Y-128635846D01*
X105666348Y-128854691D01*
X105623982Y-129067681D01*
X105452235Y-129101843D01*
X105242191Y-129242191D01*
X105101843Y-129452235D01*
X105052560Y-129700000D01*
X105052560Y-131300000D01*
X105101843Y-131547765D01*
X105242191Y-131757809D01*
X105452235Y-131898157D01*
X105700000Y-131947440D01*
X107300000Y-131947440D01*
X107547765Y-131898157D01*
X107757809Y-131757809D01*
X107898157Y-131547765D01*
X107947440Y-131300000D01*
X107947440Y-129700000D01*
X107898157Y-129452235D01*
X107757809Y-129242191D01*
X107728782Y-129222796D01*
X110064156Y-126887423D01*
X110138049Y-126838049D01*
X110333652Y-126545310D01*
X110385000Y-126287165D01*
X110385000Y-126287161D01*
X110402337Y-126200000D01*
X110385000Y-126112839D01*
X110385000Y-120627000D01*
X110865000Y-120627000D01*
X110865000Y-121127000D01*
X111030446Y-121704752D01*
X111404394Y-122175212D01*
X111929914Y-122466756D01*
X112035260Y-122491036D01*
X112273000Y-122370378D01*
X112273000Y-120627000D01*
X112527000Y-120627000D01*
X112527000Y-122370378D01*
X112764740Y-122491036D01*
X112870086Y-122466756D01*
X113395606Y-122175212D01*
X113769554Y-121704752D01*
X113935000Y-121127000D01*
X113935000Y-120627000D01*
X112527000Y-120627000D01*
X112273000Y-120627000D01*
X110865000Y-120627000D01*
X110385000Y-120627000D01*
X110385000Y-119873000D01*
X110865000Y-119873000D01*
X110865000Y-120373000D01*
X112273000Y-120373000D01*
X112273000Y-118629622D01*
X112527000Y-118629622D01*
X112527000Y-120373000D01*
X113935000Y-120373000D01*
X113935000Y-119873000D01*
X113769554Y-119295248D01*
X113395606Y-118824788D01*
X112870086Y-118533244D01*
X112764740Y-118508964D01*
X112527000Y-118629622D01*
X112273000Y-118629622D01*
X112035260Y-118508964D01*
X111929914Y-118533244D01*
X111404394Y-118824788D01*
X111030446Y-119295248D01*
X110865000Y-119873000D01*
X110385000Y-119873000D01*
X110385000Y-119087161D01*
X110402337Y-119000000D01*
X110385000Y-118912839D01*
X110385000Y-118912835D01*
X110333652Y-118654690D01*
X110252504Y-118533244D01*
X110187424Y-118435845D01*
X110187423Y-118435844D01*
X110138049Y-118361951D01*
X110064156Y-118312577D01*
X107708891Y-115957313D01*
X107857809Y-115857809D01*
X107998157Y-115647765D01*
X108000696Y-115635000D01*
X111529869Y-115635000D01*
X119705000Y-123810132D01*
X119705000Y-123810132D01*
G37*
X119705000Y-123810132D02*
X119705001Y-126625000D01*
X116971782Y-126625000D01*
X116859999Y-126602765D01*
X116417145Y-126690854D01*
X116041711Y-126941711D01*
X115978389Y-127036479D01*
X113942718Y-129072151D01*
X113560091Y-129148260D01*
X113085423Y-129465423D01*
X112768260Y-129940091D01*
X112656887Y-130500000D01*
X112768260Y-131059909D01*
X113085423Y-131534577D01*
X113560091Y-131851740D01*
X113978667Y-131935000D01*
X114261333Y-131935000D01*
X114679909Y-131851740D01*
X115154577Y-131534577D01*
X115471740Y-131059909D01*
X115547849Y-130677282D01*
X117330132Y-128895000D01*
X119955717Y-128895000D01*
X120157758Y-129030000D01*
X119805423Y-129265423D01*
X119488260Y-129740091D01*
X119376887Y-130300000D01*
X119488260Y-130859909D01*
X119805423Y-131334577D01*
X120189108Y-131590947D01*
X119984866Y-131687611D01*
X119608959Y-132102577D01*
X119448096Y-132490961D01*
X119570085Y-132713000D01*
X120713000Y-132713000D01*
X120713000Y-132693000D01*
X120967000Y-132693000D01*
X120967000Y-132713000D01*
X120987000Y-132713000D01*
X120987000Y-132967000D01*
X120967000Y-132967000D01*
X120967000Y-132987000D01*
X120713000Y-132987000D01*
X120713000Y-132967000D01*
X119570085Y-132967000D01*
X119448096Y-133189039D01*
X119608959Y-133577423D01*
X119984866Y-133992389D01*
X120189108Y-134089053D01*
X119805423Y-134345423D01*
X119488260Y-134820091D01*
X119376887Y-135380000D01*
X119449490Y-135745001D01*
X118156580Y-135745001D01*
X116843146Y-134431568D01*
X116928990Y-134000000D01*
X116794334Y-133323037D01*
X116410865Y-132749135D01*
X115836963Y-132365666D01*
X115330880Y-132265000D01*
X114989120Y-132265000D01*
X114483037Y-132365666D01*
X113909135Y-132749135D01*
X113525666Y-133323037D01*
X113391010Y-134000000D01*
X113525666Y-134676963D01*
X113909135Y-135250865D01*
X114483037Y-135634334D01*
X114989120Y-135735000D01*
X115330880Y-135735000D01*
X115591568Y-135683146D01*
X117102578Y-137194157D01*
X117151952Y-137268050D01*
X117225845Y-137317424D01*
X117225846Y-137317425D01*
X117281587Y-137354670D01*
X117444691Y-137463653D01*
X117702836Y-137515001D01*
X117702841Y-137515001D01*
X117790000Y-137532338D01*
X117877160Y-137515001D01*
X119457446Y-137515001D01*
X119376887Y-137920000D01*
X119488260Y-138479909D01*
X119805423Y-138954577D01*
X120157758Y-139190000D01*
X119805423Y-139425423D01*
X119488260Y-139900091D01*
X119376887Y-140460000D01*
X119488260Y-141019909D01*
X119805423Y-141494577D01*
X120157758Y-141730000D01*
X119805423Y-141965423D01*
X119488260Y-142440091D01*
X119376887Y-143000000D01*
X119488260Y-143559909D01*
X119805423Y-144034577D01*
X120280091Y-144351740D01*
X120698667Y-144435000D01*
X120981333Y-144435000D01*
X121399909Y-144351740D01*
X121874577Y-144034577D01*
X122191740Y-143559909D01*
X122303113Y-143000000D01*
X122191740Y-142440091D01*
X121874577Y-141965423D01*
X121522242Y-141730000D01*
X121874577Y-141494577D01*
X122191740Y-141019909D01*
X122303113Y-140460000D01*
X122191740Y-139900091D01*
X121874577Y-139425423D01*
X121522242Y-139190000D01*
X121874577Y-138954577D01*
X122191740Y-138479909D01*
X122303113Y-137920000D01*
X122191740Y-137360091D01*
X122104145Y-137228996D01*
X122127426Y-137194154D01*
X126564156Y-132757425D01*
X126638049Y-132708051D01*
X126833652Y-132415312D01*
X126885000Y-132157167D01*
X126885000Y-132157163D01*
X126902337Y-132070003D01*
X126885000Y-131982843D01*
X126885000Y-130866578D01*
X129106579Y-128645000D01*
X129865479Y-128645000D01*
X129965423Y-128794577D01*
X130317758Y-129030000D01*
X129965423Y-129265423D01*
X129648260Y-129740091D01*
X129536887Y-130300000D01*
X129648260Y-130859909D01*
X129965423Y-131334577D01*
X130317758Y-131570000D01*
X129965423Y-131805423D01*
X129648260Y-132280091D01*
X129536887Y-132840000D01*
X129648260Y-133399909D01*
X129965423Y-133874577D01*
X130317758Y-134110000D01*
X129965423Y-134345423D01*
X129648260Y-134820091D01*
X129536887Y-135380000D01*
X129648260Y-135939909D01*
X129965423Y-136414577D01*
X130317758Y-136650000D01*
X129965423Y-136885423D01*
X129648260Y-137360091D01*
X129536887Y-137920000D01*
X129648260Y-138479909D01*
X129965423Y-138954577D01*
X130317758Y-139190000D01*
X129965423Y-139425423D01*
X129648260Y-139900091D01*
X129536887Y-140460000D01*
X129648260Y-141019909D01*
X129965423Y-141494577D01*
X130086106Y-141575215D01*
X129952235Y-141601843D01*
X129742191Y-141742191D01*
X129601843Y-141952235D01*
X129552560Y-142200000D01*
X129552560Y-143800000D01*
X129601843Y-144047765D01*
X129742191Y-144257809D01*
X129952235Y-144398157D01*
X130200000Y-144447440D01*
X131800000Y-144447440D01*
X132047765Y-144398157D01*
X132257809Y-144257809D01*
X132398157Y-144047765D01*
X132447440Y-143800000D01*
X132447440Y-142200000D01*
X132398157Y-141952235D01*
X132257809Y-141742191D01*
X132047765Y-141601843D01*
X131913894Y-141575215D01*
X132034577Y-141494577D01*
X132351740Y-141019909D01*
X132463113Y-140460000D01*
X132351740Y-139900091D01*
X132034577Y-139425423D01*
X131682242Y-139190000D01*
X132034577Y-138954577D01*
X132351740Y-138479909D01*
X132463113Y-137920000D01*
X132428017Y-137743562D01*
X132487423Y-137684156D01*
X132487425Y-137684153D01*
X133265000Y-136906579D01*
X133265000Y-145265000D01*
X103735000Y-145265000D01*
X103735000Y-142334971D01*
X103901074Y-142445938D01*
X104500000Y-142565072D01*
X105098927Y-142445938D01*
X105606673Y-142106673D01*
X105945938Y-141598927D01*
X106035000Y-141151182D01*
X106035000Y-140268153D01*
X106301074Y-140445938D01*
X106900000Y-140565072D01*
X107498927Y-140445938D01*
X108006673Y-140106673D01*
X108345938Y-139598927D01*
X108435000Y-139151182D01*
X108435000Y-138627000D01*
X110865000Y-138627000D01*
X110865000Y-139127000D01*
X111030446Y-139704752D01*
X111404394Y-140175212D01*
X111929914Y-140466756D01*
X112035260Y-140491036D01*
X112273000Y-140370378D01*
X112273000Y-138627000D01*
X112527000Y-138627000D01*
X112527000Y-140370378D01*
X112764740Y-140491036D01*
X112870086Y-140466756D01*
X113395606Y-140175212D01*
X113769554Y-139704752D01*
X113935000Y-139127000D01*
X113935000Y-138627000D01*
X112527000Y-138627000D01*
X112273000Y-138627000D01*
X110865000Y-138627000D01*
X108435000Y-138627000D01*
X108435000Y-137873000D01*
X110865000Y-137873000D01*
X110865000Y-138373000D01*
X112273000Y-138373000D01*
X112273000Y-136629622D01*
X112527000Y-136629622D01*
X112527000Y-138373000D01*
X113935000Y-138373000D01*
X113935000Y-137873000D01*
X113769554Y-137295248D01*
X113395606Y-136824788D01*
X112870086Y-136533244D01*
X112764740Y-136508964D01*
X112527000Y-136629622D01*
X112273000Y-136629622D01*
X112035260Y-136508964D01*
X111929914Y-136533244D01*
X111404394Y-136824788D01*
X111030446Y-137295248D01*
X110865000Y-137873000D01*
X108435000Y-137873000D01*
X108435000Y-137848818D01*
X108345938Y-137401073D01*
X108006673Y-136893327D01*
X107498926Y-136554062D01*
X106900000Y-136434928D01*
X106516368Y-136511237D01*
X106135000Y-136129869D01*
X106135000Y-135740478D01*
X106347765Y-135698157D01*
X106557809Y-135557809D01*
X106698157Y-135347765D01*
X106747440Y-135100000D01*
X106747440Y-132900000D01*
X106698157Y-132652235D01*
X106557809Y-132442191D01*
X106347765Y-132301843D01*
X106100000Y-132252560D01*
X103900000Y-132252560D01*
X103735000Y-132285380D01*
X103735000Y-124334971D01*
X103901074Y-124445938D01*
X104500000Y-124565072D01*
X105098927Y-124445938D01*
X105606673Y-124106673D01*
X105945938Y-123598927D01*
X106035000Y-123151182D01*
X106035000Y-122268153D01*
X106301074Y-122445938D01*
X106900000Y-122565072D01*
X107498927Y-122445938D01*
X108006673Y-122106673D01*
X108345938Y-121598927D01*
X108435000Y-121151182D01*
X108435000Y-119848818D01*
X108345938Y-119401073D01*
X108006673Y-118893327D01*
X107498926Y-118554062D01*
X106900000Y-118434928D01*
X106301073Y-118554062D01*
X105793327Y-118893327D01*
X105454062Y-119401074D01*
X105365000Y-119848819D01*
X105365000Y-120731847D01*
X105098926Y-120554062D01*
X104500000Y-120434928D01*
X103901073Y-120554062D01*
X103735000Y-120665028D01*
X103735000Y-116448054D01*
X103861951Y-116638049D01*
X103935847Y-116687425D01*
X104312575Y-117064153D01*
X104361951Y-117138049D01*
X104654690Y-117333652D01*
X104912835Y-117385000D01*
X104912839Y-117385000D01*
X105000000Y-117402337D01*
X105087161Y-117385000D01*
X106633422Y-117385000D01*
X108615001Y-119366580D01*
X108615000Y-125833421D01*
X105935845Y-128512577D01*
X105861952Y-128561951D01*
X105812578Y-128635844D01*
X105812576Y-128635846D01*
X105666348Y-128854691D01*
X105623982Y-129067681D01*
X105452235Y-129101843D01*
X105242191Y-129242191D01*
X105101843Y-129452235D01*
X105052560Y-129700000D01*
X105052560Y-131300000D01*
X105101843Y-131547765D01*
X105242191Y-131757809D01*
X105452235Y-131898157D01*
X105700000Y-131947440D01*
X107300000Y-131947440D01*
X107547765Y-131898157D01*
X107757809Y-131757809D01*
X107898157Y-131547765D01*
X107947440Y-131300000D01*
X107947440Y-129700000D01*
X107898157Y-129452235D01*
X107757809Y-129242191D01*
X107728782Y-129222796D01*
X110064156Y-126887423D01*
X110138049Y-126838049D01*
X110333652Y-126545310D01*
X110385000Y-126287165D01*
X110385000Y-126287161D01*
X110402337Y-126200000D01*
X110385000Y-126112839D01*
X110385000Y-120627000D01*
X110865000Y-120627000D01*
X110865000Y-121127000D01*
X111030446Y-121704752D01*
X111404394Y-122175212D01*
X111929914Y-122466756D01*
X112035260Y-122491036D01*
X112273000Y-122370378D01*
X112273000Y-120627000D01*
X112527000Y-120627000D01*
X112527000Y-122370378D01*
X112764740Y-122491036D01*
X112870086Y-122466756D01*
X113395606Y-122175212D01*
X113769554Y-121704752D01*
X113935000Y-121127000D01*
X113935000Y-120627000D01*
X112527000Y-120627000D01*
X112273000Y-120627000D01*
X110865000Y-120627000D01*
X110385000Y-120627000D01*
X110385000Y-119873000D01*
X110865000Y-119873000D01*
X110865000Y-120373000D01*
X112273000Y-120373000D01*
X112273000Y-118629622D01*
X112527000Y-118629622D01*
X112527000Y-120373000D01*
X113935000Y-120373000D01*
X113935000Y-119873000D01*
X113769554Y-119295248D01*
X113395606Y-118824788D01*
X112870086Y-118533244D01*
X112764740Y-118508964D01*
X112527000Y-118629622D01*
X112273000Y-118629622D01*
X112035260Y-118508964D01*
X111929914Y-118533244D01*
X111404394Y-118824788D01*
X111030446Y-119295248D01*
X110865000Y-119873000D01*
X110385000Y-119873000D01*
X110385000Y-119087161D01*
X110402337Y-119000000D01*
X110385000Y-118912839D01*
X110385000Y-118912835D01*
X110333652Y-118654690D01*
X110252504Y-118533244D01*
X110187424Y-118435845D01*
X110187423Y-118435844D01*
X110138049Y-118361951D01*
X110064156Y-118312577D01*
X107708891Y-115957313D01*
X107857809Y-115857809D01*
X107998157Y-115647765D01*
X108000696Y-115635000D01*
X111529869Y-115635000D01*
X119705000Y-123810132D01*
G36*
X133265001Y-87146105D02*
X133223521Y-87118389D01*
X131381613Y-85276482D01*
X131318289Y-85181711D01*
X130942855Y-84930854D01*
X130611783Y-84865000D01*
X130500000Y-84842765D01*
X130388217Y-84865000D01*
X120179396Y-84865000D01*
X120097862Y-84783466D01*
X119570439Y-84565000D01*
X118999561Y-84565000D01*
X118472138Y-84783466D01*
X118068466Y-85187138D01*
X117850000Y-85714561D01*
X117850000Y-86285439D01*
X118068466Y-86812862D01*
X118472138Y-87216534D01*
X118999561Y-87435000D01*
X119570439Y-87435000D01*
X120097862Y-87216534D01*
X120179396Y-87135000D01*
X125777783Y-87135000D01*
X125692191Y-87192191D01*
X125551843Y-87402235D01*
X125502560Y-87650000D01*
X125502560Y-89350000D01*
X125551843Y-89597765D01*
X125692191Y-89807809D01*
X125902235Y-89948157D01*
X126136085Y-89994672D01*
X126135647Y-89996042D01*
X127000000Y-90860395D01*
X127864353Y-89996042D01*
X127863915Y-89994672D01*
X128097765Y-89948157D01*
X128307809Y-89807809D01*
X128448157Y-89597765D01*
X128463006Y-89523113D01*
X128698815Y-89758922D01*
X128745247Y-89778155D01*
X128675647Y-89996042D01*
X129540000Y-90860395D01*
X129554143Y-90846253D01*
X129733748Y-91025858D01*
X129719605Y-91040000D01*
X129733748Y-91054143D01*
X129554143Y-91233748D01*
X129540000Y-91219605D01*
X128675647Y-92083958D01*
X128747852Y-92310000D01*
X128675647Y-92536042D01*
X129540000Y-93400395D01*
X129554143Y-93386253D01*
X129733748Y-93565858D01*
X129719605Y-93580000D01*
X129733748Y-93594143D01*
X129554143Y-93773748D01*
X129540000Y-93759605D01*
X128675647Y-94623958D01*
X128747852Y-94850000D01*
X128675647Y-95076042D01*
X129540000Y-95940395D01*
X129554143Y-95926253D01*
X129733748Y-96105858D01*
X129719605Y-96120000D01*
X129733748Y-96134143D01*
X129554143Y-96313748D01*
X129540000Y-96299605D01*
X128675647Y-97163958D01*
X128745247Y-97381845D01*
X128698815Y-97401078D01*
X128281078Y-97818815D01*
X128270000Y-97845560D01*
X128258922Y-97818815D01*
X127841185Y-97401078D01*
X127794753Y-97381845D01*
X127864353Y-97163958D01*
X127000000Y-96299605D01*
X126135647Y-97163958D01*
X126205247Y-97381845D01*
X126158815Y-97401078D01*
X126034893Y-97525000D01*
X120630132Y-97525000D01*
X118996411Y-95891279D01*
X125503282Y-95891279D01*
X125529685Y-96481458D01*
X125704741Y-96904080D01*
X125956042Y-96984353D01*
X126820395Y-96120000D01*
X127179605Y-96120000D01*
X128043958Y-96984353D01*
X128270000Y-96912148D01*
X128496042Y-96984353D01*
X129360395Y-96120000D01*
X128496042Y-95255647D01*
X128270000Y-95327852D01*
X128043958Y-95255647D01*
X127179605Y-96120000D01*
X126820395Y-96120000D01*
X125956042Y-95255647D01*
X125704741Y-95335920D01*
X125503282Y-95891279D01*
X118996411Y-95891279D01*
X118016402Y-94911270D01*
X118073691Y-94935000D01*
X118714250Y-94935000D01*
X118873000Y-94776250D01*
X118873000Y-93627000D01*
X117723750Y-93627000D01*
X117565000Y-93785750D01*
X117565000Y-94426310D01*
X117588729Y-94483598D01*
X115678821Y-92573690D01*
X117565000Y-92573690D01*
X117565000Y-93214250D01*
X117723750Y-93373000D01*
X118873000Y-93373000D01*
X118873000Y-92223750D01*
X119127000Y-92223750D01*
X119127000Y-93373000D01*
X119147000Y-93373000D01*
X119147000Y-93627000D01*
X119127000Y-93627000D01*
X119127000Y-94776250D01*
X119285750Y-94935000D01*
X119926309Y-94935000D01*
X120159698Y-94838327D01*
X120338327Y-94659699D01*
X120423845Y-94453241D01*
X120687138Y-94716534D01*
X121214561Y-94935000D01*
X121785439Y-94935000D01*
X122312862Y-94716534D01*
X122405438Y-94623958D01*
X126135647Y-94623958D01*
X126207852Y-94850000D01*
X126135647Y-95076042D01*
X127000000Y-95940395D01*
X127864353Y-95076042D01*
X127792148Y-94850000D01*
X127864353Y-94623958D01*
X127000000Y-93759605D01*
X126135647Y-94623958D01*
X122405438Y-94623958D01*
X122716534Y-94312862D01*
X122935000Y-93785439D01*
X122935000Y-93351279D01*
X125503282Y-93351279D01*
X125529685Y-93941458D01*
X125704741Y-94364080D01*
X125956042Y-94444353D01*
X126820395Y-93580000D01*
X127179605Y-93580000D01*
X128043958Y-94444353D01*
X128270000Y-94372148D01*
X128496042Y-94444353D01*
X129360395Y-93580000D01*
X128496042Y-92715647D01*
X128270000Y-92787852D01*
X128043958Y-92715647D01*
X127179605Y-93580000D01*
X126820395Y-93580000D01*
X125956042Y-92715647D01*
X125704741Y-92795920D01*
X125503282Y-93351279D01*
X122935000Y-93351279D01*
X122935000Y-93214561D01*
X122716534Y-92687138D01*
X122312862Y-92283466D01*
X121831208Y-92083958D01*
X126135647Y-92083958D01*
X126207852Y-92310000D01*
X126135647Y-92536042D01*
X127000000Y-93400395D01*
X127864353Y-92536042D01*
X127792148Y-92310000D01*
X127864353Y-92083958D01*
X127000000Y-91219605D01*
X126135647Y-92083958D01*
X121831208Y-92083958D01*
X121785439Y-92065000D01*
X121214561Y-92065000D01*
X120687138Y-92283466D01*
X120423845Y-92546759D01*
X120338327Y-92340301D01*
X120159698Y-92161673D01*
X119926309Y-92065000D01*
X119285750Y-92065000D01*
X119127000Y-92223750D01*
X118873000Y-92223750D01*
X118714250Y-92065000D01*
X118073691Y-92065000D01*
X117840302Y-92161673D01*
X117661673Y-92340301D01*
X117565000Y-92573690D01*
X115678821Y-92573690D01*
X113916410Y-90811279D01*
X125503282Y-90811279D01*
X125529685Y-91401458D01*
X125704741Y-91824080D01*
X125956042Y-91904353D01*
X126820395Y-91040000D01*
X127179605Y-91040000D01*
X128043958Y-91904353D01*
X128270000Y-91832148D01*
X128496042Y-91904353D01*
X129360395Y-91040000D01*
X128496042Y-90175647D01*
X128270000Y-90247852D01*
X128043958Y-90175647D01*
X127179605Y-91040000D01*
X126820395Y-91040000D01*
X125956042Y-90175647D01*
X125704741Y-90255920D01*
X125503282Y-90811279D01*
X113916410Y-90811279D01*
X112880000Y-89774869D01*
X112880000Y-87611782D01*
X112902235Y-87500000D01*
X112880000Y-87388217D01*
X112880000Y-87007745D01*
X113456861Y-87007745D01*
X113530995Y-87253864D01*
X114068223Y-87446965D01*
X114638454Y-87419778D01*
X115039005Y-87253864D01*
X115113139Y-87007745D01*
X114285000Y-86179605D01*
X113456861Y-87007745D01*
X112880000Y-87007745D01*
X112880000Y-86389131D01*
X113031136Y-86754005D01*
X113277255Y-86828139D01*
X114105395Y-86000000D01*
X114464605Y-86000000D01*
X115292745Y-86828139D01*
X115538864Y-86754005D01*
X115731965Y-86216777D01*
X115704778Y-85646546D01*
X115538864Y-85245995D01*
X115292745Y-85171861D01*
X114464605Y-86000000D01*
X114105395Y-86000000D01*
X113277255Y-85171861D01*
X113031136Y-85245995D01*
X112880000Y-85666472D01*
X112880000Y-84992255D01*
X113456861Y-84992255D01*
X114285000Y-85820395D01*
X115113139Y-84992255D01*
X115039005Y-84746136D01*
X114501777Y-84553035D01*
X113931546Y-84580222D01*
X113530995Y-84746136D01*
X113456861Y-84992255D01*
X112880000Y-84992255D01*
X112880000Y-83514396D01*
X112961534Y-83432862D01*
X113180000Y-82905439D01*
X113180000Y-82334561D01*
X112961534Y-81807138D01*
X112880000Y-81725604D01*
X112880000Y-80580000D01*
X112943217Y-80580000D01*
X113055000Y-80602235D01*
X113166783Y-80580000D01*
X113497855Y-80514146D01*
X113873289Y-80263289D01*
X113936613Y-80168518D01*
X115381608Y-78723524D01*
X115381610Y-78723521D01*
X115470130Y-78635001D01*
X118180365Y-78635001D01*
X118013260Y-78885091D01*
X117901887Y-79445000D01*
X118013260Y-80004909D01*
X118330423Y-80479577D01*
X118805091Y-80796740D01*
X119187717Y-80872849D01*
X119283388Y-80968520D01*
X119346710Y-81063288D01*
X119538416Y-81191382D01*
X119506333Y-81185000D01*
X119223667Y-81185000D01*
X118805091Y-81268260D01*
X118330423Y-81585423D01*
X118013260Y-82060091D01*
X117901887Y-82620000D01*
X118013260Y-83179909D01*
X118330423Y-83654577D01*
X118805091Y-83971740D01*
X119223667Y-84055000D01*
X119506333Y-84055000D01*
X119924909Y-83971740D01*
X120399577Y-83654577D01*
X120716740Y-83179909D01*
X120828113Y-82620000D01*
X120725190Y-82102572D01*
X121000000Y-82157235D01*
X121111783Y-82135000D01*
X123888217Y-82135000D01*
X124000000Y-82157235D01*
X124111783Y-82135000D01*
X124442855Y-82069146D01*
X124818289Y-81818289D01*
X124881613Y-81723518D01*
X127319382Y-79285750D01*
X128565000Y-79285750D01*
X128565000Y-79926310D01*
X128661673Y-80159699D01*
X128840302Y-80338327D01*
X129073691Y-80435000D01*
X129714250Y-80435000D01*
X129873000Y-80276250D01*
X129873000Y-79127000D01*
X130127000Y-79127000D01*
X130127000Y-80276250D01*
X130285750Y-80435000D01*
X130926309Y-80435000D01*
X131159698Y-80338327D01*
X131338327Y-80159699D01*
X131435000Y-79926310D01*
X131435000Y-79285750D01*
X131276250Y-79127000D01*
X130127000Y-79127000D01*
X129873000Y-79127000D01*
X128723750Y-79127000D01*
X128565000Y-79285750D01*
X127319382Y-79285750D01*
X128588729Y-78016404D01*
X128565000Y-78073690D01*
X128565000Y-78714250D01*
X128723750Y-78873000D01*
X129873000Y-78873000D01*
X129873000Y-78853000D01*
X130127000Y-78853000D01*
X130127000Y-78873000D01*
X131276250Y-78873000D01*
X131435000Y-78714250D01*
X131435000Y-78073690D01*
X131338327Y-77840301D01*
X131159698Y-77661673D01*
X130998735Y-77595000D01*
X131019587Y-77595000D01*
X131131370Y-77617235D01*
X131243153Y-77595000D01*
X131574225Y-77529146D01*
X131949659Y-77278289D01*
X132012983Y-77183519D01*
X132723521Y-76472981D01*
X132818289Y-76409659D01*
X133069146Y-76034225D01*
X133135000Y-75703153D01*
X133135000Y-75703152D01*
X133157235Y-75591371D01*
X133135000Y-75479589D01*
X133135000Y-55111783D01*
X133157235Y-55000000D01*
X133069146Y-54557145D01*
X132881609Y-54276476D01*
X132818289Y-54181711D01*
X132723523Y-54118391D01*
X131881612Y-53276481D01*
X131818289Y-53181711D01*
X131442855Y-52930854D01*
X131111783Y-52865000D01*
X131000000Y-52842765D01*
X130888217Y-52865000D01*
X130435660Y-52865000D01*
X130803923Y-52712460D01*
X130871912Y-52471517D01*
X130080000Y-51679605D01*
X129288088Y-52471517D01*
X129356077Y-52712460D01*
X129784691Y-52865000D01*
X127863778Y-52865000D01*
X128324540Y-52674147D01*
X128714147Y-52284540D01*
X128803397Y-52069070D01*
X128867540Y-52223923D01*
X129108483Y-52291912D01*
X129900395Y-51500000D01*
X130259605Y-51500000D01*
X131051517Y-52291912D01*
X131292460Y-52223923D01*
X131477201Y-51704829D01*
X131449230Y-51154552D01*
X131292460Y-50776077D01*
X131051517Y-50708088D01*
X130259605Y-51500000D01*
X129900395Y-51500000D01*
X129108483Y-50708088D01*
X128867540Y-50776077D01*
X128808255Y-50942658D01*
X128714147Y-50715460D01*
X128527170Y-50528483D01*
X129288088Y-50528483D01*
X130080000Y-51320395D01*
X130871912Y-50528483D01*
X130803923Y-50287540D01*
X130284829Y-50102799D01*
X129734552Y-50130770D01*
X129356077Y-50287540D01*
X129288088Y-50528483D01*
X128527170Y-50528483D01*
X128324540Y-50325853D01*
X127815494Y-50115000D01*
X127264506Y-50115000D01*
X126755460Y-50325853D01*
X126386469Y-50694844D01*
X126348157Y-50502235D01*
X126207809Y-50292191D01*
X125997765Y-50151843D01*
X125750000Y-50102560D01*
X124250000Y-50102560D01*
X124002235Y-50151843D01*
X123792191Y-50292191D01*
X123651843Y-50502235D01*
X123602560Y-50750000D01*
X123602560Y-52250000D01*
X123651843Y-52497765D01*
X123791559Y-52706863D01*
X120383422Y-56115000D01*
X117644396Y-56115000D01*
X117312862Y-55783466D01*
X116785439Y-55565000D01*
X116214561Y-55565000D01*
X115687138Y-55783466D01*
X115283466Y-56187138D01*
X115065000Y-56714561D01*
X115065000Y-57285439D01*
X115283466Y-57812862D01*
X115687138Y-58216534D01*
X116214561Y-58435000D01*
X116785439Y-58435000D01*
X117312862Y-58216534D01*
X117644396Y-57885000D01*
X120662839Y-57885000D01*
X120750000Y-57902337D01*
X120837161Y-57885000D01*
X120837165Y-57885000D01*
X121095310Y-57833652D01*
X121388049Y-57638049D01*
X121437425Y-57564153D01*
X123865000Y-55136579D01*
X123865000Y-55243541D01*
X123792191Y-55292191D01*
X123651843Y-55502235D01*
X123602560Y-55750000D01*
X123602560Y-57250000D01*
X123651843Y-57497765D01*
X123792191Y-57707809D01*
X124002235Y-57848157D01*
X124250000Y-57897440D01*
X125750000Y-57897440D01*
X125997765Y-57848157D01*
X126145276Y-57749593D01*
X125829868Y-58065001D01*
X119911780Y-58065001D01*
X119799998Y-58042766D01*
X119688216Y-58065001D01*
X119357144Y-58130855D01*
X118981710Y-58381712D01*
X118918388Y-58476480D01*
X118829868Y-58565000D01*
X118714561Y-58565000D01*
X118187138Y-58783466D01*
X117783466Y-59187138D01*
X117565000Y-59714561D01*
X117565000Y-60285439D01*
X117783466Y-60812862D01*
X118187138Y-61216534D01*
X118714561Y-61435000D01*
X118767399Y-61435000D01*
X118349866Y-61632611D01*
X117973959Y-62047577D01*
X117813096Y-62435961D01*
X117935085Y-62658000D01*
X119078000Y-62658000D01*
X119078000Y-62638000D01*
X119332000Y-62638000D01*
X119332000Y-62658000D01*
X120474915Y-62658000D01*
X120596904Y-62435961D01*
X120436041Y-62047577D01*
X120060134Y-61632611D01*
X119554041Y-61393086D01*
X119332002Y-61514370D01*
X119332002Y-61415713D01*
X119812862Y-61216534D01*
X120216534Y-60812862D01*
X120414471Y-60335001D01*
X123763586Y-60335001D01*
X123651843Y-60502235D01*
X123602560Y-60750000D01*
X123602560Y-62250000D01*
X123651843Y-62497765D01*
X123792191Y-62707809D01*
X123865000Y-62756459D01*
X123865000Y-62779868D01*
X123279869Y-63365000D01*
X120501243Y-63365000D01*
X120596904Y-63134039D01*
X120474915Y-62912000D01*
X119332000Y-62912000D01*
X119332000Y-62932000D01*
X119078000Y-62932000D01*
X119078000Y-62912000D01*
X117935085Y-62912000D01*
X117813096Y-63134039D01*
X117908757Y-63365000D01*
X115101782Y-63365000D01*
X114989999Y-63342765D01*
X114547145Y-63430854D01*
X114171711Y-63681711D01*
X114108389Y-63776479D01*
X111407718Y-66477151D01*
X111025091Y-66553260D01*
X110550423Y-66870423D01*
X110233260Y-67345091D01*
X110121887Y-67905000D01*
X110233260Y-68464909D01*
X110450001Y-68789284D01*
X110450000Y-70195716D01*
X110233260Y-70520091D01*
X110121887Y-71080000D01*
X110233260Y-71639909D01*
X110550423Y-72114577D01*
X111025091Y-72431740D01*
X111443667Y-72515000D01*
X111726333Y-72515000D01*
X112144909Y-72431740D01*
X112619577Y-72114577D01*
X112936740Y-71639909D01*
X113048113Y-71080000D01*
X112936740Y-70520091D01*
X112720000Y-70195717D01*
X112720000Y-68789283D01*
X112936740Y-68464909D01*
X113012849Y-68082282D01*
X115460132Y-65635000D01*
X120016290Y-65635000D01*
X119737570Y-65913720D01*
X119580001Y-66294126D01*
X119580001Y-66507098D01*
X119490439Y-66470000D01*
X118919561Y-66470000D01*
X118392138Y-66688466D01*
X117988466Y-67092138D01*
X117770000Y-67619561D01*
X117770000Y-68190439D01*
X117988466Y-68717862D01*
X118392138Y-69121534D01*
X118919561Y-69340000D01*
X119490439Y-69340000D01*
X120017862Y-69121534D01*
X120421534Y-68717862D01*
X120640000Y-68190439D01*
X120640000Y-67619561D01*
X120604974Y-67535000D01*
X120820875Y-67535000D01*
X121201281Y-67377431D01*
X121207022Y-67371690D01*
X121065000Y-67714561D01*
X121065000Y-68285439D01*
X121245001Y-68719999D01*
X121245000Y-70495716D01*
X121028260Y-70820091D01*
X120916887Y-71380000D01*
X121028260Y-71939909D01*
X121345423Y-72414577D01*
X121697758Y-72650000D01*
X121495717Y-72785000D01*
X119884555Y-72785000D01*
X119679909Y-72648260D01*
X119261333Y-72565000D01*
X118978667Y-72565000D01*
X118560091Y-72648260D01*
X118085423Y-72965423D01*
X117768260Y-73440091D01*
X117656887Y-74000000D01*
X117768260Y-74559909D01*
X118085423Y-75034577D01*
X118407826Y-75250000D01*
X118085423Y-75465423D01*
X117768260Y-75940091D01*
X117656887Y-76500000D01*
X117729490Y-76865001D01*
X117084632Y-76865001D01*
X117135000Y-76611783D01*
X117157235Y-76500001D01*
X117135000Y-76388217D01*
X117135000Y-73470131D01*
X118350368Y-72254764D01*
X118392138Y-72296534D01*
X118919561Y-72515000D01*
X119490439Y-72515000D01*
X120017862Y-72296534D01*
X120421534Y-71892862D01*
X120640000Y-71365439D01*
X120640000Y-70794561D01*
X120421534Y-70267138D01*
X120017862Y-69863466D01*
X119490439Y-69645000D01*
X118919561Y-69645000D01*
X118392138Y-69863466D01*
X118310604Y-69945000D01*
X118031782Y-69945000D01*
X117919999Y-69922765D01*
X117477145Y-70010854D01*
X117101711Y-70261711D01*
X117038389Y-70356479D01*
X115276482Y-72118387D01*
X115181711Y-72181711D01*
X114959015Y-72515000D01*
X114930854Y-72557146D01*
X114842765Y-73000000D01*
X114865000Y-73111783D01*
X114865001Y-76029867D01*
X113776479Y-77118390D01*
X113776476Y-77118392D01*
X112612132Y-78282736D01*
X112557862Y-78228466D01*
X112030439Y-78010000D01*
X111459561Y-78010000D01*
X110932138Y-78228466D01*
X110528466Y-78632138D01*
X110310000Y-79159561D01*
X110310000Y-79730439D01*
X110528466Y-80257862D01*
X110610001Y-80339397D01*
X110610000Y-81725604D01*
X110528466Y-81807138D01*
X110310000Y-82334561D01*
X110310000Y-82905439D01*
X110528466Y-83432862D01*
X110610001Y-83514397D01*
X110610000Y-86365000D01*
X110339868Y-86365000D01*
X110257809Y-86242191D01*
X110047765Y-86101843D01*
X109800000Y-86052560D01*
X108200000Y-86052560D01*
X107952235Y-86101843D01*
X107742191Y-86242191D01*
X107601843Y-86452235D01*
X107555307Y-86686187D01*
X107507745Y-86671861D01*
X106679605Y-87500000D01*
X107507745Y-88328139D01*
X107555307Y-88313813D01*
X107601843Y-88547765D01*
X107742191Y-88757809D01*
X107952235Y-88898157D01*
X108200000Y-88947440D01*
X109800000Y-88947440D01*
X110047765Y-88898157D01*
X110257809Y-88757809D01*
X110339868Y-88635000D01*
X110610000Y-88635000D01*
X110610001Y-90133212D01*
X110587765Y-90245000D01*
X110675854Y-90687854D01*
X110675855Y-90687855D01*
X110926712Y-91063289D01*
X111021480Y-91126611D01*
X119278389Y-99383521D01*
X119341711Y-99478289D01*
X119717145Y-99729146D01*
X120159999Y-99817235D01*
X120271782Y-99795000D01*
X126034893Y-99795000D01*
X126158815Y-99918922D01*
X126704615Y-100145000D01*
X127295385Y-100145000D01*
X127841185Y-99918922D01*
X128258922Y-99501185D01*
X128270000Y-99474440D01*
X128281078Y-99501185D01*
X128698815Y-99918922D01*
X129244615Y-100145000D01*
X129835385Y-100145000D01*
X129955001Y-100095453D01*
X129955001Y-101793420D01*
X128633422Y-103115000D01*
X125357157Y-103115000D01*
X125269997Y-103097663D01*
X125182837Y-103115000D01*
X125182833Y-103115000D01*
X124924688Y-103166348D01*
X124924686Y-103166349D01*
X124924687Y-103166349D01*
X124705843Y-103312576D01*
X124705842Y-103312577D01*
X124631949Y-103361951D01*
X124582575Y-103435844D01*
X116435845Y-111582575D01*
X116361952Y-111631949D01*
X116312578Y-111705842D01*
X116312576Y-111705844D01*
X116166348Y-111924689D01*
X116097663Y-112269998D01*
X116115001Y-112357163D01*
X116115000Y-114412839D01*
X116097663Y-114500000D01*
X116115000Y-114587161D01*
X116115000Y-114587164D01*
X116166348Y-114845309D01*
X116361951Y-115138049D01*
X116435847Y-115187425D01*
X122615001Y-121366580D01*
X122615000Y-132353421D01*
X122255423Y-132712998D01*
X122109916Y-132712998D01*
X122231904Y-132490961D01*
X122071041Y-132102577D01*
X121695134Y-131687611D01*
X121490892Y-131590947D01*
X121874577Y-131334577D01*
X122191740Y-130859909D01*
X122303113Y-130300000D01*
X122191740Y-129740091D01*
X121874577Y-129265423D01*
X121522242Y-129030000D01*
X121874577Y-128794577D01*
X122191740Y-128319909D01*
X122303113Y-127760000D01*
X122191740Y-127200091D01*
X121975000Y-126875717D01*
X121975000Y-123451783D01*
X121997235Y-123340000D01*
X121909146Y-122897145D01*
X121658289Y-122521711D01*
X121563522Y-122458390D01*
X112881613Y-113776482D01*
X112818289Y-113681711D01*
X112442855Y-113430854D01*
X112111783Y-113365000D01*
X112005481Y-113343855D01*
X112312862Y-113216534D01*
X112716534Y-112812862D01*
X112935000Y-112285439D01*
X112935000Y-111714561D01*
X112716534Y-111187138D01*
X112312862Y-110783466D01*
X111785439Y-110565000D01*
X111214561Y-110565000D01*
X110687138Y-110783466D01*
X110605604Y-110865000D01*
X107575817Y-110865000D01*
X107369507Y-110658690D01*
X106805330Y-110425000D01*
X106194670Y-110425000D01*
X105630493Y-110658690D01*
X105214183Y-111075000D01*
X105127159Y-111075000D01*
X105039999Y-111057663D01*
X104952839Y-111075000D01*
X104952835Y-111075000D01*
X104694690Y-111126348D01*
X104401951Y-111321951D01*
X104352575Y-111395847D01*
X103935845Y-111812577D01*
X103861952Y-111861951D01*
X103812578Y-111935844D01*
X103812576Y-111935846D01*
X103735000Y-112051946D01*
X103735000Y-106334971D01*
X103901074Y-106445938D01*
X104500000Y-106565072D01*
X105098927Y-106445938D01*
X105606673Y-106106673D01*
X105945938Y-105598927D01*
X106035000Y-105151182D01*
X106035000Y-104268153D01*
X106301074Y-104445938D01*
X106900000Y-104565072D01*
X107498927Y-104445938D01*
X108006673Y-104106673D01*
X108345938Y-103598927D01*
X108435000Y-103151182D01*
X108435000Y-102627000D01*
X110865000Y-102627000D01*
X110865000Y-103127000D01*
X111030446Y-103704752D01*
X111404394Y-104175212D01*
X111929914Y-104466756D01*
X112035260Y-104491036D01*
X112273000Y-104370378D01*
X112273000Y-102627000D01*
X112527000Y-102627000D01*
X112527000Y-104370378D01*
X112764740Y-104491036D01*
X112870086Y-104466756D01*
X113395606Y-104175212D01*
X113769554Y-103704752D01*
X113935000Y-103127000D01*
X113935000Y-102627000D01*
X112527000Y-102627000D01*
X112273000Y-102627000D01*
X110865000Y-102627000D01*
X108435000Y-102627000D01*
X108435000Y-101873000D01*
X110865000Y-101873000D01*
X110865000Y-102373000D01*
X112273000Y-102373000D01*
X112273000Y-100629622D01*
X112527000Y-100629622D01*
X112527000Y-102373000D01*
X113935000Y-102373000D01*
X113935000Y-101873000D01*
X113769554Y-101295248D01*
X113395606Y-100824788D01*
X112870086Y-100533244D01*
X112764740Y-100508964D01*
X112527000Y-100629622D01*
X112273000Y-100629622D01*
X112035260Y-100508964D01*
X111929914Y-100533244D01*
X111404394Y-100824788D01*
X111030446Y-101295248D01*
X110865000Y-101873000D01*
X108435000Y-101873000D01*
X108435000Y-101848818D01*
X108345938Y-101401073D01*
X108035000Y-100935721D01*
X108035000Y-99400696D01*
X108047765Y-99398157D01*
X108257809Y-99257809D01*
X108398157Y-99047765D01*
X108447440Y-98800000D01*
X108447440Y-98349039D01*
X113228096Y-98349039D01*
X113388959Y-98737423D01*
X113764866Y-99152389D01*
X114270959Y-99391914D01*
X114493000Y-99270629D01*
X114493000Y-98127000D01*
X114747000Y-98127000D01*
X114747000Y-99270629D01*
X114969041Y-99391914D01*
X115475134Y-99152389D01*
X115851041Y-98737423D01*
X116011904Y-98349039D01*
X115889915Y-98127000D01*
X114747000Y-98127000D01*
X114493000Y-98127000D01*
X113350085Y-98127000D01*
X113228096Y-98349039D01*
X108447440Y-98349039D01*
X108447440Y-97650961D01*
X113228096Y-97650961D01*
X113350085Y-97873000D01*
X114493000Y-97873000D01*
X114493000Y-96729371D01*
X114747000Y-96729371D01*
X114747000Y-97873000D01*
X115889915Y-97873000D01*
X116011904Y-97650961D01*
X115851041Y-97262577D01*
X115475134Y-96847611D01*
X114969041Y-96608086D01*
X114747000Y-96729371D01*
X114493000Y-96729371D01*
X114270959Y-96608086D01*
X113764866Y-96847611D01*
X113388959Y-97262577D01*
X113228096Y-97650961D01*
X108447440Y-97650961D01*
X108447440Y-97200000D01*
X108398157Y-96952235D01*
X108257809Y-96742191D01*
X108047765Y-96601843D01*
X107800000Y-96552560D01*
X106200000Y-96552560D01*
X105952235Y-96601843D01*
X105742191Y-96742191D01*
X105601843Y-96952235D01*
X105552560Y-97200000D01*
X105552560Y-98800000D01*
X105601843Y-99047765D01*
X105742191Y-99257809D01*
X105765001Y-99273050D01*
X105765000Y-100935721D01*
X105454062Y-101401074D01*
X105365000Y-101848819D01*
X105365000Y-102731847D01*
X105098926Y-102554062D01*
X104500000Y-102434928D01*
X103901073Y-102554062D01*
X103735000Y-102665028D01*
X103735000Y-88507745D01*
X105671861Y-88507745D01*
X105745995Y-88753864D01*
X106283223Y-88946965D01*
X106853454Y-88919778D01*
X107254005Y-88753864D01*
X107328139Y-88507745D01*
X106500000Y-87679605D01*
X105671861Y-88507745D01*
X103735000Y-88507745D01*
X103735000Y-87283223D01*
X105053035Y-87283223D01*
X105080222Y-87853454D01*
X105246136Y-88254005D01*
X105492255Y-88328139D01*
X106320395Y-87500000D01*
X105492255Y-86671861D01*
X105246136Y-86745995D01*
X105053035Y-87283223D01*
X103735000Y-87283223D01*
X103735000Y-86492255D01*
X105671861Y-86492255D01*
X106500000Y-87320395D01*
X107328139Y-86492255D01*
X107254005Y-86246136D01*
X106716777Y-86053035D01*
X106146546Y-86080222D01*
X105745995Y-86246136D01*
X105671861Y-86492255D01*
X103735000Y-86492255D01*
X103735000Y-73694670D01*
X106465000Y-73694670D01*
X106465000Y-74305330D01*
X106698690Y-74869507D01*
X107079183Y-75250000D01*
X106698690Y-75630493D01*
X106465000Y-76194670D01*
X106465000Y-76805330D01*
X106698690Y-77369507D01*
X106865001Y-77535818D01*
X106865000Y-77964183D01*
X106698690Y-78130493D01*
X106465000Y-78694670D01*
X106465000Y-79305330D01*
X106698690Y-79869507D01*
X107130493Y-80301310D01*
X107694670Y-80535000D01*
X108305330Y-80535000D01*
X108869507Y-80301310D01*
X109301310Y-79869507D01*
X109535000Y-79305330D01*
X109535000Y-78694670D01*
X109301310Y-78130493D01*
X109135000Y-77964183D01*
X109135000Y-77635000D01*
X110605604Y-77635000D01*
X110687138Y-77716534D01*
X111214561Y-77935000D01*
X111785439Y-77935000D01*
X112312862Y-77716534D01*
X112716534Y-77312862D01*
X112935000Y-76785439D01*
X112935000Y-76214561D01*
X112716534Y-75687138D01*
X112447497Y-75418101D01*
X112547765Y-75398157D01*
X112757809Y-75257809D01*
X112898157Y-75047765D01*
X112947440Y-74800000D01*
X112947440Y-73200000D01*
X112898157Y-72952235D01*
X112757809Y-72742191D01*
X112547765Y-72601843D01*
X112300000Y-72552560D01*
X110700000Y-72552560D01*
X110452235Y-72601843D01*
X110242191Y-72742191D01*
X110160132Y-72865000D01*
X109035817Y-72865000D01*
X108869507Y-72698690D01*
X108305330Y-72465000D01*
X107694670Y-72465000D01*
X107130493Y-72698690D01*
X106698690Y-73130493D01*
X106465000Y-73694670D01*
X103735000Y-73694670D01*
X103735000Y-60000000D01*
X109916887Y-60000000D01*
X110028260Y-60559909D01*
X110345423Y-61034577D01*
X110450001Y-61104454D01*
X110450001Y-61445132D01*
X110327191Y-61527191D01*
X110186843Y-61737235D01*
X110137560Y-61985000D01*
X110137560Y-63585000D01*
X110186843Y-63832765D01*
X110327191Y-64042809D01*
X110537235Y-64183157D01*
X110785000Y-64232440D01*
X112385000Y-64232440D01*
X112632765Y-64183157D01*
X112842809Y-64042809D01*
X112983157Y-63832765D01*
X113032440Y-63585000D01*
X113032440Y-61985000D01*
X112983157Y-61737235D01*
X112842809Y-61527191D01*
X112720000Y-61445132D01*
X112720000Y-60577479D01*
X112731740Y-60559909D01*
X112843113Y-60000000D01*
X112731740Y-59440091D01*
X112635000Y-59295309D01*
X112635000Y-57894396D01*
X112716534Y-57812862D01*
X112935000Y-57285439D01*
X112935000Y-56714561D01*
X112716534Y-56187138D01*
X112312862Y-55783466D01*
X111785439Y-55565000D01*
X111214561Y-55565000D01*
X110687138Y-55783466D01*
X110283466Y-56187138D01*
X110065000Y-56714561D01*
X110065000Y-57285439D01*
X110283466Y-57812862D01*
X110365000Y-57894396D01*
X110365001Y-58952342D01*
X110345423Y-58965423D01*
X110028260Y-59440091D01*
X109916887Y-60000000D01*
X103735000Y-60000000D01*
X103735000Y-51129670D01*
X106240000Y-51129670D01*
X106240000Y-51740330D01*
X106473690Y-52304507D01*
X106854183Y-52685000D01*
X106473690Y-53065493D01*
X106240000Y-53629670D01*
X106240000Y-54240330D01*
X106473690Y-54804507D01*
X106640001Y-54970818D01*
X106640000Y-55399183D01*
X106473690Y-55565493D01*
X106240000Y-56129670D01*
X106240000Y-56740330D01*
X106473690Y-57304507D01*
X106905493Y-57736310D01*
X107469670Y-57970000D01*
X108080330Y-57970000D01*
X108644507Y-57736310D01*
X109076310Y-57304507D01*
X109310000Y-56740330D01*
X109310000Y-56129670D01*
X109076310Y-55565493D01*
X108910000Y-55399183D01*
X108910000Y-55135000D01*
X110690604Y-55135000D01*
X110772138Y-55216534D01*
X111299561Y-55435000D01*
X111870439Y-55435000D01*
X112397862Y-55216534D01*
X112801534Y-54812862D01*
X113020000Y-54285439D01*
X113020000Y-54000000D01*
X117741887Y-54000000D01*
X117853260Y-54559909D01*
X118170423Y-55034577D01*
X118645091Y-55351740D01*
X119063667Y-55435000D01*
X119346333Y-55435000D01*
X119764909Y-55351740D01*
X120239577Y-55034577D01*
X120556740Y-54559909D01*
X120668113Y-54000000D01*
X120556740Y-53440091D01*
X120239577Y-52965423D01*
X119764909Y-52648260D01*
X119346333Y-52565000D01*
X119063667Y-52565000D01*
X118645091Y-52648260D01*
X118170423Y-52965423D01*
X117853260Y-53440091D01*
X117741887Y-54000000D01*
X113020000Y-54000000D01*
X113020000Y-53714561D01*
X112801534Y-53187138D01*
X112397862Y-52783466D01*
X111870439Y-52565000D01*
X111299561Y-52565000D01*
X110772138Y-52783466D01*
X110690604Y-52865000D01*
X108875817Y-52865000D01*
X108695817Y-52685000D01*
X108810817Y-52570000D01*
X110833217Y-52570000D01*
X110945000Y-52592235D01*
X111056783Y-52570000D01*
X111387855Y-52504146D01*
X111491339Y-52435000D01*
X111521333Y-52435000D01*
X111939909Y-52351740D01*
X112414577Y-52034577D01*
X112731740Y-51559909D01*
X112843113Y-51000000D01*
X112731740Y-50440091D01*
X112571317Y-50200000D01*
X117552560Y-50200000D01*
X117552560Y-51800000D01*
X117601843Y-52047765D01*
X117742191Y-52257809D01*
X117952235Y-52398157D01*
X118200000Y-52447440D01*
X119800000Y-52447440D01*
X120047765Y-52398157D01*
X120257809Y-52257809D01*
X120398157Y-52047765D01*
X120447440Y-51800000D01*
X120447440Y-50200000D01*
X120398157Y-49952235D01*
X120257809Y-49742191D01*
X120047765Y-49601843D01*
X119800000Y-49552560D01*
X118200000Y-49552560D01*
X117952235Y-49601843D01*
X117742191Y-49742191D01*
X117601843Y-49952235D01*
X117552560Y-50200000D01*
X112571317Y-50200000D01*
X112414577Y-49965423D01*
X111939909Y-49648260D01*
X111521333Y-49565000D01*
X111238667Y-49565000D01*
X110820091Y-49648260D01*
X110345423Y-49965423D01*
X110121866Y-50300000D01*
X108810817Y-50300000D01*
X108644507Y-50133690D01*
X108080330Y-49900000D01*
X107469670Y-49900000D01*
X106905493Y-50133690D01*
X106473690Y-50565493D01*
X106240000Y-51129670D01*
X103735000Y-51129670D01*
X103735000Y-47235000D01*
X133265001Y-47235000D01*
X133265001Y-87146105D01*
X133265001Y-87146105D01*
G37*
X133265001Y-87146105D02*
X133223521Y-87118389D01*
X131381613Y-85276482D01*
X131318289Y-85181711D01*
X130942855Y-84930854D01*
X130611783Y-84865000D01*
X130500000Y-84842765D01*
X130388217Y-84865000D01*
X120179396Y-84865000D01*
X120097862Y-84783466D01*
X119570439Y-84565000D01*
X118999561Y-84565000D01*
X118472138Y-84783466D01*
X118068466Y-85187138D01*
X117850000Y-85714561D01*
X117850000Y-86285439D01*
X118068466Y-86812862D01*
X118472138Y-87216534D01*
X118999561Y-87435000D01*
X119570439Y-87435000D01*
X120097862Y-87216534D01*
X120179396Y-87135000D01*
X125777783Y-87135000D01*
X125692191Y-87192191D01*
X125551843Y-87402235D01*
X125502560Y-87650000D01*
X125502560Y-89350000D01*
X125551843Y-89597765D01*
X125692191Y-89807809D01*
X125902235Y-89948157D01*
X126136085Y-89994672D01*
X126135647Y-89996042D01*
X127000000Y-90860395D01*
X127864353Y-89996042D01*
X127863915Y-89994672D01*
X128097765Y-89948157D01*
X128307809Y-89807809D01*
X128448157Y-89597765D01*
X128463006Y-89523113D01*
X128698815Y-89758922D01*
X128745247Y-89778155D01*
X128675647Y-89996042D01*
X129540000Y-90860395D01*
X129554143Y-90846253D01*
X129733748Y-91025858D01*
X129719605Y-91040000D01*
X129733748Y-91054143D01*
X129554143Y-91233748D01*
X129540000Y-91219605D01*
X128675647Y-92083958D01*
X128747852Y-92310000D01*
X128675647Y-92536042D01*
X129540000Y-93400395D01*
X129554143Y-93386253D01*
X129733748Y-93565858D01*
X129719605Y-93580000D01*
X129733748Y-93594143D01*
X129554143Y-93773748D01*
X129540000Y-93759605D01*
X128675647Y-94623958D01*
X128747852Y-94850000D01*
X128675647Y-95076042D01*
X129540000Y-95940395D01*
X129554143Y-95926253D01*
X129733748Y-96105858D01*
X129719605Y-96120000D01*
X129733748Y-96134143D01*
X129554143Y-96313748D01*
X129540000Y-96299605D01*
X128675647Y-97163958D01*
X128745247Y-97381845D01*
X128698815Y-97401078D01*
X128281078Y-97818815D01*
X128270000Y-97845560D01*
X128258922Y-97818815D01*
X127841185Y-97401078D01*
X127794753Y-97381845D01*
X127864353Y-97163958D01*
X127000000Y-96299605D01*
X126135647Y-97163958D01*
X126205247Y-97381845D01*
X126158815Y-97401078D01*
X126034893Y-97525000D01*
X120630132Y-97525000D01*
X118996411Y-95891279D01*
X125503282Y-95891279D01*
X125529685Y-96481458D01*
X125704741Y-96904080D01*
X125956042Y-96984353D01*
X126820395Y-96120000D01*
X127179605Y-96120000D01*
X128043958Y-96984353D01*
X128270000Y-96912148D01*
X128496042Y-96984353D01*
X129360395Y-96120000D01*
X128496042Y-95255647D01*
X128270000Y-95327852D01*
X128043958Y-95255647D01*
X127179605Y-96120000D01*
X126820395Y-96120000D01*
X125956042Y-95255647D01*
X125704741Y-95335920D01*
X125503282Y-95891279D01*
X118996411Y-95891279D01*
X118016402Y-94911270D01*
X118073691Y-94935000D01*
X118714250Y-94935000D01*
X118873000Y-94776250D01*
X118873000Y-93627000D01*
X117723750Y-93627000D01*
X117565000Y-93785750D01*
X117565000Y-94426310D01*
X117588729Y-94483598D01*
X115678821Y-92573690D01*
X117565000Y-92573690D01*
X117565000Y-93214250D01*
X117723750Y-93373000D01*
X118873000Y-93373000D01*
X118873000Y-92223750D01*
X119127000Y-92223750D01*
X119127000Y-93373000D01*
X119147000Y-93373000D01*
X119147000Y-93627000D01*
X119127000Y-93627000D01*
X119127000Y-94776250D01*
X119285750Y-94935000D01*
X119926309Y-94935000D01*
X120159698Y-94838327D01*
X120338327Y-94659699D01*
X120423845Y-94453241D01*
X120687138Y-94716534D01*
X121214561Y-94935000D01*
X121785439Y-94935000D01*
X122312862Y-94716534D01*
X122405438Y-94623958D01*
X126135647Y-94623958D01*
X126207852Y-94850000D01*
X126135647Y-95076042D01*
X127000000Y-95940395D01*
X127864353Y-95076042D01*
X127792148Y-94850000D01*
X127864353Y-94623958D01*
X127000000Y-93759605D01*
X126135647Y-94623958D01*
X122405438Y-94623958D01*
X122716534Y-94312862D01*
X122935000Y-93785439D01*
X122935000Y-93351279D01*
X125503282Y-93351279D01*
X125529685Y-93941458D01*
X125704741Y-94364080D01*
X125956042Y-94444353D01*
X126820395Y-93580000D01*
X127179605Y-93580000D01*
X128043958Y-94444353D01*
X128270000Y-94372148D01*
X128496042Y-94444353D01*
X129360395Y-93580000D01*
X128496042Y-92715647D01*
X128270000Y-92787852D01*
X128043958Y-92715647D01*
X127179605Y-93580000D01*
X126820395Y-93580000D01*
X125956042Y-92715647D01*
X125704741Y-92795920D01*
X125503282Y-93351279D01*
X122935000Y-93351279D01*
X122935000Y-93214561D01*
X122716534Y-92687138D01*
X122312862Y-92283466D01*
X121831208Y-92083958D01*
X126135647Y-92083958D01*
X126207852Y-92310000D01*
X126135647Y-92536042D01*
X127000000Y-93400395D01*
X127864353Y-92536042D01*
X127792148Y-92310000D01*
X127864353Y-92083958D01*
X127000000Y-91219605D01*
X126135647Y-92083958D01*
X121831208Y-92083958D01*
X121785439Y-92065000D01*
X121214561Y-92065000D01*
X120687138Y-92283466D01*
X120423845Y-92546759D01*
X120338327Y-92340301D01*
X120159698Y-92161673D01*
X119926309Y-92065000D01*
X119285750Y-92065000D01*
X119127000Y-92223750D01*
X118873000Y-92223750D01*
X118714250Y-92065000D01*
X118073691Y-92065000D01*
X117840302Y-92161673D01*
X117661673Y-92340301D01*
X117565000Y-92573690D01*
X115678821Y-92573690D01*
X113916410Y-90811279D01*
X125503282Y-90811279D01*
X125529685Y-91401458D01*
X125704741Y-91824080D01*
X125956042Y-91904353D01*
X126820395Y-91040000D01*
X127179605Y-91040000D01*
X128043958Y-91904353D01*
X128270000Y-91832148D01*
X128496042Y-91904353D01*
X129360395Y-91040000D01*
X128496042Y-90175647D01*
X128270000Y-90247852D01*
X128043958Y-90175647D01*
X127179605Y-91040000D01*
X126820395Y-91040000D01*
X125956042Y-90175647D01*
X125704741Y-90255920D01*
X125503282Y-90811279D01*
X113916410Y-90811279D01*
X112880000Y-89774869D01*
X112880000Y-87611782D01*
X112902235Y-87500000D01*
X112880000Y-87388217D01*
X112880000Y-87007745D01*
X113456861Y-87007745D01*
X113530995Y-87253864D01*
X114068223Y-87446965D01*
X114638454Y-87419778D01*
X115039005Y-87253864D01*
X115113139Y-87007745D01*
X114285000Y-86179605D01*
X113456861Y-87007745D01*
X112880000Y-87007745D01*
X112880000Y-86389131D01*
X113031136Y-86754005D01*
X113277255Y-86828139D01*
X114105395Y-86000000D01*
X114464605Y-86000000D01*
X115292745Y-86828139D01*
X115538864Y-86754005D01*
X115731965Y-86216777D01*
X115704778Y-85646546D01*
X115538864Y-85245995D01*
X115292745Y-85171861D01*
X114464605Y-86000000D01*
X114105395Y-86000000D01*
X113277255Y-85171861D01*
X113031136Y-85245995D01*
X112880000Y-85666472D01*
X112880000Y-84992255D01*
X113456861Y-84992255D01*
X114285000Y-85820395D01*
X115113139Y-84992255D01*
X115039005Y-84746136D01*
X114501777Y-84553035D01*
X113931546Y-84580222D01*
X113530995Y-84746136D01*
X113456861Y-84992255D01*
X112880000Y-84992255D01*
X112880000Y-83514396D01*
X112961534Y-83432862D01*
X113180000Y-82905439D01*
X113180000Y-82334561D01*
X112961534Y-81807138D01*
X112880000Y-81725604D01*
X112880000Y-80580000D01*
X112943217Y-80580000D01*
X113055000Y-80602235D01*
X113166783Y-80580000D01*
X113497855Y-80514146D01*
X113873289Y-80263289D01*
X113936613Y-80168518D01*
X115381608Y-78723524D01*
X115381610Y-78723521D01*
X115470130Y-78635001D01*
X118180365Y-78635001D01*
X118013260Y-78885091D01*
X117901887Y-79445000D01*
X118013260Y-80004909D01*
X118330423Y-80479577D01*
X118805091Y-80796740D01*
X119187717Y-80872849D01*
X119283388Y-80968520D01*
X119346710Y-81063288D01*
X119538416Y-81191382D01*
X119506333Y-81185000D01*
X119223667Y-81185000D01*
X118805091Y-81268260D01*
X118330423Y-81585423D01*
X118013260Y-82060091D01*
X117901887Y-82620000D01*
X118013260Y-83179909D01*
X118330423Y-83654577D01*
X118805091Y-83971740D01*
X119223667Y-84055000D01*
X119506333Y-84055000D01*
X119924909Y-83971740D01*
X120399577Y-83654577D01*
X120716740Y-83179909D01*
X120828113Y-82620000D01*
X120725190Y-82102572D01*
X121000000Y-82157235D01*
X121111783Y-82135000D01*
X123888217Y-82135000D01*
X124000000Y-82157235D01*
X124111783Y-82135000D01*
X124442855Y-82069146D01*
X124818289Y-81818289D01*
X124881613Y-81723518D01*
X127319382Y-79285750D01*
X128565000Y-79285750D01*
X128565000Y-79926310D01*
X128661673Y-80159699D01*
X128840302Y-80338327D01*
X129073691Y-80435000D01*
X129714250Y-80435000D01*
X129873000Y-80276250D01*
X129873000Y-79127000D01*
X130127000Y-79127000D01*
X130127000Y-80276250D01*
X130285750Y-80435000D01*
X130926309Y-80435000D01*
X131159698Y-80338327D01*
X131338327Y-80159699D01*
X131435000Y-79926310D01*
X131435000Y-79285750D01*
X131276250Y-79127000D01*
X130127000Y-79127000D01*
X129873000Y-79127000D01*
X128723750Y-79127000D01*
X128565000Y-79285750D01*
X127319382Y-79285750D01*
X128588729Y-78016404D01*
X128565000Y-78073690D01*
X128565000Y-78714250D01*
X128723750Y-78873000D01*
X129873000Y-78873000D01*
X129873000Y-78853000D01*
X130127000Y-78853000D01*
X130127000Y-78873000D01*
X131276250Y-78873000D01*
X131435000Y-78714250D01*
X131435000Y-78073690D01*
X131338327Y-77840301D01*
X131159698Y-77661673D01*
X130998735Y-77595000D01*
X131019587Y-77595000D01*
X131131370Y-77617235D01*
X131243153Y-77595000D01*
X131574225Y-77529146D01*
X131949659Y-77278289D01*
X132012983Y-77183519D01*
X132723521Y-76472981D01*
X132818289Y-76409659D01*
X133069146Y-76034225D01*
X133135000Y-75703153D01*
X133135000Y-75703152D01*
X133157235Y-75591371D01*
X133135000Y-75479589D01*
X133135000Y-55111783D01*
X133157235Y-55000000D01*
X133069146Y-54557145D01*
X132881609Y-54276476D01*
X132818289Y-54181711D01*
X132723523Y-54118391D01*
X131881612Y-53276481D01*
X131818289Y-53181711D01*
X131442855Y-52930854D01*
X131111783Y-52865000D01*
X131000000Y-52842765D01*
X130888217Y-52865000D01*
X130435660Y-52865000D01*
X130803923Y-52712460D01*
X130871912Y-52471517D01*
X130080000Y-51679605D01*
X129288088Y-52471517D01*
X129356077Y-52712460D01*
X129784691Y-52865000D01*
X127863778Y-52865000D01*
X128324540Y-52674147D01*
X128714147Y-52284540D01*
X128803397Y-52069070D01*
X128867540Y-52223923D01*
X129108483Y-52291912D01*
X129900395Y-51500000D01*
X130259605Y-51500000D01*
X131051517Y-52291912D01*
X131292460Y-52223923D01*
X131477201Y-51704829D01*
X131449230Y-51154552D01*
X131292460Y-50776077D01*
X131051517Y-50708088D01*
X130259605Y-51500000D01*
X129900395Y-51500000D01*
X129108483Y-50708088D01*
X128867540Y-50776077D01*
X128808255Y-50942658D01*
X128714147Y-50715460D01*
X128527170Y-50528483D01*
X129288088Y-50528483D01*
X130080000Y-51320395D01*
X130871912Y-50528483D01*
X130803923Y-50287540D01*
X130284829Y-50102799D01*
X129734552Y-50130770D01*
X129356077Y-50287540D01*
X129288088Y-50528483D01*
X128527170Y-50528483D01*
X128324540Y-50325853D01*
X127815494Y-50115000D01*
X127264506Y-50115000D01*
X126755460Y-50325853D01*
X126386469Y-50694844D01*
X126348157Y-50502235D01*
X126207809Y-50292191D01*
X125997765Y-50151843D01*
X125750000Y-50102560D01*
X124250000Y-50102560D01*
X124002235Y-50151843D01*
X123792191Y-50292191D01*
X123651843Y-50502235D01*
X123602560Y-50750000D01*
X123602560Y-52250000D01*
X123651843Y-52497765D01*
X123791559Y-52706863D01*
X120383422Y-56115000D01*
X117644396Y-56115000D01*
X117312862Y-55783466D01*
X116785439Y-55565000D01*
X116214561Y-55565000D01*
X115687138Y-55783466D01*
X115283466Y-56187138D01*
X115065000Y-56714561D01*
X115065000Y-57285439D01*
X115283466Y-57812862D01*
X115687138Y-58216534D01*
X116214561Y-58435000D01*
X116785439Y-58435000D01*
X117312862Y-58216534D01*
X117644396Y-57885000D01*
X120662839Y-57885000D01*
X120750000Y-57902337D01*
X120837161Y-57885000D01*
X120837165Y-57885000D01*
X121095310Y-57833652D01*
X121388049Y-57638049D01*
X121437425Y-57564153D01*
X123865000Y-55136579D01*
X123865000Y-55243541D01*
X123792191Y-55292191D01*
X123651843Y-55502235D01*
X123602560Y-55750000D01*
X123602560Y-57250000D01*
X123651843Y-57497765D01*
X123792191Y-57707809D01*
X124002235Y-57848157D01*
X124250000Y-57897440D01*
X125750000Y-57897440D01*
X125997765Y-57848157D01*
X126145276Y-57749593D01*
X125829868Y-58065001D01*
X119911780Y-58065001D01*
X119799998Y-58042766D01*
X119688216Y-58065001D01*
X119357144Y-58130855D01*
X118981710Y-58381712D01*
X118918388Y-58476480D01*
X118829868Y-58565000D01*
X118714561Y-58565000D01*
X118187138Y-58783466D01*
X117783466Y-59187138D01*
X117565000Y-59714561D01*
X117565000Y-60285439D01*
X117783466Y-60812862D01*
X118187138Y-61216534D01*
X118714561Y-61435000D01*
X118767399Y-61435000D01*
X118349866Y-61632611D01*
X117973959Y-62047577D01*
X117813096Y-62435961D01*
X117935085Y-62658000D01*
X119078000Y-62658000D01*
X119078000Y-62638000D01*
X119332000Y-62638000D01*
X119332000Y-62658000D01*
X120474915Y-62658000D01*
X120596904Y-62435961D01*
X120436041Y-62047577D01*
X120060134Y-61632611D01*
X119554041Y-61393086D01*
X119332002Y-61514370D01*
X119332002Y-61415713D01*
X119812862Y-61216534D01*
X120216534Y-60812862D01*
X120414471Y-60335001D01*
X123763586Y-60335001D01*
X123651843Y-60502235D01*
X123602560Y-60750000D01*
X123602560Y-62250000D01*
X123651843Y-62497765D01*
X123792191Y-62707809D01*
X123865000Y-62756459D01*
X123865000Y-62779868D01*
X123279869Y-63365000D01*
X120501243Y-63365000D01*
X120596904Y-63134039D01*
X120474915Y-62912000D01*
X119332000Y-62912000D01*
X119332000Y-62932000D01*
X119078000Y-62932000D01*
X119078000Y-62912000D01*
X117935085Y-62912000D01*
X117813096Y-63134039D01*
X117908757Y-63365000D01*
X115101782Y-63365000D01*
X114989999Y-63342765D01*
X114547145Y-63430854D01*
X114171711Y-63681711D01*
X114108389Y-63776479D01*
X111407718Y-66477151D01*
X111025091Y-66553260D01*
X110550423Y-66870423D01*
X110233260Y-67345091D01*
X110121887Y-67905000D01*
X110233260Y-68464909D01*
X110450001Y-68789284D01*
X110450000Y-70195716D01*
X110233260Y-70520091D01*
X110121887Y-71080000D01*
X110233260Y-71639909D01*
X110550423Y-72114577D01*
X111025091Y-72431740D01*
X111443667Y-72515000D01*
X111726333Y-72515000D01*
X112144909Y-72431740D01*
X112619577Y-72114577D01*
X112936740Y-71639909D01*
X113048113Y-71080000D01*
X112936740Y-70520091D01*
X112720000Y-70195717D01*
X112720000Y-68789283D01*
X112936740Y-68464909D01*
X113012849Y-68082282D01*
X115460132Y-65635000D01*
X120016290Y-65635000D01*
X119737570Y-65913720D01*
X119580001Y-66294126D01*
X119580001Y-66507098D01*
X119490439Y-66470000D01*
X118919561Y-66470000D01*
X118392138Y-66688466D01*
X117988466Y-67092138D01*
X117770000Y-67619561D01*
X117770000Y-68190439D01*
X117988466Y-68717862D01*
X118392138Y-69121534D01*
X118919561Y-69340000D01*
X119490439Y-69340000D01*
X120017862Y-69121534D01*
X120421534Y-68717862D01*
X120640000Y-68190439D01*
X120640000Y-67619561D01*
X120604974Y-67535000D01*
X120820875Y-67535000D01*
X121201281Y-67377431D01*
X121207022Y-67371690D01*
X121065000Y-67714561D01*
X121065000Y-68285439D01*
X121245001Y-68719999D01*
X121245000Y-70495716D01*
X121028260Y-70820091D01*
X120916887Y-71380000D01*
X121028260Y-71939909D01*
X121345423Y-72414577D01*
X121697758Y-72650000D01*
X121495717Y-72785000D01*
X119884555Y-72785000D01*
X119679909Y-72648260D01*
X119261333Y-72565000D01*
X118978667Y-72565000D01*
X118560091Y-72648260D01*
X118085423Y-72965423D01*
X117768260Y-73440091D01*
X117656887Y-74000000D01*
X117768260Y-74559909D01*
X118085423Y-75034577D01*
X118407826Y-75250000D01*
X118085423Y-75465423D01*
X117768260Y-75940091D01*
X117656887Y-76500000D01*
X117729490Y-76865001D01*
X117084632Y-76865001D01*
X117135000Y-76611783D01*
X117157235Y-76500001D01*
X117135000Y-76388217D01*
X117135000Y-73470131D01*
X118350368Y-72254764D01*
X118392138Y-72296534D01*
X118919561Y-72515000D01*
X119490439Y-72515000D01*
X120017862Y-72296534D01*
X120421534Y-71892862D01*
X120640000Y-71365439D01*
X120640000Y-70794561D01*
X120421534Y-70267138D01*
X120017862Y-69863466D01*
X119490439Y-69645000D01*
X118919561Y-69645000D01*
X118392138Y-69863466D01*
X118310604Y-69945000D01*
X118031782Y-69945000D01*
X117919999Y-69922765D01*
X117477145Y-70010854D01*
X117101711Y-70261711D01*
X117038389Y-70356479D01*
X115276482Y-72118387D01*
X115181711Y-72181711D01*
X114959015Y-72515000D01*
X114930854Y-72557146D01*
X114842765Y-73000000D01*
X114865000Y-73111783D01*
X114865001Y-76029867D01*
X113776479Y-77118390D01*
X113776476Y-77118392D01*
X112612132Y-78282736D01*
X112557862Y-78228466D01*
X112030439Y-78010000D01*
X111459561Y-78010000D01*
X110932138Y-78228466D01*
X110528466Y-78632138D01*
X110310000Y-79159561D01*
X110310000Y-79730439D01*
X110528466Y-80257862D01*
X110610001Y-80339397D01*
X110610000Y-81725604D01*
X110528466Y-81807138D01*
X110310000Y-82334561D01*
X110310000Y-82905439D01*
X110528466Y-83432862D01*
X110610001Y-83514397D01*
X110610000Y-86365000D01*
X110339868Y-86365000D01*
X110257809Y-86242191D01*
X110047765Y-86101843D01*
X109800000Y-86052560D01*
X108200000Y-86052560D01*
X107952235Y-86101843D01*
X107742191Y-86242191D01*
X107601843Y-86452235D01*
X107555307Y-86686187D01*
X107507745Y-86671861D01*
X106679605Y-87500000D01*
X107507745Y-88328139D01*
X107555307Y-88313813D01*
X107601843Y-88547765D01*
X107742191Y-88757809D01*
X107952235Y-88898157D01*
X108200000Y-88947440D01*
X109800000Y-88947440D01*
X110047765Y-88898157D01*
X110257809Y-88757809D01*
X110339868Y-88635000D01*
X110610000Y-88635000D01*
X110610001Y-90133212D01*
X110587765Y-90245000D01*
X110675854Y-90687854D01*
X110675855Y-90687855D01*
X110926712Y-91063289D01*
X111021480Y-91126611D01*
X119278389Y-99383521D01*
X119341711Y-99478289D01*
X119717145Y-99729146D01*
X120159999Y-99817235D01*
X120271782Y-99795000D01*
X126034893Y-99795000D01*
X126158815Y-99918922D01*
X126704615Y-100145000D01*
X127295385Y-100145000D01*
X127841185Y-99918922D01*
X128258922Y-99501185D01*
X128270000Y-99474440D01*
X128281078Y-99501185D01*
X128698815Y-99918922D01*
X129244615Y-100145000D01*
X129835385Y-100145000D01*
X129955001Y-100095453D01*
X129955001Y-101793420D01*
X128633422Y-103115000D01*
X125357157Y-103115000D01*
X125269997Y-103097663D01*
X125182837Y-103115000D01*
X125182833Y-103115000D01*
X124924688Y-103166348D01*
X124924686Y-103166349D01*
X124924687Y-103166349D01*
X124705843Y-103312576D01*
X124705842Y-103312577D01*
X124631949Y-103361951D01*
X124582575Y-103435844D01*
X116435845Y-111582575D01*
X116361952Y-111631949D01*
X116312578Y-111705842D01*
X116312576Y-111705844D01*
X116166348Y-111924689D01*
X116097663Y-112269998D01*
X116115001Y-112357163D01*
X116115000Y-114412839D01*
X116097663Y-114500000D01*
X116115000Y-114587161D01*
X116115000Y-114587164D01*
X116166348Y-114845309D01*
X116361951Y-115138049D01*
X116435847Y-115187425D01*
X122615001Y-121366580D01*
X122615000Y-132353421D01*
X122255423Y-132712998D01*
X122109916Y-132712998D01*
X122231904Y-132490961D01*
X122071041Y-132102577D01*
X121695134Y-131687611D01*
X121490892Y-131590947D01*
X121874577Y-131334577D01*
X122191740Y-130859909D01*
X122303113Y-130300000D01*
X122191740Y-129740091D01*
X121874577Y-129265423D01*
X121522242Y-129030000D01*
X121874577Y-128794577D01*
X122191740Y-128319909D01*
X122303113Y-127760000D01*
X122191740Y-127200091D01*
X121975000Y-126875717D01*
X121975000Y-123451783D01*
X121997235Y-123340000D01*
X121909146Y-122897145D01*
X121658289Y-122521711D01*
X121563522Y-122458390D01*
X112881613Y-113776482D01*
X112818289Y-113681711D01*
X112442855Y-113430854D01*
X112111783Y-113365000D01*
X112005481Y-113343855D01*
X112312862Y-113216534D01*
X112716534Y-112812862D01*
X112935000Y-112285439D01*
X112935000Y-111714561D01*
X112716534Y-111187138D01*
X112312862Y-110783466D01*
X111785439Y-110565000D01*
X111214561Y-110565000D01*
X110687138Y-110783466D01*
X110605604Y-110865000D01*
X107575817Y-110865000D01*
X107369507Y-110658690D01*
X106805330Y-110425000D01*
X106194670Y-110425000D01*
X105630493Y-110658690D01*
X105214183Y-111075000D01*
X105127159Y-111075000D01*
X105039999Y-111057663D01*
X104952839Y-111075000D01*
X104952835Y-111075000D01*
X104694690Y-111126348D01*
X104401951Y-111321951D01*
X104352575Y-111395847D01*
X103935845Y-111812577D01*
X103861952Y-111861951D01*
X103812578Y-111935844D01*
X103812576Y-111935846D01*
X103735000Y-112051946D01*
X103735000Y-106334971D01*
X103901074Y-106445938D01*
X104500000Y-106565072D01*
X105098927Y-106445938D01*
X105606673Y-106106673D01*
X105945938Y-105598927D01*
X106035000Y-105151182D01*
X106035000Y-104268153D01*
X106301074Y-104445938D01*
X106900000Y-104565072D01*
X107498927Y-104445938D01*
X108006673Y-104106673D01*
X108345938Y-103598927D01*
X108435000Y-103151182D01*
X108435000Y-102627000D01*
X110865000Y-102627000D01*
X110865000Y-103127000D01*
X111030446Y-103704752D01*
X111404394Y-104175212D01*
X111929914Y-104466756D01*
X112035260Y-104491036D01*
X112273000Y-104370378D01*
X112273000Y-102627000D01*
X112527000Y-102627000D01*
X112527000Y-104370378D01*
X112764740Y-104491036D01*
X112870086Y-104466756D01*
X113395606Y-104175212D01*
X113769554Y-103704752D01*
X113935000Y-103127000D01*
X113935000Y-102627000D01*
X112527000Y-102627000D01*
X112273000Y-102627000D01*
X110865000Y-102627000D01*
X108435000Y-102627000D01*
X108435000Y-101873000D01*
X110865000Y-101873000D01*
X110865000Y-102373000D01*
X112273000Y-102373000D01*
X112273000Y-100629622D01*
X112527000Y-100629622D01*
X112527000Y-102373000D01*
X113935000Y-102373000D01*
X113935000Y-101873000D01*
X113769554Y-101295248D01*
X113395606Y-100824788D01*
X112870086Y-100533244D01*
X112764740Y-100508964D01*
X112527000Y-100629622D01*
X112273000Y-100629622D01*
X112035260Y-100508964D01*
X111929914Y-100533244D01*
X111404394Y-100824788D01*
X111030446Y-101295248D01*
X110865000Y-101873000D01*
X108435000Y-101873000D01*
X108435000Y-101848818D01*
X108345938Y-101401073D01*
X108035000Y-100935721D01*
X108035000Y-99400696D01*
X108047765Y-99398157D01*
X108257809Y-99257809D01*
X108398157Y-99047765D01*
X108447440Y-98800000D01*
X108447440Y-98349039D01*
X113228096Y-98349039D01*
X113388959Y-98737423D01*
X113764866Y-99152389D01*
X114270959Y-99391914D01*
X114493000Y-99270629D01*
X114493000Y-98127000D01*
X114747000Y-98127000D01*
X114747000Y-99270629D01*
X114969041Y-99391914D01*
X115475134Y-99152389D01*
X115851041Y-98737423D01*
X116011904Y-98349039D01*
X115889915Y-98127000D01*
X114747000Y-98127000D01*
X114493000Y-98127000D01*
X113350085Y-98127000D01*
X113228096Y-98349039D01*
X108447440Y-98349039D01*
X108447440Y-97650961D01*
X113228096Y-97650961D01*
X113350085Y-97873000D01*
X114493000Y-97873000D01*
X114493000Y-96729371D01*
X114747000Y-96729371D01*
X114747000Y-97873000D01*
X115889915Y-97873000D01*
X116011904Y-97650961D01*
X115851041Y-97262577D01*
X115475134Y-96847611D01*
X114969041Y-96608086D01*
X114747000Y-96729371D01*
X114493000Y-96729371D01*
X114270959Y-96608086D01*
X113764866Y-96847611D01*
X113388959Y-97262577D01*
X113228096Y-97650961D01*
X108447440Y-97650961D01*
X108447440Y-97200000D01*
X108398157Y-96952235D01*
X108257809Y-96742191D01*
X108047765Y-96601843D01*
X107800000Y-96552560D01*
X106200000Y-96552560D01*
X105952235Y-96601843D01*
X105742191Y-96742191D01*
X105601843Y-96952235D01*
X105552560Y-97200000D01*
X105552560Y-98800000D01*
X105601843Y-99047765D01*
X105742191Y-99257809D01*
X105765001Y-99273050D01*
X105765000Y-100935721D01*
X105454062Y-101401074D01*
X105365000Y-101848819D01*
X105365000Y-102731847D01*
X105098926Y-102554062D01*
X104500000Y-102434928D01*
X103901073Y-102554062D01*
X103735000Y-102665028D01*
X103735000Y-88507745D01*
X105671861Y-88507745D01*
X105745995Y-88753864D01*
X106283223Y-88946965D01*
X106853454Y-88919778D01*
X107254005Y-88753864D01*
X107328139Y-88507745D01*
X106500000Y-87679605D01*
X105671861Y-88507745D01*
X103735000Y-88507745D01*
X103735000Y-87283223D01*
X105053035Y-87283223D01*
X105080222Y-87853454D01*
X105246136Y-88254005D01*
X105492255Y-88328139D01*
X106320395Y-87500000D01*
X105492255Y-86671861D01*
X105246136Y-86745995D01*
X105053035Y-87283223D01*
X103735000Y-87283223D01*
X103735000Y-86492255D01*
X105671861Y-86492255D01*
X106500000Y-87320395D01*
X107328139Y-86492255D01*
X107254005Y-86246136D01*
X106716777Y-86053035D01*
X106146546Y-86080222D01*
X105745995Y-86246136D01*
X105671861Y-86492255D01*
X103735000Y-86492255D01*
X103735000Y-73694670D01*
X106465000Y-73694670D01*
X106465000Y-74305330D01*
X106698690Y-74869507D01*
X107079183Y-75250000D01*
X106698690Y-75630493D01*
X106465000Y-76194670D01*
X106465000Y-76805330D01*
X106698690Y-77369507D01*
X106865001Y-77535818D01*
X106865000Y-77964183D01*
X106698690Y-78130493D01*
X106465000Y-78694670D01*
X106465000Y-79305330D01*
X106698690Y-79869507D01*
X107130493Y-80301310D01*
X107694670Y-80535000D01*
X108305330Y-80535000D01*
X108869507Y-80301310D01*
X109301310Y-79869507D01*
X109535000Y-79305330D01*
X109535000Y-78694670D01*
X109301310Y-78130493D01*
X109135000Y-77964183D01*
X109135000Y-77635000D01*
X110605604Y-77635000D01*
X110687138Y-77716534D01*
X111214561Y-77935000D01*
X111785439Y-77935000D01*
X112312862Y-77716534D01*
X112716534Y-77312862D01*
X112935000Y-76785439D01*
X112935000Y-76214561D01*
X112716534Y-75687138D01*
X112447497Y-75418101D01*
X112547765Y-75398157D01*
X112757809Y-75257809D01*
X112898157Y-75047765D01*
X112947440Y-74800000D01*
X112947440Y-73200000D01*
X112898157Y-72952235D01*
X112757809Y-72742191D01*
X112547765Y-72601843D01*
X112300000Y-72552560D01*
X110700000Y-72552560D01*
X110452235Y-72601843D01*
X110242191Y-72742191D01*
X110160132Y-72865000D01*
X109035817Y-72865000D01*
X108869507Y-72698690D01*
X108305330Y-72465000D01*
X107694670Y-72465000D01*
X107130493Y-72698690D01*
X106698690Y-73130493D01*
X106465000Y-73694670D01*
X103735000Y-73694670D01*
X103735000Y-60000000D01*
X109916887Y-60000000D01*
X110028260Y-60559909D01*
X110345423Y-61034577D01*
X110450001Y-61104454D01*
X110450001Y-61445132D01*
X110327191Y-61527191D01*
X110186843Y-61737235D01*
X110137560Y-61985000D01*
X110137560Y-63585000D01*
X110186843Y-63832765D01*
X110327191Y-64042809D01*
X110537235Y-64183157D01*
X110785000Y-64232440D01*
X112385000Y-64232440D01*
X112632765Y-64183157D01*
X112842809Y-64042809D01*
X112983157Y-63832765D01*
X113032440Y-63585000D01*
X113032440Y-61985000D01*
X112983157Y-61737235D01*
X112842809Y-61527191D01*
X112720000Y-61445132D01*
X112720000Y-60577479D01*
X112731740Y-60559909D01*
X112843113Y-60000000D01*
X112731740Y-59440091D01*
X112635000Y-59295309D01*
X112635000Y-57894396D01*
X112716534Y-57812862D01*
X112935000Y-57285439D01*
X112935000Y-56714561D01*
X112716534Y-56187138D01*
X112312862Y-55783466D01*
X111785439Y-55565000D01*
X111214561Y-55565000D01*
X110687138Y-55783466D01*
X110283466Y-56187138D01*
X110065000Y-56714561D01*
X110065000Y-57285439D01*
X110283466Y-57812862D01*
X110365000Y-57894396D01*
X110365001Y-58952342D01*
X110345423Y-58965423D01*
X110028260Y-59440091D01*
X109916887Y-60000000D01*
X103735000Y-60000000D01*
X103735000Y-51129670D01*
X106240000Y-51129670D01*
X106240000Y-51740330D01*
X106473690Y-52304507D01*
X106854183Y-52685000D01*
X106473690Y-53065493D01*
X106240000Y-53629670D01*
X106240000Y-54240330D01*
X106473690Y-54804507D01*
X106640001Y-54970818D01*
X106640000Y-55399183D01*
X106473690Y-55565493D01*
X106240000Y-56129670D01*
X106240000Y-56740330D01*
X106473690Y-57304507D01*
X106905493Y-57736310D01*
X107469670Y-57970000D01*
X108080330Y-57970000D01*
X108644507Y-57736310D01*
X109076310Y-57304507D01*
X109310000Y-56740330D01*
X109310000Y-56129670D01*
X109076310Y-55565493D01*
X108910000Y-55399183D01*
X108910000Y-55135000D01*
X110690604Y-55135000D01*
X110772138Y-55216534D01*
X111299561Y-55435000D01*
X111870439Y-55435000D01*
X112397862Y-55216534D01*
X112801534Y-54812862D01*
X113020000Y-54285439D01*
X113020000Y-54000000D01*
X117741887Y-54000000D01*
X117853260Y-54559909D01*
X118170423Y-55034577D01*
X118645091Y-55351740D01*
X119063667Y-55435000D01*
X119346333Y-55435000D01*
X119764909Y-55351740D01*
X120239577Y-55034577D01*
X120556740Y-54559909D01*
X120668113Y-54000000D01*
X120556740Y-53440091D01*
X120239577Y-52965423D01*
X119764909Y-52648260D01*
X119346333Y-52565000D01*
X119063667Y-52565000D01*
X118645091Y-52648260D01*
X118170423Y-52965423D01*
X117853260Y-53440091D01*
X117741887Y-54000000D01*
X113020000Y-54000000D01*
X113020000Y-53714561D01*
X112801534Y-53187138D01*
X112397862Y-52783466D01*
X111870439Y-52565000D01*
X111299561Y-52565000D01*
X110772138Y-52783466D01*
X110690604Y-52865000D01*
X108875817Y-52865000D01*
X108695817Y-52685000D01*
X108810817Y-52570000D01*
X110833217Y-52570000D01*
X110945000Y-52592235D01*
X111056783Y-52570000D01*
X111387855Y-52504146D01*
X111491339Y-52435000D01*
X111521333Y-52435000D01*
X111939909Y-52351740D01*
X112414577Y-52034577D01*
X112731740Y-51559909D01*
X112843113Y-51000000D01*
X112731740Y-50440091D01*
X112571317Y-50200000D01*
X117552560Y-50200000D01*
X117552560Y-51800000D01*
X117601843Y-52047765D01*
X117742191Y-52257809D01*
X117952235Y-52398157D01*
X118200000Y-52447440D01*
X119800000Y-52447440D01*
X120047765Y-52398157D01*
X120257809Y-52257809D01*
X120398157Y-52047765D01*
X120447440Y-51800000D01*
X120447440Y-50200000D01*
X120398157Y-49952235D01*
X120257809Y-49742191D01*
X120047765Y-49601843D01*
X119800000Y-49552560D01*
X118200000Y-49552560D01*
X117952235Y-49601843D01*
X117742191Y-49742191D01*
X117601843Y-49952235D01*
X117552560Y-50200000D01*
X112571317Y-50200000D01*
X112414577Y-49965423D01*
X111939909Y-49648260D01*
X111521333Y-49565000D01*
X111238667Y-49565000D01*
X110820091Y-49648260D01*
X110345423Y-49965423D01*
X110121866Y-50300000D01*
X108810817Y-50300000D01*
X108644507Y-50133690D01*
X108080330Y-49900000D01*
X107469670Y-49900000D01*
X106905493Y-50133690D01*
X106473690Y-50565493D01*
X106240000Y-51129670D01*
X103735000Y-51129670D01*
X103735000Y-47235000D01*
X133265001Y-47235000D01*
X133265001Y-87146105D01*
G36*
X128865000Y-113218740D02*
X128851286Y-113232454D01*
X128730000Y-113525265D01*
X128608714Y-113232454D01*
X128227546Y-112851286D01*
X127729526Y-112645000D01*
X127190474Y-112645000D01*
X126692454Y-112851286D01*
X126311286Y-113232454D01*
X126190000Y-113525265D01*
X126068714Y-113232454D01*
X125687546Y-112851286D01*
X125189526Y-112645000D01*
X124650474Y-112645000D01*
X124152454Y-112851286D01*
X123771286Y-113232454D01*
X123565000Y-113730474D01*
X123565000Y-114269526D01*
X123771286Y-114767546D01*
X124152454Y-115148714D01*
X124650474Y-115355000D01*
X125189526Y-115355000D01*
X125687546Y-115148714D01*
X126068714Y-114767546D01*
X126190000Y-114474735D01*
X126311286Y-114767546D01*
X126692454Y-115148714D01*
X127190474Y-115355000D01*
X127729526Y-115355000D01*
X128227546Y-115148714D01*
X128608714Y-114767546D01*
X128730000Y-114474735D01*
X128851286Y-114767546D01*
X129232454Y-115148714D01*
X129730474Y-115355000D01*
X130103422Y-115355000D01*
X132065011Y-117316590D01*
X132065011Y-124313433D01*
X128345000Y-120593422D01*
X128345000Y-120531260D01*
X128608714Y-120267546D01*
X128730000Y-119974735D01*
X128851286Y-120267546D01*
X129232454Y-120648714D01*
X129730474Y-120855000D01*
X130269526Y-120855000D01*
X130767546Y-120648714D01*
X131148714Y-120267546D01*
X131355000Y-119769526D01*
X131355000Y-119230474D01*
X131148714Y-118732454D01*
X130767546Y-118351286D01*
X130269526Y-118145000D01*
X129730474Y-118145000D01*
X129232454Y-118351286D01*
X128851286Y-118732454D01*
X128730000Y-119025265D01*
X128608714Y-118732454D01*
X128227546Y-118351286D01*
X127729526Y-118145000D01*
X127190474Y-118145000D01*
X126692454Y-118351286D01*
X126311286Y-118732454D01*
X126196675Y-119009151D01*
X126107611Y-118794131D01*
X125869774Y-118729831D01*
X125099605Y-119500000D01*
X125869774Y-120270169D01*
X126107611Y-120205869D01*
X126189649Y-119973886D01*
X126311286Y-120267546D01*
X126575000Y-120531260D01*
X126575000Y-120872839D01*
X126557663Y-120960000D01*
X126575000Y-121047161D01*
X126575000Y-121047164D01*
X126626348Y-121305309D01*
X126821951Y-121598049D01*
X126895847Y-121647425D01*
X131365002Y-126116581D01*
X131365002Y-126369491D01*
X131141333Y-126325000D01*
X130858667Y-126325000D01*
X130440091Y-126408260D01*
X129965423Y-126725423D01*
X129865479Y-126875000D01*
X128827159Y-126875000D01*
X128739999Y-126857663D01*
X128652839Y-126875000D01*
X128652835Y-126875000D01*
X128394690Y-126926348D01*
X128286880Y-126998385D01*
X128175845Y-127072576D01*
X128175844Y-127072577D01*
X128101951Y-127121951D01*
X128052577Y-127195844D01*
X125435845Y-129812577D01*
X125361952Y-129861951D01*
X125312578Y-129935844D01*
X125312576Y-129935846D01*
X125166348Y-130154691D01*
X125097663Y-130500000D01*
X125115001Y-130587164D01*
X125115000Y-131703423D01*
X124385000Y-132433423D01*
X124385000Y-121087159D01*
X124402337Y-120999999D01*
X124385000Y-120912839D01*
X124385000Y-120912835D01*
X124349739Y-120735567D01*
X124722342Y-120867333D01*
X125260644Y-120838892D01*
X125625869Y-120687611D01*
X125690169Y-120449774D01*
X124920000Y-119679605D01*
X124905858Y-119693748D01*
X124726253Y-119514143D01*
X124740395Y-119500000D01*
X123970226Y-118729831D01*
X123732389Y-118794131D01*
X123552667Y-119302342D01*
X123580488Y-119828909D01*
X122301805Y-118550226D01*
X124149831Y-118550226D01*
X124920000Y-119320395D01*
X125690169Y-118550226D01*
X125625869Y-118312389D01*
X125117658Y-118132667D01*
X124579356Y-118161108D01*
X124214131Y-118312389D01*
X124149831Y-118550226D01*
X122301805Y-118550226D01*
X117885000Y-114133422D01*
X117885000Y-112734623D01*
X118085423Y-113034577D01*
X118560091Y-113351740D01*
X118978667Y-113435000D01*
X119261333Y-113435000D01*
X119679909Y-113351740D01*
X120154577Y-113034577D01*
X120471740Y-112559909D01*
X120547849Y-112177282D01*
X121090132Y-111635000D01*
X128865001Y-111635000D01*
X128865000Y-113218740D01*
X128865000Y-113218740D01*
G37*
X128865000Y-113218740D02*
X128851286Y-113232454D01*
X128730000Y-113525265D01*
X128608714Y-113232454D01*
X128227546Y-112851286D01*
X127729526Y-112645000D01*
X127190474Y-112645000D01*
X126692454Y-112851286D01*
X126311286Y-113232454D01*
X126190000Y-113525265D01*
X126068714Y-113232454D01*
X125687546Y-112851286D01*
X125189526Y-112645000D01*
X124650474Y-112645000D01*
X124152454Y-112851286D01*
X123771286Y-113232454D01*
X123565000Y-113730474D01*
X123565000Y-114269526D01*
X123771286Y-114767546D01*
X124152454Y-115148714D01*
X124650474Y-115355000D01*
X125189526Y-115355000D01*
X125687546Y-115148714D01*
X126068714Y-114767546D01*
X126190000Y-114474735D01*
X126311286Y-114767546D01*
X126692454Y-115148714D01*
X127190474Y-115355000D01*
X127729526Y-115355000D01*
X128227546Y-115148714D01*
X128608714Y-114767546D01*
X128730000Y-114474735D01*
X128851286Y-114767546D01*
X129232454Y-115148714D01*
X129730474Y-115355000D01*
X130103422Y-115355000D01*
X132065011Y-117316590D01*
X132065011Y-124313433D01*
X128345000Y-120593422D01*
X128345000Y-120531260D01*
X128608714Y-120267546D01*
X128730000Y-119974735D01*
X128851286Y-120267546D01*
X129232454Y-120648714D01*
X129730474Y-120855000D01*
X130269526Y-120855000D01*
X130767546Y-120648714D01*
X131148714Y-120267546D01*
X131355000Y-119769526D01*
X131355000Y-119230474D01*
X131148714Y-118732454D01*
X130767546Y-118351286D01*
X130269526Y-118145000D01*
X129730474Y-118145000D01*
X129232454Y-118351286D01*
X128851286Y-118732454D01*
X128730000Y-119025265D01*
X128608714Y-118732454D01*
X128227546Y-118351286D01*
X127729526Y-118145000D01*
X127190474Y-118145000D01*
X126692454Y-118351286D01*
X126311286Y-118732454D01*
X126196675Y-119009151D01*
X126107611Y-118794131D01*
X125869774Y-118729831D01*
X125099605Y-119500000D01*
X125869774Y-120270169D01*
X126107611Y-120205869D01*
X126189649Y-119973886D01*
X126311286Y-120267546D01*
X126575000Y-120531260D01*
X126575000Y-120872839D01*
X126557663Y-120960000D01*
X126575000Y-121047161D01*
X126575000Y-121047164D01*
X126626348Y-121305309D01*
X126821951Y-121598049D01*
X126895847Y-121647425D01*
X131365002Y-126116581D01*
X131365002Y-126369491D01*
X131141333Y-126325000D01*
X130858667Y-126325000D01*
X130440091Y-126408260D01*
X129965423Y-126725423D01*
X129865479Y-126875000D01*
X128827159Y-126875000D01*
X128739999Y-126857663D01*
X128652839Y-126875000D01*
X128652835Y-126875000D01*
X128394690Y-126926348D01*
X128286880Y-126998385D01*
X128175845Y-127072576D01*
X128175844Y-127072577D01*
X128101951Y-127121951D01*
X128052577Y-127195844D01*
X125435845Y-129812577D01*
X125361952Y-129861951D01*
X125312578Y-129935844D01*
X125312576Y-129935846D01*
X125166348Y-130154691D01*
X125097663Y-130500000D01*
X125115001Y-130587164D01*
X125115000Y-131703423D01*
X124385000Y-132433423D01*
X124385000Y-121087159D01*
X124402337Y-120999999D01*
X124385000Y-120912839D01*
X124385000Y-120912835D01*
X124349739Y-120735567D01*
X124722342Y-120867333D01*
X125260644Y-120838892D01*
X125625869Y-120687611D01*
X125690169Y-120449774D01*
X124920000Y-119679605D01*
X124905858Y-119693748D01*
X124726253Y-119514143D01*
X124740395Y-119500000D01*
X123970226Y-118729831D01*
X123732389Y-118794131D01*
X123552667Y-119302342D01*
X123580488Y-119828909D01*
X122301805Y-118550226D01*
X124149831Y-118550226D01*
X124920000Y-119320395D01*
X125690169Y-118550226D01*
X125625869Y-118312389D01*
X125117658Y-118132667D01*
X124579356Y-118161108D01*
X124214131Y-118312389D01*
X124149831Y-118550226D01*
X122301805Y-118550226D01*
X117885000Y-114133422D01*
X117885000Y-112734623D01*
X118085423Y-113034577D01*
X118560091Y-113351740D01*
X118978667Y-113435000D01*
X119261333Y-113435000D01*
X119679909Y-113351740D01*
X120154577Y-113034577D01*
X120471740Y-112559909D01*
X120547849Y-112177282D01*
X121090132Y-111635000D01*
X128865001Y-111635000D01*
X128865000Y-113218740D01*
G36*
X126671861Y-66992255D02*
X127500000Y-67820395D01*
X128328139Y-66992255D01*
X128295833Y-66885000D01*
X128633422Y-66885000D01*
X129115001Y-67366580D01*
X129115000Y-70245479D01*
X128965423Y-70345423D01*
X128648260Y-70820091D01*
X128536887Y-71380000D01*
X128648260Y-71939909D01*
X128965423Y-72414577D01*
X129317758Y-72650000D01*
X128965423Y-72885423D01*
X128648260Y-73360091D01*
X128536887Y-73920000D01*
X128648260Y-74479909D01*
X128965423Y-74954577D01*
X129317758Y-75190000D01*
X129115717Y-75325000D01*
X128651783Y-75325000D01*
X128540000Y-75302765D01*
X128428217Y-75325000D01*
X128097145Y-75390854D01*
X127721711Y-75641711D01*
X127658391Y-75736476D01*
X123529869Y-79865000D01*
X123527885Y-79865000D01*
X123731740Y-79559909D01*
X123843113Y-79000000D01*
X123731740Y-78440091D01*
X123414577Y-77965423D01*
X123062242Y-77730000D01*
X123414577Y-77494577D01*
X123731740Y-77019909D01*
X123843113Y-76460000D01*
X123731740Y-75900091D01*
X123414577Y-75425423D01*
X123062242Y-75190000D01*
X123414577Y-74954577D01*
X123731740Y-74479909D01*
X123843113Y-73920000D01*
X123731740Y-73360091D01*
X123414577Y-72885423D01*
X123062242Y-72650000D01*
X123414577Y-72414577D01*
X123731740Y-71939909D01*
X123843113Y-71380000D01*
X123731740Y-70820091D01*
X123515000Y-70495717D01*
X123515000Y-69014396D01*
X123521651Y-69007745D01*
X126671861Y-69007745D01*
X126745995Y-69253864D01*
X127283223Y-69446965D01*
X127853454Y-69419778D01*
X128254005Y-69253864D01*
X128328139Y-69007745D01*
X127500000Y-68179605D01*
X126671861Y-69007745D01*
X123521651Y-69007745D01*
X123716534Y-68812862D01*
X123935000Y-68285439D01*
X123935000Y-67783223D01*
X126053035Y-67783223D01*
X126080222Y-68353454D01*
X126246136Y-68754005D01*
X126492255Y-68828139D01*
X127320395Y-68000000D01*
X127679605Y-68000000D01*
X128507745Y-68828139D01*
X128753864Y-68754005D01*
X128946965Y-68216777D01*
X128919778Y-67646546D01*
X128753864Y-67245995D01*
X128507745Y-67171861D01*
X127679605Y-68000000D01*
X127320395Y-68000000D01*
X126492255Y-67171861D01*
X126246136Y-67245995D01*
X126053035Y-67783223D01*
X123935000Y-67783223D01*
X123935000Y-67714561D01*
X123716534Y-67187138D01*
X123414396Y-66885000D01*
X126704167Y-66885000D01*
X126671861Y-66992255D01*
X126671861Y-66992255D01*
G37*
X126671861Y-66992255D02*
X127500000Y-67820395D01*
X128328139Y-66992255D01*
X128295833Y-66885000D01*
X128633422Y-66885000D01*
X129115001Y-67366580D01*
X129115000Y-70245479D01*
X128965423Y-70345423D01*
X128648260Y-70820091D01*
X128536887Y-71380000D01*
X128648260Y-71939909D01*
X128965423Y-72414577D01*
X129317758Y-72650000D01*
X128965423Y-72885423D01*
X128648260Y-73360091D01*
X128536887Y-73920000D01*
X128648260Y-74479909D01*
X128965423Y-74954577D01*
X129317758Y-75190000D01*
X129115717Y-75325000D01*
X128651783Y-75325000D01*
X128540000Y-75302765D01*
X128428217Y-75325000D01*
X128097145Y-75390854D01*
X127721711Y-75641711D01*
X127658391Y-75736476D01*
X123529869Y-79865000D01*
X123527885Y-79865000D01*
X123731740Y-79559909D01*
X123843113Y-79000000D01*
X123731740Y-78440091D01*
X123414577Y-77965423D01*
X123062242Y-77730000D01*
X123414577Y-77494577D01*
X123731740Y-77019909D01*
X123843113Y-76460000D01*
X123731740Y-75900091D01*
X123414577Y-75425423D01*
X123062242Y-75190000D01*
X123414577Y-74954577D01*
X123731740Y-74479909D01*
X123843113Y-73920000D01*
X123731740Y-73360091D01*
X123414577Y-72885423D01*
X123062242Y-72650000D01*
X123414577Y-72414577D01*
X123731740Y-71939909D01*
X123843113Y-71380000D01*
X123731740Y-70820091D01*
X123515000Y-70495717D01*
X123515000Y-69014396D01*
X123521651Y-69007745D01*
X126671861Y-69007745D01*
X126745995Y-69253864D01*
X127283223Y-69446965D01*
X127853454Y-69419778D01*
X128254005Y-69253864D01*
X128328139Y-69007745D01*
X127500000Y-68179605D01*
X126671861Y-69007745D01*
X123521651Y-69007745D01*
X123716534Y-68812862D01*
X123935000Y-68285439D01*
X123935000Y-67783223D01*
X126053035Y-67783223D01*
X126080222Y-68353454D01*
X126246136Y-68754005D01*
X126492255Y-68828139D01*
X127320395Y-68000000D01*
X127679605Y-68000000D01*
X128507745Y-68828139D01*
X128753864Y-68754005D01*
X128946965Y-68216777D01*
X128919778Y-67646546D01*
X128753864Y-67245995D01*
X128507745Y-67171861D01*
X127679605Y-68000000D01*
X127320395Y-68000000D01*
X126492255Y-67171861D01*
X126246136Y-67245995D01*
X126053035Y-67783223D01*
X123935000Y-67783223D01*
X123935000Y-67714561D01*
X123716534Y-67187138D01*
X123414396Y-66885000D01*
X126704167Y-66885000D01*
X126671861Y-66992255D01*
G36*
X129356077Y-55287540D02*
X129288088Y-55528483D01*
X130080000Y-56320395D01*
X130094143Y-56306253D01*
X130273748Y-56485858D01*
X130259605Y-56500000D01*
X130273748Y-56514143D01*
X130094143Y-56693748D01*
X130080000Y-56679605D01*
X129288088Y-57471517D01*
X129356077Y-57712460D01*
X129875171Y-57897201D01*
X130425448Y-57869230D01*
X130803923Y-57712460D01*
X130865001Y-57496009D01*
X130865001Y-60503990D01*
X130803923Y-60287540D01*
X130284829Y-60102799D01*
X129734552Y-60130770D01*
X129356077Y-60287540D01*
X129288088Y-60528483D01*
X130080000Y-61320395D01*
X130094143Y-61306253D01*
X130273748Y-61485858D01*
X130259605Y-61500000D01*
X130273748Y-61514143D01*
X130094143Y-61693748D01*
X130080000Y-61679605D01*
X129288088Y-62471517D01*
X129356077Y-62712460D01*
X129875171Y-62897201D01*
X130425448Y-62869230D01*
X130803923Y-62712460D01*
X130865001Y-62496010D01*
X130865000Y-66812290D01*
X130833652Y-66654690D01*
X130773723Y-66565000D01*
X130687424Y-66435845D01*
X130687423Y-66435844D01*
X130638049Y-66361951D01*
X130564156Y-66312577D01*
X129687425Y-65435847D01*
X129638049Y-65361951D01*
X129345310Y-65166348D01*
X129087165Y-65115000D01*
X129087161Y-65115000D01*
X129000000Y-65097663D01*
X128912839Y-65115000D01*
X124740131Y-65115000D01*
X125723521Y-64131611D01*
X125818289Y-64068289D01*
X126069146Y-63692855D01*
X126135000Y-63361783D01*
X126135000Y-63361782D01*
X126157235Y-63250000D01*
X126135000Y-63138217D01*
X126135000Y-62756459D01*
X126207809Y-62707809D01*
X126348157Y-62497765D01*
X126386469Y-62305156D01*
X126755460Y-62674147D01*
X127264506Y-62885000D01*
X127815494Y-62885000D01*
X128324540Y-62674147D01*
X128714147Y-62284540D01*
X128803397Y-62069070D01*
X128867540Y-62223923D01*
X129108483Y-62291912D01*
X129900395Y-61500000D01*
X129108483Y-60708088D01*
X128867540Y-60776077D01*
X128808255Y-60942658D01*
X128714147Y-60715460D01*
X128324540Y-60325853D01*
X127815494Y-60115000D01*
X127264506Y-60115000D01*
X126755460Y-60325853D01*
X126386469Y-60694844D01*
X126348157Y-60502235D01*
X126243802Y-60346058D01*
X126299999Y-60357236D01*
X126411782Y-60335001D01*
X126742854Y-60269147D01*
X127118288Y-60018290D01*
X127181612Y-59923519D01*
X128263521Y-58841611D01*
X128358289Y-58778289D01*
X128609146Y-58402855D01*
X128675000Y-58071783D01*
X128675000Y-58071782D01*
X128697235Y-57960001D01*
X128675000Y-57848219D01*
X128675000Y-57323687D01*
X128714147Y-57284540D01*
X128803397Y-57069070D01*
X128867540Y-57223923D01*
X129108483Y-57291912D01*
X129900395Y-56500000D01*
X129108483Y-55708088D01*
X128867540Y-55776077D01*
X128808255Y-55942658D01*
X128714147Y-55715460D01*
X128324540Y-55325853D01*
X127863778Y-55135000D01*
X129724340Y-55135000D01*
X129356077Y-55287540D01*
X129356077Y-55287540D01*
G37*
X129356077Y-55287540D02*
X129288088Y-55528483D01*
X130080000Y-56320395D01*
X130094143Y-56306253D01*
X130273748Y-56485858D01*
X130259605Y-56500000D01*
X130273748Y-56514143D01*
X130094143Y-56693748D01*
X130080000Y-56679605D01*
X129288088Y-57471517D01*
X129356077Y-57712460D01*
X129875171Y-57897201D01*
X130425448Y-57869230D01*
X130803923Y-57712460D01*
X130865001Y-57496009D01*
X130865001Y-60503990D01*
X130803923Y-60287540D01*
X130284829Y-60102799D01*
X129734552Y-60130770D01*
X129356077Y-60287540D01*
X129288088Y-60528483D01*
X130080000Y-61320395D01*
X130094143Y-61306253D01*
X130273748Y-61485858D01*
X130259605Y-61500000D01*
X130273748Y-61514143D01*
X130094143Y-61693748D01*
X130080000Y-61679605D01*
X129288088Y-62471517D01*
X129356077Y-62712460D01*
X129875171Y-62897201D01*
X130425448Y-62869230D01*
X130803923Y-62712460D01*
X130865001Y-62496010D01*
X130865000Y-66812290D01*
X130833652Y-66654690D01*
X130773723Y-66565000D01*
X130687424Y-66435845D01*
X130687423Y-66435844D01*
X130638049Y-66361951D01*
X130564156Y-66312577D01*
X129687425Y-65435847D01*
X129638049Y-65361951D01*
X129345310Y-65166348D01*
X129087165Y-65115000D01*
X129087161Y-65115000D01*
X129000000Y-65097663D01*
X128912839Y-65115000D01*
X124740131Y-65115000D01*
X125723521Y-64131611D01*
X125818289Y-64068289D01*
X126069146Y-63692855D01*
X126135000Y-63361783D01*
X126135000Y-63361782D01*
X126157235Y-63250000D01*
X126135000Y-63138217D01*
X126135000Y-62756459D01*
X126207809Y-62707809D01*
X126348157Y-62497765D01*
X126386469Y-62305156D01*
X126755460Y-62674147D01*
X127264506Y-62885000D01*
X127815494Y-62885000D01*
X128324540Y-62674147D01*
X128714147Y-62284540D01*
X128803397Y-62069070D01*
X128867540Y-62223923D01*
X129108483Y-62291912D01*
X129900395Y-61500000D01*
X129108483Y-60708088D01*
X128867540Y-60776077D01*
X128808255Y-60942658D01*
X128714147Y-60715460D01*
X128324540Y-60325853D01*
X127815494Y-60115000D01*
X127264506Y-60115000D01*
X126755460Y-60325853D01*
X126386469Y-60694844D01*
X126348157Y-60502235D01*
X126243802Y-60346058D01*
X126299999Y-60357236D01*
X126411782Y-60335001D01*
X126742854Y-60269147D01*
X127118288Y-60018290D01*
X127181612Y-59923519D01*
X128263521Y-58841611D01*
X128358289Y-58778289D01*
X128609146Y-58402855D01*
X128675000Y-58071783D01*
X128675000Y-58071782D01*
X128697235Y-57960001D01*
X128675000Y-57848219D01*
X128675000Y-57323687D01*
X128714147Y-57284540D01*
X128803397Y-57069070D01*
X128867540Y-57223923D01*
X129108483Y-57291912D01*
X129900395Y-56500000D01*
X129108483Y-55708088D01*
X128867540Y-55776077D01*
X128808255Y-55942658D01*
X128714147Y-55715460D01*
X128324540Y-55325853D01*
X127863778Y-55135000D01*
X129724340Y-55135000D01*
X129356077Y-55287540D01*
G04 #@! TD*
M02*
