G04 #@! TF.GenerationSoftware,KiCad,Pcbnew,5.0.1*
G04 #@! TF.CreationDate,2019-05-06T23:45:27+02:00*
G04 #@! TF.ProjectId,adadad,6164616461642E6B696361645F706362,rev?*
G04 #@! TF.SameCoordinates,Original*
G04 #@! TF.FileFunction,Legend,Top*
G04 #@! TF.FilePolarity,Positive*
%FSLAX46Y46*%
G04 Gerber Fmt 4.6, Leading zero omitted, Abs format (unit mm)*
G04 Created by KiCad (PCBNEW 5.0.1) date Mo 06 Mai 2019 23:45:27 CEST*
%MOMM*%
%LPD*%
G01*
G04 APERTURE LIST*
%ADD10C,0.120000*%
%ADD11C,0.150000*%
G04 APERTURE END LIST*
D10*
G04 #@! TO.C,RV2*
X132345000Y-111470000D02*
X132345000Y-116540000D01*
X122575000Y-111470000D02*
X122575000Y-116540000D01*
X122575000Y-116540000D02*
X132345000Y-116540000D01*
X122575000Y-111470000D02*
X132345000Y-111470000D01*
G04 #@! TO.C,RV1*
X122575000Y-116970000D02*
X132345000Y-116970000D01*
X122575000Y-122040000D02*
X132345000Y-122040000D01*
X122575000Y-116970000D02*
X122575000Y-122040000D01*
X132345000Y-116970000D02*
X132345000Y-122040000D01*
G04 #@! TO.C,D7*
X108190000Y-129380000D02*
X108190000Y-131620000D01*
X108190000Y-131620000D02*
X112430000Y-131620000D01*
X112430000Y-131620000D02*
X112430000Y-129380000D01*
X112430000Y-129380000D02*
X108190000Y-129380000D01*
X107540000Y-130500000D02*
X108190000Y-130500000D01*
X113080000Y-130500000D02*
X112430000Y-130500000D01*
X108910000Y-129380000D02*
X108910000Y-131620000D01*
X109030000Y-129380000D02*
X109030000Y-131620000D01*
X108790000Y-129380000D02*
X108790000Y-131620000D01*
G04 #@! TO.C,U2*
X124920000Y-144330000D02*
G75*
G02X126920000Y-144330000I1000000J0D01*
G01*
X126920000Y-144330000D02*
X129155000Y-144330000D01*
X129155000Y-144330000D02*
X129155000Y-126430000D01*
X129155000Y-126430000D02*
X122685000Y-126430000D01*
X122685000Y-126430000D02*
X122685000Y-144330000D01*
X122685000Y-144330000D02*
X124920000Y-144330000D01*
D11*
G04 #@! TO.C,J1*
X127000000Y-86900000D02*
X126400000Y-86300000D01*
X127600000Y-86300000D02*
X127000000Y-86900000D01*
X126400000Y-86300000D02*
X127600000Y-86300000D01*
X132840000Y-85850000D02*
X132840000Y-86350000D01*
X132940000Y-86350000D02*
X132740000Y-86350000D01*
X132940000Y-85850000D02*
X132940000Y-86350000D01*
X132740000Y-85850000D02*
X132940000Y-85850000D01*
X132840000Y-100810000D02*
X132840000Y-101310000D01*
X132940000Y-101310000D02*
X132740000Y-101310000D01*
X132940000Y-100810000D02*
X132940000Y-101310000D01*
X132740000Y-100810000D02*
X132940000Y-100810000D01*
X132840000Y-93330000D02*
X132840000Y-93830000D01*
X132940000Y-93830000D02*
X132740000Y-93830000D01*
X132940000Y-93330000D02*
X132940000Y-93830000D01*
X132740000Y-93330000D02*
X132940000Y-93330000D01*
X125100000Y-95805000D02*
X123800000Y-95805000D01*
X125100000Y-102530000D02*
X125100000Y-95805000D01*
X131440000Y-102530000D02*
X125100000Y-102530000D01*
X131440000Y-84630000D02*
X131440000Y-102530000D01*
X125100000Y-84630000D02*
X131440000Y-84630000D01*
X125100000Y-91355000D02*
X125100000Y-84630000D01*
X123800000Y-91355000D02*
X125100000Y-91355000D01*
X123800000Y-103730000D02*
X123800000Y-83430000D01*
X132740000Y-103730000D02*
X123800000Y-103730000D01*
X132740000Y-83430000D02*
X132740000Y-103730000D01*
X123800000Y-83430000D02*
X132740000Y-83430000D01*
D10*
G04 #@! TO.C,D6*
X107360000Y-132530000D02*
X107360000Y-135470000D01*
X107360000Y-135470000D02*
X112800000Y-135470000D01*
X112800000Y-135470000D02*
X112800000Y-132530000D01*
X112800000Y-132530000D02*
X107360000Y-132530000D01*
X106340000Y-134000000D02*
X107360000Y-134000000D01*
X113820000Y-134000000D02*
X112800000Y-134000000D01*
X108260000Y-132530000D02*
X108260000Y-135470000D01*
X108380000Y-132530000D02*
X108380000Y-135470000D01*
X108140000Y-132530000D02*
X108140000Y-135470000D01*
G04 #@! TO.C,D4*
X106500462Y-110240000D02*
G75*
G03X104955170Y-115790000I-462J-2990000D01*
G01*
X106499538Y-110240000D02*
G75*
G02X108044830Y-115790000I462J-2990000D01*
G01*
X109000000Y-113230000D02*
G75*
G03X109000000Y-113230000I-2500000J0D01*
G01*
X104955000Y-115790000D02*
X108045000Y-115790000D01*
G04 #@! TO.C,R10*
X112040000Y-110960000D02*
X112040000Y-110630000D01*
X112040000Y-110630000D02*
X118580000Y-110630000D01*
X118580000Y-110630000D02*
X118580000Y-110960000D01*
X112040000Y-113040000D02*
X112040000Y-113370000D01*
X112040000Y-113370000D02*
X118580000Y-113370000D01*
X118580000Y-113370000D02*
X118580000Y-113040000D01*
G04 #@! TO.C,C4*
X117695225Y-91775000D02*
X117695225Y-92275000D01*
X117445225Y-92025000D02*
X117945225Y-92025000D01*
X122851000Y-93216000D02*
X122851000Y-93784000D01*
X122811000Y-92982000D02*
X122811000Y-94018000D01*
X122771000Y-92823000D02*
X122771000Y-94177000D01*
X122731000Y-92695000D02*
X122731000Y-94305000D01*
X122691000Y-92585000D02*
X122691000Y-94415000D01*
X122651000Y-92489000D02*
X122651000Y-94511000D01*
X122611000Y-92402000D02*
X122611000Y-94598000D01*
X122571000Y-92322000D02*
X122571000Y-94678000D01*
X122531000Y-94540000D02*
X122531000Y-94751000D01*
X122531000Y-92249000D02*
X122531000Y-92460000D01*
X122491000Y-94540000D02*
X122491000Y-94819000D01*
X122491000Y-92181000D02*
X122491000Y-92460000D01*
X122451000Y-94540000D02*
X122451000Y-94883000D01*
X122451000Y-92117000D02*
X122451000Y-92460000D01*
X122411000Y-94540000D02*
X122411000Y-94943000D01*
X122411000Y-92057000D02*
X122411000Y-92460000D01*
X122371000Y-94540000D02*
X122371000Y-95000000D01*
X122371000Y-92000000D02*
X122371000Y-92460000D01*
X122331000Y-94540000D02*
X122331000Y-95054000D01*
X122331000Y-91946000D02*
X122331000Y-92460000D01*
X122291000Y-94540000D02*
X122291000Y-95105000D01*
X122291000Y-91895000D02*
X122291000Y-92460000D01*
X122251000Y-94540000D02*
X122251000Y-95153000D01*
X122251000Y-91847000D02*
X122251000Y-92460000D01*
X122211000Y-94540000D02*
X122211000Y-95199000D01*
X122211000Y-91801000D02*
X122211000Y-92460000D01*
X122171000Y-94540000D02*
X122171000Y-95243000D01*
X122171000Y-91757000D02*
X122171000Y-92460000D01*
X122131000Y-94540000D02*
X122131000Y-95285000D01*
X122131000Y-91715000D02*
X122131000Y-92460000D01*
X122091000Y-94540000D02*
X122091000Y-95326000D01*
X122091000Y-91674000D02*
X122091000Y-92460000D01*
X122051000Y-94540000D02*
X122051000Y-95364000D01*
X122051000Y-91636000D02*
X122051000Y-92460000D01*
X122011000Y-94540000D02*
X122011000Y-95401000D01*
X122011000Y-91599000D02*
X122011000Y-92460000D01*
X121971000Y-94540000D02*
X121971000Y-95437000D01*
X121971000Y-91563000D02*
X121971000Y-92460000D01*
X121931000Y-94540000D02*
X121931000Y-95471000D01*
X121931000Y-91529000D02*
X121931000Y-92460000D01*
X121891000Y-94540000D02*
X121891000Y-95504000D01*
X121891000Y-91496000D02*
X121891000Y-92460000D01*
X121851000Y-94540000D02*
X121851000Y-95535000D01*
X121851000Y-91465000D02*
X121851000Y-92460000D01*
X121811000Y-94540000D02*
X121811000Y-95565000D01*
X121811000Y-91435000D02*
X121811000Y-92460000D01*
X121771000Y-94540000D02*
X121771000Y-95595000D01*
X121771000Y-91405000D02*
X121771000Y-92460000D01*
X121731000Y-94540000D02*
X121731000Y-95622000D01*
X121731000Y-91378000D02*
X121731000Y-92460000D01*
X121691000Y-94540000D02*
X121691000Y-95649000D01*
X121691000Y-91351000D02*
X121691000Y-92460000D01*
X121651000Y-94540000D02*
X121651000Y-95675000D01*
X121651000Y-91325000D02*
X121651000Y-92460000D01*
X121611000Y-94540000D02*
X121611000Y-95700000D01*
X121611000Y-91300000D02*
X121611000Y-92460000D01*
X121571000Y-94540000D02*
X121571000Y-95724000D01*
X121571000Y-91276000D02*
X121571000Y-92460000D01*
X121531000Y-94540000D02*
X121531000Y-95747000D01*
X121531000Y-91253000D02*
X121531000Y-92460000D01*
X121491000Y-94540000D02*
X121491000Y-95768000D01*
X121491000Y-91232000D02*
X121491000Y-92460000D01*
X121451000Y-94540000D02*
X121451000Y-95790000D01*
X121451000Y-91210000D02*
X121451000Y-92460000D01*
X121411000Y-94540000D02*
X121411000Y-95810000D01*
X121411000Y-91190000D02*
X121411000Y-92460000D01*
X121371000Y-94540000D02*
X121371000Y-95829000D01*
X121371000Y-91171000D02*
X121371000Y-92460000D01*
X121331000Y-94540000D02*
X121331000Y-95848000D01*
X121331000Y-91152000D02*
X121331000Y-92460000D01*
X121291000Y-94540000D02*
X121291000Y-95865000D01*
X121291000Y-91135000D02*
X121291000Y-92460000D01*
X121251000Y-94540000D02*
X121251000Y-95882000D01*
X121251000Y-91118000D02*
X121251000Y-92460000D01*
X121211000Y-94540000D02*
X121211000Y-95898000D01*
X121211000Y-91102000D02*
X121211000Y-92460000D01*
X121171000Y-94540000D02*
X121171000Y-95914000D01*
X121171000Y-91086000D02*
X121171000Y-92460000D01*
X121131000Y-94540000D02*
X121131000Y-95928000D01*
X121131000Y-91072000D02*
X121131000Y-92460000D01*
X121091000Y-94540000D02*
X121091000Y-95942000D01*
X121091000Y-91058000D02*
X121091000Y-92460000D01*
X121051000Y-94540000D02*
X121051000Y-95955000D01*
X121051000Y-91045000D02*
X121051000Y-92460000D01*
X121011000Y-94540000D02*
X121011000Y-95968000D01*
X121011000Y-91032000D02*
X121011000Y-92460000D01*
X120971000Y-94540000D02*
X120971000Y-95980000D01*
X120971000Y-91020000D02*
X120971000Y-92460000D01*
X120930000Y-94540000D02*
X120930000Y-95991000D01*
X120930000Y-91009000D02*
X120930000Y-92460000D01*
X120890000Y-94540000D02*
X120890000Y-96001000D01*
X120890000Y-90999000D02*
X120890000Y-92460000D01*
X120850000Y-94540000D02*
X120850000Y-96011000D01*
X120850000Y-90989000D02*
X120850000Y-92460000D01*
X120810000Y-94540000D02*
X120810000Y-96020000D01*
X120810000Y-90980000D02*
X120810000Y-92460000D01*
X120770000Y-94540000D02*
X120770000Y-96028000D01*
X120770000Y-90972000D02*
X120770000Y-92460000D01*
X120730000Y-94540000D02*
X120730000Y-96036000D01*
X120730000Y-90964000D02*
X120730000Y-92460000D01*
X120690000Y-94540000D02*
X120690000Y-96043000D01*
X120690000Y-90957000D02*
X120690000Y-92460000D01*
X120650000Y-94540000D02*
X120650000Y-96050000D01*
X120650000Y-90950000D02*
X120650000Y-92460000D01*
X120610000Y-94540000D02*
X120610000Y-96056000D01*
X120610000Y-90944000D02*
X120610000Y-92460000D01*
X120570000Y-94540000D02*
X120570000Y-96061000D01*
X120570000Y-90939000D02*
X120570000Y-92460000D01*
X120530000Y-94540000D02*
X120530000Y-96065000D01*
X120530000Y-90935000D02*
X120530000Y-92460000D01*
X120490000Y-94540000D02*
X120490000Y-96069000D01*
X120490000Y-90931000D02*
X120490000Y-92460000D01*
X120450000Y-90927000D02*
X120450000Y-96073000D01*
X120410000Y-90924000D02*
X120410000Y-96076000D01*
X120370000Y-90922000D02*
X120370000Y-96078000D01*
X120330000Y-90921000D02*
X120330000Y-96079000D01*
X120290000Y-90920000D02*
X120290000Y-96080000D01*
X120250000Y-90920000D02*
X120250000Y-96080000D01*
X122870000Y-93500000D02*
G75*
G03X122870000Y-93500000I-2620000J0D01*
G01*
G04 #@! TO.C,C5*
X110370000Y-87500000D02*
G75*
G03X110370000Y-87500000I-2620000J0D01*
G01*
X107750000Y-90080000D02*
X107750000Y-84920000D01*
X107710000Y-90080000D02*
X107710000Y-84920000D01*
X107670000Y-90079000D02*
X107670000Y-84921000D01*
X107630000Y-90078000D02*
X107630000Y-84922000D01*
X107590000Y-90076000D02*
X107590000Y-84924000D01*
X107550000Y-90073000D02*
X107550000Y-84927000D01*
X107510000Y-90069000D02*
X107510000Y-88540000D01*
X107510000Y-86460000D02*
X107510000Y-84931000D01*
X107470000Y-90065000D02*
X107470000Y-88540000D01*
X107470000Y-86460000D02*
X107470000Y-84935000D01*
X107430000Y-90061000D02*
X107430000Y-88540000D01*
X107430000Y-86460000D02*
X107430000Y-84939000D01*
X107390000Y-90056000D02*
X107390000Y-88540000D01*
X107390000Y-86460000D02*
X107390000Y-84944000D01*
X107350000Y-90050000D02*
X107350000Y-88540000D01*
X107350000Y-86460000D02*
X107350000Y-84950000D01*
X107310000Y-90043000D02*
X107310000Y-88540000D01*
X107310000Y-86460000D02*
X107310000Y-84957000D01*
X107270000Y-90036000D02*
X107270000Y-88540000D01*
X107270000Y-86460000D02*
X107270000Y-84964000D01*
X107230000Y-90028000D02*
X107230000Y-88540000D01*
X107230000Y-86460000D02*
X107230000Y-84972000D01*
X107190000Y-90020000D02*
X107190000Y-88540000D01*
X107190000Y-86460000D02*
X107190000Y-84980000D01*
X107150000Y-90011000D02*
X107150000Y-88540000D01*
X107150000Y-86460000D02*
X107150000Y-84989000D01*
X107110000Y-90001000D02*
X107110000Y-88540000D01*
X107110000Y-86460000D02*
X107110000Y-84999000D01*
X107070000Y-89991000D02*
X107070000Y-88540000D01*
X107070000Y-86460000D02*
X107070000Y-85009000D01*
X107029000Y-89980000D02*
X107029000Y-88540000D01*
X107029000Y-86460000D02*
X107029000Y-85020000D01*
X106989000Y-89968000D02*
X106989000Y-88540000D01*
X106989000Y-86460000D02*
X106989000Y-85032000D01*
X106949000Y-89955000D02*
X106949000Y-88540000D01*
X106949000Y-86460000D02*
X106949000Y-85045000D01*
X106909000Y-89942000D02*
X106909000Y-88540000D01*
X106909000Y-86460000D02*
X106909000Y-85058000D01*
X106869000Y-89928000D02*
X106869000Y-88540000D01*
X106869000Y-86460000D02*
X106869000Y-85072000D01*
X106829000Y-89914000D02*
X106829000Y-88540000D01*
X106829000Y-86460000D02*
X106829000Y-85086000D01*
X106789000Y-89898000D02*
X106789000Y-88540000D01*
X106789000Y-86460000D02*
X106789000Y-85102000D01*
X106749000Y-89882000D02*
X106749000Y-88540000D01*
X106749000Y-86460000D02*
X106749000Y-85118000D01*
X106709000Y-89865000D02*
X106709000Y-88540000D01*
X106709000Y-86460000D02*
X106709000Y-85135000D01*
X106669000Y-89848000D02*
X106669000Y-88540000D01*
X106669000Y-86460000D02*
X106669000Y-85152000D01*
X106629000Y-89829000D02*
X106629000Y-88540000D01*
X106629000Y-86460000D02*
X106629000Y-85171000D01*
X106589000Y-89810000D02*
X106589000Y-88540000D01*
X106589000Y-86460000D02*
X106589000Y-85190000D01*
X106549000Y-89790000D02*
X106549000Y-88540000D01*
X106549000Y-86460000D02*
X106549000Y-85210000D01*
X106509000Y-89768000D02*
X106509000Y-88540000D01*
X106509000Y-86460000D02*
X106509000Y-85232000D01*
X106469000Y-89747000D02*
X106469000Y-88540000D01*
X106469000Y-86460000D02*
X106469000Y-85253000D01*
X106429000Y-89724000D02*
X106429000Y-88540000D01*
X106429000Y-86460000D02*
X106429000Y-85276000D01*
X106389000Y-89700000D02*
X106389000Y-88540000D01*
X106389000Y-86460000D02*
X106389000Y-85300000D01*
X106349000Y-89675000D02*
X106349000Y-88540000D01*
X106349000Y-86460000D02*
X106349000Y-85325000D01*
X106309000Y-89649000D02*
X106309000Y-88540000D01*
X106309000Y-86460000D02*
X106309000Y-85351000D01*
X106269000Y-89622000D02*
X106269000Y-88540000D01*
X106269000Y-86460000D02*
X106269000Y-85378000D01*
X106229000Y-89595000D02*
X106229000Y-88540000D01*
X106229000Y-86460000D02*
X106229000Y-85405000D01*
X106189000Y-89565000D02*
X106189000Y-88540000D01*
X106189000Y-86460000D02*
X106189000Y-85435000D01*
X106149000Y-89535000D02*
X106149000Y-88540000D01*
X106149000Y-86460000D02*
X106149000Y-85465000D01*
X106109000Y-89504000D02*
X106109000Y-88540000D01*
X106109000Y-86460000D02*
X106109000Y-85496000D01*
X106069000Y-89471000D02*
X106069000Y-88540000D01*
X106069000Y-86460000D02*
X106069000Y-85529000D01*
X106029000Y-89437000D02*
X106029000Y-88540000D01*
X106029000Y-86460000D02*
X106029000Y-85563000D01*
X105989000Y-89401000D02*
X105989000Y-88540000D01*
X105989000Y-86460000D02*
X105989000Y-85599000D01*
X105949000Y-89364000D02*
X105949000Y-88540000D01*
X105949000Y-86460000D02*
X105949000Y-85636000D01*
X105909000Y-89326000D02*
X105909000Y-88540000D01*
X105909000Y-86460000D02*
X105909000Y-85674000D01*
X105869000Y-89285000D02*
X105869000Y-88540000D01*
X105869000Y-86460000D02*
X105869000Y-85715000D01*
X105829000Y-89243000D02*
X105829000Y-88540000D01*
X105829000Y-86460000D02*
X105829000Y-85757000D01*
X105789000Y-89199000D02*
X105789000Y-88540000D01*
X105789000Y-86460000D02*
X105789000Y-85801000D01*
X105749000Y-89153000D02*
X105749000Y-88540000D01*
X105749000Y-86460000D02*
X105749000Y-85847000D01*
X105709000Y-89105000D02*
X105709000Y-88540000D01*
X105709000Y-86460000D02*
X105709000Y-85895000D01*
X105669000Y-89054000D02*
X105669000Y-88540000D01*
X105669000Y-86460000D02*
X105669000Y-85946000D01*
X105629000Y-89000000D02*
X105629000Y-88540000D01*
X105629000Y-86460000D02*
X105629000Y-86000000D01*
X105589000Y-88943000D02*
X105589000Y-88540000D01*
X105589000Y-86460000D02*
X105589000Y-86057000D01*
X105549000Y-88883000D02*
X105549000Y-88540000D01*
X105549000Y-86460000D02*
X105549000Y-86117000D01*
X105509000Y-88819000D02*
X105509000Y-88540000D01*
X105509000Y-86460000D02*
X105509000Y-86181000D01*
X105469000Y-88751000D02*
X105469000Y-88540000D01*
X105469000Y-86460000D02*
X105469000Y-86249000D01*
X105429000Y-88678000D02*
X105429000Y-86322000D01*
X105389000Y-88598000D02*
X105389000Y-86402000D01*
X105349000Y-88511000D02*
X105349000Y-86489000D01*
X105309000Y-88415000D02*
X105309000Y-86585000D01*
X105269000Y-88305000D02*
X105269000Y-86695000D01*
X105229000Y-88177000D02*
X105229000Y-86823000D01*
X105189000Y-88018000D02*
X105189000Y-86982000D01*
X105149000Y-87784000D02*
X105149000Y-87216000D01*
X110554775Y-88975000D02*
X110054775Y-88975000D01*
X110304775Y-89225000D02*
X110304775Y-88725000D01*
G04 #@! TO.C,Q1*
X125740000Y-63350000D02*
X129340000Y-63350000D01*
X125215816Y-62622795D02*
G75*
G03X125740000Y-63350000I2324184J1122795D01*
G01*
X125183600Y-60401193D02*
G75*
G02X127540000Y-58900000I2356400J-1098807D01*
G01*
X129896400Y-60401193D02*
G75*
G03X127540000Y-58900000I-2356400J-1098807D01*
G01*
X129864184Y-62622795D02*
G75*
G02X129340000Y-63350000I-2324184J1122795D01*
G01*
G04 #@! TO.C,Q2*
X129864184Y-52622795D02*
G75*
G02X129340000Y-53350000I-2324184J1122795D01*
G01*
X129896400Y-50401193D02*
G75*
G03X127540000Y-48900000I-2356400J-1098807D01*
G01*
X125183600Y-50401193D02*
G75*
G02X127540000Y-48900000I2356400J-1098807D01*
G01*
X125215816Y-52622795D02*
G75*
G03X125740000Y-53350000I2324184J1122795D01*
G01*
X125740000Y-53350000D02*
X129340000Y-53350000D01*
G04 #@! TO.C,Q3*
X125740000Y-58350000D02*
X129340000Y-58350000D01*
X125215816Y-57622795D02*
G75*
G03X125740000Y-58350000I2324184J1122795D01*
G01*
X125183600Y-55401193D02*
G75*
G02X127540000Y-53900000I2356400J-1098807D01*
G01*
X129896400Y-55401193D02*
G75*
G03X127540000Y-53900000I-2356400J-1098807D01*
G01*
X129864184Y-57622795D02*
G75*
G02X129340000Y-58350000I-2324184J1122795D01*
G01*
G04 #@! TO.C,EoC_J1*
X99180000Y-142720000D02*
X99180000Y-136480000D01*
X99180000Y-136480000D02*
X103180000Y-136480000D01*
X103180000Y-136480000D02*
X103180000Y-136180000D01*
X103180000Y-136180000D02*
X117420000Y-136180000D01*
X117420000Y-136180000D02*
X117420000Y-144620000D01*
X117420000Y-144620000D02*
X103180000Y-144620000D01*
X103180000Y-144620000D02*
X103180000Y-142720000D01*
X103180000Y-142720000D02*
X99180000Y-142720000D01*
G04 #@! TO.C,GATE_J2*
X99180000Y-106720000D02*
X99180000Y-100480000D01*
X99180000Y-100480000D02*
X103180000Y-100480000D01*
X103180000Y-100480000D02*
X103180000Y-100180000D01*
X103180000Y-100180000D02*
X117420000Y-100180000D01*
X117420000Y-100180000D02*
X117420000Y-108620000D01*
X117420000Y-108620000D02*
X103180000Y-108620000D01*
X103180000Y-108620000D02*
X103180000Y-106720000D01*
X103180000Y-106720000D02*
X99180000Y-106720000D01*
G04 #@! TO.C,OUT_J4*
X99180000Y-124720000D02*
X99180000Y-118480000D01*
X99180000Y-118480000D02*
X103180000Y-118480000D01*
X103180000Y-118480000D02*
X103180000Y-118180000D01*
X103180000Y-118180000D02*
X117420000Y-118180000D01*
X117420000Y-118180000D02*
X117420000Y-126620000D01*
X117420000Y-126620000D02*
X103180000Y-126620000D01*
X103180000Y-126620000D02*
X103180000Y-124720000D01*
X103180000Y-124720000D02*
X99180000Y-124720000D01*
G04 #@! TO.C,Attack1*
X109945000Y-58805000D02*
X102655000Y-58805000D01*
X109945000Y-49065000D02*
X102655000Y-49065000D01*
X109945000Y-58805000D02*
X109945000Y-49065000D01*
X102655000Y-58805000D02*
X102655000Y-49065000D01*
X102655000Y-57555000D02*
X97655000Y-57555000D01*
X102655000Y-50315000D02*
X97655000Y-50315000D01*
X102655000Y-57555000D02*
X102655000Y-50315000D01*
X97655000Y-57555000D02*
X97655000Y-50315000D01*
X97655000Y-57055000D02*
X87655000Y-57055000D01*
X97655000Y-50815000D02*
X87655000Y-50815000D01*
X97655000Y-57055000D02*
X97655000Y-50815000D01*
X87655000Y-57055000D02*
X87655000Y-50815000D01*
G04 #@! TO.C,Decay1*
X110170000Y-81370000D02*
X102880000Y-81370000D01*
X110170000Y-71630000D02*
X102880000Y-71630000D01*
X110170000Y-81370000D02*
X110170000Y-71630000D01*
X102880000Y-81370000D02*
X102880000Y-71630000D01*
X102880000Y-80120000D02*
X97880000Y-80120000D01*
X102880000Y-72880000D02*
X97880000Y-72880000D01*
X102880000Y-80120000D02*
X102880000Y-72880000D01*
X97880000Y-80120000D02*
X97880000Y-72880000D01*
X97880000Y-79620000D02*
X87880000Y-79620000D01*
X97880000Y-73380000D02*
X87880000Y-73380000D01*
X97880000Y-79620000D02*
X97880000Y-73380000D01*
X87880000Y-79620000D02*
X87880000Y-73380000D01*
G04 #@! TO.C,C1*
X116620000Y-58055000D02*
X116620000Y-58370000D01*
X116620000Y-55630000D02*
X116620000Y-55945000D01*
X111380000Y-58055000D02*
X111380000Y-58370000D01*
X111380000Y-55630000D02*
X111380000Y-55945000D01*
X111380000Y-58370000D02*
X116620000Y-58370000D01*
X111380000Y-55630000D02*
X116620000Y-55630000D01*
G04 #@! TO.C,C2*
X122380000Y-66630000D02*
X127620000Y-66630000D01*
X122380000Y-69370000D02*
X127620000Y-69370000D01*
X122380000Y-66630000D02*
X122380000Y-66945000D01*
X122380000Y-69055000D02*
X122380000Y-69370000D01*
X127620000Y-66630000D02*
X127620000Y-66945000D01*
X127620000Y-69055000D02*
X127620000Y-69370000D01*
G04 #@! TO.C,C3*
X119405000Y-87055000D02*
X119405000Y-87370000D01*
X119405000Y-84630000D02*
X119405000Y-84945000D01*
X114165000Y-87055000D02*
X114165000Y-87370000D01*
X114165000Y-84630000D02*
X114165000Y-84945000D01*
X114165000Y-87370000D02*
X119405000Y-87370000D01*
X114165000Y-84630000D02*
X119405000Y-84630000D01*
G04 #@! TO.C,D1*
X109290000Y-96880000D02*
X109290000Y-99120000D01*
X109530000Y-96880000D02*
X109530000Y-99120000D01*
X109410000Y-96880000D02*
X109410000Y-99120000D01*
X113580000Y-98000000D02*
X112930000Y-98000000D01*
X108040000Y-98000000D02*
X108690000Y-98000000D01*
X112930000Y-96880000D02*
X108690000Y-96880000D01*
X112930000Y-99120000D02*
X112930000Y-96880000D01*
X108690000Y-99120000D02*
X112930000Y-99120000D01*
X108690000Y-96880000D02*
X108690000Y-99120000D01*
G04 #@! TO.C,D2*
X113275000Y-61665000D02*
X113275000Y-63905000D01*
X113275000Y-63905000D02*
X117515000Y-63905000D01*
X117515000Y-63905000D02*
X117515000Y-61665000D01*
X117515000Y-61665000D02*
X113275000Y-61665000D01*
X112625000Y-62785000D02*
X113275000Y-62785000D01*
X118165000Y-62785000D02*
X117515000Y-62785000D01*
X113995000Y-61665000D02*
X113995000Y-63905000D01*
X114115000Y-61665000D02*
X114115000Y-63905000D01*
X113875000Y-61665000D02*
X113875000Y-63905000D01*
G04 #@! TO.C,D3*
X116710000Y-52120000D02*
X116710000Y-49880000D01*
X116470000Y-52120000D02*
X116470000Y-49880000D01*
X116590000Y-52120000D02*
X116590000Y-49880000D01*
X112420000Y-51000000D02*
X113070000Y-51000000D01*
X117960000Y-51000000D02*
X117310000Y-51000000D01*
X113070000Y-52120000D02*
X117310000Y-52120000D01*
X113070000Y-49880000D02*
X113070000Y-52120000D01*
X117310000Y-49880000D02*
X113070000Y-49880000D01*
X117310000Y-52120000D02*
X117310000Y-49880000D01*
G04 #@! TO.C,D5*
X113790000Y-72880000D02*
X113790000Y-75120000D01*
X114030000Y-72880000D02*
X114030000Y-75120000D01*
X113910000Y-72880000D02*
X113910000Y-75120000D01*
X118080000Y-74000000D02*
X117430000Y-74000000D01*
X112540000Y-74000000D02*
X113190000Y-74000000D01*
X117430000Y-72880000D02*
X113190000Y-72880000D01*
X117430000Y-75120000D02*
X117430000Y-72880000D01*
X113190000Y-75120000D02*
X117430000Y-75120000D01*
X113190000Y-72880000D02*
X113190000Y-75120000D01*
G04 #@! TO.C,R2*
X118665000Y-72120000D02*
X118665000Y-72450000D01*
X118665000Y-72450000D02*
X112125000Y-72450000D01*
X112125000Y-72450000D02*
X112125000Y-72120000D01*
X118665000Y-70040000D02*
X118665000Y-69710000D01*
X118665000Y-69710000D02*
X112125000Y-69710000D01*
X112125000Y-69710000D02*
X112125000Y-70040000D01*
G04 #@! TO.C,R5*
X111920000Y-58630000D02*
X111920000Y-58960000D01*
X118460000Y-58630000D02*
X111920000Y-58630000D01*
X118460000Y-58960000D02*
X118460000Y-58630000D01*
X111920000Y-61370000D02*
X111920000Y-61040000D01*
X118460000Y-61370000D02*
X111920000Y-61370000D01*
X118460000Y-61040000D02*
X118460000Y-61370000D01*
G04 #@! TO.C,R6*
X112285000Y-78405000D02*
X112285000Y-78075000D01*
X112285000Y-78075000D02*
X118825000Y-78075000D01*
X118825000Y-78075000D02*
X118825000Y-78405000D01*
X112285000Y-80485000D02*
X112285000Y-80815000D01*
X112285000Y-80815000D02*
X118825000Y-80815000D01*
X118825000Y-80815000D02*
X118825000Y-80485000D01*
G04 #@! TO.C,R8*
X112125000Y-52960000D02*
X112125000Y-52630000D01*
X112125000Y-52630000D02*
X118665000Y-52630000D01*
X118665000Y-52630000D02*
X118665000Y-52960000D01*
X112125000Y-55040000D02*
X112125000Y-55370000D01*
X112125000Y-55370000D02*
X118665000Y-55370000D01*
X118665000Y-55370000D02*
X118665000Y-55040000D01*
G04 #@! TO.C,R9*
X112040000Y-75460000D02*
X112040000Y-75130000D01*
X112040000Y-75130000D02*
X118580000Y-75130000D01*
X118580000Y-75130000D02*
X118580000Y-75460000D01*
X112040000Y-77540000D02*
X112040000Y-77870000D01*
X112040000Y-77870000D02*
X118580000Y-77870000D01*
X118580000Y-77870000D02*
X118580000Y-77540000D01*
G04 #@! TO.C,R4*
X112285000Y-81580000D02*
X112285000Y-81250000D01*
X112285000Y-81250000D02*
X118825000Y-81250000D01*
X118825000Y-81250000D02*
X118825000Y-81580000D01*
X112285000Y-83660000D02*
X112285000Y-83990000D01*
X112285000Y-83990000D02*
X118825000Y-83990000D01*
X118825000Y-83990000D02*
X118825000Y-83660000D01*
G04 #@! TO.C,R3*
X112125000Y-66535000D02*
X112125000Y-66865000D01*
X118665000Y-66535000D02*
X112125000Y-66535000D01*
X118665000Y-66865000D02*
X118665000Y-66535000D01*
X112125000Y-69275000D02*
X112125000Y-68945000D01*
X118665000Y-69275000D02*
X112125000Y-69275000D01*
X118665000Y-68945000D02*
X118665000Y-69275000D01*
G04 #@! TO.C,U1*
X123540000Y-80330000D02*
X125190000Y-80330000D01*
X123540000Y-70050000D02*
X123540000Y-80330000D01*
X128840000Y-70050000D02*
X123540000Y-70050000D01*
X128840000Y-80330000D02*
X128840000Y-70050000D01*
X127190000Y-80330000D02*
X128840000Y-80330000D01*
X125190000Y-80330000D02*
G75*
G02X127190000Y-80330000I1000000J0D01*
G01*
G04 #@! TO.C,RV2*
D11*
X126864761Y-110792380D02*
X126531428Y-110316190D01*
X126293333Y-110792380D02*
X126293333Y-109792380D01*
X126674285Y-109792380D01*
X126769523Y-109840000D01*
X126817142Y-109887619D01*
X126864761Y-109982857D01*
X126864761Y-110125714D01*
X126817142Y-110220952D01*
X126769523Y-110268571D01*
X126674285Y-110316190D01*
X126293333Y-110316190D01*
X127150476Y-109792380D02*
X127483809Y-110792380D01*
X127817142Y-109792380D01*
X128102857Y-109887619D02*
X128150476Y-109840000D01*
X128245714Y-109792380D01*
X128483809Y-109792380D01*
X128579047Y-109840000D01*
X128626666Y-109887619D01*
X128674285Y-109982857D01*
X128674285Y-110078095D01*
X128626666Y-110220952D01*
X128055238Y-110792380D01*
X128674285Y-110792380D01*
G04 #@! TO.C,RV1*
X126864761Y-116292380D02*
X126531428Y-115816190D01*
X126293333Y-116292380D02*
X126293333Y-115292380D01*
X126674285Y-115292380D01*
X126769523Y-115340000D01*
X126817142Y-115387619D01*
X126864761Y-115482857D01*
X126864761Y-115625714D01*
X126817142Y-115720952D01*
X126769523Y-115768571D01*
X126674285Y-115816190D01*
X126293333Y-115816190D01*
X127150476Y-115292380D02*
X127483809Y-116292380D01*
X127817142Y-115292380D01*
X128674285Y-116292380D02*
X128102857Y-116292380D01*
X128388571Y-116292380D02*
X128388571Y-115292380D01*
X128293333Y-115435238D01*
X128198095Y-115530476D01*
X128102857Y-115578095D01*
G04 #@! TO.C,D7*
X109571904Y-128832380D02*
X109571904Y-127832380D01*
X109810000Y-127832380D01*
X109952857Y-127880000D01*
X110048095Y-127975238D01*
X110095714Y-128070476D01*
X110143333Y-128260952D01*
X110143333Y-128403809D01*
X110095714Y-128594285D01*
X110048095Y-128689523D01*
X109952857Y-128784761D01*
X109810000Y-128832380D01*
X109571904Y-128832380D01*
X110476666Y-127832380D02*
X111143333Y-127832380D01*
X110714761Y-128832380D01*
X106238095Y-129152380D02*
X106238095Y-128152380D01*
X106809523Y-129152380D02*
X106380952Y-128580952D01*
X106809523Y-128152380D02*
X106238095Y-128723809D01*
G04 #@! TO.C,U2*
X125158095Y-144782380D02*
X125158095Y-145591904D01*
X125205714Y-145687142D01*
X125253333Y-145734761D01*
X125348571Y-145782380D01*
X125539047Y-145782380D01*
X125634285Y-145734761D01*
X125681904Y-145687142D01*
X125729523Y-145591904D01*
X125729523Y-144782380D01*
X126158095Y-144877619D02*
X126205714Y-144830000D01*
X126300952Y-144782380D01*
X126539047Y-144782380D01*
X126634285Y-144830000D01*
X126681904Y-144877619D01*
X126729523Y-144972857D01*
X126729523Y-145068095D01*
X126681904Y-145210952D01*
X126110476Y-145782380D01*
X126729523Y-145782380D01*
G04 #@! TO.C,J1*
X128452380Y-86293333D02*
X129166666Y-86293333D01*
X129309523Y-86340952D01*
X129404761Y-86436190D01*
X129452380Y-86579047D01*
X129452380Y-86674285D01*
X129452380Y-85293333D02*
X129452380Y-85864761D01*
X129452380Y-85579047D02*
X128452380Y-85579047D01*
X128595238Y-85674285D01*
X128690476Y-85769523D01*
X128738095Y-85864761D01*
G04 #@! TO.C,D6*
X109341904Y-131982380D02*
X109341904Y-130982380D01*
X109580000Y-130982380D01*
X109722857Y-131030000D01*
X109818095Y-131125238D01*
X109865714Y-131220476D01*
X109913333Y-131410952D01*
X109913333Y-131553809D01*
X109865714Y-131744285D01*
X109818095Y-131839523D01*
X109722857Y-131934761D01*
X109580000Y-131982380D01*
X109341904Y-131982380D01*
X110770476Y-130982380D02*
X110580000Y-130982380D01*
X110484761Y-131030000D01*
X110437142Y-131077619D01*
X110341904Y-131220476D01*
X110294285Y-131410952D01*
X110294285Y-131791904D01*
X110341904Y-131887142D01*
X110389523Y-131934761D01*
X110484761Y-131982380D01*
X110675238Y-131982380D01*
X110770476Y-131934761D01*
X110818095Y-131887142D01*
X110865714Y-131791904D01*
X110865714Y-131553809D01*
X110818095Y-131458571D01*
X110770476Y-131410952D01*
X110675238Y-131363333D01*
X110484761Y-131363333D01*
X110389523Y-131410952D01*
X110341904Y-131458571D01*
X110294285Y-131553809D01*
X104738095Y-132352380D02*
X104738095Y-131352380D01*
X105309523Y-132352380D02*
X104880952Y-131780952D01*
X105309523Y-131352380D02*
X104738095Y-131923809D01*
G04 #@! TO.C,D4*
X102992380Y-113968095D02*
X101992380Y-113968095D01*
X101992380Y-113730000D01*
X102040000Y-113587142D01*
X102135238Y-113491904D01*
X102230476Y-113444285D01*
X102420952Y-113396666D01*
X102563809Y-113396666D01*
X102754285Y-113444285D01*
X102849523Y-113491904D01*
X102944761Y-113587142D01*
X102992380Y-113730000D01*
X102992380Y-113968095D01*
X102325714Y-112539523D02*
X102992380Y-112539523D01*
X101944761Y-112777619D02*
X102659047Y-113015714D01*
X102659047Y-112396666D01*
G04 #@! TO.C,R10*
X114667142Y-110082380D02*
X114333809Y-109606190D01*
X114095714Y-110082380D02*
X114095714Y-109082380D01*
X114476666Y-109082380D01*
X114571904Y-109130000D01*
X114619523Y-109177619D01*
X114667142Y-109272857D01*
X114667142Y-109415714D01*
X114619523Y-109510952D01*
X114571904Y-109558571D01*
X114476666Y-109606190D01*
X114095714Y-109606190D01*
X115619523Y-110082380D02*
X115048095Y-110082380D01*
X115333809Y-110082380D02*
X115333809Y-109082380D01*
X115238571Y-109225238D01*
X115143333Y-109320476D01*
X115048095Y-109368095D01*
X116238571Y-109082380D02*
X116333809Y-109082380D01*
X116429047Y-109130000D01*
X116476666Y-109177619D01*
X116524285Y-109272857D01*
X116571904Y-109463333D01*
X116571904Y-109701428D01*
X116524285Y-109891904D01*
X116476666Y-109987142D01*
X116429047Y-110034761D01*
X116333809Y-110082380D01*
X116238571Y-110082380D01*
X116143333Y-110034761D01*
X116095714Y-109987142D01*
X116048095Y-109891904D01*
X116000476Y-109701428D01*
X116000476Y-109463333D01*
X116048095Y-109272857D01*
X116095714Y-109177619D01*
X116143333Y-109130000D01*
X116238571Y-109082380D01*
G04 #@! TO.C,C4*
X120083333Y-90107142D02*
X120035714Y-90154761D01*
X119892857Y-90202380D01*
X119797619Y-90202380D01*
X119654761Y-90154761D01*
X119559523Y-90059523D01*
X119511904Y-89964285D01*
X119464285Y-89773809D01*
X119464285Y-89630952D01*
X119511904Y-89440476D01*
X119559523Y-89345238D01*
X119654761Y-89250000D01*
X119797619Y-89202380D01*
X119892857Y-89202380D01*
X120035714Y-89250000D01*
X120083333Y-89297619D01*
X120940476Y-89535714D02*
X120940476Y-90202380D01*
X120702380Y-89154761D02*
X120464285Y-89869047D01*
X121083333Y-89869047D01*
G04 #@! TO.C,C5*
X107583333Y-91607142D02*
X107535714Y-91654761D01*
X107392857Y-91702380D01*
X107297619Y-91702380D01*
X107154761Y-91654761D01*
X107059523Y-91559523D01*
X107011904Y-91464285D01*
X106964285Y-91273809D01*
X106964285Y-91130952D01*
X107011904Y-90940476D01*
X107059523Y-90845238D01*
X107154761Y-90750000D01*
X107297619Y-90702380D01*
X107392857Y-90702380D01*
X107535714Y-90750000D01*
X107583333Y-90797619D01*
X108488095Y-90702380D02*
X108011904Y-90702380D01*
X107964285Y-91178571D01*
X108011904Y-91130952D01*
X108107142Y-91083333D01*
X108345238Y-91083333D01*
X108440476Y-91130952D01*
X108488095Y-91178571D01*
X108535714Y-91273809D01*
X108535714Y-91511904D01*
X108488095Y-91607142D01*
X108440476Y-91654761D01*
X108345238Y-91702380D01*
X108107142Y-91702380D01*
X108011904Y-91654761D01*
X107964285Y-91607142D01*
G04 #@! TO.C,Q1*
X127444761Y-60047619D02*
X127349523Y-60000000D01*
X127254285Y-59904761D01*
X127111428Y-59761904D01*
X127016190Y-59714285D01*
X126920952Y-59714285D01*
X126968571Y-59952380D02*
X126873333Y-59904761D01*
X126778095Y-59809523D01*
X126730476Y-59619047D01*
X126730476Y-59285714D01*
X126778095Y-59095238D01*
X126873333Y-59000000D01*
X126968571Y-58952380D01*
X127159047Y-58952380D01*
X127254285Y-59000000D01*
X127349523Y-59095238D01*
X127397142Y-59285714D01*
X127397142Y-59619047D01*
X127349523Y-59809523D01*
X127254285Y-59904761D01*
X127159047Y-59952380D01*
X126968571Y-59952380D01*
X128349523Y-59952380D02*
X127778095Y-59952380D01*
X128063809Y-59952380D02*
X128063809Y-58952380D01*
X127968571Y-59095238D01*
X127873333Y-59190476D01*
X127778095Y-59238095D01*
G04 #@! TO.C,Q2*
X127444761Y-50547619D02*
X127349523Y-50500000D01*
X127254285Y-50404761D01*
X127111428Y-50261904D01*
X127016190Y-50214285D01*
X126920952Y-50214285D01*
X126968571Y-50452380D02*
X126873333Y-50404761D01*
X126778095Y-50309523D01*
X126730476Y-50119047D01*
X126730476Y-49785714D01*
X126778095Y-49595238D01*
X126873333Y-49500000D01*
X126968571Y-49452380D01*
X127159047Y-49452380D01*
X127254285Y-49500000D01*
X127349523Y-49595238D01*
X127397142Y-49785714D01*
X127397142Y-50119047D01*
X127349523Y-50309523D01*
X127254285Y-50404761D01*
X127159047Y-50452380D01*
X126968571Y-50452380D01*
X127778095Y-49547619D02*
X127825714Y-49500000D01*
X127920952Y-49452380D01*
X128159047Y-49452380D01*
X128254285Y-49500000D01*
X128301904Y-49547619D01*
X128349523Y-49642857D01*
X128349523Y-49738095D01*
X128301904Y-49880952D01*
X127730476Y-50452380D01*
X128349523Y-50452380D01*
G04 #@! TO.C,Q3*
X127404761Y-55547619D02*
X127309523Y-55500000D01*
X127214285Y-55404761D01*
X127071428Y-55261904D01*
X126976190Y-55214285D01*
X126880952Y-55214285D01*
X126928571Y-55452380D02*
X126833333Y-55404761D01*
X126738095Y-55309523D01*
X126690476Y-55119047D01*
X126690476Y-54785714D01*
X126738095Y-54595238D01*
X126833333Y-54500000D01*
X126928571Y-54452380D01*
X127119047Y-54452380D01*
X127214285Y-54500000D01*
X127309523Y-54595238D01*
X127357142Y-54785714D01*
X127357142Y-55119047D01*
X127309523Y-55309523D01*
X127214285Y-55404761D01*
X127119047Y-55452380D01*
X126928571Y-55452380D01*
X127690476Y-54452380D02*
X128309523Y-54452380D01*
X127976190Y-54833333D01*
X128119047Y-54833333D01*
X128214285Y-54880952D01*
X128261904Y-54928571D01*
X128309523Y-55023809D01*
X128309523Y-55261904D01*
X128261904Y-55357142D01*
X128214285Y-55404761D01*
X128119047Y-55452380D01*
X127833333Y-55452380D01*
X127738095Y-55404761D01*
X127690476Y-55357142D01*
G04 #@! TO.C,EoC_J1*
X112095238Y-143428571D02*
X112428571Y-143428571D01*
X112571428Y-143952380D02*
X112095238Y-143952380D01*
X112095238Y-142952380D01*
X112571428Y-142952380D01*
X113142857Y-143952380D02*
X113047619Y-143904761D01*
X113000000Y-143857142D01*
X112952380Y-143761904D01*
X112952380Y-143476190D01*
X113000000Y-143380952D01*
X113047619Y-143333333D01*
X113142857Y-143285714D01*
X113285714Y-143285714D01*
X113380952Y-143333333D01*
X113428571Y-143380952D01*
X113476190Y-143476190D01*
X113476190Y-143761904D01*
X113428571Y-143857142D01*
X113380952Y-143904761D01*
X113285714Y-143952380D01*
X113142857Y-143952380D01*
X114476190Y-143857142D02*
X114428571Y-143904761D01*
X114285714Y-143952380D01*
X114190476Y-143952380D01*
X114047619Y-143904761D01*
X113952380Y-143809523D01*
X113904761Y-143714285D01*
X113857142Y-143523809D01*
X113857142Y-143380952D01*
X113904761Y-143190476D01*
X113952380Y-143095238D01*
X114047619Y-143000000D01*
X114190476Y-142952380D01*
X114285714Y-142952380D01*
X114428571Y-143000000D01*
X114476190Y-143047619D01*
X114666666Y-144047619D02*
X115428571Y-144047619D01*
X115952380Y-142952380D02*
X115952380Y-143666666D01*
X115904761Y-143809523D01*
X115809523Y-143904761D01*
X115666666Y-143952380D01*
X115571428Y-143952380D01*
X116952380Y-143952380D02*
X116380952Y-143952380D01*
X116666666Y-143952380D02*
X116666666Y-142952380D01*
X116571428Y-143095238D01*
X116476190Y-143190476D01*
X116380952Y-143238095D01*
G04 #@! TO.C,GATE_J2*
X111761904Y-107000000D02*
X111666666Y-106952380D01*
X111523809Y-106952380D01*
X111380952Y-107000000D01*
X111285714Y-107095238D01*
X111238095Y-107190476D01*
X111190476Y-107380952D01*
X111190476Y-107523809D01*
X111238095Y-107714285D01*
X111285714Y-107809523D01*
X111380952Y-107904761D01*
X111523809Y-107952380D01*
X111619047Y-107952380D01*
X111761904Y-107904761D01*
X111809523Y-107857142D01*
X111809523Y-107523809D01*
X111619047Y-107523809D01*
X112190476Y-107666666D02*
X112666666Y-107666666D01*
X112095238Y-107952380D02*
X112428571Y-106952380D01*
X112761904Y-107952380D01*
X112952380Y-106952380D02*
X113523809Y-106952380D01*
X113238095Y-107952380D02*
X113238095Y-106952380D01*
X113857142Y-107428571D02*
X114190476Y-107428571D01*
X114333333Y-107952380D02*
X113857142Y-107952380D01*
X113857142Y-106952380D01*
X114333333Y-106952380D01*
X114523809Y-108047619D02*
X115285714Y-108047619D01*
X115809523Y-106952380D02*
X115809523Y-107666666D01*
X115761904Y-107809523D01*
X115666666Y-107904761D01*
X115523809Y-107952380D01*
X115428571Y-107952380D01*
X116238095Y-107047619D02*
X116285714Y-107000000D01*
X116380952Y-106952380D01*
X116619047Y-106952380D01*
X116714285Y-107000000D01*
X116761904Y-107047619D01*
X116809523Y-107142857D01*
X116809523Y-107238095D01*
X116761904Y-107380952D01*
X116190476Y-107952380D01*
X116809523Y-107952380D01*
G04 #@! TO.C,OUT_J4*
X112261904Y-124952380D02*
X112452380Y-124952380D01*
X112547619Y-125000000D01*
X112642857Y-125095238D01*
X112690476Y-125285714D01*
X112690476Y-125619047D01*
X112642857Y-125809523D01*
X112547619Y-125904761D01*
X112452380Y-125952380D01*
X112261904Y-125952380D01*
X112166666Y-125904761D01*
X112071428Y-125809523D01*
X112023809Y-125619047D01*
X112023809Y-125285714D01*
X112071428Y-125095238D01*
X112166666Y-125000000D01*
X112261904Y-124952380D01*
X113119047Y-124952380D02*
X113119047Y-125761904D01*
X113166666Y-125857142D01*
X113214285Y-125904761D01*
X113309523Y-125952380D01*
X113500000Y-125952380D01*
X113595238Y-125904761D01*
X113642857Y-125857142D01*
X113690476Y-125761904D01*
X113690476Y-124952380D01*
X114023809Y-124952380D02*
X114595238Y-124952380D01*
X114309523Y-125952380D02*
X114309523Y-124952380D01*
X114690476Y-126047619D02*
X115452380Y-126047619D01*
X115976190Y-124952380D02*
X115976190Y-125666666D01*
X115928571Y-125809523D01*
X115833333Y-125904761D01*
X115690476Y-125952380D01*
X115595238Y-125952380D01*
X116880952Y-125285714D02*
X116880952Y-125952380D01*
X116642857Y-124904761D02*
X116404761Y-125619047D01*
X117023809Y-125619047D01*
G04 #@! TO.C,Attack1*
X108576666Y-64166428D02*
X108576666Y-63690238D01*
X108862380Y-64261666D02*
X107862380Y-63928333D01*
X108862380Y-63595000D01*
X108195714Y-63404523D02*
X108195714Y-63023571D01*
X107862380Y-63261666D02*
X108719523Y-63261666D01*
X108814761Y-63214047D01*
X108862380Y-63118809D01*
X108862380Y-63023571D01*
X108195714Y-62833095D02*
X108195714Y-62452142D01*
X107862380Y-62690238D02*
X108719523Y-62690238D01*
X108814761Y-62642619D01*
X108862380Y-62547380D01*
X108862380Y-62452142D01*
X108862380Y-61690238D02*
X108338571Y-61690238D01*
X108243333Y-61737857D01*
X108195714Y-61833095D01*
X108195714Y-62023571D01*
X108243333Y-62118809D01*
X108814761Y-61690238D02*
X108862380Y-61785476D01*
X108862380Y-62023571D01*
X108814761Y-62118809D01*
X108719523Y-62166428D01*
X108624285Y-62166428D01*
X108529047Y-62118809D01*
X108481428Y-62023571D01*
X108481428Y-61785476D01*
X108433809Y-61690238D01*
X108814761Y-60785476D02*
X108862380Y-60880714D01*
X108862380Y-61071190D01*
X108814761Y-61166428D01*
X108767142Y-61214047D01*
X108671904Y-61261666D01*
X108386190Y-61261666D01*
X108290952Y-61214047D01*
X108243333Y-61166428D01*
X108195714Y-61071190D01*
X108195714Y-60880714D01*
X108243333Y-60785476D01*
X108862380Y-60356904D02*
X107862380Y-60356904D01*
X108481428Y-60261666D02*
X108862380Y-59975952D01*
X108195714Y-59975952D02*
X108576666Y-60356904D01*
X108862380Y-59023571D02*
X108862380Y-59595000D01*
X108862380Y-59309285D02*
X107862380Y-59309285D01*
X108005238Y-59404523D01*
X108100476Y-59499761D01*
X108148095Y-59595000D01*
G04 #@! TO.C,Decay1*
X108452380Y-86588571D02*
X107452380Y-86588571D01*
X107452380Y-86350476D01*
X107500000Y-86207619D01*
X107595238Y-86112380D01*
X107690476Y-86064761D01*
X107880952Y-86017142D01*
X108023809Y-86017142D01*
X108214285Y-86064761D01*
X108309523Y-86112380D01*
X108404761Y-86207619D01*
X108452380Y-86350476D01*
X108452380Y-86588571D01*
X108404761Y-85207619D02*
X108452380Y-85302857D01*
X108452380Y-85493333D01*
X108404761Y-85588571D01*
X108309523Y-85636190D01*
X107928571Y-85636190D01*
X107833333Y-85588571D01*
X107785714Y-85493333D01*
X107785714Y-85302857D01*
X107833333Y-85207619D01*
X107928571Y-85160000D01*
X108023809Y-85160000D01*
X108119047Y-85636190D01*
X108404761Y-84302857D02*
X108452380Y-84398095D01*
X108452380Y-84588571D01*
X108404761Y-84683809D01*
X108357142Y-84731428D01*
X108261904Y-84779047D01*
X107976190Y-84779047D01*
X107880952Y-84731428D01*
X107833333Y-84683809D01*
X107785714Y-84588571D01*
X107785714Y-84398095D01*
X107833333Y-84302857D01*
X108452380Y-83445714D02*
X107928571Y-83445714D01*
X107833333Y-83493333D01*
X107785714Y-83588571D01*
X107785714Y-83779047D01*
X107833333Y-83874285D01*
X108404761Y-83445714D02*
X108452380Y-83540952D01*
X108452380Y-83779047D01*
X108404761Y-83874285D01*
X108309523Y-83921904D01*
X108214285Y-83921904D01*
X108119047Y-83874285D01*
X108071428Y-83779047D01*
X108071428Y-83540952D01*
X108023809Y-83445714D01*
X107785714Y-83064761D02*
X108452380Y-82826666D01*
X107785714Y-82588571D02*
X108452380Y-82826666D01*
X108690476Y-82921904D01*
X108738095Y-82969523D01*
X108785714Y-83064761D01*
X108452380Y-81683809D02*
X108452380Y-82255238D01*
X108452380Y-81969523D02*
X107452380Y-81969523D01*
X107595238Y-82064761D01*
X107690476Y-82160000D01*
X107738095Y-82255238D01*
G04 #@! TO.C,C1*
X113833333Y-57357142D02*
X113785714Y-57404761D01*
X113642857Y-57452380D01*
X113547619Y-57452380D01*
X113404761Y-57404761D01*
X113309523Y-57309523D01*
X113261904Y-57214285D01*
X113214285Y-57023809D01*
X113214285Y-56880952D01*
X113261904Y-56690476D01*
X113309523Y-56595238D01*
X113404761Y-56500000D01*
X113547619Y-56452380D01*
X113642857Y-56452380D01*
X113785714Y-56500000D01*
X113833333Y-56547619D01*
X114785714Y-57452380D02*
X114214285Y-57452380D01*
X114500000Y-57452380D02*
X114500000Y-56452380D01*
X114404761Y-56595238D01*
X114309523Y-56690476D01*
X114214285Y-56738095D01*
G04 #@! TO.C,C2*
X124833333Y-68357142D02*
X124785714Y-68404761D01*
X124642857Y-68452380D01*
X124547619Y-68452380D01*
X124404761Y-68404761D01*
X124309523Y-68309523D01*
X124261904Y-68214285D01*
X124214285Y-68023809D01*
X124214285Y-67880952D01*
X124261904Y-67690476D01*
X124309523Y-67595238D01*
X124404761Y-67500000D01*
X124547619Y-67452380D01*
X124642857Y-67452380D01*
X124785714Y-67500000D01*
X124833333Y-67547619D01*
X125214285Y-67547619D02*
X125261904Y-67500000D01*
X125357142Y-67452380D01*
X125595238Y-67452380D01*
X125690476Y-67500000D01*
X125738095Y-67547619D01*
X125785714Y-67642857D01*
X125785714Y-67738095D01*
X125738095Y-67880952D01*
X125166666Y-68452380D01*
X125785714Y-68452380D01*
G04 #@! TO.C,C3*
X116618333Y-86357142D02*
X116570714Y-86404761D01*
X116427857Y-86452380D01*
X116332619Y-86452380D01*
X116189761Y-86404761D01*
X116094523Y-86309523D01*
X116046904Y-86214285D01*
X115999285Y-86023809D01*
X115999285Y-85880952D01*
X116046904Y-85690476D01*
X116094523Y-85595238D01*
X116189761Y-85500000D01*
X116332619Y-85452380D01*
X116427857Y-85452380D01*
X116570714Y-85500000D01*
X116618333Y-85547619D01*
X116951666Y-85452380D02*
X117570714Y-85452380D01*
X117237380Y-85833333D01*
X117380238Y-85833333D01*
X117475476Y-85880952D01*
X117523095Y-85928571D01*
X117570714Y-86023809D01*
X117570714Y-86261904D01*
X117523095Y-86357142D01*
X117475476Y-86404761D01*
X117380238Y-86452380D01*
X117094523Y-86452380D01*
X116999285Y-86404761D01*
X116951666Y-86357142D01*
G04 #@! TO.C,D1*
X110706904Y-98452380D02*
X110706904Y-97452380D01*
X110945000Y-97452380D01*
X111087857Y-97500000D01*
X111183095Y-97595238D01*
X111230714Y-97690476D01*
X111278333Y-97880952D01*
X111278333Y-98023809D01*
X111230714Y-98214285D01*
X111183095Y-98309523D01*
X111087857Y-98404761D01*
X110945000Y-98452380D01*
X110706904Y-98452380D01*
X112230714Y-98452380D02*
X111659285Y-98452380D01*
X111945000Y-98452380D02*
X111945000Y-97452380D01*
X111849761Y-97595238D01*
X111754523Y-97690476D01*
X111659285Y-97738095D01*
X106738095Y-96652380D02*
X106738095Y-95652380D01*
X107309523Y-96652380D02*
X106880952Y-96080952D01*
X107309523Y-95652380D02*
X106738095Y-96223809D01*
G04 #@! TO.C,D2*
X114656904Y-63237380D02*
X114656904Y-62237380D01*
X114895000Y-62237380D01*
X115037857Y-62285000D01*
X115133095Y-62380238D01*
X115180714Y-62475476D01*
X115228333Y-62665952D01*
X115228333Y-62808809D01*
X115180714Y-62999285D01*
X115133095Y-63094523D01*
X115037857Y-63189761D01*
X114895000Y-63237380D01*
X114656904Y-63237380D01*
X115609285Y-62332619D02*
X115656904Y-62285000D01*
X115752142Y-62237380D01*
X115990238Y-62237380D01*
X116085476Y-62285000D01*
X116133095Y-62332619D01*
X116180714Y-62427857D01*
X116180714Y-62523095D01*
X116133095Y-62665952D01*
X115561666Y-63237380D01*
X116180714Y-63237380D01*
X111323095Y-61437380D02*
X111323095Y-60437380D01*
X111894523Y-61437380D02*
X111465952Y-60865952D01*
X111894523Y-60437380D02*
X111323095Y-61008809D01*
G04 #@! TO.C,D3*
X114451904Y-51452380D02*
X114451904Y-50452380D01*
X114690000Y-50452380D01*
X114832857Y-50500000D01*
X114928095Y-50595238D01*
X114975714Y-50690476D01*
X115023333Y-50880952D01*
X115023333Y-51023809D01*
X114975714Y-51214285D01*
X114928095Y-51309523D01*
X114832857Y-51404761D01*
X114690000Y-51452380D01*
X114451904Y-51452380D01*
X115356666Y-50452380D02*
X115975714Y-50452380D01*
X115642380Y-50833333D01*
X115785238Y-50833333D01*
X115880476Y-50880952D01*
X115928095Y-50928571D01*
X115975714Y-51023809D01*
X115975714Y-51261904D01*
X115928095Y-51357142D01*
X115880476Y-51404761D01*
X115785238Y-51452380D01*
X115499523Y-51452380D01*
X115404285Y-51404761D01*
X115356666Y-51357142D01*
X118738095Y-53252380D02*
X118738095Y-52252380D01*
X119309523Y-53252380D02*
X118880952Y-52680952D01*
X119309523Y-52252380D02*
X118738095Y-52823809D01*
G04 #@! TO.C,D5*
X114571904Y-74452380D02*
X114571904Y-73452380D01*
X114810000Y-73452380D01*
X114952857Y-73500000D01*
X115048095Y-73595238D01*
X115095714Y-73690476D01*
X115143333Y-73880952D01*
X115143333Y-74023809D01*
X115095714Y-74214285D01*
X115048095Y-74309523D01*
X114952857Y-74404761D01*
X114810000Y-74452380D01*
X114571904Y-74452380D01*
X116048095Y-73452380D02*
X115571904Y-73452380D01*
X115524285Y-73928571D01*
X115571904Y-73880952D01*
X115667142Y-73833333D01*
X115905238Y-73833333D01*
X116000476Y-73880952D01*
X116048095Y-73928571D01*
X116095714Y-74023809D01*
X116095714Y-74261904D01*
X116048095Y-74357142D01*
X116000476Y-74404761D01*
X115905238Y-74452380D01*
X115667142Y-74452380D01*
X115571904Y-74404761D01*
X115524285Y-74357142D01*
X111238095Y-72652380D02*
X111238095Y-71652380D01*
X111809523Y-72652380D02*
X111380952Y-72080952D01*
X111809523Y-71652380D02*
X111238095Y-72223809D01*
G04 #@! TO.C,R2*
X115228333Y-71532380D02*
X114895000Y-71056190D01*
X114656904Y-71532380D02*
X114656904Y-70532380D01*
X115037857Y-70532380D01*
X115133095Y-70580000D01*
X115180714Y-70627619D01*
X115228333Y-70722857D01*
X115228333Y-70865714D01*
X115180714Y-70960952D01*
X115133095Y-71008571D01*
X115037857Y-71056190D01*
X114656904Y-71056190D01*
X115609285Y-70627619D02*
X115656904Y-70580000D01*
X115752142Y-70532380D01*
X115990238Y-70532380D01*
X116085476Y-70580000D01*
X116133095Y-70627619D01*
X116180714Y-70722857D01*
X116180714Y-70818095D01*
X116133095Y-70960952D01*
X115561666Y-71532380D01*
X116180714Y-71532380D01*
G04 #@! TO.C,R5*
X115023333Y-60452380D02*
X114690000Y-59976190D01*
X114451904Y-60452380D02*
X114451904Y-59452380D01*
X114832857Y-59452380D01*
X114928095Y-59500000D01*
X114975714Y-59547619D01*
X115023333Y-59642857D01*
X115023333Y-59785714D01*
X114975714Y-59880952D01*
X114928095Y-59928571D01*
X114832857Y-59976190D01*
X114451904Y-59976190D01*
X115928095Y-59452380D02*
X115451904Y-59452380D01*
X115404285Y-59928571D01*
X115451904Y-59880952D01*
X115547142Y-59833333D01*
X115785238Y-59833333D01*
X115880476Y-59880952D01*
X115928095Y-59928571D01*
X115975714Y-60023809D01*
X115975714Y-60261904D01*
X115928095Y-60357142D01*
X115880476Y-60404761D01*
X115785238Y-60452380D01*
X115547142Y-60452380D01*
X115451904Y-60404761D01*
X115404285Y-60357142D01*
G04 #@! TO.C,R6*
X115388333Y-79897380D02*
X115055000Y-79421190D01*
X114816904Y-79897380D02*
X114816904Y-78897380D01*
X115197857Y-78897380D01*
X115293095Y-78945000D01*
X115340714Y-78992619D01*
X115388333Y-79087857D01*
X115388333Y-79230714D01*
X115340714Y-79325952D01*
X115293095Y-79373571D01*
X115197857Y-79421190D01*
X114816904Y-79421190D01*
X116245476Y-78897380D02*
X116055000Y-78897380D01*
X115959761Y-78945000D01*
X115912142Y-78992619D01*
X115816904Y-79135476D01*
X115769285Y-79325952D01*
X115769285Y-79706904D01*
X115816904Y-79802142D01*
X115864523Y-79849761D01*
X115959761Y-79897380D01*
X116150238Y-79897380D01*
X116245476Y-79849761D01*
X116293095Y-79802142D01*
X116340714Y-79706904D01*
X116340714Y-79468809D01*
X116293095Y-79373571D01*
X116245476Y-79325952D01*
X116150238Y-79278333D01*
X115959761Y-79278333D01*
X115864523Y-79325952D01*
X115816904Y-79373571D01*
X115769285Y-79468809D01*
G04 #@! TO.C,R8*
X115228333Y-54452380D02*
X114895000Y-53976190D01*
X114656904Y-54452380D02*
X114656904Y-53452380D01*
X115037857Y-53452380D01*
X115133095Y-53500000D01*
X115180714Y-53547619D01*
X115228333Y-53642857D01*
X115228333Y-53785714D01*
X115180714Y-53880952D01*
X115133095Y-53928571D01*
X115037857Y-53976190D01*
X114656904Y-53976190D01*
X115799761Y-53880952D02*
X115704523Y-53833333D01*
X115656904Y-53785714D01*
X115609285Y-53690476D01*
X115609285Y-53642857D01*
X115656904Y-53547619D01*
X115704523Y-53500000D01*
X115799761Y-53452380D01*
X115990238Y-53452380D01*
X116085476Y-53500000D01*
X116133095Y-53547619D01*
X116180714Y-53642857D01*
X116180714Y-53690476D01*
X116133095Y-53785714D01*
X116085476Y-53833333D01*
X115990238Y-53880952D01*
X115799761Y-53880952D01*
X115704523Y-53928571D01*
X115656904Y-53976190D01*
X115609285Y-54071428D01*
X115609285Y-54261904D01*
X115656904Y-54357142D01*
X115704523Y-54404761D01*
X115799761Y-54452380D01*
X115990238Y-54452380D01*
X116085476Y-54404761D01*
X116133095Y-54357142D01*
X116180714Y-54261904D01*
X116180714Y-54071428D01*
X116133095Y-53976190D01*
X116085476Y-53928571D01*
X115990238Y-53880952D01*
G04 #@! TO.C,R9*
X115143333Y-76952380D02*
X114810000Y-76476190D01*
X114571904Y-76952380D02*
X114571904Y-75952380D01*
X114952857Y-75952380D01*
X115048095Y-76000000D01*
X115095714Y-76047619D01*
X115143333Y-76142857D01*
X115143333Y-76285714D01*
X115095714Y-76380952D01*
X115048095Y-76428571D01*
X114952857Y-76476190D01*
X114571904Y-76476190D01*
X115619523Y-76952380D02*
X115810000Y-76952380D01*
X115905238Y-76904761D01*
X115952857Y-76857142D01*
X116048095Y-76714285D01*
X116095714Y-76523809D01*
X116095714Y-76142857D01*
X116048095Y-76047619D01*
X116000476Y-76000000D01*
X115905238Y-75952380D01*
X115714761Y-75952380D01*
X115619523Y-76000000D01*
X115571904Y-76047619D01*
X115524285Y-76142857D01*
X115524285Y-76380952D01*
X115571904Y-76476190D01*
X115619523Y-76523809D01*
X115714761Y-76571428D01*
X115905238Y-76571428D01*
X116000476Y-76523809D01*
X116048095Y-76476190D01*
X116095714Y-76380952D01*
G04 #@! TO.C,R4*
X115388333Y-83072380D02*
X115055000Y-82596190D01*
X114816904Y-83072380D02*
X114816904Y-82072380D01*
X115197857Y-82072380D01*
X115293095Y-82120000D01*
X115340714Y-82167619D01*
X115388333Y-82262857D01*
X115388333Y-82405714D01*
X115340714Y-82500952D01*
X115293095Y-82548571D01*
X115197857Y-82596190D01*
X114816904Y-82596190D01*
X116245476Y-82405714D02*
X116245476Y-83072380D01*
X116007380Y-82024761D02*
X115769285Y-82739047D01*
X116388333Y-82739047D01*
G04 #@! TO.C,R3*
X115228333Y-68357380D02*
X114895000Y-67881190D01*
X114656904Y-68357380D02*
X114656904Y-67357380D01*
X115037857Y-67357380D01*
X115133095Y-67405000D01*
X115180714Y-67452619D01*
X115228333Y-67547857D01*
X115228333Y-67690714D01*
X115180714Y-67785952D01*
X115133095Y-67833571D01*
X115037857Y-67881190D01*
X114656904Y-67881190D01*
X115561666Y-67357380D02*
X116180714Y-67357380D01*
X115847380Y-67738333D01*
X115990238Y-67738333D01*
X116085476Y-67785952D01*
X116133095Y-67833571D01*
X116180714Y-67928809D01*
X116180714Y-68166904D01*
X116133095Y-68262142D01*
X116085476Y-68309761D01*
X115990238Y-68357380D01*
X115704523Y-68357380D01*
X115609285Y-68309761D01*
X115561666Y-68262142D01*
G04 #@! TO.C,U1*
X125428095Y-74642380D02*
X125428095Y-75451904D01*
X125475714Y-75547142D01*
X125523333Y-75594761D01*
X125618571Y-75642380D01*
X125809047Y-75642380D01*
X125904285Y-75594761D01*
X125951904Y-75547142D01*
X125999523Y-75451904D01*
X125999523Y-74642380D01*
X126999523Y-75642380D02*
X126428095Y-75642380D01*
X126713809Y-75642380D02*
X126713809Y-74642380D01*
X126618571Y-74785238D01*
X126523333Y-74880476D01*
X126428095Y-74928095D01*
G04 #@! TD*
M02*
