M48
;DRILL file {KiCad 5.0.1} date Mo 06 Mai 2019 23:45:29 CEST
;FORMAT={-:-/ absolute / metric / decimal}
FMAT,2
METRIC,TZ
T1C0.400
T2C0.800
T3C0.900
T4C1.000
T5C1.100
%
G90
G05
M71
T1
X120.615Y-66.5
T2
X111.585Y-67.905
X119.205Y-67.905
X111.745Y-82.62
X119.365Y-82.62
X106.5Y-130.5
X114.12Y-130.5
X111.38Y-60.
X119.Y-60.
X111.745Y-79.445
X119.365Y-79.445
X122.38Y-71.38
X122.38Y-73.92
X122.38Y-76.46
X122.38Y-79.
X130.Y-71.38
X130.Y-73.92
X130.Y-76.46
X130.Y-79.
X107.Y-98.
X114.62Y-98.
X111.5Y-74.
X119.12Y-74.
X124.92Y-119.5
X127.46Y-119.5
X130.Y-119.5
X120.84Y-127.76
X120.84Y-130.3
X120.84Y-132.84
X120.84Y-135.38
X120.84Y-137.92
X120.84Y-140.46
X120.84Y-143.
X131.Y-127.76
X131.Y-130.3
X131.Y-132.84
X131.Y-135.38
X131.Y-137.92
X131.Y-140.46
X131.Y-143.
X124.92Y-114.
X127.46Y-114.
X130.Y-114.
X111.5Y-76.5
X119.12Y-76.5
X122.5Y-68.
X127.5Y-68.
X125.Y-61.5
X127.54Y-61.5
X130.08Y-61.5
X111.585Y-54.
X119.205Y-54.
X111.5Y-57.
X116.5Y-57.
X125.Y-51.5
X127.54Y-51.5
X130.08Y-51.5
X111.585Y-62.785
X119.205Y-62.785
X106.5Y-87.5
X109.Y-87.5
X125.Y-56.5
X127.54Y-56.5
X130.08Y-56.5
X111.585Y-71.08
X119.205Y-71.08
X119.Y-93.5
X121.5Y-93.5
X111.38Y-51.
X119.Y-51.
X114.285Y-86.
X119.285Y-86.
X111.5Y-112.
X119.12Y-112.
T3
X106.5Y-111.96
X106.5Y-114.5
T4
X107.775Y-51.435
X107.775Y-53.935
X107.775Y-56.435
X108.Y-74.
X108.Y-76.5
X108.Y-79.
X127.Y-88.5
X127.Y-91.04
X127.Y-93.58
X127.Y-96.12
X127.Y-98.66
X129.54Y-88.5
X129.54Y-91.04
X129.54Y-93.58
X129.54Y-96.12
X129.54Y-98.66
T5
X105.Y-134.
X115.16Y-134.
T4
X104.5Y-141.G85X104.5Y-140.
G05
X106.9Y-139.G85X106.9Y-138.
G05
X112.4Y-139.G85X112.4Y-138.
G05
X104.5Y-105.G85X104.5Y-104.
G05
X106.9Y-103.G85X106.9Y-102.
G05
X112.4Y-103.G85X112.4Y-102.
G05
X104.5Y-123.G85X104.5Y-122.
G05
X106.9Y-121.G85X106.9Y-120.
G05
X112.4Y-121.G85X112.4Y-120.
G05
T0
M30
