%FSLAX45Y45*%
G04 Gerber Fmt 4.5, Leading zero omitted, Abs format (unit mm)*
G04 Created by KiCad (PCBNEW 5.1.4) date 2019-10-24 23:25:44*
%MOMM*%
%LPD*%
G04 APERTURE LIST*
%ADD10C,0.050000*%
%ADD11C,0.200000*%
%ADD12C,0.300000*%
G04 APERTURE END LIST*
D10*
X10750000Y-4150000D02*
X10750000Y-4450000D01*
X10050000Y-4150000D02*
X10400000Y-4150000D01*
X10050000Y-4450000D02*
X10050000Y-4150000D01*
X10750000Y-4450000D02*
X10050000Y-4450000D01*
X10400000Y-4150000D02*
X10750000Y-4150000D01*
X13500000Y-4150000D02*
X13500000Y-4450000D01*
X12800000Y-4150000D02*
X13150000Y-4150000D01*
X12800000Y-4450000D02*
X12800000Y-4150000D01*
X13500000Y-4450000D02*
X12800000Y-4450000D01*
X13150000Y-4150000D02*
X13500000Y-4150000D01*
X13500000Y-16400000D02*
X13500000Y-16700000D01*
X12800000Y-16400000D02*
X13150000Y-16400000D01*
X13150000Y-16400000D02*
X13500000Y-16400000D01*
X13500000Y-16700000D02*
X12800000Y-16700000D01*
X12800000Y-16700000D02*
X12800000Y-16400000D01*
X10050000Y-16700000D02*
X10050000Y-16400000D01*
X10750000Y-16700000D02*
X10050000Y-16700000D01*
X10750000Y-16400000D02*
X10750000Y-16700000D01*
X10050000Y-16400000D02*
X10750000Y-16400000D01*
X13900000Y-4000000D02*
X13900000Y-16850000D01*
X9650000Y-4000000D02*
X13900000Y-4000000D01*
X9650000Y-16850000D02*
X9650000Y-4000000D01*
X13900000Y-16850000D02*
X9650000Y-16850000D01*
D11*
X10600000Y-11450000D02*
X11200000Y-12050000D01*
X11200000Y-11450000D02*
X10600000Y-12050000D01*
X10600000Y-13000000D02*
X11200000Y-13600000D01*
X11200000Y-13000000D02*
X10600000Y-13600000D01*
X10600000Y-14550000D02*
X11200000Y-15150000D01*
X11200000Y-14550000D02*
X10600000Y-15150000D01*
X11300000Y-5900000D02*
G75*
G03X11300000Y-5900000I-400000J0D01*
G01*
X11300000Y-7900000D02*
G75*
G03X11300000Y-7900000I-400000J0D01*
G01*
X11300000Y-9900000D02*
G75*
G03X11300000Y-9900000I-400000J0D01*
G01*
X13300000Y-6850000D02*
G75*
G03X13300000Y-6850000I-400000J0D01*
G01*
X13300000Y-9900000D02*
G75*
G03X13300000Y-9900000I-400000J0D01*
G01*
D12*
X9933928Y-17318214D02*
X9933928Y-17018214D01*
X10005357Y-17018214D01*
X10048214Y-17032500D01*
X10076786Y-17061072D01*
X10091071Y-17089643D01*
X10105357Y-17146786D01*
X10105357Y-17189643D01*
X10091071Y-17246786D01*
X10076786Y-17275357D01*
X10048214Y-17303929D01*
X10005357Y-17318214D01*
X9933928Y-17318214D01*
X10233928Y-17318214D02*
X10233928Y-17118214D01*
X10233928Y-17175357D02*
X10248214Y-17146786D01*
X10262500Y-17132500D01*
X10291071Y-17118214D01*
X10319643Y-17118214D01*
X10419643Y-17318214D02*
X10419643Y-17118214D01*
X10419643Y-17018214D02*
X10405357Y-17032500D01*
X10419643Y-17046786D01*
X10433928Y-17032500D01*
X10419643Y-17018214D01*
X10419643Y-17046786D01*
X10605357Y-17318214D02*
X10576786Y-17303929D01*
X10562500Y-17275357D01*
X10562500Y-17018214D01*
X10762500Y-17318214D02*
X10733928Y-17303929D01*
X10719643Y-17275357D01*
X10719643Y-17018214D01*
X11105357Y-17318214D02*
X11105357Y-17018214D01*
X11205357Y-17232500D01*
X11305357Y-17018214D01*
X11305357Y-17318214D01*
X11576786Y-17318214D02*
X11576786Y-17161072D01*
X11562500Y-17132500D01*
X11533928Y-17118214D01*
X11476786Y-17118214D01*
X11448214Y-17132500D01*
X11576786Y-17303929D02*
X11548214Y-17318214D01*
X11476786Y-17318214D01*
X11448214Y-17303929D01*
X11433928Y-17275357D01*
X11433928Y-17246786D01*
X11448214Y-17218214D01*
X11476786Y-17203929D01*
X11548214Y-17203929D01*
X11576786Y-17189643D01*
X11719643Y-17118214D02*
X11719643Y-17418214D01*
X11719643Y-17132500D02*
X11748214Y-17118214D01*
X11805357Y-17118214D01*
X11833928Y-17132500D01*
X11848214Y-17146786D01*
X11862500Y-17175357D01*
X11862500Y-17261072D01*
X11848214Y-17289643D01*
X11833928Y-17303929D01*
X11805357Y-17318214D01*
X11748214Y-17318214D01*
X11719643Y-17303929D01*
X11991071Y-17289643D02*
X12005357Y-17303929D01*
X11991071Y-17318214D01*
X11976786Y-17303929D01*
X11991071Y-17289643D01*
X11991071Y-17318214D01*
X11991071Y-17132500D02*
X12005357Y-17146786D01*
X11991071Y-17161072D01*
X11976786Y-17146786D01*
X11991071Y-17132500D01*
X11991071Y-17161072D01*
X9047500Y-17512500D02*
X9647500Y-18112500D01*
X9647500Y-17512500D02*
X9047500Y-18112500D01*
X10062500Y-17648214D02*
X10005357Y-17648214D01*
X9976786Y-17662500D01*
X9962500Y-17676786D01*
X9933928Y-17719643D01*
X9919643Y-17776786D01*
X9919643Y-17891072D01*
X9933928Y-17919643D01*
X9948214Y-17933929D01*
X9976786Y-17948214D01*
X10033928Y-17948214D01*
X10062500Y-17933929D01*
X10076786Y-17919643D01*
X10091071Y-17891072D01*
X10091071Y-17819643D01*
X10076786Y-17791072D01*
X10062500Y-17776786D01*
X10033928Y-17762500D01*
X9976786Y-17762500D01*
X9948214Y-17776786D01*
X9933928Y-17791072D01*
X9919643Y-17819643D01*
X10219643Y-17919643D02*
X10233928Y-17933929D01*
X10219643Y-17948214D01*
X10205357Y-17933929D01*
X10219643Y-17919643D01*
X10219643Y-17948214D01*
X10419643Y-17648214D02*
X10448214Y-17648214D01*
X10476786Y-17662500D01*
X10491071Y-17676786D01*
X10505357Y-17705357D01*
X10519643Y-17762500D01*
X10519643Y-17833929D01*
X10505357Y-17891072D01*
X10491071Y-17919643D01*
X10476786Y-17933929D01*
X10448214Y-17948214D01*
X10419643Y-17948214D01*
X10391071Y-17933929D01*
X10376786Y-17919643D01*
X10362500Y-17891072D01*
X10348214Y-17833929D01*
X10348214Y-17762500D01*
X10362500Y-17705357D01*
X10376786Y-17676786D01*
X10391071Y-17662500D01*
X10419643Y-17648214D01*
X10705357Y-17648214D02*
X10733928Y-17648214D01*
X10762500Y-17662500D01*
X10776786Y-17676786D01*
X10791071Y-17705357D01*
X10805357Y-17762500D01*
X10805357Y-17833929D01*
X10791071Y-17891072D01*
X10776786Y-17919643D01*
X10762500Y-17933929D01*
X10733928Y-17948214D01*
X10705357Y-17948214D01*
X10676786Y-17933929D01*
X10662500Y-17919643D01*
X10648214Y-17891072D01*
X10633928Y-17833929D01*
X10633928Y-17762500D01*
X10648214Y-17705357D01*
X10662500Y-17676786D01*
X10676786Y-17662500D01*
X10705357Y-17648214D01*
X10933928Y-17948214D02*
X10933928Y-17748214D01*
X10933928Y-17776786D02*
X10948214Y-17762500D01*
X10976786Y-17748214D01*
X11019643Y-17748214D01*
X11048214Y-17762500D01*
X11062500Y-17791072D01*
X11062500Y-17948214D01*
X11062500Y-17791072D02*
X11076786Y-17762500D01*
X11105357Y-17748214D01*
X11148214Y-17748214D01*
X11176786Y-17762500D01*
X11191071Y-17791072D01*
X11191071Y-17948214D01*
X11333928Y-17948214D02*
X11333928Y-17748214D01*
X11333928Y-17776786D02*
X11348214Y-17762500D01*
X11376786Y-17748214D01*
X11419643Y-17748214D01*
X11448214Y-17762500D01*
X11462500Y-17791072D01*
X11462500Y-17948214D01*
X11462500Y-17791072D02*
X11476786Y-17762500D01*
X11505357Y-17748214D01*
X11548214Y-17748214D01*
X11576786Y-17762500D01*
X11591071Y-17791072D01*
X11591071Y-17948214D01*
X12176786Y-17633929D02*
X11919643Y-18019643D01*
X12562500Y-17648214D02*
X12591071Y-17648214D01*
X12619643Y-17662500D01*
X12633928Y-17676786D01*
X12648214Y-17705357D01*
X12662500Y-17762500D01*
X12662500Y-17833929D01*
X12648214Y-17891072D01*
X12633928Y-17919643D01*
X12619643Y-17933929D01*
X12591071Y-17948214D01*
X12562500Y-17948214D01*
X12533928Y-17933929D01*
X12519643Y-17919643D01*
X12505357Y-17891072D01*
X12491071Y-17833929D01*
X12491071Y-17762500D01*
X12505357Y-17705357D01*
X12519643Y-17676786D01*
X12533928Y-17662500D01*
X12562500Y-17648214D01*
X12791071Y-17919643D02*
X12805357Y-17933929D01*
X12791071Y-17948214D01*
X12776786Y-17933929D01*
X12791071Y-17919643D01*
X12791071Y-17948214D01*
X12919643Y-17676786D02*
X12933928Y-17662500D01*
X12962500Y-17648214D01*
X13033928Y-17648214D01*
X13062500Y-17662500D01*
X13076786Y-17676786D01*
X13091071Y-17705357D01*
X13091071Y-17733929D01*
X13076786Y-17776786D01*
X12905357Y-17948214D01*
X13091071Y-17948214D01*
X13191071Y-17648214D02*
X13376786Y-17648214D01*
X13276786Y-17762500D01*
X13319643Y-17762500D01*
X13348214Y-17776786D01*
X13362500Y-17791072D01*
X13376786Y-17819643D01*
X13376786Y-17891072D01*
X13362500Y-17919643D01*
X13348214Y-17933929D01*
X13319643Y-17948214D01*
X13233928Y-17948214D01*
X13205357Y-17933929D01*
X13191071Y-17919643D01*
X13633928Y-17648214D02*
X13576786Y-17648214D01*
X13548214Y-17662500D01*
X13533928Y-17676786D01*
X13505357Y-17719643D01*
X13491071Y-17776786D01*
X13491071Y-17891072D01*
X13505357Y-17919643D01*
X13519643Y-17933929D01*
X13548214Y-17948214D01*
X13605357Y-17948214D01*
X13633928Y-17933929D01*
X13648214Y-17919643D01*
X13662500Y-17891072D01*
X13662500Y-17819643D01*
X13648214Y-17791072D01*
X13633928Y-17776786D01*
X13605357Y-17762500D01*
X13548214Y-17762500D01*
X13519643Y-17776786D01*
X13505357Y-17791072D01*
X13491071Y-17819643D01*
X13776786Y-17648214D02*
X13776786Y-17705357D01*
X13891071Y-17648214D02*
X13891071Y-17705357D01*
X14333928Y-18062500D02*
X14319643Y-18048214D01*
X14291071Y-18005357D01*
X14276786Y-17976786D01*
X14262500Y-17933929D01*
X14248214Y-17862500D01*
X14248214Y-17805357D01*
X14262500Y-17733929D01*
X14276786Y-17691072D01*
X14291071Y-17662500D01*
X14319643Y-17619643D01*
X14333928Y-17605357D01*
X14419643Y-17648214D02*
X14605357Y-17648214D01*
X14505357Y-17762500D01*
X14548214Y-17762500D01*
X14576786Y-17776786D01*
X14591071Y-17791072D01*
X14605357Y-17819643D01*
X14605357Y-17891072D01*
X14591071Y-17919643D01*
X14576786Y-17933929D01*
X14548214Y-17948214D01*
X14462500Y-17948214D01*
X14433928Y-17933929D01*
X14419643Y-17919643D01*
X14962500Y-17948214D02*
X14962500Y-17648214D01*
X15091071Y-17948214D02*
X15091071Y-17791072D01*
X15076786Y-17762500D01*
X15048214Y-17748214D01*
X15005357Y-17748214D01*
X14976786Y-17762500D01*
X14962500Y-17776786D01*
X15276786Y-17948214D02*
X15248214Y-17933929D01*
X15233928Y-17919643D01*
X15219643Y-17891072D01*
X15219643Y-17805357D01*
X15233928Y-17776786D01*
X15248214Y-17762500D01*
X15276786Y-17748214D01*
X15319643Y-17748214D01*
X15348214Y-17762500D01*
X15362500Y-17776786D01*
X15376786Y-17805357D01*
X15376786Y-17891072D01*
X15362500Y-17919643D01*
X15348214Y-17933929D01*
X15319643Y-17948214D01*
X15276786Y-17948214D01*
X15548214Y-17948214D02*
X15519643Y-17933929D01*
X15505357Y-17905357D01*
X15505357Y-17648214D01*
X15776786Y-17933929D02*
X15748214Y-17948214D01*
X15691071Y-17948214D01*
X15662500Y-17933929D01*
X15648214Y-17905357D01*
X15648214Y-17791072D01*
X15662500Y-17762500D01*
X15691071Y-17748214D01*
X15748214Y-17748214D01*
X15776786Y-17762500D01*
X15791071Y-17791072D01*
X15791071Y-17819643D01*
X15648214Y-17848214D01*
X15905357Y-17933929D02*
X15933928Y-17948214D01*
X15991071Y-17948214D01*
X16019643Y-17933929D01*
X16033928Y-17905357D01*
X16033928Y-17891072D01*
X16019643Y-17862500D01*
X15991071Y-17848214D01*
X15948214Y-17848214D01*
X15919643Y-17833929D01*
X15905357Y-17805357D01*
X15905357Y-17791072D01*
X15919643Y-17762500D01*
X15948214Y-17748214D01*
X15991071Y-17748214D01*
X16019643Y-17762500D01*
X16133928Y-18062500D02*
X16148214Y-18048214D01*
X16176786Y-18005357D01*
X16191071Y-17976786D01*
X16205357Y-17933929D01*
X16219643Y-17862500D01*
X16219643Y-17805357D01*
X16205357Y-17733929D01*
X16191071Y-17691072D01*
X16176786Y-17662500D01*
X16148214Y-17619643D01*
X16133928Y-17605357D01*
X9647500Y-18542500D02*
G75*
G03X9647500Y-18542500I-400000J0D01*
G01*
X9976786Y-18506786D02*
X9948214Y-18492500D01*
X9933928Y-18478214D01*
X9919643Y-18449643D01*
X9919643Y-18435357D01*
X9933928Y-18406786D01*
X9948214Y-18392500D01*
X9976786Y-18378214D01*
X10033928Y-18378214D01*
X10062500Y-18392500D01*
X10076786Y-18406786D01*
X10091071Y-18435357D01*
X10091071Y-18449643D01*
X10076786Y-18478214D01*
X10062500Y-18492500D01*
X10033928Y-18506786D01*
X9976786Y-18506786D01*
X9948214Y-18521072D01*
X9933928Y-18535357D01*
X9919643Y-18563929D01*
X9919643Y-18621072D01*
X9933928Y-18649643D01*
X9948214Y-18663929D01*
X9976786Y-18678214D01*
X10033928Y-18678214D01*
X10062500Y-18663929D01*
X10076786Y-18649643D01*
X10091071Y-18621072D01*
X10091071Y-18563929D01*
X10076786Y-18535357D01*
X10062500Y-18521072D01*
X10033928Y-18506786D01*
X10219643Y-18649643D02*
X10233928Y-18663929D01*
X10219643Y-18678214D01*
X10205357Y-18663929D01*
X10219643Y-18649643D01*
X10219643Y-18678214D01*
X10419643Y-18378214D02*
X10448214Y-18378214D01*
X10476786Y-18392500D01*
X10491071Y-18406786D01*
X10505357Y-18435357D01*
X10519643Y-18492500D01*
X10519643Y-18563929D01*
X10505357Y-18621072D01*
X10491071Y-18649643D01*
X10476786Y-18663929D01*
X10448214Y-18678214D01*
X10419643Y-18678214D01*
X10391071Y-18663929D01*
X10376786Y-18649643D01*
X10362500Y-18621072D01*
X10348214Y-18563929D01*
X10348214Y-18492500D01*
X10362500Y-18435357D01*
X10376786Y-18406786D01*
X10391071Y-18392500D01*
X10419643Y-18378214D01*
X10705357Y-18378214D02*
X10733928Y-18378214D01*
X10762500Y-18392500D01*
X10776786Y-18406786D01*
X10791071Y-18435357D01*
X10805357Y-18492500D01*
X10805357Y-18563929D01*
X10791071Y-18621072D01*
X10776786Y-18649643D01*
X10762500Y-18663929D01*
X10733928Y-18678214D01*
X10705357Y-18678214D01*
X10676786Y-18663929D01*
X10662500Y-18649643D01*
X10648214Y-18621072D01*
X10633928Y-18563929D01*
X10633928Y-18492500D01*
X10648214Y-18435357D01*
X10662500Y-18406786D01*
X10676786Y-18392500D01*
X10705357Y-18378214D01*
X10933928Y-18678214D02*
X10933928Y-18478214D01*
X10933928Y-18506786D02*
X10948214Y-18492500D01*
X10976786Y-18478214D01*
X11019643Y-18478214D01*
X11048214Y-18492500D01*
X11062500Y-18521072D01*
X11062500Y-18678214D01*
X11062500Y-18521072D02*
X11076786Y-18492500D01*
X11105357Y-18478214D01*
X11148214Y-18478214D01*
X11176786Y-18492500D01*
X11191071Y-18521072D01*
X11191071Y-18678214D01*
X11333928Y-18678214D02*
X11333928Y-18478214D01*
X11333928Y-18506786D02*
X11348214Y-18492500D01*
X11376786Y-18478214D01*
X11419643Y-18478214D01*
X11448214Y-18492500D01*
X11462500Y-18521072D01*
X11462500Y-18678214D01*
X11462500Y-18521072D02*
X11476786Y-18492500D01*
X11505357Y-18478214D01*
X11548214Y-18478214D01*
X11576786Y-18492500D01*
X11591071Y-18521072D01*
X11591071Y-18678214D01*
X12176786Y-18363929D02*
X11919643Y-18749643D01*
X12562500Y-18378214D02*
X12591071Y-18378214D01*
X12619643Y-18392500D01*
X12633928Y-18406786D01*
X12648214Y-18435357D01*
X12662500Y-18492500D01*
X12662500Y-18563929D01*
X12648214Y-18621072D01*
X12633928Y-18649643D01*
X12619643Y-18663929D01*
X12591071Y-18678214D01*
X12562500Y-18678214D01*
X12533928Y-18663929D01*
X12519643Y-18649643D01*
X12505357Y-18621072D01*
X12491071Y-18563929D01*
X12491071Y-18492500D01*
X12505357Y-18435357D01*
X12519643Y-18406786D01*
X12533928Y-18392500D01*
X12562500Y-18378214D01*
X12791071Y-18649643D02*
X12805357Y-18663929D01*
X12791071Y-18678214D01*
X12776786Y-18663929D01*
X12791071Y-18649643D01*
X12791071Y-18678214D01*
X12905357Y-18378214D02*
X13091071Y-18378214D01*
X12991071Y-18492500D01*
X13033928Y-18492500D01*
X13062500Y-18506786D01*
X13076786Y-18521072D01*
X13091071Y-18549643D01*
X13091071Y-18621072D01*
X13076786Y-18649643D01*
X13062500Y-18663929D01*
X13033928Y-18678214D01*
X12948214Y-18678214D01*
X12919643Y-18663929D01*
X12905357Y-18649643D01*
X13376786Y-18678214D02*
X13205357Y-18678214D01*
X13291071Y-18678214D02*
X13291071Y-18378214D01*
X13262500Y-18421072D01*
X13233928Y-18449643D01*
X13205357Y-18463929D01*
X13648214Y-18378214D02*
X13505357Y-18378214D01*
X13491071Y-18521072D01*
X13505357Y-18506786D01*
X13533928Y-18492500D01*
X13605357Y-18492500D01*
X13633928Y-18506786D01*
X13648214Y-18521072D01*
X13662500Y-18549643D01*
X13662500Y-18621072D01*
X13648214Y-18649643D01*
X13633928Y-18663929D01*
X13605357Y-18678214D01*
X13533928Y-18678214D01*
X13505357Y-18663929D01*
X13491071Y-18649643D01*
X13776786Y-18378214D02*
X13776786Y-18435357D01*
X13891071Y-18378214D02*
X13891071Y-18435357D01*
X14333928Y-18792500D02*
X14319643Y-18778214D01*
X14291071Y-18735357D01*
X14276786Y-18706786D01*
X14262500Y-18663929D01*
X14248214Y-18592500D01*
X14248214Y-18535357D01*
X14262500Y-18463929D01*
X14276786Y-18421072D01*
X14291071Y-18392500D01*
X14319643Y-18349643D01*
X14333928Y-18335357D01*
X14591071Y-18378214D02*
X14448214Y-18378214D01*
X14433928Y-18521072D01*
X14448214Y-18506786D01*
X14476786Y-18492500D01*
X14548214Y-18492500D01*
X14576786Y-18506786D01*
X14591071Y-18521072D01*
X14605357Y-18549643D01*
X14605357Y-18621072D01*
X14591071Y-18649643D01*
X14576786Y-18663929D01*
X14548214Y-18678214D01*
X14476786Y-18678214D01*
X14448214Y-18663929D01*
X14433928Y-18649643D01*
X14962500Y-18678214D02*
X14962500Y-18378214D01*
X15091071Y-18678214D02*
X15091071Y-18521072D01*
X15076786Y-18492500D01*
X15048214Y-18478214D01*
X15005357Y-18478214D01*
X14976786Y-18492500D01*
X14962500Y-18506786D01*
X15276786Y-18678214D02*
X15248214Y-18663929D01*
X15233928Y-18649643D01*
X15219643Y-18621072D01*
X15219643Y-18535357D01*
X15233928Y-18506786D01*
X15248214Y-18492500D01*
X15276786Y-18478214D01*
X15319643Y-18478214D01*
X15348214Y-18492500D01*
X15362500Y-18506786D01*
X15376786Y-18535357D01*
X15376786Y-18621072D01*
X15362500Y-18649643D01*
X15348214Y-18663929D01*
X15319643Y-18678214D01*
X15276786Y-18678214D01*
X15548214Y-18678214D02*
X15519643Y-18663929D01*
X15505357Y-18635357D01*
X15505357Y-18378214D01*
X15776786Y-18663929D02*
X15748214Y-18678214D01*
X15691071Y-18678214D01*
X15662500Y-18663929D01*
X15648214Y-18635357D01*
X15648214Y-18521072D01*
X15662500Y-18492500D01*
X15691071Y-18478214D01*
X15748214Y-18478214D01*
X15776786Y-18492500D01*
X15791071Y-18521072D01*
X15791071Y-18549643D01*
X15648214Y-18578214D01*
X15905357Y-18663929D02*
X15933928Y-18678214D01*
X15991071Y-18678214D01*
X16019643Y-18663929D01*
X16033928Y-18635357D01*
X16033928Y-18621072D01*
X16019643Y-18592500D01*
X15991071Y-18578214D01*
X15948214Y-18578214D01*
X15919643Y-18563929D01*
X15905357Y-18535357D01*
X15905357Y-18521072D01*
X15919643Y-18492500D01*
X15948214Y-18478214D01*
X15991071Y-18478214D01*
X16019643Y-18492500D01*
X16133928Y-18792500D02*
X16148214Y-18778214D01*
X16176786Y-18735357D01*
X16191071Y-18706786D01*
X16205357Y-18663929D01*
X16219643Y-18592500D01*
X16219643Y-18535357D01*
X16205357Y-18463929D01*
X16191071Y-18421072D01*
X16176786Y-18392500D01*
X16148214Y-18349643D01*
X16133928Y-18335357D01*
M02*
