G04 #@! TF.GenerationSoftware,KiCad,Pcbnew,5.1.4*
G04 #@! TF.CreationDate,2019-10-24T23:25:40+02:00*
G04 #@! TF.ProjectId,faceplate,66616365-706c-4617-9465-2e6b69636164,rev?*
G04 #@! TF.SameCoordinates,Original*
G04 #@! TF.FileFunction,Copper,L2,Bot*
G04 #@! TF.FilePolarity,Positive*
%FSLAX46Y46*%
G04 Gerber Fmt 4.6, Leading zero omitted, Abs format (unit mm)*
G04 Created by KiCad (PCBNEW 5.1.4) date 2019-10-24 23:25:40*
%MOMM*%
%LPD*%
G04 APERTURE LIST*
%ADD10C,9.000000*%
%ADD11C,7.000000*%
%ADD12C,0.254000*%
G04 APERTURE END LIST*
D10*
X109000000Y-59000000D03*
X109000000Y-79000000D03*
X109000000Y-99000000D03*
D11*
X109000000Y-117500000D03*
X109000000Y-133000000D03*
X109000000Y-148500000D03*
D10*
X129000000Y-68500000D03*
X129000000Y-99000000D03*
D12*
G36*
X138340001Y-167840000D02*
G01*
X97160000Y-167840000D01*
X97160000Y-164000000D01*
X99836807Y-164000000D01*
X99840001Y-164032429D01*
X99840000Y-166967580D01*
X99836807Y-167000000D01*
X99849550Y-167129383D01*
X99887290Y-167253793D01*
X99948575Y-167368450D01*
X100031052Y-167468948D01*
X100131550Y-167551425D01*
X100246207Y-167612710D01*
X100370617Y-167650450D01*
X100500000Y-167663193D01*
X100532419Y-167660000D01*
X107467581Y-167660000D01*
X107500000Y-167663193D01*
X107532419Y-167660000D01*
X107629383Y-167650450D01*
X107753793Y-167612710D01*
X107868450Y-167551425D01*
X107968948Y-167468948D01*
X108051425Y-167368450D01*
X108112710Y-167253793D01*
X108150450Y-167129383D01*
X108163193Y-167000000D01*
X108160000Y-166967581D01*
X108160000Y-164032419D01*
X108163193Y-164000000D01*
X127336807Y-164000000D01*
X127340001Y-164032429D01*
X127340000Y-166967580D01*
X127336807Y-167000000D01*
X127349550Y-167129383D01*
X127387290Y-167253793D01*
X127448575Y-167368450D01*
X127531052Y-167468948D01*
X127631550Y-167551425D01*
X127746207Y-167612710D01*
X127870617Y-167650450D01*
X128000000Y-167663193D01*
X128032419Y-167660000D01*
X134967581Y-167660000D01*
X135000000Y-167663193D01*
X135032419Y-167660000D01*
X135129383Y-167650450D01*
X135253793Y-167612710D01*
X135368450Y-167551425D01*
X135468948Y-167468948D01*
X135551425Y-167368450D01*
X135612710Y-167253793D01*
X135650450Y-167129383D01*
X135663193Y-167000000D01*
X135660000Y-166967581D01*
X135660000Y-164032419D01*
X135663193Y-164000000D01*
X135650450Y-163870617D01*
X135612710Y-163746207D01*
X135551425Y-163631550D01*
X135468948Y-163531052D01*
X135368450Y-163448575D01*
X135253793Y-163387290D01*
X135129383Y-163349550D01*
X135032419Y-163340000D01*
X135000000Y-163336807D01*
X134967581Y-163340000D01*
X128032419Y-163340000D01*
X128000000Y-163336807D01*
X127967581Y-163340000D01*
X127870617Y-163349550D01*
X127746207Y-163387290D01*
X127631550Y-163448575D01*
X127531052Y-163531052D01*
X127448575Y-163631550D01*
X127387290Y-163746207D01*
X127349550Y-163870617D01*
X127336807Y-164000000D01*
X108163193Y-164000000D01*
X108150450Y-163870617D01*
X108112710Y-163746207D01*
X108051425Y-163631550D01*
X107968948Y-163531052D01*
X107868450Y-163448575D01*
X107753793Y-163387290D01*
X107629383Y-163349550D01*
X107532419Y-163340000D01*
X107500000Y-163336807D01*
X107467581Y-163340000D01*
X100532419Y-163340000D01*
X100500000Y-163336807D01*
X100467581Y-163340000D01*
X100370617Y-163349550D01*
X100246207Y-163387290D01*
X100131550Y-163448575D01*
X100031052Y-163531052D01*
X99948575Y-163631550D01*
X99887290Y-163746207D01*
X99849550Y-163870617D01*
X99836807Y-164000000D01*
X97160000Y-164000000D01*
X97160000Y-148092738D01*
X104865000Y-148092738D01*
X104865000Y-148907262D01*
X105023906Y-149706135D01*
X105335611Y-150458657D01*
X105788136Y-151135909D01*
X106364091Y-151711864D01*
X107041343Y-152164389D01*
X107793865Y-152476094D01*
X108592738Y-152635000D01*
X109407262Y-152635000D01*
X110206135Y-152476094D01*
X110958657Y-152164389D01*
X111635909Y-151711864D01*
X112211864Y-151135909D01*
X112664389Y-150458657D01*
X112976094Y-149706135D01*
X113135000Y-148907262D01*
X113135000Y-148092738D01*
X112976094Y-147293865D01*
X112664389Y-146541343D01*
X112211864Y-145864091D01*
X111635909Y-145288136D01*
X110958657Y-144835611D01*
X110206135Y-144523906D01*
X109407262Y-144365000D01*
X108592738Y-144365000D01*
X107793865Y-144523906D01*
X107041343Y-144835611D01*
X106364091Y-145288136D01*
X105788136Y-145864091D01*
X105335611Y-146541343D01*
X105023906Y-147293865D01*
X104865000Y-148092738D01*
X97160000Y-148092738D01*
X97160000Y-132592738D01*
X104865000Y-132592738D01*
X104865000Y-133407262D01*
X105023906Y-134206135D01*
X105335611Y-134958657D01*
X105788136Y-135635909D01*
X106364091Y-136211864D01*
X107041343Y-136664389D01*
X107793865Y-136976094D01*
X108592738Y-137135000D01*
X109407262Y-137135000D01*
X110206135Y-136976094D01*
X110958657Y-136664389D01*
X111635909Y-136211864D01*
X112211864Y-135635909D01*
X112664389Y-134958657D01*
X112976094Y-134206135D01*
X113135000Y-133407262D01*
X113135000Y-132592738D01*
X112976094Y-131793865D01*
X112664389Y-131041343D01*
X112211864Y-130364091D01*
X111635909Y-129788136D01*
X110958657Y-129335611D01*
X110206135Y-129023906D01*
X109407262Y-128865000D01*
X108592738Y-128865000D01*
X107793865Y-129023906D01*
X107041343Y-129335611D01*
X106364091Y-129788136D01*
X105788136Y-130364091D01*
X105335611Y-131041343D01*
X105023906Y-131793865D01*
X104865000Y-132592738D01*
X97160000Y-132592738D01*
X97160000Y-117092738D01*
X104865000Y-117092738D01*
X104865000Y-117907262D01*
X105023906Y-118706135D01*
X105335611Y-119458657D01*
X105788136Y-120135909D01*
X106364091Y-120711864D01*
X107041343Y-121164389D01*
X107793865Y-121476094D01*
X108592738Y-121635000D01*
X109407262Y-121635000D01*
X110206135Y-121476094D01*
X110958657Y-121164389D01*
X111635909Y-120711864D01*
X112211864Y-120135909D01*
X112664389Y-119458657D01*
X112976094Y-118706135D01*
X113135000Y-117907262D01*
X113135000Y-117092738D01*
X112976094Y-116293865D01*
X112664389Y-115541343D01*
X112211864Y-114864091D01*
X111635909Y-114288136D01*
X110958657Y-113835611D01*
X110206135Y-113523906D01*
X109407262Y-113365000D01*
X108592738Y-113365000D01*
X107793865Y-113523906D01*
X107041343Y-113835611D01*
X106364091Y-114288136D01*
X105788136Y-114864091D01*
X105335611Y-115541343D01*
X105023906Y-116293865D01*
X104865000Y-117092738D01*
X97160000Y-117092738D01*
X97160000Y-98494247D01*
X103865000Y-98494247D01*
X103865000Y-99505753D01*
X104062335Y-100497824D01*
X104449422Y-101432335D01*
X105011385Y-102273372D01*
X105726628Y-102988615D01*
X106567665Y-103550578D01*
X107502176Y-103937665D01*
X108494247Y-104135000D01*
X109505753Y-104135000D01*
X110497824Y-103937665D01*
X111432335Y-103550578D01*
X112273372Y-102988615D01*
X112988615Y-102273372D01*
X113550578Y-101432335D01*
X113937665Y-100497824D01*
X114135000Y-99505753D01*
X114135000Y-98494247D01*
X123865000Y-98494247D01*
X123865000Y-99505753D01*
X124062335Y-100497824D01*
X124449422Y-101432335D01*
X125011385Y-102273372D01*
X125726628Y-102988615D01*
X126567665Y-103550578D01*
X127502176Y-103937665D01*
X128494247Y-104135000D01*
X129505753Y-104135000D01*
X130497824Y-103937665D01*
X131432335Y-103550578D01*
X132273372Y-102988615D01*
X132988615Y-102273372D01*
X133550578Y-101432335D01*
X133937665Y-100497824D01*
X134135000Y-99505753D01*
X134135000Y-98494247D01*
X133937665Y-97502176D01*
X133550578Y-96567665D01*
X132988615Y-95726628D01*
X132273372Y-95011385D01*
X131432335Y-94449422D01*
X130497824Y-94062335D01*
X129505753Y-93865000D01*
X128494247Y-93865000D01*
X127502176Y-94062335D01*
X126567665Y-94449422D01*
X125726628Y-95011385D01*
X125011385Y-95726628D01*
X124449422Y-96567665D01*
X124062335Y-97502176D01*
X123865000Y-98494247D01*
X114135000Y-98494247D01*
X113937665Y-97502176D01*
X113550578Y-96567665D01*
X112988615Y-95726628D01*
X112273372Y-95011385D01*
X111432335Y-94449422D01*
X110497824Y-94062335D01*
X109505753Y-93865000D01*
X108494247Y-93865000D01*
X107502176Y-94062335D01*
X106567665Y-94449422D01*
X105726628Y-95011385D01*
X105011385Y-95726628D01*
X104449422Y-96567665D01*
X104062335Y-97502176D01*
X103865000Y-98494247D01*
X97160000Y-98494247D01*
X97160000Y-78494247D01*
X103865000Y-78494247D01*
X103865000Y-79505753D01*
X104062335Y-80497824D01*
X104449422Y-81432335D01*
X105011385Y-82273372D01*
X105726628Y-82988615D01*
X106567665Y-83550578D01*
X107502176Y-83937665D01*
X108494247Y-84135000D01*
X109505753Y-84135000D01*
X110497824Y-83937665D01*
X111432335Y-83550578D01*
X112273372Y-82988615D01*
X112988615Y-82273372D01*
X113550578Y-81432335D01*
X113937665Y-80497824D01*
X114135000Y-79505753D01*
X114135000Y-78494247D01*
X113937665Y-77502176D01*
X113550578Y-76567665D01*
X112988615Y-75726628D01*
X112273372Y-75011385D01*
X111432335Y-74449422D01*
X110497824Y-74062335D01*
X109505753Y-73865000D01*
X108494247Y-73865000D01*
X107502176Y-74062335D01*
X106567665Y-74449422D01*
X105726628Y-75011385D01*
X105011385Y-75726628D01*
X104449422Y-76567665D01*
X104062335Y-77502176D01*
X103865000Y-78494247D01*
X97160000Y-78494247D01*
X97160000Y-67994247D01*
X123865000Y-67994247D01*
X123865000Y-69005753D01*
X124062335Y-69997824D01*
X124449422Y-70932335D01*
X125011385Y-71773372D01*
X125726628Y-72488615D01*
X126567665Y-73050578D01*
X127502176Y-73437665D01*
X128494247Y-73635000D01*
X129505753Y-73635000D01*
X130497824Y-73437665D01*
X131432335Y-73050578D01*
X132273372Y-72488615D01*
X132988615Y-71773372D01*
X133550578Y-70932335D01*
X133937665Y-69997824D01*
X134135000Y-69005753D01*
X134135000Y-67994247D01*
X133937665Y-67002176D01*
X133550578Y-66067665D01*
X132988615Y-65226628D01*
X132273372Y-64511385D01*
X131432335Y-63949422D01*
X130497824Y-63562335D01*
X129505753Y-63365000D01*
X128494247Y-63365000D01*
X127502176Y-63562335D01*
X126567665Y-63949422D01*
X125726628Y-64511385D01*
X125011385Y-65226628D01*
X124449422Y-66067665D01*
X124062335Y-67002176D01*
X123865000Y-67994247D01*
X97160000Y-67994247D01*
X97160000Y-58494247D01*
X103865000Y-58494247D01*
X103865000Y-59505753D01*
X104062335Y-60497824D01*
X104449422Y-61432335D01*
X105011385Y-62273372D01*
X105726628Y-62988615D01*
X106567665Y-63550578D01*
X107502176Y-63937665D01*
X108494247Y-64135000D01*
X109505753Y-64135000D01*
X110497824Y-63937665D01*
X111432335Y-63550578D01*
X112273372Y-62988615D01*
X112988615Y-62273372D01*
X113550578Y-61432335D01*
X113937665Y-60497824D01*
X114135000Y-59505753D01*
X114135000Y-58494247D01*
X113937665Y-57502176D01*
X113550578Y-56567665D01*
X112988615Y-55726628D01*
X112273372Y-55011385D01*
X111432335Y-54449422D01*
X110497824Y-54062335D01*
X109505753Y-53865000D01*
X108494247Y-53865000D01*
X107502176Y-54062335D01*
X106567665Y-54449422D01*
X105726628Y-55011385D01*
X105011385Y-55726628D01*
X104449422Y-56567665D01*
X104062335Y-57502176D01*
X103865000Y-58494247D01*
X97160000Y-58494247D01*
X97160000Y-41500000D01*
X99836807Y-41500000D01*
X99840001Y-41532429D01*
X99840000Y-44467580D01*
X99836807Y-44500000D01*
X99849550Y-44629383D01*
X99887290Y-44753793D01*
X99948575Y-44868450D01*
X100031052Y-44968948D01*
X100131550Y-45051425D01*
X100246207Y-45112710D01*
X100370617Y-45150450D01*
X100500000Y-45163193D01*
X100532419Y-45160000D01*
X107467581Y-45160000D01*
X107500000Y-45163193D01*
X107532419Y-45160000D01*
X107629383Y-45150450D01*
X107753793Y-45112710D01*
X107868450Y-45051425D01*
X107968948Y-44968948D01*
X108051425Y-44868450D01*
X108112710Y-44753793D01*
X108150450Y-44629383D01*
X108163193Y-44500000D01*
X108160000Y-44467581D01*
X108160000Y-41532419D01*
X108163193Y-41500000D01*
X127336807Y-41500000D01*
X127340001Y-41532429D01*
X127340000Y-44467580D01*
X127336807Y-44500000D01*
X127349550Y-44629383D01*
X127387290Y-44753793D01*
X127448575Y-44868450D01*
X127531052Y-44968948D01*
X127631550Y-45051425D01*
X127746207Y-45112710D01*
X127870617Y-45150450D01*
X128000000Y-45163193D01*
X128032419Y-45160000D01*
X134967581Y-45160000D01*
X135000000Y-45163193D01*
X135032419Y-45160000D01*
X135129383Y-45150450D01*
X135253793Y-45112710D01*
X135368450Y-45051425D01*
X135468948Y-44968948D01*
X135551425Y-44868450D01*
X135612710Y-44753793D01*
X135650450Y-44629383D01*
X135663193Y-44500000D01*
X135660000Y-44467581D01*
X135660000Y-41532419D01*
X135663193Y-41500000D01*
X135650450Y-41370617D01*
X135612710Y-41246207D01*
X135551425Y-41131550D01*
X135468948Y-41031052D01*
X135368450Y-40948575D01*
X135253793Y-40887290D01*
X135129383Y-40849550D01*
X135032419Y-40840000D01*
X135000000Y-40836807D01*
X134967581Y-40840000D01*
X128032419Y-40840000D01*
X128000000Y-40836807D01*
X127967581Y-40840000D01*
X127870617Y-40849550D01*
X127746207Y-40887290D01*
X127631550Y-40948575D01*
X127531052Y-41031052D01*
X127448575Y-41131550D01*
X127387290Y-41246207D01*
X127349550Y-41370617D01*
X127336807Y-41500000D01*
X108163193Y-41500000D01*
X108150450Y-41370617D01*
X108112710Y-41246207D01*
X108051425Y-41131550D01*
X107968948Y-41031052D01*
X107868450Y-40948575D01*
X107753793Y-40887290D01*
X107629383Y-40849550D01*
X107532419Y-40840000D01*
X107500000Y-40836807D01*
X107467581Y-40840000D01*
X100532419Y-40840000D01*
X100500000Y-40836807D01*
X100467581Y-40840000D01*
X100370617Y-40849550D01*
X100246207Y-40887290D01*
X100131550Y-40948575D01*
X100031052Y-41031052D01*
X99948575Y-41131550D01*
X99887290Y-41246207D01*
X99849550Y-41370617D01*
X99836807Y-41500000D01*
X97160000Y-41500000D01*
X97160000Y-40660000D01*
X138340000Y-40660000D01*
X138340001Y-167840000D01*
X138340001Y-167840000D01*
G37*
X138340001Y-167840000D02*
X97160000Y-167840000D01*
X97160000Y-164000000D01*
X99836807Y-164000000D01*
X99840001Y-164032429D01*
X99840000Y-166967580D01*
X99836807Y-167000000D01*
X99849550Y-167129383D01*
X99887290Y-167253793D01*
X99948575Y-167368450D01*
X100031052Y-167468948D01*
X100131550Y-167551425D01*
X100246207Y-167612710D01*
X100370617Y-167650450D01*
X100500000Y-167663193D01*
X100532419Y-167660000D01*
X107467581Y-167660000D01*
X107500000Y-167663193D01*
X107532419Y-167660000D01*
X107629383Y-167650450D01*
X107753793Y-167612710D01*
X107868450Y-167551425D01*
X107968948Y-167468948D01*
X108051425Y-167368450D01*
X108112710Y-167253793D01*
X108150450Y-167129383D01*
X108163193Y-167000000D01*
X108160000Y-166967581D01*
X108160000Y-164032419D01*
X108163193Y-164000000D01*
X127336807Y-164000000D01*
X127340001Y-164032429D01*
X127340000Y-166967580D01*
X127336807Y-167000000D01*
X127349550Y-167129383D01*
X127387290Y-167253793D01*
X127448575Y-167368450D01*
X127531052Y-167468948D01*
X127631550Y-167551425D01*
X127746207Y-167612710D01*
X127870617Y-167650450D01*
X128000000Y-167663193D01*
X128032419Y-167660000D01*
X134967581Y-167660000D01*
X135000000Y-167663193D01*
X135032419Y-167660000D01*
X135129383Y-167650450D01*
X135253793Y-167612710D01*
X135368450Y-167551425D01*
X135468948Y-167468948D01*
X135551425Y-167368450D01*
X135612710Y-167253793D01*
X135650450Y-167129383D01*
X135663193Y-167000000D01*
X135660000Y-166967581D01*
X135660000Y-164032419D01*
X135663193Y-164000000D01*
X135650450Y-163870617D01*
X135612710Y-163746207D01*
X135551425Y-163631550D01*
X135468948Y-163531052D01*
X135368450Y-163448575D01*
X135253793Y-163387290D01*
X135129383Y-163349550D01*
X135032419Y-163340000D01*
X135000000Y-163336807D01*
X134967581Y-163340000D01*
X128032419Y-163340000D01*
X128000000Y-163336807D01*
X127967581Y-163340000D01*
X127870617Y-163349550D01*
X127746207Y-163387290D01*
X127631550Y-163448575D01*
X127531052Y-163531052D01*
X127448575Y-163631550D01*
X127387290Y-163746207D01*
X127349550Y-163870617D01*
X127336807Y-164000000D01*
X108163193Y-164000000D01*
X108150450Y-163870617D01*
X108112710Y-163746207D01*
X108051425Y-163631550D01*
X107968948Y-163531052D01*
X107868450Y-163448575D01*
X107753793Y-163387290D01*
X107629383Y-163349550D01*
X107532419Y-163340000D01*
X107500000Y-163336807D01*
X107467581Y-163340000D01*
X100532419Y-163340000D01*
X100500000Y-163336807D01*
X100467581Y-163340000D01*
X100370617Y-163349550D01*
X100246207Y-163387290D01*
X100131550Y-163448575D01*
X100031052Y-163531052D01*
X99948575Y-163631550D01*
X99887290Y-163746207D01*
X99849550Y-163870617D01*
X99836807Y-164000000D01*
X97160000Y-164000000D01*
X97160000Y-148092738D01*
X104865000Y-148092738D01*
X104865000Y-148907262D01*
X105023906Y-149706135D01*
X105335611Y-150458657D01*
X105788136Y-151135909D01*
X106364091Y-151711864D01*
X107041343Y-152164389D01*
X107793865Y-152476094D01*
X108592738Y-152635000D01*
X109407262Y-152635000D01*
X110206135Y-152476094D01*
X110958657Y-152164389D01*
X111635909Y-151711864D01*
X112211864Y-151135909D01*
X112664389Y-150458657D01*
X112976094Y-149706135D01*
X113135000Y-148907262D01*
X113135000Y-148092738D01*
X112976094Y-147293865D01*
X112664389Y-146541343D01*
X112211864Y-145864091D01*
X111635909Y-145288136D01*
X110958657Y-144835611D01*
X110206135Y-144523906D01*
X109407262Y-144365000D01*
X108592738Y-144365000D01*
X107793865Y-144523906D01*
X107041343Y-144835611D01*
X106364091Y-145288136D01*
X105788136Y-145864091D01*
X105335611Y-146541343D01*
X105023906Y-147293865D01*
X104865000Y-148092738D01*
X97160000Y-148092738D01*
X97160000Y-132592738D01*
X104865000Y-132592738D01*
X104865000Y-133407262D01*
X105023906Y-134206135D01*
X105335611Y-134958657D01*
X105788136Y-135635909D01*
X106364091Y-136211864D01*
X107041343Y-136664389D01*
X107793865Y-136976094D01*
X108592738Y-137135000D01*
X109407262Y-137135000D01*
X110206135Y-136976094D01*
X110958657Y-136664389D01*
X111635909Y-136211864D01*
X112211864Y-135635909D01*
X112664389Y-134958657D01*
X112976094Y-134206135D01*
X113135000Y-133407262D01*
X113135000Y-132592738D01*
X112976094Y-131793865D01*
X112664389Y-131041343D01*
X112211864Y-130364091D01*
X111635909Y-129788136D01*
X110958657Y-129335611D01*
X110206135Y-129023906D01*
X109407262Y-128865000D01*
X108592738Y-128865000D01*
X107793865Y-129023906D01*
X107041343Y-129335611D01*
X106364091Y-129788136D01*
X105788136Y-130364091D01*
X105335611Y-131041343D01*
X105023906Y-131793865D01*
X104865000Y-132592738D01*
X97160000Y-132592738D01*
X97160000Y-117092738D01*
X104865000Y-117092738D01*
X104865000Y-117907262D01*
X105023906Y-118706135D01*
X105335611Y-119458657D01*
X105788136Y-120135909D01*
X106364091Y-120711864D01*
X107041343Y-121164389D01*
X107793865Y-121476094D01*
X108592738Y-121635000D01*
X109407262Y-121635000D01*
X110206135Y-121476094D01*
X110958657Y-121164389D01*
X111635909Y-120711864D01*
X112211864Y-120135909D01*
X112664389Y-119458657D01*
X112976094Y-118706135D01*
X113135000Y-117907262D01*
X113135000Y-117092738D01*
X112976094Y-116293865D01*
X112664389Y-115541343D01*
X112211864Y-114864091D01*
X111635909Y-114288136D01*
X110958657Y-113835611D01*
X110206135Y-113523906D01*
X109407262Y-113365000D01*
X108592738Y-113365000D01*
X107793865Y-113523906D01*
X107041343Y-113835611D01*
X106364091Y-114288136D01*
X105788136Y-114864091D01*
X105335611Y-115541343D01*
X105023906Y-116293865D01*
X104865000Y-117092738D01*
X97160000Y-117092738D01*
X97160000Y-98494247D01*
X103865000Y-98494247D01*
X103865000Y-99505753D01*
X104062335Y-100497824D01*
X104449422Y-101432335D01*
X105011385Y-102273372D01*
X105726628Y-102988615D01*
X106567665Y-103550578D01*
X107502176Y-103937665D01*
X108494247Y-104135000D01*
X109505753Y-104135000D01*
X110497824Y-103937665D01*
X111432335Y-103550578D01*
X112273372Y-102988615D01*
X112988615Y-102273372D01*
X113550578Y-101432335D01*
X113937665Y-100497824D01*
X114135000Y-99505753D01*
X114135000Y-98494247D01*
X123865000Y-98494247D01*
X123865000Y-99505753D01*
X124062335Y-100497824D01*
X124449422Y-101432335D01*
X125011385Y-102273372D01*
X125726628Y-102988615D01*
X126567665Y-103550578D01*
X127502176Y-103937665D01*
X128494247Y-104135000D01*
X129505753Y-104135000D01*
X130497824Y-103937665D01*
X131432335Y-103550578D01*
X132273372Y-102988615D01*
X132988615Y-102273372D01*
X133550578Y-101432335D01*
X133937665Y-100497824D01*
X134135000Y-99505753D01*
X134135000Y-98494247D01*
X133937665Y-97502176D01*
X133550578Y-96567665D01*
X132988615Y-95726628D01*
X132273372Y-95011385D01*
X131432335Y-94449422D01*
X130497824Y-94062335D01*
X129505753Y-93865000D01*
X128494247Y-93865000D01*
X127502176Y-94062335D01*
X126567665Y-94449422D01*
X125726628Y-95011385D01*
X125011385Y-95726628D01*
X124449422Y-96567665D01*
X124062335Y-97502176D01*
X123865000Y-98494247D01*
X114135000Y-98494247D01*
X113937665Y-97502176D01*
X113550578Y-96567665D01*
X112988615Y-95726628D01*
X112273372Y-95011385D01*
X111432335Y-94449422D01*
X110497824Y-94062335D01*
X109505753Y-93865000D01*
X108494247Y-93865000D01*
X107502176Y-94062335D01*
X106567665Y-94449422D01*
X105726628Y-95011385D01*
X105011385Y-95726628D01*
X104449422Y-96567665D01*
X104062335Y-97502176D01*
X103865000Y-98494247D01*
X97160000Y-98494247D01*
X97160000Y-78494247D01*
X103865000Y-78494247D01*
X103865000Y-79505753D01*
X104062335Y-80497824D01*
X104449422Y-81432335D01*
X105011385Y-82273372D01*
X105726628Y-82988615D01*
X106567665Y-83550578D01*
X107502176Y-83937665D01*
X108494247Y-84135000D01*
X109505753Y-84135000D01*
X110497824Y-83937665D01*
X111432335Y-83550578D01*
X112273372Y-82988615D01*
X112988615Y-82273372D01*
X113550578Y-81432335D01*
X113937665Y-80497824D01*
X114135000Y-79505753D01*
X114135000Y-78494247D01*
X113937665Y-77502176D01*
X113550578Y-76567665D01*
X112988615Y-75726628D01*
X112273372Y-75011385D01*
X111432335Y-74449422D01*
X110497824Y-74062335D01*
X109505753Y-73865000D01*
X108494247Y-73865000D01*
X107502176Y-74062335D01*
X106567665Y-74449422D01*
X105726628Y-75011385D01*
X105011385Y-75726628D01*
X104449422Y-76567665D01*
X104062335Y-77502176D01*
X103865000Y-78494247D01*
X97160000Y-78494247D01*
X97160000Y-67994247D01*
X123865000Y-67994247D01*
X123865000Y-69005753D01*
X124062335Y-69997824D01*
X124449422Y-70932335D01*
X125011385Y-71773372D01*
X125726628Y-72488615D01*
X126567665Y-73050578D01*
X127502176Y-73437665D01*
X128494247Y-73635000D01*
X129505753Y-73635000D01*
X130497824Y-73437665D01*
X131432335Y-73050578D01*
X132273372Y-72488615D01*
X132988615Y-71773372D01*
X133550578Y-70932335D01*
X133937665Y-69997824D01*
X134135000Y-69005753D01*
X134135000Y-67994247D01*
X133937665Y-67002176D01*
X133550578Y-66067665D01*
X132988615Y-65226628D01*
X132273372Y-64511385D01*
X131432335Y-63949422D01*
X130497824Y-63562335D01*
X129505753Y-63365000D01*
X128494247Y-63365000D01*
X127502176Y-63562335D01*
X126567665Y-63949422D01*
X125726628Y-64511385D01*
X125011385Y-65226628D01*
X124449422Y-66067665D01*
X124062335Y-67002176D01*
X123865000Y-67994247D01*
X97160000Y-67994247D01*
X97160000Y-58494247D01*
X103865000Y-58494247D01*
X103865000Y-59505753D01*
X104062335Y-60497824D01*
X104449422Y-61432335D01*
X105011385Y-62273372D01*
X105726628Y-62988615D01*
X106567665Y-63550578D01*
X107502176Y-63937665D01*
X108494247Y-64135000D01*
X109505753Y-64135000D01*
X110497824Y-63937665D01*
X111432335Y-63550578D01*
X112273372Y-62988615D01*
X112988615Y-62273372D01*
X113550578Y-61432335D01*
X113937665Y-60497824D01*
X114135000Y-59505753D01*
X114135000Y-58494247D01*
X113937665Y-57502176D01*
X113550578Y-56567665D01*
X112988615Y-55726628D01*
X112273372Y-55011385D01*
X111432335Y-54449422D01*
X110497824Y-54062335D01*
X109505753Y-53865000D01*
X108494247Y-53865000D01*
X107502176Y-54062335D01*
X106567665Y-54449422D01*
X105726628Y-55011385D01*
X105011385Y-55726628D01*
X104449422Y-56567665D01*
X104062335Y-57502176D01*
X103865000Y-58494247D01*
X97160000Y-58494247D01*
X97160000Y-41500000D01*
X99836807Y-41500000D01*
X99840001Y-41532429D01*
X99840000Y-44467580D01*
X99836807Y-44500000D01*
X99849550Y-44629383D01*
X99887290Y-44753793D01*
X99948575Y-44868450D01*
X100031052Y-44968948D01*
X100131550Y-45051425D01*
X100246207Y-45112710D01*
X100370617Y-45150450D01*
X100500000Y-45163193D01*
X100532419Y-45160000D01*
X107467581Y-45160000D01*
X107500000Y-45163193D01*
X107532419Y-45160000D01*
X107629383Y-45150450D01*
X107753793Y-45112710D01*
X107868450Y-45051425D01*
X107968948Y-44968948D01*
X108051425Y-44868450D01*
X108112710Y-44753793D01*
X108150450Y-44629383D01*
X108163193Y-44500000D01*
X108160000Y-44467581D01*
X108160000Y-41532419D01*
X108163193Y-41500000D01*
X127336807Y-41500000D01*
X127340001Y-41532429D01*
X127340000Y-44467580D01*
X127336807Y-44500000D01*
X127349550Y-44629383D01*
X127387290Y-44753793D01*
X127448575Y-44868450D01*
X127531052Y-44968948D01*
X127631550Y-45051425D01*
X127746207Y-45112710D01*
X127870617Y-45150450D01*
X128000000Y-45163193D01*
X128032419Y-45160000D01*
X134967581Y-45160000D01*
X135000000Y-45163193D01*
X135032419Y-45160000D01*
X135129383Y-45150450D01*
X135253793Y-45112710D01*
X135368450Y-45051425D01*
X135468948Y-44968948D01*
X135551425Y-44868450D01*
X135612710Y-44753793D01*
X135650450Y-44629383D01*
X135663193Y-44500000D01*
X135660000Y-44467581D01*
X135660000Y-41532419D01*
X135663193Y-41500000D01*
X135650450Y-41370617D01*
X135612710Y-41246207D01*
X135551425Y-41131550D01*
X135468948Y-41031052D01*
X135368450Y-40948575D01*
X135253793Y-40887290D01*
X135129383Y-40849550D01*
X135032419Y-40840000D01*
X135000000Y-40836807D01*
X134967581Y-40840000D01*
X128032419Y-40840000D01*
X128000000Y-40836807D01*
X127967581Y-40840000D01*
X127870617Y-40849550D01*
X127746207Y-40887290D01*
X127631550Y-40948575D01*
X127531052Y-41031052D01*
X127448575Y-41131550D01*
X127387290Y-41246207D01*
X127349550Y-41370617D01*
X127336807Y-41500000D01*
X108163193Y-41500000D01*
X108150450Y-41370617D01*
X108112710Y-41246207D01*
X108051425Y-41131550D01*
X107968948Y-41031052D01*
X107868450Y-40948575D01*
X107753793Y-40887290D01*
X107629383Y-40849550D01*
X107532419Y-40840000D01*
X107500000Y-40836807D01*
X107467581Y-40840000D01*
X100532419Y-40840000D01*
X100500000Y-40836807D01*
X100467581Y-40840000D01*
X100370617Y-40849550D01*
X100246207Y-40887290D01*
X100131550Y-40948575D01*
X100031052Y-41031052D01*
X99948575Y-41131550D01*
X99887290Y-41246207D01*
X99849550Y-41370617D01*
X99836807Y-41500000D01*
X97160000Y-41500000D01*
X97160000Y-40660000D01*
X138340000Y-40660000D01*
X138340001Y-167840000D01*
M02*
