G04 #@! TF.GenerationSoftware,KiCad,Pcbnew,5.1.4*
G04 #@! TF.CreationDate,2019-10-24T23:25:40+02:00*
G04 #@! TF.ProjectId,faceplate,66616365-706c-4617-9465-2e6b69636164,rev?*
G04 #@! TF.SameCoordinates,Original*
G04 #@! TF.FileFunction,Profile,NP*
%FSLAX46Y46*%
G04 Gerber Fmt 4.6, Leading zero omitted, Abs format (unit mm)*
G04 Created by KiCad (PCBNEW 5.1.4) date 2019-10-24 23:25:40*
%MOMM*%
%LPD*%
G04 APERTURE LIST*
%ADD10C,0.050000*%
G04 APERTURE END LIST*
D10*
X107500000Y-41500000D02*
X107500000Y-44500000D01*
X100500000Y-41500000D02*
X104000000Y-41500000D01*
X100500000Y-44500000D02*
X100500000Y-41500000D01*
X107500000Y-44500000D02*
X100500000Y-44500000D01*
X104000000Y-41500000D02*
X107500000Y-41500000D01*
X135000000Y-41500000D02*
X135000000Y-44500000D01*
X128000000Y-41500000D02*
X131500000Y-41500000D01*
X128000000Y-44500000D02*
X128000000Y-41500000D01*
X135000000Y-44500000D02*
X128000000Y-44500000D01*
X131500000Y-41500000D02*
X135000000Y-41500000D01*
X135000000Y-164000000D02*
X135000000Y-167000000D01*
X128000000Y-164000000D02*
X131500000Y-164000000D01*
X131500000Y-164000000D02*
X135000000Y-164000000D01*
X135000000Y-167000000D02*
X128000000Y-167000000D01*
X128000000Y-167000000D02*
X128000000Y-164000000D01*
X100500000Y-167000000D02*
X100500000Y-164000000D01*
X107500000Y-167000000D02*
X100500000Y-167000000D01*
X107500000Y-164000000D02*
X107500000Y-167000000D01*
X100500000Y-164000000D02*
X107500000Y-164000000D01*
X139000000Y-40000000D02*
X139000000Y-168500000D01*
X96500000Y-40000000D02*
X139000000Y-40000000D01*
X96500000Y-168500000D02*
X96500000Y-40000000D01*
X139000000Y-168500000D02*
X96500000Y-168500000D01*
M02*
